<?xml version="1.0" encoding="utf-8" standalone="no"?>
<!DOCTYPE svg PUBLIC "-//W3C//DTD SVG 1.1//EN"
  "http://www.w3.org/Graphics/SVG/1.1/DTD/svg11.dtd">
<svg xmlns:xlink="http://www.w3.org/1999/xlink" width="568.087187pt" height="244.529219pt" viewBox="0 0 568.087187 244.529219" xmlns="http://www.w3.org/2000/svg" version="1.1">
 <metadata>
  <rdf:RDF xmlns:dc="http://purl.org/dc/elements/1.1/" xmlns:cc="http://creativecommons.org/ns#" xmlns:rdf="http://www.w3.org/1999/02/22-rdf-syntax-ns#">
   <cc:Work>
    <dc:type rdf:resource="http://purl.org/dc/dcmitype/StillImage"/>
    <dc:date>2024-11-21T13:08:13.800761</dc:date>
    <dc:format>image/svg+xml</dc:format>
    <dc:creator>
     <cc:Agent>
      <dc:title>Matplotlib v3.9.2, https://matplotlib.org/</dc:title>
     </cc:Agent>
    </dc:creator>
   </cc:Work>
  </rdf:RDF>
 </metadata>
 <defs>
  <style type="text/css">*{stroke-linejoin: round; stroke-linecap: butt}</style>
 </defs>
 <g id="figure_1">
  <g id="patch_1">
   <path d="M 0 244.529219 
L 568.087187 244.529219 
L 568.087187 0 
L 0 0 
z
" style="fill: #ffffff"/>
  </g>
  <g id="axes_1">
   <g id="patch_2">
    <path d="M 53.328125 204.879219 
L 273.448125 204.879219 
L 273.448125 10.999219 
L 53.328125 10.999219 
z
" style="fill: #ffffff"/>
   </g>
   <g id="PolyCollection_1">
    <defs>
     <path id="m0eed6dac66" d="M 53.328125 -41.158469 
L 53.328125 -39.65 
L 90.014792 -39.65 
L 126.701458 -39.65 
L 163.388125 -39.65 
L 200.074792 -39.65 
L 236.761458 -39.65 
L 273.448125 -39.65 
L 273.448125 -41.490324 
L 273.448125 -41.490324 
L 236.761458 -41.490424 
L 200.074792 -41.490424 
L 163.388125 -41.490424 
L 126.701458 -41.491716 
L 90.014792 -41.316675 
L 53.328125 -41.158469 
z
" style="stroke: #08ad97"/>
    </defs>
    <g clip-path="url(#p7a7af65372)">
     <use xlink:href="#m0eed6dac66" x="0" y="244.529219" style="fill: #08ad97; stroke: #08ad97"/>
    </g>
   </g>
   <g id="PolyCollection_2">
    <defs>
     <path id="m509d2a8ad1" d="M 53.328125 -41.158624 
L 53.328125 -41.158469 
L 90.014792 -41.316675 
L 126.701458 -41.491716 
L 163.388125 -41.490424 
L 200.074792 -41.490424 
L 236.761458 -41.490424 
L 273.448125 -41.490324 
L 273.448125 -41.490487 
L 273.448125 -41.490487 
L 236.761458 -41.490655 
L 200.074792 -41.490583 
L 163.388125 -41.490614 
L 126.701458 -41.491888 
L 90.014792 -41.31683 
L 53.328125 -41.158624 
z
" style="stroke: #6895dd"/>
    </defs>
    <g clip-path="url(#p7a7af65372)">
     <use xlink:href="#m509d2a8ad1" x="0" y="244.529219" style="fill: #6895dd; stroke: #6895dd"/>
    </g>
   </g>
   <g id="PolyCollection_3">
    <defs>
     <path id="ma356253bdc" d="M 53.328125 -41.16159 
L 53.328125 -41.158624 
L 90.014792 -41.31683 
L 126.701458 -41.491888 
L 163.388125 -41.490614 
L 200.074792 -41.490583 
L 236.761458 -41.490655 
L 273.448125 -41.490487 
L 273.448125 -41.493462 
L 273.448125 -41.493462 
L 236.761458 -41.493699 
L 200.074792 -41.493553 
L 163.388125 -41.493615 
L 126.701458 -41.49487 
L 90.014792 -41.319797 
L 53.328125 -41.16159 
z
" style="stroke: #74c6f2"/>
    </defs>
    <g clip-path="url(#p7a7af65372)">
     <use xlink:href="#ma356253bdc" x="0" y="244.529219" style="fill: #74c6f2; stroke: #74c6f2"/>
    </g>
   </g>
   <g id="PolyCollection_4">
    <defs>
     <path id="m0cef55156f" d="M 53.328125 -41.704939 
L 53.328125 -41.16159 
L 90.014792 -41.319797 
L 126.701458 -41.49487 
L 163.388125 -41.493615 
L 200.074792 -41.493553 
L 236.761458 -41.493699 
L 273.448125 -41.493462 
L 273.448125 -45.047907 
L 273.448125 -45.047907 
L 236.761458 -45.44638 
L 200.074792 -45.212973 
L 163.388125 -44.513949 
L 126.701458 -43.773477 
L 90.014792 -42.486039 
L 53.328125 -41.704939 
z
" style="stroke: #235ebc"/>
    </defs>
    <g clip-path="url(#p7a7af65372)">
     <use xlink:href="#m0cef55156f" x="0" y="244.529219" style="fill: #235ebc; stroke: #235ebc"/>
    </g>
   </g>
   <g id="PolyCollection_5">
    <defs>
     <path id="m3be6d644de" d="M 53.328125 -42.484778 
L 53.328125 -41.704939 
L 90.014792 -42.486039 
L 126.701458 -43.773477 
L 163.388125 -44.513949 
L 200.074792 -45.212973 
L 236.761458 -45.44638 
L 273.448125 -45.047907 
L 273.448125 -115.606237 
L 273.448125 -115.606237 
L 236.761458 -90.463836 
L 200.074792 -72.493556 
L 163.388125 -58.47893 
L 126.701458 -52.934469 
L 90.014792 -46.623013 
L 53.328125 -42.484778 
z
" style="stroke: #f9d002"/>
    </defs>
    <g clip-path="url(#p7a7af65372)">
     <use xlink:href="#m3be6d644de" x="0" y="244.529219" style="fill: #f9d002; stroke: #f9d002"/>
    </g>
   </g>
   <g id="PolyCollection_6">
    <defs>
     <path id="m0f64b069e9" d="M 53.328125 -45.661329 
L 53.328125 -42.484778 
L 90.014792 -46.623013 
L 126.701458 -52.934469 
L 163.388125 -58.47893 
L 200.074792 -72.493556 
L 236.761458 -90.463836 
L 273.448125 -115.606237 
L 273.448125 -117.032867 
L 273.448125 -117.032867 
L 236.761458 -92.410311 
L 200.074792 -75.061833 
L 163.388125 -61.606698 
L 126.701458 -56.338205 
L 90.014792 -50.04553 
L 53.328125 -45.661329 
z
" style="stroke: #b20101"/>
    </defs>
    <g clip-path="url(#p7a7af65372)">
     <use xlink:href="#m0f64b069e9" x="0" y="244.529219" style="fill: #b20101; stroke: #b20101"/>
    </g>
   </g>
   <g id="PolyCollection_7">
    <defs>
     <path id="ma47b0dbca1" d="M 53.328125 -45.72854 
L 53.328125 -45.661329 
L 90.014792 -50.04553 
L 126.701458 -56.338205 
L 163.388125 -61.606698 
L 200.074792 -75.061833 
L 236.761458 -92.410311 
L 273.448125 -117.032867 
L 273.448125 -117.161474 
L 273.448125 -117.161474 
L 236.761458 -92.538918 
L 200.074792 -75.19044 
L 163.388125 -61.735305 
L 126.701458 -56.466812 
L 90.014792 -50.174137 
L 53.328125 -45.72854 
z
" style="stroke: #707070"/>
    </defs>
    <g clip-path="url(#p7a7af65372)">
     <use xlink:href="#ma47b0dbca1" x="0" y="244.529219" style="fill: #707070; stroke: #707070"/>
    </g>
   </g>
   <g id="PolyCollection_8">
    <defs>
     <path id="m0764fb8c7f" d="M 53.328125 -45.909597 
L 53.328125 -45.72854 
L 90.014792 -50.174137 
L 126.701458 -56.466812 
L 163.388125 -61.735305 
L 200.074792 -75.19044 
L 236.761458 -92.538918 
L 273.448125 -117.161474 
L 273.448125 -117.323143 
L 273.448125 -117.323143 
L 236.761458 -92.719975 
L 200.074792 -75.371497 
L 163.388125 -61.916362 
L 126.701458 -56.647869 
L 90.014792 -50.355194 
L 53.328125 -45.909597 
z
" style="stroke: #808080"/>
    </defs>
    <g clip-path="url(#p7a7af65372)">
     <use xlink:href="#m0764fb8c7f" x="0" y="244.529219" style="fill: #808080; stroke: #808080"/>
    </g>
   </g>
   <g id="PolyCollection_9">
    <defs>
     <path id="m272827acfc" d="M 53.328125 -46.361531 
L 53.328125 -45.909597 
L 90.014792 -50.355194 
L 126.701458 -56.647869 
L 163.388125 -61.916362 
L 200.074792 -75.371497 
L 236.761458 -92.719975 
L 273.448125 -117.323143 
L 273.448125 -117.938454 
L 273.448125 -117.938454 
L 236.761458 -93.335286 
L 200.074792 -75.986807 
L 163.388125 -62.531672 
L 126.701458 -57.26318 
L 90.014792 -50.970504 
L 53.328125 -46.361531 
z
" style="stroke: #606060"/>
    </defs>
    <g clip-path="url(#p7a7af65372)">
     <use xlink:href="#m272827acfc" x="0" y="244.529219" style="fill: #606060; stroke: #606060"/>
    </g>
   </g>
   <g id="PolyCollection_10">
    <defs>
     <path id="mfce8937d10" d="M 53.328125 -48.659134 
L 53.328125 -46.361531 
L 90.014792 -50.970504 
L 126.701458 -57.26318 
L 163.388125 -62.531672 
L 200.074792 -75.986807 
L 236.761458 -93.335286 
L 273.448125 -117.938454 
L 273.448125 -119.792444 
L 273.448125 -119.792444 
L 236.761458 -95.345511 
L 200.074792 -78.057135 
L 163.388125 -64.862558 
L 126.701458 -59.617816 
L 90.014792 -53.32514 
L 53.328125 -48.659134 
z
" style="stroke: #909090"/>
    </defs>
    <g clip-path="url(#p7a7af65372)">
     <use xlink:href="#mfce8937d10" x="0" y="244.529219" style="fill: #909090; stroke: #909090"/>
    </g>
   </g>
   <g id="PolyCollection_11">
    <defs>
     <path id="mc65c61d77e" d="M 53.328125 -48.723179 
L 53.328125 -48.659134 
L 90.014792 -53.32514 
L 126.701458 -59.617816 
L 163.388125 -64.862558 
L 200.074792 -78.057135 
L 236.761458 -95.345511 
L 273.448125 -119.792444 
L 273.448125 -119.917885 
L 273.448125 -119.917885 
L 236.761458 -95.470951 
L 200.074792 -78.182576 
L 163.388125 -64.987998 
L 126.701458 -59.743256 
L 90.014792 -53.450581 
L 53.328125 -48.723179 
z
" style="stroke: #505050"/>
    </defs>
    <g clip-path="url(#p7a7af65372)">
     <use xlink:href="#mc65c61d77e" x="0" y="244.529219" style="fill: #505050; stroke: #505050"/>
    </g>
   </g>
   <g id="PolyCollection_12">
    <defs>
     <path id="m4db8640726" d="M 53.328125 -48.944579 
L 53.328125 -48.723179 
L 90.014792 -53.450581 
L 126.701458 -59.743256 
L 163.388125 -64.987998 
L 200.074792 -78.182576 
L 236.761458 -95.470951 
L 273.448125 -119.917885 
L 273.448125 -120.135342 
L 273.448125 -120.135342 
L 236.761458 -95.688409 
L 200.074792 -78.400033 
L 163.388125 -65.209398 
L 126.701458 -59.964656 
L 90.014792 -53.671981 
L 53.328125 -48.944579 
z
" style="stroke: #9e5a01"/>
    </defs>
    <g clip-path="url(#p7a7af65372)">
     <use xlink:href="#m4db8640726" x="0" y="244.529219" style="fill: #9e5a01; stroke: #9e5a01"/>
    </g>
   </g>
   <g id="PolyCollection_13">
    <defs>
     <path id="m791a01f477" d="M 53.328125 -49.761407 
L 53.328125 -48.944579 
L 90.014792 -53.671981 
L 126.701458 -59.964656 
L 163.388125 -65.209398 
L 200.074792 -78.400033 
L 236.761458 -95.688409 
L 273.448125 -120.135342 
L 273.448125 -120.136777 
L 273.448125 -120.136777 
L 236.761458 -95.774658 
L 200.074792 -78.740804 
L 163.388125 -65.652168 
L 126.701458 -60.516906 
L 90.014792 -54.353361 
L 53.328125 -49.761407 
z
" style="stroke: #262626"/>
    </defs>
    <g clip-path="url(#p7a7af65372)">
     <use xlink:href="#m791a01f477" x="0" y="244.529219" style="fill: #262626; stroke: #262626"/>
    </g>
   </g>
   <g id="matplotlib.axis_1">
    <g id="xtick_1">
     <g id="line2d_1">
      <defs>
       <path id="m3c291625c4" d="M 0 0 
L 0 3.5 
" style="stroke: #000000; stroke-width: 0.8"/>
      </defs>
      <g>
       <use xlink:href="#m3c291625c4" x="53.328125" y="204.879219" style="stroke: #000000; stroke-width: 0.8"/>
      </g>
     </g>
     <g id="text_1">
      <!-- 2020 -->
      <g transform="translate(56.0875 237.329219) rotate(-90) scale(0.1 -0.1)">
       <defs>
        <path id="DejaVuSans-32" d="M 1228 531 
L 3431 531 
L 3431 0 
L 469 0 
L 469 531 
Q 828 903 1448 1529 
Q 2069 2156 2228 2338 
Q 2531 2678 2651 2914 
Q 2772 3150 2772 3378 
Q 2772 3750 2511 3984 
Q 2250 4219 1831 4219 
Q 1534 4219 1204 4116 
Q 875 4013 500 3803 
L 500 4441 
Q 881 4594 1212 4672 
Q 1544 4750 1819 4750 
Q 2544 4750 2975 4387 
Q 3406 4025 3406 3419 
Q 3406 3131 3298 2873 
Q 3191 2616 2906 2266 
Q 2828 2175 2409 1742 
Q 1991 1309 1228 531 
z
" transform="scale(0.015625)"/>
        <path id="DejaVuSans-30" d="M 2034 4250 
Q 1547 4250 1301 3770 
Q 1056 3291 1056 2328 
Q 1056 1369 1301 889 
Q 1547 409 2034 409 
Q 2525 409 2770 889 
Q 3016 1369 3016 2328 
Q 3016 3291 2770 3770 
Q 2525 4250 2034 4250 
z
M 2034 4750 
Q 2819 4750 3233 4129 
Q 3647 3509 3647 2328 
Q 3647 1150 3233 529 
Q 2819 -91 2034 -91 
Q 1250 -91 836 529 
Q 422 1150 422 2328 
Q 422 3509 836 4129 
Q 1250 4750 2034 4750 
z
" transform="scale(0.015625)"/>
       </defs>
       <use xlink:href="#DejaVuSans-32"/>
       <use xlink:href="#DejaVuSans-30" x="63.623047"/>
       <use xlink:href="#DejaVuSans-32" x="127.246094"/>
       <use xlink:href="#DejaVuSans-30" x="190.869141"/>
      </g>
     </g>
    </g>
    <g id="xtick_2">
     <g id="line2d_2">
      <g>
       <use xlink:href="#m3c291625c4" x="90.014792" y="204.879219" style="stroke: #000000; stroke-width: 0.8"/>
      </g>
     </g>
     <g id="text_2">
      <!-- 2025 -->
      <g transform="translate(92.774167 237.329219) rotate(-90) scale(0.1 -0.1)">
       <defs>
        <path id="DejaVuSans-35" d="M 691 4666 
L 3169 4666 
L 3169 4134 
L 1269 4134 
L 1269 2991 
Q 1406 3038 1543 3061 
Q 1681 3084 1819 3084 
Q 2600 3084 3056 2656 
Q 3513 2228 3513 1497 
Q 3513 744 3044 326 
Q 2575 -91 1722 -91 
Q 1428 -91 1123 -41 
Q 819 9 494 109 
L 494 744 
Q 775 591 1075 516 
Q 1375 441 1709 441 
Q 2250 441 2565 725 
Q 2881 1009 2881 1497 
Q 2881 1984 2565 2268 
Q 2250 2553 1709 2553 
Q 1456 2553 1204 2497 
Q 953 2441 691 2322 
L 691 4666 
z
" transform="scale(0.015625)"/>
       </defs>
       <use xlink:href="#DejaVuSans-32"/>
       <use xlink:href="#DejaVuSans-30" x="63.623047"/>
       <use xlink:href="#DejaVuSans-32" x="127.246094"/>
       <use xlink:href="#DejaVuSans-35" x="190.869141"/>
      </g>
     </g>
    </g>
    <g id="xtick_3">
     <g id="line2d_3">
      <g>
       <use xlink:href="#m3c291625c4" x="126.701458" y="204.879219" style="stroke: #000000; stroke-width: 0.8"/>
      </g>
     </g>
     <g id="text_3">
      <!-- 2030 -->
      <g transform="translate(129.460833 237.329219) rotate(-90) scale(0.1 -0.1)">
       <defs>
        <path id="DejaVuSans-33" d="M 2597 2516 
Q 3050 2419 3304 2112 
Q 3559 1806 3559 1356 
Q 3559 666 3084 287 
Q 2609 -91 1734 -91 
Q 1441 -91 1130 -33 
Q 819 25 488 141 
L 488 750 
Q 750 597 1062 519 
Q 1375 441 1716 441 
Q 2309 441 2620 675 
Q 2931 909 2931 1356 
Q 2931 1769 2642 2001 
Q 2353 2234 1838 2234 
L 1294 2234 
L 1294 2753 
L 1863 2753 
Q 2328 2753 2575 2939 
Q 2822 3125 2822 3475 
Q 2822 3834 2567 4026 
Q 2313 4219 1838 4219 
Q 1578 4219 1281 4162 
Q 984 4106 628 3988 
L 628 4550 
Q 988 4650 1302 4700 
Q 1616 4750 1894 4750 
Q 2613 4750 3031 4423 
Q 3450 4097 3450 3541 
Q 3450 3153 3228 2886 
Q 3006 2619 2597 2516 
z
" transform="scale(0.015625)"/>
       </defs>
       <use xlink:href="#DejaVuSans-32"/>
       <use xlink:href="#DejaVuSans-30" x="63.623047"/>
       <use xlink:href="#DejaVuSans-33" x="127.246094"/>
       <use xlink:href="#DejaVuSans-30" x="190.869141"/>
      </g>
     </g>
    </g>
    <g id="xtick_4">
     <g id="line2d_4">
      <g>
       <use xlink:href="#m3c291625c4" x="163.388125" y="204.879219" style="stroke: #000000; stroke-width: 0.8"/>
      </g>
     </g>
     <g id="text_4">
      <!-- 2035 -->
      <g transform="translate(166.1475 237.329219) rotate(-90) scale(0.1 -0.1)">
       <use xlink:href="#DejaVuSans-32"/>
       <use xlink:href="#DejaVuSans-30" x="63.623047"/>
       <use xlink:href="#DejaVuSans-33" x="127.246094"/>
       <use xlink:href="#DejaVuSans-35" x="190.869141"/>
      </g>
     </g>
    </g>
    <g id="xtick_5">
     <g id="line2d_5">
      <g>
       <use xlink:href="#m3c291625c4" x="200.074792" y="204.879219" style="stroke: #000000; stroke-width: 0.8"/>
      </g>
     </g>
     <g id="text_5">
      <!-- 2040 -->
      <g transform="translate(202.834167 237.329219) rotate(-90) scale(0.1 -0.1)">
       <defs>
        <path id="DejaVuSans-34" d="M 2419 4116 
L 825 1625 
L 2419 1625 
L 2419 4116 
z
M 2253 4666 
L 3047 4666 
L 3047 1625 
L 3713 1625 
L 3713 1100 
L 3047 1100 
L 3047 0 
L 2419 0 
L 2419 1100 
L 313 1100 
L 313 1709 
L 2253 4666 
z
" transform="scale(0.015625)"/>
       </defs>
       <use xlink:href="#DejaVuSans-32"/>
       <use xlink:href="#DejaVuSans-30" x="63.623047"/>
       <use xlink:href="#DejaVuSans-34" x="127.246094"/>
       <use xlink:href="#DejaVuSans-30" x="190.869141"/>
      </g>
     </g>
    </g>
    <g id="xtick_6">
     <g id="line2d_6">
      <g>
       <use xlink:href="#m3c291625c4" x="236.761458" y="204.879219" style="stroke: #000000; stroke-width: 0.8"/>
      </g>
     </g>
     <g id="text_6">
      <!-- 2045 -->
      <g transform="translate(239.520833 237.329219) rotate(-90) scale(0.1 -0.1)">
       <use xlink:href="#DejaVuSans-32"/>
       <use xlink:href="#DejaVuSans-30" x="63.623047"/>
       <use xlink:href="#DejaVuSans-34" x="127.246094"/>
       <use xlink:href="#DejaVuSans-35" x="190.869141"/>
      </g>
     </g>
    </g>
    <g id="xtick_7">
     <g id="line2d_7">
      <g>
       <use xlink:href="#m3c291625c4" x="273.448125" y="204.879219" style="stroke: #000000; stroke-width: 0.8"/>
      </g>
     </g>
     <g id="text_7">
      <!-- 2050 -->
      <g transform="translate(276.2075 237.329219) rotate(-90) scale(0.1 -0.1)">
       <use xlink:href="#DejaVuSans-32"/>
       <use xlink:href="#DejaVuSans-30" x="63.623047"/>
       <use xlink:href="#DejaVuSans-35" x="127.246094"/>
       <use xlink:href="#DejaVuSans-30" x="190.869141"/>
      </g>
     </g>
    </g>
   </g>
   <g id="matplotlib.axis_2">
    <g id="ytick_1">
     <g id="line2d_8">
      <path d="M 53.328125 204.879219 
L 273.448125 204.879219 
" clip-path="url(#p7a7af65372)" style="fill: none; stroke: #b0b0b0; stroke-width: 0.8; stroke-linecap: square"/>
     </g>
     <g id="line2d_9">
      <defs>
       <path id="me26f5bb8dd" d="M 0 0 
L -3.5 0 
" style="stroke: #000000; stroke-width: 0.8"/>
      </defs>
      <g>
       <use xlink:href="#me26f5bb8dd" x="53.328125" y="204.879219" style="stroke: #000000; stroke-width: 0.8"/>
      </g>
     </g>
     <g id="text_8">
      <!-- 0 -->
      <g transform="translate(39.965625 208.678438) scale(0.1 -0.1)">
       <use xlink:href="#DejaVuSans-30"/>
      </g>
     </g>
    </g>
    <g id="ytick_2">
     <g id="line2d_10">
      <path d="M 53.328125 172.565885 
L 273.448125 172.565885 
" clip-path="url(#p7a7af65372)" style="fill: none; stroke: #b0b0b0; stroke-width: 0.8; stroke-linecap: square"/>
     </g>
     <g id="line2d_11">
      <g>
       <use xlink:href="#me26f5bb8dd" x="53.328125" y="172.565885" style="stroke: #000000; stroke-width: 0.8"/>
      </g>
     </g>
     <g id="text_9">
      <!-- 1000 -->
      <g transform="translate(20.878125 176.365104) scale(0.1 -0.1)">
       <defs>
        <path id="DejaVuSans-31" d="M 794 531 
L 1825 531 
L 1825 4091 
L 703 3866 
L 703 4441 
L 1819 4666 
L 2450 4666 
L 2450 531 
L 3481 531 
L 3481 0 
L 794 0 
L 794 531 
z
" transform="scale(0.015625)"/>
       </defs>
       <use xlink:href="#DejaVuSans-31"/>
       <use xlink:href="#DejaVuSans-30" x="63.623047"/>
       <use xlink:href="#DejaVuSans-30" x="127.246094"/>
       <use xlink:href="#DejaVuSans-30" x="190.869141"/>
      </g>
     </g>
    </g>
    <g id="ytick_3">
     <g id="line2d_12">
      <path d="M 53.328125 140.252552 
L 273.448125 140.252552 
" clip-path="url(#p7a7af65372)" style="fill: none; stroke: #b0b0b0; stroke-width: 0.8; stroke-linecap: square"/>
     </g>
     <g id="line2d_13">
      <g>
       <use xlink:href="#me26f5bb8dd" x="53.328125" y="140.252552" style="stroke: #000000; stroke-width: 0.8"/>
      </g>
     </g>
     <g id="text_10">
      <!-- 2000 -->
      <g transform="translate(20.878125 144.051771) scale(0.1 -0.1)">
       <use xlink:href="#DejaVuSans-32"/>
       <use xlink:href="#DejaVuSans-30" x="63.623047"/>
       <use xlink:href="#DejaVuSans-30" x="127.246094"/>
       <use xlink:href="#DejaVuSans-30" x="190.869141"/>
      </g>
     </g>
    </g>
    <g id="ytick_4">
     <g id="line2d_14">
      <path d="M 53.328125 107.939219 
L 273.448125 107.939219 
" clip-path="url(#p7a7af65372)" style="fill: none; stroke: #b0b0b0; stroke-width: 0.8; stroke-linecap: square"/>
     </g>
     <g id="line2d_15">
      <g>
       <use xlink:href="#me26f5bb8dd" x="53.328125" y="107.939219" style="stroke: #000000; stroke-width: 0.8"/>
      </g>
     </g>
     <g id="text_11">
      <!-- 3000 -->
      <g transform="translate(20.878125 111.738438) scale(0.1 -0.1)">
       <use xlink:href="#DejaVuSans-33"/>
       <use xlink:href="#DejaVuSans-30" x="63.623047"/>
       <use xlink:href="#DejaVuSans-30" x="127.246094"/>
       <use xlink:href="#DejaVuSans-30" x="190.869141"/>
      </g>
     </g>
    </g>
    <g id="ytick_5">
     <g id="line2d_16">
      <path d="M 53.328125 75.625885 
L 273.448125 75.625885 
" clip-path="url(#p7a7af65372)" style="fill: none; stroke: #b0b0b0; stroke-width: 0.8; stroke-linecap: square"/>
     </g>
     <g id="line2d_17">
      <g>
       <use xlink:href="#me26f5bb8dd" x="53.328125" y="75.625885" style="stroke: #000000; stroke-width: 0.8"/>
      </g>
     </g>
     <g id="text_12">
      <!-- 4000 -->
      <g transform="translate(20.878125 79.425104) scale(0.1 -0.1)">
       <use xlink:href="#DejaVuSans-34"/>
       <use xlink:href="#DejaVuSans-30" x="63.623047"/>
       <use xlink:href="#DejaVuSans-30" x="127.246094"/>
       <use xlink:href="#DejaVuSans-30" x="190.869141"/>
      </g>
     </g>
    </g>
    <g id="ytick_6">
     <g id="line2d_18">
      <path d="M 53.328125 43.312552 
L 273.448125 43.312552 
" clip-path="url(#p7a7af65372)" style="fill: none; stroke: #b0b0b0; stroke-width: 0.8; stroke-linecap: square"/>
     </g>
     <g id="line2d_19">
      <g>
       <use xlink:href="#me26f5bb8dd" x="53.328125" y="43.312552" style="stroke: #000000; stroke-width: 0.8"/>
      </g>
     </g>
     <g id="text_13">
      <!-- 5000 -->
      <g transform="translate(20.878125 47.111771) scale(0.1 -0.1)">
       <use xlink:href="#DejaVuSans-35"/>
       <use xlink:href="#DejaVuSans-30" x="63.623047"/>
       <use xlink:href="#DejaVuSans-30" x="127.246094"/>
       <use xlink:href="#DejaVuSans-30" x="190.869141"/>
      </g>
     </g>
    </g>
    <g id="ytick_7">
     <g id="line2d_20">
      <path d="M 53.328125 10.999219 
L 273.448125 10.999219 
" clip-path="url(#p7a7af65372)" style="fill: none; stroke: #b0b0b0; stroke-width: 0.8; stroke-linecap: square"/>
     </g>
     <g id="line2d_21">
      <g>
       <use xlink:href="#me26f5bb8dd" x="53.328125" y="10.999219" style="stroke: #000000; stroke-width: 0.8"/>
      </g>
     </g>
     <g id="text_14">
      <!-- 6000 -->
      <g transform="translate(20.878125 14.798438) scale(0.1 -0.1)">
       <defs>
        <path id="DejaVuSans-36" d="M 2113 2584 
Q 1688 2584 1439 2293 
Q 1191 2003 1191 1497 
Q 1191 994 1439 701 
Q 1688 409 2113 409 
Q 2538 409 2786 701 
Q 3034 994 3034 1497 
Q 3034 2003 2786 2293 
Q 2538 2584 2113 2584 
z
M 3366 4563 
L 3366 3988 
Q 3128 4100 2886 4159 
Q 2644 4219 2406 4219 
Q 1781 4219 1451 3797 
Q 1122 3375 1075 2522 
Q 1259 2794 1537 2939 
Q 1816 3084 2150 3084 
Q 2853 3084 3261 2657 
Q 3669 2231 3669 1497 
Q 3669 778 3244 343 
Q 2819 -91 2113 -91 
Q 1303 -91 875 529 
Q 447 1150 447 2328 
Q 447 3434 972 4092 
Q 1497 4750 2381 4750 
Q 2619 4750 2861 4703 
Q 3103 4656 3366 4563 
z
" transform="scale(0.015625)"/>
       </defs>
       <use xlink:href="#DejaVuSans-36"/>
       <use xlink:href="#DejaVuSans-30" x="63.623047"/>
       <use xlink:href="#DejaVuSans-30" x="127.246094"/>
       <use xlink:href="#DejaVuSans-30" x="190.869141"/>
      </g>
     </g>
    </g>
    <g id="text_15">
     <!-- Capacity [GW] -->
     <g transform="translate(14.798438 144.099375) rotate(-90) scale(0.1 -0.1)">
      <defs>
       <path id="DejaVuSans-43" d="M 4122 4306 
L 4122 3641 
Q 3803 3938 3442 4084 
Q 3081 4231 2675 4231 
Q 1875 4231 1450 3742 
Q 1025 3253 1025 2328 
Q 1025 1406 1450 917 
Q 1875 428 2675 428 
Q 3081 428 3442 575 
Q 3803 722 4122 1019 
L 4122 359 
Q 3791 134 3420 21 
Q 3050 -91 2638 -91 
Q 1578 -91 968 557 
Q 359 1206 359 2328 
Q 359 3453 968 4101 
Q 1578 4750 2638 4750 
Q 3056 4750 3426 4639 
Q 3797 4528 4122 4306 
z
" transform="scale(0.015625)"/>
       <path id="DejaVuSans-61" d="M 2194 1759 
Q 1497 1759 1228 1600 
Q 959 1441 959 1056 
Q 959 750 1161 570 
Q 1363 391 1709 391 
Q 2188 391 2477 730 
Q 2766 1069 2766 1631 
L 2766 1759 
L 2194 1759 
z
M 3341 1997 
L 3341 0 
L 2766 0 
L 2766 531 
Q 2569 213 2275 61 
Q 1981 -91 1556 -91 
Q 1019 -91 701 211 
Q 384 513 384 1019 
Q 384 1609 779 1909 
Q 1175 2209 1959 2209 
L 2766 2209 
L 2766 2266 
Q 2766 2663 2505 2880 
Q 2244 3097 1772 3097 
Q 1472 3097 1187 3025 
Q 903 2953 641 2809 
L 641 3341 
Q 956 3463 1253 3523 
Q 1550 3584 1831 3584 
Q 2591 3584 2966 3190 
Q 3341 2797 3341 1997 
z
" transform="scale(0.015625)"/>
       <path id="DejaVuSans-70" d="M 1159 525 
L 1159 -1331 
L 581 -1331 
L 581 3500 
L 1159 3500 
L 1159 2969 
Q 1341 3281 1617 3432 
Q 1894 3584 2278 3584 
Q 2916 3584 3314 3078 
Q 3713 2572 3713 1747 
Q 3713 922 3314 415 
Q 2916 -91 2278 -91 
Q 1894 -91 1617 61 
Q 1341 213 1159 525 
z
M 3116 1747 
Q 3116 2381 2855 2742 
Q 2594 3103 2138 3103 
Q 1681 3103 1420 2742 
Q 1159 2381 1159 1747 
Q 1159 1113 1420 752 
Q 1681 391 2138 391 
Q 2594 391 2855 752 
Q 3116 1113 3116 1747 
z
" transform="scale(0.015625)"/>
       <path id="DejaVuSans-63" d="M 3122 3366 
L 3122 2828 
Q 2878 2963 2633 3030 
Q 2388 3097 2138 3097 
Q 1578 3097 1268 2742 
Q 959 2388 959 1747 
Q 959 1106 1268 751 
Q 1578 397 2138 397 
Q 2388 397 2633 464 
Q 2878 531 3122 666 
L 3122 134 
Q 2881 22 2623 -34 
Q 2366 -91 2075 -91 
Q 1284 -91 818 406 
Q 353 903 353 1747 
Q 353 2603 823 3093 
Q 1294 3584 2113 3584 
Q 2378 3584 2631 3529 
Q 2884 3475 3122 3366 
z
" transform="scale(0.015625)"/>
       <path id="DejaVuSans-69" d="M 603 3500 
L 1178 3500 
L 1178 0 
L 603 0 
L 603 3500 
z
M 603 4863 
L 1178 4863 
L 1178 4134 
L 603 4134 
L 603 4863 
z
" transform="scale(0.015625)"/>
       <path id="DejaVuSans-74" d="M 1172 4494 
L 1172 3500 
L 2356 3500 
L 2356 3053 
L 1172 3053 
L 1172 1153 
Q 1172 725 1289 603 
Q 1406 481 1766 481 
L 2356 481 
L 2356 0 
L 1766 0 
Q 1100 0 847 248 
Q 594 497 594 1153 
L 594 3053 
L 172 3053 
L 172 3500 
L 594 3500 
L 594 4494 
L 1172 4494 
z
" transform="scale(0.015625)"/>
       <path id="DejaVuSans-79" d="M 2059 -325 
Q 1816 -950 1584 -1140 
Q 1353 -1331 966 -1331 
L 506 -1331 
L 506 -850 
L 844 -850 
Q 1081 -850 1212 -737 
Q 1344 -625 1503 -206 
L 1606 56 
L 191 3500 
L 800 3500 
L 1894 763 
L 2988 3500 
L 3597 3500 
L 2059 -325 
z
" transform="scale(0.015625)"/>
       <path id="DejaVuSans-20" transform="scale(0.015625)"/>
       <path id="DejaVuSans-5b" d="M 550 4863 
L 1875 4863 
L 1875 4416 
L 1125 4416 
L 1125 -397 
L 1875 -397 
L 1875 -844 
L 550 -844 
L 550 4863 
z
" transform="scale(0.015625)"/>
       <path id="DejaVuSans-47" d="M 3809 666 
L 3809 1919 
L 2778 1919 
L 2778 2438 
L 4434 2438 
L 4434 434 
Q 4069 175 3628 42 
Q 3188 -91 2688 -91 
Q 1594 -91 976 548 
Q 359 1188 359 2328 
Q 359 3472 976 4111 
Q 1594 4750 2688 4750 
Q 3144 4750 3555 4637 
Q 3966 4525 4313 4306 
L 4313 3634 
Q 3963 3931 3569 4081 
Q 3175 4231 2741 4231 
Q 1884 4231 1454 3753 
Q 1025 3275 1025 2328 
Q 1025 1384 1454 906 
Q 1884 428 2741 428 
Q 3075 428 3337 486 
Q 3600 544 3809 666 
z
" transform="scale(0.015625)"/>
       <path id="DejaVuSans-57" d="M 213 4666 
L 850 4666 
L 1831 722 
L 2809 4666 
L 3519 4666 
L 4500 722 
L 5478 4666 
L 6119 4666 
L 4947 0 
L 4153 0 
L 3169 4050 
L 2175 0 
L 1381 0 
L 213 4666 
z
" transform="scale(0.015625)"/>
       <path id="DejaVuSans-5d" d="M 1947 4863 
L 1947 -844 
L 622 -844 
L 622 -397 
L 1369 -397 
L 1369 4416 
L 622 4416 
L 622 4863 
L 1947 4863 
z
" transform="scale(0.015625)"/>
      </defs>
      <use xlink:href="#DejaVuSans-43"/>
      <use xlink:href="#DejaVuSans-61" x="69.824219"/>
      <use xlink:href="#DejaVuSans-70" x="131.103516"/>
      <use xlink:href="#DejaVuSans-61" x="194.580078"/>
      <use xlink:href="#DejaVuSans-63" x="255.859375"/>
      <use xlink:href="#DejaVuSans-69" x="310.839844"/>
      <use xlink:href="#DejaVuSans-74" x="338.623047"/>
      <use xlink:href="#DejaVuSans-79" x="377.832031"/>
      <use xlink:href="#DejaVuSans-20" x="437.011719"/>
      <use xlink:href="#DejaVuSans-5b" x="468.798828"/>
      <use xlink:href="#DejaVuSans-47" x="507.8125"/>
      <use xlink:href="#DejaVuSans-57" x="585.302734"/>
      <use xlink:href="#DejaVuSans-5d" x="684.179688"/>
     </g>
    </g>
   </g>
   <g id="line2d_22">
    <path d="M 53.328125 203.37075 
L 90.014792 203.212544 
L 126.701458 203.037502 
L 163.388125 203.038794 
L 200.074792 203.038794 
L 236.761458 203.038794 
L 273.448125 203.038895 
" clip-path="url(#p7a7af65372)" style="fill: none; stroke: #08ad97; stroke-width: 1.5; stroke-linecap: square"/>
   </g>
   <g id="line2d_23">
    <path d="M 53.328125 203.370595 
L 90.014792 203.212388 
L 126.701458 203.037331 
L 163.388125 203.038604 
L 200.074792 203.038636 
L 236.761458 203.038564 
L 273.448125 203.038732 
" clip-path="url(#p7a7af65372)" style="fill: none; stroke: #6895dd; stroke-width: 1.5; stroke-linecap: square"/>
   </g>
   <g id="line2d_24">
    <path d="M 53.328125 203.367629 
L 90.014792 203.209421 
L 126.701458 203.034349 
L 163.388125 203.035604 
L 200.074792 203.035665 
L 236.761458 203.03552 
L 273.448125 203.035756 
" clip-path="url(#p7a7af65372)" style="fill: none; stroke: #74c6f2; stroke-width: 1.5; stroke-linecap: square"/>
   </g>
   <g id="line2d_25">
    <path d="M 53.328125 202.824279 
L 90.014792 202.043179 
L 126.701458 200.755742 
L 163.388125 200.015269 
L 200.074792 199.316246 
L 236.761458 199.082839 
L 273.448125 199.481312 
" clip-path="url(#p7a7af65372)" style="fill: none; stroke: #235ebc; stroke-width: 1.5; stroke-linecap: square"/>
   </g>
   <g id="line2d_26">
    <path d="M 53.328125 202.04444 
L 90.014792 197.906206 
L 126.701458 191.59475 
L 163.388125 186.050289 
L 200.074792 172.035663 
L 236.761458 154.065383 
L 273.448125 128.922982 
" clip-path="url(#p7a7af65372)" style="fill: none; stroke: #f9d002; stroke-width: 1.5; stroke-linecap: square"/>
   </g>
   <g id="line2d_27">
    <path d="M 53.328125 198.86789 
L 90.014792 194.483689 
L 126.701458 188.191014 
L 163.388125 182.922521 
L 200.074792 169.467386 
L 236.761458 152.118908 
L 273.448125 127.496351 
" clip-path="url(#p7a7af65372)" style="fill: none; stroke: #b20101; stroke-width: 1.5; stroke-linecap: square"/>
   </g>
   <g id="line2d_28">
    <path d="M 53.328125 198.800678 
L 90.014792 194.355082 
L 126.701458 188.062407 
L 163.388125 182.793914 
L 200.074792 169.338779 
L 236.761458 151.990301 
L 273.448125 127.367744 
" clip-path="url(#p7a7af65372)" style="fill: none; stroke: #707070; stroke-width: 1.5; stroke-linecap: square"/>
   </g>
   <g id="line2d_29">
    <path d="M 53.328125 198.619622 
L 90.014792 194.174025 
L 126.701458 187.88135 
L 163.388125 182.612857 
L 200.074792 169.157722 
L 236.761458 151.809244 
L 273.448125 127.206075 
" clip-path="url(#p7a7af65372)" style="fill: none; stroke: #808080; stroke-width: 1.5; stroke-linecap: square"/>
   </g>
   <g id="line2d_30">
    <path d="M 53.328125 198.167687 
L 90.014792 193.558714 
L 126.701458 187.266039 
L 163.388125 181.997547 
L 200.074792 168.542412 
L 236.761458 151.193933 
L 273.448125 126.590765 
" clip-path="url(#p7a7af65372)" style="fill: none; stroke: #606060; stroke-width: 1.5; stroke-linecap: square"/>
   </g>
   <g id="line2d_31">
    <path d="M 53.328125 195.870084 
L 90.014792 191.204078 
L 126.701458 184.911403 
L 163.388125 179.666661 
L 200.074792 166.472083 
L 236.761458 149.183708 
L 273.448125 124.736774 
" clip-path="url(#p7a7af65372)" style="fill: none; stroke: #909090; stroke-width: 1.5; stroke-linecap: square"/>
   </g>
   <g id="line2d_32">
    <path d="M 53.328125 195.806039 
L 90.014792 191.078638 
L 126.701458 184.785963 
L 163.388125 179.54122 
L 200.074792 166.346643 
L 236.761458 149.058267 
L 273.448125 124.611334 
" clip-path="url(#p7a7af65372)" style="fill: none; stroke: #505050; stroke-width: 1.5; stroke-linecap: square"/>
   </g>
   <g id="line2d_33">
    <path d="M 53.328125 195.584639 
L 90.014792 190.857238 
L 126.701458 184.564563 
L 163.388125 179.319821 
L 200.074792 166.129185 
L 236.761458 148.84081 
L 273.448125 124.393876 
" clip-path="url(#p7a7af65372)" style="fill: none; stroke: #9e5a01; stroke-width: 1.5; stroke-linecap: square"/>
   </g>
   <g id="line2d_34">
    <path d="M 53.328125 194.767812 
L 90.014792 190.175857 
L 126.701458 184.012313 
L 163.388125 178.877051 
L 200.074792 165.788415 
L 236.761458 148.754561 
L 273.448125 124.392442 
" clip-path="url(#p7a7af65372)" style="fill: none; stroke: #262626; stroke-width: 1.5; stroke-linecap: square"/>
   </g>
   <g id="patch_3">
    <path d="M 53.328125 204.879219 
L 53.328125 10.999219 
" style="fill: none; stroke: #000000; stroke-width: 0.8; stroke-linejoin: miter; stroke-linecap: square"/>
   </g>
   <g id="patch_4">
    <path d="M 273.448125 204.879219 
L 273.448125 10.999219 
" style="fill: none; stroke: #000000; stroke-width: 0.8; stroke-linejoin: miter; stroke-linecap: square"/>
   </g>
   <g id="patch_5">
    <path d="M 53.328125 204.879219 
L 273.448125 204.879219 
" style="fill: none; stroke: #000000; stroke-width: 0.8; stroke-linejoin: miter; stroke-linecap: square"/>
   </g>
   <g id="patch_6">
    <path d="M 53.328125 10.999219 
L 273.448125 10.999219 
" style="fill: none; stroke: #000000; stroke-width: 0.8; stroke-linejoin: miter; stroke-linecap: square"/>
   </g>
   <g id="text_16">
    <!-- SEA_AEO8_AIMS_DEC -->
    <g transform="translate(57.730525 24.387219) scale(0.09 -0.09)">
     <defs>
      <path id="DejaVuSans-53" d="M 3425 4513 
L 3425 3897 
Q 3066 4069 2747 4153 
Q 2428 4238 2131 4238 
Q 1616 4238 1336 4038 
Q 1056 3838 1056 3469 
Q 1056 3159 1242 3001 
Q 1428 2844 1947 2747 
L 2328 2669 
Q 3034 2534 3370 2195 
Q 3706 1856 3706 1288 
Q 3706 609 3251 259 
Q 2797 -91 1919 -91 
Q 1588 -91 1214 -16 
Q 841 59 441 206 
L 441 856 
Q 825 641 1194 531 
Q 1563 422 1919 422 
Q 2459 422 2753 634 
Q 3047 847 3047 1241 
Q 3047 1584 2836 1778 
Q 2625 1972 2144 2069 
L 1759 2144 
Q 1053 2284 737 2584 
Q 422 2884 422 3419 
Q 422 4038 858 4394 
Q 1294 4750 2059 4750 
Q 2388 4750 2728 4690 
Q 3069 4631 3425 4513 
z
" transform="scale(0.015625)"/>
      <path id="DejaVuSans-45" d="M 628 4666 
L 3578 4666 
L 3578 4134 
L 1259 4134 
L 1259 2753 
L 3481 2753 
L 3481 2222 
L 1259 2222 
L 1259 531 
L 3634 531 
L 3634 0 
L 628 0 
L 628 4666 
z
" transform="scale(0.015625)"/>
      <path id="DejaVuSans-41" d="M 2188 4044 
L 1331 1722 
L 3047 1722 
L 2188 4044 
z
M 1831 4666 
L 2547 4666 
L 4325 0 
L 3669 0 
L 3244 1197 
L 1141 1197 
L 716 0 
L 50 0 
L 1831 4666 
z
" transform="scale(0.015625)"/>
      <path id="DejaVuSans-5f" d="M 3263 -1063 
L 3263 -1509 
L -63 -1509 
L -63 -1063 
L 3263 -1063 
z
" transform="scale(0.015625)"/>
      <path id="DejaVuSans-4f" d="M 2522 4238 
Q 1834 4238 1429 3725 
Q 1025 3213 1025 2328 
Q 1025 1447 1429 934 
Q 1834 422 2522 422 
Q 3209 422 3611 934 
Q 4013 1447 4013 2328 
Q 4013 3213 3611 3725 
Q 3209 4238 2522 4238 
z
M 2522 4750 
Q 3503 4750 4090 4092 
Q 4678 3434 4678 2328 
Q 4678 1225 4090 567 
Q 3503 -91 2522 -91 
Q 1538 -91 948 565 
Q 359 1222 359 2328 
Q 359 3434 948 4092 
Q 1538 4750 2522 4750 
z
" transform="scale(0.015625)"/>
      <path id="DejaVuSans-38" d="M 2034 2216 
Q 1584 2216 1326 1975 
Q 1069 1734 1069 1313 
Q 1069 891 1326 650 
Q 1584 409 2034 409 
Q 2484 409 2743 651 
Q 3003 894 3003 1313 
Q 3003 1734 2745 1975 
Q 2488 2216 2034 2216 
z
M 1403 2484 
Q 997 2584 770 2862 
Q 544 3141 544 3541 
Q 544 4100 942 4425 
Q 1341 4750 2034 4750 
Q 2731 4750 3128 4425 
Q 3525 4100 3525 3541 
Q 3525 3141 3298 2862 
Q 3072 2584 2669 2484 
Q 3125 2378 3379 2068 
Q 3634 1759 3634 1313 
Q 3634 634 3220 271 
Q 2806 -91 2034 -91 
Q 1263 -91 848 271 
Q 434 634 434 1313 
Q 434 1759 690 2068 
Q 947 2378 1403 2484 
z
M 1172 3481 
Q 1172 3119 1398 2916 
Q 1625 2713 2034 2713 
Q 2441 2713 2670 2916 
Q 2900 3119 2900 3481 
Q 2900 3844 2670 4047 
Q 2441 4250 2034 4250 
Q 1625 4250 1398 4047 
Q 1172 3844 1172 3481 
z
" transform="scale(0.015625)"/>
      <path id="DejaVuSans-49" d="M 628 4666 
L 1259 4666 
L 1259 0 
L 628 0 
L 628 4666 
z
" transform="scale(0.015625)"/>
      <path id="DejaVuSans-4d" d="M 628 4666 
L 1569 4666 
L 2759 1491 
L 3956 4666 
L 4897 4666 
L 4897 0 
L 4281 0 
L 4281 4097 
L 3078 897 
L 2444 897 
L 1241 4097 
L 1241 0 
L 628 0 
L 628 4666 
z
" transform="scale(0.015625)"/>
      <path id="DejaVuSans-44" d="M 1259 4147 
L 1259 519 
L 2022 519 
Q 2988 519 3436 956 
Q 3884 1394 3884 2338 
Q 3884 3275 3436 3711 
Q 2988 4147 2022 4147 
L 1259 4147 
z
M 628 4666 
L 1925 4666 
Q 3281 4666 3915 4102 
Q 4550 3538 4550 2338 
Q 4550 1131 3912 565 
Q 3275 0 1925 0 
L 628 0 
L 628 4666 
z
" transform="scale(0.015625)"/>
     </defs>
     <use xlink:href="#DejaVuSans-53"/>
     <use xlink:href="#DejaVuSans-45" x="63.476562"/>
     <use xlink:href="#DejaVuSans-41" x="126.660156"/>
     <use xlink:href="#DejaVuSans-5f" x="195.068359"/>
     <use xlink:href="#DejaVuSans-41" x="245.068359"/>
     <use xlink:href="#DejaVuSans-45" x="313.476562"/>
     <use xlink:href="#DejaVuSans-4f" x="376.660156"/>
     <use xlink:href="#DejaVuSans-38" x="455.371094"/>
     <use xlink:href="#DejaVuSans-5f" x="518.994141"/>
     <use xlink:href="#DejaVuSans-41" x="568.994141"/>
     <use xlink:href="#DejaVuSans-49" x="637.402344"/>
     <use xlink:href="#DejaVuSans-4d" x="666.894531"/>
     <use xlink:href="#DejaVuSans-53" x="753.173828"/>
     <use xlink:href="#DejaVuSans-5f" x="816.650391"/>
     <use xlink:href="#DejaVuSans-44" x="866.650391"/>
     <use xlink:href="#DejaVuSans-45" x="943.652344"/>
     <use xlink:href="#DejaVuSans-43" x="1006.835938"/>
    </g>
   </g>
  </g>
  <g id="axes_2">
   <g id="patch_7">
    <path d="M 335.928125 204.879219 
L 556.048125 204.879219 
L 556.048125 10.999219 
L 335.928125 10.999219 
z
" style="fill: #ffffff"/>
   </g>
   <g id="PolyCollection_14">
    <defs>
     <path id="m8b17554db3" d="M 335.928125 -52.575266 
L 335.928125 -52.575333 
L 372.614792 -52.575333 
L 409.301458 -52.575333 
L 445.988125 -52.575333 
L 482.674792 -52.575333 
L 519.361458 -52.575333 
L 556.048125 -52.575333 
L 556.048125 -49.929768 
L 556.048125 -49.929768 
L 519.361458 -50.983739 
L 482.674792 -51.759684 
L 445.988125 -52.413223 
L 409.301458 -52.557598 
L 372.614792 -52.574849 
L 335.928125 -52.575266 
z
" style="stroke: #b8ea04"/>
    </defs>
    <g clip-path="url(#p56f8588e36)">
     <use xlink:href="#m8b17554db3" x="0" y="244.529219" style="fill: #b8ea04; stroke: #b8ea04"/>
    </g>
   </g>
   <g id="PolyCollection_15">
    <defs>
     <path id="m54ed71f7e2" d="M 335.928125 -63.134675 
L 335.928125 -52.575333 
L 372.614792 -52.575333 
L 409.301458 -52.575333 
L 445.988125 -52.575333 
L 482.674792 -52.575333 
L 519.361458 -52.575333 
L 556.048125 -52.575333 
L 556.048125 -65.453228 
L 556.048125 -65.453228 
L 519.361458 -65.431338 
L 482.674792 -65.462342 
L 445.988125 -65.444687 
L 409.301458 -65.449819 
L 372.614792 -64.248551 
L 335.928125 -63.134675 
z
" style="stroke: #08ad97"/>
    </defs>
    <g clip-path="url(#p56f8588e36)">
     <use xlink:href="#m54ed71f7e2" x="0" y="244.529219" style="fill: #08ad97; stroke: #08ad97"/>
    </g>
   </g>
   <g id="PolyCollection_16">
    <defs>
     <path id="m331176c452" d="M 335.928125 -52.575254 
L 335.928125 -52.575266 
L 372.614792 -52.574849 
L 409.301458 -52.557598 
L 445.988125 -52.413223 
L 482.674792 -51.759684 
L 519.361458 -50.983739 
L 556.048125 -49.929768 
L 556.048125 -49.929674 
L 556.048125 -49.929674 
L 519.361458 -50.983182 
L 482.674792 -51.759644 
L 445.988125 -52.412979 
L 409.301458 -52.557483 
L 372.614792 -52.574834 
L 335.928125 -52.575254 
z
" style="stroke: #ea048a"/>
    </defs>
    <g clip-path="url(#p56f8588e36)">
     <use xlink:href="#m331176c452" x="0" y="244.529219" style="fill: #ea048a; stroke: #ea048a"/>
    </g>
   </g>
   <g id="PolyCollection_17">
    <defs>
     <path id="m917552dfab" d="M 335.928125 -63.135057 
L 335.928125 -63.134675 
L 372.614792 -64.248551 
L 409.301458 -65.449819 
L 445.988125 -65.444687 
L 482.674792 -65.462342 
L 519.361458 -65.431338 
L 556.048125 -65.453228 
L 556.048125 -65.453503 
L 556.048125 -65.453503 
L 519.361458 -65.431658 
L 482.674792 -65.462641 
L 445.988125 -65.444999 
L 409.301458 -65.450127 
L 372.614792 -64.248916 
L 335.928125 -63.135057 
z
" style="stroke: #6895dd"/>
    </defs>
    <g clip-path="url(#p56f8588e36)">
     <use xlink:href="#m917552dfab" x="0" y="244.529219" style="fill: #6895dd; stroke: #6895dd"/>
    </g>
   </g>
   <g id="PolyCollection_18">
    <defs>
     <path id="mc8a897b6d3" d="M 335.928125 -63.141564 
L 335.928125 -63.135057 
L 372.614792 -64.248916 
L 409.301458 -65.450127 
L 445.988125 -65.444999 
L 482.674792 -65.462641 
L 519.361458 -65.431658 
L 556.048125 -65.453503 
L 556.048125 -65.457954 
L 556.048125 -65.457954 
L 519.361458 -65.436593 
L 482.674792 -65.467926 
L 445.988125 -65.449767 
L 409.301458 -65.455192 
L 372.614792 -64.255478 
L 335.928125 -63.141564 
z
" style="stroke: #74c6f2"/>
    </defs>
    <g clip-path="url(#p56f8588e36)">
     <use xlink:href="#mc8a897b6d3" x="0" y="244.529219" style="fill: #74c6f2; stroke: #74c6f2"/>
    </g>
   </g>
   <g id="PolyCollection_19">
    <defs>
     <path id="me6e479f112" d="M 335.928125 -65.157066 
L 335.928125 -63.141564 
L 372.614792 -64.255478 
L 409.301458 -65.455192 
L 445.988125 -65.449767 
L 482.674792 -65.467926 
L 519.361458 -65.436593 
L 556.048125 -65.457954 
L 556.048125 -72.767447 
L 556.048125 -72.767447 
L 519.361458 -76.347923 
L 482.674792 -76.258881 
L 445.988125 -74.186625 
L 409.301458 -72.262973 
L 372.614792 -68.218807 
L 335.928125 -65.157066 
z
" style="stroke: #235ebc"/>
    </defs>
    <g clip-path="url(#p56f8588e36)">
     <use xlink:href="#me6e479f112" x="0" y="244.529219" style="fill: #235ebc; stroke: #235ebc"/>
    </g>
   </g>
   <g id="PolyCollection_20">
    <defs>
     <path id="m168f131f1b" d="M 335.928125 -65.945574 
L 335.928125 -65.157066 
L 372.614792 -68.218807 
L 409.301458 -72.262973 
L 445.988125 -74.186625 
L 482.674792 -76.258881 
L 519.361458 -76.347923 
L 556.048125 -72.767447 
L 556.048125 -143.365973 
L 556.048125 -143.365973 
L 519.361458 -122.256046 
L 482.674792 -104.667735 
L 445.988125 -88.728824 
L 409.301458 -81.943388 
L 372.614792 -72.739762 
L 335.928125 -65.945574 
z
" style="stroke: #f9d002"/>
    </defs>
    <g clip-path="url(#p56f8588e36)">
     <use xlink:href="#m168f131f1b" x="0" y="244.529219" style="fill: #f9d002; stroke: #f9d002"/>
    </g>
   </g>
   <g id="PolyCollection_21">
    <defs>
     <path id="m27cf74cf2f" d="M 335.928125 -66.270619 
L 335.928125 -65.945574 
L 372.614792 -72.739762 
L 409.301458 -81.943388 
L 445.988125 -88.728824 
L 482.674792 -104.667735 
L 519.361458 -122.256046 
L 556.048125 -143.365973 
L 556.048125 -145.783751 
L 556.048125 -145.783751 
L 519.361458 -127.509827 
L 482.674792 -109.105927 
L 445.988125 -95.706362 
L 409.301458 -84.042073 
L 372.614792 -73.49947 
L 335.928125 -66.270619 
z
" style="stroke: #b20101"/>
    </defs>
    <g clip-path="url(#p56f8588e36)">
     <use xlink:href="#m27cf74cf2f" x="0" y="244.529219" style="fill: #b20101; stroke: #b20101"/>
    </g>
   </g>
   <g id="PolyCollection_22">
    <defs>
     <path id="md84bec41de" d="M 335.928125 -66.277688 
L 335.928125 -66.270619 
L 372.614792 -73.49947 
L 409.301458 -84.042073 
L 445.988125 -95.706362 
L 482.674792 -109.105927 
L 519.361458 -127.509827 
L 556.048125 -145.783751 
L 556.048125 -145.783752 
L 556.048125 -145.783752 
L 519.361458 -127.510367 
L 482.674792 -109.107551 
L 445.988125 -95.707494 
L 409.301458 -84.04782 
L 372.614792 -73.622557 
L 335.928125 -66.277688 
z
" style="stroke: #707070"/>
    </defs>
    <g clip-path="url(#p56f8588e36)">
     <use xlink:href="#md84bec41de" x="0" y="244.529219" style="fill: #707070; stroke: #707070"/>
    </g>
   </g>
   <g id="PolyCollection_23">
    <defs>
     <path id="m69b2495245" d="M 335.928125 -66.943258 
L 335.928125 -66.277688 
L 372.614792 -73.622557 
L 409.301458 -84.04782 
L 445.988125 -95.707494 
L 482.674792 -109.107551 
L 519.361458 -127.510367 
L 556.048125 -145.783752 
L 556.048125 -145.805764 
L 556.048125 -145.805764 
L 519.361458 -127.600564 
L 482.674792 -109.271372 
L 445.988125 -95.922186 
L 409.301458 -84.424323 
L 372.614792 -74.166432 
L 335.928125 -66.943258 
z
" style="stroke: #808080"/>
    </defs>
    <g clip-path="url(#p56f8588e36)">
     <use xlink:href="#m69b2495245" x="0" y="244.529219" style="fill: #808080; stroke: #808080"/>
    </g>
   </g>
   <g id="PolyCollection_24">
    <defs>
     <path id="m7afeb7992f" d="M 335.928125 -68.986361 
L 335.928125 -66.943258 
L 372.614792 -74.166432 
L 409.301458 -84.424323 
L 445.988125 -95.922186 
L 482.674792 -109.271372 
L 519.361458 -127.600564 
L 556.048125 -145.805764 
L 556.048125 -146.1338 
L 556.048125 -146.1338 
L 519.361458 -128.439969 
L 482.674792 -111.732384 
L 445.988125 -98.321019 
L 409.301458 -86.793998 
L 372.614792 -76.83323 
L 335.928125 -68.986361 
z
" style="stroke: #606060"/>
    </defs>
    <g clip-path="url(#p56f8588e36)">
     <use xlink:href="#m7afeb7992f" x="0" y="244.529219" style="fill: #606060; stroke: #606060"/>
    </g>
   </g>
   <g id="PolyCollection_25">
    <defs>
     <path id="m5d323a8559" d="M 335.928125 -78.654138 
L 335.928125 -68.986361 
L 372.614792 -76.83323 
L 409.301458 -86.793998 
L 445.988125 -98.321019 
L 482.674792 -111.732384 
L 519.361458 -128.439969 
L 556.048125 -146.1338 
L 556.048125 -146.28532 
L 556.048125 -146.28532 
L 519.361458 -129.029257 
L 482.674792 -112.829393 
L 445.988125 -101.504754 
L 409.301458 -93.684412 
L 372.614792 -86.326692 
L 335.928125 -78.654138 
z
" style="stroke: #909090"/>
    </defs>
    <g clip-path="url(#p56f8588e36)">
     <use xlink:href="#m5d323a8559" x="0" y="244.529219" style="fill: #909090; stroke: #909090"/>
    </g>
   </g>
   <g id="PolyCollection_26">
    <defs>
     <path id="mb5a1feb2d4" d="M 335.928125 -79.102965 
L 335.928125 -78.654138 
L 372.614792 -86.326692 
L 409.301458 -93.684412 
L 445.988125 -101.504754 
L 482.674792 -112.829393 
L 519.361458 -129.029257 
L 556.048125 -146.28532 
L 556.048125 -146.424666 
L 556.048125 -146.424666 
L 519.361458 -129.656885 
L 482.674792 -113.534389 
L 445.988125 -102.215292 
L 409.301458 -94.40657 
L 372.614792 -87.20434 
L 335.928125 -79.102965 
z
" style="stroke: #505050"/>
    </defs>
    <g clip-path="url(#p56f8588e36)">
     <use xlink:href="#mb5a1feb2d4" x="0" y="244.529219" style="fill: #505050; stroke: #505050"/>
    </g>
   </g>
   <g id="PolyCollection_27">
    <defs>
     <path id="mdf34e3aa45" d="M 335.928125 -80.560207 
L 335.928125 -79.102965 
L 372.614792 -87.20434 
L 409.301458 -94.40657 
L 445.988125 -102.215292 
L 482.674792 -113.534389 
L 519.361458 -129.656885 
L 556.048125 -146.424666 
L 556.048125 -146.424729 
L 556.048125 -146.424729 
L 519.361458 -129.666924 
L 482.674792 -114.351621 
L 445.988125 -103.102228 
L 409.301458 -95.296271 
L 372.614792 -88.609794 
L 335.928125 -80.560207 
z
" style="stroke: #9e5a01"/>
    </defs>
    <g clip-path="url(#p56f8588e36)">
     <use xlink:href="#mdf34e3aa45" x="0" y="244.529219" style="fill: #9e5a01; stroke: #9e5a01"/>
    </g>
   </g>
   <g id="PolyCollection_28">
    <defs>
     <path id="meda22cbee6" d="M 335.928125 -80.560207 
L 335.928125 -80.560207 
L 372.614792 -88.609794 
L 409.301458 -95.296271 
L 445.988125 -103.102228 
L 482.674792 -114.351621 
L 519.361458 -129.666924 
L 556.048125 -146.424729 
L 556.048125 -146.424729 
L 556.048125 -146.424729 
L 519.361458 -129.666924 
L 482.674792 -114.351621 
L 445.988125 -103.102228 
L 409.301458 -95.296271 
L 372.614792 -88.609794 
L 335.928125 -80.560207 
z
" style="stroke: #70af1d"/>
    </defs>
    <g clip-path="url(#p56f8588e36)">
     <use xlink:href="#meda22cbee6" x="0" y="244.529219" style="fill: #70af1d; stroke: #70af1d"/>
    </g>
   </g>
   <g id="PolyCollection_29">
    <defs>
     <path id="m9a4bc6a0eb" d="M 335.928125 -80.560309 
L 335.928125 -80.560207 
L 372.614792 -88.609794 
L 409.301458 -95.296271 
L 445.988125 -103.102228 
L 482.674792 -114.351621 
L 519.361458 -129.666924 
L 556.048125 -146.424729 
L 556.048125 -146.424729 
L 556.048125 -146.424729 
L 519.361458 -129.666942 
L 482.674792 -114.352231 
L 445.988125 -103.102541 
L 409.301458 -95.297193 
L 372.614792 -88.60993 
L 335.928125 -80.560309 
z
" style="stroke: #262626"/>
    </defs>
    <g clip-path="url(#p56f8588e36)">
     <use xlink:href="#m9a4bc6a0eb" x="0" y="244.529219" style="fill: #262626; stroke: #262626"/>
    </g>
   </g>
   <g id="matplotlib.axis_3">
    <g id="xtick_8">
     <g id="line2d_35">
      <g>
       <use xlink:href="#m3c291625c4" x="335.928125" y="204.879219" style="stroke: #000000; stroke-width: 0.8"/>
      </g>
     </g>
     <g id="text_17">
      <!-- 2020 -->
      <g transform="translate(338.6875 237.329219) rotate(-90) scale(0.1 -0.1)">
       <use xlink:href="#DejaVuSans-32"/>
       <use xlink:href="#DejaVuSans-30" x="63.623047"/>
       <use xlink:href="#DejaVuSans-32" x="127.246094"/>
       <use xlink:href="#DejaVuSans-30" x="190.869141"/>
      </g>
     </g>
    </g>
    <g id="xtick_9">
     <g id="line2d_36">
      <g>
       <use xlink:href="#m3c291625c4" x="372.614792" y="204.879219" style="stroke: #000000; stroke-width: 0.8"/>
      </g>
     </g>
     <g id="text_18">
      <!-- 2025 -->
      <g transform="translate(375.374167 237.329219) rotate(-90) scale(0.1 -0.1)">
       <use xlink:href="#DejaVuSans-32"/>
       <use xlink:href="#DejaVuSans-30" x="63.623047"/>
       <use xlink:href="#DejaVuSans-32" x="127.246094"/>
       <use xlink:href="#DejaVuSans-35" x="190.869141"/>
      </g>
     </g>
    </g>
    <g id="xtick_10">
     <g id="line2d_37">
      <g>
       <use xlink:href="#m3c291625c4" x="409.301458" y="204.879219" style="stroke: #000000; stroke-width: 0.8"/>
      </g>
     </g>
     <g id="text_19">
      <!-- 2030 -->
      <g transform="translate(412.060833 237.329219) rotate(-90) scale(0.1 -0.1)">
       <use xlink:href="#DejaVuSans-32"/>
       <use xlink:href="#DejaVuSans-30" x="63.623047"/>
       <use xlink:href="#DejaVuSans-33" x="127.246094"/>
       <use xlink:href="#DejaVuSans-30" x="190.869141"/>
      </g>
     </g>
    </g>
    <g id="xtick_11">
     <g id="line2d_38">
      <g>
       <use xlink:href="#m3c291625c4" x="445.988125" y="204.879219" style="stroke: #000000; stroke-width: 0.8"/>
      </g>
     </g>
     <g id="text_20">
      <!-- 2035 -->
      <g transform="translate(448.7475 237.329219) rotate(-90) scale(0.1 -0.1)">
       <use xlink:href="#DejaVuSans-32"/>
       <use xlink:href="#DejaVuSans-30" x="63.623047"/>
       <use xlink:href="#DejaVuSans-33" x="127.246094"/>
       <use xlink:href="#DejaVuSans-35" x="190.869141"/>
      </g>
     </g>
    </g>
    <g id="xtick_12">
     <g id="line2d_39">
      <g>
       <use xlink:href="#m3c291625c4" x="482.674792" y="204.879219" style="stroke: #000000; stroke-width: 0.8"/>
      </g>
     </g>
     <g id="text_21">
      <!-- 2040 -->
      <g transform="translate(485.434167 237.329219) rotate(-90) scale(0.1 -0.1)">
       <use xlink:href="#DejaVuSans-32"/>
       <use xlink:href="#DejaVuSans-30" x="63.623047"/>
       <use xlink:href="#DejaVuSans-34" x="127.246094"/>
       <use xlink:href="#DejaVuSans-30" x="190.869141"/>
      </g>
     </g>
    </g>
    <g id="xtick_13">
     <g id="line2d_40">
      <g>
       <use xlink:href="#m3c291625c4" x="519.361458" y="204.879219" style="stroke: #000000; stroke-width: 0.8"/>
      </g>
     </g>
     <g id="text_22">
      <!-- 2045 -->
      <g transform="translate(522.120833 237.329219) rotate(-90) scale(0.1 -0.1)">
       <use xlink:href="#DejaVuSans-32"/>
       <use xlink:href="#DejaVuSans-30" x="63.623047"/>
       <use xlink:href="#DejaVuSans-34" x="127.246094"/>
       <use xlink:href="#DejaVuSans-35" x="190.869141"/>
      </g>
     </g>
    </g>
    <g id="xtick_14">
     <g id="line2d_41">
      <g>
       <use xlink:href="#m3c291625c4" x="556.048125" y="204.879219" style="stroke: #000000; stroke-width: 0.8"/>
      </g>
     </g>
     <g id="text_23">
      <!-- 2050 -->
      <g transform="translate(558.8075 237.329219) rotate(-90) scale(0.1 -0.1)">
       <use xlink:href="#DejaVuSans-32"/>
       <use xlink:href="#DejaVuSans-30" x="63.623047"/>
       <use xlink:href="#DejaVuSans-35" x="127.246094"/>
       <use xlink:href="#DejaVuSans-30" x="190.869141"/>
      </g>
     </g>
    </g>
   </g>
   <g id="matplotlib.axis_4">
    <g id="ytick_8">
     <g id="line2d_42">
      <path d="M 335.928125 191.953885 
L 556.048125 191.953885 
" clip-path="url(#p56f8588e36)" style="fill: none; stroke: #b0b0b0; stroke-width: 0.8; stroke-linecap: square"/>
     </g>
     <g id="line2d_43">
      <g>
       <use xlink:href="#me26f5bb8dd" x="335.928125" y="191.953885" style="stroke: #000000; stroke-width: 0.8"/>
      </g>
     </g>
     <g id="text_24">
      <!-- 0 -->
      <g transform="translate(322.565625 195.753104) scale(0.1 -0.1)">
       <use xlink:href="#DejaVuSans-30"/>
      </g>
     </g>
    </g>
    <g id="ytick_9">
     <g id="line2d_44">
      <path d="M 335.928125 166.103219 
L 556.048125 166.103219 
" clip-path="url(#p56f8588e36)" style="fill: none; stroke: #b0b0b0; stroke-width: 0.8; stroke-linecap: square"/>
     </g>
     <g id="line2d_45">
      <g>
       <use xlink:href="#me26f5bb8dd" x="335.928125" y="166.103219" style="stroke: #000000; stroke-width: 0.8"/>
      </g>
     </g>
     <g id="text_25">
      <!-- 1000 -->
      <g transform="translate(303.478125 169.902438) scale(0.1 -0.1)">
       <use xlink:href="#DejaVuSans-31"/>
       <use xlink:href="#DejaVuSans-30" x="63.623047"/>
       <use xlink:href="#DejaVuSans-30" x="127.246094"/>
       <use xlink:href="#DejaVuSans-30" x="190.869141"/>
      </g>
     </g>
    </g>
    <g id="ytick_10">
     <g id="line2d_46">
      <path d="M 335.928125 140.252552 
L 556.048125 140.252552 
" clip-path="url(#p56f8588e36)" style="fill: none; stroke: #b0b0b0; stroke-width: 0.8; stroke-linecap: square"/>
     </g>
     <g id="line2d_47">
      <g>
       <use xlink:href="#me26f5bb8dd" x="335.928125" y="140.252552" style="stroke: #000000; stroke-width: 0.8"/>
      </g>
     </g>
     <g id="text_26">
      <!-- 2000 -->
      <g transform="translate(303.478125 144.051771) scale(0.1 -0.1)">
       <use xlink:href="#DejaVuSans-32"/>
       <use xlink:href="#DejaVuSans-30" x="63.623047"/>
       <use xlink:href="#DejaVuSans-30" x="127.246094"/>
       <use xlink:href="#DejaVuSans-30" x="190.869141"/>
      </g>
     </g>
    </g>
    <g id="ytick_11">
     <g id="line2d_48">
      <path d="M 335.928125 114.401885 
L 556.048125 114.401885 
" clip-path="url(#p56f8588e36)" style="fill: none; stroke: #b0b0b0; stroke-width: 0.8; stroke-linecap: square"/>
     </g>
     <g id="line2d_49">
      <g>
       <use xlink:href="#me26f5bb8dd" x="335.928125" y="114.401885" style="stroke: #000000; stroke-width: 0.8"/>
      </g>
     </g>
     <g id="text_27">
      <!-- 3000 -->
      <g transform="translate(303.478125 118.201104) scale(0.1 -0.1)">
       <use xlink:href="#DejaVuSans-33"/>
       <use xlink:href="#DejaVuSans-30" x="63.623047"/>
       <use xlink:href="#DejaVuSans-30" x="127.246094"/>
       <use xlink:href="#DejaVuSans-30" x="190.869141"/>
      </g>
     </g>
    </g>
    <g id="ytick_12">
     <g id="line2d_50">
      <path d="M 335.928125 88.551219 
L 556.048125 88.551219 
" clip-path="url(#p56f8588e36)" style="fill: none; stroke: #b0b0b0; stroke-width: 0.8; stroke-linecap: square"/>
     </g>
     <g id="line2d_51">
      <g>
       <use xlink:href="#me26f5bb8dd" x="335.928125" y="88.551219" style="stroke: #000000; stroke-width: 0.8"/>
      </g>
     </g>
     <g id="text_28">
      <!-- 4000 -->
      <g transform="translate(303.478125 92.350437) scale(0.1 -0.1)">
       <use xlink:href="#DejaVuSans-34"/>
       <use xlink:href="#DejaVuSans-30" x="63.623047"/>
       <use xlink:href="#DejaVuSans-30" x="127.246094"/>
       <use xlink:href="#DejaVuSans-30" x="190.869141"/>
      </g>
     </g>
    </g>
    <g id="ytick_13">
     <g id="line2d_52">
      <path d="M 335.928125 62.700552 
L 556.048125 62.700552 
" clip-path="url(#p56f8588e36)" style="fill: none; stroke: #b0b0b0; stroke-width: 0.8; stroke-linecap: square"/>
     </g>
     <g id="line2d_53">
      <g>
       <use xlink:href="#me26f5bb8dd" x="335.928125" y="62.700552" style="stroke: #000000; stroke-width: 0.8"/>
      </g>
     </g>
     <g id="text_29">
      <!-- 5000 -->
      <g transform="translate(303.478125 66.499771) scale(0.1 -0.1)">
       <use xlink:href="#DejaVuSans-35"/>
       <use xlink:href="#DejaVuSans-30" x="63.623047"/>
       <use xlink:href="#DejaVuSans-30" x="127.246094"/>
       <use xlink:href="#DejaVuSans-30" x="190.869141"/>
      </g>
     </g>
    </g>
    <g id="ytick_14">
     <g id="line2d_54">
      <path d="M 335.928125 36.849885 
L 556.048125 36.849885 
" clip-path="url(#p56f8588e36)" style="fill: none; stroke: #b0b0b0; stroke-width: 0.8; stroke-linecap: square"/>
     </g>
     <g id="line2d_55">
      <g>
       <use xlink:href="#me26f5bb8dd" x="335.928125" y="36.849885" style="stroke: #000000; stroke-width: 0.8"/>
      </g>
     </g>
     <g id="text_30">
      <!-- 6000 -->
      <g transform="translate(303.478125 40.649104) scale(0.1 -0.1)">
       <use xlink:href="#DejaVuSans-36"/>
       <use xlink:href="#DejaVuSans-30" x="63.623047"/>
       <use xlink:href="#DejaVuSans-30" x="127.246094"/>
       <use xlink:href="#DejaVuSans-30" x="190.869141"/>
      </g>
     </g>
    </g>
    <g id="ytick_15">
     <g id="line2d_56">
      <path d="M 335.928125 10.999219 
L 556.048125 10.999219 
" clip-path="url(#p56f8588e36)" style="fill: none; stroke: #b0b0b0; stroke-width: 0.8; stroke-linecap: square"/>
     </g>
     <g id="line2d_57">
      <g>
       <use xlink:href="#me26f5bb8dd" x="335.928125" y="10.999219" style="stroke: #000000; stroke-width: 0.8"/>
      </g>
     </g>
     <g id="text_31">
      <!-- 7000 -->
      <g transform="translate(303.478125 14.798438) scale(0.1 -0.1)">
       <defs>
        <path id="DejaVuSans-37" d="M 525 4666 
L 3525 4666 
L 3525 4397 
L 1831 0 
L 1172 0 
L 2766 4134 
L 525 4134 
L 525 4666 
z
" transform="scale(0.015625)"/>
       </defs>
       <use xlink:href="#DejaVuSans-37"/>
       <use xlink:href="#DejaVuSans-30" x="63.623047"/>
       <use xlink:href="#DejaVuSans-30" x="127.246094"/>
       <use xlink:href="#DejaVuSans-30" x="190.869141"/>
      </g>
     </g>
    </g>
    <g id="text_32">
     <!-- Energy [TWh/a] -->
     <g transform="translate(297.398437 146.850938) rotate(-90) scale(0.1 -0.1)">
      <defs>
       <path id="DejaVuSans-6e" d="M 3513 2113 
L 3513 0 
L 2938 0 
L 2938 2094 
Q 2938 2591 2744 2837 
Q 2550 3084 2163 3084 
Q 1697 3084 1428 2787 
Q 1159 2491 1159 1978 
L 1159 0 
L 581 0 
L 581 3500 
L 1159 3500 
L 1159 2956 
Q 1366 3272 1645 3428 
Q 1925 3584 2291 3584 
Q 2894 3584 3203 3211 
Q 3513 2838 3513 2113 
z
" transform="scale(0.015625)"/>
       <path id="DejaVuSans-65" d="M 3597 1894 
L 3597 1613 
L 953 1613 
Q 991 1019 1311 708 
Q 1631 397 2203 397 
Q 2534 397 2845 478 
Q 3156 559 3463 722 
L 3463 178 
Q 3153 47 2828 -22 
Q 2503 -91 2169 -91 
Q 1331 -91 842 396 
Q 353 884 353 1716 
Q 353 2575 817 3079 
Q 1281 3584 2069 3584 
Q 2775 3584 3186 3129 
Q 3597 2675 3597 1894 
z
M 3022 2063 
Q 3016 2534 2758 2815 
Q 2500 3097 2075 3097 
Q 1594 3097 1305 2825 
Q 1016 2553 972 2059 
L 3022 2063 
z
" transform="scale(0.015625)"/>
       <path id="DejaVuSans-72" d="M 2631 2963 
Q 2534 3019 2420 3045 
Q 2306 3072 2169 3072 
Q 1681 3072 1420 2755 
Q 1159 2438 1159 1844 
L 1159 0 
L 581 0 
L 581 3500 
L 1159 3500 
L 1159 2956 
Q 1341 3275 1631 3429 
Q 1922 3584 2338 3584 
Q 2397 3584 2469 3576 
Q 2541 3569 2628 3553 
L 2631 2963 
z
" transform="scale(0.015625)"/>
       <path id="DejaVuSans-67" d="M 2906 1791 
Q 2906 2416 2648 2759 
Q 2391 3103 1925 3103 
Q 1463 3103 1205 2759 
Q 947 2416 947 1791 
Q 947 1169 1205 825 
Q 1463 481 1925 481 
Q 2391 481 2648 825 
Q 2906 1169 2906 1791 
z
M 3481 434 
Q 3481 -459 3084 -895 
Q 2688 -1331 1869 -1331 
Q 1566 -1331 1297 -1286 
Q 1028 -1241 775 -1147 
L 775 -588 
Q 1028 -725 1275 -790 
Q 1522 -856 1778 -856 
Q 2344 -856 2625 -561 
Q 2906 -266 2906 331 
L 2906 616 
Q 2728 306 2450 153 
Q 2172 0 1784 0 
Q 1141 0 747 490 
Q 353 981 353 1791 
Q 353 2603 747 3093 
Q 1141 3584 1784 3584 
Q 2172 3584 2450 3431 
Q 2728 3278 2906 2969 
L 2906 3500 
L 3481 3500 
L 3481 434 
z
" transform="scale(0.015625)"/>
       <path id="DejaVuSans-54" d="M -19 4666 
L 3928 4666 
L 3928 4134 
L 2272 4134 
L 2272 0 
L 1638 0 
L 1638 4134 
L -19 4134 
L -19 4666 
z
" transform="scale(0.015625)"/>
       <path id="DejaVuSans-68" d="M 3513 2113 
L 3513 0 
L 2938 0 
L 2938 2094 
Q 2938 2591 2744 2837 
Q 2550 3084 2163 3084 
Q 1697 3084 1428 2787 
Q 1159 2491 1159 1978 
L 1159 0 
L 581 0 
L 581 4863 
L 1159 4863 
L 1159 2956 
Q 1366 3272 1645 3428 
Q 1925 3584 2291 3584 
Q 2894 3584 3203 3211 
Q 3513 2838 3513 2113 
z
" transform="scale(0.015625)"/>
       <path id="DejaVuSans-2f" d="M 1625 4666 
L 2156 4666 
L 531 -594 
L 0 -594 
L 1625 4666 
z
" transform="scale(0.015625)"/>
      </defs>
      <use xlink:href="#DejaVuSans-45"/>
      <use xlink:href="#DejaVuSans-6e" x="63.183594"/>
      <use xlink:href="#DejaVuSans-65" x="126.5625"/>
      <use xlink:href="#DejaVuSans-72" x="188.085938"/>
      <use xlink:href="#DejaVuSans-67" x="227.449219"/>
      <use xlink:href="#DejaVuSans-79" x="290.925781"/>
      <use xlink:href="#DejaVuSans-20" x="350.105469"/>
      <use xlink:href="#DejaVuSans-5b" x="381.892578"/>
      <use xlink:href="#DejaVuSans-54" x="420.90625"/>
      <use xlink:href="#DejaVuSans-57" x="481.990234"/>
      <use xlink:href="#DejaVuSans-68" x="580.867188"/>
      <use xlink:href="#DejaVuSans-2f" x="644.246094"/>
      <use xlink:href="#DejaVuSans-61" x="677.9375"/>
      <use xlink:href="#DejaVuSans-5d" x="739.216797"/>
     </g>
    </g>
   </g>
   <g id="line2d_58">
    <path d="M 335.928125 191.953953 
L 372.614792 191.95437 
L 409.301458 191.971621 
L 445.988125 192.115996 
L 482.674792 192.769535 
L 519.361458 193.545479 
L 556.048125 194.59945 
" clip-path="url(#p56f8588e36)" style="fill: none; stroke: #b8ea04; stroke-width: 1.5; stroke-linecap: square"/>
   </g>
   <g id="line2d_59">
    <path d="M 335.928125 181.394543 
L 372.614792 180.280668 
L 409.301458 179.0794 
L 445.988125 179.084532 
L 482.674792 179.066877 
L 519.361458 179.097881 
L 556.048125 179.075991 
" clip-path="url(#p56f8588e36)" style="fill: none; stroke: #08ad97; stroke-width: 1.5; stroke-linecap: square"/>
   </g>
   <g id="line2d_60">
    <path d="M 335.928125 191.953965 
L 372.614792 191.954385 
L 409.301458 191.971736 
L 445.988125 192.11624 
L 482.674792 192.769575 
L 519.361458 193.546037 
L 556.048125 194.599544 
" clip-path="url(#p56f8588e36)" style="fill: none; stroke: #ea048a; stroke-width: 1.5; stroke-linecap: square"/>
   </g>
   <g id="line2d_61">
    <path d="M 335.928125 181.394162 
L 372.614792 180.280303 
L 409.301458 179.079092 
L 445.988125 179.08422 
L 482.674792 179.066577 
L 519.361458 179.097561 
L 556.048125 179.075716 
" clip-path="url(#p56f8588e36)" style="fill: none; stroke: #6895dd; stroke-width: 1.5; stroke-linecap: square"/>
   </g>
   <g id="line2d_62">
    <path d="M 335.928125 181.387655 
L 372.614792 180.273741 
L 409.301458 179.074027 
L 445.988125 179.079451 
L 482.674792 179.061292 
L 519.361458 179.092626 
L 556.048125 179.071264 
" clip-path="url(#p56f8588e36)" style="fill: none; stroke: #74c6f2; stroke-width: 1.5; stroke-linecap: square"/>
   </g>
   <g id="line2d_63">
    <path d="M 335.928125 179.372153 
L 372.614792 176.310412 
L 409.301458 172.266246 
L 445.988125 170.342594 
L 482.674792 168.270337 
L 519.361458 168.181296 
L 556.048125 171.761772 
" clip-path="url(#p56f8588e36)" style="fill: none; stroke: #235ebc; stroke-width: 1.5; stroke-linecap: square"/>
   </g>
   <g id="line2d_64">
    <path d="M 335.928125 178.583645 
L 372.614792 171.789457 
L 409.301458 162.585831 
L 445.988125 155.800395 
L 482.674792 139.861483 
L 519.361458 122.273173 
L 556.048125 101.163246 
" clip-path="url(#p56f8588e36)" style="fill: none; stroke: #f9d002; stroke-width: 1.5; stroke-linecap: square"/>
   </g>
   <g id="line2d_65">
    <path d="M 335.928125 178.2586 
L 372.614792 171.029748 
L 409.301458 160.487146 
L 445.988125 148.822857 
L 482.674792 135.423291 
L 519.361458 117.019392 
L 556.048125 98.745468 
" clip-path="url(#p56f8588e36)" style="fill: none; stroke: #b20101; stroke-width: 1.5; stroke-linecap: square"/>
   </g>
   <g id="line2d_66">
    <path d="M 335.928125 178.251531 
L 372.614792 170.906662 
L 409.301458 160.481399 
L 445.988125 148.821724 
L 482.674792 135.421668 
L 519.361458 117.018851 
L 556.048125 98.745466 
" clip-path="url(#p56f8588e36)" style="fill: none; stroke: #707070; stroke-width: 1.5; stroke-linecap: square"/>
   </g>
   <g id="line2d_67">
    <path d="M 335.928125 177.585961 
L 372.614792 170.362787 
L 409.301458 160.104895 
L 445.988125 148.607032 
L 482.674792 135.257847 
L 519.361458 116.928655 
L 556.048125 98.723455 
" clip-path="url(#p56f8588e36)" style="fill: none; stroke: #808080; stroke-width: 1.5; stroke-linecap: square"/>
   </g>
   <g id="line2d_68">
    <path d="M 335.928125 175.542858 
L 372.614792 167.695989 
L 409.301458 157.735221 
L 445.988125 146.2082 
L 482.674792 132.796835 
L 519.361458 116.08925 
L 556.048125 98.395418 
" clip-path="url(#p56f8588e36)" style="fill: none; stroke: #606060; stroke-width: 1.5; stroke-linecap: square"/>
   </g>
   <g id="line2d_69">
    <path d="M 335.928125 165.875081 
L 372.614792 158.202526 
L 409.301458 150.844806 
L 445.988125 143.024464 
L 482.674792 131.699826 
L 519.361458 115.499962 
L 556.048125 98.243899 
" clip-path="url(#p56f8588e36)" style="fill: none; stroke: #909090; stroke-width: 1.5; stroke-linecap: square"/>
   </g>
   <g id="line2d_70">
    <path d="M 335.928125 165.426254 
L 372.614792 157.324879 
L 409.301458 150.122648 
L 445.988125 142.313927 
L 482.674792 130.99483 
L 519.361458 114.872334 
L 556.048125 98.104553 
" clip-path="url(#p56f8588e36)" style="fill: none; stroke: #505050; stroke-width: 1.5; stroke-linecap: square"/>
   </g>
   <g id="line2d_71">
    <path d="M 335.928125 163.969012 
L 372.614792 155.919425 
L 409.301458 149.232948 
L 445.988125 141.426991 
L 482.674792 130.177598 
L 519.361458 114.862294 
L 556.048125 98.104489 
" clip-path="url(#p56f8588e36)" style="fill: none; stroke: #9e5a01; stroke-width: 1.5; stroke-linecap: square"/>
   </g>
   <g id="line2d_72">
    <path d="M 335.928125 163.969012 
L 372.614792 155.919425 
L 409.301458 149.232948 
L 445.988125 141.426991 
L 482.674792 130.177598 
L 519.361458 114.862294 
L 556.048125 98.104489 
" clip-path="url(#p56f8588e36)" style="fill: none; stroke: #70af1d; stroke-width: 1.5; stroke-linecap: square"/>
   </g>
   <g id="line2d_73">
    <path d="M 335.928125 163.96891 
L 372.614792 155.919288 
L 409.301458 149.232026 
L 445.988125 141.426677 
L 482.674792 130.176988 
L 519.361458 114.862277 
L 556.048125 98.104489 
" clip-path="url(#p56f8588e36)" style="fill: none; stroke: #262626; stroke-width: 1.5; stroke-linecap: square"/>
   </g>
   <g id="line2d_74">
    <path d="M 335.928125 163.434396 
L 372.614792 155.437234 
L 409.301458 148.91511 
L 445.988125 141.457193 
L 482.674792 130.977333 
L 519.361458 116.454428 
L 556.048125 100.750148 
" clip-path="url(#p56f8588e36)" style="fill: none; stroke-dasharray: 7.4,3.2; stroke-dashoffset: 0; stroke: #000000; stroke-width: 2"/>
   </g>
   <g id="patch_8">
    <path d="M 335.928125 204.879219 
L 335.928125 10.999219 
" style="fill: none; stroke: #000000; stroke-width: 0.8; stroke-linejoin: miter; stroke-linecap: square"/>
   </g>
   <g id="patch_9">
    <path d="M 556.048125 204.879219 
L 556.048125 10.999219 
" style="fill: none; stroke: #000000; stroke-width: 0.8; stroke-linejoin: miter; stroke-linecap: square"/>
   </g>
   <g id="patch_10">
    <path d="M 335.928125 204.879219 
L 556.048125 204.879219 
" style="fill: none; stroke: #000000; stroke-width: 0.8; stroke-linejoin: miter; stroke-linecap: square"/>
   </g>
   <g id="patch_11">
    <path d="M 335.928125 10.999219 
L 556.048125 10.999219 
" style="fill: none; stroke: #000000; stroke-width: 0.8; stroke-linejoin: miter; stroke-linecap: square"/>
   </g>
   <g id="patch_12">
    <path d="M 466.042811 116.845484 
Q 469.358003 119.534017 472.673195 122.22255 
L 473.932951 120.669162 
Q 477.806345 125.419767 481.679739 130.170372 
Q 476.23165 127.361502 470.783561 124.552632 
L 472.043317 122.999244 
Q 468.728125 120.310711 465.412932 117.622178 
L 466.042811 116.845484 
z
" style="stroke: #000000; stroke-linecap: round"/>
   </g>
   <g id="text_33">
    <!-- Load/a -->
    <g transform="translate(429.243594 112.725104) scale(0.1 -0.1)">
     <defs>
      <path id="DejaVuSans-4c" d="M 628 4666 
L 1259 4666 
L 1259 531 
L 3531 531 
L 3531 0 
L 628 0 
L 628 4666 
z
" transform="scale(0.015625)"/>
      <path id="DejaVuSans-6f" d="M 1959 3097 
Q 1497 3097 1228 2736 
Q 959 2375 959 1747 
Q 959 1119 1226 758 
Q 1494 397 1959 397 
Q 2419 397 2687 759 
Q 2956 1122 2956 1747 
Q 2956 2369 2687 2733 
Q 2419 3097 1959 3097 
z
M 1959 3584 
Q 2709 3584 3137 3096 
Q 3566 2609 3566 1747 
Q 3566 888 3137 398 
Q 2709 -91 1959 -91 
Q 1206 -91 779 398 
Q 353 888 353 1747 
Q 353 2609 779 3096 
Q 1206 3584 1959 3584 
z
" transform="scale(0.015625)"/>
      <path id="DejaVuSans-64" d="M 2906 2969 
L 2906 4863 
L 3481 4863 
L 3481 0 
L 2906 0 
L 2906 525 
Q 2725 213 2448 61 
Q 2172 -91 1784 -91 
Q 1150 -91 751 415 
Q 353 922 353 1747 
Q 353 2572 751 3078 
Q 1150 3584 1784 3584 
Q 2172 3584 2448 3432 
Q 2725 3281 2906 2969 
z
M 947 1747 
Q 947 1113 1208 752 
Q 1469 391 1925 391 
Q 2381 391 2643 752 
Q 2906 1113 2906 1747 
Q 2906 2381 2643 2742 
Q 2381 3103 1925 3103 
Q 1469 3103 1208 2742 
Q 947 2381 947 1747 
z
" transform="scale(0.015625)"/>
     </defs>
     <use xlink:href="#DejaVuSans-4c"/>
     <use xlink:href="#DejaVuSans-6f" x="53.962891"/>
     <use xlink:href="#DejaVuSans-61" x="115.144531"/>
     <use xlink:href="#DejaVuSans-64" x="176.423828"/>
     <use xlink:href="#DejaVuSans-2f" x="239.900391"/>
     <use xlink:href="#DejaVuSans-61" x="273.591797"/>
    </g>
   </g>
   <g id="text_34">
    <!-- SEA_AEO8_AIMS_DEC -->
    <g transform="translate(340.330525 24.387219) scale(0.09 -0.09)">
     <use xlink:href="#DejaVuSans-53"/>
     <use xlink:href="#DejaVuSans-45" x="63.476562"/>
     <use xlink:href="#DejaVuSans-41" x="126.660156"/>
     <use xlink:href="#DejaVuSans-5f" x="195.068359"/>
     <use xlink:href="#DejaVuSans-41" x="245.068359"/>
     <use xlink:href="#DejaVuSans-45" x="313.476562"/>
     <use xlink:href="#DejaVuSans-4f" x="376.660156"/>
     <use xlink:href="#DejaVuSans-38" x="455.371094"/>
     <use xlink:href="#DejaVuSans-5f" x="518.994141"/>
     <use xlink:href="#DejaVuSans-41" x="568.994141"/>
     <use xlink:href="#DejaVuSans-49" x="637.402344"/>
     <use xlink:href="#DejaVuSans-4d" x="666.894531"/>
     <use xlink:href="#DejaVuSans-53" x="753.173828"/>
     <use xlink:href="#DejaVuSans-5f" x="816.650391"/>
     <use xlink:href="#DejaVuSans-44" x="866.650391"/>
     <use xlink:href="#DejaVuSans-45" x="943.652344"/>
     <use xlink:href="#DejaVuSans-43" x="1006.835938"/>
    </g>
   </g>
  </g>
 </g>
 <defs>
  <clipPath id="p7a7af65372">
   <rect x="53.328125" y="10.999219" width="220.12" height="193.88"/>
  </clipPath>
  <clipPath id="p56f8588e36">
   <rect x="335.928125" y="10.999219" width="220.12" height="193.88"/>
  </clipPath>
 </defs>
</svg>
