<?xml version="1.0" encoding="utf-8" standalone="no"?>
<!DOCTYPE svg PUBLIC "-//W3C//DTD SVG 1.1//EN"
  "http://www.w3.org/Graphics/SVG/1.1/DTD/svg11.dtd">
<svg xmlns:xlink="http://www.w3.org/1999/xlink" width="506.928125pt" height="188.019219pt" viewBox="0 0 506.928125 188.019219" xmlns="http://www.w3.org/2000/svg" version="1.1">
 <metadata>
  <rdf:RDF xmlns:dc="http://purl.org/dc/elements/1.1/" xmlns:cc="http://creativecommons.org/ns#" xmlns:rdf="http://www.w3.org/1999/02/22-rdf-syntax-ns#">
   <cc:Work>
    <dc:type rdf:resource="http://purl.org/dc/dcmitype/StillImage"/>
    <dc:date>2024-12-03T19:09:36.135959</dc:date>
    <dc:format>image/svg+xml</dc:format>
    <dc:creator>
     <cc:Agent>
      <dc:title>Matplotlib v3.9.2, https://matplotlib.org/</dc:title>
     </cc:Agent>
    </dc:creator>
   </cc:Work>
  </rdf:RDF>
 </metadata>
 <defs>
  <style type="text/css">*{stroke-linejoin: round; stroke-linecap: butt}</style>
 </defs>
 <g id="figure_1">
  <g id="patch_1">
   <path d="M 0 188.019219 
L 506.928125 188.019219 
L 506.928125 0 
L 0 0 
z
" style="fill: #ffffff"/>
  </g>
  <g id="axes_1">
   <g id="patch_2">
    <path d="M 53.328125 177.319219 
L 499.728125 177.319219 
L 499.728125 10.999219 
L 53.328125 10.999219 
z
" style="fill: #ffffff"/>
   </g>
   <g id="patch_3">
    <path d="M 59.393342 162.199219 
L 81.228125 162.199219 
L 81.228125 165.195066 
L 59.393342 165.195066 
z
" clip-path="url(#p0ab7573e56)" style="fill: #b8ea04"/>
   </g>
   <g id="patch_4">
    <path d="M 83.654212 162.199219 
L 105.488995 162.199219 
L 105.488995 165.902594 
L 83.654212 165.902594 
z
" clip-path="url(#p0ab7573e56)" style="fill: #b8ea04"/>
   </g>
   <g id="patch_5">
    <path d="M 107.915082 162.199219 
L 129.749864 162.199219 
L 129.749864 163.036471 
L 107.915082 163.036471 
z
" clip-path="url(#p0ab7573e56)" style="fill: #b8ea04"/>
   </g>
   <g id="patch_6">
    <path d="M 132.175951 162.199219 
L 154.010734 162.199219 
L 154.010734 162.378812 
L 132.175951 162.378812 
z
" clip-path="url(#p0ab7573e56)" style="fill: #b8ea04"/>
   </g>
   <g id="patch_7">
    <path d="M 156.436821 162.199219 
L 178.271603 162.199219 
L 178.271603 162.204968 
L 156.436821 162.204968 
z
" clip-path="url(#p0ab7573e56)" style="fill: #b8ea04"/>
   </g>
   <g id="patch_8">
    <path d="M 180.69769 162.199219 
L 202.532473 162.199219 
L 202.532473 162.572838 
L 180.69769 162.572838 
z
" clip-path="url(#p0ab7573e56)" style="fill: #b8ea04"/>
   </g>
   <g id="patch_9">
    <path d="M 204.95856 162.199219 
L 226.793342 162.199219 
L 226.793342 163.60381 
L 204.95856 163.60381 
z
" clip-path="url(#p0ab7573e56)" style="fill: #b8ea04"/>
   </g>
   <g id="patch_10">
    <path d="M 229.219429 162.199219 
L 251.054212 162.199219 
L 251.054212 163.367278 
L 229.219429 163.367278 
z
" clip-path="url(#p0ab7573e56)" style="fill: #b8ea04"/>
   </g>
   <g id="patch_11">
    <path d="M 253.480299 162.199219 
L 275.315082 162.199219 
L 275.315082 163.280352 
L 253.480299 163.280352 
z
" clip-path="url(#p0ab7573e56)" style="fill: #b8ea04"/>
   </g>
   <g id="patch_12">
    <path d="M 277.741168 162.199219 
L 299.575951 162.199219 
L 299.575951 162.803373 
L 277.741168 162.803373 
z
" clip-path="url(#p0ab7573e56)" style="fill: #b8ea04"/>
   </g>
   <g id="patch_13">
    <path d="M 302.002038 162.199219 
L 323.836821 162.199219 
L 323.836821 162.246984 
L 302.002038 162.246984 
z
" clip-path="url(#p0ab7573e56)" style="fill: #b8ea04"/>
   </g>
   <g id="patch_14">
    <path d="M 326.262908 162.199219 
L 348.09769 162.199219 
L 348.09769 162.202661 
L 326.262908 162.202661 
z
" clip-path="url(#p0ab7573e56)" style="fill: #b8ea04"/>
   </g>
   <g id="patch_15">
    <path d="M 350.523777 162.199219 
L 372.35856 162.199219 
L 372.35856 162.215725 
L 350.523777 162.215725 
z
" clip-path="url(#p0ab7573e56)" style="fill: #b8ea04"/>
   </g>
   <g id="patch_16">
    <path d="M 374.784647 162.199219 
L 396.619429 162.199219 
L 396.619429 162.300976 
L 374.784647 162.300976 
z
" clip-path="url(#p0ab7573e56)" style="fill: #b8ea04"/>
   </g>
   <g id="patch_17">
    <path d="M 399.045516 162.199219 
L 420.880299 162.199219 
L 420.880299 162.452207 
L 399.045516 162.452207 
z
" clip-path="url(#p0ab7573e56)" style="fill: #b8ea04"/>
   </g>
   <g id="patch_18">
    <path d="M 423.306386 162.199219 
L 445.141168 162.199219 
L 445.141168 163.156301 
L 423.306386 163.156301 
z
" clip-path="url(#p0ab7573e56)" style="fill: #b8ea04"/>
   </g>
   <g id="patch_19">
    <path d="M 447.567255 162.199219 
L 469.402038 162.199219 
L 469.402038 162.205793 
L 447.567255 162.205793 
z
" clip-path="url(#p0ab7573e56)" style="fill: #b8ea04"/>
   </g>
   <g id="patch_20">
    <path d="M 471.828125 162.199219 
L 493.662908 162.199219 
L 493.662908 162.252398 
L 471.828125 162.252398 
z
" clip-path="url(#p0ab7573e56)" style="fill: #b8ea04"/>
   </g>
   <g id="patch_21">
    <path d="M 59.393342 165.195066 
L 81.228125 165.195066 
L 81.228125 165.195245 
L 59.393342 165.195245 
z
" clip-path="url(#p0ab7573e56)" style="fill: #ea048a"/>
   </g>
   <g id="patch_22">
    <path d="M 83.654212 165.902594 
L 105.488995 165.902594 
L 105.488995 165.902724 
L 83.654212 165.902724 
z
" clip-path="url(#p0ab7573e56)" style="fill: #ea048a"/>
   </g>
   <g id="patch_23">
    <path d="M 107.915082 163.036471 
L 129.749864 163.036471 
L 129.749864 163.036574 
L 107.915082 163.036574 
z
" clip-path="url(#p0ab7573e56)" style="fill: #ea048a"/>
   </g>
   <g id="patch_24">
    <path d="M 132.175951 162.378812 
L 154.010734 162.378812 
L 154.010734 162.37884 
L 132.175951 162.37884 
z
" clip-path="url(#p0ab7573e56)" style="fill: #ea048a"/>
   </g>
   <g id="patch_25">
    <path d="M 156.436821 162.204968 
L 178.271603 162.204968 
L 178.271603 162.204973 
L 156.436821 162.204973 
z
" clip-path="url(#p0ab7573e56)" style="fill: #ea048a"/>
   </g>
   <g id="patch_26">
    <path d="M 180.69769 162.572838 
L 202.532473 162.572838 
L 202.532473 162.572893 
L 180.69769 162.572893 
z
" clip-path="url(#p0ab7573e56)" style="fill: #ea048a"/>
   </g>
   <g id="patch_27">
    <path d="M 204.95856 163.60381 
L 226.793342 163.60381 
L 226.793342 163.603855 
L 204.95856 163.603855 
z
" clip-path="url(#p0ab7573e56)" style="fill: #ea048a"/>
   </g>
   <g id="patch_28">
    <path d="M 229.219429 163.367278 
L 251.054212 163.367278 
L 251.054212 163.367356 
L 229.219429 163.367356 
z
" clip-path="url(#p0ab7573e56)" style="fill: #ea048a"/>
   </g>
   <g id="patch_29">
    <path d="M 253.480299 163.280352 
L 275.315082 163.280352 
L 275.315082 163.280378 
L 253.480299 163.280378 
z
" clip-path="url(#p0ab7573e56)" style="fill: #ea048a"/>
   </g>
   <g id="patch_30">
    <path d="M 277.741168 162.803373 
L 299.575951 162.803373 
L 299.575951 162.803484 
L 277.741168 162.803484 
z
" clip-path="url(#p0ab7573e56)" style="fill: #ea048a"/>
   </g>
   <g id="patch_31">
    <path d="M 302.002038 162.246984 
L 323.836821 162.246984 
L 323.836821 162.24701 
L 302.002038 162.24701 
z
" clip-path="url(#p0ab7573e56)" style="fill: #ea048a"/>
   </g>
   <g id="patch_32">
    <path d="M 326.262908 162.202661 
L 348.09769 162.202661 
L 348.09769 162.202666 
L 326.262908 162.202666 
z
" clip-path="url(#p0ab7573e56)" style="fill: #ea048a"/>
   </g>
   <g id="patch_33">
    <path d="M 350.523777 162.215725 
L 372.35856 162.215725 
L 372.35856 162.215738 
L 350.523777 162.215738 
z
" clip-path="url(#p0ab7573e56)" style="fill: #ea048a"/>
   </g>
   <g id="patch_34">
    <path d="M 374.784647 162.300976 
L 396.619429 162.300976 
L 396.619429 162.300998 
L 374.784647 162.300998 
z
" clip-path="url(#p0ab7573e56)" style="fill: #ea048a"/>
   </g>
   <g id="patch_35">
    <path d="M 399.045516 162.452207 
L 420.880299 162.452207 
L 420.880299 162.452258 
L 399.045516 162.452258 
z
" clip-path="url(#p0ab7573e56)" style="fill: #ea048a"/>
   </g>
   <g id="patch_36">
    <path d="M 423.306386 163.156301 
L 445.141168 163.156301 
L 445.141168 163.15636 
L 423.306386 163.15636 
z
" clip-path="url(#p0ab7573e56)" style="fill: #ea048a"/>
   </g>
   <g id="patch_37">
    <path d="M 447.567255 162.205793 
L 469.402038 162.205793 
L 469.402038 162.205809 
L 447.567255 162.205809 
z
" clip-path="url(#p0ab7573e56)" style="fill: #ea048a"/>
   </g>
   <g id="patch_38">
    <path d="M 471.828125 162.252398 
L 493.662908 162.252398 
L 493.662908 162.252422 
L 471.828125 162.252422 
z
" clip-path="url(#p0ab7573e56)" style="fill: #ea048a"/>
   </g>
   <g id="patch_39">
    <path d="M 59.393342 162.199219 
L 81.228125 162.199219 
L 81.228125 162.199214 
L 59.393342 162.199214 
z
" clip-path="url(#p0ab7573e56)" style="fill: #6895dd"/>
   </g>
   <g id="patch_40">
    <path d="M 83.654212 162.199219 
L 105.488995 162.199219 
L 105.488995 162.199215 
L 83.654212 162.199215 
z
" clip-path="url(#p0ab7573e56)" style="fill: #6895dd"/>
   </g>
   <g id="patch_41">
    <path d="M 107.915082 162.199219 
L 129.749864 162.199219 
L 129.749864 162.199212 
L 107.915082 162.199212 
z
" clip-path="url(#p0ab7573e56)" style="fill: #6895dd"/>
   </g>
   <g id="patch_42">
    <path d="M 132.175951 162.199219 
L 154.010734 162.199219 
L 154.010734 162.199217 
L 132.175951 162.199217 
z
" clip-path="url(#p0ab7573e56)" style="fill: #6895dd"/>
   </g>
   <g id="patch_43">
    <path d="M 156.436821 162.199219 
L 178.271603 162.199219 
L 178.271603 162.199218 
L 156.436821 162.199218 
z
" clip-path="url(#p0ab7573e56)" style="fill: #6895dd"/>
   </g>
   <g id="patch_44">
    <path d="M 180.69769 162.572893 
L 202.532473 162.572893 
L 202.532473 162.572893 
L 180.69769 162.572893 
z
" clip-path="url(#p0ab7573e56)" style="fill: #6895dd"/>
   </g>
   <g id="patch_45">
    <path d="M 204.95856 162.199219 
L 226.793342 162.199219 
L 226.793342 162.199218 
L 204.95856 162.199218 
z
" clip-path="url(#p0ab7573e56)" style="fill: #6895dd"/>
   </g>
   <g id="patch_46">
    <path d="M 229.219429 162.199219 
L 251.054212 162.199219 
L 251.054212 162.198427 
L 229.219429 162.198427 
z
" clip-path="url(#p0ab7573e56)" style="fill: #6895dd"/>
   </g>
   <g id="patch_47">
    <path d="M 253.480299 162.199219 
L 275.315082 162.199219 
L 275.315082 162.199215 
L 253.480299 162.199215 
z
" clip-path="url(#p0ab7573e56)" style="fill: #6895dd"/>
   </g>
   <g id="patch_48">
    <path d="M 277.741168 162.199219 
L 299.575951 162.199219 
L 299.575951 162.199217 
L 277.741168 162.199217 
z
" clip-path="url(#p0ab7573e56)" style="fill: #6895dd"/>
   </g>
   <g id="patch_49">
    <path d="M 302.002038 162.199219 
L 323.836821 162.199219 
L 323.836821 162.199219 
L 302.002038 162.199219 
z
" clip-path="url(#p0ab7573e56)" style="fill: #6895dd"/>
   </g>
   <g id="patch_50">
    <path d="M 326.262908 162.199219 
L 348.09769 162.199219 
L 348.09769 162.199219 
L 326.262908 162.199219 
z
" clip-path="url(#p0ab7573e56)" style="fill: #6895dd"/>
   </g>
   <g id="patch_51">
    <path d="M 350.523777 162.199219 
L 372.35856 162.199219 
L 372.35856 162.199218 
L 350.523777 162.199218 
z
" clip-path="url(#p0ab7573e56)" style="fill: #6895dd"/>
   </g>
   <g id="patch_52">
    <path d="M 374.784647 162.199219 
L 396.619429 162.199219 
L 396.619429 162.199217 
L 374.784647 162.199217 
z
" clip-path="url(#p0ab7573e56)" style="fill: #6895dd"/>
   </g>
   <g id="patch_53">
    <path d="M 399.045516 162.199219 
L 420.880299 162.199219 
L 420.880299 162.199216 
L 399.045516 162.199216 
z
" clip-path="url(#p0ab7573e56)" style="fill: #6895dd"/>
   </g>
   <g id="patch_54">
    <path d="M 423.306386 162.199219 
L 445.141168 162.199219 
L 445.141168 162.199211 
L 423.306386 162.199211 
z
" clip-path="url(#p0ab7573e56)" style="fill: #6895dd"/>
   </g>
   <g id="patch_55">
    <path d="M 447.567255 162.205809 
L 469.402038 162.205809 
L 469.402038 162.205809 
L 447.567255 162.205809 
z
" clip-path="url(#p0ab7573e56)" style="fill: #6895dd"/>
   </g>
   <g id="patch_56">
    <path d="M 471.828125 162.199219 
L 493.662908 162.199219 
L 493.662908 162.199219 
L 471.828125 162.199219 
z
" clip-path="url(#p0ab7573e56)" style="fill: #6895dd"/>
   </g>
   <g id="patch_57">
    <path d="M 59.393342 162.199214 
L 81.228125 162.199214 
L 81.228125 162.199205 
L 59.393342 162.199205 
z
" clip-path="url(#p0ab7573e56)" style="fill: #74c6f2"/>
   </g>
   <g id="patch_58">
    <path d="M 83.654212 162.199215 
L 105.488995 162.199215 
L 105.488995 162.199211 
L 83.654212 162.199211 
z
" clip-path="url(#p0ab7573e56)" style="fill: #74c6f2"/>
   </g>
   <g id="patch_59">
    <path d="M 107.915082 162.199212 
L 129.749864 162.199212 
L 129.749864 162.199197 
L 107.915082 162.199197 
z
" clip-path="url(#p0ab7573e56)" style="fill: #74c6f2"/>
   </g>
   <g id="patch_60">
    <path d="M 132.175951 162.199217 
L 154.010734 162.199217 
L 154.010734 162.199215 
L 132.175951 162.199215 
z
" clip-path="url(#p0ab7573e56)" style="fill: #74c6f2"/>
   </g>
   <g id="patch_61">
    <path d="M 156.436821 162.204973 
L 178.271603 162.204973 
L 178.271603 162.204973 
L 156.436821 162.204973 
z
" clip-path="url(#p0ab7573e56)" style="fill: #74c6f2"/>
   </g>
   <g id="patch_62">
    <path d="M 180.69769 162.572893 
L 202.532473 162.572893 
L 202.532473 162.572893 
L 180.69769 162.572893 
z
" clip-path="url(#p0ab7573e56)" style="fill: #74c6f2"/>
   </g>
   <g id="patch_63">
    <path d="M 204.95856 162.199218 
L 226.793342 162.199218 
L 226.793342 162.199217 
L 204.95856 162.199217 
z
" clip-path="url(#p0ab7573e56)" style="fill: #74c6f2"/>
   </g>
   <g id="patch_64">
    <path d="M 229.219429 162.198427 
L 251.054212 162.198427 
L 251.054212 162.186841 
L 229.219429 162.186841 
z
" clip-path="url(#p0ab7573e56)" style="fill: #74c6f2"/>
   </g>
   <g id="patch_65">
    <path d="M 253.480299 162.199215 
L 275.315082 162.199215 
L 275.315082 155.074728 
L 253.480299 155.074728 
z
" clip-path="url(#p0ab7573e56)" style="fill: #74c6f2"/>
   </g>
   <g id="patch_66">
    <path d="M 277.741168 162.199217 
L 299.575951 162.199217 
L 299.575951 162.199213 
L 277.741168 162.199213 
z
" clip-path="url(#p0ab7573e56)" style="fill: #74c6f2"/>
   </g>
   <g id="patch_67">
    <path d="M 302.002038 162.199219 
L 323.836821 162.199219 
L 323.836821 162.199218 
L 302.002038 162.199218 
z
" clip-path="url(#p0ab7573e56)" style="fill: #74c6f2"/>
   </g>
   <g id="patch_68">
    <path d="M 326.262908 162.199219 
L 348.09769 162.199219 
L 348.09769 162.199218 
L 326.262908 162.199218 
z
" clip-path="url(#p0ab7573e56)" style="fill: #74c6f2"/>
   </g>
   <g id="patch_69">
    <path d="M 350.523777 162.199218 
L 372.35856 162.199218 
L 372.35856 162.199217 
L 350.523777 162.199217 
z
" clip-path="url(#p0ab7573e56)" style="fill: #74c6f2"/>
   </g>
   <g id="patch_70">
    <path d="M 374.784647 162.199217 
L 396.619429 162.199217 
L 396.619429 162.199215 
L 374.784647 162.199215 
z
" clip-path="url(#p0ab7573e56)" style="fill: #74c6f2"/>
   </g>
   <g id="patch_71">
    <path d="M 399.045516 162.199216 
L 420.880299 162.199216 
L 420.880299 162.199214 
L 399.045516 162.199214 
z
" clip-path="url(#p0ab7573e56)" style="fill: #74c6f2"/>
   </g>
   <g id="patch_72">
    <path d="M 423.306386 162.199211 
L 445.141168 162.199211 
L 445.141168 162.199204 
L 423.306386 162.199204 
z
" clip-path="url(#p0ab7573e56)" style="fill: #74c6f2"/>
   </g>
   <g id="patch_73">
    <path d="M 447.567255 162.205809 
L 469.402038 162.205809 
L 469.402038 162.205809 
L 447.567255 162.205809 
z
" clip-path="url(#p0ab7573e56)" style="fill: #74c6f2"/>
   </g>
   <g id="patch_74">
    <path d="M 471.828125 162.252422 
L 493.662908 162.252422 
L 493.662908 162.252422 
L 471.828125 162.252422 
z
" clip-path="url(#p0ab7573e56)" style="fill: #74c6f2"/>
   </g>
   <g id="patch_75">
    <path d="M 59.393342 162.199205 
L 81.228125 162.199205 
L 81.228125 160.820295 
L 59.393342 160.820295 
z
" clip-path="url(#p0ab7573e56)" style="fill: #235ebc"/>
   </g>
   <g id="patch_76">
    <path d="M 83.654212 162.199211 
L 105.488995 162.199211 
L 105.488995 160.435428 
L 83.654212 160.435428 
z
" clip-path="url(#p0ab7573e56)" style="fill: #235ebc"/>
   </g>
   <g id="patch_77">
    <path d="M 107.915082 162.199197 
L 129.749864 162.199197 
L 129.749864 159.291689 
L 107.915082 159.291689 
z
" clip-path="url(#p0ab7573e56)" style="fill: #235ebc"/>
   </g>
   <g id="patch_78">
    <path d="M 132.175951 162.199215 
L 154.010734 162.199215 
L 154.010734 162.198829 
L 132.175951 162.198829 
z
" clip-path="url(#p0ab7573e56)" style="fill: #235ebc"/>
   </g>
   <g id="patch_79">
    <path d="M 156.436821 162.199218 
L 178.271603 162.199218 
L 178.271603 162.199217 
L 156.436821 162.199217 
z
" clip-path="url(#p0ab7573e56)" style="fill: #235ebc"/>
   </g>
   <g id="patch_80">
    <path d="M 180.69769 162.199219 
L 202.532473 162.199219 
L 202.532473 162.197636 
L 180.69769 162.197636 
z
" clip-path="url(#p0ab7573e56)" style="fill: #235ebc"/>
   </g>
   <g id="patch_81">
    <path d="M 204.95856 162.199217 
L 226.793342 162.199217 
L 226.793342 162.199211 
L 204.95856 162.199211 
z
" clip-path="url(#p0ab7573e56)" style="fill: #235ebc"/>
   </g>
   <g id="patch_82">
    <path d="M 229.219429 162.186841 
L 251.054212 162.186841 
L 251.054212 121.531373 
L 229.219429 121.531373 
z
" clip-path="url(#p0ab7573e56)" style="fill: #235ebc"/>
   </g>
   <g id="patch_83">
    <path d="M 253.480299 155.074728 
L 275.315082 155.074728 
L 275.315082 154.621597 
L 253.480299 154.621597 
z
" clip-path="url(#p0ab7573e56)" style="fill: #235ebc"/>
   </g>
   <g id="patch_84">
    <path d="M 277.741168 162.199213 
L 299.575951 162.199213 
L 299.575951 161.224962 
L 277.741168 161.224962 
z
" clip-path="url(#p0ab7573e56)" style="fill: #235ebc"/>
   </g>
   <g id="patch_85">
    <path d="M 302.002038 162.199218 
L 323.836821 162.199218 
L 323.836821 162.199218 
L 302.002038 162.199218 
z
" clip-path="url(#p0ab7573e56)" style="fill: #235ebc"/>
   </g>
   <g id="patch_86">
    <path d="M 326.262908 162.199218 
L 348.09769 162.199218 
L 348.09769 162.199218 
L 326.262908 162.199218 
z
" clip-path="url(#p0ab7573e56)" style="fill: #235ebc"/>
   </g>
   <g id="patch_87">
    <path d="M 350.523777 162.199217 
L 372.35856 162.199217 
L 372.35856 162.199214 
L 350.523777 162.199214 
z
" clip-path="url(#p0ab7573e56)" style="fill: #235ebc"/>
   </g>
   <g id="patch_88">
    <path d="M 374.784647 162.199215 
L 396.619429 162.199215 
L 396.619429 162.193075 
L 374.784647 162.193075 
z
" clip-path="url(#p0ab7573e56)" style="fill: #235ebc"/>
   </g>
   <g id="patch_89">
    <path d="M 399.045516 162.199214 
L 420.880299 162.199214 
L 420.880299 162.097647 
L 399.045516 162.097647 
z
" clip-path="url(#p0ab7573e56)" style="fill: #235ebc"/>
   </g>
   <g id="patch_90">
    <path d="M 423.306386 162.199204 
L 445.141168 162.199204 
L 445.141168 143.104805 
L 423.306386 143.104805 
z
" clip-path="url(#p0ab7573e56)" style="fill: #235ebc"/>
   </g>
   <g id="patch_91">
    <path d="M 447.567255 162.199219 
L 469.402038 162.199219 
L 469.402038 162.198285 
L 447.567255 162.198285 
z
" clip-path="url(#p0ab7573e56)" style="fill: #235ebc"/>
   </g>
   <g id="patch_92">
    <path d="M 471.828125 162.252422 
L 493.662908 162.252422 
L 493.662908 162.252422 
L 471.828125 162.252422 
z
" clip-path="url(#p0ab7573e56)" style="fill: #235ebc"/>
   </g>
   <g id="patch_93">
    <path d="M 59.393342 160.820295 
L 81.228125 160.820295 
L 81.228125 96.716319 
L 59.393342 96.716319 
z
" clip-path="url(#p0ab7573e56)" style="fill: #f9d002"/>
   </g>
   <g id="patch_94">
    <path d="M 83.654212 160.435428 
L 105.488995 160.435428 
L 105.488995 57.462617 
L 83.654212 57.462617 
z
" clip-path="url(#p0ab7573e56)" style="fill: #f9d002"/>
   </g>
   <g id="patch_95">
    <path d="M 107.915082 159.291689 
L 129.749864 159.291689 
L 129.749864 136.660216 
L 107.915082 136.660216 
z
" clip-path="url(#p0ab7573e56)" style="fill: #f9d002"/>
   </g>
   <g id="patch_96">
    <path d="M 132.175951 162.198829 
L 154.010734 162.198829 
L 154.010734 156.169065 
L 132.175951 156.169065 
z
" clip-path="url(#p0ab7573e56)" style="fill: #f9d002"/>
   </g>
   <g id="patch_97">
    <path d="M 156.436821 162.199217 
L 178.271603 162.199217 
L 178.271603 162.057428 
L 156.436821 162.057428 
z
" clip-path="url(#p0ab7573e56)" style="fill: #f9d002"/>
   </g>
   <g id="patch_98">
    <path d="M 180.69769 162.197636 
L 202.532473 162.197636 
L 202.532473 152.705905 
L 180.69769 152.705905 
z
" clip-path="url(#p0ab7573e56)" style="fill: #f9d002"/>
   </g>
   <g id="patch_99">
    <path d="M 204.95856 162.199211 
L 226.793342 162.199211 
L 226.793342 126.868673 
L 204.95856 126.868673 
z
" clip-path="url(#p0ab7573e56)" style="fill: #f9d002"/>
   </g>
   <g id="patch_100">
    <path d="M 229.219429 121.531373 
L 251.054212 121.531373 
L 251.054212 76.749564 
L 229.219429 76.749564 
z
" clip-path="url(#p0ab7573e56)" style="fill: #f9d002"/>
   </g>
   <g id="patch_101">
    <path d="M 253.480299 154.621597 
L 275.315082 154.621597 
L 275.315082 119.903722 
L 253.480299 119.903722 
z
" clip-path="url(#p0ab7573e56)" style="fill: #f9d002"/>
   </g>
   <g id="patch_102">
    <path d="M 277.741168 161.224962 
L 299.575951 161.224962 
L 299.575951 147.761536 
L 277.741168 147.761536 
z
" clip-path="url(#p0ab7573e56)" style="fill: #f9d002"/>
   </g>
   <g id="patch_103">
    <path d="M 302.002038 162.199218 
L 323.836821 162.199218 
L 323.836821 160.843628 
L 302.002038 160.843628 
z
" clip-path="url(#p0ab7573e56)" style="fill: #f9d002"/>
   </g>
   <g id="patch_104">
    <path d="M 326.262908 162.199218 
L 348.09769 162.199218 
L 348.09769 162.06089 
L 326.262908 162.06089 
z
" clip-path="url(#p0ab7573e56)" style="fill: #f9d002"/>
   </g>
   <g id="patch_105">
    <path d="M 350.523777 162.199214 
L 372.35856 162.199214 
L 372.35856 161.549816 
L 350.523777 161.549816 
z
" clip-path="url(#p0ab7573e56)" style="fill: #f9d002"/>
   </g>
   <g id="patch_106">
    <path d="M 374.784647 162.193075 
L 396.619429 162.193075 
L 396.619429 159.974243 
L 374.784647 159.974243 
z
" clip-path="url(#p0ab7573e56)" style="fill: #f9d002"/>
   </g>
   <g id="patch_107">
    <path d="M 399.045516 162.097647 
L 420.880299 162.097647 
L 420.880299 156.572108 
L 399.045516 156.572108 
z
" clip-path="url(#p0ab7573e56)" style="fill: #f9d002"/>
   </g>
   <g id="patch_108">
    <path d="M 423.306386 143.104805 
L 445.141168 143.104805 
L 445.141168 112.157805 
L 423.306386 112.157805 
z
" clip-path="url(#p0ab7573e56)" style="fill: #f9d002"/>
   </g>
   <g id="patch_109">
    <path d="M 447.567255 162.198285 
L 469.402038 162.198285 
L 469.402038 162.102501 
L 447.567255 162.102501 
z
" clip-path="url(#p0ab7573e56)" style="fill: #f9d002"/>
   </g>
   <g id="patch_110">
    <path d="M 471.828125 162.199219 
L 493.662908 162.199219 
L 493.662908 161.135221 
L 471.828125 161.135221 
z
" clip-path="url(#p0ab7573e56)" style="fill: #f9d002"/>
   </g>
   <g id="patch_111">
    <path d="M 59.393342 96.716319 
L 81.228125 96.716319 
L 81.228125 93.524594 
L 59.393342 93.524594 
z
" clip-path="url(#p0ab7573e56)" style="fill: #08ad97"/>
   </g>
   <g id="patch_112">
    <path d="M 83.654212 57.462617 
L 105.488995 57.462617 
L 105.488995 54.79517 
L 83.654212 54.79517 
z
" clip-path="url(#p0ab7573e56)" style="fill: #08ad97"/>
   </g>
   <g id="patch_113">
    <path d="M 107.915082 136.660216 
L 129.749864 136.660216 
L 129.749864 134.984912 
L 107.915082 134.984912 
z
" clip-path="url(#p0ab7573e56)" style="fill: #08ad97"/>
   </g>
   <g id="patch_114">
    <path d="M 132.175951 156.169065 
L 154.010734 156.169065 
L 154.010734 154.175145 
L 132.175951 154.175145 
z
" clip-path="url(#p0ab7573e56)" style="fill: #08ad97"/>
   </g>
   <g id="patch_115">
    <path d="M 156.436821 162.204973 
L 178.271603 162.204973 
L 178.271603 162.204973 
L 156.436821 162.204973 
z
" clip-path="url(#p0ab7573e56)" style="fill: #08ad97"/>
   </g>
   <g id="patch_116">
    <path d="M 180.69769 152.705905 
L 202.532473 152.705905 
L 202.532473 145.72678 
L 180.69769 145.72678 
z
" clip-path="url(#p0ab7573e56)" style="fill: #08ad97"/>
   </g>
   <g id="patch_117">
    <path d="M 204.95856 126.868673 
L 226.793342 126.868673 
L 226.793342 125.719089 
L 204.95856 125.719089 
z
" clip-path="url(#p0ab7573e56)" style="fill: #08ad97"/>
   </g>
   <g id="patch_118">
    <path d="M 229.219429 76.749564 
L 251.054212 76.749564 
L 251.054212 64.60355 
L 229.219429 64.60355 
z
" clip-path="url(#p0ab7573e56)" style="fill: #08ad97"/>
   </g>
   <g id="patch_119">
    <path d="M 253.480299 119.903722 
L 275.315082 119.903722 
L 275.315082 118.217805 
L 253.480299 118.217805 
z
" clip-path="url(#p0ab7573e56)" style="fill: #08ad97"/>
   </g>
   <g id="patch_120">
    <path d="M 277.741168 147.761536 
L 299.575951 147.761536 
L 299.575951 147.743717 
L 277.741168 147.743717 
z
" clip-path="url(#p0ab7573e56)" style="fill: #08ad97"/>
   </g>
   <g id="patch_121">
    <path d="M 302.002038 160.843628 
L 323.836821 160.843628 
L 323.836821 157.715902 
L 302.002038 157.715902 
z
" clip-path="url(#p0ab7573e56)" style="fill: #08ad97"/>
   </g>
   <g id="patch_122">
    <path d="M 326.262908 162.202666 
L 348.09769 162.202666 
L 348.09769 162.202666 
L 326.262908 162.202666 
z
" clip-path="url(#p0ab7573e56)" style="fill: #08ad97"/>
   </g>
   <g id="patch_123">
    <path d="M 350.523777 161.549816 
L 372.35856 161.549816 
L 372.35856 161.502701 
L 350.523777 161.502701 
z
" clip-path="url(#p0ab7573e56)" style="fill: #08ad97"/>
   </g>
   <g id="patch_124">
    <path d="M 374.784647 162.300998 
L 396.619429 162.300998 
L 396.619429 162.300998 
L 374.784647 162.300998 
z
" clip-path="url(#p0ab7573e56)" style="fill: #08ad97"/>
   </g>
   <g id="patch_125">
    <path d="M 399.045516 156.572108 
L 420.880299 156.572108 
L 420.880299 156.102661 
L 399.045516 156.102661 
z
" clip-path="url(#p0ab7573e56)" style="fill: #08ad97"/>
   </g>
   <g id="patch_126">
    <path d="M 423.306386 112.157805 
L 445.141168 112.157805 
L 445.141168 109.919764 
L 423.306386 109.919764 
z
" clip-path="url(#p0ab7573e56)" style="fill: #08ad97"/>
   </g>
   <g id="patch_127">
    <path d="M 447.567255 162.205809 
L 469.402038 162.205809 
L 469.402038 162.205809 
L 447.567255 162.205809 
z
" clip-path="url(#p0ab7573e56)" style="fill: #08ad97"/>
   </g>
   <g id="patch_128">
    <path d="M 471.828125 162.252422 
L 493.662908 162.252422 
L 493.662908 162.252422 
L 471.828125 162.252422 
z
" clip-path="url(#p0ab7573e56)" style="fill: #08ad97"/>
   </g>
   <g id="patch_129">
    <path d="M 59.393342 93.524594 
L 81.228125 93.524594 
L 81.228125 93.455992 
L 59.393342 93.455992 
z
" clip-path="url(#p0ab7573e56)" style="fill: #b20101"/>
   </g>
   <g id="patch_130">
    <path d="M 83.654212 54.79517 
L 105.488995 54.79517 
L 105.488995 52.926279 
L 83.654212 52.926279 
z
" clip-path="url(#p0ab7573e56)" style="fill: #b20101"/>
   </g>
   <g id="patch_131">
    <path d="M 107.915082 134.984912 
L 129.749864 134.984912 
L 129.749864 134.596432 
L 107.915082 134.596432 
z
" clip-path="url(#p0ab7573e56)" style="fill: #b20101"/>
   </g>
   <g id="patch_132">
    <path d="M 132.175951 154.175145 
L 154.010734 154.175145 
L 154.010734 153.258343 
L 132.175951 153.258343 
z
" clip-path="url(#p0ab7573e56)" style="fill: #b20101"/>
   </g>
   <g id="patch_133">
    <path d="M 156.436821 162.057428 
L 178.271603 162.057428 
L 178.271603 161.496886 
L 156.436821 161.496886 
z
" clip-path="url(#p0ab7573e56)" style="fill: #b20101"/>
   </g>
   <g id="patch_134">
    <path d="M 180.69769 145.72678 
L 202.532473 145.72678 
L 202.532473 145.726574 
L 180.69769 145.726574 
z
" clip-path="url(#p0ab7573e56)" style="fill: #b20101"/>
   </g>
   <g id="patch_135">
    <path d="M 204.95856 125.719089 
L 226.793342 125.719089 
L 226.793342 125.718884 
L 204.95856 125.718884 
z
" clip-path="url(#p0ab7573e56)" style="fill: #b20101"/>
   </g>
   <g id="patch_136">
    <path d="M 229.219429 64.60355 
L 251.054212 64.60355 
L 251.054212 62.46737 
L 229.219429 62.46737 
z
" clip-path="url(#p0ab7573e56)" style="fill: #b20101"/>
   </g>
   <g id="patch_137">
    <path d="M 253.480299 118.217805 
L 275.315082 118.217805 
L 275.315082 116.061491 
L 253.480299 116.061491 
z
" clip-path="url(#p0ab7573e56)" style="fill: #b20101"/>
   </g>
   <g id="patch_138">
    <path d="M 277.741168 147.743717 
L 299.575951 147.743717 
L 299.575951 147.52499 
L 277.741168 147.52499 
z
" clip-path="url(#p0ab7573e56)" style="fill: #b20101"/>
   </g>
   <g id="patch_139">
    <path d="M 302.002038 157.715902 
L 323.836821 157.715902 
L 323.836821 157.430358 
L 302.002038 157.430358 
z
" clip-path="url(#p0ab7573e56)" style="fill: #b20101"/>
   </g>
   <g id="patch_140">
    <path d="M 326.262908 162.06089 
L 348.09769 162.06089 
L 348.09769 161.976942 
L 326.262908 161.976942 
z
" clip-path="url(#p0ab7573e56)" style="fill: #b20101"/>
   </g>
   <g id="patch_141">
    <path d="M 350.523777 161.502701 
L 372.35856 161.502701 
L 372.35856 160.455147 
L 350.523777 160.455147 
z
" clip-path="url(#p0ab7573e56)" style="fill: #b20101"/>
   </g>
   <g id="patch_142">
    <path d="M 374.784647 159.974243 
L 396.619429 159.974243 
L 396.619429 159.94024 
L 374.784647 159.94024 
z
" clip-path="url(#p0ab7573e56)" style="fill: #b20101"/>
   </g>
   <g id="patch_143">
    <path d="M 399.045516 156.102661 
L 420.880299 156.102661 
L 420.880299 156.041089 
L 399.045516 156.041089 
z
" clip-path="url(#p0ab7573e56)" style="fill: #b20101"/>
   </g>
   <g id="patch_144">
    <path d="M 423.306386 109.919764 
L 445.141168 109.919764 
L 445.141168 108.952314 
L 423.306386 108.952314 
z
" clip-path="url(#p0ab7573e56)" style="fill: #b20101"/>
   </g>
   <g id="patch_145">
    <path d="M 447.567255 162.102501 
L 469.402038 162.102501 
L 469.402038 162.10067 
L 447.567255 162.10067 
z
" clip-path="url(#p0ab7573e56)" style="fill: #b20101"/>
   </g>
   <g id="patch_146">
    <path d="M 471.828125 161.135221 
L 493.662908 161.135221 
L 493.662908 161.109724 
L 471.828125 161.109724 
z
" clip-path="url(#p0ab7573e56)" style="fill: #b20101"/>
   </g>
   <g id="patch_147">
    <path d="M 59.393342 165.195245 
L 81.228125 165.195245 
L 81.228125 165.195245 
L 59.393342 165.195245 
z
" clip-path="url(#p0ab7573e56)" style="fill: #707070"/>
   </g>
   <g id="patch_148">
    <path d="M 83.654212 165.902724 
L 105.488995 165.902724 
L 105.488995 165.902724 
L 83.654212 165.902724 
z
" clip-path="url(#p0ab7573e56)" style="fill: #707070"/>
   </g>
   <g id="patch_149">
    <path d="M 107.915082 134.596432 
L 129.749864 134.596432 
L 129.749864 134.596431 
L 107.915082 134.596431 
z
" clip-path="url(#p0ab7573e56)" style="fill: #707070"/>
   </g>
   <g id="patch_150">
    <path d="M 132.175951 162.37884 
L 154.010734 162.37884 
L 154.010734 162.37884 
L 132.175951 162.37884 
z
" clip-path="url(#p0ab7573e56)" style="fill: #707070"/>
   </g>
   <g id="patch_151">
    <path d="M 156.436821 162.204973 
L 178.271603 162.204973 
L 178.271603 162.204973 
L 156.436821 162.204973 
z
" clip-path="url(#p0ab7573e56)" style="fill: #707070"/>
   </g>
   <g id="patch_152">
    <path d="M 180.69769 162.572893 
L 202.532473 162.572893 
L 202.532473 162.572893 
L 180.69769 162.572893 
z
" clip-path="url(#p0ab7573e56)" style="fill: #707070"/>
   </g>
   <g id="patch_153">
    <path d="M 204.95856 125.718884 
L 226.793342 125.718884 
L 226.793342 125.718884 
L 204.95856 125.718884 
z
" clip-path="url(#p0ab7573e56)" style="fill: #707070"/>
   </g>
   <g id="patch_154">
    <path d="M 229.219429 62.46737 
L 251.054212 62.46737 
L 251.054212 62.46737 
L 229.219429 62.46737 
z
" clip-path="url(#p0ab7573e56)" style="fill: #707070"/>
   </g>
   <g id="patch_155">
    <path d="M 253.480299 163.280378 
L 275.315082 163.280378 
L 275.315082 163.280378 
L 253.480299 163.280378 
z
" clip-path="url(#p0ab7573e56)" style="fill: #707070"/>
   </g>
   <g id="patch_156">
    <path d="M 277.741168 147.52499 
L 299.575951 147.52499 
L 299.575951 147.524989 
L 277.741168 147.524989 
z
" clip-path="url(#p0ab7573e56)" style="fill: #707070"/>
   </g>
   <g id="patch_157">
    <path d="M 302.002038 162.24701 
L 323.836821 162.24701 
L 323.836821 162.24701 
L 302.002038 162.24701 
z
" clip-path="url(#p0ab7573e56)" style="fill: #707070"/>
   </g>
   <g id="patch_158">
    <path d="M 326.262908 162.202666 
L 348.09769 162.202666 
L 348.09769 162.202666 
L 326.262908 162.202666 
z
" clip-path="url(#p0ab7573e56)" style="fill: #707070"/>
   </g>
   <g id="patch_159">
    <path d="M 350.523777 162.215738 
L 372.35856 162.215738 
L 372.35856 162.215738 
L 350.523777 162.215738 
z
" clip-path="url(#p0ab7573e56)" style="fill: #707070"/>
   </g>
   <g id="patch_160">
    <path d="M 374.784647 162.300998 
L 396.619429 162.300998 
L 396.619429 162.300998 
L 374.784647 162.300998 
z
" clip-path="url(#p0ab7573e56)" style="fill: #707070"/>
   </g>
   <g id="patch_161">
    <path d="M 399.045516 156.041089 
L 420.880299 156.041089 
L 420.880299 156.041086 
L 399.045516 156.041086 
z
" clip-path="url(#p0ab7573e56)" style="fill: #707070"/>
   </g>
   <g id="patch_162">
    <path d="M 423.306386 108.952314 
L 445.141168 108.952314 
L 445.141168 108.952314 
L 423.306386 108.952314 
z
" clip-path="url(#p0ab7573e56)" style="fill: #707070"/>
   </g>
   <g id="patch_163">
    <path d="M 447.567255 162.205809 
L 469.402038 162.205809 
L 469.402038 162.205809 
L 447.567255 162.205809 
z
" clip-path="url(#p0ab7573e56)" style="fill: #707070"/>
   </g>
   <g id="patch_164">
    <path d="M 471.828125 162.252422 
L 493.662908 162.252422 
L 493.662908 162.252422 
L 471.828125 162.252422 
z
" clip-path="url(#p0ab7573e56)" style="fill: #707070"/>
   </g>
   <g id="patch_165">
    <path d="M 59.393342 165.195245 
L 81.228125 165.195245 
L 81.228125 165.195245 
L 59.393342 165.195245 
z
" clip-path="url(#p0ab7573e56)" style="fill: #808080"/>
   </g>
   <g id="patch_166">
    <path d="M 83.654212 52.926279 
L 105.488995 52.926279 
L 105.488995 52.926247 
L 83.654212 52.926247 
z
" clip-path="url(#p0ab7573e56)" style="fill: #808080"/>
   </g>
   <g id="patch_167">
    <path d="M 107.915082 134.596431 
L 129.749864 134.596431 
L 129.749864 134.59635 
L 107.915082 134.59635 
z
" clip-path="url(#p0ab7573e56)" style="fill: #808080"/>
   </g>
   <g id="patch_168">
    <path d="M 132.175951 162.37884 
L 154.010734 162.37884 
L 154.010734 162.37884 
L 132.175951 162.37884 
z
" clip-path="url(#p0ab7573e56)" style="fill: #808080"/>
   </g>
   <g id="patch_169">
    <path d="M 156.436821 162.204973 
L 178.271603 162.204973 
L 178.271603 162.204973 
L 156.436821 162.204973 
z
" clip-path="url(#p0ab7573e56)" style="fill: #808080"/>
   </g>
   <g id="patch_170">
    <path d="M 180.69769 162.572893 
L 202.532473 162.572893 
L 202.532473 162.572893 
L 180.69769 162.572893 
z
" clip-path="url(#p0ab7573e56)" style="fill: #808080"/>
   </g>
   <g id="patch_171">
    <path d="M 204.95856 163.603855 
L 226.793342 163.603855 
L 226.793342 163.603855 
L 204.95856 163.603855 
z
" clip-path="url(#p0ab7573e56)" style="fill: #808080"/>
   </g>
   <g id="patch_172">
    <path d="M 229.219429 62.46737 
L 251.054212 62.46737 
L 251.054212 62.466455 
L 229.219429 62.466455 
z
" clip-path="url(#p0ab7573e56)" style="fill: #808080"/>
   </g>
   <g id="patch_173">
    <path d="M 253.480299 163.280378 
L 275.315082 163.280378 
L 275.315082 163.280378 
L 253.480299 163.280378 
z
" clip-path="url(#p0ab7573e56)" style="fill: #808080"/>
   </g>
   <g id="patch_174">
    <path d="M 277.741168 147.524989 
L 299.575951 147.524989 
L 299.575951 147.524926 
L 277.741168 147.524926 
z
" clip-path="url(#p0ab7573e56)" style="fill: #808080"/>
   </g>
   <g id="patch_175">
    <path d="M 302.002038 162.24701 
L 323.836821 162.24701 
L 323.836821 162.24701 
L 302.002038 162.24701 
z
" clip-path="url(#p0ab7573e56)" style="fill: #808080"/>
   </g>
   <g id="patch_176">
    <path d="M 326.262908 162.202666 
L 348.09769 162.202666 
L 348.09769 162.202666 
L 326.262908 162.202666 
z
" clip-path="url(#p0ab7573e56)" style="fill: #808080"/>
   </g>
   <g id="patch_177">
    <path d="M 350.523777 162.215738 
L 372.35856 162.215738 
L 372.35856 162.215738 
L 350.523777 162.215738 
z
" clip-path="url(#p0ab7573e56)" style="fill: #808080"/>
   </g>
   <g id="patch_178">
    <path d="M 374.784647 162.300998 
L 396.619429 162.300998 
L 396.619429 162.300998 
L 374.784647 162.300998 
z
" clip-path="url(#p0ab7573e56)" style="fill: #808080"/>
   </g>
   <g id="patch_179">
    <path d="M 399.045516 156.041086 
L 420.880299 156.041086 
L 420.880299 156.040613 
L 399.045516 156.040613 
z
" clip-path="url(#p0ab7573e56)" style="fill: #808080"/>
   </g>
   <g id="patch_180">
    <path d="M 423.306386 108.952314 
L 445.141168 108.952314 
L 445.141168 108.951504 
L 423.306386 108.951504 
z
" clip-path="url(#p0ab7573e56)" style="fill: #808080"/>
   </g>
   <g id="patch_181">
    <path d="M 447.567255 162.205809 
L 469.402038 162.205809 
L 469.402038 162.205809 
L 447.567255 162.205809 
z
" clip-path="url(#p0ab7573e56)" style="fill: #808080"/>
   </g>
   <g id="patch_182">
    <path d="M 471.828125 162.252422 
L 493.662908 162.252422 
L 493.662908 162.252422 
L 471.828125 162.252422 
z
" clip-path="url(#p0ab7573e56)" style="fill: #808080"/>
   </g>
   <g id="patch_183">
    <path d="M 59.393342 165.195245 
L 81.228125 165.195245 
L 81.228125 165.195245 
L 59.393342 165.195245 
z
" clip-path="url(#p0ab7573e56)" style="fill: #606060"/>
   </g>
   <g id="patch_184">
    <path d="M 83.654212 52.926247 
L 105.488995 52.926247 
L 105.488995 52.920743 
L 83.654212 52.920743 
z
" clip-path="url(#p0ab7573e56)" style="fill: #606060"/>
   </g>
   <g id="patch_185">
    <path d="M 107.915082 163.036574 
L 129.749864 163.036574 
L 129.749864 163.036574 
L 107.915082 163.036574 
z
" clip-path="url(#p0ab7573e56)" style="fill: #606060"/>
   </g>
   <g id="patch_186">
    <path d="M 132.175951 162.37884 
L 154.010734 162.37884 
L 154.010734 162.37884 
L 132.175951 162.37884 
z
" clip-path="url(#p0ab7573e56)" style="fill: #606060"/>
   </g>
   <g id="patch_187">
    <path d="M 156.436821 162.204973 
L 178.271603 162.204973 
L 178.271603 162.204973 
L 156.436821 162.204973 
z
" clip-path="url(#p0ab7573e56)" style="fill: #606060"/>
   </g>
   <g id="patch_188">
    <path d="M 180.69769 162.572893 
L 202.532473 162.572893 
L 202.532473 162.572893 
L 180.69769 162.572893 
z
" clip-path="url(#p0ab7573e56)" style="fill: #606060"/>
   </g>
   <g id="patch_189">
    <path d="M 204.95856 163.603855 
L 226.793342 163.603855 
L 226.793342 163.603855 
L 204.95856 163.603855 
z
" clip-path="url(#p0ab7573e56)" style="fill: #606060"/>
   </g>
   <g id="patch_190">
    <path d="M 229.219429 62.466455 
L 251.054212 62.466455 
L 251.054212 62.319747 
L 229.219429 62.319747 
z
" clip-path="url(#p0ab7573e56)" style="fill: #606060"/>
   </g>
   <g id="patch_191">
    <path d="M 253.480299 116.061491 
L 275.315082 116.061491 
L 275.315082 116.023837 
L 253.480299 116.023837 
z
" clip-path="url(#p0ab7573e56)" style="fill: #606060"/>
   </g>
   <g id="patch_192">
    <path d="M 277.741168 162.803484 
L 299.575951 162.803484 
L 299.575951 162.803484 
L 277.741168 162.803484 
z
" clip-path="url(#p0ab7573e56)" style="fill: #606060"/>
   </g>
   <g id="patch_193">
    <path d="M 302.002038 162.24701 
L 323.836821 162.24701 
L 323.836821 162.24701 
L 302.002038 162.24701 
z
" clip-path="url(#p0ab7573e56)" style="fill: #606060"/>
   </g>
   <g id="patch_194">
    <path d="M 326.262908 162.202666 
L 348.09769 162.202666 
L 348.09769 162.202666 
L 326.262908 162.202666 
z
" clip-path="url(#p0ab7573e56)" style="fill: #606060"/>
   </g>
   <g id="patch_195">
    <path d="M 350.523777 162.215738 
L 372.35856 162.215738 
L 372.35856 162.215738 
L 350.523777 162.215738 
z
" clip-path="url(#p0ab7573e56)" style="fill: #606060"/>
   </g>
   <g id="patch_196">
    <path d="M 374.784647 162.300998 
L 396.619429 162.300998 
L 396.619429 162.300998 
L 374.784647 162.300998 
z
" clip-path="url(#p0ab7573e56)" style="fill: #606060"/>
   </g>
   <g id="patch_197">
    <path d="M 399.045516 162.452258 
L 420.880299 162.452258 
L 420.880299 162.452258 
L 399.045516 162.452258 
z
" clip-path="url(#p0ab7573e56)" style="fill: #606060"/>
   </g>
   <g id="patch_198">
    <path d="M 423.306386 108.951504 
L 445.141168 108.951504 
L 445.141168 108.931629 
L 423.306386 108.931629 
z
" clip-path="url(#p0ab7573e56)" style="fill: #606060"/>
   </g>
   <g id="patch_199">
    <path d="M 447.567255 162.205809 
L 469.402038 162.205809 
L 469.402038 162.205809 
L 447.567255 162.205809 
z
" clip-path="url(#p0ab7573e56)" style="fill: #606060"/>
   </g>
   <g id="patch_200">
    <path d="M 471.828125 162.252422 
L 493.662908 162.252422 
L 493.662908 162.252422 
L 471.828125 162.252422 
z
" clip-path="url(#p0ab7573e56)" style="fill: #606060"/>
   </g>
   <g id="patch_201">
    <path d="M 59.393342 165.195245 
L 81.228125 165.195245 
L 81.228125 165.195245 
L 59.393342 165.195245 
z
" clip-path="url(#p0ab7573e56)" style="fill: #909090"/>
   </g>
   <g id="patch_202">
    <path d="M 83.654212 52.920743 
L 105.488995 52.920743 
L 105.488995 52.92047 
L 83.654212 52.92047 
z
" clip-path="url(#p0ab7573e56)" style="fill: #909090"/>
   </g>
   <g id="patch_203">
    <path d="M 107.915082 134.59635 
L 129.749864 134.59635 
L 129.749864 134.595106 
L 107.915082 134.595106 
z
" clip-path="url(#p0ab7573e56)" style="fill: #909090"/>
   </g>
   <g id="patch_204">
    <path d="M 132.175951 153.258343 
L 154.010734 153.258343 
L 154.010734 153.258053 
L 132.175951 153.258053 
z
" clip-path="url(#p0ab7573e56)" style="fill: #909090"/>
   </g>
   <g id="patch_205">
    <path d="M 156.436821 162.204973 
L 178.271603 162.204973 
L 178.271603 162.204973 
L 156.436821 162.204973 
z
" clip-path="url(#p0ab7573e56)" style="fill: #909090"/>
   </g>
   <g id="patch_206">
    <path d="M 180.69769 162.572893 
L 202.532473 162.572893 
L 202.532473 162.572893 
L 180.69769 162.572893 
z
" clip-path="url(#p0ab7573e56)" style="fill: #909090"/>
   </g>
   <g id="patch_207">
    <path d="M 204.95856 125.718884 
L 226.793342 125.718884 
L 226.793342 125.71837 
L 204.95856 125.71837 
z
" clip-path="url(#p0ab7573e56)" style="fill: #909090"/>
   </g>
   <g id="patch_208">
    <path d="M 229.219429 62.319747 
L 251.054212 62.319747 
L 251.054212 62.316478 
L 229.219429 62.316478 
z
" clip-path="url(#p0ab7573e56)" style="fill: #909090"/>
   </g>
   <g id="patch_209">
    <path d="M 253.480299 116.023837 
L 275.315082 116.023837 
L 275.315082 116.022876 
L 253.480299 116.022876 
z
" clip-path="url(#p0ab7573e56)" style="fill: #909090"/>
   </g>
   <g id="patch_210">
    <path d="M 277.741168 147.524926 
L 299.575951 147.524926 
L 299.575951 147.52445 
L 277.741168 147.52445 
z
" clip-path="url(#p0ab7573e56)" style="fill: #909090"/>
   </g>
   <g id="patch_211">
    <path d="M 302.002038 157.430358 
L 323.836821 157.430358 
L 323.836821 157.430186 
L 302.002038 157.430186 
z
" clip-path="url(#p0ab7573e56)" style="fill: #909090"/>
   </g>
   <g id="patch_212">
    <path d="M 326.262908 162.202666 
L 348.09769 162.202666 
L 348.09769 162.202666 
L 326.262908 162.202666 
z
" clip-path="url(#p0ab7573e56)" style="fill: #909090"/>
   </g>
   <g id="patch_213">
    <path d="M 350.523777 162.215738 
L 372.35856 162.215738 
L 372.35856 162.215738 
L 350.523777 162.215738 
z
" clip-path="url(#p0ab7573e56)" style="fill: #909090"/>
   </g>
   <g id="patch_214">
    <path d="M 374.784647 159.94024 
L 396.619429 159.94024 
L 396.619429 159.939432 
L 374.784647 159.939432 
z
" clip-path="url(#p0ab7573e56)" style="fill: #909090"/>
   </g>
   <g id="patch_215">
    <path d="M 399.045516 156.040613 
L 420.880299 156.040613 
L 420.880299 156.030882 
L 399.045516 156.030882 
z
" clip-path="url(#p0ab7573e56)" style="fill: #909090"/>
   </g>
   <g id="patch_216">
    <path d="M 423.306386 108.931629 
L 445.141168 108.931629 
L 445.141168 108.930646 
L 423.306386 108.930646 
z
" clip-path="url(#p0ab7573e56)" style="fill: #909090"/>
   </g>
   <g id="patch_217">
    <path d="M 447.567255 162.205809 
L 469.402038 162.205809 
L 469.402038 162.205809 
L 447.567255 162.205809 
z
" clip-path="url(#p0ab7573e56)" style="fill: #909090"/>
   </g>
   <g id="patch_218">
    <path d="M 471.828125 162.252422 
L 493.662908 162.252422 
L 493.662908 162.252422 
L 471.828125 162.252422 
z
" clip-path="url(#p0ab7573e56)" style="fill: #909090"/>
   </g>
   <g id="patch_219">
    <path d="M 59.393342 93.455992 
L 81.228125 93.455992 
L 81.228125 93.455991 
L 59.393342 93.455991 
z
" clip-path="url(#p0ab7573e56)" style="fill: #9e5a01"/>
   </g>
   <g id="patch_220">
    <path d="M 83.654212 52.92047 
L 105.488995 52.92047 
L 105.488995 52.92047 
L 83.654212 52.92047 
z
" clip-path="url(#p0ab7573e56)" style="fill: #9e5a01"/>
   </g>
   <g id="patch_221">
    <path d="M 107.915082 134.595106 
L 129.749864 134.595106 
L 129.749864 134.595105 
L 107.915082 134.595105 
z
" clip-path="url(#p0ab7573e56)" style="fill: #9e5a01"/>
   </g>
   <g id="patch_222">
    <path d="M 132.175951 162.37884 
L 154.010734 162.37884 
L 154.010734 162.37884 
L 132.175951 162.37884 
z
" clip-path="url(#p0ab7573e56)" style="fill: #9e5a01"/>
   </g>
   <g id="patch_223">
    <path d="M 156.436821 162.204973 
L 178.271603 162.204973 
L 178.271603 162.204973 
L 156.436821 162.204973 
z
" clip-path="url(#p0ab7573e56)" style="fill: #9e5a01"/>
   </g>
   <g id="patch_224">
    <path d="M 180.69769 145.726574 
L 202.532473 145.726574 
L 202.532473 145.726574 
L 180.69769 145.726574 
z
" clip-path="url(#p0ab7573e56)" style="fill: #9e5a01"/>
   </g>
   <g id="patch_225">
    <path d="M 204.95856 163.603855 
L 226.793342 163.603855 
L 226.793342 163.603855 
L 204.95856 163.603855 
z
" clip-path="url(#p0ab7573e56)" style="fill: #9e5a01"/>
   </g>
   <g id="patch_226">
    <path d="M 229.219429 62.316478 
L 251.054212 62.316478 
L 251.054212 62.316477 
L 229.219429 62.316477 
z
" clip-path="url(#p0ab7573e56)" style="fill: #9e5a01"/>
   </g>
   <g id="patch_227">
    <path d="M 253.480299 163.280378 
L 275.315082 163.280378 
L 275.315082 163.280378 
L 253.480299 163.280378 
z
" clip-path="url(#p0ab7573e56)" style="fill: #9e5a01"/>
   </g>
   <g id="patch_228">
    <path d="M 277.741168 147.52445 
L 299.575951 147.52445 
L 299.575951 147.524449 
L 277.741168 147.524449 
z
" clip-path="url(#p0ab7573e56)" style="fill: #9e5a01"/>
   </g>
   <g id="patch_229">
    <path d="M 302.002038 157.430186 
L 323.836821 157.430186 
L 323.836821 157.430185 
L 302.002038 157.430185 
z
" clip-path="url(#p0ab7573e56)" style="fill: #9e5a01"/>
   </g>
   <g id="patch_230">
    <path d="M 326.262908 162.202666 
L 348.09769 162.202666 
L 348.09769 162.202666 
L 326.262908 162.202666 
z
" clip-path="url(#p0ab7573e56)" style="fill: #9e5a01"/>
   </g>
   <g id="patch_231">
    <path d="M 350.523777 162.215738 
L 372.35856 162.215738 
L 372.35856 162.215738 
L 350.523777 162.215738 
z
" clip-path="url(#p0ab7573e56)" style="fill: #9e5a01"/>
   </g>
   <g id="patch_232">
    <path d="M 374.784647 162.300998 
L 396.619429 162.300998 
L 396.619429 162.300998 
L 374.784647 162.300998 
z
" clip-path="url(#p0ab7573e56)" style="fill: #9e5a01"/>
   </g>
   <g id="patch_233">
    <path d="M 399.045516 162.452258 
L 420.880299 162.452258 
L 420.880299 162.452258 
L 399.045516 162.452258 
z
" clip-path="url(#p0ab7573e56)" style="fill: #9e5a01"/>
   </g>
   <g id="patch_234">
    <path d="M 423.306386 108.930646 
L 445.141168 108.930646 
L 445.141168 108.930646 
L 423.306386 108.930646 
z
" clip-path="url(#p0ab7573e56)" style="fill: #9e5a01"/>
   </g>
   <g id="patch_235">
    <path d="M 447.567255 162.205809 
L 469.402038 162.205809 
L 469.402038 162.205809 
L 447.567255 162.205809 
z
" clip-path="url(#p0ab7573e56)" style="fill: #9e5a01"/>
   </g>
   <g id="patch_236">
    <path d="M 471.828125 162.252422 
L 493.662908 162.252422 
L 493.662908 162.252422 
L 471.828125 162.252422 
z
" clip-path="url(#p0ab7573e56)" style="fill: #9e5a01"/>
   </g>
   <g id="patch_237">
    <path d="M 59.393342 165.195245 
L 81.228125 165.195245 
L 81.228125 165.195245 
L 59.393342 165.195245 
z
" clip-path="url(#p0ab7573e56)" style="fill: #70af1d"/>
   </g>
   <g id="patch_238">
    <path d="M 83.654212 165.902724 
L 105.488995 165.902724 
L 105.488995 165.902724 
L 83.654212 165.902724 
z
" clip-path="url(#p0ab7573e56)" style="fill: #70af1d"/>
   </g>
   <g id="patch_239">
    <path d="M 107.915082 163.036574 
L 129.749864 163.036574 
L 129.749864 163.036574 
L 107.915082 163.036574 
z
" clip-path="url(#p0ab7573e56)" style="fill: #70af1d"/>
   </g>
   <g id="patch_240">
    <path d="M 132.175951 162.37884 
L 154.010734 162.37884 
L 154.010734 162.37884 
L 132.175951 162.37884 
z
" clip-path="url(#p0ab7573e56)" style="fill: #70af1d"/>
   </g>
   <g id="patch_241">
    <path d="M 156.436821 162.204973 
L 178.271603 162.204973 
L 178.271603 162.204973 
L 156.436821 162.204973 
z
" clip-path="url(#p0ab7573e56)" style="fill: #70af1d"/>
   </g>
   <g id="patch_242">
    <path d="M 180.69769 162.572893 
L 202.532473 162.572893 
L 202.532473 162.572893 
L 180.69769 162.572893 
z
" clip-path="url(#p0ab7573e56)" style="fill: #70af1d"/>
   </g>
   <g id="patch_243">
    <path d="M 204.95856 163.603855 
L 226.793342 163.603855 
L 226.793342 163.603855 
L 204.95856 163.603855 
z
" clip-path="url(#p0ab7573e56)" style="fill: #70af1d"/>
   </g>
   <g id="patch_244">
    <path d="M 229.219429 163.367356 
L 251.054212 163.367356 
L 251.054212 163.367356 
L 229.219429 163.367356 
z
" clip-path="url(#p0ab7573e56)" style="fill: #70af1d"/>
   </g>
   <g id="patch_245">
    <path d="M 253.480299 163.280378 
L 275.315082 163.280378 
L 275.315082 163.280378 
L 253.480299 163.280378 
z
" clip-path="url(#p0ab7573e56)" style="fill: #70af1d"/>
   </g>
   <g id="patch_246">
    <path d="M 277.741168 162.803484 
L 299.575951 162.803484 
L 299.575951 162.803484 
L 277.741168 162.803484 
z
" clip-path="url(#p0ab7573e56)" style="fill: #70af1d"/>
   </g>
   <g id="patch_247">
    <path d="M 302.002038 162.24701 
L 323.836821 162.24701 
L 323.836821 162.24701 
L 302.002038 162.24701 
z
" clip-path="url(#p0ab7573e56)" style="fill: #70af1d"/>
   </g>
   <g id="patch_248">
    <path d="M 326.262908 162.202666 
L 348.09769 162.202666 
L 348.09769 162.202666 
L 326.262908 162.202666 
z
" clip-path="url(#p0ab7573e56)" style="fill: #70af1d"/>
   </g>
   <g id="patch_249">
    <path d="M 350.523777 162.215738 
L 372.35856 162.215738 
L 372.35856 162.215738 
L 350.523777 162.215738 
z
" clip-path="url(#p0ab7573e56)" style="fill: #70af1d"/>
   </g>
   <g id="patch_250">
    <path d="M 374.784647 162.300998 
L 396.619429 162.300998 
L 396.619429 162.300998 
L 374.784647 162.300998 
z
" clip-path="url(#p0ab7573e56)" style="fill: #70af1d"/>
   </g>
   <g id="patch_251">
    <path d="M 399.045516 162.452258 
L 420.880299 162.452258 
L 420.880299 162.452258 
L 399.045516 162.452258 
z
" clip-path="url(#p0ab7573e56)" style="fill: #70af1d"/>
   </g>
   <g id="patch_252">
    <path d="M 423.306386 163.15636 
L 445.141168 163.15636 
L 445.141168 163.15636 
L 423.306386 163.15636 
z
" clip-path="url(#p0ab7573e56)" style="fill: #70af1d"/>
   </g>
   <g id="patch_253">
    <path d="M 447.567255 162.205809 
L 469.402038 162.205809 
L 469.402038 162.205809 
L 447.567255 162.205809 
z
" clip-path="url(#p0ab7573e56)" style="fill: #70af1d"/>
   </g>
   <g id="patch_254">
    <path d="M 471.828125 162.252422 
L 493.662908 162.252422 
L 493.662908 162.252422 
L 471.828125 162.252422 
z
" clip-path="url(#p0ab7573e56)" style="fill: #70af1d"/>
   </g>
   <g id="patch_255">
    <path d="M 59.393342 162.199219 
L 81.228125 162.199219 
L 81.228125 150.598172 
L 59.393342 150.598172 
L 59.393342 162.199219 
z
" clip-path="url(#p0ab7573e56)" style="fill: none; stroke-dasharray: 3.7,1.6; stroke-dashoffset: 0; stroke: #000000; stroke-linejoin: miter"/>
   </g>
   <g id="patch_256">
    <path d="M 83.654212 162.199219 
L 105.488995 162.199219 
L 105.488995 98.189013 
L 83.654212 98.189013 
L 83.654212 162.199219 
z
" clip-path="url(#p0ab7573e56)" style="fill: none; stroke-dasharray: 3.7,1.6; stroke-dashoffset: 0; stroke: #000000; stroke-linejoin: miter"/>
   </g>
   <g id="patch_257">
    <path d="M 107.915082 162.199219 
L 129.749864 162.199219 
L 129.749864 129.78436 
L 107.915082 129.78436 
L 107.915082 162.199219 
z
" clip-path="url(#p0ab7573e56)" style="fill: none; stroke-dasharray: 3.7,1.6; stroke-dashoffset: 0; stroke: #000000; stroke-linejoin: miter"/>
   </g>
   <g id="patch_258">
    <path d="M 132.175951 162.199219 
L 154.010734 162.199219 
L 154.010734 139.26314 
L 132.175951 139.26314 
L 132.175951 162.199219 
z
" clip-path="url(#p0ab7573e56)" style="fill: none; stroke-dasharray: 3.7,1.6; stroke-dashoffset: 0; stroke: #000000; stroke-linejoin: miter"/>
   </g>
   <g id="patch_259">
    <path d="M 156.436821 162.199219 
L 178.271603 162.199219 
L 178.271603 152.226898 
L 156.436821 152.226898 
L 156.436821 162.199219 
z
" clip-path="url(#p0ab7573e56)" style="fill: none; stroke-dasharray: 3.7,1.6; stroke-dashoffset: 0; stroke: #000000; stroke-linejoin: miter"/>
   </g>
   <g id="patch_260">
    <path d="M 180.69769 162.199219 
L 202.532473 162.199219 
L 202.532473 157.642409 
L 180.69769 157.642409 
L 180.69769 162.199219 
z
" clip-path="url(#p0ab7573e56)" style="fill: none; stroke-dasharray: 3.7,1.6; stroke-dashoffset: 0; stroke: #000000; stroke-linejoin: miter"/>
   </g>
   <g id="patch_261">
    <path d="M 204.95856 162.199219 
L 226.793342 162.199219 
L 226.793342 156.478718 
L 204.95856 156.478718 
L 204.95856 162.199219 
z
" clip-path="url(#p0ab7573e56)" style="fill: none; stroke-dasharray: 3.7,1.6; stroke-dashoffset: 0; stroke: #000000; stroke-linejoin: miter"/>
   </g>
   <g id="patch_262">
    <path d="M 229.219429 162.199219 
L 251.054212 162.199219 
L 251.054212 23.02854 
L 229.219429 23.02854 
L 229.219429 162.199219 
z
" clip-path="url(#p0ab7573e56)" style="fill: none; stroke-dasharray: 3.7,1.6; stroke-dashoffset: 0; stroke: #000000; stroke-linejoin: miter"/>
   </g>
   <g id="patch_263">
    <path d="M 253.480299 162.199219 
L 275.315082 162.199219 
L 275.315082 46.673529 
L 253.480299 46.673529 
L 253.480299 162.199219 
z
" clip-path="url(#p0ab7573e56)" style="fill: none; stroke-dasharray: 3.7,1.6; stroke-dashoffset: 0; stroke: #000000; stroke-linejoin: miter"/>
   </g>
   <g id="patch_264">
    <path d="M 277.741168 162.199219 
L 299.575951 162.199219 
L 299.575951 154.032549 
L 277.741168 154.032549 
L 277.741168 162.199219 
z
" clip-path="url(#p0ab7573e56)" style="fill: none; stroke-dasharray: 3.7,1.6; stroke-dashoffset: 0; stroke: #000000; stroke-linejoin: miter"/>
   </g>
   <g id="patch_265">
    <path d="M 302.002038 162.199219 
L 323.836821 162.199219 
L 323.836821 156.60161 
L 302.002038 156.60161 
L 302.002038 162.199219 
z
" clip-path="url(#p0ab7573e56)" style="fill: none; stroke-dasharray: 3.7,1.6; stroke-dashoffset: 0; stroke: #000000; stroke-linejoin: miter"/>
   </g>
   <g id="patch_266">
    <path d="M 326.262908 162.199219 
L 348.09769 162.199219 
L 348.09769 160.766448 
L 326.262908 160.766448 
L 326.262908 162.199219 
z
" clip-path="url(#p0ab7573e56)" style="fill: none; stroke-dasharray: 3.7,1.6; stroke-dashoffset: 0; stroke: #000000; stroke-linejoin: miter"/>
   </g>
   <g id="patch_267">
    <path d="M 350.523777 162.199219 
L 372.35856 162.199219 
L 372.35856 157.645516 
L 350.523777 157.645516 
L 350.523777 162.199219 
z
" clip-path="url(#p0ab7573e56)" style="fill: none; stroke-dasharray: 3.7,1.6; stroke-dashoffset: 0; stroke: #000000; stroke-linejoin: miter"/>
   </g>
   <g id="patch_268">
    <path d="M 374.784647 162.199219 
L 396.619429 162.199219 
L 396.619429 160.041212 
L 374.784647 160.041212 
L 374.784647 162.199219 
z
" clip-path="url(#p0ab7573e56)" style="fill: none; stroke-dasharray: 3.7,1.6; stroke-dashoffset: 0; stroke: #000000; stroke-linejoin: miter"/>
   </g>
   <g id="patch_269">
    <path d="M 399.045516 162.199219 
L 420.880299 162.199219 
L 420.880299 156.283921 
L 399.045516 156.283921 
L 399.045516 162.199219 
z
" clip-path="url(#p0ab7573e56)" style="fill: none; stroke-dasharray: 3.7,1.6; stroke-dashoffset: 0; stroke: #000000; stroke-linejoin: miter"/>
   </g>
   <g id="patch_270">
    <path d="M 423.306386 162.199219 
L 445.141168 162.199219 
L 445.141168 112.192465 
L 423.306386 112.192465 
L 423.306386 162.199219 
z
" clip-path="url(#p0ab7573e56)" style="fill: none; stroke-dasharray: 3.7,1.6; stroke-dashoffset: 0; stroke: #000000; stroke-linejoin: miter"/>
   </g>
   <g id="patch_271">
    <path d="M 447.567255 162.199219 
L 469.402038 162.199219 
L 469.402038 162.10726 
L 447.567255 162.10726 
L 447.567255 162.199219 
z
" clip-path="url(#p0ab7573e56)" style="fill: none; stroke-dasharray: 3.7,1.6; stroke-dashoffset: 0; stroke: #000000; stroke-linejoin: miter"/>
   </g>
   <g id="patch_272">
    <path d="M 471.828125 162.199219 
L 493.662908 162.199219 
L 493.662908 161.162927 
L 471.828125 161.162927 
L 471.828125 162.199219 
z
" clip-path="url(#p0ab7573e56)" style="fill: none; stroke-dasharray: 3.7,1.6; stroke-dashoffset: 0; stroke: #000000; stroke-linejoin: miter"/>
   </g>
   <g id="matplotlib.axis_1">
    <g id="xtick_1">
     <g id="line2d_1">
      <defs>
       <path id="m474fde9225" d="M 0 0 
L 0 3.5 
" style="stroke: #000000; stroke-width: 0.8"/>
      </defs>
      <g>
       <use xlink:href="#m474fde9225" x="70.310734" y="177.319219" style="stroke: #000000; stroke-width: 0.8"/>
      </g>
     </g>
    </g>
    <g id="xtick_2">
     <g id="line2d_2">
      <g>
       <use xlink:href="#m474fde9225" x="94.571603" y="177.319219" style="stroke: #000000; stroke-width: 0.8"/>
      </g>
     </g>
    </g>
    <g id="xtick_3">
     <g id="line2d_3">
      <g>
       <use xlink:href="#m474fde9225" x="118.832473" y="177.319219" style="stroke: #000000; stroke-width: 0.8"/>
      </g>
     </g>
    </g>
    <g id="xtick_4">
     <g id="line2d_4">
      <g>
       <use xlink:href="#m474fde9225" x="143.093342" y="177.319219" style="stroke: #000000; stroke-width: 0.8"/>
      </g>
     </g>
    </g>
    <g id="xtick_5">
     <g id="line2d_5">
      <g>
       <use xlink:href="#m474fde9225" x="167.354212" y="177.319219" style="stroke: #000000; stroke-width: 0.8"/>
      </g>
     </g>
    </g>
    <g id="xtick_6">
     <g id="line2d_6">
      <g>
       <use xlink:href="#m474fde9225" x="191.615082" y="177.319219" style="stroke: #000000; stroke-width: 0.8"/>
      </g>
     </g>
    </g>
    <g id="xtick_7">
     <g id="line2d_7">
      <g>
       <use xlink:href="#m474fde9225" x="215.875951" y="177.319219" style="stroke: #000000; stroke-width: 0.8"/>
      </g>
     </g>
    </g>
    <g id="xtick_8">
     <g id="line2d_8">
      <g>
       <use xlink:href="#m474fde9225" x="240.136821" y="177.319219" style="stroke: #000000; stroke-width: 0.8"/>
      </g>
     </g>
    </g>
    <g id="xtick_9">
     <g id="line2d_9">
      <g>
       <use xlink:href="#m474fde9225" x="264.39769" y="177.319219" style="stroke: #000000; stroke-width: 0.8"/>
      </g>
     </g>
    </g>
    <g id="xtick_10">
     <g id="line2d_10">
      <g>
       <use xlink:href="#m474fde9225" x="288.65856" y="177.319219" style="stroke: #000000; stroke-width: 0.8"/>
      </g>
     </g>
    </g>
    <g id="xtick_11">
     <g id="line2d_11">
      <g>
       <use xlink:href="#m474fde9225" x="312.919429" y="177.319219" style="stroke: #000000; stroke-width: 0.8"/>
      </g>
     </g>
    </g>
    <g id="xtick_12">
     <g id="line2d_12">
      <g>
       <use xlink:href="#m474fde9225" x="337.180299" y="177.319219" style="stroke: #000000; stroke-width: 0.8"/>
      </g>
     </g>
    </g>
    <g id="xtick_13">
     <g id="line2d_13">
      <g>
       <use xlink:href="#m474fde9225" x="361.441168" y="177.319219" style="stroke: #000000; stroke-width: 0.8"/>
      </g>
     </g>
    </g>
    <g id="xtick_14">
     <g id="line2d_14">
      <g>
       <use xlink:href="#m474fde9225" x="385.702038" y="177.319219" style="stroke: #000000; stroke-width: 0.8"/>
      </g>
     </g>
    </g>
    <g id="xtick_15">
     <g id="line2d_15">
      <g>
       <use xlink:href="#m474fde9225" x="409.962908" y="177.319219" style="stroke: #000000; stroke-width: 0.8"/>
      </g>
     </g>
    </g>
    <g id="xtick_16">
     <g id="line2d_16">
      <g>
       <use xlink:href="#m474fde9225" x="434.223777" y="177.319219" style="stroke: #000000; stroke-width: 0.8"/>
      </g>
     </g>
    </g>
    <g id="xtick_17">
     <g id="line2d_17">
      <g>
       <use xlink:href="#m474fde9225" x="458.484647" y="177.319219" style="stroke: #000000; stroke-width: 0.8"/>
      </g>
     </g>
    </g>
    <g id="xtick_18">
     <g id="line2d_18">
      <g>
       <use xlink:href="#m474fde9225" x="482.745516" y="177.319219" style="stroke: #000000; stroke-width: 0.8"/>
      </g>
     </g>
    </g>
   </g>
   <g id="matplotlib.axis_2">
    <g id="ytick_1">
     <g id="line2d_19">
      <path d="M 53.328125 162.199219 
L 499.728125 162.199219 
" clip-path="url(#p0ab7573e56)" style="fill: none; stroke: #b0b0b0; stroke-width: 0.8; stroke-linecap: square"/>
     </g>
     <g id="line2d_20">
      <defs>
       <path id="mfc7ed903c0" d="M 0 0 
L -3.5 0 
" style="stroke: #000000; stroke-width: 0.8"/>
      </defs>
      <g>
       <use xlink:href="#mfc7ed903c0" x="53.328125" y="162.199219" style="stroke: #000000; stroke-width: 0.8"/>
      </g>
     </g>
     <g id="text_1">
      <!-- 0 -->
      <g transform="translate(39.965625 165.998438) scale(0.1 -0.1)">
       <defs>
        <path id="DejaVuSans-30" d="M 2034 4250 
Q 1547 4250 1301 3770 
Q 1056 3291 1056 2328 
Q 1056 1369 1301 889 
Q 1547 409 2034 409 
Q 2525 409 2770 889 
Q 3016 1369 3016 2328 
Q 3016 3291 2770 3770 
Q 2525 4250 2034 4250 
z
M 2034 4750 
Q 2819 4750 3233 4129 
Q 3647 3509 3647 2328 
Q 3647 1150 3233 529 
Q 2819 -91 2034 -91 
Q 1250 -91 836 529 
Q 422 1150 422 2328 
Q 422 3509 836 4129 
Q 1250 4750 2034 4750 
z
" transform="scale(0.015625)"/>
       </defs>
       <use xlink:href="#DejaVuSans-30"/>
      </g>
     </g>
    </g>
    <g id="ytick_2">
     <g id="line2d_21">
      <path d="M 53.328125 124.399219 
L 499.728125 124.399219 
" clip-path="url(#p0ab7573e56)" style="fill: none; stroke: #b0b0b0; stroke-width: 0.8; stroke-linecap: square"/>
     </g>
     <g id="line2d_22">
      <g>
       <use xlink:href="#mfc7ed903c0" x="53.328125" y="124.399219" style="stroke: #000000; stroke-width: 0.8"/>
      </g>
     </g>
     <g id="text_2">
      <!-- 500 -->
      <g transform="translate(27.240625 128.198438) scale(0.1 -0.1)">
       <defs>
        <path id="DejaVuSans-35" d="M 691 4666 
L 3169 4666 
L 3169 4134 
L 1269 4134 
L 1269 2991 
Q 1406 3038 1543 3061 
Q 1681 3084 1819 3084 
Q 2600 3084 3056 2656 
Q 3513 2228 3513 1497 
Q 3513 744 3044 326 
Q 2575 -91 1722 -91 
Q 1428 -91 1123 -41 
Q 819 9 494 109 
L 494 744 
Q 775 591 1075 516 
Q 1375 441 1709 441 
Q 2250 441 2565 725 
Q 2881 1009 2881 1497 
Q 2881 1984 2565 2268 
Q 2250 2553 1709 2553 
Q 1456 2553 1204 2497 
Q 953 2441 691 2322 
L 691 4666 
z
" transform="scale(0.015625)"/>
       </defs>
       <use xlink:href="#DejaVuSans-35"/>
       <use xlink:href="#DejaVuSans-30" x="63.623047"/>
       <use xlink:href="#DejaVuSans-30" x="127.246094"/>
      </g>
     </g>
    </g>
    <g id="ytick_3">
     <g id="line2d_23">
      <path d="M 53.328125 86.599219 
L 499.728125 86.599219 
" clip-path="url(#p0ab7573e56)" style="fill: none; stroke: #b0b0b0; stroke-width: 0.8; stroke-linecap: square"/>
     </g>
     <g id="line2d_24">
      <g>
       <use xlink:href="#mfc7ed903c0" x="53.328125" y="86.599219" style="stroke: #000000; stroke-width: 0.8"/>
      </g>
     </g>
     <g id="text_3">
      <!-- 1000 -->
      <g transform="translate(20.878125 90.398438) scale(0.1 -0.1)">
       <defs>
        <path id="DejaVuSans-31" d="M 794 531 
L 1825 531 
L 1825 4091 
L 703 3866 
L 703 4441 
L 1819 4666 
L 2450 4666 
L 2450 531 
L 3481 531 
L 3481 0 
L 794 0 
L 794 531 
z
" transform="scale(0.015625)"/>
       </defs>
       <use xlink:href="#DejaVuSans-31"/>
       <use xlink:href="#DejaVuSans-30" x="63.623047"/>
       <use xlink:href="#DejaVuSans-30" x="127.246094"/>
       <use xlink:href="#DejaVuSans-30" x="190.869141"/>
      </g>
     </g>
    </g>
    <g id="ytick_4">
     <g id="line2d_25">
      <path d="M 53.328125 48.799219 
L 499.728125 48.799219 
" clip-path="url(#p0ab7573e56)" style="fill: none; stroke: #b0b0b0; stroke-width: 0.8; stroke-linecap: square"/>
     </g>
     <g id="line2d_26">
      <g>
       <use xlink:href="#mfc7ed903c0" x="53.328125" y="48.799219" style="stroke: #000000; stroke-width: 0.8"/>
      </g>
     </g>
     <g id="text_4">
      <!-- 1500 -->
      <g transform="translate(20.878125 52.598437) scale(0.1 -0.1)">
       <use xlink:href="#DejaVuSans-31"/>
       <use xlink:href="#DejaVuSans-35" x="63.623047"/>
       <use xlink:href="#DejaVuSans-30" x="127.246094"/>
       <use xlink:href="#DejaVuSans-30" x="190.869141"/>
      </g>
     </g>
    </g>
    <g id="ytick_5">
     <g id="line2d_27">
      <path d="M 53.328125 10.999219 
L 499.728125 10.999219 
" clip-path="url(#p0ab7573e56)" style="fill: none; stroke: #b0b0b0; stroke-width: 0.8; stroke-linecap: square"/>
     </g>
     <g id="line2d_28">
      <g>
       <use xlink:href="#mfc7ed903c0" x="53.328125" y="10.999219" style="stroke: #000000; stroke-width: 0.8"/>
      </g>
     </g>
     <g id="text_5">
      <!-- 2000 -->
      <g transform="translate(20.878125 14.798438) scale(0.1 -0.1)">
       <defs>
        <path id="DejaVuSans-32" d="M 1228 531 
L 3431 531 
L 3431 0 
L 469 0 
L 469 531 
Q 828 903 1448 1529 
Q 2069 2156 2228 2338 
Q 2531 2678 2651 2914 
Q 2772 3150 2772 3378 
Q 2772 3750 2511 3984 
Q 2250 4219 1831 4219 
Q 1534 4219 1204 4116 
Q 875 4013 500 3803 
L 500 4441 
Q 881 4594 1212 4672 
Q 1544 4750 1819 4750 
Q 2544 4750 2975 4387 
Q 3406 4025 3406 3419 
Q 3406 3131 3298 2873 
Q 3191 2616 2906 2266 
Q 2828 2175 2409 1742 
Q 1991 1309 1228 531 
z
" transform="scale(0.015625)"/>
       </defs>
       <use xlink:href="#DejaVuSans-32"/>
       <use xlink:href="#DejaVuSans-30" x="63.623047"/>
       <use xlink:href="#DejaVuSans-30" x="127.246094"/>
       <use xlink:href="#DejaVuSans-30" x="190.869141"/>
      </g>
     </g>
    </g>
    <g id="text_6">
     <!-- TWh/a -->
     <g transform="translate(14.798438 110.074063) rotate(-90) scale(0.1 -0.1)">
      <defs>
       <path id="DejaVuSans-54" d="M -19 4666 
L 3928 4666 
L 3928 4134 
L 2272 4134 
L 2272 0 
L 1638 0 
L 1638 4134 
L -19 4134 
L -19 4666 
z
" transform="scale(0.015625)"/>
       <path id="DejaVuSans-57" d="M 213 4666 
L 850 4666 
L 1831 722 
L 2809 4666 
L 3519 4666 
L 4500 722 
L 5478 4666 
L 6119 4666 
L 4947 0 
L 4153 0 
L 3169 4050 
L 2175 0 
L 1381 0 
L 213 4666 
z
" transform="scale(0.015625)"/>
       <path id="DejaVuSans-68" d="M 3513 2113 
L 3513 0 
L 2938 0 
L 2938 2094 
Q 2938 2591 2744 2837 
Q 2550 3084 2163 3084 
Q 1697 3084 1428 2787 
Q 1159 2491 1159 1978 
L 1159 0 
L 581 0 
L 581 4863 
L 1159 4863 
L 1159 2956 
Q 1366 3272 1645 3428 
Q 1925 3584 2291 3584 
Q 2894 3584 3203 3211 
Q 3513 2838 3513 2113 
z
" transform="scale(0.015625)"/>
       <path id="DejaVuSans-2f" d="M 1625 4666 
L 2156 4666 
L 531 -594 
L 0 -594 
L 1625 4666 
z
" transform="scale(0.015625)"/>
       <path id="DejaVuSans-61" d="M 2194 1759 
Q 1497 1759 1228 1600 
Q 959 1441 959 1056 
Q 959 750 1161 570 
Q 1363 391 1709 391 
Q 2188 391 2477 730 
Q 2766 1069 2766 1631 
L 2766 1759 
L 2194 1759 
z
M 3341 1997 
L 3341 0 
L 2766 0 
L 2766 531 
Q 2569 213 2275 61 
Q 1981 -91 1556 -91 
Q 1019 -91 701 211 
Q 384 513 384 1019 
Q 384 1609 779 1909 
Q 1175 2209 1959 2209 
L 2766 2209 
L 2766 2266 
Q 2766 2663 2505 2880 
Q 2244 3097 1772 3097 
Q 1472 3097 1187 3025 
Q 903 2953 641 2809 
L 641 3341 
Q 956 3463 1253 3523 
Q 1550 3584 1831 3584 
Q 2591 3584 2966 3190 
Q 3341 2797 3341 1997 
z
" transform="scale(0.015625)"/>
      </defs>
      <use xlink:href="#DejaVuSans-54"/>
      <use xlink:href="#DejaVuSans-57" x="61.083984"/>
      <use xlink:href="#DejaVuSans-68" x="159.960938"/>
      <use xlink:href="#DejaVuSans-2f" x="223.339844"/>
      <use xlink:href="#DejaVuSans-61" x="257.03125"/>
     </g>
    </g>
   </g>
   <g id="patch_273">
    <path d="M 53.328125 177.319219 
L 53.328125 10.999219 
" style="fill: none; stroke: #000000; stroke-width: 0.8; stroke-linejoin: miter; stroke-linecap: square"/>
   </g>
   <g id="patch_274">
    <path d="M 499.728125 177.319219 
L 499.728125 10.999219 
" style="fill: none; stroke: #000000; stroke-width: 0.8; stroke-linejoin: miter; stroke-linecap: square"/>
   </g>
   <g id="patch_275">
    <path d="M 53.328125 177.319219 
L 499.728125 177.319219 
" style="fill: none; stroke: #000000; stroke-width: 0.8; stroke-linejoin: miter; stroke-linecap: square"/>
   </g>
   <g id="patch_276">
    <path d="M 53.328125 10.999219 
L 499.728125 10.999219 
" style="fill: none; stroke: #000000; stroke-width: 0.8; stroke-linejoin: miter; stroke-linecap: square"/>
   </g>
   <g id="patch_277">
    <path d="M 167.854212 120.189221 
Q 167.854212 129.309624 167.854212 138.430026 
L 169.854212 138.430026 
Q 168.604212 144.430922 167.354212 150.431819 
Q 166.104212 144.430922 164.854212 138.430026 
L 166.854212 138.430026 
Q 166.854212 129.309624 166.854212 120.189221 
L 167.854212 120.189221 
z
" style="stroke: #000000; stroke-linecap: round"/>
   </g>
   <g id="text_7">
    <!-- Regional -->
    <g transform="translate(145.783899 103.125336) scale(0.1 -0.1)">
     <defs>
      <path id="DejaVuSans-52" d="M 2841 2188 
Q 3044 2119 3236 1894 
Q 3428 1669 3622 1275 
L 4263 0 
L 3584 0 
L 2988 1197 
Q 2756 1666 2539 1819 
Q 2322 1972 1947 1972 
L 1259 1972 
L 1259 0 
L 628 0 
L 628 4666 
L 2053 4666 
Q 2853 4666 3247 4331 
Q 3641 3997 3641 3322 
Q 3641 2881 3436 2590 
Q 3231 2300 2841 2188 
z
M 1259 4147 
L 1259 2491 
L 2053 2491 
Q 2509 2491 2742 2702 
Q 2975 2913 2975 3322 
Q 2975 3731 2742 3939 
Q 2509 4147 2053 4147 
L 1259 4147 
z
" transform="scale(0.015625)"/>
      <path id="DejaVuSans-65" d="M 3597 1894 
L 3597 1613 
L 953 1613 
Q 991 1019 1311 708 
Q 1631 397 2203 397 
Q 2534 397 2845 478 
Q 3156 559 3463 722 
L 3463 178 
Q 3153 47 2828 -22 
Q 2503 -91 2169 -91 
Q 1331 -91 842 396 
Q 353 884 353 1716 
Q 353 2575 817 3079 
Q 1281 3584 2069 3584 
Q 2775 3584 3186 3129 
Q 3597 2675 3597 1894 
z
M 3022 2063 
Q 3016 2534 2758 2815 
Q 2500 3097 2075 3097 
Q 1594 3097 1305 2825 
Q 1016 2553 972 2059 
L 3022 2063 
z
" transform="scale(0.015625)"/>
      <path id="DejaVuSans-67" d="M 2906 1791 
Q 2906 2416 2648 2759 
Q 2391 3103 1925 3103 
Q 1463 3103 1205 2759 
Q 947 2416 947 1791 
Q 947 1169 1205 825 
Q 1463 481 1925 481 
Q 2391 481 2648 825 
Q 2906 1169 2906 1791 
z
M 3481 434 
Q 3481 -459 3084 -895 
Q 2688 -1331 1869 -1331 
Q 1566 -1331 1297 -1286 
Q 1028 -1241 775 -1147 
L 775 -588 
Q 1028 -725 1275 -790 
Q 1522 -856 1778 -856 
Q 2344 -856 2625 -561 
Q 2906 -266 2906 331 
L 2906 616 
Q 2728 306 2450 153 
Q 2172 0 1784 0 
Q 1141 0 747 490 
Q 353 981 353 1791 
Q 353 2603 747 3093 
Q 1141 3584 1784 3584 
Q 2172 3584 2450 3431 
Q 2728 3278 2906 2969 
L 2906 3500 
L 3481 3500 
L 3481 434 
z
" transform="scale(0.015625)"/>
      <path id="DejaVuSans-69" d="M 603 3500 
L 1178 3500 
L 1178 0 
L 603 0 
L 603 3500 
z
M 603 4863 
L 1178 4863 
L 1178 4134 
L 603 4134 
L 603 4863 
z
" transform="scale(0.015625)"/>
      <path id="DejaVuSans-6f" d="M 1959 3097 
Q 1497 3097 1228 2736 
Q 959 2375 959 1747 
Q 959 1119 1226 758 
Q 1494 397 1959 397 
Q 2419 397 2687 759 
Q 2956 1122 2956 1747 
Q 2956 2369 2687 2733 
Q 2419 3097 1959 3097 
z
M 1959 3584 
Q 2709 3584 3137 3096 
Q 3566 2609 3566 1747 
Q 3566 888 3137 398 
Q 2709 -91 1959 -91 
Q 1206 -91 779 398 
Q 353 888 353 1747 
Q 353 2609 779 3096 
Q 1206 3584 1959 3584 
z
" transform="scale(0.015625)"/>
      <path id="DejaVuSans-6e" d="M 3513 2113 
L 3513 0 
L 2938 0 
L 2938 2094 
Q 2938 2591 2744 2837 
Q 2550 3084 2163 3084 
Q 1697 3084 1428 2787 
Q 1159 2491 1159 1978 
L 1159 0 
L 581 0 
L 581 3500 
L 1159 3500 
L 1159 2956 
Q 1366 3272 1645 3428 
Q 1925 3584 2291 3584 
Q 2894 3584 3203 3211 
Q 3513 2838 3513 2113 
z
" transform="scale(0.015625)"/>
      <path id="DejaVuSans-6c" d="M 603 4863 
L 1178 4863 
L 1178 0 
L 603 0 
L 603 4863 
z
" transform="scale(0.015625)"/>
     </defs>
     <use xlink:href="#DejaVuSans-52"/>
     <use xlink:href="#DejaVuSans-65" x="64.982422"/>
     <use xlink:href="#DejaVuSans-67" x="126.505859"/>
     <use xlink:href="#DejaVuSans-69" x="189.982422"/>
     <use xlink:href="#DejaVuSans-6f" x="217.765625"/>
     <use xlink:href="#DejaVuSans-6e" x="278.947266"/>
     <use xlink:href="#DejaVuSans-61" x="342.326172"/>
     <use xlink:href="#DejaVuSans-6c" x="403.605469"/>
    </g>
    <!-- Load/a -->
    <g transform="translate(150.609681 114.323148) scale(0.1 -0.1)">
     <defs>
      <path id="DejaVuSans-4c" d="M 628 4666 
L 1259 4666 
L 1259 531 
L 3531 531 
L 3531 0 
L 628 0 
L 628 4666 
z
" transform="scale(0.015625)"/>
      <path id="DejaVuSans-64" d="M 2906 2969 
L 2906 4863 
L 3481 4863 
L 3481 0 
L 2906 0 
L 2906 525 
Q 2725 213 2448 61 
Q 2172 -91 1784 -91 
Q 1150 -91 751 415 
Q 353 922 353 1747 
Q 353 2572 751 3078 
Q 1150 3584 1784 3584 
Q 2172 3584 2448 3432 
Q 2725 3281 2906 2969 
z
M 947 1747 
Q 947 1113 1208 752 
Q 1469 391 1925 391 
Q 2381 391 2643 752 
Q 2906 1113 2906 1747 
Q 2906 2381 2643 2742 
Q 2381 3103 1925 3103 
Q 1469 3103 1208 2742 
Q 947 2381 947 1747 
z
" transform="scale(0.015625)"/>
     </defs>
     <use xlink:href="#DejaVuSans-4c"/>
     <use xlink:href="#DejaVuSans-6f" x="53.962891"/>
     <use xlink:href="#DejaVuSans-61" x="115.144531"/>
     <use xlink:href="#DejaVuSans-64" x="176.423828"/>
     <use xlink:href="#DejaVuSans-2f" x="239.900391"/>
     <use xlink:href="#DejaVuSans-61" x="273.591797"/>
    </g>
   </g>
   <g id="text_8">
    <!-- SEA_ERA5_2011_AIMS_DEC_2050 -->
    <g transform="translate(340.277938 24.957619) scale(0.09 -0.09)">
     <defs>
      <path id="DejaVuSans-53" d="M 3425 4513 
L 3425 3897 
Q 3066 4069 2747 4153 
Q 2428 4238 2131 4238 
Q 1616 4238 1336 4038 
Q 1056 3838 1056 3469 
Q 1056 3159 1242 3001 
Q 1428 2844 1947 2747 
L 2328 2669 
Q 3034 2534 3370 2195 
Q 3706 1856 3706 1288 
Q 3706 609 3251 259 
Q 2797 -91 1919 -91 
Q 1588 -91 1214 -16 
Q 841 59 441 206 
L 441 856 
Q 825 641 1194 531 
Q 1563 422 1919 422 
Q 2459 422 2753 634 
Q 3047 847 3047 1241 
Q 3047 1584 2836 1778 
Q 2625 1972 2144 2069 
L 1759 2144 
Q 1053 2284 737 2584 
Q 422 2884 422 3419 
Q 422 4038 858 4394 
Q 1294 4750 2059 4750 
Q 2388 4750 2728 4690 
Q 3069 4631 3425 4513 
z
" transform="scale(0.015625)"/>
      <path id="DejaVuSans-45" d="M 628 4666 
L 3578 4666 
L 3578 4134 
L 1259 4134 
L 1259 2753 
L 3481 2753 
L 3481 2222 
L 1259 2222 
L 1259 531 
L 3634 531 
L 3634 0 
L 628 0 
L 628 4666 
z
" transform="scale(0.015625)"/>
      <path id="DejaVuSans-41" d="M 2188 4044 
L 1331 1722 
L 3047 1722 
L 2188 4044 
z
M 1831 4666 
L 2547 4666 
L 4325 0 
L 3669 0 
L 3244 1197 
L 1141 1197 
L 716 0 
L 50 0 
L 1831 4666 
z
" transform="scale(0.015625)"/>
      <path id="DejaVuSans-5f" d="M 3263 -1063 
L 3263 -1509 
L -63 -1509 
L -63 -1063 
L 3263 -1063 
z
" transform="scale(0.015625)"/>
      <path id="DejaVuSans-49" d="M 628 4666 
L 1259 4666 
L 1259 0 
L 628 0 
L 628 4666 
z
" transform="scale(0.015625)"/>
      <path id="DejaVuSans-4d" d="M 628 4666 
L 1569 4666 
L 2759 1491 
L 3956 4666 
L 4897 4666 
L 4897 0 
L 4281 0 
L 4281 4097 
L 3078 897 
L 2444 897 
L 1241 4097 
L 1241 0 
L 628 0 
L 628 4666 
z
" transform="scale(0.015625)"/>
      <path id="DejaVuSans-44" d="M 1259 4147 
L 1259 519 
L 2022 519 
Q 2988 519 3436 956 
Q 3884 1394 3884 2338 
Q 3884 3275 3436 3711 
Q 2988 4147 2022 4147 
L 1259 4147 
z
M 628 4666 
L 1925 4666 
Q 3281 4666 3915 4102 
Q 4550 3538 4550 2338 
Q 4550 1131 3912 565 
Q 3275 0 1925 0 
L 628 0 
L 628 4666 
z
" transform="scale(0.015625)"/>
      <path id="DejaVuSans-43" d="M 4122 4306 
L 4122 3641 
Q 3803 3938 3442 4084 
Q 3081 4231 2675 4231 
Q 1875 4231 1450 3742 
Q 1025 3253 1025 2328 
Q 1025 1406 1450 917 
Q 1875 428 2675 428 
Q 3081 428 3442 575 
Q 3803 722 4122 1019 
L 4122 359 
Q 3791 134 3420 21 
Q 3050 -91 2638 -91 
Q 1578 -91 968 557 
Q 359 1206 359 2328 
Q 359 3453 968 4101 
Q 1578 4750 2638 4750 
Q 3056 4750 3426 4639 
Q 3797 4528 4122 4306 
z
" transform="scale(0.015625)"/>
     </defs>
     <use xlink:href="#DejaVuSans-53"/>
     <use xlink:href="#DejaVuSans-45" x="63.476562"/>
     <use xlink:href="#DejaVuSans-41" x="126.660156"/>
     <use xlink:href="#DejaVuSans-5f" x="195.068359"/>
     <use xlink:href="#DejaVuSans-45" x="245.068359"/>
     <use xlink:href="#DejaVuSans-52" x="308.251953"/>
     <use xlink:href="#DejaVuSans-41" x="373.734375"/>
     <use xlink:href="#DejaVuSans-35" x="442.142578"/>
     <use xlink:href="#DejaVuSans-5f" x="505.765625"/>
     <use xlink:href="#DejaVuSans-32" x="555.765625"/>
     <use xlink:href="#DejaVuSans-30" x="619.388672"/>
     <use xlink:href="#DejaVuSans-31" x="683.011719"/>
     <use xlink:href="#DejaVuSans-31" x="746.634766"/>
     <use xlink:href="#DejaVuSans-5f" x="810.257812"/>
     <use xlink:href="#DejaVuSans-41" x="860.257812"/>
     <use xlink:href="#DejaVuSans-49" x="928.666016"/>
     <use xlink:href="#DejaVuSans-4d" x="958.158203"/>
     <use xlink:href="#DejaVuSans-53" x="1044.4375"/>
     <use xlink:href="#DejaVuSans-5f" x="1107.914062"/>
     <use xlink:href="#DejaVuSans-44" x="1157.914062"/>
     <use xlink:href="#DejaVuSans-45" x="1234.916016"/>
     <use xlink:href="#DejaVuSans-43" x="1298.099609"/>
     <use xlink:href="#DejaVuSans-5f" x="1367.923828"/>
     <use xlink:href="#DejaVuSans-32" x="1417.923828"/>
     <use xlink:href="#DejaVuSans-30" x="1481.546875"/>
     <use xlink:href="#DejaVuSans-35" x="1545.169922"/>
     <use xlink:href="#DejaVuSans-30" x="1608.792969"/>
    </g>
   </g>
  </g>
 </g>
 <defs>
  <clipPath id="p0ab7573e56">
   <rect x="53.328125" y="10.999219" width="446.4" height="166.32"/>
  </clipPath>
 </defs>
</svg>
