<?xml version="1.0" encoding="utf-8" standalone="no"?>
<!DOCTYPE svg PUBLIC "-//W3C//DTD SVG 1.1//EN"
  "http://www.w3.org/Graphics/SVG/1.1/DTD/svg11.dtd">
<svg xmlns:xlink="http://www.w3.org/1999/xlink" width="568.087187pt" height="244.529219pt" viewBox="0 0 568.087187 244.529219" xmlns="http://www.w3.org/2000/svg" version="1.1">
 <metadata>
  <rdf:RDF xmlns:dc="http://purl.org/dc/elements/1.1/" xmlns:cc="http://creativecommons.org/ns#" xmlns:rdf="http://www.w3.org/1999/02/22-rdf-syntax-ns#">
   <cc:Work>
    <dc:type rdf:resource="http://purl.org/dc/dcmitype/StillImage"/>
    <dc:date>2024-11-21T13:02:15.715219</dc:date>
    <dc:format>image/svg+xml</dc:format>
    <dc:creator>
     <cc:Agent>
      <dc:title>Matplotlib v3.9.2, https://matplotlib.org/</dc:title>
     </cc:Agent>
    </dc:creator>
   </cc:Work>
  </rdf:RDF>
 </metadata>
 <defs>
  <style type="text/css">*{stroke-linejoin: round; stroke-linecap: butt}</style>
 </defs>
 <g id="figure_1">
  <g id="patch_1">
   <path d="M 0 244.529219 
L 568.087187 244.529219 
L 568.087187 0 
L 0 0 
z
" style="fill: #ffffff"/>
  </g>
  <g id="axes_1">
   <g id="patch_2">
    <path d="M 53.328125 204.879219 
L 273.448125 204.879219 
L 273.448125 10.999219 
L 53.328125 10.999219 
z
" style="fill: #ffffff"/>
   </g>
   <g id="PolyCollection_1">
    <defs>
     <path id="m1ecda77773" d="M 53.328125 -41.158469 
L 53.328125 -39.65 
L 90.014792 -39.65 
L 126.701458 -39.65 
L 163.388125 -39.65 
L 200.074792 -39.65 
L 236.761458 -39.65 
L 273.448125 -39.65 
L 273.448125 -41.490324 
L 273.448125 -41.490324 
L 236.761458 -41.490424 
L 200.074792 -41.490424 
L 163.388125 -41.490424 
L 126.701458 -41.491716 
L 90.014792 -41.316675 
L 53.328125 -41.158469 
z
" style="stroke: #08ad97"/>
    </defs>
    <g clip-path="url(#pb8e95492fb)">
     <use xlink:href="#m1ecda77773" x="0" y="244.529219" style="fill: #08ad97; stroke: #08ad97"/>
    </g>
   </g>
   <g id="PolyCollection_2">
    <defs>
     <path id="m045c502994" d="M 53.328125 -41.158624 
L 53.328125 -41.158469 
L 90.014792 -41.316675 
L 126.701458 -41.491716 
L 163.388125 -41.490424 
L 200.074792 -41.490424 
L 236.761458 -41.490424 
L 273.448125 -41.490324 
L 273.448125 -41.490564 
L 273.448125 -41.490564 
L 236.761458 -41.490597 
L 200.074792 -41.490583 
L 163.388125 -41.490613 
L 126.701458 -41.491872 
L 90.014792 -41.31683 
L 53.328125 -41.158624 
z
" style="stroke: #6895dd"/>
    </defs>
    <g clip-path="url(#pb8e95492fb)">
     <use xlink:href="#m045c502994" x="0" y="244.529219" style="fill: #6895dd; stroke: #6895dd"/>
    </g>
   </g>
   <g id="PolyCollection_3">
    <defs>
     <path id="mc8d1e3dee3" d="M 53.328125 -41.16159 
L 53.328125 -41.158624 
L 90.014792 -41.31683 
L 126.701458 -41.491872 
L 163.388125 -41.490613 
L 200.074792 -41.490583 
L 236.761458 -41.490597 
L 273.448125 -41.490564 
L 273.448125 -41.493612 
L 273.448125 -41.493612 
L 236.761458 -41.493581 
L 200.074792 -41.493551 
L 163.388125 -41.493614 
L 126.701458 -41.49484 
L 90.014792 -41.319797 
L 53.328125 -41.16159 
z
" style="stroke: #74c6f2"/>
    </defs>
    <g clip-path="url(#pb8e95492fb)">
     <use xlink:href="#mc8d1e3dee3" x="0" y="244.529219" style="fill: #74c6f2; stroke: #74c6f2"/>
    </g>
   </g>
   <g id="PolyCollection_4">
    <defs>
     <path id="m38d51be4da" d="M 53.328125 -41.664427 
L 53.328125 -41.16159 
L 90.014792 -41.319797 
L 126.701458 -41.49484 
L 163.388125 -41.493614 
L 200.074792 -41.493551 
L 236.761458 -41.493581 
L 273.448125 -41.493612 
L 273.448125 -43.932094 
L 273.448125 -43.932094 
L 236.761458 -44.036562 
L 200.074792 -44.075352 
L 163.388125 -43.161764 
L 126.701458 -42.640926 
L 90.014792 -42.170591 
L 53.328125 -41.664427 
z
" style="stroke: #235ebc"/>
    </defs>
    <g clip-path="url(#pb8e95492fb)">
     <use xlink:href="#m38d51be4da" x="0" y="244.529219" style="fill: #235ebc; stroke: #235ebc"/>
    </g>
   </g>
   <g id="PolyCollection_5">
    <defs>
     <path id="m6ea5552d25" d="M 53.328125 -42.444026 
L 53.328125 -41.664427 
L 90.014792 -42.170591 
L 126.701458 -42.640926 
L 163.388125 -43.161764 
L 200.074792 -44.075352 
L 236.761458 -44.036562 
L 273.448125 -43.932094 
L 273.448125 -96.909983 
L 273.448125 -96.909983 
L 236.761458 -79.636768 
L 200.074792 -61.958497 
L 163.388125 -52.9468 
L 126.701458 -49.130729 
L 90.014792 -44.196165 
L 53.328125 -42.444026 
z
" style="stroke: #f9d002"/>
    </defs>
    <g clip-path="url(#pb8e95492fb)">
     <use xlink:href="#m6ea5552d25" x="0" y="244.529219" style="fill: #f9d002; stroke: #f9d002"/>
    </g>
   </g>
   <g id="PolyCollection_6">
    <defs>
     <path id="m017b93fb29" d="M 53.328125 -45.620581 
L 53.328125 -42.444026 
L 90.014792 -44.196165 
L 126.701458 -49.130729 
L 163.388125 -52.9468 
L 200.074792 -61.958497 
L 236.761458 -79.636768 
L 273.448125 -96.909983 
L 273.448125 -99.267142 
L 273.448125 -99.267142 
L 236.761458 -81.769459 
L 200.074792 -64.540476 
L 163.388125 -56.082909 
L 126.701458 -52.535835 
L 90.014792 -47.621367 
L 53.328125 -45.620581 
z
" style="stroke: #b20101"/>
    </defs>
    <g clip-path="url(#pb8e95492fb)">
     <use xlink:href="#m017b93fb29" x="0" y="244.529219" style="fill: #b20101; stroke: #b20101"/>
    </g>
   </g>
   <g id="PolyCollection_7">
    <defs>
     <path id="me518f8710a" d="M 53.328125 -45.687793 
L 53.328125 -45.620581 
L 90.014792 -47.621367 
L 126.701458 -52.535835 
L 163.388125 -56.082909 
L 200.074792 -64.540476 
L 236.761458 -81.769459 
L 273.448125 -99.267142 
L 273.448125 -99.395749 
L 273.448125 -99.395749 
L 236.761458 -81.898066 
L 200.074792 -64.669083 
L 163.388125 -56.211516 
L 126.701458 -52.664442 
L 90.014792 -47.749974 
L 53.328125 -45.687793 
z
" style="stroke: #707070"/>
    </defs>
    <g clip-path="url(#pb8e95492fb)">
     <use xlink:href="#me518f8710a" x="0" y="244.529219" style="fill: #707070; stroke: #707070"/>
    </g>
   </g>
   <g id="PolyCollection_8">
    <defs>
     <path id="mde2833d7d8" d="M 53.328125 -45.86885 
L 53.328125 -45.687793 
L 90.014792 -47.749974 
L 126.701458 -52.664442 
L 163.388125 -56.211516 
L 200.074792 -64.669083 
L 236.761458 -81.898066 
L 273.448125 -99.395749 
L 273.448125 -99.557418 
L 273.448125 -99.557418 
L 236.761458 -82.079123 
L 200.074792 -64.85014 
L 163.388125 -56.392573 
L 126.701458 -52.845499 
L 90.014792 -47.931031 
L 53.328125 -45.86885 
z
" style="stroke: #808080"/>
    </defs>
    <g clip-path="url(#pb8e95492fb)">
     <use xlink:href="#mde2833d7d8" x="0" y="244.529219" style="fill: #808080; stroke: #808080"/>
    </g>
   </g>
   <g id="PolyCollection_9">
    <defs>
     <path id="m7560bab0e4" d="M 53.328125 -46.320784 
L 53.328125 -45.86885 
L 90.014792 -47.931031 
L 126.701458 -52.845499 
L 163.388125 -56.392573 
L 200.074792 -64.85014 
L 236.761458 -82.079123 
L 273.448125 -99.557418 
L 273.448125 -100.172729 
L 273.448125 -100.172729 
L 236.761458 -82.694434 
L 200.074792 -65.465451 
L 163.388125 -57.007883 
L 126.701458 -53.460809 
L 90.014792 -48.546342 
L 53.328125 -46.320784 
z
" style="stroke: #606060"/>
    </defs>
    <g clip-path="url(#pb8e95492fb)">
     <use xlink:href="#m7560bab0e4" x="0" y="244.529219" style="fill: #606060; stroke: #606060"/>
    </g>
   </g>
   <g id="PolyCollection_10">
    <defs>
     <path id="me6355e28ca" d="M 53.328125 -48.618387 
L 53.328125 -46.320784 
L 90.014792 -48.546342 
L 126.701458 -53.460809 
L 163.388125 -57.007883 
L 200.074792 -65.465451 
L 236.761458 -82.694434 
L 273.448125 -100.172729 
L 273.448125 -102.026719 
L 273.448125 -102.026719 
L 236.761458 -84.704659 
L 200.074792 -67.535779 
L 163.388125 -59.338769 
L 126.701458 -55.815445 
L 90.014792 -50.900978 
L 53.328125 -48.618387 
z
" style="stroke: #909090"/>
    </defs>
    <g clip-path="url(#pb8e95492fb)">
     <use xlink:href="#me6355e28ca" x="0" y="244.529219" style="fill: #909090; stroke: #909090"/>
    </g>
   </g>
   <g id="PolyCollection_11">
    <defs>
     <path id="mfe59dd9015" d="M 53.328125 -48.682432 
L 53.328125 -48.618387 
L 90.014792 -50.900978 
L 126.701458 -55.815445 
L 163.388125 -59.338769 
L 200.074792 -67.535779 
L 236.761458 -84.704659 
L 273.448125 -102.026719 
L 273.448125 -102.15216 
L 273.448125 -102.15216 
L 236.761458 -84.8301 
L 200.074792 -67.661219 
L 163.388125 -59.464209 
L 126.701458 -55.940886 
L 90.014792 -51.026418 
L 53.328125 -48.682432 
z
" style="stroke: #505050"/>
    </defs>
    <g clip-path="url(#pb8e95492fb)">
     <use xlink:href="#mfe59dd9015" x="0" y="244.529219" style="fill: #505050; stroke: #505050"/>
    </g>
   </g>
   <g id="PolyCollection_12">
    <defs>
     <path id="m3c2772cc84" d="M 53.328125 -48.903832 
L 53.328125 -48.682432 
L 90.014792 -51.026418 
L 126.701458 -55.940886 
L 163.388125 -59.464209 
L 200.074792 -67.661219 
L 236.761458 -84.8301 
L 273.448125 -102.15216 
L 273.448125 -102.369617 
L 273.448125 -102.369617 
L 236.761458 -85.047557 
L 200.074792 -67.878677 
L 163.388125 -59.685609 
L 126.701458 -56.162286 
L 90.014792 -51.247818 
L 53.328125 -48.903832 
z
" style="stroke: #9e5a01"/>
    </defs>
    <g clip-path="url(#pb8e95492fb)">
     <use xlink:href="#m3c2772cc84" x="0" y="244.529219" style="fill: #9e5a01; stroke: #9e5a01"/>
    </g>
   </g>
   <g id="PolyCollection_13">
    <defs>
     <path id="m8fa7c137ad" d="M 53.328125 -49.720659 
L 53.328125 -48.903832 
L 90.014792 -51.247818 
L 126.701458 -56.162286 
L 163.388125 -59.685609 
L 200.074792 -67.878677 
L 236.761458 -85.047557 
L 273.448125 -102.369617 
L 273.448125 -102.371052 
L 273.448125 -102.371052 
L 236.761458 -85.133806 
L 200.074792 -68.219447 
L 163.388125 -60.128379 
L 126.701458 -56.714536 
L 90.014792 -51.929199 
L 53.328125 -49.720659 
z
" style="stroke: #262626"/>
    </defs>
    <g clip-path="url(#pb8e95492fb)">
     <use xlink:href="#m8fa7c137ad" x="0" y="244.529219" style="fill: #262626; stroke: #262626"/>
    </g>
   </g>
   <g id="matplotlib.axis_1">
    <g id="xtick_1">
     <g id="line2d_1">
      <defs>
       <path id="m6e50eec19a" d="M 0 0 
L 0 3.5 
" style="stroke: #000000; stroke-width: 0.8"/>
      </defs>
      <g>
       <use xlink:href="#m6e50eec19a" x="53.328125" y="204.879219" style="stroke: #000000; stroke-width: 0.8"/>
      </g>
     </g>
     <g id="text_1">
      <!-- 2020 -->
      <g transform="translate(56.0875 237.329219) rotate(-90) scale(0.1 -0.1)">
       <defs>
        <path id="DejaVuSans-32" d="M 1228 531 
L 3431 531 
L 3431 0 
L 469 0 
L 469 531 
Q 828 903 1448 1529 
Q 2069 2156 2228 2338 
Q 2531 2678 2651 2914 
Q 2772 3150 2772 3378 
Q 2772 3750 2511 3984 
Q 2250 4219 1831 4219 
Q 1534 4219 1204 4116 
Q 875 4013 500 3803 
L 500 4441 
Q 881 4594 1212 4672 
Q 1544 4750 1819 4750 
Q 2544 4750 2975 4387 
Q 3406 4025 3406 3419 
Q 3406 3131 3298 2873 
Q 3191 2616 2906 2266 
Q 2828 2175 2409 1742 
Q 1991 1309 1228 531 
z
" transform="scale(0.015625)"/>
        <path id="DejaVuSans-30" d="M 2034 4250 
Q 1547 4250 1301 3770 
Q 1056 3291 1056 2328 
Q 1056 1369 1301 889 
Q 1547 409 2034 409 
Q 2525 409 2770 889 
Q 3016 1369 3016 2328 
Q 3016 3291 2770 3770 
Q 2525 4250 2034 4250 
z
M 2034 4750 
Q 2819 4750 3233 4129 
Q 3647 3509 3647 2328 
Q 3647 1150 3233 529 
Q 2819 -91 2034 -91 
Q 1250 -91 836 529 
Q 422 1150 422 2328 
Q 422 3509 836 4129 
Q 1250 4750 2034 4750 
z
" transform="scale(0.015625)"/>
       </defs>
       <use xlink:href="#DejaVuSans-32"/>
       <use xlink:href="#DejaVuSans-30" x="63.623047"/>
       <use xlink:href="#DejaVuSans-32" x="127.246094"/>
       <use xlink:href="#DejaVuSans-30" x="190.869141"/>
      </g>
     </g>
    </g>
    <g id="xtick_2">
     <g id="line2d_2">
      <g>
       <use xlink:href="#m6e50eec19a" x="90.014792" y="204.879219" style="stroke: #000000; stroke-width: 0.8"/>
      </g>
     </g>
     <g id="text_2">
      <!-- 2025 -->
      <g transform="translate(92.774167 237.329219) rotate(-90) scale(0.1 -0.1)">
       <defs>
        <path id="DejaVuSans-35" d="M 691 4666 
L 3169 4666 
L 3169 4134 
L 1269 4134 
L 1269 2991 
Q 1406 3038 1543 3061 
Q 1681 3084 1819 3084 
Q 2600 3084 3056 2656 
Q 3513 2228 3513 1497 
Q 3513 744 3044 326 
Q 2575 -91 1722 -91 
Q 1428 -91 1123 -41 
Q 819 9 494 109 
L 494 744 
Q 775 591 1075 516 
Q 1375 441 1709 441 
Q 2250 441 2565 725 
Q 2881 1009 2881 1497 
Q 2881 1984 2565 2268 
Q 2250 2553 1709 2553 
Q 1456 2553 1204 2497 
Q 953 2441 691 2322 
L 691 4666 
z
" transform="scale(0.015625)"/>
       </defs>
       <use xlink:href="#DejaVuSans-32"/>
       <use xlink:href="#DejaVuSans-30" x="63.623047"/>
       <use xlink:href="#DejaVuSans-32" x="127.246094"/>
       <use xlink:href="#DejaVuSans-35" x="190.869141"/>
      </g>
     </g>
    </g>
    <g id="xtick_3">
     <g id="line2d_3">
      <g>
       <use xlink:href="#m6e50eec19a" x="126.701458" y="204.879219" style="stroke: #000000; stroke-width: 0.8"/>
      </g>
     </g>
     <g id="text_3">
      <!-- 2030 -->
      <g transform="translate(129.460833 237.329219) rotate(-90) scale(0.1 -0.1)">
       <defs>
        <path id="DejaVuSans-33" d="M 2597 2516 
Q 3050 2419 3304 2112 
Q 3559 1806 3559 1356 
Q 3559 666 3084 287 
Q 2609 -91 1734 -91 
Q 1441 -91 1130 -33 
Q 819 25 488 141 
L 488 750 
Q 750 597 1062 519 
Q 1375 441 1716 441 
Q 2309 441 2620 675 
Q 2931 909 2931 1356 
Q 2931 1769 2642 2001 
Q 2353 2234 1838 2234 
L 1294 2234 
L 1294 2753 
L 1863 2753 
Q 2328 2753 2575 2939 
Q 2822 3125 2822 3475 
Q 2822 3834 2567 4026 
Q 2313 4219 1838 4219 
Q 1578 4219 1281 4162 
Q 984 4106 628 3988 
L 628 4550 
Q 988 4650 1302 4700 
Q 1616 4750 1894 4750 
Q 2613 4750 3031 4423 
Q 3450 4097 3450 3541 
Q 3450 3153 3228 2886 
Q 3006 2619 2597 2516 
z
" transform="scale(0.015625)"/>
       </defs>
       <use xlink:href="#DejaVuSans-32"/>
       <use xlink:href="#DejaVuSans-30" x="63.623047"/>
       <use xlink:href="#DejaVuSans-33" x="127.246094"/>
       <use xlink:href="#DejaVuSans-30" x="190.869141"/>
      </g>
     </g>
    </g>
    <g id="xtick_4">
     <g id="line2d_4">
      <g>
       <use xlink:href="#m6e50eec19a" x="163.388125" y="204.879219" style="stroke: #000000; stroke-width: 0.8"/>
      </g>
     </g>
     <g id="text_4">
      <!-- 2035 -->
      <g transform="translate(166.1475 237.329219) rotate(-90) scale(0.1 -0.1)">
       <use xlink:href="#DejaVuSans-32"/>
       <use xlink:href="#DejaVuSans-30" x="63.623047"/>
       <use xlink:href="#DejaVuSans-33" x="127.246094"/>
       <use xlink:href="#DejaVuSans-35" x="190.869141"/>
      </g>
     </g>
    </g>
    <g id="xtick_5">
     <g id="line2d_5">
      <g>
       <use xlink:href="#m6e50eec19a" x="200.074792" y="204.879219" style="stroke: #000000; stroke-width: 0.8"/>
      </g>
     </g>
     <g id="text_5">
      <!-- 2040 -->
      <g transform="translate(202.834167 237.329219) rotate(-90) scale(0.1 -0.1)">
       <defs>
        <path id="DejaVuSans-34" d="M 2419 4116 
L 825 1625 
L 2419 1625 
L 2419 4116 
z
M 2253 4666 
L 3047 4666 
L 3047 1625 
L 3713 1625 
L 3713 1100 
L 3047 1100 
L 3047 0 
L 2419 0 
L 2419 1100 
L 313 1100 
L 313 1709 
L 2253 4666 
z
" transform="scale(0.015625)"/>
       </defs>
       <use xlink:href="#DejaVuSans-32"/>
       <use xlink:href="#DejaVuSans-30" x="63.623047"/>
       <use xlink:href="#DejaVuSans-34" x="127.246094"/>
       <use xlink:href="#DejaVuSans-30" x="190.869141"/>
      </g>
     </g>
    </g>
    <g id="xtick_6">
     <g id="line2d_6">
      <g>
       <use xlink:href="#m6e50eec19a" x="236.761458" y="204.879219" style="stroke: #000000; stroke-width: 0.8"/>
      </g>
     </g>
     <g id="text_6">
      <!-- 2045 -->
      <g transform="translate(239.520833 237.329219) rotate(-90) scale(0.1 -0.1)">
       <use xlink:href="#DejaVuSans-32"/>
       <use xlink:href="#DejaVuSans-30" x="63.623047"/>
       <use xlink:href="#DejaVuSans-34" x="127.246094"/>
       <use xlink:href="#DejaVuSans-35" x="190.869141"/>
      </g>
     </g>
    </g>
    <g id="xtick_7">
     <g id="line2d_7">
      <g>
       <use xlink:href="#m6e50eec19a" x="273.448125" y="204.879219" style="stroke: #000000; stroke-width: 0.8"/>
      </g>
     </g>
     <g id="text_7">
      <!-- 2050 -->
      <g transform="translate(276.2075 237.329219) rotate(-90) scale(0.1 -0.1)">
       <use xlink:href="#DejaVuSans-32"/>
       <use xlink:href="#DejaVuSans-30" x="63.623047"/>
       <use xlink:href="#DejaVuSans-35" x="127.246094"/>
       <use xlink:href="#DejaVuSans-30" x="190.869141"/>
      </g>
     </g>
    </g>
   </g>
   <g id="matplotlib.axis_2">
    <g id="ytick_1">
     <g id="line2d_8">
      <path d="M 53.328125 204.879219 
L 273.448125 204.879219 
" clip-path="url(#pb8e95492fb)" style="fill: none; stroke: #b0b0b0; stroke-width: 0.8; stroke-linecap: square"/>
     </g>
     <g id="line2d_9">
      <defs>
       <path id="m59801b962b" d="M 0 0 
L -3.5 0 
" style="stroke: #000000; stroke-width: 0.8"/>
      </defs>
      <g>
       <use xlink:href="#m59801b962b" x="53.328125" y="204.879219" style="stroke: #000000; stroke-width: 0.8"/>
      </g>
     </g>
     <g id="text_8">
      <!-- 0 -->
      <g transform="translate(39.965625 208.678438) scale(0.1 -0.1)">
       <use xlink:href="#DejaVuSans-30"/>
      </g>
     </g>
    </g>
    <g id="ytick_2">
     <g id="line2d_10">
      <path d="M 53.328125 172.565885 
L 273.448125 172.565885 
" clip-path="url(#pb8e95492fb)" style="fill: none; stroke: #b0b0b0; stroke-width: 0.8; stroke-linecap: square"/>
     </g>
     <g id="line2d_11">
      <g>
       <use xlink:href="#m59801b962b" x="53.328125" y="172.565885" style="stroke: #000000; stroke-width: 0.8"/>
      </g>
     </g>
     <g id="text_9">
      <!-- 1000 -->
      <g transform="translate(20.878125 176.365104) scale(0.1 -0.1)">
       <defs>
        <path id="DejaVuSans-31" d="M 794 531 
L 1825 531 
L 1825 4091 
L 703 3866 
L 703 4441 
L 1819 4666 
L 2450 4666 
L 2450 531 
L 3481 531 
L 3481 0 
L 794 0 
L 794 531 
z
" transform="scale(0.015625)"/>
       </defs>
       <use xlink:href="#DejaVuSans-31"/>
       <use xlink:href="#DejaVuSans-30" x="63.623047"/>
       <use xlink:href="#DejaVuSans-30" x="127.246094"/>
       <use xlink:href="#DejaVuSans-30" x="190.869141"/>
      </g>
     </g>
    </g>
    <g id="ytick_3">
     <g id="line2d_12">
      <path d="M 53.328125 140.252552 
L 273.448125 140.252552 
" clip-path="url(#pb8e95492fb)" style="fill: none; stroke: #b0b0b0; stroke-width: 0.8; stroke-linecap: square"/>
     </g>
     <g id="line2d_13">
      <g>
       <use xlink:href="#m59801b962b" x="53.328125" y="140.252552" style="stroke: #000000; stroke-width: 0.8"/>
      </g>
     </g>
     <g id="text_10">
      <!-- 2000 -->
      <g transform="translate(20.878125 144.051771) scale(0.1 -0.1)">
       <use xlink:href="#DejaVuSans-32"/>
       <use xlink:href="#DejaVuSans-30" x="63.623047"/>
       <use xlink:href="#DejaVuSans-30" x="127.246094"/>
       <use xlink:href="#DejaVuSans-30" x="190.869141"/>
      </g>
     </g>
    </g>
    <g id="ytick_4">
     <g id="line2d_14">
      <path d="M 53.328125 107.939219 
L 273.448125 107.939219 
" clip-path="url(#pb8e95492fb)" style="fill: none; stroke: #b0b0b0; stroke-width: 0.8; stroke-linecap: square"/>
     </g>
     <g id="line2d_15">
      <g>
       <use xlink:href="#m59801b962b" x="53.328125" y="107.939219" style="stroke: #000000; stroke-width: 0.8"/>
      </g>
     </g>
     <g id="text_11">
      <!-- 3000 -->
      <g transform="translate(20.878125 111.738438) scale(0.1 -0.1)">
       <use xlink:href="#DejaVuSans-33"/>
       <use xlink:href="#DejaVuSans-30" x="63.623047"/>
       <use xlink:href="#DejaVuSans-30" x="127.246094"/>
       <use xlink:href="#DejaVuSans-30" x="190.869141"/>
      </g>
     </g>
    </g>
    <g id="ytick_5">
     <g id="line2d_16">
      <path d="M 53.328125 75.625885 
L 273.448125 75.625885 
" clip-path="url(#pb8e95492fb)" style="fill: none; stroke: #b0b0b0; stroke-width: 0.8; stroke-linecap: square"/>
     </g>
     <g id="line2d_17">
      <g>
       <use xlink:href="#m59801b962b" x="53.328125" y="75.625885" style="stroke: #000000; stroke-width: 0.8"/>
      </g>
     </g>
     <g id="text_12">
      <!-- 4000 -->
      <g transform="translate(20.878125 79.425104) scale(0.1 -0.1)">
       <use xlink:href="#DejaVuSans-34"/>
       <use xlink:href="#DejaVuSans-30" x="63.623047"/>
       <use xlink:href="#DejaVuSans-30" x="127.246094"/>
       <use xlink:href="#DejaVuSans-30" x="190.869141"/>
      </g>
     </g>
    </g>
    <g id="ytick_6">
     <g id="line2d_18">
      <path d="M 53.328125 43.312552 
L 273.448125 43.312552 
" clip-path="url(#pb8e95492fb)" style="fill: none; stroke: #b0b0b0; stroke-width: 0.8; stroke-linecap: square"/>
     </g>
     <g id="line2d_19">
      <g>
       <use xlink:href="#m59801b962b" x="53.328125" y="43.312552" style="stroke: #000000; stroke-width: 0.8"/>
      </g>
     </g>
     <g id="text_13">
      <!-- 5000 -->
      <g transform="translate(20.878125 47.111771) scale(0.1 -0.1)">
       <use xlink:href="#DejaVuSans-35"/>
       <use xlink:href="#DejaVuSans-30" x="63.623047"/>
       <use xlink:href="#DejaVuSans-30" x="127.246094"/>
       <use xlink:href="#DejaVuSans-30" x="190.869141"/>
      </g>
     </g>
    </g>
    <g id="ytick_7">
     <g id="line2d_20">
      <path d="M 53.328125 10.999219 
L 273.448125 10.999219 
" clip-path="url(#pb8e95492fb)" style="fill: none; stroke: #b0b0b0; stroke-width: 0.8; stroke-linecap: square"/>
     </g>
     <g id="line2d_21">
      <g>
       <use xlink:href="#m59801b962b" x="53.328125" y="10.999219" style="stroke: #000000; stroke-width: 0.8"/>
      </g>
     </g>
     <g id="text_14">
      <!-- 6000 -->
      <g transform="translate(20.878125 14.798438) scale(0.1 -0.1)">
       <defs>
        <path id="DejaVuSans-36" d="M 2113 2584 
Q 1688 2584 1439 2293 
Q 1191 2003 1191 1497 
Q 1191 994 1439 701 
Q 1688 409 2113 409 
Q 2538 409 2786 701 
Q 3034 994 3034 1497 
Q 3034 2003 2786 2293 
Q 2538 2584 2113 2584 
z
M 3366 4563 
L 3366 3988 
Q 3128 4100 2886 4159 
Q 2644 4219 2406 4219 
Q 1781 4219 1451 3797 
Q 1122 3375 1075 2522 
Q 1259 2794 1537 2939 
Q 1816 3084 2150 3084 
Q 2853 3084 3261 2657 
Q 3669 2231 3669 1497 
Q 3669 778 3244 343 
Q 2819 -91 2113 -91 
Q 1303 -91 875 529 
Q 447 1150 447 2328 
Q 447 3434 972 4092 
Q 1497 4750 2381 4750 
Q 2619 4750 2861 4703 
Q 3103 4656 3366 4563 
z
" transform="scale(0.015625)"/>
       </defs>
       <use xlink:href="#DejaVuSans-36"/>
       <use xlink:href="#DejaVuSans-30" x="63.623047"/>
       <use xlink:href="#DejaVuSans-30" x="127.246094"/>
       <use xlink:href="#DejaVuSans-30" x="190.869141"/>
      </g>
     </g>
    </g>
    <g id="text_15">
     <!-- Capacity [GW] -->
     <g transform="translate(14.798438 144.099375) rotate(-90) scale(0.1 -0.1)">
      <defs>
       <path id="DejaVuSans-43" d="M 4122 4306 
L 4122 3641 
Q 3803 3938 3442 4084 
Q 3081 4231 2675 4231 
Q 1875 4231 1450 3742 
Q 1025 3253 1025 2328 
Q 1025 1406 1450 917 
Q 1875 428 2675 428 
Q 3081 428 3442 575 
Q 3803 722 4122 1019 
L 4122 359 
Q 3791 134 3420 21 
Q 3050 -91 2638 -91 
Q 1578 -91 968 557 
Q 359 1206 359 2328 
Q 359 3453 968 4101 
Q 1578 4750 2638 4750 
Q 3056 4750 3426 4639 
Q 3797 4528 4122 4306 
z
" transform="scale(0.015625)"/>
       <path id="DejaVuSans-61" d="M 2194 1759 
Q 1497 1759 1228 1600 
Q 959 1441 959 1056 
Q 959 750 1161 570 
Q 1363 391 1709 391 
Q 2188 391 2477 730 
Q 2766 1069 2766 1631 
L 2766 1759 
L 2194 1759 
z
M 3341 1997 
L 3341 0 
L 2766 0 
L 2766 531 
Q 2569 213 2275 61 
Q 1981 -91 1556 -91 
Q 1019 -91 701 211 
Q 384 513 384 1019 
Q 384 1609 779 1909 
Q 1175 2209 1959 2209 
L 2766 2209 
L 2766 2266 
Q 2766 2663 2505 2880 
Q 2244 3097 1772 3097 
Q 1472 3097 1187 3025 
Q 903 2953 641 2809 
L 641 3341 
Q 956 3463 1253 3523 
Q 1550 3584 1831 3584 
Q 2591 3584 2966 3190 
Q 3341 2797 3341 1997 
z
" transform="scale(0.015625)"/>
       <path id="DejaVuSans-70" d="M 1159 525 
L 1159 -1331 
L 581 -1331 
L 581 3500 
L 1159 3500 
L 1159 2969 
Q 1341 3281 1617 3432 
Q 1894 3584 2278 3584 
Q 2916 3584 3314 3078 
Q 3713 2572 3713 1747 
Q 3713 922 3314 415 
Q 2916 -91 2278 -91 
Q 1894 -91 1617 61 
Q 1341 213 1159 525 
z
M 3116 1747 
Q 3116 2381 2855 2742 
Q 2594 3103 2138 3103 
Q 1681 3103 1420 2742 
Q 1159 2381 1159 1747 
Q 1159 1113 1420 752 
Q 1681 391 2138 391 
Q 2594 391 2855 752 
Q 3116 1113 3116 1747 
z
" transform="scale(0.015625)"/>
       <path id="DejaVuSans-63" d="M 3122 3366 
L 3122 2828 
Q 2878 2963 2633 3030 
Q 2388 3097 2138 3097 
Q 1578 3097 1268 2742 
Q 959 2388 959 1747 
Q 959 1106 1268 751 
Q 1578 397 2138 397 
Q 2388 397 2633 464 
Q 2878 531 3122 666 
L 3122 134 
Q 2881 22 2623 -34 
Q 2366 -91 2075 -91 
Q 1284 -91 818 406 
Q 353 903 353 1747 
Q 353 2603 823 3093 
Q 1294 3584 2113 3584 
Q 2378 3584 2631 3529 
Q 2884 3475 3122 3366 
z
" transform="scale(0.015625)"/>
       <path id="DejaVuSans-69" d="M 603 3500 
L 1178 3500 
L 1178 0 
L 603 0 
L 603 3500 
z
M 603 4863 
L 1178 4863 
L 1178 4134 
L 603 4134 
L 603 4863 
z
" transform="scale(0.015625)"/>
       <path id="DejaVuSans-74" d="M 1172 4494 
L 1172 3500 
L 2356 3500 
L 2356 3053 
L 1172 3053 
L 1172 1153 
Q 1172 725 1289 603 
Q 1406 481 1766 481 
L 2356 481 
L 2356 0 
L 1766 0 
Q 1100 0 847 248 
Q 594 497 594 1153 
L 594 3053 
L 172 3053 
L 172 3500 
L 594 3500 
L 594 4494 
L 1172 4494 
z
" transform="scale(0.015625)"/>
       <path id="DejaVuSans-79" d="M 2059 -325 
Q 1816 -950 1584 -1140 
Q 1353 -1331 966 -1331 
L 506 -1331 
L 506 -850 
L 844 -850 
Q 1081 -850 1212 -737 
Q 1344 -625 1503 -206 
L 1606 56 
L 191 3500 
L 800 3500 
L 1894 763 
L 2988 3500 
L 3597 3500 
L 2059 -325 
z
" transform="scale(0.015625)"/>
       <path id="DejaVuSans-20" transform="scale(0.015625)"/>
       <path id="DejaVuSans-5b" d="M 550 4863 
L 1875 4863 
L 1875 4416 
L 1125 4416 
L 1125 -397 
L 1875 -397 
L 1875 -844 
L 550 -844 
L 550 4863 
z
" transform="scale(0.015625)"/>
       <path id="DejaVuSans-47" d="M 3809 666 
L 3809 1919 
L 2778 1919 
L 2778 2438 
L 4434 2438 
L 4434 434 
Q 4069 175 3628 42 
Q 3188 -91 2688 -91 
Q 1594 -91 976 548 
Q 359 1188 359 2328 
Q 359 3472 976 4111 
Q 1594 4750 2688 4750 
Q 3144 4750 3555 4637 
Q 3966 4525 4313 4306 
L 4313 3634 
Q 3963 3931 3569 4081 
Q 3175 4231 2741 4231 
Q 1884 4231 1454 3753 
Q 1025 3275 1025 2328 
Q 1025 1384 1454 906 
Q 1884 428 2741 428 
Q 3075 428 3337 486 
Q 3600 544 3809 666 
z
" transform="scale(0.015625)"/>
       <path id="DejaVuSans-57" d="M 213 4666 
L 850 4666 
L 1831 722 
L 2809 4666 
L 3519 4666 
L 4500 722 
L 5478 4666 
L 6119 4666 
L 4947 0 
L 4153 0 
L 3169 4050 
L 2175 0 
L 1381 0 
L 213 4666 
z
" transform="scale(0.015625)"/>
       <path id="DejaVuSans-5d" d="M 1947 4863 
L 1947 -844 
L 622 -844 
L 622 -397 
L 1369 -397 
L 1369 4416 
L 622 4416 
L 622 4863 
L 1947 4863 
z
" transform="scale(0.015625)"/>
      </defs>
      <use xlink:href="#DejaVuSans-43"/>
      <use xlink:href="#DejaVuSans-61" x="69.824219"/>
      <use xlink:href="#DejaVuSans-70" x="131.103516"/>
      <use xlink:href="#DejaVuSans-61" x="194.580078"/>
      <use xlink:href="#DejaVuSans-63" x="255.859375"/>
      <use xlink:href="#DejaVuSans-69" x="310.839844"/>
      <use xlink:href="#DejaVuSans-74" x="338.623047"/>
      <use xlink:href="#DejaVuSans-79" x="377.832031"/>
      <use xlink:href="#DejaVuSans-20" x="437.011719"/>
      <use xlink:href="#DejaVuSans-5b" x="468.798828"/>
      <use xlink:href="#DejaVuSans-47" x="507.8125"/>
      <use xlink:href="#DejaVuSans-57" x="585.302734"/>
      <use xlink:href="#DejaVuSans-5d" x="684.179688"/>
     </g>
    </g>
   </g>
   <g id="line2d_22">
    <path d="M 53.328125 203.37075 
L 90.014792 203.212544 
L 126.701458 203.037502 
L 163.388125 203.038794 
L 200.074792 203.038794 
L 236.761458 203.038794 
L 273.448125 203.038895 
" clip-path="url(#pb8e95492fb)" style="fill: none; stroke: #08ad97; stroke-width: 1.5; stroke-linecap: square"/>
   </g>
   <g id="line2d_23">
    <path d="M 53.328125 203.370595 
L 90.014792 203.212389 
L 126.701458 203.037346 
L 163.388125 203.038606 
L 200.074792 203.038636 
L 236.761458 203.038622 
L 273.448125 203.038655 
" clip-path="url(#pb8e95492fb)" style="fill: none; stroke: #6895dd; stroke-width: 1.5; stroke-linecap: square"/>
   </g>
   <g id="line2d_24">
    <path d="M 53.328125 203.367629 
L 90.014792 203.209422 
L 126.701458 203.034379 
L 163.388125 203.035605 
L 200.074792 203.035667 
L 236.761458 203.035638 
L 273.448125 203.035607 
" clip-path="url(#pb8e95492fb)" style="fill: none; stroke: #74c6f2; stroke-width: 1.5; stroke-linecap: square"/>
   </g>
   <g id="line2d_25">
    <path d="M 53.328125 202.864792 
L 90.014792 202.358628 
L 126.701458 201.888292 
L 163.388125 201.367455 
L 200.074792 200.453867 
L 236.761458 200.492657 
L 273.448125 200.597125 
" clip-path="url(#pb8e95492fb)" style="fill: none; stroke: #235ebc; stroke-width: 1.5; stroke-linecap: square"/>
   </g>
   <g id="line2d_26">
    <path d="M 53.328125 202.085192 
L 90.014792 200.333053 
L 126.701458 195.39849 
L 163.388125 191.582419 
L 200.074792 182.570722 
L 236.761458 164.89245 
L 273.448125 147.619236 
" clip-path="url(#pb8e95492fb)" style="fill: none; stroke: #f9d002; stroke-width: 1.5; stroke-linecap: square"/>
   </g>
   <g id="line2d_27">
    <path d="M 53.328125 198.908638 
L 90.014792 196.907852 
L 126.701458 191.993384 
L 163.388125 188.44631 
L 200.074792 179.988742 
L 236.761458 162.75976 
L 273.448125 145.262076 
" clip-path="url(#pb8e95492fb)" style="fill: none; stroke: #b20101; stroke-width: 1.5; stroke-linecap: square"/>
   </g>
   <g id="line2d_28">
    <path d="M 53.328125 198.841426 
L 90.014792 196.779245 
L 126.701458 191.864777 
L 163.388125 188.317703 
L 200.074792 179.860135 
L 236.761458 162.631153 
L 273.448125 145.133469 
" clip-path="url(#pb8e95492fb)" style="fill: none; stroke: #707070; stroke-width: 1.5; stroke-linecap: square"/>
   </g>
   <g id="line2d_29">
    <path d="M 53.328125 198.660369 
L 90.014792 196.598188 
L 126.701458 191.68372 
L 163.388125 188.136646 
L 200.074792 179.679078 
L 236.761458 162.450096 
L 273.448125 144.9718 
" clip-path="url(#pb8e95492fb)" style="fill: none; stroke: #808080; stroke-width: 1.5; stroke-linecap: square"/>
   </g>
   <g id="line2d_30">
    <path d="M 53.328125 198.208435 
L 90.014792 195.982877 
L 126.701458 191.068409 
L 163.388125 187.521336 
L 200.074792 179.063768 
L 236.761458 161.834785 
L 273.448125 144.35649 
" clip-path="url(#pb8e95492fb)" style="fill: none; stroke: #606060; stroke-width: 1.5; stroke-linecap: square"/>
   </g>
   <g id="line2d_31">
    <path d="M 53.328125 195.910832 
L 90.014792 193.628241 
L 126.701458 188.713773 
L 163.388125 185.19045 
L 200.074792 176.99344 
L 236.761458 159.82456 
L 273.448125 142.502499 
" clip-path="url(#pb8e95492fb)" style="fill: none; stroke: #909090; stroke-width: 1.5; stroke-linecap: square"/>
   </g>
   <g id="line2d_32">
    <path d="M 53.328125 195.846787 
L 90.014792 193.502801 
L 126.701458 188.588333 
L 163.388125 185.06501 
L 200.074792 176.867999 
L 236.761458 159.699119 
L 273.448125 142.377059 
" clip-path="url(#pb8e95492fb)" style="fill: none; stroke: #505050; stroke-width: 1.5; stroke-linecap: square"/>
   </g>
   <g id="line2d_33">
    <path d="M 53.328125 195.625387 
L 90.014792 193.281401 
L 126.701458 188.366933 
L 163.388125 184.84361 
L 200.074792 176.650542 
L 236.761458 159.481662 
L 273.448125 142.159601 
" clip-path="url(#pb8e95492fb)" style="fill: none; stroke: #9e5a01; stroke-width: 1.5; stroke-linecap: square"/>
   </g>
   <g id="line2d_34">
    <path d="M 53.328125 194.808559 
L 90.014792 192.60002 
L 126.701458 187.814683 
L 163.388125 184.40084 
L 200.074792 176.309771 
L 236.761458 159.395413 
L 273.448125 142.158167 
" clip-path="url(#pb8e95492fb)" style="fill: none; stroke: #262626; stroke-width: 1.5; stroke-linecap: square"/>
   </g>
   <g id="patch_3">
    <path d="M 53.328125 204.879219 
L 53.328125 10.999219 
" style="fill: none; stroke: #000000; stroke-width: 0.8; stroke-linejoin: miter; stroke-linecap: square"/>
   </g>
   <g id="patch_4">
    <path d="M 273.448125 204.879219 
L 273.448125 10.999219 
" style="fill: none; stroke: #000000; stroke-width: 0.8; stroke-linejoin: miter; stroke-linecap: square"/>
   </g>
   <g id="patch_5">
    <path d="M 53.328125 204.879219 
L 273.448125 204.879219 
" style="fill: none; stroke: #000000; stroke-width: 0.8; stroke-linejoin: miter; stroke-linecap: square"/>
   </g>
   <g id="patch_6">
    <path d="M 53.328125 10.999219 
L 273.448125 10.999219 
" style="fill: none; stroke: #000000; stroke-width: 0.8; stroke-linejoin: miter; stroke-linecap: square"/>
   </g>
   <g id="text_16">
    <!-- SEA_AEO8_AIMS_BAU -->
    <g transform="translate(57.730525 24.387219) scale(0.09 -0.09)">
     <defs>
      <path id="DejaVuSans-53" d="M 3425 4513 
L 3425 3897 
Q 3066 4069 2747 4153 
Q 2428 4238 2131 4238 
Q 1616 4238 1336 4038 
Q 1056 3838 1056 3469 
Q 1056 3159 1242 3001 
Q 1428 2844 1947 2747 
L 2328 2669 
Q 3034 2534 3370 2195 
Q 3706 1856 3706 1288 
Q 3706 609 3251 259 
Q 2797 -91 1919 -91 
Q 1588 -91 1214 -16 
Q 841 59 441 206 
L 441 856 
Q 825 641 1194 531 
Q 1563 422 1919 422 
Q 2459 422 2753 634 
Q 3047 847 3047 1241 
Q 3047 1584 2836 1778 
Q 2625 1972 2144 2069 
L 1759 2144 
Q 1053 2284 737 2584 
Q 422 2884 422 3419 
Q 422 4038 858 4394 
Q 1294 4750 2059 4750 
Q 2388 4750 2728 4690 
Q 3069 4631 3425 4513 
z
" transform="scale(0.015625)"/>
      <path id="DejaVuSans-45" d="M 628 4666 
L 3578 4666 
L 3578 4134 
L 1259 4134 
L 1259 2753 
L 3481 2753 
L 3481 2222 
L 1259 2222 
L 1259 531 
L 3634 531 
L 3634 0 
L 628 0 
L 628 4666 
z
" transform="scale(0.015625)"/>
      <path id="DejaVuSans-41" d="M 2188 4044 
L 1331 1722 
L 3047 1722 
L 2188 4044 
z
M 1831 4666 
L 2547 4666 
L 4325 0 
L 3669 0 
L 3244 1197 
L 1141 1197 
L 716 0 
L 50 0 
L 1831 4666 
z
" transform="scale(0.015625)"/>
      <path id="DejaVuSans-5f" d="M 3263 -1063 
L 3263 -1509 
L -63 -1509 
L -63 -1063 
L 3263 -1063 
z
" transform="scale(0.015625)"/>
      <path id="DejaVuSans-4f" d="M 2522 4238 
Q 1834 4238 1429 3725 
Q 1025 3213 1025 2328 
Q 1025 1447 1429 934 
Q 1834 422 2522 422 
Q 3209 422 3611 934 
Q 4013 1447 4013 2328 
Q 4013 3213 3611 3725 
Q 3209 4238 2522 4238 
z
M 2522 4750 
Q 3503 4750 4090 4092 
Q 4678 3434 4678 2328 
Q 4678 1225 4090 567 
Q 3503 -91 2522 -91 
Q 1538 -91 948 565 
Q 359 1222 359 2328 
Q 359 3434 948 4092 
Q 1538 4750 2522 4750 
z
" transform="scale(0.015625)"/>
      <path id="DejaVuSans-38" d="M 2034 2216 
Q 1584 2216 1326 1975 
Q 1069 1734 1069 1313 
Q 1069 891 1326 650 
Q 1584 409 2034 409 
Q 2484 409 2743 651 
Q 3003 894 3003 1313 
Q 3003 1734 2745 1975 
Q 2488 2216 2034 2216 
z
M 1403 2484 
Q 997 2584 770 2862 
Q 544 3141 544 3541 
Q 544 4100 942 4425 
Q 1341 4750 2034 4750 
Q 2731 4750 3128 4425 
Q 3525 4100 3525 3541 
Q 3525 3141 3298 2862 
Q 3072 2584 2669 2484 
Q 3125 2378 3379 2068 
Q 3634 1759 3634 1313 
Q 3634 634 3220 271 
Q 2806 -91 2034 -91 
Q 1263 -91 848 271 
Q 434 634 434 1313 
Q 434 1759 690 2068 
Q 947 2378 1403 2484 
z
M 1172 3481 
Q 1172 3119 1398 2916 
Q 1625 2713 2034 2713 
Q 2441 2713 2670 2916 
Q 2900 3119 2900 3481 
Q 2900 3844 2670 4047 
Q 2441 4250 2034 4250 
Q 1625 4250 1398 4047 
Q 1172 3844 1172 3481 
z
" transform="scale(0.015625)"/>
      <path id="DejaVuSans-49" d="M 628 4666 
L 1259 4666 
L 1259 0 
L 628 0 
L 628 4666 
z
" transform="scale(0.015625)"/>
      <path id="DejaVuSans-4d" d="M 628 4666 
L 1569 4666 
L 2759 1491 
L 3956 4666 
L 4897 4666 
L 4897 0 
L 4281 0 
L 4281 4097 
L 3078 897 
L 2444 897 
L 1241 4097 
L 1241 0 
L 628 0 
L 628 4666 
z
" transform="scale(0.015625)"/>
      <path id="DejaVuSans-42" d="M 1259 2228 
L 1259 519 
L 2272 519 
Q 2781 519 3026 730 
Q 3272 941 3272 1375 
Q 3272 1813 3026 2020 
Q 2781 2228 2272 2228 
L 1259 2228 
z
M 1259 4147 
L 1259 2741 
L 2194 2741 
Q 2656 2741 2882 2914 
Q 3109 3088 3109 3444 
Q 3109 3797 2882 3972 
Q 2656 4147 2194 4147 
L 1259 4147 
z
M 628 4666 
L 2241 4666 
Q 2963 4666 3353 4366 
Q 3744 4066 3744 3513 
Q 3744 3084 3544 2831 
Q 3344 2578 2956 2516 
Q 3422 2416 3680 2098 
Q 3938 1781 3938 1306 
Q 3938 681 3513 340 
Q 3088 0 2303 0 
L 628 0 
L 628 4666 
z
" transform="scale(0.015625)"/>
      <path id="DejaVuSans-55" d="M 556 4666 
L 1191 4666 
L 1191 1831 
Q 1191 1081 1462 751 
Q 1734 422 2344 422 
Q 2950 422 3222 751 
Q 3494 1081 3494 1831 
L 3494 4666 
L 4128 4666 
L 4128 1753 
Q 4128 841 3676 375 
Q 3225 -91 2344 -91 
Q 1459 -91 1007 375 
Q 556 841 556 1753 
L 556 4666 
z
" transform="scale(0.015625)"/>
     </defs>
     <use xlink:href="#DejaVuSans-53"/>
     <use xlink:href="#DejaVuSans-45" x="63.476562"/>
     <use xlink:href="#DejaVuSans-41" x="126.660156"/>
     <use xlink:href="#DejaVuSans-5f" x="195.068359"/>
     <use xlink:href="#DejaVuSans-41" x="245.068359"/>
     <use xlink:href="#DejaVuSans-45" x="313.476562"/>
     <use xlink:href="#DejaVuSans-4f" x="376.660156"/>
     <use xlink:href="#DejaVuSans-38" x="455.371094"/>
     <use xlink:href="#DejaVuSans-5f" x="518.994141"/>
     <use xlink:href="#DejaVuSans-41" x="568.994141"/>
     <use xlink:href="#DejaVuSans-49" x="637.402344"/>
     <use xlink:href="#DejaVuSans-4d" x="666.894531"/>
     <use xlink:href="#DejaVuSans-53" x="753.173828"/>
     <use xlink:href="#DejaVuSans-5f" x="816.650391"/>
     <use xlink:href="#DejaVuSans-42" x="866.650391"/>
     <use xlink:href="#DejaVuSans-41" x="935.253906"/>
     <use xlink:href="#DejaVuSans-55" x="1003.662109"/>
    </g>
   </g>
  </g>
  <g id="axes_2">
   <g id="patch_7">
    <path d="M 335.928125 204.879219 
L 556.048125 204.879219 
L 556.048125 10.999219 
L 335.928125 10.999219 
z
" style="fill: #ffffff"/>
   </g>
   <g id="PolyCollection_14">
    <defs>
     <path id="md17f6a7fdc" d="M 335.928125 -52.57527 
L 335.928125 -52.575333 
L 372.614792 -52.575333 
L 409.301458 -52.575333 
L 445.988125 -52.575333 
L 482.674792 -52.575333 
L 519.361458 -52.575333 
L 556.048125 -52.575333 
L 556.048125 -50.699986 
L 556.048125 -50.699986 
L 519.361458 -51.43201 
L 482.674792 -52.19303 
L 445.988125 -52.511429 
L 409.301458 -52.561979 
L 372.614792 -52.575158 
L 335.928125 -52.57527 
z
" style="stroke: #b8ea04"/>
    </defs>
    <g clip-path="url(#pca5e683ee0)">
     <use xlink:href="#md17f6a7fdc" x="0" y="244.529219" style="fill: #b8ea04; stroke: #b8ea04"/>
    </g>
   </g>
   <g id="PolyCollection_15">
    <defs>
     <path id="m00ef418351" d="M 335.928125 -63.133491 
L 335.928125 -52.575333 
L 372.614792 -52.575333 
L 409.301458 -52.575333 
L 445.988125 -52.575333 
L 482.674792 -52.575333 
L 519.361458 -52.575333 
L 556.048125 -52.575333 
L 556.048125 -65.446408 
L 556.048125 -65.446408 
L 519.361458 -65.46183 
L 482.674792 -65.458821 
L 445.988125 -65.463933 
L 409.301458 -65.473636 
L 372.614792 -64.247319 
L 335.928125 -63.133491 
z
" style="stroke: #08ad97"/>
    </defs>
    <g clip-path="url(#pca5e683ee0)">
     <use xlink:href="#m00ef418351" x="0" y="244.529219" style="fill: #08ad97; stroke: #08ad97"/>
    </g>
   </g>
   <g id="PolyCollection_16">
    <defs>
     <path id="mbe3c73ecbe" d="M 335.928125 -52.575261 
L 335.928125 -52.57527 
L 372.614792 -52.575158 
L 409.301458 -52.561979 
L 445.988125 -52.511429 
L 482.674792 -52.19303 
L 519.361458 -51.43201 
L 556.048125 -50.699986 
L 556.048125 -50.699434 
L 556.048125 -50.699434 
L 519.361458 -51.431878 
L 482.674792 -52.193005 
L 445.988125 -52.511239 
L 409.301458 -52.561962 
L 372.614792 -52.575149 
L 335.928125 -52.575261 
z
" style="stroke: #ea048a"/>
    </defs>
    <g clip-path="url(#pca5e683ee0)">
     <use xlink:href="#mbe3c73ecbe" x="0" y="244.529219" style="fill: #ea048a; stroke: #ea048a"/>
    </g>
   </g>
   <g id="PolyCollection_17">
    <defs>
     <path id="m43ebc73d35" d="M 335.928125 -63.133878 
L 335.928125 -63.133491 
L 372.614792 -64.247319 
L 409.301458 -65.473636 
L 445.988125 -65.463933 
L 482.674792 -65.458821 
L 519.361458 -65.46183 
L 556.048125 -65.446408 
L 556.048125 -65.446805 
L 556.048125 -65.446805 
L 519.361458 -65.462203 
L 482.674792 -65.459187 
L 445.988125 -65.464318 
L 409.301458 -65.474025 
L 372.614792 -64.247715 
L 335.928125 -63.133878 
z
" style="stroke: #6895dd"/>
    </defs>
    <g clip-path="url(#pca5e683ee0)">
     <use xlink:href="#m43ebc73d35" x="0" y="244.529219" style="fill: #6895dd; stroke: #6895dd"/>
    </g>
   </g>
   <g id="PolyCollection_18">
    <defs>
     <path id="m7ee496fac7" d="M 335.928125 -63.140466 
L 335.928125 -63.133878 
L 372.614792 -64.247715 
L 409.301458 -65.474025 
L 445.988125 -65.464318 
L 482.674792 -65.459187 
L 519.361458 -65.462203 
L 556.048125 -65.446805 
L 556.048125 -65.453031 
L 556.048125 -65.453031 
L 519.361458 -65.46852 
L 482.674792 -65.465442 
L 445.988125 -65.470731 
L 409.301458 -65.480694 
L 372.614792 -64.254594 
L 335.928125 -63.140466 
z
" style="stroke: #74c6f2"/>
    </defs>
    <g clip-path="url(#pca5e683ee0)">
     <use xlink:href="#m7ee496fac7" x="0" y="244.529219" style="fill: #74c6f2; stroke: #74c6f2"/>
    </g>
   </g>
   <g id="PolyCollection_19">
    <defs>
     <path id="med7e996cc8" d="M 335.928125 -65.015095 
L 335.928125 -63.140466 
L 372.614792 -64.254594 
L 409.301458 -65.480694 
L 445.988125 -65.470731 
L 482.674792 -65.465442 
L 519.361458 -65.46852 
L 556.048125 -65.453031 
L 556.048125 -72.953064 
L 556.048125 -72.953064 
L 519.361458 -73.52897 
L 482.674792 -74.09909 
L 445.988125 -71.23724 
L 409.301458 -69.486548 
L 372.614792 -67.307887 
L 335.928125 -65.015095 
z
" style="stroke: #235ebc"/>
    </defs>
    <g clip-path="url(#pca5e683ee0)">
     <use xlink:href="#med7e996cc8" x="0" y="244.529219" style="fill: #235ebc; stroke: #235ebc"/>
    </g>
   </g>
   <g id="PolyCollection_20">
    <defs>
     <path id="mc09940ef33" d="M 335.928125 -65.803361 
L 335.928125 -65.015095 
L 372.614792 -67.307887 
L 409.301458 -69.486548 
L 445.988125 -71.23724 
L 482.674792 -74.09909 
L 519.361458 -73.52897 
L 556.048125 -72.953064 
L 556.048125 -127.669174 
L 556.048125 -127.669174 
L 519.361458 -110.750687 
L 482.674792 -93.236865 
L 445.988125 -81.865546 
L 409.301458 -76.558332 
L 372.614792 -69.474323 
L 335.928125 -65.803361 
z
" style="stroke: #f9d002"/>
    </defs>
    <g clip-path="url(#pca5e683ee0)">
     <use xlink:href="#mc09940ef33" x="0" y="244.529219" style="fill: #f9d002; stroke: #f9d002"/>
    </g>
   </g>
   <g id="PolyCollection_21">
    <defs>
     <path id="md2b9e06f70" d="M 335.928125 -66.143936 
L 335.928125 -65.803361 
L 372.614792 -69.474323 
L 409.301458 -76.558332 
L 445.988125 -81.865546 
L 482.674792 -93.236865 
L 519.361458 -110.750687 
L 556.048125 -127.669174 
L 556.048125 -130.087007 
L 556.048125 -130.087007 
L 519.361458 -112.835054 
L 482.674792 -96.961879 
L 445.988125 -85.078818 
L 409.301458 -78.165296 
L 372.614792 -70.551133 
L 335.928125 -66.143936 
z
" style="stroke: #b20101"/>
    </defs>
    <g clip-path="url(#pca5e683ee0)">
     <use xlink:href="#md2b9e06f70" x="0" y="244.529219" style="fill: #b20101; stroke: #b20101"/>
    </g>
   </g>
   <g id="PolyCollection_22">
    <defs>
     <path id="mea7d20abd6" d="M 335.928125 -66.151369 
L 335.928125 -66.143936 
L 372.614792 -70.551133 
L 409.301458 -78.165296 
L 445.988125 -85.078818 
L 482.674792 -96.961879 
L 519.361458 -112.835054 
L 556.048125 -130.087007 
L 556.048125 -130.472519 
L 556.048125 -130.472519 
L 519.361458 -113.228631 
L 482.674792 -97.398779 
L 445.988125 -85.43248 
L 409.301458 -78.378706 
L 372.614792 -70.7299 
L 335.928125 -66.151369 
z
" style="stroke: #707070"/>
    </defs>
    <g clip-path="url(#pca5e683ee0)">
     <use xlink:href="#mea7d20abd6" x="0" y="244.529219" style="fill: #707070; stroke: #707070"/>
    </g>
   </g>
   <g id="PolyCollection_23">
    <defs>
     <path id="m6f1cc1b571" d="M 335.928125 -66.890422 
L 335.928125 -66.151369 
L 372.614792 -70.7299 
L 409.301458 -78.378706 
L 445.988125 -85.43248 
L 482.674792 -97.398779 
L 519.361458 -113.228631 
L 556.048125 -130.472519 
L 556.048125 -131.231484 
L 556.048125 -131.231484 
L 519.361458 -114.08156 
L 482.674792 -98.3456 
L 445.988125 -86.31984 
L 409.301458 -79.144452 
L 372.614792 -71.515659 
L 335.928125 -66.890422 
z
" style="stroke: #808080"/>
    </defs>
    <g clip-path="url(#pca5e683ee0)">
     <use xlink:href="#m6f1cc1b571" x="0" y="244.529219" style="fill: #808080; stroke: #808080"/>
    </g>
   </g>
   <g id="PolyCollection_24">
    <defs>
     <path id="m806fafd242" d="M 335.928125 -68.968375 
L 335.928125 -66.890422 
L 372.614792 -71.515659 
L 409.301458 -79.144452 
L 445.988125 -86.31984 
L 482.674792 -98.3456 
L 519.361458 -114.08156 
L 556.048125 -131.231484 
L 556.048125 -134.23842 
L 556.048125 -134.23842 
L 519.361458 -117.193841 
L 482.674792 -101.475681 
L 445.988125 -89.435772 
L 409.301458 -82.09234 
L 372.614792 -74.455545 
L 335.928125 -68.968375 
z
" style="stroke: #606060"/>
    </defs>
    <g clip-path="url(#pca5e683ee0)">
     <use xlink:href="#m806fafd242" x="0" y="244.529219" style="fill: #606060; stroke: #606060"/>
    </g>
   </g>
   <g id="PolyCollection_25">
    <defs>
     <path id="m83a26e6833" d="M 335.928125 -78.643493 
L 335.928125 -68.968375 
L 372.614792 -74.455545 
L 409.301458 -82.09234 
L 445.988125 -89.435772 
L 482.674792 -101.475681 
L 519.361458 -117.193841 
L 556.048125 -134.23842 
L 556.048125 -143.492434 
L 556.048125 -143.492434 
L 519.361458 -127.017792 
L 482.674792 -111.688039 
L 445.988125 -100.665985 
L 409.301458 -92.874535 
L 372.614792 -86.258878 
L 335.928125 -78.643493 
z
" style="stroke: #909090"/>
    </defs>
    <g clip-path="url(#pca5e683ee0)">
     <use xlink:href="#m83a26e6833" x="0" y="244.529219" style="fill: #909090; stroke: #909090"/>
    </g>
   </g>
   <g id="PolyCollection_26">
    <defs>
     <path id="mae1e4243ae" d="M 335.928125 -79.09232 
L 335.928125 -78.643493 
L 372.614792 -86.258878 
L 409.301458 -92.874535 
L 445.988125 -100.665985 
L 482.674792 -111.688039 
L 519.361458 -127.017792 
L 556.048125 -143.492434 
L 556.048125 -144.303904 
L 556.048125 -144.303904 
L 519.361458 -127.808806 
L 482.674792 -112.480555 
L 445.988125 -101.480764 
L 409.301458 -93.726349 
L 372.614792 -87.137963 
L 335.928125 -79.09232 
z
" style="stroke: #505050"/>
    </defs>
    <g clip-path="url(#pca5e683ee0)">
     <use xlink:href="#mae1e4243ae" x="0" y="244.529219" style="fill: #505050; stroke: #505050"/>
    </g>
   </g>
   <g id="PolyCollection_27">
    <defs>
     <path id="m896a16947d" d="M 335.928125 -80.558486 
L 335.928125 -79.09232 
L 372.614792 -87.137963 
L 409.301458 -93.726349 
L 445.988125 -101.480764 
L 482.674792 -112.480555 
L 519.361458 -127.808806 
L 556.048125 -144.303904 
L 556.048125 -145.654857 
L 556.048125 -145.654857 
L 519.361458 -129.210181 
L 482.674792 -113.899869 
L 445.988125 -102.968219 
L 409.301458 -95.21534 
L 372.614792 -88.612842 
L 335.928125 -80.558486 
z
" style="stroke: #9e5a01"/>
    </defs>
    <g clip-path="url(#pca5e683ee0)">
     <use xlink:href="#m896a16947d" x="0" y="244.529219" style="fill: #9e5a01; stroke: #9e5a01"/>
    </g>
   </g>
   <g id="PolyCollection_28">
    <defs>
     <path id="mfa78e6b49e" d="M 335.928125 -80.558486 
L 335.928125 -80.558486 
L 372.614792 -88.612842 
L 409.301458 -95.21534 
L 445.988125 -102.968219 
L 482.674792 -113.899869 
L 519.361458 -129.210181 
L 556.048125 -145.654857 
L 556.048125 -145.654857 
L 556.048125 -145.654857 
L 519.361458 -129.210181 
L 482.674792 -113.899869 
L 445.988125 -102.968219 
L 409.301458 -95.21534 
L 372.614792 -88.612842 
L 335.928125 -80.558486 
z
" style="stroke: #70af1d"/>
    </defs>
    <g clip-path="url(#pca5e683ee0)">
     <use xlink:href="#mfa78e6b49e" x="0" y="244.529219" style="fill: #70af1d; stroke: #70af1d"/>
    </g>
   </g>
   <g id="PolyCollection_29">
    <defs>
     <path id="m992051157c" d="M 335.928125 -80.558588 
L 335.928125 -80.558486 
L 372.614792 -88.612842 
L 409.301458 -95.21534 
L 445.988125 -102.968219 
L 482.674792 -113.899869 
L 519.361458 -129.210181 
L 556.048125 -145.654857 
L 556.048125 -145.65497 
L 556.048125 -145.65497 
L 519.361458 -129.218245 
L 482.674792 -113.917072 
L 445.988125 -102.973538 
L 409.301458 -95.230525 
L 372.614792 -88.612991 
L 335.928125 -80.558588 
z
" style="stroke: #262626"/>
    </defs>
    <g clip-path="url(#pca5e683ee0)">
     <use xlink:href="#m992051157c" x="0" y="244.529219" style="fill: #262626; stroke: #262626"/>
    </g>
   </g>
   <g id="matplotlib.axis_3">
    <g id="xtick_8">
     <g id="line2d_35">
      <g>
       <use xlink:href="#m6e50eec19a" x="335.928125" y="204.879219" style="stroke: #000000; stroke-width: 0.8"/>
      </g>
     </g>
     <g id="text_17">
      <!-- 2020 -->
      <g transform="translate(338.6875 237.329219) rotate(-90) scale(0.1 -0.1)">
       <use xlink:href="#DejaVuSans-32"/>
       <use xlink:href="#DejaVuSans-30" x="63.623047"/>
       <use xlink:href="#DejaVuSans-32" x="127.246094"/>
       <use xlink:href="#DejaVuSans-30" x="190.869141"/>
      </g>
     </g>
    </g>
    <g id="xtick_9">
     <g id="line2d_36">
      <g>
       <use xlink:href="#m6e50eec19a" x="372.614792" y="204.879219" style="stroke: #000000; stroke-width: 0.8"/>
      </g>
     </g>
     <g id="text_18">
      <!-- 2025 -->
      <g transform="translate(375.374167 237.329219) rotate(-90) scale(0.1 -0.1)">
       <use xlink:href="#DejaVuSans-32"/>
       <use xlink:href="#DejaVuSans-30" x="63.623047"/>
       <use xlink:href="#DejaVuSans-32" x="127.246094"/>
       <use xlink:href="#DejaVuSans-35" x="190.869141"/>
      </g>
     </g>
    </g>
    <g id="xtick_10">
     <g id="line2d_37">
      <g>
       <use xlink:href="#m6e50eec19a" x="409.301458" y="204.879219" style="stroke: #000000; stroke-width: 0.8"/>
      </g>
     </g>
     <g id="text_19">
      <!-- 2030 -->
      <g transform="translate(412.060833 237.329219) rotate(-90) scale(0.1 -0.1)">
       <use xlink:href="#DejaVuSans-32"/>
       <use xlink:href="#DejaVuSans-30" x="63.623047"/>
       <use xlink:href="#DejaVuSans-33" x="127.246094"/>
       <use xlink:href="#DejaVuSans-30" x="190.869141"/>
      </g>
     </g>
    </g>
    <g id="xtick_11">
     <g id="line2d_38">
      <g>
       <use xlink:href="#m6e50eec19a" x="445.988125" y="204.879219" style="stroke: #000000; stroke-width: 0.8"/>
      </g>
     </g>
     <g id="text_20">
      <!-- 2035 -->
      <g transform="translate(448.7475 237.329219) rotate(-90) scale(0.1 -0.1)">
       <use xlink:href="#DejaVuSans-32"/>
       <use xlink:href="#DejaVuSans-30" x="63.623047"/>
       <use xlink:href="#DejaVuSans-33" x="127.246094"/>
       <use xlink:href="#DejaVuSans-35" x="190.869141"/>
      </g>
     </g>
    </g>
    <g id="xtick_12">
     <g id="line2d_39">
      <g>
       <use xlink:href="#m6e50eec19a" x="482.674792" y="204.879219" style="stroke: #000000; stroke-width: 0.8"/>
      </g>
     </g>
     <g id="text_21">
      <!-- 2040 -->
      <g transform="translate(485.434167 237.329219) rotate(-90) scale(0.1 -0.1)">
       <use xlink:href="#DejaVuSans-32"/>
       <use xlink:href="#DejaVuSans-30" x="63.623047"/>
       <use xlink:href="#DejaVuSans-34" x="127.246094"/>
       <use xlink:href="#DejaVuSans-30" x="190.869141"/>
      </g>
     </g>
    </g>
    <g id="xtick_13">
     <g id="line2d_40">
      <g>
       <use xlink:href="#m6e50eec19a" x="519.361458" y="204.879219" style="stroke: #000000; stroke-width: 0.8"/>
      </g>
     </g>
     <g id="text_22">
      <!-- 2045 -->
      <g transform="translate(522.120833 237.329219) rotate(-90) scale(0.1 -0.1)">
       <use xlink:href="#DejaVuSans-32"/>
       <use xlink:href="#DejaVuSans-30" x="63.623047"/>
       <use xlink:href="#DejaVuSans-34" x="127.246094"/>
       <use xlink:href="#DejaVuSans-35" x="190.869141"/>
      </g>
     </g>
    </g>
    <g id="xtick_14">
     <g id="line2d_41">
      <g>
       <use xlink:href="#m6e50eec19a" x="556.048125" y="204.879219" style="stroke: #000000; stroke-width: 0.8"/>
      </g>
     </g>
     <g id="text_23">
      <!-- 2050 -->
      <g transform="translate(558.8075 237.329219) rotate(-90) scale(0.1 -0.1)">
       <use xlink:href="#DejaVuSans-32"/>
       <use xlink:href="#DejaVuSans-30" x="63.623047"/>
       <use xlink:href="#DejaVuSans-35" x="127.246094"/>
       <use xlink:href="#DejaVuSans-30" x="190.869141"/>
      </g>
     </g>
    </g>
   </g>
   <g id="matplotlib.axis_4">
    <g id="ytick_8">
     <g id="line2d_42">
      <path d="M 335.928125 191.953885 
L 556.048125 191.953885 
" clip-path="url(#pca5e683ee0)" style="fill: none; stroke: #b0b0b0; stroke-width: 0.8; stroke-linecap: square"/>
     </g>
     <g id="line2d_43">
      <g>
       <use xlink:href="#m59801b962b" x="335.928125" y="191.953885" style="stroke: #000000; stroke-width: 0.8"/>
      </g>
     </g>
     <g id="text_24">
      <!-- 0 -->
      <g transform="translate(322.565625 195.753104) scale(0.1 -0.1)">
       <use xlink:href="#DejaVuSans-30"/>
      </g>
     </g>
    </g>
    <g id="ytick_9">
     <g id="line2d_44">
      <path d="M 335.928125 166.103219 
L 556.048125 166.103219 
" clip-path="url(#pca5e683ee0)" style="fill: none; stroke: #b0b0b0; stroke-width: 0.8; stroke-linecap: square"/>
     </g>
     <g id="line2d_45">
      <g>
       <use xlink:href="#m59801b962b" x="335.928125" y="166.103219" style="stroke: #000000; stroke-width: 0.8"/>
      </g>
     </g>
     <g id="text_25">
      <!-- 1000 -->
      <g transform="translate(303.478125 169.902438) scale(0.1 -0.1)">
       <use xlink:href="#DejaVuSans-31"/>
       <use xlink:href="#DejaVuSans-30" x="63.623047"/>
       <use xlink:href="#DejaVuSans-30" x="127.246094"/>
       <use xlink:href="#DejaVuSans-30" x="190.869141"/>
      </g>
     </g>
    </g>
    <g id="ytick_10">
     <g id="line2d_46">
      <path d="M 335.928125 140.252552 
L 556.048125 140.252552 
" clip-path="url(#pca5e683ee0)" style="fill: none; stroke: #b0b0b0; stroke-width: 0.8; stroke-linecap: square"/>
     </g>
     <g id="line2d_47">
      <g>
       <use xlink:href="#m59801b962b" x="335.928125" y="140.252552" style="stroke: #000000; stroke-width: 0.8"/>
      </g>
     </g>
     <g id="text_26">
      <!-- 2000 -->
      <g transform="translate(303.478125 144.051771) scale(0.1 -0.1)">
       <use xlink:href="#DejaVuSans-32"/>
       <use xlink:href="#DejaVuSans-30" x="63.623047"/>
       <use xlink:href="#DejaVuSans-30" x="127.246094"/>
       <use xlink:href="#DejaVuSans-30" x="190.869141"/>
      </g>
     </g>
    </g>
    <g id="ytick_11">
     <g id="line2d_48">
      <path d="M 335.928125 114.401885 
L 556.048125 114.401885 
" clip-path="url(#pca5e683ee0)" style="fill: none; stroke: #b0b0b0; stroke-width: 0.8; stroke-linecap: square"/>
     </g>
     <g id="line2d_49">
      <g>
       <use xlink:href="#m59801b962b" x="335.928125" y="114.401885" style="stroke: #000000; stroke-width: 0.8"/>
      </g>
     </g>
     <g id="text_27">
      <!-- 3000 -->
      <g transform="translate(303.478125 118.201104) scale(0.1 -0.1)">
       <use xlink:href="#DejaVuSans-33"/>
       <use xlink:href="#DejaVuSans-30" x="63.623047"/>
       <use xlink:href="#DejaVuSans-30" x="127.246094"/>
       <use xlink:href="#DejaVuSans-30" x="190.869141"/>
      </g>
     </g>
    </g>
    <g id="ytick_12">
     <g id="line2d_50">
      <path d="M 335.928125 88.551219 
L 556.048125 88.551219 
" clip-path="url(#pca5e683ee0)" style="fill: none; stroke: #b0b0b0; stroke-width: 0.8; stroke-linecap: square"/>
     </g>
     <g id="line2d_51">
      <g>
       <use xlink:href="#m59801b962b" x="335.928125" y="88.551219" style="stroke: #000000; stroke-width: 0.8"/>
      </g>
     </g>
     <g id="text_28">
      <!-- 4000 -->
      <g transform="translate(303.478125 92.350437) scale(0.1 -0.1)">
       <use xlink:href="#DejaVuSans-34"/>
       <use xlink:href="#DejaVuSans-30" x="63.623047"/>
       <use xlink:href="#DejaVuSans-30" x="127.246094"/>
       <use xlink:href="#DejaVuSans-30" x="190.869141"/>
      </g>
     </g>
    </g>
    <g id="ytick_13">
     <g id="line2d_52">
      <path d="M 335.928125 62.700552 
L 556.048125 62.700552 
" clip-path="url(#pca5e683ee0)" style="fill: none; stroke: #b0b0b0; stroke-width: 0.8; stroke-linecap: square"/>
     </g>
     <g id="line2d_53">
      <g>
       <use xlink:href="#m59801b962b" x="335.928125" y="62.700552" style="stroke: #000000; stroke-width: 0.8"/>
      </g>
     </g>
     <g id="text_29">
      <!-- 5000 -->
      <g transform="translate(303.478125 66.499771) scale(0.1 -0.1)">
       <use xlink:href="#DejaVuSans-35"/>
       <use xlink:href="#DejaVuSans-30" x="63.623047"/>
       <use xlink:href="#DejaVuSans-30" x="127.246094"/>
       <use xlink:href="#DejaVuSans-30" x="190.869141"/>
      </g>
     </g>
    </g>
    <g id="ytick_14">
     <g id="line2d_54">
      <path d="M 335.928125 36.849885 
L 556.048125 36.849885 
" clip-path="url(#pca5e683ee0)" style="fill: none; stroke: #b0b0b0; stroke-width: 0.8; stroke-linecap: square"/>
     </g>
     <g id="line2d_55">
      <g>
       <use xlink:href="#m59801b962b" x="335.928125" y="36.849885" style="stroke: #000000; stroke-width: 0.8"/>
      </g>
     </g>
     <g id="text_30">
      <!-- 6000 -->
      <g transform="translate(303.478125 40.649104) scale(0.1 -0.1)">
       <use xlink:href="#DejaVuSans-36"/>
       <use xlink:href="#DejaVuSans-30" x="63.623047"/>
       <use xlink:href="#DejaVuSans-30" x="127.246094"/>
       <use xlink:href="#DejaVuSans-30" x="190.869141"/>
      </g>
     </g>
    </g>
    <g id="ytick_15">
     <g id="line2d_56">
      <path d="M 335.928125 10.999219 
L 556.048125 10.999219 
" clip-path="url(#pca5e683ee0)" style="fill: none; stroke: #b0b0b0; stroke-width: 0.8; stroke-linecap: square"/>
     </g>
     <g id="line2d_57">
      <g>
       <use xlink:href="#m59801b962b" x="335.928125" y="10.999219" style="stroke: #000000; stroke-width: 0.8"/>
      </g>
     </g>
     <g id="text_31">
      <!-- 7000 -->
      <g transform="translate(303.478125 14.798438) scale(0.1 -0.1)">
       <defs>
        <path id="DejaVuSans-37" d="M 525 4666 
L 3525 4666 
L 3525 4397 
L 1831 0 
L 1172 0 
L 2766 4134 
L 525 4134 
L 525 4666 
z
" transform="scale(0.015625)"/>
       </defs>
       <use xlink:href="#DejaVuSans-37"/>
       <use xlink:href="#DejaVuSans-30" x="63.623047"/>
       <use xlink:href="#DejaVuSans-30" x="127.246094"/>
       <use xlink:href="#DejaVuSans-30" x="190.869141"/>
      </g>
     </g>
    </g>
    <g id="text_32">
     <!-- Energy [TWh/a] -->
     <g transform="translate(297.398437 146.850938) rotate(-90) scale(0.1 -0.1)">
      <defs>
       <path id="DejaVuSans-6e" d="M 3513 2113 
L 3513 0 
L 2938 0 
L 2938 2094 
Q 2938 2591 2744 2837 
Q 2550 3084 2163 3084 
Q 1697 3084 1428 2787 
Q 1159 2491 1159 1978 
L 1159 0 
L 581 0 
L 581 3500 
L 1159 3500 
L 1159 2956 
Q 1366 3272 1645 3428 
Q 1925 3584 2291 3584 
Q 2894 3584 3203 3211 
Q 3513 2838 3513 2113 
z
" transform="scale(0.015625)"/>
       <path id="DejaVuSans-65" d="M 3597 1894 
L 3597 1613 
L 953 1613 
Q 991 1019 1311 708 
Q 1631 397 2203 397 
Q 2534 397 2845 478 
Q 3156 559 3463 722 
L 3463 178 
Q 3153 47 2828 -22 
Q 2503 -91 2169 -91 
Q 1331 -91 842 396 
Q 353 884 353 1716 
Q 353 2575 817 3079 
Q 1281 3584 2069 3584 
Q 2775 3584 3186 3129 
Q 3597 2675 3597 1894 
z
M 3022 2063 
Q 3016 2534 2758 2815 
Q 2500 3097 2075 3097 
Q 1594 3097 1305 2825 
Q 1016 2553 972 2059 
L 3022 2063 
z
" transform="scale(0.015625)"/>
       <path id="DejaVuSans-72" d="M 2631 2963 
Q 2534 3019 2420 3045 
Q 2306 3072 2169 3072 
Q 1681 3072 1420 2755 
Q 1159 2438 1159 1844 
L 1159 0 
L 581 0 
L 581 3500 
L 1159 3500 
L 1159 2956 
Q 1341 3275 1631 3429 
Q 1922 3584 2338 3584 
Q 2397 3584 2469 3576 
Q 2541 3569 2628 3553 
L 2631 2963 
z
" transform="scale(0.015625)"/>
       <path id="DejaVuSans-67" d="M 2906 1791 
Q 2906 2416 2648 2759 
Q 2391 3103 1925 3103 
Q 1463 3103 1205 2759 
Q 947 2416 947 1791 
Q 947 1169 1205 825 
Q 1463 481 1925 481 
Q 2391 481 2648 825 
Q 2906 1169 2906 1791 
z
M 3481 434 
Q 3481 -459 3084 -895 
Q 2688 -1331 1869 -1331 
Q 1566 -1331 1297 -1286 
Q 1028 -1241 775 -1147 
L 775 -588 
Q 1028 -725 1275 -790 
Q 1522 -856 1778 -856 
Q 2344 -856 2625 -561 
Q 2906 -266 2906 331 
L 2906 616 
Q 2728 306 2450 153 
Q 2172 0 1784 0 
Q 1141 0 747 490 
Q 353 981 353 1791 
Q 353 2603 747 3093 
Q 1141 3584 1784 3584 
Q 2172 3584 2450 3431 
Q 2728 3278 2906 2969 
L 2906 3500 
L 3481 3500 
L 3481 434 
z
" transform="scale(0.015625)"/>
       <path id="DejaVuSans-54" d="M -19 4666 
L 3928 4666 
L 3928 4134 
L 2272 4134 
L 2272 0 
L 1638 0 
L 1638 4134 
L -19 4134 
L -19 4666 
z
" transform="scale(0.015625)"/>
       <path id="DejaVuSans-68" d="M 3513 2113 
L 3513 0 
L 2938 0 
L 2938 2094 
Q 2938 2591 2744 2837 
Q 2550 3084 2163 3084 
Q 1697 3084 1428 2787 
Q 1159 2491 1159 1978 
L 1159 0 
L 581 0 
L 581 4863 
L 1159 4863 
L 1159 2956 
Q 1366 3272 1645 3428 
Q 1925 3584 2291 3584 
Q 2894 3584 3203 3211 
Q 3513 2838 3513 2113 
z
" transform="scale(0.015625)"/>
       <path id="DejaVuSans-2f" d="M 1625 4666 
L 2156 4666 
L 531 -594 
L 0 -594 
L 1625 4666 
z
" transform="scale(0.015625)"/>
      </defs>
      <use xlink:href="#DejaVuSans-45"/>
      <use xlink:href="#DejaVuSans-6e" x="63.183594"/>
      <use xlink:href="#DejaVuSans-65" x="126.5625"/>
      <use xlink:href="#DejaVuSans-72" x="188.085938"/>
      <use xlink:href="#DejaVuSans-67" x="227.449219"/>
      <use xlink:href="#DejaVuSans-79" x="290.925781"/>
      <use xlink:href="#DejaVuSans-20" x="350.105469"/>
      <use xlink:href="#DejaVuSans-5b" x="381.892578"/>
      <use xlink:href="#DejaVuSans-54" x="420.90625"/>
      <use xlink:href="#DejaVuSans-57" x="481.990234"/>
      <use xlink:href="#DejaVuSans-68" x="580.867188"/>
      <use xlink:href="#DejaVuSans-2f" x="644.246094"/>
      <use xlink:href="#DejaVuSans-61" x="677.9375"/>
      <use xlink:href="#DejaVuSans-5d" x="739.216797"/>
     </g>
    </g>
   </g>
   <g id="line2d_58">
    <path d="M 335.928125 191.953949 
L 372.614792 191.95406 
L 409.301458 191.96724 
L 445.988125 192.01779 
L 482.674792 192.336188 
L 519.361458 193.097209 
L 556.048125 193.829233 
" clip-path="url(#pca5e683ee0)" style="fill: none; stroke: #b8ea04; stroke-width: 1.5; stroke-linecap: square"/>
   </g>
   <g id="line2d_59">
    <path d="M 335.928125 181.395728 
L 372.614792 180.2819 
L 409.301458 179.055583 
L 445.988125 179.065286 
L 482.674792 179.070398 
L 519.361458 179.067389 
L 556.048125 179.082811 
" clip-path="url(#pca5e683ee0)" style="fill: none; stroke: #08ad97; stroke-width: 1.5; stroke-linecap: square"/>
   </g>
   <g id="line2d_60">
    <path d="M 335.928125 191.953958 
L 372.614792 191.95407 
L 409.301458 191.967257 
L 445.988125 192.01798 
L 482.674792 192.336213 
L 519.361458 193.09734 
L 556.048125 193.829785 
" clip-path="url(#pca5e683ee0)" style="fill: none; stroke: #ea048a; stroke-width: 1.5; stroke-linecap: square"/>
   </g>
   <g id="line2d_61">
    <path d="M 335.928125 181.395341 
L 372.614792 180.281504 
L 409.301458 179.055194 
L 445.988125 179.0649 
L 482.674792 179.070032 
L 519.361458 179.067016 
L 556.048125 179.082414 
" clip-path="url(#pca5e683ee0)" style="fill: none; stroke: #6895dd; stroke-width: 1.5; stroke-linecap: square"/>
   </g>
   <g id="line2d_62">
    <path d="M 335.928125 181.388752 
L 372.614792 180.274625 
L 409.301458 179.048524 
L 445.988125 179.058487 
L 482.674792 179.063777 
L 519.361458 179.060699 
L 556.048125 179.076188 
" clip-path="url(#pca5e683ee0)" style="fill: none; stroke: #74c6f2; stroke-width: 1.5; stroke-linecap: square"/>
   </g>
   <g id="line2d_63">
    <path d="M 335.928125 179.514124 
L 372.614792 177.221331 
L 409.301458 175.042671 
L 445.988125 173.291978 
L 482.674792 170.430128 
L 519.361458 171.000249 
L 556.048125 171.576155 
" clip-path="url(#pca5e683ee0)" style="fill: none; stroke: #235ebc; stroke-width: 1.5; stroke-linecap: square"/>
   </g>
   <g id="line2d_64">
    <path d="M 335.928125 178.725858 
L 372.614792 175.054896 
L 409.301458 167.970887 
L 445.988125 162.663672 
L 482.674792 151.292353 
L 519.361458 133.778532 
L 556.048125 116.860045 
" clip-path="url(#pca5e683ee0)" style="fill: none; stroke: #f9d002; stroke-width: 1.5; stroke-linecap: square"/>
   </g>
   <g id="line2d_65">
    <path d="M 335.928125 178.385282 
L 372.614792 173.978085 
L 409.301458 166.363923 
L 445.988125 159.450401 
L 482.674792 147.56734 
L 519.361458 131.694165 
L 556.048125 114.442212 
" clip-path="url(#pca5e683ee0)" style="fill: none; stroke: #b20101; stroke-width: 1.5; stroke-linecap: square"/>
   </g>
   <g id="line2d_66">
    <path d="M 335.928125 178.37785 
L 372.614792 173.799318 
L 409.301458 166.150513 
L 445.988125 159.096739 
L 482.674792 147.13044 
L 519.361458 131.300588 
L 556.048125 114.0567 
" clip-path="url(#pca5e683ee0)" style="fill: none; stroke: #707070; stroke-width: 1.5; stroke-linecap: square"/>
   </g>
   <g id="line2d_67">
    <path d="M 335.928125 177.638797 
L 372.614792 173.01356 
L 409.301458 165.384767 
L 445.988125 158.209379 
L 482.674792 146.183619 
L 519.361458 130.447659 
L 556.048125 113.297735 
" clip-path="url(#pca5e683ee0)" style="fill: none; stroke: #808080; stroke-width: 1.5; stroke-linecap: square"/>
   </g>
   <g id="line2d_68">
    <path d="M 335.928125 175.560844 
L 372.614792 170.073673 
L 409.301458 162.436879 
L 445.988125 155.093447 
L 482.674792 143.053538 
L 519.361458 127.335378 
L 556.048125 110.290799 
" clip-path="url(#pca5e683ee0)" style="fill: none; stroke: #606060; stroke-width: 1.5; stroke-linecap: square"/>
   </g>
   <g id="line2d_69">
    <path d="M 335.928125 165.885726 
L 372.614792 158.270341 
L 409.301458 151.654684 
L 445.988125 143.863233 
L 482.674792 132.84118 
L 519.361458 117.511426 
L 556.048125 101.036785 
" clip-path="url(#pca5e683ee0)" style="fill: none; stroke: #909090; stroke-width: 1.5; stroke-linecap: square"/>
   </g>
   <g id="line2d_70">
    <path d="M 335.928125 165.436899 
L 372.614792 157.391256 
L 409.301458 150.802869 
L 445.988125 143.048455 
L 482.674792 132.048664 
L 519.361458 116.720412 
L 556.048125 100.225315 
" clip-path="url(#pca5e683ee0)" style="fill: none; stroke: #505050; stroke-width: 1.5; stroke-linecap: square"/>
   </g>
   <g id="line2d_71">
    <path d="M 335.928125 163.970733 
L 372.614792 155.916377 
L 409.301458 149.313879 
L 445.988125 141.561 
L 482.674792 130.62935 
L 519.361458 115.319038 
L 556.048125 98.874362 
" clip-path="url(#pca5e683ee0)" style="fill: none; stroke: #9e5a01; stroke-width: 1.5; stroke-linecap: square"/>
   </g>
   <g id="line2d_72">
    <path d="M 335.928125 163.970733 
L 372.614792 155.916377 
L 409.301458 149.313879 
L 445.988125 141.561 
L 482.674792 130.62935 
L 519.361458 115.319038 
L 556.048125 98.874362 
" clip-path="url(#pca5e683ee0)" style="fill: none; stroke: #70af1d; stroke-width: 1.5; stroke-linecap: square"/>
   </g>
   <g id="line2d_73">
    <path d="M 335.928125 163.970631 
L 372.614792 155.916227 
L 409.301458 149.298694 
L 445.988125 141.55568 
L 482.674792 130.612147 
L 519.361458 115.310973 
L 556.048125 98.874249 
" clip-path="url(#pca5e683ee0)" style="fill: none; stroke: #262626; stroke-width: 1.5; stroke-linecap: square"/>
   </g>
   <g id="line2d_74">
    <path d="M 335.928125 163.434396 
L 372.614792 155.437234 
L 409.301458 148.91511 
L 445.988125 141.457193 
L 482.674792 130.977333 
L 519.361458 116.454428 
L 556.048125 100.750148 
" clip-path="url(#pca5e683ee0)" style="fill: none; stroke-dasharray: 7.4,3.2; stroke-dashoffset: 0; stroke: #000000; stroke-width: 2"/>
   </g>
   <g id="patch_8">
    <path d="M 335.928125 204.879219 
L 335.928125 10.999219 
" style="fill: none; stroke: #000000; stroke-width: 0.8; stroke-linejoin: miter; stroke-linecap: square"/>
   </g>
   <g id="patch_9">
    <path d="M 556.048125 204.879219 
L 556.048125 10.999219 
" style="fill: none; stroke: #000000; stroke-width: 0.8; stroke-linejoin: miter; stroke-linecap: square"/>
   </g>
   <g id="patch_10">
    <path d="M 335.928125 204.879219 
L 556.048125 204.879219 
" style="fill: none; stroke: #000000; stroke-width: 0.8; stroke-linejoin: miter; stroke-linecap: square"/>
   </g>
   <g id="patch_11">
    <path d="M 335.928125 10.999219 
L 556.048125 10.999219 
" style="fill: none; stroke: #000000; stroke-width: 0.8; stroke-linejoin: miter; stroke-linecap: square"/>
   </g>
   <g id="patch_12">
    <path d="M 466.042811 116.845484 
Q 469.358003 119.534017 472.673195 122.22255 
L 473.932951 120.669162 
Q 477.806345 125.419767 481.679739 130.170372 
Q 476.23165 127.361502 470.783561 124.552632 
L 472.043317 122.999244 
Q 468.728125 120.310711 465.412932 117.622178 
L 466.042811 116.845484 
z
" style="stroke: #000000; stroke-linecap: round"/>
   </g>
   <g id="text_33">
    <!-- Load/a -->
    <g transform="translate(429.243594 112.725104) scale(0.1 -0.1)">
     <defs>
      <path id="DejaVuSans-4c" d="M 628 4666 
L 1259 4666 
L 1259 531 
L 3531 531 
L 3531 0 
L 628 0 
L 628 4666 
z
" transform="scale(0.015625)"/>
      <path id="DejaVuSans-6f" d="M 1959 3097 
Q 1497 3097 1228 2736 
Q 959 2375 959 1747 
Q 959 1119 1226 758 
Q 1494 397 1959 397 
Q 2419 397 2687 759 
Q 2956 1122 2956 1747 
Q 2956 2369 2687 2733 
Q 2419 3097 1959 3097 
z
M 1959 3584 
Q 2709 3584 3137 3096 
Q 3566 2609 3566 1747 
Q 3566 888 3137 398 
Q 2709 -91 1959 -91 
Q 1206 -91 779 398 
Q 353 888 353 1747 
Q 353 2609 779 3096 
Q 1206 3584 1959 3584 
z
" transform="scale(0.015625)"/>
      <path id="DejaVuSans-64" d="M 2906 2969 
L 2906 4863 
L 3481 4863 
L 3481 0 
L 2906 0 
L 2906 525 
Q 2725 213 2448 61 
Q 2172 -91 1784 -91 
Q 1150 -91 751 415 
Q 353 922 353 1747 
Q 353 2572 751 3078 
Q 1150 3584 1784 3584 
Q 2172 3584 2448 3432 
Q 2725 3281 2906 2969 
z
M 947 1747 
Q 947 1113 1208 752 
Q 1469 391 1925 391 
Q 2381 391 2643 752 
Q 2906 1113 2906 1747 
Q 2906 2381 2643 2742 
Q 2381 3103 1925 3103 
Q 1469 3103 1208 2742 
Q 947 2381 947 1747 
z
" transform="scale(0.015625)"/>
     </defs>
     <use xlink:href="#DejaVuSans-4c"/>
     <use xlink:href="#DejaVuSans-6f" x="53.962891"/>
     <use xlink:href="#DejaVuSans-61" x="115.144531"/>
     <use xlink:href="#DejaVuSans-64" x="176.423828"/>
     <use xlink:href="#DejaVuSans-2f" x="239.900391"/>
     <use xlink:href="#DejaVuSans-61" x="273.591797"/>
    </g>
   </g>
   <g id="text_34">
    <!-- SEA_AEO8_AIMS_BAU -->
    <g transform="translate(340.330525 24.387219) scale(0.09 -0.09)">
     <use xlink:href="#DejaVuSans-53"/>
     <use xlink:href="#DejaVuSans-45" x="63.476562"/>
     <use xlink:href="#DejaVuSans-41" x="126.660156"/>
     <use xlink:href="#DejaVuSans-5f" x="195.068359"/>
     <use xlink:href="#DejaVuSans-41" x="245.068359"/>
     <use xlink:href="#DejaVuSans-45" x="313.476562"/>
     <use xlink:href="#DejaVuSans-4f" x="376.660156"/>
     <use xlink:href="#DejaVuSans-38" x="455.371094"/>
     <use xlink:href="#DejaVuSans-5f" x="518.994141"/>
     <use xlink:href="#DejaVuSans-41" x="568.994141"/>
     <use xlink:href="#DejaVuSans-49" x="637.402344"/>
     <use xlink:href="#DejaVuSans-4d" x="666.894531"/>
     <use xlink:href="#DejaVuSans-53" x="753.173828"/>
     <use xlink:href="#DejaVuSans-5f" x="816.650391"/>
     <use xlink:href="#DejaVuSans-42" x="866.650391"/>
     <use xlink:href="#DejaVuSans-41" x="935.253906"/>
     <use xlink:href="#DejaVuSans-55" x="1003.662109"/>
    </g>
   </g>
  </g>
 </g>
 <defs>
  <clipPath id="pb8e95492fb">
   <rect x="53.328125" y="10.999219" width="220.12" height="193.88"/>
  </clipPath>
  <clipPath id="pca5e683ee0">
   <rect x="335.928125" y="10.999219" width="220.12" height="193.88"/>
  </clipPath>
 </defs>
</svg>
