<?xml version="1.0" encoding="utf-8" standalone="no"?>
<!DOCTYPE svg PUBLIC "-//W3C//DTD SVG 1.1//EN"
  "http://www.w3.org/Graphics/SVG/1.1/DTD/svg11.dtd">
<svg xmlns:xlink="http://www.w3.org/1999/xlink" width="566.639063pt" height="377.39625pt" viewBox="0 0 566.639063 377.39625" xmlns="http://www.w3.org/2000/svg" version="1.1">
 <metadata>
  <rdf:RDF xmlns:dc="http://purl.org/dc/elements/1.1/" xmlns:cc="http://creativecommons.org/ns#" xmlns:rdf="http://www.w3.org/1999/02/22-rdf-syntax-ns#">
   <cc:Work>
    <dc:type rdf:resource="http://purl.org/dc/dcmitype/StillImage"/>
    <dc:date>2024-10-17T21:17:20.048126</dc:date>
    <dc:format>image/svg+xml</dc:format>
    <dc:creator>
     <cc:Agent>
      <dc:title>Matplotlib v3.5.2, https://matplotlib.org/</dc:title>
     </cc:Agent>
    </dc:creator>
   </cc:Work>
  </rdf:RDF>
 </metadata>
 <defs>
  <style type="text/css">*{stroke-linejoin: round; stroke-linecap: butt}</style>
 </defs>
 <g id="figure_1">
  <g id="patch_1">
   <path d="M 0 377.39625 
L 566.639063 377.39625 
L 566.639063 0 
L 0 0 
z
" style="fill: #ffffff"/>
  </g>
  <g id="axes_1">
   <g id="patch_2">
    <path d="M 118.40625 339.84 
L 453.20625 339.84 
L 453.20625 7.2 
L 118.40625 7.2 
z
" style="fill: #ffffff"/>
   </g>
   <g id="patch_3">
    <path d="M 118.40625 334.445838 
L 118.40625 334.445838 
L 118.40625 318.263351 
L 118.40625 318.263351 
z
" clip-path="url(#p7c97b32f93)"/>
   </g>
   <g id="patch_4">
    <path d="M 118.40625 316.465297 
L 136.220121 316.465297 
L 136.220121 300.282811 
L 118.40625 300.282811 
z
" clip-path="url(#p7c97b32f93)"/>
   </g>
   <g id="patch_5">
    <path d="M 118.40625 298.484757 
L 118.40625 298.484757 
L 118.40625 282.30227 
L 118.40625 282.30227 
z
" clip-path="url(#p7c97b32f93)"/>
   </g>
   <g id="patch_6">
    <path d="M 118.40625 280.504216 
L 118.40625 280.504216 
L 118.40625 264.32173 
L 118.40625 264.32173 
z
" clip-path="url(#p7c97b32f93)"/>
   </g>
   <g id="patch_7">
    <path d="M 118.40625 262.523676 
L 120.418324 262.523676 
L 120.418324 246.341189 
L 118.40625 246.341189 
z
" clip-path="url(#p7c97b32f93)"/>
   </g>
   <g id="patch_8">
    <path d="M 118.40625 244.543135 
L 131.371258 244.543135 
L 131.371258 228.360649 
L 118.40625 228.360649 
z
" clip-path="url(#p7c97b32f93)"/>
   </g>
   <g id="patch_9">
    <path d="M 118.40625 226.562595 
L 121.825528 226.562595 
L 121.825528 210.380108 
L 118.40625 210.380108 
z
" clip-path="url(#p7c97b32f93)"/>
   </g>
   <g id="patch_10">
    <path d="M 118.40625 208.582054 
L 118.40625 208.582054 
L 118.40625 192.399568 
L 118.40625 192.399568 
z
" clip-path="url(#p7c97b32f93)"/>
   </g>
   <g id="patch_11">
    <path d="M 118.40625 190.601514 
L 137.549084 190.601514 
L 137.549084 174.419027 
L 118.40625 174.419027 
z
" clip-path="url(#p7c97b32f93)"/>
   </g>
   <g id="patch_12">
    <path d="M 118.40625 172.620973 
L 157.597835 172.620973 
L 157.597835 156.438486 
L 118.40625 156.438486 
z
" clip-path="url(#p7c97b32f93)"/>
   </g>
   <g id="patch_13">
    <path d="M 118.40625 154.640432 
L 118.40625 154.640432 
L 118.40625 138.457946 
L 118.40625 138.457946 
z
" clip-path="url(#p7c97b32f93)"/>
   </g>
   <g id="patch_14">
    <path d="M 118.40625 136.659892 
L 119.866747 136.659892 
L 119.866747 120.477405 
L 118.40625 120.477405 
z
" clip-path="url(#p7c97b32f93)"/>
   </g>
   <g id="patch_15">
    <path d="M 118.40625 118.679351 
L 131.790302 118.679351 
L 131.790302 102.496865 
L 118.40625 102.496865 
z
" clip-path="url(#p7c97b32f93)"/>
   </g>
   <g id="patch_16">
    <path d="M 118.40625 100.698811 
L 120.684883 100.698811 
L 120.684883 84.516324 
L 118.40625 84.516324 
z
" clip-path="url(#p7c97b32f93)"/>
   </g>
   <g id="patch_17">
    <path d="M 118.40625 82.71827 
L 191.526199 82.71827 
L 191.526199 66.535784 
L 118.40625 66.535784 
z
" clip-path="url(#p7c97b32f93)"/>
   </g>
   <g id="patch_18">
    <path d="M 118.40625 64.73773 
L 208.464586 64.73773 
L 208.464586 48.555243 
L 118.40625 48.555243 
z
" clip-path="url(#p7c97b32f93)"/>
   </g>
   <g id="patch_19">
    <path d="M 118.40625 46.757189 
L 124.869057 46.757189 
L 124.869057 30.574703 
L 118.40625 30.574703 
z
" clip-path="url(#p7c97b32f93)"/>
   </g>
   <g id="patch_20">
    <path d="M 118.40625 28.776649 
L 125.80421 28.776649 
L 125.80421 12.594162 
L 118.40625 12.594162 
z
" clip-path="url(#p7c97b32f93)"/>
   </g>
   <g id="patch_21">
    <path d="M 118.40625 334.445838 
L 118.40625 334.445838 
L 118.40625 318.263351 
L 118.40625 318.263351 
z
" clip-path="url(#p7c97b32f93)" style="fill: #242424"/>
   </g>
   <g id="patch_22">
    <path d="M 118.40625 316.465297 
L 138.893394 316.465297 
L 138.893394 300.282811 
L 118.40625 300.282811 
z
" clip-path="url(#p7c97b32f93)" style="fill: #242424"/>
   </g>
   <g id="patch_23">
    <path d="M 118.40625 298.484757 
L 118.40625 298.484757 
L 118.40625 282.30227 
L 118.40625 282.30227 
z
" clip-path="url(#p7c97b32f93)" style="fill: #242424"/>
   </g>
   <g id="patch_24">
    <path d="M 118.40625 280.504216 
L 118.40625 280.504216 
L 118.40625 264.32173 
L 118.40625 264.32173 
z
" clip-path="url(#p7c97b32f93)" style="fill: #242424"/>
   </g>
   <g id="patch_25">
    <path d="M 118.40625 262.523676 
L 120.025155 262.523676 
L 120.025155 246.341189 
L 118.40625 246.341189 
z
" clip-path="url(#p7c97b32f93)" style="fill: #242424"/>
   </g>
   <g id="patch_26">
    <path d="M 118.40625 244.543135 
L 127.50471 244.543135 
L 127.50471 228.360649 
L 118.40625 228.360649 
z
" clip-path="url(#p7c97b32f93)" style="fill: #242424"/>
   </g>
   <g id="patch_27">
    <path d="M 118.40625 226.562595 
L 120.279101 226.562595 
L 120.279101 210.380108 
L 118.40625 210.380108 
z
" clip-path="url(#p7c97b32f93)" style="fill: #242424"/>
   </g>
   <g id="patch_28">
    <path d="M 118.40625 208.582054 
L 118.40625 208.582054 
L 118.40625 192.399568 
L 118.40625 192.399568 
z
" clip-path="url(#p7c97b32f93)" style="fill: #242424"/>
   </g>
   <g id="patch_29">
    <path d="M 118.40625 190.601514 
L 137.575512 190.601514 
L 137.575512 174.419027 
L 118.40625 174.419027 
z
" clip-path="url(#p7c97b32f93)" style="fill: #242424"/>
   </g>
   <g id="patch_30">
    <path d="M 118.40625 172.620973 
L 156.749338 172.620973 
L 156.749338 156.438486 
L 118.40625 156.438486 
z
" clip-path="url(#p7c97b32f93)" style="fill: #242424"/>
   </g>
   <g id="patch_31">
    <path d="M 118.40625 154.640432 
L 118.40625 154.640432 
L 118.40625 138.457946 
L 118.40625 138.457946 
z
" clip-path="url(#p7c97b32f93)" style="fill: #242424"/>
   </g>
   <g id="patch_32">
    <path d="M 118.40625 136.659892 
L 120.960139 136.659892 
L 120.960139 120.477405 
L 118.40625 120.477405 
z
" clip-path="url(#p7c97b32f93)" style="fill: #242424"/>
   </g>
   <g id="patch_33">
    <path d="M 118.40625 118.679351 
L 128.395741 118.679351 
L 128.395741 102.496865 
L 118.40625 102.496865 
z
" clip-path="url(#p7c97b32f93)" style="fill: #242424"/>
   </g>
   <g id="patch_34">
    <path d="M 118.40625 100.698811 
L 119.619657 100.698811 
L 119.619657 84.516324 
L 118.40625 84.516324 
z
" clip-path="url(#p7c97b32f93)" style="fill: #242424"/>
   </g>
   <g id="patch_35">
    <path d="M 118.40625 82.71827 
L 171.225893 82.71827 
L 171.225893 66.535784 
L 118.40625 66.535784 
z
" clip-path="url(#p7c97b32f93)" style="fill: #242424"/>
   </g>
   <g id="patch_36">
    <path d="M 118.40625 64.73773 
L 176.716965 64.73773 
L 176.716965 48.555243 
L 118.40625 48.555243 
z
" clip-path="url(#p7c97b32f93)" style="fill: #242424"/>
   </g>
   <g id="patch_37">
    <path d="M 118.40625 46.757189 
L 123.048182 46.757189 
L 123.048182 30.574703 
L 118.40625 30.574703 
z
" clip-path="url(#p7c97b32f93)" style="fill: #242424"/>
   </g>
   <g id="patch_38">
    <path d="M 118.40625 28.776649 
L 125.335401 28.776649 
L 125.335401 12.594162 
L 118.40625 12.594162 
z
" clip-path="url(#p7c97b32f93)" style="fill: #242424"/>
   </g>
   <g id="patch_39">
    <path d="M 118.40625 334.445838 
L 118.40625 334.445838 
L 118.40625 318.263351 
L 118.40625 318.263351 
z
" clip-path="url(#p7c97b32f93)" style="fill: #434343"/>
   </g>
   <g id="patch_40">
    <path d="M 118.40625 316.465297 
L 138.027667 316.465297 
L 138.027667 300.282811 
L 118.40625 300.282811 
z
" clip-path="url(#p7c97b32f93)" style="fill: #434343"/>
   </g>
   <g id="patch_41">
    <path d="M 118.40625 298.484757 
L 118.40625 298.484757 
L 118.40625 282.30227 
L 118.40625 282.30227 
z
" clip-path="url(#p7c97b32f93)" style="fill: #434343"/>
   </g>
   <g id="patch_42">
    <path d="M 118.40625 280.504216 
L 118.40625 280.504216 
L 118.40625 264.32173 
L 118.40625 264.32173 
z
" clip-path="url(#p7c97b32f93)" style="fill: #434343"/>
   </g>
   <g id="patch_43">
    <path d="M 118.40625 262.523676 
L 119.85678 262.523676 
L 119.85678 246.341189 
L 118.40625 246.341189 
z
" clip-path="url(#p7c97b32f93)" style="fill: #434343"/>
   </g>
   <g id="patch_44">
    <path d="M 118.40625 244.543135 
L 127.823601 244.543135 
L 127.823601 228.360649 
L 118.40625 228.360649 
z
" clip-path="url(#p7c97b32f93)" style="fill: #434343"/>
   </g>
   <g id="patch_45">
    <path d="M 118.40625 226.562595 
L 120.547958 226.562595 
L 120.547958 210.380108 
L 118.40625 210.380108 
z
" clip-path="url(#p7c97b32f93)" style="fill: #434343"/>
   </g>
   <g id="patch_46">
    <path d="M 118.40625 208.582054 
L 118.40625 208.582054 
L 118.40625 192.399568 
L 118.40625 192.399568 
z
" clip-path="url(#p7c97b32f93)" style="fill: #434343"/>
   </g>
   <g id="patch_47">
    <path d="M 118.40625 190.601514 
L 137.589943 190.601514 
L 137.589943 174.419027 
L 118.40625 174.419027 
z
" clip-path="url(#p7c97b32f93)" style="fill: #434343"/>
   </g>
   <g id="patch_48">
    <path d="M 118.40625 172.620973 
L 158.928336 172.620973 
L 158.928336 156.438486 
L 118.40625 156.438486 
z
" clip-path="url(#p7c97b32f93)" style="fill: #434343"/>
   </g>
   <g id="patch_49">
    <path d="M 118.40625 154.640432 
L 118.40625 154.640432 
L 118.40625 138.457946 
L 118.40625 138.457946 
z
" clip-path="url(#p7c97b32f93)" style="fill: #434343"/>
   </g>
   <g id="patch_50">
    <path d="M 118.40625 136.659892 
L 120.960226 136.659892 
L 120.960226 120.477405 
L 118.40625 120.477405 
z
" clip-path="url(#p7c97b32f93)" style="fill: #434343"/>
   </g>
   <g id="patch_51">
    <path d="M 118.40625 118.679351 
L 127.01667 118.679351 
L 127.01667 102.496865 
L 118.40625 102.496865 
z
" clip-path="url(#p7c97b32f93)" style="fill: #434343"/>
   </g>
   <g id="patch_52">
    <path d="M 118.40625 100.698811 
L 119.418963 100.698811 
L 119.418963 84.516324 
L 118.40625 84.516324 
z
" clip-path="url(#p7c97b32f93)" style="fill: #434343"/>
   </g>
   <g id="patch_53">
    <path d="M 118.40625 82.71827 
L 167.207729 82.71827 
L 167.207729 66.535784 
L 118.40625 66.535784 
z
" clip-path="url(#p7c97b32f93)" style="fill: #434343"/>
   </g>
   <g id="patch_54">
    <path d="M 118.40625 64.73773 
L 159.967786 64.73773 
L 159.967786 48.555243 
L 118.40625 48.555243 
z
" clip-path="url(#p7c97b32f93)" style="fill: #434343"/>
   </g>
   <g id="patch_55">
    <path d="M 118.40625 46.757189 
L 124.130279 46.757189 
L 124.130279 30.574703 
L 118.40625 30.574703 
z
" clip-path="url(#p7c97b32f93)" style="fill: #434343"/>
   </g>
   <g id="patch_56">
    <path d="M 118.40625 28.776649 
L 124.492009 28.776649 
L 124.492009 12.594162 
L 118.40625 12.594162 
z
" clip-path="url(#p7c97b32f93)" style="fill: #434343"/>
   </g>
   <g id="patch_57">
    <path d="M 118.40625 334.445838 
L 118.40625 334.445838 
L 118.40625 318.263351 
L 118.40625 318.263351 
z
" clip-path="url(#p7c97b32f93)" style="fill: #656565"/>
   </g>
   <g id="patch_58">
    <path d="M 118.40625 316.465297 
L 138.769256 316.465297 
L 138.769256 300.282811 
L 118.40625 300.282811 
z
" clip-path="url(#p7c97b32f93)" style="fill: #656565"/>
   </g>
   <g id="patch_59">
    <path d="M 118.40625 298.484757 
L 118.40625 298.484757 
L 118.40625 282.30227 
L 118.40625 282.30227 
z
" clip-path="url(#p7c97b32f93)" style="fill: #656565"/>
   </g>
   <g id="patch_60">
    <path d="M 118.40625 280.504216 
L 118.40625 280.504216 
L 118.40625 264.32173 
L 118.40625 264.32173 
z
" clip-path="url(#p7c97b32f93)" style="fill: #656565"/>
   </g>
   <g id="patch_61">
    <path d="M 118.40625 262.523676 
L 119.942082 262.523676 
L 119.942082 246.341189 
L 118.40625 246.341189 
z
" clip-path="url(#p7c97b32f93)" style="fill: #656565"/>
   </g>
   <g id="patch_62">
    <path d="M 118.40625 244.543135 
L 126.679011 244.543135 
L 126.679011 228.360649 
L 118.40625 228.360649 
z
" clip-path="url(#p7c97b32f93)" style="fill: #656565"/>
   </g>
   <g id="patch_63">
    <path d="M 118.40625 226.562595 
L 121.052303 226.562595 
L 121.052303 210.380108 
L 118.40625 210.380108 
z
" clip-path="url(#p7c97b32f93)" style="fill: #656565"/>
   </g>
   <g id="patch_64">
    <path d="M 118.40625 208.582054 
L 118.40625 208.582054 
L 118.40625 192.399568 
L 118.40625 192.399568 
z
" clip-path="url(#p7c97b32f93)" style="fill: #656565"/>
   </g>
   <g id="patch_65">
    <path d="M 118.40625 190.601514 
L 137.591075 190.601514 
L 137.591075 174.419027 
L 118.40625 174.419027 
z
" clip-path="url(#p7c97b32f93)" style="fill: #656565"/>
   </g>
   <g id="patch_66">
    <path d="M 118.40625 172.620973 
L 162.231204 172.620973 
L 162.231204 156.438486 
L 118.40625 156.438486 
z
" clip-path="url(#p7c97b32f93)" style="fill: #656565"/>
   </g>
   <g id="patch_67">
    <path d="M 118.40625 154.640432 
L 118.40625 154.640432 
L 118.40625 138.457946 
L 118.40625 138.457946 
z
" clip-path="url(#p7c97b32f93)" style="fill: #656565"/>
   </g>
   <g id="patch_68">
    <path d="M 118.40625 136.659892 
L 120.960188 136.659892 
L 120.960188 120.477405 
L 118.40625 120.477405 
z
" clip-path="url(#p7c97b32f93)" style="fill: #656565"/>
   </g>
   <g id="patch_69">
    <path d="M 118.40625 118.679351 
L 127.029803 118.679351 
L 127.029803 102.496865 
L 118.40625 102.496865 
z
" clip-path="url(#p7c97b32f93)" style="fill: #656565"/>
   </g>
   <g id="patch_70">
    <path d="M 118.40625 100.698811 
L 119.392882 100.698811 
L 119.392882 84.516324 
L 118.40625 84.516324 
z
" clip-path="url(#p7c97b32f93)" style="fill: #656565"/>
   </g>
   <g id="patch_71">
    <path d="M 118.40625 82.71827 
L 165.868607 82.71827 
L 165.868607 66.535784 
L 118.40625 66.535784 
z
" clip-path="url(#p7c97b32f93)" style="fill: #656565"/>
   </g>
   <g id="patch_72">
    <path d="M 118.40625 64.73773 
L 156.556282 64.73773 
L 156.556282 48.555243 
L 118.40625 48.555243 
z
" clip-path="url(#p7c97b32f93)" style="fill: #656565"/>
   </g>
   <g id="patch_73">
    <path d="M 118.40625 46.757189 
L 123.70316 46.757189 
L 123.70316 30.574703 
L 118.40625 30.574703 
z
" clip-path="url(#p7c97b32f93)" style="fill: #656565"/>
   </g>
   <g id="patch_74">
    <path d="M 118.40625 28.776649 
L 124.895189 28.776649 
L 124.895189 12.594162 
L 118.40625 12.594162 
z
" clip-path="url(#p7c97b32f93)" style="fill: #656565"/>
   </g>
   <g id="patch_75">
    <path d="M 118.40625 334.445838 
L 118.40625 334.445838 
L 118.40625 318.263351 
L 118.40625 318.263351 
z
" clip-path="url(#p7c97b32f93)" style="fill: #898989"/>
   </g>
   <g id="patch_76">
    <path d="M 118.40625 316.465297 
L 135.819074 316.465297 
L 135.819074 300.282811 
L 118.40625 300.282811 
z
" clip-path="url(#p7c97b32f93)" style="fill: #898989"/>
   </g>
   <g id="patch_77">
    <path d="M 118.40625 298.484757 
L 118.40625 298.484757 
L 118.40625 282.30227 
L 118.40625 282.30227 
z
" clip-path="url(#p7c97b32f93)" style="fill: #898989"/>
   </g>
   <g id="patch_78">
    <path d="M 118.40625 280.504216 
L 118.40625 280.504216 
L 118.40625 264.32173 
L 118.40625 264.32173 
z
" clip-path="url(#p7c97b32f93)" style="fill: #898989"/>
   </g>
   <g id="patch_79">
    <path d="M 118.40625 262.523676 
L 119.901562 262.523676 
L 119.901562 246.341189 
L 118.40625 246.341189 
z
" clip-path="url(#p7c97b32f93)" style="fill: #898989"/>
   </g>
   <g id="patch_80">
    <path d="M 118.40625 244.543135 
L 126.634147 244.543135 
L 126.634147 228.360649 
L 118.40625 228.360649 
z
" clip-path="url(#p7c97b32f93)" style="fill: #898989"/>
   </g>
   <g id="patch_81">
    <path d="M 118.40625 226.562595 
L 121.249248 226.562595 
L 121.249248 210.380108 
L 118.40625 210.380108 
z
" clip-path="url(#p7c97b32f93)" style="fill: #898989"/>
   </g>
   <g id="patch_82">
    <path d="M 118.40625 208.582054 
L 118.40625 208.582054 
L 118.40625 192.399568 
L 118.40625 192.399568 
z
" clip-path="url(#p7c97b32f93)" style="fill: #898989"/>
   </g>
   <g id="patch_83">
    <path d="M 118.40625 190.601514 
L 137.610559 190.601514 
L 137.610559 174.419027 
L 118.40625 174.419027 
z
" clip-path="url(#p7c97b32f93)" style="fill: #898989"/>
   </g>
   <g id="patch_84">
    <path d="M 118.40625 172.620973 
L 163.827428 172.620973 
L 163.827428 156.438486 
L 118.40625 156.438486 
z
" clip-path="url(#p7c97b32f93)" style="fill: #898989"/>
   </g>
   <g id="patch_85">
    <path d="M 118.40625 154.640432 
L 118.40625 154.640432 
L 118.40625 138.457946 
L 118.40625 138.457946 
z
" clip-path="url(#p7c97b32f93)" style="fill: #898989"/>
   </g>
   <g id="patch_86">
    <path d="M 118.40625 136.659892 
L 120.960114 136.659892 
L 120.960114 120.477405 
L 118.40625 120.477405 
z
" clip-path="url(#p7c97b32f93)" style="fill: #898989"/>
   </g>
   <g id="patch_87">
    <path d="M 118.40625 118.679351 
L 126.908813 118.679351 
L 126.908813 102.496865 
L 118.40625 102.496865 
z
" clip-path="url(#p7c97b32f93)" style="fill: #898989"/>
   </g>
   <g id="patch_88">
    <path d="M 118.40625 100.698811 
L 119.610059 100.698811 
L 119.610059 84.516324 
L 118.40625 84.516324 
z
" clip-path="url(#p7c97b32f93)" style="fill: #898989"/>
   </g>
   <g id="patch_89">
    <path d="M 118.40625 82.71827 
L 160.337987 82.71827 
L 160.337987 66.535784 
L 118.40625 66.535784 
z
" clip-path="url(#p7c97b32f93)" style="fill: #898989"/>
   </g>
   <g id="patch_90">
    <path d="M 118.40625 64.73773 
L 147.844702 64.73773 
L 147.844702 48.555243 
L 118.40625 48.555243 
z
" clip-path="url(#p7c97b32f93)" style="fill: #898989"/>
   </g>
   <g id="patch_91">
    <path d="M 118.40625 46.757189 
L 122.682344 46.757189 
L 122.682344 30.574703 
L 118.40625 30.574703 
z
" clip-path="url(#p7c97b32f93)" style="fill: #898989"/>
   </g>
   <g id="patch_92">
    <path d="M 118.40625 28.776649 
L 124.428932 28.776649 
L 124.428932 12.594162 
L 118.40625 12.594162 
z
" clip-path="url(#p7c97b32f93)" style="fill: #898989"/>
   </g>
   <g id="patch_93">
    <path d="M 118.40625 334.445838 
L 118.40625 334.445838 
L 118.40625 318.263351 
L 118.40625 318.263351 
z
" clip-path="url(#p7c97b32f93)" style="fill: #afafaf"/>
   </g>
   <g id="patch_94">
    <path d="M 118.40625 316.465297 
L 135.813955 316.465297 
L 135.813955 300.282811 
L 118.40625 300.282811 
z
" clip-path="url(#p7c97b32f93)" style="fill: #afafaf"/>
   </g>
   <g id="patch_95">
    <path d="M 118.40625 298.484757 
L 118.40625 298.484757 
L 118.40625 282.30227 
L 118.40625 282.30227 
z
" clip-path="url(#p7c97b32f93)" style="fill: #afafaf"/>
   </g>
   <g id="patch_96">
    <path d="M 118.40625 280.504216 
L 118.40625 280.504216 
L 118.40625 264.32173 
L 118.40625 264.32173 
z
" clip-path="url(#p7c97b32f93)" style="fill: #afafaf"/>
   </g>
   <g id="patch_97">
    <path d="M 118.40625 262.523676 
L 119.763013 262.523676 
L 119.763013 246.341189 
L 118.40625 246.341189 
z
" clip-path="url(#p7c97b32f93)" style="fill: #afafaf"/>
   </g>
   <g id="patch_98">
    <path d="M 118.40625 244.543135 
L 126.443289 244.543135 
L 126.443289 228.360649 
L 118.40625 228.360649 
z
" clip-path="url(#p7c97b32f93)" style="fill: #afafaf"/>
   </g>
   <g id="patch_99">
    <path d="M 118.40625 226.562595 
L 119.417035 226.562595 
L 119.417035 210.380108 
L 118.40625 210.380108 
z
" clip-path="url(#p7c97b32f93)" style="fill: #afafaf"/>
   </g>
   <g id="patch_100">
    <path d="M 118.40625 208.582054 
L 118.40625 208.582054 
L 118.40625 192.399568 
L 118.40625 192.399568 
z
" clip-path="url(#p7c97b32f93)" style="fill: #afafaf"/>
   </g>
   <g id="patch_101">
    <path d="M 118.40625 190.601514 
L 137.454758 190.601514 
L 137.454758 174.419027 
L 118.40625 174.419027 
z
" clip-path="url(#p7c97b32f93)" style="fill: #afafaf"/>
   </g>
   <g id="patch_102">
    <path d="M 118.40625 172.620973 
L 162.178192 172.620973 
L 162.178192 156.438486 
L 118.40625 156.438486 
z
" clip-path="url(#p7c97b32f93)" style="fill: #afafaf"/>
   </g>
   <g id="patch_103">
    <path d="M 118.40625 154.640432 
L 118.40625 154.640432 
L 118.40625 138.457946 
L 118.40625 138.457946 
z
" clip-path="url(#p7c97b32f93)" style="fill: #afafaf"/>
   </g>
   <g id="patch_104">
    <path d="M 118.40625 136.659892 
L 120.960112 136.659892 
L 120.960112 120.477405 
L 118.40625 120.477405 
z
" clip-path="url(#p7c97b32f93)" style="fill: #afafaf"/>
   </g>
   <g id="patch_105">
    <path d="M 118.40625 118.679351 
L 126.923063 118.679351 
L 126.923063 102.496865 
L 118.40625 102.496865 
z
" clip-path="url(#p7c97b32f93)" style="fill: #afafaf"/>
   </g>
   <g id="patch_106">
    <path d="M 118.40625 100.698811 
L 119.424962 100.698811 
L 119.424962 84.516324 
L 118.40625 84.516324 
z
" clip-path="url(#p7c97b32f93)" style="fill: #afafaf"/>
   </g>
   <g id="patch_107">
    <path d="M 118.40625 82.71827 
L 160.642051 82.71827 
L 160.642051 66.535784 
L 118.40625 66.535784 
z
" clip-path="url(#p7c97b32f93)" style="fill: #afafaf"/>
   </g>
   <g id="patch_108">
    <path d="M 118.40625 64.73773 
L 148.750302 64.73773 
L 148.750302 48.555243 
L 118.40625 48.555243 
z
" clip-path="url(#p7c97b32f93)" style="fill: #afafaf"/>
   </g>
   <g id="patch_109">
    <path d="M 118.40625 46.757189 
L 122.645936 46.757189 
L 122.645936 30.574703 
L 118.40625 30.574703 
z
" clip-path="url(#p7c97b32f93)" style="fill: #afafaf"/>
   </g>
   <g id="patch_110">
    <path d="M 118.40625 28.776649 
L 124.428751 28.776649 
L 124.428751 12.594162 
L 118.40625 12.594162 
z
" clip-path="url(#p7c97b32f93)" style="fill: #afafaf"/>
   </g>
   <g id="patch_111">
    <path d="M 118.40625 334.445838 
L 118.40625 334.445838 
L 118.40625 318.263351 
L 118.40625 318.263351 
z
" clip-path="url(#p7c97b32f93)" style="fill: #d6d6d6"/>
   </g>
   <g id="patch_112">
    <path d="M 118.40625 316.465297 
L 135.935243 316.465297 
L 135.935243 300.282811 
L 118.40625 300.282811 
z
" clip-path="url(#p7c97b32f93)" style="fill: #d6d6d6"/>
   </g>
   <g id="patch_113">
    <path d="M 118.40625 298.484757 
L 118.40625 298.484757 
L 118.40625 282.30227 
L 118.40625 282.30227 
z
" clip-path="url(#p7c97b32f93)" style="fill: #d6d6d6"/>
   </g>
   <g id="patch_114">
    <path d="M 118.40625 280.504216 
L 118.40625 280.504216 
L 118.40625 264.32173 
L 118.40625 264.32173 
z
" clip-path="url(#p7c97b32f93)" style="fill: #d6d6d6"/>
   </g>
   <g id="patch_115">
    <path d="M 118.40625 262.523676 
L 119.762865 262.523676 
L 119.762865 246.341189 
L 118.40625 246.341189 
z
" clip-path="url(#p7c97b32f93)" style="fill: #d6d6d6"/>
   </g>
   <g id="patch_116">
    <path d="M 118.40625 244.543135 
L 124.507294 244.543135 
L 124.507294 228.360649 
L 118.40625 228.360649 
z
" clip-path="url(#p7c97b32f93)" style="fill: #d6d6d6"/>
   </g>
   <g id="patch_117">
    <path d="M 118.40625 226.562595 
L 119.601499 226.562595 
L 119.601499 210.380108 
L 118.40625 210.380108 
z
" clip-path="url(#p7c97b32f93)" style="fill: #d6d6d6"/>
   </g>
   <g id="patch_118">
    <path d="M 118.40625 208.582054 
L 118.40625 208.582054 
L 118.40625 192.399568 
L 118.40625 192.399568 
z
" clip-path="url(#p7c97b32f93)" style="fill: #d6d6d6"/>
   </g>
   <g id="patch_119">
    <path d="M 118.40625 190.601514 
L 138.285513 190.601514 
L 138.285513 174.419027 
L 118.40625 174.419027 
z
" clip-path="url(#p7c97b32f93)" style="fill: #d6d6d6"/>
   </g>
   <g id="patch_120">
    <path d="M 118.40625 172.620973 
L 159.219443 172.620973 
L 159.219443 156.438486 
L 118.40625 156.438486 
z
" clip-path="url(#p7c97b32f93)" style="fill: #d6d6d6"/>
   </g>
   <g id="patch_121">
    <path d="M 118.40625 154.640432 
L 118.40625 154.640432 
L 118.40625 138.457946 
L 118.40625 138.457946 
z
" clip-path="url(#p7c97b32f93)" style="fill: #d6d6d6"/>
   </g>
   <g id="patch_122">
    <path d="M 118.40625 136.659892 
L 120.960114 136.659892 
L 120.960114 120.477405 
L 118.40625 120.477405 
z
" clip-path="url(#p7c97b32f93)" style="fill: #d6d6d6"/>
   </g>
   <g id="patch_123">
    <path d="M 118.40625 118.679351 
L 126.732537 118.679351 
L 126.732537 102.496865 
L 118.40625 102.496865 
z
" clip-path="url(#p7c97b32f93)" style="fill: #d6d6d6"/>
   </g>
   <g id="patch_124">
    <path d="M 118.40625 100.698811 
L 119.441255 100.698811 
L 119.441255 84.516324 
L 118.40625 84.516324 
z
" clip-path="url(#p7c97b32f93)" style="fill: #d6d6d6"/>
   </g>
   <g id="patch_125">
    <path d="M 118.40625 82.71827 
L 159.818784 82.71827 
L 159.818784 66.535784 
L 118.40625 66.535784 
z
" clip-path="url(#p7c97b32f93)" style="fill: #d6d6d6"/>
   </g>
   <g id="patch_126">
    <path d="M 118.40625 64.73773 
L 148.53012 64.73773 
L 148.53012 48.555243 
L 118.40625 48.555243 
z
" clip-path="url(#p7c97b32f93)" style="fill: #d6d6d6"/>
   </g>
   <g id="patch_127">
    <path d="M 118.40625 46.757189 
L 122.586496 46.757189 
L 122.586496 30.574703 
L 118.40625 30.574703 
z
" clip-path="url(#p7c97b32f93)" style="fill: #d6d6d6"/>
   </g>
   <g id="patch_128">
    <path d="M 118.40625 28.776649 
L 124.658852 28.776649 
L 124.658852 12.594162 
L 118.40625 12.594162 
z
" clip-path="url(#p7c97b32f93)" style="fill: #d6d6d6"/>
   </g>
   <g id="patch_129">
    <path d="M 118.40625 334.445838 
L 118.40625 334.445838 
L 118.40625 318.263351 
L 118.40625 318.263351 
z
" clip-path="url(#p7c97b32f93)" style="fill: #ececec"/>
   </g>
   <g id="patch_130">
    <path d="M 118.40625 316.465297 
L 131.590447 316.465297 
L 131.590447 300.282811 
L 118.40625 300.282811 
z
" clip-path="url(#p7c97b32f93)" style="fill: #ececec"/>
   </g>
   <g id="patch_131">
    <path d="M 118.40625 298.484757 
L 118.40625 298.484757 
L 118.40625 282.30227 
L 118.40625 282.30227 
z
" clip-path="url(#p7c97b32f93)" style="fill: #ececec"/>
   </g>
   <g id="patch_132">
    <path d="M 118.40625 280.504216 
L 118.40625 280.504216 
L 118.40625 264.32173 
L 118.40625 264.32173 
z
" clip-path="url(#p7c97b32f93)" style="fill: #ececec"/>
   </g>
   <g id="patch_133">
    <path d="M 118.40625 262.523676 
L 120.248732 262.523676 
L 120.248732 246.341189 
L 118.40625 246.341189 
z
" clip-path="url(#p7c97b32f93)" style="fill: #ececec"/>
   </g>
   <g id="patch_134">
    <path d="M 118.40625 244.543135 
L 124.703684 244.543135 
L 124.703684 228.360649 
L 118.40625 228.360649 
z
" clip-path="url(#p7c97b32f93)" style="fill: #ececec"/>
   </g>
   <g id="patch_135">
    <path d="M 118.40625 226.562595 
L 119.518436 226.562595 
L 119.518436 210.380108 
L 118.40625 210.380108 
z
" clip-path="url(#p7c97b32f93)" style="fill: #ececec"/>
   </g>
   <g id="patch_136">
    <path d="M 118.40625 208.582054 
L 118.40625 208.582054 
L 118.40625 192.399568 
L 118.40625 192.399568 
z
" clip-path="url(#p7c97b32f93)" style="fill: #ececec"/>
   </g>
   <g id="patch_137">
    <path d="M 118.40625 190.601514 
L 133.514476 190.601514 
L 133.514476 174.419027 
L 118.40625 174.419027 
z
" clip-path="url(#p7c97b32f93)" style="fill: #ececec"/>
   </g>
   <g id="patch_138">
    <path d="M 118.40625 172.620973 
L 155.028856 172.620973 
L 155.028856 156.438486 
L 118.40625 156.438486 
z
" clip-path="url(#p7c97b32f93)" style="fill: #ececec"/>
   </g>
   <g id="patch_139">
    <path d="M 118.40625 154.640432 
L 118.40625 154.640432 
L 118.40625 138.457946 
L 118.40625 138.457946 
z
" clip-path="url(#p7c97b32f93)" style="fill: #ececec"/>
   </g>
   <g id="patch_140">
    <path d="M 118.40625 136.659892 
L 121.935217 136.659892 
L 121.935217 120.477405 
L 118.40625 120.477405 
z
" clip-path="url(#p7c97b32f93)" style="fill: #ececec"/>
   </g>
   <g id="patch_141">
    <path d="M 118.40625 118.679351 
L 126.287887 118.679351 
L 126.287887 102.496865 
L 118.40625 102.496865 
z
" clip-path="url(#p7c97b32f93)" style="fill: #ececec"/>
   </g>
   <g id="patch_142">
    <path d="M 118.40625 100.698811 
L 119.806017 100.698811 
L 119.806017 84.516324 
L 118.40625 84.516324 
z
" clip-path="url(#p7c97b32f93)" style="fill: #ececec"/>
   </g>
   <g id="patch_143">
    <path d="M 118.40625 82.71827 
L 149.658029 82.71827 
L 149.658029 66.535784 
L 118.40625 66.535784 
z
" clip-path="url(#p7c97b32f93)" style="fill: #ececec"/>
   </g>
   <g id="patch_144">
    <path d="M 118.40625 64.73773 
L 141.583487 64.73773 
L 141.583487 48.555243 
L 118.40625 48.555243 
z
" clip-path="url(#p7c97b32f93)" style="fill: #ececec"/>
   </g>
   <g id="patch_145">
    <path d="M 118.40625 46.757189 
L 121.198254 46.757189 
L 121.198254 30.574703 
L 118.40625 30.574703 
z
" clip-path="url(#p7c97b32f93)" style="fill: #ececec"/>
   </g>
   <g id="patch_146">
    <path d="M 118.40625 28.776649 
L 125.010684 28.776649 
L 125.010684 12.594162 
L 118.40625 12.594162 
z
" clip-path="url(#p7c97b32f93)" style="fill: #ececec"/>
   </g>
   <g id="patch_147">
    <path d="M 118.40625 335.344865 
L 118.48995 335.344865 
L 118.48995 317.364324 
L 118.40625 317.364324 
z
" clip-path="url(#p7c97b32f93)" style="fill: url(#h07a6c90baa)"/>
   </g>
   <g id="patch_148">
    <path d="M 118.40625 317.364324 
L 118.40625 317.364324 
L 118.40625 299.383784 
L 118.40625 299.383784 
z
" clip-path="url(#p7c97b32f93)" style="fill: url(#h07a6c90baa)"/>
   </g>
   <g id="patch_149">
    <path d="M 118.40625 299.383784 
L 118.48995 299.383784 
L 118.48995 281.403243 
L 118.40625 281.403243 
z
" clip-path="url(#p7c97b32f93)" style="fill: url(#h07a6c90baa)"/>
   </g>
   <g id="patch_150">
    <path d="M 118.40625 281.403243 
L 118.48995 281.403243 
L 118.48995 263.422703 
L 118.40625 263.422703 
z
" clip-path="url(#p7c97b32f93)" style="fill: url(#h07a6c90baa)"/>
   </g>
   <g id="patch_151">
    <path d="M 118.40625 263.422703 
L 118.40625 263.422703 
L 118.40625 245.442162 
L 118.40625 245.442162 
z
" clip-path="url(#p7c97b32f93)" style="fill: url(#h07a6c90baa)"/>
   </g>
   <g id="patch_152">
    <path d="M 118.40625 245.442162 
L 118.40625 245.442162 
L 118.40625 227.461622 
L 118.40625 227.461622 
z
" clip-path="url(#p7c97b32f93)" style="fill: url(#h07a6c90baa)"/>
   </g>
   <g id="patch_153">
    <path d="M 118.40625 227.461622 
L 118.40625 227.461622 
L 118.40625 209.481081 
L 118.40625 209.481081 
z
" clip-path="url(#p7c97b32f93)" style="fill: url(#h07a6c90baa)"/>
   </g>
   <g id="patch_154">
    <path d="M 118.40625 209.481081 
L 118.48995 209.481081 
L 118.48995 191.500541 
L 118.40625 191.500541 
z
" clip-path="url(#p7c97b32f93)" style="fill: url(#h07a6c90baa)"/>
   </g>
   <g id="patch_155">
    <path d="M 118.40625 191.500541 
L 118.40625 191.500541 
L 118.40625 173.52 
L 118.40625 173.52 
z
" clip-path="url(#p7c97b32f93)" style="fill: url(#h07a6c90baa)"/>
   </g>
   <g id="patch_156">
    <path d="M 118.40625 173.52 
L 118.40625 173.52 
L 118.40625 155.539459 
L 118.40625 155.539459 
z
" clip-path="url(#p7c97b32f93)" style="fill: url(#h07a6c90baa)"/>
   </g>
   <g id="patch_157">
    <path d="M 118.40625 155.539459 
L 118.48995 155.539459 
L 118.48995 137.558919 
L 118.40625 137.558919 
z
" clip-path="url(#p7c97b32f93)" style="fill: url(#h07a6c90baa)"/>
   </g>
   <g id="patch_158">
    <path d="M 118.40625 137.558919 
L 118.40625 137.558919 
L 118.40625 119.578378 
L 118.40625 119.578378 
z
" clip-path="url(#p7c97b32f93)" style="fill: url(#h07a6c90baa)"/>
   </g>
   <g id="patch_159">
    <path d="M 118.40625 119.578378 
L 118.40625 119.578378 
L 118.40625 101.597838 
L 118.40625 101.597838 
z
" clip-path="url(#p7c97b32f93)" style="fill: url(#h07a6c90baa)"/>
   </g>
   <g id="patch_160">
    <path d="M 118.40625 101.597838 
L 118.40625 101.597838 
L 118.40625 83.617297 
L 118.40625 83.617297 
z
" clip-path="url(#p7c97b32f93)" style="fill: url(#h07a6c90baa)"/>
   </g>
   <g id="patch_161">
    <path d="M 118.40625 83.617297 
L 118.40625 83.617297 
L 118.40625 65.636757 
L 118.40625 65.636757 
z
" clip-path="url(#p7c97b32f93)" style="fill: url(#h07a6c90baa)"/>
   </g>
   <g id="patch_162">
    <path d="M 118.40625 65.636757 
L 118.40625 65.636757 
L 118.40625 47.656216 
L 118.40625 47.656216 
z
" clip-path="url(#p7c97b32f93)" style="fill: url(#h07a6c90baa)"/>
   </g>
   <g id="patch_163">
    <path d="M 118.40625 47.656216 
L 118.40625 47.656216 
L 118.40625 29.675676 
L 118.40625 29.675676 
z
" clip-path="url(#p7c97b32f93)" style="fill: url(#h07a6c90baa)"/>
   </g>
   <g id="patch_164">
    <path d="M 118.40625 29.675676 
L 118.40625 29.675676 
L 118.40625 11.695135 
L 118.40625 11.695135 
z
" clip-path="url(#p7c97b32f93)" style="fill: url(#h07a6c90baa)"/>
   </g>
   <g id="matplotlib.axis_1">
    <g id="xtick_1">
     <g id="line2d_1">
      <path d="M 118.40625 339.84 
L 118.40625 7.2 
" clip-path="url(#p7c97b32f93)" style="fill: none; stroke: #b0b0b0; stroke-width: 0.8; stroke-linecap: square"/>
     </g>
     <g id="line2d_2">
      <defs>
       <path id="mf0e3156fd3" d="M 0 0 
L 0 3.5 
" style="stroke: #000000; stroke-width: 0.8"/>
      </defs>
      <g>
       <use xlink:href="#mf0e3156fd3" x="118.40625" y="339.84" style="stroke: #000000; stroke-width: 0.8"/>
      </g>
     </g>
     <g id="text_1">
      <!-- 0 -->
      <g transform="translate(115.225 354.438438)scale(0.1 -0.1)">
       <defs>
        <path id="DejaVuSans-30" d="M 2034 4250 
Q 1547 4250 1301 3770 
Q 1056 3291 1056 2328 
Q 1056 1369 1301 889 
Q 1547 409 2034 409 
Q 2525 409 2770 889 
Q 3016 1369 3016 2328 
Q 3016 3291 2770 3770 
Q 2525 4250 2034 4250 
z
M 2034 4750 
Q 2819 4750 3233 4129 
Q 3647 3509 3647 2328 
Q 3647 1150 3233 529 
Q 2819 -91 2034 -91 
Q 1250 -91 836 529 
Q 422 1150 422 2328 
Q 422 3509 836 4129 
Q 1250 4750 2034 4750 
z
" transform="scale(0.015625)"/>
       </defs>
       <use xlink:href="#DejaVuSans-30"/>
      </g>
     </g>
    </g>
    <g id="xtick_2">
     <g id="line2d_3">
      <path d="M 160.25625 339.84 
L 160.25625 7.2 
" clip-path="url(#p7c97b32f93)" style="fill: none; stroke: #b0b0b0; stroke-width: 0.8; stroke-linecap: square"/>
     </g>
     <g id="line2d_4">
      <g>
       <use xlink:href="#mf0e3156fd3" x="160.25625" y="339.84" style="stroke: #000000; stroke-width: 0.8"/>
      </g>
     </g>
     <g id="text_2">
      <!-- 50000 -->
      <g transform="translate(144.35 354.438438)scale(0.1 -0.1)">
       <defs>
        <path id="DejaVuSans-35" d="M 691 4666 
L 3169 4666 
L 3169 4134 
L 1269 4134 
L 1269 2991 
Q 1406 3038 1543 3061 
Q 1681 3084 1819 3084 
Q 2600 3084 3056 2656 
Q 3513 2228 3513 1497 
Q 3513 744 3044 326 
Q 2575 -91 1722 -91 
Q 1428 -91 1123 -41 
Q 819 9 494 109 
L 494 744 
Q 775 591 1075 516 
Q 1375 441 1709 441 
Q 2250 441 2565 725 
Q 2881 1009 2881 1497 
Q 2881 1984 2565 2268 
Q 2250 2553 1709 2553 
Q 1456 2553 1204 2497 
Q 953 2441 691 2322 
L 691 4666 
z
" transform="scale(0.015625)"/>
       </defs>
       <use xlink:href="#DejaVuSans-35"/>
       <use xlink:href="#DejaVuSans-30" x="63.623047"/>
       <use xlink:href="#DejaVuSans-30" x="127.246094"/>
       <use xlink:href="#DejaVuSans-30" x="190.869141"/>
       <use xlink:href="#DejaVuSans-30" x="254.492188"/>
      </g>
     </g>
    </g>
    <g id="xtick_3">
     <g id="line2d_5">
      <path d="M 202.10625 339.84 
L 202.10625 7.2 
" clip-path="url(#p7c97b32f93)" style="fill: none; stroke: #b0b0b0; stroke-width: 0.8; stroke-linecap: square"/>
     </g>
     <g id="line2d_6">
      <g>
       <use xlink:href="#mf0e3156fd3" x="202.10625" y="339.84" style="stroke: #000000; stroke-width: 0.8"/>
      </g>
     </g>
     <g id="text_3">
      <!-- 100000 -->
      <g transform="translate(183.01875 354.438438)scale(0.1 -0.1)">
       <defs>
        <path id="DejaVuSans-31" d="M 794 531 
L 1825 531 
L 1825 4091 
L 703 3866 
L 703 4441 
L 1819 4666 
L 2450 4666 
L 2450 531 
L 3481 531 
L 3481 0 
L 794 0 
L 794 531 
z
" transform="scale(0.015625)"/>
       </defs>
       <use xlink:href="#DejaVuSans-31"/>
       <use xlink:href="#DejaVuSans-30" x="63.623047"/>
       <use xlink:href="#DejaVuSans-30" x="127.246094"/>
       <use xlink:href="#DejaVuSans-30" x="190.869141"/>
       <use xlink:href="#DejaVuSans-30" x="254.492188"/>
       <use xlink:href="#DejaVuSans-30" x="318.115234"/>
      </g>
     </g>
    </g>
    <g id="xtick_4">
     <g id="line2d_7">
      <path d="M 243.95625 339.84 
L 243.95625 7.2 
" clip-path="url(#p7c97b32f93)" style="fill: none; stroke: #b0b0b0; stroke-width: 0.8; stroke-linecap: square"/>
     </g>
     <g id="line2d_8">
      <g>
       <use xlink:href="#mf0e3156fd3" x="243.95625" y="339.84" style="stroke: #000000; stroke-width: 0.8"/>
      </g>
     </g>
     <g id="text_4">
      <!-- 150000 -->
      <g transform="translate(224.86875 354.438438)scale(0.1 -0.1)">
       <use xlink:href="#DejaVuSans-31"/>
       <use xlink:href="#DejaVuSans-35" x="63.623047"/>
       <use xlink:href="#DejaVuSans-30" x="127.246094"/>
       <use xlink:href="#DejaVuSans-30" x="190.869141"/>
       <use xlink:href="#DejaVuSans-30" x="254.492188"/>
       <use xlink:href="#DejaVuSans-30" x="318.115234"/>
      </g>
     </g>
    </g>
    <g id="xtick_5">
     <g id="line2d_9">
      <path d="M 285.80625 339.84 
L 285.80625 7.2 
" clip-path="url(#p7c97b32f93)" style="fill: none; stroke: #b0b0b0; stroke-width: 0.8; stroke-linecap: square"/>
     </g>
     <g id="line2d_10">
      <g>
       <use xlink:href="#mf0e3156fd3" x="285.80625" y="339.84" style="stroke: #000000; stroke-width: 0.8"/>
      </g>
     </g>
     <g id="text_5">
      <!-- 200000 -->
      <g transform="translate(266.71875 354.438438)scale(0.1 -0.1)">
       <defs>
        <path id="DejaVuSans-32" d="M 1228 531 
L 3431 531 
L 3431 0 
L 469 0 
L 469 531 
Q 828 903 1448 1529 
Q 2069 2156 2228 2338 
Q 2531 2678 2651 2914 
Q 2772 3150 2772 3378 
Q 2772 3750 2511 3984 
Q 2250 4219 1831 4219 
Q 1534 4219 1204 4116 
Q 875 4013 500 3803 
L 500 4441 
Q 881 4594 1212 4672 
Q 1544 4750 1819 4750 
Q 2544 4750 2975 4387 
Q 3406 4025 3406 3419 
Q 3406 3131 3298 2873 
Q 3191 2616 2906 2266 
Q 2828 2175 2409 1742 
Q 1991 1309 1228 531 
z
" transform="scale(0.015625)"/>
       </defs>
       <use xlink:href="#DejaVuSans-32"/>
       <use xlink:href="#DejaVuSans-30" x="63.623047"/>
       <use xlink:href="#DejaVuSans-30" x="127.246094"/>
       <use xlink:href="#DejaVuSans-30" x="190.869141"/>
       <use xlink:href="#DejaVuSans-30" x="254.492188"/>
       <use xlink:href="#DejaVuSans-30" x="318.115234"/>
      </g>
     </g>
    </g>
    <g id="xtick_6">
     <g id="line2d_11">
      <path d="M 327.65625 339.84 
L 327.65625 7.2 
" clip-path="url(#p7c97b32f93)" style="fill: none; stroke: #b0b0b0; stroke-width: 0.8; stroke-linecap: square"/>
     </g>
     <g id="line2d_12">
      <g>
       <use xlink:href="#mf0e3156fd3" x="327.65625" y="339.84" style="stroke: #000000; stroke-width: 0.8"/>
      </g>
     </g>
     <g id="text_6">
      <!-- 250000 -->
      <g transform="translate(308.56875 354.438438)scale(0.1 -0.1)">
       <use xlink:href="#DejaVuSans-32"/>
       <use xlink:href="#DejaVuSans-35" x="63.623047"/>
       <use xlink:href="#DejaVuSans-30" x="127.246094"/>
       <use xlink:href="#DejaVuSans-30" x="190.869141"/>
       <use xlink:href="#DejaVuSans-30" x="254.492188"/>
       <use xlink:href="#DejaVuSans-30" x="318.115234"/>
      </g>
     </g>
    </g>
    <g id="xtick_7">
     <g id="line2d_13">
      <path d="M 369.50625 339.84 
L 369.50625 7.2 
" clip-path="url(#p7c97b32f93)" style="fill: none; stroke: #b0b0b0; stroke-width: 0.8; stroke-linecap: square"/>
     </g>
     <g id="line2d_14">
      <g>
       <use xlink:href="#mf0e3156fd3" x="369.50625" y="339.84" style="stroke: #000000; stroke-width: 0.8"/>
      </g>
     </g>
     <g id="text_7">
      <!-- 300000 -->
      <g transform="translate(350.41875 354.438438)scale(0.1 -0.1)">
       <defs>
        <path id="DejaVuSans-33" d="M 2597 2516 
Q 3050 2419 3304 2112 
Q 3559 1806 3559 1356 
Q 3559 666 3084 287 
Q 2609 -91 1734 -91 
Q 1441 -91 1130 -33 
Q 819 25 488 141 
L 488 750 
Q 750 597 1062 519 
Q 1375 441 1716 441 
Q 2309 441 2620 675 
Q 2931 909 2931 1356 
Q 2931 1769 2642 2001 
Q 2353 2234 1838 2234 
L 1294 2234 
L 1294 2753 
L 1863 2753 
Q 2328 2753 2575 2939 
Q 2822 3125 2822 3475 
Q 2822 3834 2567 4026 
Q 2313 4219 1838 4219 
Q 1578 4219 1281 4162 
Q 984 4106 628 3988 
L 628 4550 
Q 988 4650 1302 4700 
Q 1616 4750 1894 4750 
Q 2613 4750 3031 4423 
Q 3450 4097 3450 3541 
Q 3450 3153 3228 2886 
Q 3006 2619 2597 2516 
z
" transform="scale(0.015625)"/>
       </defs>
       <use xlink:href="#DejaVuSans-33"/>
       <use xlink:href="#DejaVuSans-30" x="63.623047"/>
       <use xlink:href="#DejaVuSans-30" x="127.246094"/>
       <use xlink:href="#DejaVuSans-30" x="190.869141"/>
       <use xlink:href="#DejaVuSans-30" x="254.492188"/>
       <use xlink:href="#DejaVuSans-30" x="318.115234"/>
      </g>
     </g>
    </g>
    <g id="xtick_8">
     <g id="line2d_15">
      <path d="M 411.35625 339.84 
L 411.35625 7.2 
" clip-path="url(#p7c97b32f93)" style="fill: none; stroke: #b0b0b0; stroke-width: 0.8; stroke-linecap: square"/>
     </g>
     <g id="line2d_16">
      <g>
       <use xlink:href="#mf0e3156fd3" x="411.35625" y="339.84" style="stroke: #000000; stroke-width: 0.8"/>
      </g>
     </g>
     <g id="text_8">
      <!-- 350000 -->
      <g transform="translate(392.26875 354.438438)scale(0.1 -0.1)">
       <use xlink:href="#DejaVuSans-33"/>
       <use xlink:href="#DejaVuSans-35" x="63.623047"/>
       <use xlink:href="#DejaVuSans-30" x="127.246094"/>
       <use xlink:href="#DejaVuSans-30" x="190.869141"/>
       <use xlink:href="#DejaVuSans-30" x="254.492188"/>
       <use xlink:href="#DejaVuSans-30" x="318.115234"/>
      </g>
     </g>
    </g>
    <g id="xtick_9">
     <g id="line2d_17">
      <path d="M 453.20625 339.84 
L 453.20625 7.2 
" clip-path="url(#p7c97b32f93)" style="fill: none; stroke: #b0b0b0; stroke-width: 0.8; stroke-linecap: square"/>
     </g>
     <g id="line2d_18">
      <g>
       <use xlink:href="#mf0e3156fd3" x="453.20625" y="339.84" style="stroke: #000000; stroke-width: 0.8"/>
      </g>
     </g>
     <g id="text_9">
      <!-- 400000 -->
      <g transform="translate(434.11875 354.438438)scale(0.1 -0.1)">
       <defs>
        <path id="DejaVuSans-34" d="M 2419 4116 
L 825 1625 
L 2419 1625 
L 2419 4116 
z
M 2253 4666 
L 3047 4666 
L 3047 1625 
L 3713 1625 
L 3713 1100 
L 3047 1100 
L 3047 0 
L 2419 0 
L 2419 1100 
L 313 1100 
L 313 1709 
L 2253 4666 
z
" transform="scale(0.015625)"/>
       </defs>
       <use xlink:href="#DejaVuSans-34"/>
       <use xlink:href="#DejaVuSans-30" x="63.623047"/>
       <use xlink:href="#DejaVuSans-30" x="127.246094"/>
       <use xlink:href="#DejaVuSans-30" x="190.869141"/>
       <use xlink:href="#DejaVuSans-30" x="254.492188"/>
       <use xlink:href="#DejaVuSans-30" x="318.115234"/>
      </g>
     </g>
    </g>
    <g id="text_10">
     <!-- TVA x km -->
     <g transform="translate(262.327344 368.116562)scale(0.1 -0.1)">
      <defs>
       <path id="DejaVuSans-54" d="M -19 4666 
L 3928 4666 
L 3928 4134 
L 2272 4134 
L 2272 0 
L 1638 0 
L 1638 4134 
L -19 4134 
L -19 4666 
z
" transform="scale(0.015625)"/>
       <path id="DejaVuSans-56" d="M 1831 0 
L 50 4666 
L 709 4666 
L 2188 738 
L 3669 4666 
L 4325 4666 
L 2547 0 
L 1831 0 
z
" transform="scale(0.015625)"/>
       <path id="DejaVuSans-41" d="M 2188 4044 
L 1331 1722 
L 3047 1722 
L 2188 4044 
z
M 1831 4666 
L 2547 4666 
L 4325 0 
L 3669 0 
L 3244 1197 
L 1141 1197 
L 716 0 
L 50 0 
L 1831 4666 
z
" transform="scale(0.015625)"/>
       <path id="DejaVuSans-20" transform="scale(0.015625)"/>
       <path id="DejaVuSans-78" d="M 3513 3500 
L 2247 1797 
L 3578 0 
L 2900 0 
L 1881 1375 
L 863 0 
L 184 0 
L 1544 1831 
L 300 3500 
L 978 3500 
L 1906 2253 
L 2834 3500 
L 3513 3500 
z
" transform="scale(0.015625)"/>
       <path id="DejaVuSans-6b" d="M 581 4863 
L 1159 4863 
L 1159 1991 
L 2875 3500 
L 3609 3500 
L 1753 1863 
L 3688 0 
L 2938 0 
L 1159 1709 
L 1159 0 
L 581 0 
L 581 4863 
z
" transform="scale(0.015625)"/>
       <path id="DejaVuSans-6d" d="M 3328 2828 
Q 3544 3216 3844 3400 
Q 4144 3584 4550 3584 
Q 5097 3584 5394 3201 
Q 5691 2819 5691 2113 
L 5691 0 
L 5113 0 
L 5113 2094 
Q 5113 2597 4934 2840 
Q 4756 3084 4391 3084 
Q 3944 3084 3684 2787 
Q 3425 2491 3425 1978 
L 3425 0 
L 2847 0 
L 2847 2094 
Q 2847 2600 2669 2842 
Q 2491 3084 2119 3084 
Q 1678 3084 1418 2786 
Q 1159 2488 1159 1978 
L 1159 0 
L 581 0 
L 581 3500 
L 1159 3500 
L 1159 2956 
Q 1356 3278 1631 3431 
Q 1906 3584 2284 3584 
Q 2666 3584 2933 3390 
Q 3200 3197 3328 2828 
z
" transform="scale(0.015625)"/>
      </defs>
      <use xlink:href="#DejaVuSans-54"/>
      <use xlink:href="#DejaVuSans-56" x="61.083984"/>
      <use xlink:href="#DejaVuSans-41" x="123.117188"/>
      <use xlink:href="#DejaVuSans-20" x="191.525391"/>
      <use xlink:href="#DejaVuSans-78" x="223.3125"/>
      <use xlink:href="#DejaVuSans-20" x="282.492188"/>
      <use xlink:href="#DejaVuSans-6b" x="314.279297"/>
      <use xlink:href="#DejaVuSans-6d" x="372.189453"/>
     </g>
    </g>
   </g>
   <g id="matplotlib.axis_2">
    <g id="ytick_1">
     <g id="line2d_19">
      <defs>
       <path id="m8b731eb8bd" d="M 0 0 
L -3.5 0 
" style="stroke: #000000; stroke-width: 0.8"/>
      </defs>
      <g>
       <use xlink:href="#m8b731eb8bd" x="118.40625" y="326.354595" style="stroke: #000000; stroke-width: 0.8"/>
      </g>
     </g>
     <g id="text_11">
      <!-- Nusa-Tenggara (I) -->
      <g transform="translate(23.660938 330.153813)scale(0.1 -0.1)">
       <defs>
        <path id="DejaVuSans-4e" d="M 628 4666 
L 1478 4666 
L 3547 763 
L 3547 4666 
L 4159 4666 
L 4159 0 
L 3309 0 
L 1241 3903 
L 1241 0 
L 628 0 
L 628 4666 
z
" transform="scale(0.015625)"/>
        <path id="DejaVuSans-75" d="M 544 1381 
L 544 3500 
L 1119 3500 
L 1119 1403 
Q 1119 906 1312 657 
Q 1506 409 1894 409 
Q 2359 409 2629 706 
Q 2900 1003 2900 1516 
L 2900 3500 
L 3475 3500 
L 3475 0 
L 2900 0 
L 2900 538 
Q 2691 219 2414 64 
Q 2138 -91 1772 -91 
Q 1169 -91 856 284 
Q 544 659 544 1381 
z
M 1991 3584 
L 1991 3584 
z
" transform="scale(0.015625)"/>
        <path id="DejaVuSans-73" d="M 2834 3397 
L 2834 2853 
Q 2591 2978 2328 3040 
Q 2066 3103 1784 3103 
Q 1356 3103 1142 2972 
Q 928 2841 928 2578 
Q 928 2378 1081 2264 
Q 1234 2150 1697 2047 
L 1894 2003 
Q 2506 1872 2764 1633 
Q 3022 1394 3022 966 
Q 3022 478 2636 193 
Q 2250 -91 1575 -91 
Q 1294 -91 989 -36 
Q 684 19 347 128 
L 347 722 
Q 666 556 975 473 
Q 1284 391 1588 391 
Q 1994 391 2212 530 
Q 2431 669 2431 922 
Q 2431 1156 2273 1281 
Q 2116 1406 1581 1522 
L 1381 1569 
Q 847 1681 609 1914 
Q 372 2147 372 2553 
Q 372 3047 722 3315 
Q 1072 3584 1716 3584 
Q 2034 3584 2315 3537 
Q 2597 3491 2834 3397 
z
" transform="scale(0.015625)"/>
        <path id="DejaVuSans-61" d="M 2194 1759 
Q 1497 1759 1228 1600 
Q 959 1441 959 1056 
Q 959 750 1161 570 
Q 1363 391 1709 391 
Q 2188 391 2477 730 
Q 2766 1069 2766 1631 
L 2766 1759 
L 2194 1759 
z
M 3341 1997 
L 3341 0 
L 2766 0 
L 2766 531 
Q 2569 213 2275 61 
Q 1981 -91 1556 -91 
Q 1019 -91 701 211 
Q 384 513 384 1019 
Q 384 1609 779 1909 
Q 1175 2209 1959 2209 
L 2766 2209 
L 2766 2266 
Q 2766 2663 2505 2880 
Q 2244 3097 1772 3097 
Q 1472 3097 1187 3025 
Q 903 2953 641 2809 
L 641 3341 
Q 956 3463 1253 3523 
Q 1550 3584 1831 3584 
Q 2591 3584 2966 3190 
Q 3341 2797 3341 1997 
z
" transform="scale(0.015625)"/>
        <path id="DejaVuSans-2d" d="M 313 2009 
L 1997 2009 
L 1997 1497 
L 313 1497 
L 313 2009 
z
" transform="scale(0.015625)"/>
        <path id="DejaVuSans-65" d="M 3597 1894 
L 3597 1613 
L 953 1613 
Q 991 1019 1311 708 
Q 1631 397 2203 397 
Q 2534 397 2845 478 
Q 3156 559 3463 722 
L 3463 178 
Q 3153 47 2828 -22 
Q 2503 -91 2169 -91 
Q 1331 -91 842 396 
Q 353 884 353 1716 
Q 353 2575 817 3079 
Q 1281 3584 2069 3584 
Q 2775 3584 3186 3129 
Q 3597 2675 3597 1894 
z
M 3022 2063 
Q 3016 2534 2758 2815 
Q 2500 3097 2075 3097 
Q 1594 3097 1305 2825 
Q 1016 2553 972 2059 
L 3022 2063 
z
" transform="scale(0.015625)"/>
        <path id="DejaVuSans-6e" d="M 3513 2113 
L 3513 0 
L 2938 0 
L 2938 2094 
Q 2938 2591 2744 2837 
Q 2550 3084 2163 3084 
Q 1697 3084 1428 2787 
Q 1159 2491 1159 1978 
L 1159 0 
L 581 0 
L 581 3500 
L 1159 3500 
L 1159 2956 
Q 1366 3272 1645 3428 
Q 1925 3584 2291 3584 
Q 2894 3584 3203 3211 
Q 3513 2838 3513 2113 
z
" transform="scale(0.015625)"/>
        <path id="DejaVuSans-67" d="M 2906 1791 
Q 2906 2416 2648 2759 
Q 2391 3103 1925 3103 
Q 1463 3103 1205 2759 
Q 947 2416 947 1791 
Q 947 1169 1205 825 
Q 1463 481 1925 481 
Q 2391 481 2648 825 
Q 2906 1169 2906 1791 
z
M 3481 434 
Q 3481 -459 3084 -895 
Q 2688 -1331 1869 -1331 
Q 1566 -1331 1297 -1286 
Q 1028 -1241 775 -1147 
L 775 -588 
Q 1028 -725 1275 -790 
Q 1522 -856 1778 -856 
Q 2344 -856 2625 -561 
Q 2906 -266 2906 331 
L 2906 616 
Q 2728 306 2450 153 
Q 2172 0 1784 0 
Q 1141 0 747 490 
Q 353 981 353 1791 
Q 353 2603 747 3093 
Q 1141 3584 1784 3584 
Q 2172 3584 2450 3431 
Q 2728 3278 2906 2969 
L 2906 3500 
L 3481 3500 
L 3481 434 
z
" transform="scale(0.015625)"/>
        <path id="DejaVuSans-72" d="M 2631 2963 
Q 2534 3019 2420 3045 
Q 2306 3072 2169 3072 
Q 1681 3072 1420 2755 
Q 1159 2438 1159 1844 
L 1159 0 
L 581 0 
L 581 3500 
L 1159 3500 
L 1159 2956 
Q 1341 3275 1631 3429 
Q 1922 3584 2338 3584 
Q 2397 3584 2469 3576 
Q 2541 3569 2628 3553 
L 2631 2963 
z
" transform="scale(0.015625)"/>
        <path id="DejaVuSans-28" d="M 1984 4856 
Q 1566 4138 1362 3434 
Q 1159 2731 1159 2009 
Q 1159 1288 1364 580 
Q 1569 -128 1984 -844 
L 1484 -844 
Q 1016 -109 783 600 
Q 550 1309 550 2009 
Q 550 2706 781 3412 
Q 1013 4119 1484 4856 
L 1984 4856 
z
" transform="scale(0.015625)"/>
        <path id="DejaVuSans-49" d="M 628 4666 
L 1259 4666 
L 1259 0 
L 628 0 
L 628 4666 
z
" transform="scale(0.015625)"/>
        <path id="DejaVuSans-29" d="M 513 4856 
L 1013 4856 
Q 1481 4119 1714 3412 
Q 1947 2706 1947 2009 
Q 1947 1309 1714 600 
Q 1481 -109 1013 -844 
L 513 -844 
Q 928 -128 1133 580 
Q 1338 1288 1338 2009 
Q 1338 2731 1133 3434 
Q 928 4138 513 4856 
z
" transform="scale(0.015625)"/>
       </defs>
       <use xlink:href="#DejaVuSans-4e"/>
       <use xlink:href="#DejaVuSans-75" x="74.804688"/>
       <use xlink:href="#DejaVuSans-73" x="138.183594"/>
       <use xlink:href="#DejaVuSans-61" x="190.283203"/>
       <use xlink:href="#DejaVuSans-2d" x="251.5625"/>
       <use xlink:href="#DejaVuSans-54" x="278.521484"/>
       <use xlink:href="#DejaVuSans-65" x="322.605469"/>
       <use xlink:href="#DejaVuSans-6e" x="384.128906"/>
       <use xlink:href="#DejaVuSans-67" x="447.507812"/>
       <use xlink:href="#DejaVuSans-67" x="510.984375"/>
       <use xlink:href="#DejaVuSans-61" x="574.460938"/>
       <use xlink:href="#DejaVuSans-72" x="635.740234"/>
       <use xlink:href="#DejaVuSans-61" x="676.853516"/>
       <use xlink:href="#DejaVuSans-20" x="738.132812"/>
       <use xlink:href="#DejaVuSans-28" x="769.919922"/>
       <use xlink:href="#DejaVuSans-49" x="808.933594"/>
       <use xlink:href="#DejaVuSans-29" x="838.425781"/>
      </g>
     </g>
    </g>
    <g id="ytick_2">
     <g id="line2d_20">
      <g>
       <use xlink:href="#m8b731eb8bd" x="118.40625" y="308.374054" style="stroke: #000000; stroke-width: 0.8"/>
      </g>
     </g>
     <g id="text_12">
      <!-- Java-Bali (I) -->
      <g transform="translate(54.559375 312.173273)scale(0.1 -0.1)">
       <defs>
        <path id="DejaVuSans-4a" d="M 628 4666 
L 1259 4666 
L 1259 325 
Q 1259 -519 939 -900 
Q 619 -1281 -91 -1281 
L -331 -1281 
L -331 -750 
L -134 -750 
Q 284 -750 456 -515 
Q 628 -281 628 325 
L 628 4666 
z
" transform="scale(0.015625)"/>
        <path id="DejaVuSans-76" d="M 191 3500 
L 800 3500 
L 1894 563 
L 2988 3500 
L 3597 3500 
L 2284 0 
L 1503 0 
L 191 3500 
z
" transform="scale(0.015625)"/>
        <path id="DejaVuSans-42" d="M 1259 2228 
L 1259 519 
L 2272 519 
Q 2781 519 3026 730 
Q 3272 941 3272 1375 
Q 3272 1813 3026 2020 
Q 2781 2228 2272 2228 
L 1259 2228 
z
M 1259 4147 
L 1259 2741 
L 2194 2741 
Q 2656 2741 2882 2914 
Q 3109 3088 3109 3444 
Q 3109 3797 2882 3972 
Q 2656 4147 2194 4147 
L 1259 4147 
z
M 628 4666 
L 2241 4666 
Q 2963 4666 3353 4366 
Q 3744 4066 3744 3513 
Q 3744 3084 3544 2831 
Q 3344 2578 2956 2516 
Q 3422 2416 3680 2098 
Q 3938 1781 3938 1306 
Q 3938 681 3513 340 
Q 3088 0 2303 0 
L 628 0 
L 628 4666 
z
" transform="scale(0.015625)"/>
        <path id="DejaVuSans-6c" d="M 603 4863 
L 1178 4863 
L 1178 0 
L 603 0 
L 603 4863 
z
" transform="scale(0.015625)"/>
        <path id="DejaVuSans-69" d="M 603 3500 
L 1178 3500 
L 1178 0 
L 603 0 
L 603 3500 
z
M 603 4863 
L 1178 4863 
L 1178 4134 
L 603 4134 
L 603 4863 
z
" transform="scale(0.015625)"/>
       </defs>
       <use xlink:href="#DejaVuSans-4a"/>
       <use xlink:href="#DejaVuSans-61" x="29.492188"/>
       <use xlink:href="#DejaVuSans-76" x="90.771484"/>
       <use xlink:href="#DejaVuSans-61" x="149.951172"/>
       <use xlink:href="#DejaVuSans-2d" x="211.230469"/>
       <use xlink:href="#DejaVuSans-42" x="243.689453"/>
       <use xlink:href="#DejaVuSans-61" x="312.292969"/>
       <use xlink:href="#DejaVuSans-6c" x="373.572266"/>
       <use xlink:href="#DejaVuSans-69" x="401.355469"/>
       <use xlink:href="#DejaVuSans-20" x="429.138672"/>
       <use xlink:href="#DejaVuSans-28" x="460.925781"/>
       <use xlink:href="#DejaVuSans-49" x="499.939453"/>
       <use xlink:href="#DejaVuSans-29" x="529.431641"/>
      </g>
     </g>
    </g>
    <g id="ytick_3">
     <g id="line2d_21">
      <g>
       <use xlink:href="#m8b731eb8bd" x="118.40625" y="290.393514" style="stroke: #000000; stroke-width: 0.8"/>
      </g>
     </g>
     <g id="text_13">
      <!-- West Papua (I) -->
      <g transform="translate(39.192188 294.192732)scale(0.1 -0.1)">
       <defs>
        <path id="DejaVuSans-57" d="M 213 4666 
L 850 4666 
L 1831 722 
L 2809 4666 
L 3519 4666 
L 4500 722 
L 5478 4666 
L 6119 4666 
L 4947 0 
L 4153 0 
L 3169 4050 
L 2175 0 
L 1381 0 
L 213 4666 
z
" transform="scale(0.015625)"/>
        <path id="DejaVuSans-74" d="M 1172 4494 
L 1172 3500 
L 2356 3500 
L 2356 3053 
L 1172 3053 
L 1172 1153 
Q 1172 725 1289 603 
Q 1406 481 1766 481 
L 2356 481 
L 2356 0 
L 1766 0 
Q 1100 0 847 248 
Q 594 497 594 1153 
L 594 3053 
L 172 3053 
L 172 3500 
L 594 3500 
L 594 4494 
L 1172 4494 
z
" transform="scale(0.015625)"/>
        <path id="DejaVuSans-50" d="M 1259 4147 
L 1259 2394 
L 2053 2394 
Q 2494 2394 2734 2622 
Q 2975 2850 2975 3272 
Q 2975 3691 2734 3919 
Q 2494 4147 2053 4147 
L 1259 4147 
z
M 628 4666 
L 2053 4666 
Q 2838 4666 3239 4311 
Q 3641 3956 3641 3272 
Q 3641 2581 3239 2228 
Q 2838 1875 2053 1875 
L 1259 1875 
L 1259 0 
L 628 0 
L 628 4666 
z
" transform="scale(0.015625)"/>
        <path id="DejaVuSans-70" d="M 1159 525 
L 1159 -1331 
L 581 -1331 
L 581 3500 
L 1159 3500 
L 1159 2969 
Q 1341 3281 1617 3432 
Q 1894 3584 2278 3584 
Q 2916 3584 3314 3078 
Q 3713 2572 3713 1747 
Q 3713 922 3314 415 
Q 2916 -91 2278 -91 
Q 1894 -91 1617 61 
Q 1341 213 1159 525 
z
M 3116 1747 
Q 3116 2381 2855 2742 
Q 2594 3103 2138 3103 
Q 1681 3103 1420 2742 
Q 1159 2381 1159 1747 
Q 1159 1113 1420 752 
Q 1681 391 2138 391 
Q 2594 391 2855 752 
Q 3116 1113 3116 1747 
z
" transform="scale(0.015625)"/>
       </defs>
       <use xlink:href="#DejaVuSans-57"/>
       <use xlink:href="#DejaVuSans-65" x="93.001953"/>
       <use xlink:href="#DejaVuSans-73" x="154.525391"/>
       <use xlink:href="#DejaVuSans-74" x="206.625"/>
       <use xlink:href="#DejaVuSans-20" x="245.833984"/>
       <use xlink:href="#DejaVuSans-50" x="277.621094"/>
       <use xlink:href="#DejaVuSans-61" x="333.423828"/>
       <use xlink:href="#DejaVuSans-70" x="394.703125"/>
       <use xlink:href="#DejaVuSans-75" x="458.179688"/>
       <use xlink:href="#DejaVuSans-61" x="521.558594"/>
       <use xlink:href="#DejaVuSans-20" x="582.837891"/>
       <use xlink:href="#DejaVuSans-28" x="614.625"/>
       <use xlink:href="#DejaVuSans-49" x="653.638672"/>
       <use xlink:href="#DejaVuSans-29" x="683.130859"/>
      </g>
     </g>
    </g>
    <g id="ytick_4">
     <g id="line2d_22">
      <g>
       <use xlink:href="#m8b731eb8bd" x="118.40625" y="272.412973" style="stroke: #000000; stroke-width: 0.8"/>
      </g>
     </g>
     <g id="text_14">
      <!-- Maluku (I) -->
      <g transform="translate(61.7875 276.212192)scale(0.1 -0.1)">
       <defs>
        <path id="DejaVuSans-4d" d="M 628 4666 
L 1569 4666 
L 2759 1491 
L 3956 4666 
L 4897 4666 
L 4897 0 
L 4281 0 
L 4281 4097 
L 3078 897 
L 2444 897 
L 1241 4097 
L 1241 0 
L 628 0 
L 628 4666 
z
" transform="scale(0.015625)"/>
       </defs>
       <use xlink:href="#DejaVuSans-4d"/>
       <use xlink:href="#DejaVuSans-61" x="86.279297"/>
       <use xlink:href="#DejaVuSans-6c" x="147.558594"/>
       <use xlink:href="#DejaVuSans-75" x="175.341797"/>
       <use xlink:href="#DejaVuSans-6b" x="238.720703"/>
       <use xlink:href="#DejaVuSans-75" x="293.505859"/>
       <use xlink:href="#DejaVuSans-20" x="356.884766"/>
       <use xlink:href="#DejaVuSans-28" x="388.671875"/>
       <use xlink:href="#DejaVuSans-49" x="427.685547"/>
       <use xlink:href="#DejaVuSans-29" x="457.177734"/>
      </g>
     </g>
    </g>
    <g id="ytick_5">
     <g id="line2d_23">
      <g>
       <use xlink:href="#m8b731eb8bd" x="118.40625" y="254.432432" style="stroke: #000000; stroke-width: 0.8"/>
      </g>
     </g>
     <g id="text_15">
      <!-- Sulawesi (I) -->
      <g transform="translate(53.564063 258.231651)scale(0.1 -0.1)">
       <defs>
        <path id="DejaVuSans-53" d="M 3425 4513 
L 3425 3897 
Q 3066 4069 2747 4153 
Q 2428 4238 2131 4238 
Q 1616 4238 1336 4038 
Q 1056 3838 1056 3469 
Q 1056 3159 1242 3001 
Q 1428 2844 1947 2747 
L 2328 2669 
Q 3034 2534 3370 2195 
Q 3706 1856 3706 1288 
Q 3706 609 3251 259 
Q 2797 -91 1919 -91 
Q 1588 -91 1214 -16 
Q 841 59 441 206 
L 441 856 
Q 825 641 1194 531 
Q 1563 422 1919 422 
Q 2459 422 2753 634 
Q 3047 847 3047 1241 
Q 3047 1584 2836 1778 
Q 2625 1972 2144 2069 
L 1759 2144 
Q 1053 2284 737 2584 
Q 422 2884 422 3419 
Q 422 4038 858 4394 
Q 1294 4750 2059 4750 
Q 2388 4750 2728 4690 
Q 3069 4631 3425 4513 
z
" transform="scale(0.015625)"/>
        <path id="DejaVuSans-77" d="M 269 3500 
L 844 3500 
L 1563 769 
L 2278 3500 
L 2956 3500 
L 3675 769 
L 4391 3500 
L 4966 3500 
L 4050 0 
L 3372 0 
L 2619 2869 
L 1863 0 
L 1184 0 
L 269 3500 
z
" transform="scale(0.015625)"/>
       </defs>
       <use xlink:href="#DejaVuSans-53"/>
       <use xlink:href="#DejaVuSans-75" x="63.476562"/>
       <use xlink:href="#DejaVuSans-6c" x="126.855469"/>
       <use xlink:href="#DejaVuSans-61" x="154.638672"/>
       <use xlink:href="#DejaVuSans-77" x="215.917969"/>
       <use xlink:href="#DejaVuSans-65" x="297.705078"/>
       <use xlink:href="#DejaVuSans-73" x="359.228516"/>
       <use xlink:href="#DejaVuSans-69" x="411.328125"/>
       <use xlink:href="#DejaVuSans-20" x="439.111328"/>
       <use xlink:href="#DejaVuSans-28" x="470.898438"/>
       <use xlink:href="#DejaVuSans-49" x="509.912109"/>
       <use xlink:href="#DejaVuSans-29" x="539.404297"/>
      </g>
     </g>
    </g>
    <g id="ytick_6">
     <g id="line2d_24">
      <g>
       <use xlink:href="#m8b731eb8bd" x="118.40625" y="236.451892" style="stroke: #000000; stroke-width: 0.8"/>
      </g>
     </g>
     <g id="text_16">
      <!-- Sumatra (I) -->
      <g transform="translate(54.760938 240.251111)scale(0.1 -0.1)">
       <use xlink:href="#DejaVuSans-53"/>
       <use xlink:href="#DejaVuSans-75" x="63.476562"/>
       <use xlink:href="#DejaVuSans-6d" x="126.855469"/>
       <use xlink:href="#DejaVuSans-61" x="224.267578"/>
       <use xlink:href="#DejaVuSans-74" x="285.546875"/>
       <use xlink:href="#DejaVuSans-72" x="324.755859"/>
       <use xlink:href="#DejaVuSans-61" x="365.869141"/>
       <use xlink:href="#DejaVuSans-20" x="427.148438"/>
       <use xlink:href="#DejaVuSans-28" x="458.935547"/>
       <use xlink:href="#DejaVuSans-49" x="497.949219"/>
       <use xlink:href="#DejaVuSans-29" x="527.441406"/>
      </g>
     </g>
    </g>
    <g id="ytick_7">
     <g id="line2d_25">
      <g>
       <use xlink:href="#m8b731eb8bd" x="118.40625" y="218.471351" style="stroke: #000000; stroke-width: 0.8"/>
      </g>
     </g>
     <g id="text_17">
      <!-- Kalimantan (I) -->
      <g transform="translate(40.815625 222.27057)scale(0.1 -0.1)">
       <defs>
        <path id="DejaVuSans-4b" d="M 628 4666 
L 1259 4666 
L 1259 2694 
L 3353 4666 
L 4166 4666 
L 1850 2491 
L 4331 0 
L 3500 0 
L 1259 2247 
L 1259 0 
L 628 0 
L 628 4666 
z
" transform="scale(0.015625)"/>
       </defs>
       <use xlink:href="#DejaVuSans-4b"/>
       <use xlink:href="#DejaVuSans-61" x="63.826172"/>
       <use xlink:href="#DejaVuSans-6c" x="125.105469"/>
       <use xlink:href="#DejaVuSans-69" x="152.888672"/>
       <use xlink:href="#DejaVuSans-6d" x="180.671875"/>
       <use xlink:href="#DejaVuSans-61" x="278.083984"/>
       <use xlink:href="#DejaVuSans-6e" x="339.363281"/>
       <use xlink:href="#DejaVuSans-74" x="402.742188"/>
       <use xlink:href="#DejaVuSans-61" x="441.951172"/>
       <use xlink:href="#DejaVuSans-6e" x="503.230469"/>
       <use xlink:href="#DejaVuSans-20" x="566.609375"/>
       <use xlink:href="#DejaVuSans-28" x="598.396484"/>
       <use xlink:href="#DejaVuSans-49" x="637.410156"/>
       <use xlink:href="#DejaVuSans-29" x="666.902344"/>
      </g>
     </g>
    </g>
    <g id="ytick_8">
     <g id="line2d_26">
      <g>
       <use xlink:href="#m8b731eb8bd" x="118.40625" y="200.490811" style="stroke: #000000; stroke-width: 0.8"/>
      </g>
     </g>
     <g id="text_18">
      <!-- Singapore -->
      <g transform="translate(60.959375 204.29003)scale(0.1 -0.1)">
       <defs>
        <path id="DejaVuSans-6f" d="M 1959 3097 
Q 1497 3097 1228 2736 
Q 959 2375 959 1747 
Q 959 1119 1226 758 
Q 1494 397 1959 397 
Q 2419 397 2687 759 
Q 2956 1122 2956 1747 
Q 2956 2369 2687 2733 
Q 2419 3097 1959 3097 
z
M 1959 3584 
Q 2709 3584 3137 3096 
Q 3566 2609 3566 1747 
Q 3566 888 3137 398 
Q 2709 -91 1959 -91 
Q 1206 -91 779 398 
Q 353 888 353 1747 
Q 353 2609 779 3096 
Q 1206 3584 1959 3584 
z
" transform="scale(0.015625)"/>
       </defs>
       <use xlink:href="#DejaVuSans-53"/>
       <use xlink:href="#DejaVuSans-69" x="63.476562"/>
       <use xlink:href="#DejaVuSans-6e" x="91.259766"/>
       <use xlink:href="#DejaVuSans-67" x="154.638672"/>
       <use xlink:href="#DejaVuSans-61" x="218.115234"/>
       <use xlink:href="#DejaVuSans-70" x="279.394531"/>
       <use xlink:href="#DejaVuSans-6f" x="342.871094"/>
       <use xlink:href="#DejaVuSans-72" x="404.052734"/>
       <use xlink:href="#DejaVuSans-65" x="442.916016"/>
      </g>
     </g>
    </g>
    <g id="ytick_9">
     <g id="line2d_27">
      <g>
       <use xlink:href="#m8b731eb8bd" x="118.40625" y="182.51027" style="stroke: #000000; stroke-width: 0.8"/>
      </g>
     </g>
     <g id="text_19">
      <!-- Sarawak (M) -->
      <g transform="translate(48.984375 186.309489)scale(0.1 -0.1)">
       <use xlink:href="#DejaVuSans-53"/>
       <use xlink:href="#DejaVuSans-61" x="63.476562"/>
       <use xlink:href="#DejaVuSans-72" x="124.755859"/>
       <use xlink:href="#DejaVuSans-61" x="165.869141"/>
       <use xlink:href="#DejaVuSans-77" x="227.148438"/>
       <use xlink:href="#DejaVuSans-61" x="308.935547"/>
       <use xlink:href="#DejaVuSans-6b" x="370.214844"/>
       <use xlink:href="#DejaVuSans-20" x="428.125"/>
       <use xlink:href="#DejaVuSans-28" x="459.912109"/>
       <use xlink:href="#DejaVuSans-4d" x="498.925781"/>
       <use xlink:href="#DejaVuSans-29" x="585.205078"/>
      </g>
     </g>
    </g>
    <g id="ytick_10">
     <g id="line2d_28">
      <g>
       <use xlink:href="#m8b731eb8bd" x="118.40625" y="164.52973" style="stroke: #000000; stroke-width: 0.8"/>
      </g>
     </g>
     <g id="text_20">
      <!-- Malay Peninsular (M) -->
      <g transform="translate(7.2 168.328948)scale(0.1 -0.1)">
       <defs>
        <path id="DejaVuSans-79" d="M 2059 -325 
Q 1816 -950 1584 -1140 
Q 1353 -1331 966 -1331 
L 506 -1331 
L 506 -850 
L 844 -850 
Q 1081 -850 1212 -737 
Q 1344 -625 1503 -206 
L 1606 56 
L 191 3500 
L 800 3500 
L 1894 763 
L 2988 3500 
L 3597 3500 
L 2059 -325 
z
" transform="scale(0.015625)"/>
       </defs>
       <use xlink:href="#DejaVuSans-4d"/>
       <use xlink:href="#DejaVuSans-61" x="86.279297"/>
       <use xlink:href="#DejaVuSans-6c" x="147.558594"/>
       <use xlink:href="#DejaVuSans-61" x="175.341797"/>
       <use xlink:href="#DejaVuSans-79" x="236.621094"/>
       <use xlink:href="#DejaVuSans-20" x="295.800781"/>
       <use xlink:href="#DejaVuSans-50" x="327.587891"/>
       <use xlink:href="#DejaVuSans-65" x="384.265625"/>
       <use xlink:href="#DejaVuSans-6e" x="445.789062"/>
       <use xlink:href="#DejaVuSans-69" x="509.167969"/>
       <use xlink:href="#DejaVuSans-6e" x="536.951172"/>
       <use xlink:href="#DejaVuSans-73" x="600.330078"/>
       <use xlink:href="#DejaVuSans-75" x="652.429688"/>
       <use xlink:href="#DejaVuSans-6c" x="715.808594"/>
       <use xlink:href="#DejaVuSans-61" x="743.591797"/>
       <use xlink:href="#DejaVuSans-72" x="804.871094"/>
       <use xlink:href="#DejaVuSans-20" x="845.984375"/>
       <use xlink:href="#DejaVuSans-28" x="877.771484"/>
       <use xlink:href="#DejaVuSans-4d" x="916.785156"/>
       <use xlink:href="#DejaVuSans-29" x="1003.064453"/>
      </g>
     </g>
    </g>
    <g id="ytick_11">
     <g id="line2d_29">
      <g>
       <use xlink:href="#m8b731eb8bd" x="118.40625" y="146.549189" style="stroke: #000000; stroke-width: 0.8"/>
      </g>
     </g>
     <g id="text_21">
      <!-- Brunei -->
      <g transform="translate(78.828125 150.348408)scale(0.1 -0.1)">
       <use xlink:href="#DejaVuSans-42"/>
       <use xlink:href="#DejaVuSans-72" x="68.603516"/>
       <use xlink:href="#DejaVuSans-75" x="109.716797"/>
       <use xlink:href="#DejaVuSans-6e" x="173.095703"/>
       <use xlink:href="#DejaVuSans-65" x="236.474609"/>
       <use xlink:href="#DejaVuSans-69" x="297.998047"/>
      </g>
     </g>
    </g>
    <g id="ytick_12">
     <g id="line2d_30">
      <g>
       <use xlink:href="#m8b731eb8bd" x="118.40625" y="128.568649" style="stroke: #000000; stroke-width: 0.8"/>
      </g>
     </g>
     <g id="text_22">
      <!-- Sabah (M) -->
      <g transform="translate(60.50625 132.367867)scale(0.1 -0.1)">
       <defs>
        <path id="DejaVuSans-62" d="M 3116 1747 
Q 3116 2381 2855 2742 
Q 2594 3103 2138 3103 
Q 1681 3103 1420 2742 
Q 1159 2381 1159 1747 
Q 1159 1113 1420 752 
Q 1681 391 2138 391 
Q 2594 391 2855 752 
Q 3116 1113 3116 1747 
z
M 1159 2969 
Q 1341 3281 1617 3432 
Q 1894 3584 2278 3584 
Q 2916 3584 3314 3078 
Q 3713 2572 3713 1747 
Q 3713 922 3314 415 
Q 2916 -91 2278 -91 
Q 1894 -91 1617 61 
Q 1341 213 1159 525 
L 1159 0 
L 581 0 
L 581 4863 
L 1159 4863 
L 1159 2969 
z
" transform="scale(0.015625)"/>
        <path id="DejaVuSans-68" d="M 3513 2113 
L 3513 0 
L 2938 0 
L 2938 2094 
Q 2938 2591 2744 2837 
Q 2550 3084 2163 3084 
Q 1697 3084 1428 2787 
Q 1159 2491 1159 1978 
L 1159 0 
L 581 0 
L 581 4863 
L 1159 4863 
L 1159 2956 
Q 1366 3272 1645 3428 
Q 1925 3584 2291 3584 
Q 2894 3584 3203 3211 
Q 3513 2838 3513 2113 
z
" transform="scale(0.015625)"/>
       </defs>
       <use xlink:href="#DejaVuSans-53"/>
       <use xlink:href="#DejaVuSans-61" x="63.476562"/>
       <use xlink:href="#DejaVuSans-62" x="124.755859"/>
       <use xlink:href="#DejaVuSans-61" x="188.232422"/>
       <use xlink:href="#DejaVuSans-68" x="249.511719"/>
       <use xlink:href="#DejaVuSans-20" x="312.890625"/>
       <use xlink:href="#DejaVuSans-28" x="344.677734"/>
       <use xlink:href="#DejaVuSans-4d" x="383.691406"/>
       <use xlink:href="#DejaVuSans-29" x="469.970703"/>
      </g>
     </g>
    </g>
    <g id="ytick_13">
     <g id="line2d_31">
      <g>
       <use xlink:href="#m8b731eb8bd" x="118.40625" y="110.588108" style="stroke: #000000; stroke-width: 0.8"/>
      </g>
     </g>
     <g id="text_23">
      <!-- Philippines -->
      <g transform="translate(57.529688 114.387327)scale(0.1 -0.1)">
       <use xlink:href="#DejaVuSans-50"/>
       <use xlink:href="#DejaVuSans-68" x="60.302734"/>
       <use xlink:href="#DejaVuSans-69" x="123.681641"/>
       <use xlink:href="#DejaVuSans-6c" x="151.464844"/>
       <use xlink:href="#DejaVuSans-69" x="179.248047"/>
       <use xlink:href="#DejaVuSans-70" x="207.03125"/>
       <use xlink:href="#DejaVuSans-70" x="270.507812"/>
       <use xlink:href="#DejaVuSans-69" x="333.984375"/>
       <use xlink:href="#DejaVuSans-6e" x="361.767578"/>
       <use xlink:href="#DejaVuSans-65" x="425.146484"/>
       <use xlink:href="#DejaVuSans-73" x="486.669922"/>
      </g>
     </g>
    </g>
    <g id="ytick_14">
     <g id="line2d_32">
      <g>
       <use xlink:href="#m8b731eb8bd" x="118.40625" y="92.607568" style="stroke: #000000; stroke-width: 0.8"/>
      </g>
     </g>
     <g id="text_24">
      <!-- Cambodia -->
      <g transform="translate(60.832813 96.406786)scale(0.1 -0.1)">
       <defs>
        <path id="DejaVuSans-43" d="M 4122 4306 
L 4122 3641 
Q 3803 3938 3442 4084 
Q 3081 4231 2675 4231 
Q 1875 4231 1450 3742 
Q 1025 3253 1025 2328 
Q 1025 1406 1450 917 
Q 1875 428 2675 428 
Q 3081 428 3442 575 
Q 3803 722 4122 1019 
L 4122 359 
Q 3791 134 3420 21 
Q 3050 -91 2638 -91 
Q 1578 -91 968 557 
Q 359 1206 359 2328 
Q 359 3453 968 4101 
Q 1578 4750 2638 4750 
Q 3056 4750 3426 4639 
Q 3797 4528 4122 4306 
z
" transform="scale(0.015625)"/>
        <path id="DejaVuSans-64" d="M 2906 2969 
L 2906 4863 
L 3481 4863 
L 3481 0 
L 2906 0 
L 2906 525 
Q 2725 213 2448 61 
Q 2172 -91 1784 -91 
Q 1150 -91 751 415 
Q 353 922 353 1747 
Q 353 2572 751 3078 
Q 1150 3584 1784 3584 
Q 2172 3584 2448 3432 
Q 2725 3281 2906 2969 
z
M 947 1747 
Q 947 1113 1208 752 
Q 1469 391 1925 391 
Q 2381 391 2643 752 
Q 2906 1113 2906 1747 
Q 2906 2381 2643 2742 
Q 2381 3103 1925 3103 
Q 1469 3103 1208 2742 
Q 947 2381 947 1747 
z
" transform="scale(0.015625)"/>
       </defs>
       <use xlink:href="#DejaVuSans-43"/>
       <use xlink:href="#DejaVuSans-61" x="69.824219"/>
       <use xlink:href="#DejaVuSans-6d" x="131.103516"/>
       <use xlink:href="#DejaVuSans-62" x="228.515625"/>
       <use xlink:href="#DejaVuSans-6f" x="291.992188"/>
       <use xlink:href="#DejaVuSans-64" x="353.173828"/>
       <use xlink:href="#DejaVuSans-69" x="416.650391"/>
       <use xlink:href="#DejaVuSans-61" x="444.433594"/>
      </g>
     </g>
    </g>
    <g id="ytick_15">
     <g id="line2d_33">
      <g>
       <use xlink:href="#m8b731eb8bd" x="118.40625" y="74.627027" style="stroke: #000000; stroke-width: 0.8"/>
      </g>
     </g>
     <g id="text_25">
      <!-- Thailand -->
      <g transform="translate(68.4625 78.426246)scale(0.1 -0.1)">
       <use xlink:href="#DejaVuSans-54"/>
       <use xlink:href="#DejaVuSans-68" x="61.083984"/>
       <use xlink:href="#DejaVuSans-61" x="124.462891"/>
       <use xlink:href="#DejaVuSans-69" x="185.742188"/>
       <use xlink:href="#DejaVuSans-6c" x="213.525391"/>
       <use xlink:href="#DejaVuSans-61" x="241.308594"/>
       <use xlink:href="#DejaVuSans-6e" x="302.587891"/>
       <use xlink:href="#DejaVuSans-64" x="365.966797"/>
      </g>
     </g>
    </g>
    <g id="ytick_16">
     <g id="line2d_34">
      <g>
       <use xlink:href="#m8b731eb8bd" x="118.40625" y="56.646486" style="stroke: #000000; stroke-width: 0.8"/>
      </g>
     </g>
     <g id="text_26">
      <!-- Vietnam -->
      <g transform="translate(69.732813 60.445705)scale(0.1 -0.1)">
       <use xlink:href="#DejaVuSans-56"/>
       <use xlink:href="#DejaVuSans-69" x="66.158203"/>
       <use xlink:href="#DejaVuSans-65" x="93.941406"/>
       <use xlink:href="#DejaVuSans-74" x="155.464844"/>
       <use xlink:href="#DejaVuSans-6e" x="194.673828"/>
       <use xlink:href="#DejaVuSans-61" x="258.052734"/>
       <use xlink:href="#DejaVuSans-6d" x="319.332031"/>
      </g>
     </g>
    </g>
    <g id="ytick_17">
     <g id="line2d_35">
      <g>
       <use xlink:href="#m8b731eb8bd" x="118.40625" y="38.665946" style="stroke: #000000; stroke-width: 0.8"/>
      </g>
     </g>
     <g id="text_27">
      <!-- Laos -->
      <g transform="translate(88.378125 42.465165)scale(0.1 -0.1)">
       <defs>
        <path id="DejaVuSans-4c" d="M 628 4666 
L 1259 4666 
L 1259 531 
L 3531 531 
L 3531 0 
L 628 0 
L 628 4666 
z
" transform="scale(0.015625)"/>
       </defs>
       <use xlink:href="#DejaVuSans-4c"/>
       <use xlink:href="#DejaVuSans-61" x="55.712891"/>
       <use xlink:href="#DejaVuSans-6f" x="116.992188"/>
       <use xlink:href="#DejaVuSans-73" x="178.173828"/>
      </g>
     </g>
    </g>
    <g id="ytick_18">
     <g id="line2d_36">
      <g>
       <use xlink:href="#m8b731eb8bd" x="118.40625" y="20.685405" style="stroke: #000000; stroke-width: 0.8"/>
      </g>
     </g>
     <g id="text_28">
      <!-- Myanmar -->
      <g transform="translate(64.414063 24.484624)scale(0.1 -0.1)">
       <use xlink:href="#DejaVuSans-4d"/>
       <use xlink:href="#DejaVuSans-79" x="86.279297"/>
       <use xlink:href="#DejaVuSans-61" x="145.458984"/>
       <use xlink:href="#DejaVuSans-6e" x="206.738281"/>
       <use xlink:href="#DejaVuSans-6d" x="270.117188"/>
       <use xlink:href="#DejaVuSans-61" x="367.529297"/>
       <use xlink:href="#DejaVuSans-72" x="428.808594"/>
      </g>
     </g>
    </g>
   </g>
   <g id="patch_165">
    <path d="M 118.40625 339.84 
L 118.40625 7.2 
" style="fill: none; stroke: #000000; stroke-width: 0.8; stroke-linejoin: miter; stroke-linecap: square"/>
   </g>
   <g id="patch_166">
    <path d="M 453.20625 339.84 
L 453.20625 7.2 
" style="fill: none; stroke: #000000; stroke-width: 0.8; stroke-linejoin: miter; stroke-linecap: square"/>
   </g>
   <g id="patch_167">
    <path d="M 118.40625 339.84 
L 453.20625 339.84 
" style="fill: none; stroke: #000000; stroke-width: 0.8; stroke-linejoin: miter; stroke-linecap: square"/>
   </g>
   <g id="patch_168">
    <path d="M 118.40625 7.2 
L 453.20625 7.2 
" style="fill: none; stroke: #000000; stroke-width: 0.8; stroke-linejoin: miter; stroke-linecap: square"/>
   </g>
   <g id="legend_1">
    <g id="text_29">
     <!-- Years -->
     <g transform="translate(493.451563 110.227813)scale(0.1 -0.1)">
      <defs>
       <path id="DejaVuSans-Bold-59" d="M -63 4666 
L 1253 4666 
L 2316 3003 
L 3378 4666 
L 4697 4666 
L 2919 1966 
L 2919 0 
L 1716 0 
L 1716 1966 
L -63 4666 
z
" transform="scale(0.015625)"/>
       <path id="DejaVuSans-Bold-65" d="M 4031 1759 
L 4031 1441 
L 1416 1441 
Q 1456 1047 1700 850 
Q 1944 653 2381 653 
Q 2734 653 3104 758 
Q 3475 863 3866 1075 
L 3866 213 
Q 3469 63 3072 -14 
Q 2675 -91 2278 -91 
Q 1328 -91 801 392 
Q 275 875 275 1747 
Q 275 2603 792 3093 
Q 1309 3584 2216 3584 
Q 3041 3584 3536 3087 
Q 4031 2591 4031 1759 
z
M 2881 2131 
Q 2881 2450 2695 2645 
Q 2509 2841 2209 2841 
Q 1884 2841 1681 2658 
Q 1478 2475 1428 2131 
L 2881 2131 
z
" transform="scale(0.015625)"/>
       <path id="DejaVuSans-Bold-61" d="M 2106 1575 
Q 1756 1575 1579 1456 
Q 1403 1338 1403 1106 
Q 1403 894 1545 773 
Q 1688 653 1941 653 
Q 2256 653 2472 879 
Q 2688 1106 2688 1447 
L 2688 1575 
L 2106 1575 
z
M 3816 1997 
L 3816 0 
L 2688 0 
L 2688 519 
Q 2463 200 2181 54 
Q 1900 -91 1497 -91 
Q 953 -91 614 226 
Q 275 544 275 1050 
Q 275 1666 698 1953 
Q 1122 2241 2028 2241 
L 2688 2241 
L 2688 2328 
Q 2688 2594 2478 2717 
Q 2269 2841 1825 2841 
Q 1466 2841 1156 2769 
Q 847 2697 581 2553 
L 581 3406 
Q 941 3494 1303 3539 
Q 1666 3584 2028 3584 
Q 2975 3584 3395 3211 
Q 3816 2838 3816 1997 
z
" transform="scale(0.015625)"/>
       <path id="DejaVuSans-Bold-72" d="M 3138 2547 
Q 2991 2616 2845 2648 
Q 2700 2681 2553 2681 
Q 2122 2681 1889 2404 
Q 1656 2128 1656 1613 
L 1656 0 
L 538 0 
L 538 3500 
L 1656 3500 
L 1656 2925 
Q 1872 3269 2151 3426 
Q 2431 3584 2822 3584 
Q 2878 3584 2943 3579 
Q 3009 3575 3134 3559 
L 3138 2547 
z
" transform="scale(0.015625)"/>
       <path id="DejaVuSans-Bold-73" d="M 3272 3391 
L 3272 2541 
Q 2913 2691 2578 2766 
Q 2244 2841 1947 2841 
Q 1628 2841 1473 2761 
Q 1319 2681 1319 2516 
Q 1319 2381 1436 2309 
Q 1553 2238 1856 2203 
L 2053 2175 
Q 2913 2066 3209 1816 
Q 3506 1566 3506 1031 
Q 3506 472 3093 190 
Q 2681 -91 1863 -91 
Q 1516 -91 1145 -36 
Q 775 19 384 128 
L 384 978 
Q 719 816 1070 734 
Q 1422 653 1784 653 
Q 2113 653 2278 743 
Q 2444 834 2444 1013 
Q 2444 1163 2330 1236 
Q 2216 1309 1875 1350 
L 1678 1375 
Q 931 1469 631 1722 
Q 331 1975 331 2491 
Q 331 3047 712 3315 
Q 1094 3584 1881 3584 
Q 2191 3584 2531 3537 
Q 2872 3491 3272 3391 
z
" transform="scale(0.015625)"/>
      </defs>
      <use xlink:href="#DejaVuSans-Bold-59"/>
      <use xlink:href="#DejaVuSans-Bold-65" x="63.287109"/>
      <use xlink:href="#DejaVuSans-Bold-61" x="131.109375"/>
      <use xlink:href="#DejaVuSans-Bold-72" x="198.589844"/>
      <use xlink:href="#DejaVuSans-Bold-73" x="247.90625"/>
     </g>
    </g>
    <g id="patch_169">
     <path d="M 462.20625 124.905938 
L 482.20625 124.905938 
L 482.20625 117.905938 
L 462.20625 117.905938 
z
"/>
    </g>
    <g id="text_30">
     <!-- 2050 -->
     <g transform="translate(490.20625 124.905938)scale(0.1 -0.1)">
      <use xlink:href="#DejaVuSans-32"/>
      <use xlink:href="#DejaVuSans-30" x="63.623047"/>
      <use xlink:href="#DejaVuSans-35" x="127.246094"/>
      <use xlink:href="#DejaVuSans-30" x="190.869141"/>
     </g>
    </g>
    <g id="patch_170">
     <path d="M 462.20625 139.584063 
L 482.20625 139.584063 
L 482.20625 132.584063 
L 462.20625 132.584063 
z
" style="fill: #242424"/>
    </g>
    <g id="text_31">
     <!-- 2045 -->
     <g transform="translate(490.20625 139.584063)scale(0.1 -0.1)">
      <use xlink:href="#DejaVuSans-32"/>
      <use xlink:href="#DejaVuSans-30" x="63.623047"/>
      <use xlink:href="#DejaVuSans-34" x="127.246094"/>
      <use xlink:href="#DejaVuSans-35" x="190.869141"/>
     </g>
    </g>
    <g id="patch_171">
     <path d="M 462.20625 154.262188 
L 482.20625 154.262188 
L 482.20625 147.262188 
L 462.20625 147.262188 
z
" style="fill: #434343"/>
    </g>
    <g id="text_32">
     <!-- 2040 -->
     <g transform="translate(490.20625 154.262188)scale(0.1 -0.1)">
      <use xlink:href="#DejaVuSans-32"/>
      <use xlink:href="#DejaVuSans-30" x="63.623047"/>
      <use xlink:href="#DejaVuSans-34" x="127.246094"/>
      <use xlink:href="#DejaVuSans-30" x="190.869141"/>
     </g>
    </g>
    <g id="patch_172">
     <path d="M 462.20625 168.940313 
L 482.20625 168.940313 
L 482.20625 161.940313 
L 462.20625 161.940313 
z
" style="fill: #656565"/>
    </g>
    <g id="text_33">
     <!-- 2035 -->
     <g transform="translate(490.20625 168.940313)scale(0.1 -0.1)">
      <use xlink:href="#DejaVuSans-32"/>
      <use xlink:href="#DejaVuSans-30" x="63.623047"/>
      <use xlink:href="#DejaVuSans-33" x="127.246094"/>
      <use xlink:href="#DejaVuSans-35" x="190.869141"/>
     </g>
    </g>
    <g id="patch_173">
     <path d="M 462.20625 183.618438 
L 482.20625 183.618438 
L 482.20625 176.618438 
L 462.20625 176.618438 
z
" style="fill: #898989"/>
    </g>
    <g id="text_34">
     <!-- 2030 -->
     <g transform="translate(490.20625 183.618438)scale(0.1 -0.1)">
      <use xlink:href="#DejaVuSans-32"/>
      <use xlink:href="#DejaVuSans-30" x="63.623047"/>
      <use xlink:href="#DejaVuSans-33" x="127.246094"/>
      <use xlink:href="#DejaVuSans-30" x="190.869141"/>
     </g>
    </g>
    <g id="patch_174">
     <path d="M 462.20625 198.296563 
L 482.20625 198.296563 
L 482.20625 191.296563 
L 462.20625 191.296563 
z
" style="fill: #afafaf"/>
    </g>
    <g id="text_35">
     <!-- 2025 -->
     <g transform="translate(490.20625 198.296563)scale(0.1 -0.1)">
      <use xlink:href="#DejaVuSans-32"/>
      <use xlink:href="#DejaVuSans-30" x="63.623047"/>
      <use xlink:href="#DejaVuSans-32" x="127.246094"/>
      <use xlink:href="#DejaVuSans-35" x="190.869141"/>
     </g>
    </g>
    <g id="patch_175">
     <path d="M 462.20625 212.974688 
L 482.20625 212.974688 
L 482.20625 205.974688 
L 462.20625 205.974688 
z
" style="fill: #d6d6d6"/>
    </g>
    <g id="text_36">
     <!-- 2020 -->
     <g transform="translate(490.20625 212.974688)scale(0.1 -0.1)">
      <use xlink:href="#DejaVuSans-32"/>
      <use xlink:href="#DejaVuSans-30" x="63.623047"/>
      <use xlink:href="#DejaVuSans-32" x="127.246094"/>
      <use xlink:href="#DejaVuSans-30" x="190.869141"/>
     </g>
    </g>
    <g id="patch_176">
     <path d="M 462.20625 227.652813 
L 482.20625 227.652813 
L 482.20625 220.652813 
L 462.20625 220.652813 
z
" style="fill: #ececec"/>
    </g>
    <g id="text_37">
     <!-- OSM -->
     <g transform="translate(490.20625 227.652813)scale(0.1 -0.1)">
      <defs>
       <path id="DejaVuSans-4f" d="M 2522 4238 
Q 1834 4238 1429 3725 
Q 1025 3213 1025 2328 
Q 1025 1447 1429 934 
Q 1834 422 2522 422 
Q 3209 422 3611 934 
Q 4013 1447 4013 2328 
Q 4013 3213 3611 3725 
Q 3209 4238 2522 4238 
z
M 2522 4750 
Q 3503 4750 4090 4092 
Q 4678 3434 4678 2328 
Q 4678 1225 4090 567 
Q 3503 -91 2522 -91 
Q 1538 -91 948 565 
Q 359 1222 359 2328 
Q 359 3434 948 4092 
Q 1538 4750 2522 4750 
z
" transform="scale(0.015625)"/>
      </defs>
      <use xlink:href="#DejaVuSans-4f"/>
      <use xlink:href="#DejaVuSans-53" x="78.710938"/>
      <use xlink:href="#DejaVuSans-4d" x="142.1875"/>
     </g>
    </g>
    <g id="patch_177">
     <path d="M 462.20625 242.330938 
L 482.20625 242.330938 
L 482.20625 235.330938 
L 462.20625 235.330938 
z
" style="fill: url(#h07a6c90baa)"/>
    </g>
    <g id="text_38">
     <!-- Single Nodes -->
     <g transform="translate(490.20625 242.330938)scale(0.1 -0.1)">
      <use xlink:href="#DejaVuSans-53"/>
      <use xlink:href="#DejaVuSans-69" x="63.476562"/>
      <use xlink:href="#DejaVuSans-6e" x="91.259766"/>
      <use xlink:href="#DejaVuSans-67" x="154.638672"/>
      <use xlink:href="#DejaVuSans-6c" x="218.115234"/>
      <use xlink:href="#DejaVuSans-65" x="245.898438"/>
      <use xlink:href="#DejaVuSans-20" x="307.421875"/>
      <use xlink:href="#DejaVuSans-4e" x="339.208984"/>
      <use xlink:href="#DejaVuSans-6f" x="414.013672"/>
      <use xlink:href="#DejaVuSans-64" x="475.195312"/>
      <use xlink:href="#DejaVuSans-65" x="538.671875"/>
      <use xlink:href="#DejaVuSans-73" x="600.195312"/>
     </g>
    </g>
   </g>
  </g>
 </g>
 <defs>
  <clipPath id="p7c97b32f93">
   <rect x="118.40625" y="7.2" width="334.8" height="332.64"/>
  </clipPath>
 </defs>
 <defs>
  <pattern id="h07a6c90baa" patternUnits="userSpaceOnUse" x="0" y="0" width="72" height="72">
   <rect x="0" y="0" width="73" height="73" fill="none"/>
   <path d="M -36 36 
L 36 -36 
M -32 40 
L 40 -32 
M -28 44 
L 44 -28 
M -24 48 
L 48 -24 
M -20 52 
L 52 -20 
M -16 56 
L 56 -16 
M -12 60 
L 60 -12 
M -8 64 
L 64 -8 
M -4 68 
L 68 -4 
M 0 72 
L 72 0 
M 4 76 
L 76 4 
M 8 80 
L 80 8 
M 12 84 
L 84 12 
M 16 88 
L 88 16 
M 20 92 
L 92 20 
M 24 96 
L 96 24 
M 28 100 
L 100 28 
M 32 104 
L 104 32 
M 36 108 
L 108 36 
" style="fill: #ff0000; stroke: #ff0000; stroke-width: 1.0; stroke-linecap: butt; stroke-linejoin: miter"/>
  </pattern>
 </defs>
</svg>
