<?xml version="1.0" encoding="utf-8" standalone="no"?>
<!DOCTYPE svg PUBLIC "-//W3C//DTD SVG 1.1//EN"
  "http://www.w3.org/Graphics/SVG/1.1/DTD/svg11.dtd">
<svg xmlns:xlink="http://www.w3.org/1999/xlink" width="568.087187pt" height="244.529219pt" viewBox="0 0 568.087187 244.529219" xmlns="http://www.w3.org/2000/svg" version="1.1">
 <metadata>
  <rdf:RDF xmlns:dc="http://purl.org/dc/elements/1.1/" xmlns:cc="http://creativecommons.org/ns#" xmlns:rdf="http://www.w3.org/1999/02/22-rdf-syntax-ns#">
   <cc:Work>
    <dc:type rdf:resource="http://purl.org/dc/dcmitype/StillImage"/>
    <dc:date>2024-11-04T13:38:31.541481</dc:date>
    <dc:format>image/svg+xml</dc:format>
    <dc:creator>
     <cc:Agent>
      <dc:title>Matplotlib v3.5.2, https://matplotlib.org/</dc:title>
     </cc:Agent>
    </dc:creator>
   </cc:Work>
  </rdf:RDF>
 </metadata>
 <defs>
  <style type="text/css">*{stroke-linejoin: round; stroke-linecap: butt}</style>
 </defs>
 <g id="figure_1">
  <g id="patch_1">
   <path d="M 0 244.529219 
L 568.087187 244.529219 
L 568.087187 0 
L 0 0 
z
" style="fill: #ffffff"/>
  </g>
  <g id="axes_1">
   <g id="patch_2">
    <path d="M 53.328125 204.879219 
L 273.448125 204.879219 
L 273.448125 10.999219 
L 53.328125 10.999219 
z
" style="fill: #ffffff"/>
   </g>
   <g id="PolyCollection_1">
    <defs>
     <path id="m5ccb73ffa2" d="M 53.328125 -41.158469 
L 53.328125 -39.65 
L 90.014792 -39.65 
L 126.701458 -39.65 
L 163.388125 -39.65 
L 200.074792 -39.65 
L 236.761458 -39.65 
L 273.448125 -39.65 
L 273.448125 -41.490324 
L 273.448125 -41.490324 
L 236.761458 -41.490424 
L 200.074792 -41.490424 
L 163.388125 -41.490424 
L 126.701458 -41.491716 
L 90.014792 -41.316675 
L 53.328125 -41.158469 
z
" style="stroke: #08ad97"/>
    </defs>
    <g clip-path="url(#p4c133217b5)">
     <use xlink:href="#m5ccb73ffa2" x="0" y="244.529219" style="fill: #08ad97; stroke: #08ad97"/>
    </g>
   </g>
   <g id="PolyCollection_2">
    <defs>
     <path id="m238bedf1f2" d="M 53.328125 -41.158626 
L 53.328125 -41.158469 
L 90.014792 -41.316675 
L 126.701458 -41.491716 
L 163.388125 -41.490424 
L 200.074792 -41.490424 
L 236.761458 -41.490424 
L 273.448125 -41.490324 
L 273.448125 -41.490729 
L 273.448125 -41.490729 
L 236.761458 -41.490682 
L 200.074792 -41.490681 
L 163.388125 -41.490628 
L 126.701458 -41.491875 
L 90.014792 -41.316832 
L 53.328125 -41.158626 
z
" style="stroke: #6895dd"/>
    </defs>
    <g clip-path="url(#p4c133217b5)">
     <use xlink:href="#m238bedf1f2" x="0" y="244.529219" style="fill: #6895dd; stroke: #6895dd"/>
    </g>
   </g>
   <g id="PolyCollection_3">
    <defs>
     <path id="ma4da4af87a" d="M 53.328125 -41.16159 
L 53.328125 -41.158626 
L 90.014792 -41.316832 
L 126.701458 -41.491875 
L 163.388125 -41.490628 
L 200.074792 -41.490681 
L 236.761458 -41.490682 
L 273.448125 -41.490729 
L 273.448125 -41.493937 
L 273.448125 -41.493937 
L 236.761458 -41.493748 
L 200.074792 -41.49374 
L 163.388125 -41.493637 
L 126.701458 -41.49484 
L 90.014792 -41.319796 
L 53.328125 -41.16159 
z
" style="stroke: #74c6f2"/>
    </defs>
    <g clip-path="url(#p4c133217b5)">
     <use xlink:href="#ma4da4af87a" x="0" y="244.529219" style="fill: #74c6f2; stroke: #74c6f2"/>
    </g>
   </g>
   <g id="PolyCollection_4">
    <defs>
     <path id="m15c63cdf7c" d="M 53.328125 -41.815273 
L 53.328125 -41.16159 
L 90.014792 -41.319796 
L 126.701458 -41.49484 
L 163.388125 -41.493637 
L 200.074792 -41.49374 
L 236.761458 -41.493748 
L 273.448125 -41.493937 
L 273.448125 -50.169335 
L 273.448125 -50.169335 
L 236.761458 -48.69304 
L 200.074792 -47.075866 
L 163.388125 -45.05185 
L 126.701458 -43.212238 
L 90.014792 -42.211011 
L 53.328125 -41.815273 
z
" style="stroke: #235ebc"/>
    </defs>
    <g clip-path="url(#p4c133217b5)">
     <use xlink:href="#m15c63cdf7c" x="0" y="244.529219" style="fill: #235ebc; stroke: #235ebc"/>
    </g>
   </g>
   <g id="PolyCollection_5">
    <defs>
     <path id="mfd5a010d98" d="M 53.328125 -42.881052 
L 53.328125 -41.815273 
L 90.014792 -42.211011 
L 126.701458 -43.212238 
L 163.388125 -45.05185 
L 200.074792 -47.075866 
L 236.761458 -48.69304 
L 273.448125 -50.169335 
L 273.448125 -79.610511 
L 273.448125 -79.610511 
L 236.761458 -70.027935 
L 200.074792 -60.794575 
L 163.388125 -53.626892 
L 126.701458 -47.42773 
L 90.014792 -44.056091 
L 53.328125 -42.881052 
z
" style="stroke: #f9d002"/>
    </defs>
    <g clip-path="url(#p4c133217b5)">
     <use xlink:href="#mfd5a010d98" x="0" y="244.529219" style="fill: #f9d002; stroke: #f9d002"/>
    </g>
   </g>
   <g id="PolyCollection_6">
    <defs>
     <path id="m0dfa0a557c" d="M 53.328125 -46.105633 
L 53.328125 -42.881052 
L 90.014792 -44.056091 
L 126.701458 -47.42773 
L 163.388125 -53.626892 
L 200.074792 -60.794575 
L 236.761458 -70.027935 
L 273.448125 -79.610511 
L 273.448125 -101.830453 
L 273.448125 -101.830453 
L 236.761458 -85.318828 
L 200.074792 -70.690196 
L 163.388125 -59.123485 
L 126.701458 -50.981605 
L 90.014792 -47.551102 
L 53.328125 -46.105633 
z
" style="stroke: #b20101"/>
    </defs>
    <g clip-path="url(#p4c133217b5)">
     <use xlink:href="#m0dfa0a557c" x="0" y="244.529219" style="fill: #b20101; stroke: #b20101"/>
    </g>
   </g>
   <g id="PolyCollection_7">
    <defs>
     <path id="maa98a344f2" d="M 53.328125 -46.172844 
L 53.328125 -46.105633 
L 90.014792 -47.551102 
L 126.701458 -50.981605 
L 163.388125 -59.123485 
L 200.074792 -70.690196 
L 236.761458 -85.318828 
L 273.448125 -101.830453 
L 273.448125 -101.95906 
L 273.448125 -101.95906 
L 236.761458 -85.447435 
L 200.074792 -70.818803 
L 163.388125 -59.252092 
L 126.701458 -51.110212 
L 90.014792 -47.679709 
L 53.328125 -46.172844 
z
" style="stroke: #707070"/>
    </defs>
    <g clip-path="url(#p4c133217b5)">
     <use xlink:href="#maa98a344f2" x="0" y="244.529219" style="fill: #707070; stroke: #707070"/>
    </g>
   </g>
   <g id="PolyCollection_8">
    <defs>
     <path id="mad5a8cc7c7" d="M 53.328125 -46.353901 
L 53.328125 -46.172844 
L 90.014792 -47.679709 
L 126.701458 -51.110212 
L 163.388125 -59.252092 
L 200.074792 -70.818803 
L 236.761458 -85.447435 
L 273.448125 -101.95906 
L 273.448125 -102.120729 
L 273.448125 -102.120729 
L 236.761458 -85.628492 
L 200.074792 -70.99986 
L 163.388125 -59.433149 
L 126.701458 -51.291269 
L 90.014792 -47.860766 
L 53.328125 -46.353901 
z
" style="stroke: #808080"/>
    </defs>
    <g clip-path="url(#p4c133217b5)">
     <use xlink:href="#mad5a8cc7c7" x="0" y="244.529219" style="fill: #808080; stroke: #808080"/>
    </g>
   </g>
   <g id="PolyCollection_9">
    <defs>
     <path id="m1886d3f9fc" d="M 53.328125 -46.805835 
L 53.328125 -46.353901 
L 90.014792 -47.860766 
L 126.701458 -51.291269 
L 163.388125 -59.433149 
L 200.074792 -70.99986 
L 236.761458 -85.628492 
L 273.448125 -102.120729 
L 273.448125 -102.73604 
L 273.448125 -102.73604 
L 236.761458 -86.243802 
L 200.074792 -71.615171 
L 163.388125 -60.04846 
L 126.701458 -51.906579 
L 90.014792 -48.476076 
L 53.328125 -46.805835 
z
" style="stroke: #606060"/>
    </defs>
    <g clip-path="url(#p4c133217b5)">
     <use xlink:href="#m1886d3f9fc" x="0" y="244.529219" style="fill: #606060; stroke: #606060"/>
    </g>
   </g>
   <g id="PolyCollection_10">
    <defs>
     <path id="mc8f74db69a" d="M 53.328125 -49.103438 
L 53.328125 -46.805835 
L 90.014792 -48.476076 
L 126.701458 -51.906579 
L 163.388125 -60.04846 
L 200.074792 -71.615171 
L 236.761458 -86.243802 
L 273.448125 -102.73604 
L 273.448125 -104.183832 
L 273.448125 -104.183832 
L 236.761458 -88.254028 
L 200.074792 -73.685499 
L 163.388125 -62.379345 
L 126.701458 -54.261215 
L 90.014792 -50.830712 
L 53.328125 -49.103438 
z
" style="stroke: #909090"/>
    </defs>
    <g clip-path="url(#p4c133217b5)">
     <use xlink:href="#mc8f74db69a" x="0" y="244.529219" style="fill: #909090; stroke: #909090"/>
    </g>
   </g>
   <g id="PolyCollection_11">
    <defs>
     <path id="mf595d0d4fd" d="M 53.328125 -49.167483 
L 53.328125 -49.103438 
L 90.014792 -50.830712 
L 126.701458 -54.261215 
L 163.388125 -62.379345 
L 200.074792 -73.685499 
L 236.761458 -88.254028 
L 273.448125 -104.183832 
L 273.448125 -104.309272 
L 273.448125 -104.309272 
L 236.761458 -88.379468 
L 200.074792 -73.810939 
L 163.388125 -62.504786 
L 126.701458 -54.386655 
L 90.014792 -50.956152 
L 53.328125 -49.167483 
z
" style="stroke: #505050"/>
    </defs>
    <g clip-path="url(#p4c133217b5)">
     <use xlink:href="#mf595d0d4fd" x="0" y="244.529219" style="fill: #505050; stroke: #505050"/>
    </g>
   </g>
   <g id="PolyCollection_12">
    <defs>
     <path id="mcdd42ef641" d="M 53.328125 -49.167483 
L 53.328125 -49.167483 
L 90.014792 -50.956152 
L 126.701458 -54.386655 
L 163.388125 -62.504786 
L 200.074792 -73.810939 
L 236.761458 -88.379468 
L 273.448125 -104.309272 
L 273.448125 -104.309272 
L 273.448125 -104.309272 
L 236.761458 -88.379468 
L 200.074792 -73.810939 
L 163.388125 -62.504786 
L 126.701458 -54.386655 
L 90.014792 -50.956152 
L 53.328125 -49.167483 
z
" style="stroke: #fdd404"/>
    </defs>
    <g clip-path="url(#p4c133217b5)">
     <use xlink:href="#mcdd42ef641" x="0" y="244.529219" style="fill: #fdd404; stroke: #fdd404"/>
    </g>
   </g>
   <g id="PolyCollection_13">
    <defs>
     <path id="m93fe01a656" d="M 53.328125 -49.388883 
L 53.328125 -49.167483 
L 90.014792 -50.956152 
L 126.701458 -54.386655 
L 163.388125 -62.504786 
L 200.074792 -73.810939 
L 236.761458 -88.379468 
L 273.448125 -104.309272 
L 273.448125 -104.420882 
L 273.448125 -104.420882 
L 236.761458 -88.596926 
L 200.074792 -74.028397 
L 163.388125 -62.726185 
L 126.701458 -54.608055 
L 90.014792 -51.177552 
L 53.328125 -49.388883 
z
" style="stroke: #9e5a01"/>
    </defs>
    <g clip-path="url(#p4c133217b5)">
     <use xlink:href="#m93fe01a656" x="0" y="244.529219" style="fill: #9e5a01; stroke: #9e5a01"/>
    </g>
   </g>
   <g id="PolyCollection_14">
    <defs>
     <path id="mbf635388af" d="M 53.328125 -50.205711 
L 53.328125 -49.388883 
L 90.014792 -51.177552 
L 126.701458 -54.608055 
L 163.388125 -62.726185 
L 200.074792 -74.028397 
L 236.761458 -88.596926 
L 273.448125 -104.420882 
L 273.448125 -104.422317 
L 273.448125 -104.422317 
L 236.761458 -88.683175 
L 200.074792 -74.369167 
L 163.388125 -63.168955 
L 126.701458 -55.160305 
L 90.014792 -51.858933 
L 53.328125 -50.205711 
z
" style="stroke: #262626"/>
    </defs>
    <g clip-path="url(#p4c133217b5)">
     <use xlink:href="#mbf635388af" x="0" y="244.529219" style="fill: #262626; stroke: #262626"/>
    </g>
   </g>
   <g id="matplotlib.axis_1">
    <g id="xtick_1">
     <g id="line2d_1">
      <defs>
       <path id="m526d836137" d="M 0 0 
L 0 3.5 
" style="stroke: #000000; stroke-width: 0.8"/>
      </defs>
      <g>
       <use xlink:href="#m526d836137" x="53.328125" y="204.879219" style="stroke: #000000; stroke-width: 0.8"/>
      </g>
     </g>
     <g id="text_1">
      <!-- 2020 -->
      <g transform="translate(56.0875 237.329219)rotate(-90)scale(0.1 -0.1)">
       <defs>
        <path id="DejaVuSans-32" d="M 1228 531 
L 3431 531 
L 3431 0 
L 469 0 
L 469 531 
Q 828 903 1448 1529 
Q 2069 2156 2228 2338 
Q 2531 2678 2651 2914 
Q 2772 3150 2772 3378 
Q 2772 3750 2511 3984 
Q 2250 4219 1831 4219 
Q 1534 4219 1204 4116 
Q 875 4013 500 3803 
L 500 4441 
Q 881 4594 1212 4672 
Q 1544 4750 1819 4750 
Q 2544 4750 2975 4387 
Q 3406 4025 3406 3419 
Q 3406 3131 3298 2873 
Q 3191 2616 2906 2266 
Q 2828 2175 2409 1742 
Q 1991 1309 1228 531 
z
" transform="scale(0.015625)"/>
        <path id="DejaVuSans-30" d="M 2034 4250 
Q 1547 4250 1301 3770 
Q 1056 3291 1056 2328 
Q 1056 1369 1301 889 
Q 1547 409 2034 409 
Q 2525 409 2770 889 
Q 3016 1369 3016 2328 
Q 3016 3291 2770 3770 
Q 2525 4250 2034 4250 
z
M 2034 4750 
Q 2819 4750 3233 4129 
Q 3647 3509 3647 2328 
Q 3647 1150 3233 529 
Q 2819 -91 2034 -91 
Q 1250 -91 836 529 
Q 422 1150 422 2328 
Q 422 3509 836 4129 
Q 1250 4750 2034 4750 
z
" transform="scale(0.015625)"/>
       </defs>
       <use xlink:href="#DejaVuSans-32"/>
       <use xlink:href="#DejaVuSans-30" x="63.623047"/>
       <use xlink:href="#DejaVuSans-32" x="127.246094"/>
       <use xlink:href="#DejaVuSans-30" x="190.869141"/>
      </g>
     </g>
    </g>
    <g id="xtick_2">
     <g id="line2d_2">
      <g>
       <use xlink:href="#m526d836137" x="90.014792" y="204.879219" style="stroke: #000000; stroke-width: 0.8"/>
      </g>
     </g>
     <g id="text_2">
      <!-- 2025 -->
      <g transform="translate(92.774167 237.329219)rotate(-90)scale(0.1 -0.1)">
       <defs>
        <path id="DejaVuSans-35" d="M 691 4666 
L 3169 4666 
L 3169 4134 
L 1269 4134 
L 1269 2991 
Q 1406 3038 1543 3061 
Q 1681 3084 1819 3084 
Q 2600 3084 3056 2656 
Q 3513 2228 3513 1497 
Q 3513 744 3044 326 
Q 2575 -91 1722 -91 
Q 1428 -91 1123 -41 
Q 819 9 494 109 
L 494 744 
Q 775 591 1075 516 
Q 1375 441 1709 441 
Q 2250 441 2565 725 
Q 2881 1009 2881 1497 
Q 2881 1984 2565 2268 
Q 2250 2553 1709 2553 
Q 1456 2553 1204 2497 
Q 953 2441 691 2322 
L 691 4666 
z
" transform="scale(0.015625)"/>
       </defs>
       <use xlink:href="#DejaVuSans-32"/>
       <use xlink:href="#DejaVuSans-30" x="63.623047"/>
       <use xlink:href="#DejaVuSans-32" x="127.246094"/>
       <use xlink:href="#DejaVuSans-35" x="190.869141"/>
      </g>
     </g>
    </g>
    <g id="xtick_3">
     <g id="line2d_3">
      <g>
       <use xlink:href="#m526d836137" x="126.701458" y="204.879219" style="stroke: #000000; stroke-width: 0.8"/>
      </g>
     </g>
     <g id="text_3">
      <!-- 2030 -->
      <g transform="translate(129.460833 237.329219)rotate(-90)scale(0.1 -0.1)">
       <defs>
        <path id="DejaVuSans-33" d="M 2597 2516 
Q 3050 2419 3304 2112 
Q 3559 1806 3559 1356 
Q 3559 666 3084 287 
Q 2609 -91 1734 -91 
Q 1441 -91 1130 -33 
Q 819 25 488 141 
L 488 750 
Q 750 597 1062 519 
Q 1375 441 1716 441 
Q 2309 441 2620 675 
Q 2931 909 2931 1356 
Q 2931 1769 2642 2001 
Q 2353 2234 1838 2234 
L 1294 2234 
L 1294 2753 
L 1863 2753 
Q 2328 2753 2575 2939 
Q 2822 3125 2822 3475 
Q 2822 3834 2567 4026 
Q 2313 4219 1838 4219 
Q 1578 4219 1281 4162 
Q 984 4106 628 3988 
L 628 4550 
Q 988 4650 1302 4700 
Q 1616 4750 1894 4750 
Q 2613 4750 3031 4423 
Q 3450 4097 3450 3541 
Q 3450 3153 3228 2886 
Q 3006 2619 2597 2516 
z
" transform="scale(0.015625)"/>
       </defs>
       <use xlink:href="#DejaVuSans-32"/>
       <use xlink:href="#DejaVuSans-30" x="63.623047"/>
       <use xlink:href="#DejaVuSans-33" x="127.246094"/>
       <use xlink:href="#DejaVuSans-30" x="190.869141"/>
      </g>
     </g>
    </g>
    <g id="xtick_4">
     <g id="line2d_4">
      <g>
       <use xlink:href="#m526d836137" x="163.388125" y="204.879219" style="stroke: #000000; stroke-width: 0.8"/>
      </g>
     </g>
     <g id="text_4">
      <!-- 2035 -->
      <g transform="translate(166.1475 237.329219)rotate(-90)scale(0.1 -0.1)">
       <use xlink:href="#DejaVuSans-32"/>
       <use xlink:href="#DejaVuSans-30" x="63.623047"/>
       <use xlink:href="#DejaVuSans-33" x="127.246094"/>
       <use xlink:href="#DejaVuSans-35" x="190.869141"/>
      </g>
     </g>
    </g>
    <g id="xtick_5">
     <g id="line2d_5">
      <g>
       <use xlink:href="#m526d836137" x="200.074792" y="204.879219" style="stroke: #000000; stroke-width: 0.8"/>
      </g>
     </g>
     <g id="text_5">
      <!-- 2040 -->
      <g transform="translate(202.834167 237.329219)rotate(-90)scale(0.1 -0.1)">
       <defs>
        <path id="DejaVuSans-34" d="M 2419 4116 
L 825 1625 
L 2419 1625 
L 2419 4116 
z
M 2253 4666 
L 3047 4666 
L 3047 1625 
L 3713 1625 
L 3713 1100 
L 3047 1100 
L 3047 0 
L 2419 0 
L 2419 1100 
L 313 1100 
L 313 1709 
L 2253 4666 
z
" transform="scale(0.015625)"/>
       </defs>
       <use xlink:href="#DejaVuSans-32"/>
       <use xlink:href="#DejaVuSans-30" x="63.623047"/>
       <use xlink:href="#DejaVuSans-34" x="127.246094"/>
       <use xlink:href="#DejaVuSans-30" x="190.869141"/>
      </g>
     </g>
    </g>
    <g id="xtick_6">
     <g id="line2d_6">
      <g>
       <use xlink:href="#m526d836137" x="236.761458" y="204.879219" style="stroke: #000000; stroke-width: 0.8"/>
      </g>
     </g>
     <g id="text_6">
      <!-- 2045 -->
      <g transform="translate(239.520833 237.329219)rotate(-90)scale(0.1 -0.1)">
       <use xlink:href="#DejaVuSans-32"/>
       <use xlink:href="#DejaVuSans-30" x="63.623047"/>
       <use xlink:href="#DejaVuSans-34" x="127.246094"/>
       <use xlink:href="#DejaVuSans-35" x="190.869141"/>
      </g>
     </g>
    </g>
    <g id="xtick_7">
     <g id="line2d_7">
      <g>
       <use xlink:href="#m526d836137" x="273.448125" y="204.879219" style="stroke: #000000; stroke-width: 0.8"/>
      </g>
     </g>
     <g id="text_7">
      <!-- 2050 -->
      <g transform="translate(276.2075 237.329219)rotate(-90)scale(0.1 -0.1)">
       <use xlink:href="#DejaVuSans-32"/>
       <use xlink:href="#DejaVuSans-30" x="63.623047"/>
       <use xlink:href="#DejaVuSans-35" x="127.246094"/>
       <use xlink:href="#DejaVuSans-30" x="190.869141"/>
      </g>
     </g>
    </g>
   </g>
   <g id="matplotlib.axis_2">
    <g id="ytick_1">
     <g id="line2d_8">
      <path d="M 53.328125 204.879219 
L 273.448125 204.879219 
" clip-path="url(#p4c133217b5)" style="fill: none; stroke: #b0b0b0; stroke-width: 0.8; stroke-linecap: square"/>
     </g>
     <g id="line2d_9">
      <defs>
       <path id="me424f76df1" d="M 0 0 
L -3.5 0 
" style="stroke: #000000; stroke-width: 0.8"/>
      </defs>
      <g>
       <use xlink:href="#me424f76df1" x="53.328125" y="204.879219" style="stroke: #000000; stroke-width: 0.8"/>
      </g>
     </g>
     <g id="text_8">
      <!-- 0 -->
      <g transform="translate(39.965625 208.678438)scale(0.1 -0.1)">
       <use xlink:href="#DejaVuSans-30"/>
      </g>
     </g>
    </g>
    <g id="ytick_2">
     <g id="line2d_10">
      <path d="M 53.328125 172.565885 
L 273.448125 172.565885 
" clip-path="url(#p4c133217b5)" style="fill: none; stroke: #b0b0b0; stroke-width: 0.8; stroke-linecap: square"/>
     </g>
     <g id="line2d_11">
      <g>
       <use xlink:href="#me424f76df1" x="53.328125" y="172.565885" style="stroke: #000000; stroke-width: 0.8"/>
      </g>
     </g>
     <g id="text_9">
      <!-- 1000 -->
      <g transform="translate(20.878125 176.365104)scale(0.1 -0.1)">
       <defs>
        <path id="DejaVuSans-31" d="M 794 531 
L 1825 531 
L 1825 4091 
L 703 3866 
L 703 4441 
L 1819 4666 
L 2450 4666 
L 2450 531 
L 3481 531 
L 3481 0 
L 794 0 
L 794 531 
z
" transform="scale(0.015625)"/>
       </defs>
       <use xlink:href="#DejaVuSans-31"/>
       <use xlink:href="#DejaVuSans-30" x="63.623047"/>
       <use xlink:href="#DejaVuSans-30" x="127.246094"/>
       <use xlink:href="#DejaVuSans-30" x="190.869141"/>
      </g>
     </g>
    </g>
    <g id="ytick_3">
     <g id="line2d_12">
      <path d="M 53.328125 140.252552 
L 273.448125 140.252552 
" clip-path="url(#p4c133217b5)" style="fill: none; stroke: #b0b0b0; stroke-width: 0.8; stroke-linecap: square"/>
     </g>
     <g id="line2d_13">
      <g>
       <use xlink:href="#me424f76df1" x="53.328125" y="140.252552" style="stroke: #000000; stroke-width: 0.8"/>
      </g>
     </g>
     <g id="text_10">
      <!-- 2000 -->
      <g transform="translate(20.878125 144.051771)scale(0.1 -0.1)">
       <use xlink:href="#DejaVuSans-32"/>
       <use xlink:href="#DejaVuSans-30" x="63.623047"/>
       <use xlink:href="#DejaVuSans-30" x="127.246094"/>
       <use xlink:href="#DejaVuSans-30" x="190.869141"/>
      </g>
     </g>
    </g>
    <g id="ytick_4">
     <g id="line2d_14">
      <path d="M 53.328125 107.939219 
L 273.448125 107.939219 
" clip-path="url(#p4c133217b5)" style="fill: none; stroke: #b0b0b0; stroke-width: 0.8; stroke-linecap: square"/>
     </g>
     <g id="line2d_15">
      <g>
       <use xlink:href="#me424f76df1" x="53.328125" y="107.939219" style="stroke: #000000; stroke-width: 0.8"/>
      </g>
     </g>
     <g id="text_11">
      <!-- 3000 -->
      <g transform="translate(20.878125 111.738438)scale(0.1 -0.1)">
       <use xlink:href="#DejaVuSans-33"/>
       <use xlink:href="#DejaVuSans-30" x="63.623047"/>
       <use xlink:href="#DejaVuSans-30" x="127.246094"/>
       <use xlink:href="#DejaVuSans-30" x="190.869141"/>
      </g>
     </g>
    </g>
    <g id="ytick_5">
     <g id="line2d_16">
      <path d="M 53.328125 75.625885 
L 273.448125 75.625885 
" clip-path="url(#p4c133217b5)" style="fill: none; stroke: #b0b0b0; stroke-width: 0.8; stroke-linecap: square"/>
     </g>
     <g id="line2d_17">
      <g>
       <use xlink:href="#me424f76df1" x="53.328125" y="75.625885" style="stroke: #000000; stroke-width: 0.8"/>
      </g>
     </g>
     <g id="text_12">
      <!-- 4000 -->
      <g transform="translate(20.878125 79.425104)scale(0.1 -0.1)">
       <use xlink:href="#DejaVuSans-34"/>
       <use xlink:href="#DejaVuSans-30" x="63.623047"/>
       <use xlink:href="#DejaVuSans-30" x="127.246094"/>
       <use xlink:href="#DejaVuSans-30" x="190.869141"/>
      </g>
     </g>
    </g>
    <g id="ytick_6">
     <g id="line2d_18">
      <path d="M 53.328125 43.312552 
L 273.448125 43.312552 
" clip-path="url(#p4c133217b5)" style="fill: none; stroke: #b0b0b0; stroke-width: 0.8; stroke-linecap: square"/>
     </g>
     <g id="line2d_19">
      <g>
       <use xlink:href="#me424f76df1" x="53.328125" y="43.312552" style="stroke: #000000; stroke-width: 0.8"/>
      </g>
     </g>
     <g id="text_13">
      <!-- 5000 -->
      <g transform="translate(20.878125 47.111771)scale(0.1 -0.1)">
       <use xlink:href="#DejaVuSans-35"/>
       <use xlink:href="#DejaVuSans-30" x="63.623047"/>
       <use xlink:href="#DejaVuSans-30" x="127.246094"/>
       <use xlink:href="#DejaVuSans-30" x="190.869141"/>
      </g>
     </g>
    </g>
    <g id="ytick_7">
     <g id="line2d_20">
      <path d="M 53.328125 10.999219 
L 273.448125 10.999219 
" clip-path="url(#p4c133217b5)" style="fill: none; stroke: #b0b0b0; stroke-width: 0.8; stroke-linecap: square"/>
     </g>
     <g id="line2d_21">
      <g>
       <use xlink:href="#me424f76df1" x="53.328125" y="10.999219" style="stroke: #000000; stroke-width: 0.8"/>
      </g>
     </g>
     <g id="text_14">
      <!-- 6000 -->
      <g transform="translate(20.878125 14.798438)scale(0.1 -0.1)">
       <defs>
        <path id="DejaVuSans-36" d="M 2113 2584 
Q 1688 2584 1439 2293 
Q 1191 2003 1191 1497 
Q 1191 994 1439 701 
Q 1688 409 2113 409 
Q 2538 409 2786 701 
Q 3034 994 3034 1497 
Q 3034 2003 2786 2293 
Q 2538 2584 2113 2584 
z
M 3366 4563 
L 3366 3988 
Q 3128 4100 2886 4159 
Q 2644 4219 2406 4219 
Q 1781 4219 1451 3797 
Q 1122 3375 1075 2522 
Q 1259 2794 1537 2939 
Q 1816 3084 2150 3084 
Q 2853 3084 3261 2657 
Q 3669 2231 3669 1497 
Q 3669 778 3244 343 
Q 2819 -91 2113 -91 
Q 1303 -91 875 529 
Q 447 1150 447 2328 
Q 447 3434 972 4092 
Q 1497 4750 2381 4750 
Q 2619 4750 2861 4703 
Q 3103 4656 3366 4563 
z
" transform="scale(0.015625)"/>
       </defs>
       <use xlink:href="#DejaVuSans-36"/>
       <use xlink:href="#DejaVuSans-30" x="63.623047"/>
       <use xlink:href="#DejaVuSans-30" x="127.246094"/>
       <use xlink:href="#DejaVuSans-30" x="190.869141"/>
      </g>
     </g>
    </g>
    <g id="text_15">
     <!-- Capacity [GW] -->
     <g transform="translate(14.798438 144.099375)rotate(-90)scale(0.1 -0.1)">
      <defs>
       <path id="DejaVuSans-43" d="M 4122 4306 
L 4122 3641 
Q 3803 3938 3442 4084 
Q 3081 4231 2675 4231 
Q 1875 4231 1450 3742 
Q 1025 3253 1025 2328 
Q 1025 1406 1450 917 
Q 1875 428 2675 428 
Q 3081 428 3442 575 
Q 3803 722 4122 1019 
L 4122 359 
Q 3791 134 3420 21 
Q 3050 -91 2638 -91 
Q 1578 -91 968 557 
Q 359 1206 359 2328 
Q 359 3453 968 4101 
Q 1578 4750 2638 4750 
Q 3056 4750 3426 4639 
Q 3797 4528 4122 4306 
z
" transform="scale(0.015625)"/>
       <path id="DejaVuSans-61" d="M 2194 1759 
Q 1497 1759 1228 1600 
Q 959 1441 959 1056 
Q 959 750 1161 570 
Q 1363 391 1709 391 
Q 2188 391 2477 730 
Q 2766 1069 2766 1631 
L 2766 1759 
L 2194 1759 
z
M 3341 1997 
L 3341 0 
L 2766 0 
L 2766 531 
Q 2569 213 2275 61 
Q 1981 -91 1556 -91 
Q 1019 -91 701 211 
Q 384 513 384 1019 
Q 384 1609 779 1909 
Q 1175 2209 1959 2209 
L 2766 2209 
L 2766 2266 
Q 2766 2663 2505 2880 
Q 2244 3097 1772 3097 
Q 1472 3097 1187 3025 
Q 903 2953 641 2809 
L 641 3341 
Q 956 3463 1253 3523 
Q 1550 3584 1831 3584 
Q 2591 3584 2966 3190 
Q 3341 2797 3341 1997 
z
" transform="scale(0.015625)"/>
       <path id="DejaVuSans-70" d="M 1159 525 
L 1159 -1331 
L 581 -1331 
L 581 3500 
L 1159 3500 
L 1159 2969 
Q 1341 3281 1617 3432 
Q 1894 3584 2278 3584 
Q 2916 3584 3314 3078 
Q 3713 2572 3713 1747 
Q 3713 922 3314 415 
Q 2916 -91 2278 -91 
Q 1894 -91 1617 61 
Q 1341 213 1159 525 
z
M 3116 1747 
Q 3116 2381 2855 2742 
Q 2594 3103 2138 3103 
Q 1681 3103 1420 2742 
Q 1159 2381 1159 1747 
Q 1159 1113 1420 752 
Q 1681 391 2138 391 
Q 2594 391 2855 752 
Q 3116 1113 3116 1747 
z
" transform="scale(0.015625)"/>
       <path id="DejaVuSans-63" d="M 3122 3366 
L 3122 2828 
Q 2878 2963 2633 3030 
Q 2388 3097 2138 3097 
Q 1578 3097 1268 2742 
Q 959 2388 959 1747 
Q 959 1106 1268 751 
Q 1578 397 2138 397 
Q 2388 397 2633 464 
Q 2878 531 3122 666 
L 3122 134 
Q 2881 22 2623 -34 
Q 2366 -91 2075 -91 
Q 1284 -91 818 406 
Q 353 903 353 1747 
Q 353 2603 823 3093 
Q 1294 3584 2113 3584 
Q 2378 3584 2631 3529 
Q 2884 3475 3122 3366 
z
" transform="scale(0.015625)"/>
       <path id="DejaVuSans-69" d="M 603 3500 
L 1178 3500 
L 1178 0 
L 603 0 
L 603 3500 
z
M 603 4863 
L 1178 4863 
L 1178 4134 
L 603 4134 
L 603 4863 
z
" transform="scale(0.015625)"/>
       <path id="DejaVuSans-74" d="M 1172 4494 
L 1172 3500 
L 2356 3500 
L 2356 3053 
L 1172 3053 
L 1172 1153 
Q 1172 725 1289 603 
Q 1406 481 1766 481 
L 2356 481 
L 2356 0 
L 1766 0 
Q 1100 0 847 248 
Q 594 497 594 1153 
L 594 3053 
L 172 3053 
L 172 3500 
L 594 3500 
L 594 4494 
L 1172 4494 
z
" transform="scale(0.015625)"/>
       <path id="DejaVuSans-79" d="M 2059 -325 
Q 1816 -950 1584 -1140 
Q 1353 -1331 966 -1331 
L 506 -1331 
L 506 -850 
L 844 -850 
Q 1081 -850 1212 -737 
Q 1344 -625 1503 -206 
L 1606 56 
L 191 3500 
L 800 3500 
L 1894 763 
L 2988 3500 
L 3597 3500 
L 2059 -325 
z
" transform="scale(0.015625)"/>
       <path id="DejaVuSans-20" transform="scale(0.015625)"/>
       <path id="DejaVuSans-5b" d="M 550 4863 
L 1875 4863 
L 1875 4416 
L 1125 4416 
L 1125 -397 
L 1875 -397 
L 1875 -844 
L 550 -844 
L 550 4863 
z
" transform="scale(0.015625)"/>
       <path id="DejaVuSans-47" d="M 3809 666 
L 3809 1919 
L 2778 1919 
L 2778 2438 
L 4434 2438 
L 4434 434 
Q 4069 175 3628 42 
Q 3188 -91 2688 -91 
Q 1594 -91 976 548 
Q 359 1188 359 2328 
Q 359 3472 976 4111 
Q 1594 4750 2688 4750 
Q 3144 4750 3555 4637 
Q 3966 4525 4313 4306 
L 4313 3634 
Q 3963 3931 3569 4081 
Q 3175 4231 2741 4231 
Q 1884 4231 1454 3753 
Q 1025 3275 1025 2328 
Q 1025 1384 1454 906 
Q 1884 428 2741 428 
Q 3075 428 3337 486 
Q 3600 544 3809 666 
z
" transform="scale(0.015625)"/>
       <path id="DejaVuSans-57" d="M 213 4666 
L 850 4666 
L 1831 722 
L 2809 4666 
L 3519 4666 
L 4500 722 
L 5478 4666 
L 6119 4666 
L 4947 0 
L 4153 0 
L 3169 4050 
L 2175 0 
L 1381 0 
L 213 4666 
z
" transform="scale(0.015625)"/>
       <path id="DejaVuSans-5d" d="M 1947 4863 
L 1947 -844 
L 622 -844 
L 622 -397 
L 1369 -397 
L 1369 4416 
L 622 4416 
L 622 4863 
L 1947 4863 
z
" transform="scale(0.015625)"/>
      </defs>
      <use xlink:href="#DejaVuSans-43"/>
      <use xlink:href="#DejaVuSans-61" x="69.824219"/>
      <use xlink:href="#DejaVuSans-70" x="131.103516"/>
      <use xlink:href="#DejaVuSans-61" x="194.580078"/>
      <use xlink:href="#DejaVuSans-63" x="255.859375"/>
      <use xlink:href="#DejaVuSans-69" x="310.839844"/>
      <use xlink:href="#DejaVuSans-74" x="338.623047"/>
      <use xlink:href="#DejaVuSans-79" x="377.832031"/>
      <use xlink:href="#DejaVuSans-20" x="437.011719"/>
      <use xlink:href="#DejaVuSans-5b" x="468.798828"/>
      <use xlink:href="#DejaVuSans-47" x="507.8125"/>
      <use xlink:href="#DejaVuSans-57" x="585.302734"/>
      <use xlink:href="#DejaVuSans-5d" x="684.179688"/>
     </g>
    </g>
   </g>
   <g id="line2d_22">
    <path d="M 53.328125 203.37075 
L 90.014792 203.212544 
L 126.701458 203.037502 
L 163.388125 203.038794 
L 200.074792 203.038794 
L 236.761458 203.038794 
L 273.448125 203.038895 
" clip-path="url(#p4c133217b5)" style="fill: none; stroke: #08ad97; stroke-width: 1.5; stroke-linecap: square"/>
   </g>
   <g id="line2d_23">
    <path d="M 53.328125 203.370593 
L 90.014792 203.212386 
L 126.701458 203.037344 
L 163.388125 203.038591 
L 200.074792 203.038537 
L 236.761458 203.038536 
L 273.448125 203.038489 
" clip-path="url(#p4c133217b5)" style="fill: none; stroke: #6895dd; stroke-width: 1.5; stroke-linecap: square"/>
   </g>
   <g id="line2d_24">
    <path d="M 53.328125 203.367629 
L 90.014792 203.209422 
L 126.701458 203.034379 
L 163.388125 203.035582 
L 200.074792 203.035479 
L 236.761458 203.03547 
L 273.448125 203.035282 
" clip-path="url(#p4c133217b5)" style="fill: none; stroke: #74c6f2; stroke-width: 1.5; stroke-linecap: square"/>
   </g>
   <g id="line2d_25">
    <path d="M 53.328125 202.713946 
L 90.014792 202.318207 
L 126.701458 201.316981 
L 163.388125 199.477369 
L 200.074792 197.453353 
L 236.761458 195.836179 
L 273.448125 194.359884 
" clip-path="url(#p4c133217b5)" style="fill: none; stroke: #235ebc; stroke-width: 1.5; stroke-linecap: square"/>
   </g>
   <g id="line2d_26">
    <path d="M 53.328125 201.648167 
L 90.014792 200.473128 
L 126.701458 197.101489 
L 163.388125 190.902326 
L 200.074792 183.734644 
L 236.761458 174.501284 
L 273.448125 164.918708 
" clip-path="url(#p4c133217b5)" style="fill: none; stroke: #f9d002; stroke-width: 1.5; stroke-linecap: square"/>
   </g>
   <g id="line2d_27">
    <path d="M 53.328125 198.423586 
L 90.014792 196.978117 
L 126.701458 193.547614 
L 163.388125 185.405734 
L 200.074792 173.839022 
L 236.761458 159.210391 
L 273.448125 142.698766 
" clip-path="url(#p4c133217b5)" style="fill: none; stroke: #b20101; stroke-width: 1.5; stroke-linecap: square"/>
   </g>
   <g id="line2d_28">
    <path d="M 53.328125 198.356374 
L 90.014792 196.84951 
L 126.701458 193.419007 
L 163.388125 185.277127 
L 200.074792 173.710415 
L 236.761458 159.081784 
L 273.448125 142.570159 
" clip-path="url(#p4c133217b5)" style="fill: none; stroke: #707070; stroke-width: 1.5; stroke-linecap: square"/>
   </g>
   <g id="line2d_29">
    <path d="M 53.328125 198.175318 
L 90.014792 196.668453 
L 126.701458 193.23795 
L 163.388125 185.09607 
L 200.074792 173.529358 
L 236.761458 158.900727 
L 273.448125 142.40849 
" clip-path="url(#p4c133217b5)" style="fill: none; stroke: #808080; stroke-width: 1.5; stroke-linecap: square"/>
   </g>
   <g id="line2d_30">
    <path d="M 53.328125 197.723383 
L 90.014792 196.053143 
L 126.701458 192.62264 
L 163.388125 184.480759 
L 200.074792 172.914048 
L 236.761458 158.285416 
L 273.448125 141.793179 
" clip-path="url(#p4c133217b5)" style="fill: none; stroke: #606060; stroke-width: 1.5; stroke-linecap: square"/>
   </g>
   <g id="line2d_31">
    <path d="M 53.328125 195.42578 
L 90.014792 193.698507 
L 126.701458 190.268004 
L 163.388125 182.149874 
L 200.074792 170.84372 
L 236.761458 156.275191 
L 273.448125 140.345387 
" clip-path="url(#p4c133217b5)" style="fill: none; stroke: #909090; stroke-width: 1.5; stroke-linecap: square"/>
   </g>
   <g id="line2d_32">
    <path d="M 53.328125 195.361735 
L 90.014792 193.573066 
L 126.701458 190.142563 
L 163.388125 182.024433 
L 200.074792 170.718279 
L 236.761458 156.149751 
L 273.448125 140.219947 
" clip-path="url(#p4c133217b5)" style="fill: none; stroke: #505050; stroke-width: 1.5; stroke-linecap: square"/>
   </g>
   <g id="line2d_33">
    <path d="M 53.328125 195.361735 
L 90.014792 193.573066 
L 126.701458 190.142563 
L 163.388125 182.024433 
L 200.074792 170.718279 
L 236.761458 156.149751 
L 273.448125 140.219947 
" clip-path="url(#p4c133217b5)" style="fill: none; stroke: #fdd404; stroke-width: 1.5; stroke-linecap: square"/>
   </g>
   <g id="line2d_34">
    <path d="M 53.328125 195.140335 
L 90.014792 193.351667 
L 126.701458 189.921163 
L 163.388125 181.803033 
L 200.074792 170.500822 
L 236.761458 155.932293 
L 273.448125 140.108336 
" clip-path="url(#p4c133217b5)" style="fill: none; stroke: #9e5a01; stroke-width: 1.5; stroke-linecap: square"/>
   </g>
   <g id="line2d_35">
    <path d="M 53.328125 194.323508 
L 90.014792 192.670286 
L 126.701458 189.368913 
L 163.388125 181.360263 
L 200.074792 170.160051 
L 236.761458 155.846044 
L 273.448125 140.106902 
" clip-path="url(#p4c133217b5)" style="fill: none; stroke: #262626; stroke-width: 1.5; stroke-linecap: square"/>
   </g>
   <g id="patch_3">
    <path d="M 53.328125 204.879219 
L 53.328125 10.999219 
" style="fill: none; stroke: #000000; stroke-width: 0.8; stroke-linejoin: miter; stroke-linecap: square"/>
   </g>
   <g id="patch_4">
    <path d="M 273.448125 204.879219 
L 273.448125 10.999219 
" style="fill: none; stroke: #000000; stroke-width: 0.8; stroke-linejoin: miter; stroke-linecap: square"/>
   </g>
   <g id="patch_5">
    <path d="M 53.328125 204.879219 
L 273.448125 204.879219 
" style="fill: none; stroke: #000000; stroke-width: 0.8; stroke-linejoin: miter; stroke-linecap: square"/>
   </g>
   <g id="patch_6">
    <path d="M 53.328125 10.999219 
L 273.448125 10.999219 
" style="fill: none; stroke: #000000; stroke-width: 0.8; stroke-linejoin: miter; stroke-linecap: square"/>
   </g>
   <g id="text_16">
    <!-- SEA_TECH_AIMS_BAU -->
    <g transform="translate(57.730525 24.387219)scale(0.09 -0.09)">
     <defs>
      <path id="DejaVuSans-53" d="M 3425 4513 
L 3425 3897 
Q 3066 4069 2747 4153 
Q 2428 4238 2131 4238 
Q 1616 4238 1336 4038 
Q 1056 3838 1056 3469 
Q 1056 3159 1242 3001 
Q 1428 2844 1947 2747 
L 2328 2669 
Q 3034 2534 3370 2195 
Q 3706 1856 3706 1288 
Q 3706 609 3251 259 
Q 2797 -91 1919 -91 
Q 1588 -91 1214 -16 
Q 841 59 441 206 
L 441 856 
Q 825 641 1194 531 
Q 1563 422 1919 422 
Q 2459 422 2753 634 
Q 3047 847 3047 1241 
Q 3047 1584 2836 1778 
Q 2625 1972 2144 2069 
L 1759 2144 
Q 1053 2284 737 2584 
Q 422 2884 422 3419 
Q 422 4038 858 4394 
Q 1294 4750 2059 4750 
Q 2388 4750 2728 4690 
Q 3069 4631 3425 4513 
z
" transform="scale(0.015625)"/>
      <path id="DejaVuSans-45" d="M 628 4666 
L 3578 4666 
L 3578 4134 
L 1259 4134 
L 1259 2753 
L 3481 2753 
L 3481 2222 
L 1259 2222 
L 1259 531 
L 3634 531 
L 3634 0 
L 628 0 
L 628 4666 
z
" transform="scale(0.015625)"/>
      <path id="DejaVuSans-41" d="M 2188 4044 
L 1331 1722 
L 3047 1722 
L 2188 4044 
z
M 1831 4666 
L 2547 4666 
L 4325 0 
L 3669 0 
L 3244 1197 
L 1141 1197 
L 716 0 
L 50 0 
L 1831 4666 
z
" transform="scale(0.015625)"/>
      <path id="DejaVuSans-5f" d="M 3263 -1063 
L 3263 -1509 
L -63 -1509 
L -63 -1063 
L 3263 -1063 
z
" transform="scale(0.015625)"/>
      <path id="DejaVuSans-54" d="M -19 4666 
L 3928 4666 
L 3928 4134 
L 2272 4134 
L 2272 0 
L 1638 0 
L 1638 4134 
L -19 4134 
L -19 4666 
z
" transform="scale(0.015625)"/>
      <path id="DejaVuSans-48" d="M 628 4666 
L 1259 4666 
L 1259 2753 
L 3553 2753 
L 3553 4666 
L 4184 4666 
L 4184 0 
L 3553 0 
L 3553 2222 
L 1259 2222 
L 1259 0 
L 628 0 
L 628 4666 
z
" transform="scale(0.015625)"/>
      <path id="DejaVuSans-49" d="M 628 4666 
L 1259 4666 
L 1259 0 
L 628 0 
L 628 4666 
z
" transform="scale(0.015625)"/>
      <path id="DejaVuSans-4d" d="M 628 4666 
L 1569 4666 
L 2759 1491 
L 3956 4666 
L 4897 4666 
L 4897 0 
L 4281 0 
L 4281 4097 
L 3078 897 
L 2444 897 
L 1241 4097 
L 1241 0 
L 628 0 
L 628 4666 
z
" transform="scale(0.015625)"/>
      <path id="DejaVuSans-42" d="M 1259 2228 
L 1259 519 
L 2272 519 
Q 2781 519 3026 730 
Q 3272 941 3272 1375 
Q 3272 1813 3026 2020 
Q 2781 2228 2272 2228 
L 1259 2228 
z
M 1259 4147 
L 1259 2741 
L 2194 2741 
Q 2656 2741 2882 2914 
Q 3109 3088 3109 3444 
Q 3109 3797 2882 3972 
Q 2656 4147 2194 4147 
L 1259 4147 
z
M 628 4666 
L 2241 4666 
Q 2963 4666 3353 4366 
Q 3744 4066 3744 3513 
Q 3744 3084 3544 2831 
Q 3344 2578 2956 2516 
Q 3422 2416 3680 2098 
Q 3938 1781 3938 1306 
Q 3938 681 3513 340 
Q 3088 0 2303 0 
L 628 0 
L 628 4666 
z
" transform="scale(0.015625)"/>
      <path id="DejaVuSans-55" d="M 556 4666 
L 1191 4666 
L 1191 1831 
Q 1191 1081 1462 751 
Q 1734 422 2344 422 
Q 2950 422 3222 751 
Q 3494 1081 3494 1831 
L 3494 4666 
L 4128 4666 
L 4128 1753 
Q 4128 841 3676 375 
Q 3225 -91 2344 -91 
Q 1459 -91 1007 375 
Q 556 841 556 1753 
L 556 4666 
z
" transform="scale(0.015625)"/>
     </defs>
     <use xlink:href="#DejaVuSans-53"/>
     <use xlink:href="#DejaVuSans-45" x="63.476562"/>
     <use xlink:href="#DejaVuSans-41" x="126.660156"/>
     <use xlink:href="#DejaVuSans-5f" x="195.068359"/>
     <use xlink:href="#DejaVuSans-54" x="245.068359"/>
     <use xlink:href="#DejaVuSans-45" x="306.152344"/>
     <use xlink:href="#DejaVuSans-43" x="369.335938"/>
     <use xlink:href="#DejaVuSans-48" x="439.160156"/>
     <use xlink:href="#DejaVuSans-5f" x="514.355469"/>
     <use xlink:href="#DejaVuSans-41" x="564.355469"/>
     <use xlink:href="#DejaVuSans-49" x="632.763672"/>
     <use xlink:href="#DejaVuSans-4d" x="662.255859"/>
     <use xlink:href="#DejaVuSans-53" x="748.535156"/>
     <use xlink:href="#DejaVuSans-5f" x="812.011719"/>
     <use xlink:href="#DejaVuSans-42" x="862.011719"/>
     <use xlink:href="#DejaVuSans-41" x="930.615234"/>
     <use xlink:href="#DejaVuSans-55" x="999.023438"/>
    </g>
   </g>
  </g>
  <g id="axes_2">
   <g id="patch_7">
    <path d="M 335.928125 204.879219 
L 556.048125 204.879219 
L 556.048125 10.999219 
L 335.928125 10.999219 
z
" style="fill: #ffffff"/>
   </g>
   <g id="PolyCollection_15">
    <defs>
     <path id="m9b6cc9cdab" d="M 335.928125 -52.575218 
L 335.928125 -52.575333 
L 372.614792 -52.575333 
L 409.301458 -52.575333 
L 445.988125 -52.575333 
L 482.674792 -52.575333 
L 519.361458 -52.575333 
L 556.048125 -52.575333 
L 556.048125 -52.439186 
L 556.048125 -52.439186 
L 519.361458 -52.461353 
L 482.674792 -52.483283 
L 445.988125 -52.51703 
L 409.301458 -52.574884 
L 372.614792 -52.575175 
L 335.928125 -52.575218 
z
" style="stroke: #b8ea04"/>
    </defs>
    <g clip-path="url(#pa2821e40cb)">
     <use xlink:href="#m9b6cc9cdab" x="0" y="244.529219" style="fill: #b8ea04; stroke: #b8ea04"/>
    </g>
   </g>
   <g id="PolyCollection_16">
    <defs>
     <path id="m146fc4edd5" d="M 335.928125 -63.135331 
L 335.928125 -52.575333 
L 372.614792 -52.575333 
L 409.301458 -52.575333 
L 445.988125 -52.575333 
L 482.674792 -52.575333 
L 519.361458 -52.575333 
L 556.048125 -52.575333 
L 556.048125 -65.452752 
L 556.048125 -65.452752 
L 519.361458 -65.461501 
L 482.674792 -65.455689 
L 445.988125 -65.458613 
L 409.301458 -65.47627 
L 372.614792 -64.247151 
L 335.928125 -63.135331 
z
" style="stroke: #08ad97"/>
    </defs>
    <g clip-path="url(#pa2821e40cb)">
     <use xlink:href="#m146fc4edd5" x="0" y="244.529219" style="fill: #08ad97; stroke: #08ad97"/>
    </g>
   </g>
   <g id="PolyCollection_17">
    <defs>
     <path id="mc1adab2f4b" d="M 335.928125 -52.575207 
L 335.928125 -52.575218 
L 372.614792 -52.575175 
L 409.301458 -52.574884 
L 445.988125 -52.51703 
L 482.674792 -52.483283 
L 519.361458 -52.461353 
L 556.048125 -52.439186 
L 556.048125 -52.437933 
L 556.048125 -52.437933 
L 519.361458 -52.460874 
L 482.674792 -52.48277 
L 445.988125 -52.516742 
L 409.301458 -52.574869 
L 372.614792 -52.575164 
L 335.928125 -52.575207 
z
" style="stroke: #ea048a"/>
    </defs>
    <g clip-path="url(#pa2821e40cb)">
     <use xlink:href="#mc1adab2f4b" x="0" y="244.529219" style="fill: #ea048a; stroke: #ea048a"/>
    </g>
   </g>
   <g id="PolyCollection_18">
    <defs>
     <path id="m2cecd87afc" d="M 335.928125 -63.13572 
L 335.928125 -63.135331 
L 372.614792 -64.247151 
L 409.301458 -65.47627 
L 445.988125 -65.458613 
L 482.674792 -65.455689 
L 519.361458 -65.461501 
L 556.048125 -65.452752 
L 556.048125 -65.453235 
L 556.048125 -65.453235 
L 519.361458 -65.461917 
L 482.674792 -65.456094 
L 445.988125 -65.459009 
L 409.301458 -65.476668 
L 372.614792 -64.247566 
L 335.928125 -63.13572 
z
" style="stroke: #6895dd"/>
    </defs>
    <g clip-path="url(#pa2821e40cb)">
     <use xlink:href="#m2cecd87afc" x="0" y="244.529219" style="fill: #6895dd; stroke: #6895dd"/>
    </g>
   </g>
   <g id="PolyCollection_19">
    <defs>
     <path id="m7b8db8a14f" d="M 335.928125 -63.142242 
L 335.928125 -63.13572 
L 372.614792 -64.247566 
L 409.301458 -65.476668 
L 445.988125 -65.459009 
L 482.674792 -65.456094 
L 519.361458 -65.461917 
L 556.048125 -65.453235 
L 556.048125 -65.45988 
L 556.048125 -65.45988 
L 519.361458 -65.468496 
L 482.674792 -65.462448 
L 445.988125 -65.46547 
L 409.301458 -65.483365 
L 372.614792 -64.254564 
L 335.928125 -63.142242 
z
" style="stroke: #74c6f2"/>
    </defs>
    <g clip-path="url(#pa2821e40cb)">
     <use xlink:href="#m7b8db8a14f" x="0" y="244.529219" style="fill: #74c6f2; stroke: #74c6f2"/>
    </g>
   </g>
   <g id="PolyCollection_20">
    <defs>
     <path id="md75887ffb7" d="M 335.928125 -65.537703 
L 335.928125 -63.142242 
L 372.614792 -64.254564 
L 409.301458 -65.483365 
L 445.988125 -65.46547 
L 482.674792 -65.462448 
L 519.361458 -65.468496 
L 556.048125 -65.45988 
L 556.048125 -90.592561 
L 556.048125 -90.592561 
L 519.361458 -86.997325 
L 482.674792 -83.039996 
L 445.988125 -76.765521 
L 409.301458 -71.530456 
L 372.614792 -67.514949 
L 335.928125 -65.537703 
z
" style="stroke: #235ebc"/>
    </defs>
    <g clip-path="url(#pa2821e40cb)">
     <use xlink:href="#md75887ffb7" x="0" y="244.529219" style="fill: #235ebc; stroke: #235ebc"/>
    </g>
   </g>
   <g id="PolyCollection_21">
    <defs>
     <path id="m399cf76208" d="M 335.928125 -66.634941 
L 335.928125 -65.537703 
L 372.614792 -67.514949 
L 409.301458 -71.530456 
L 445.988125 -76.765521 
L 482.674792 -83.039996 
L 519.361458 -86.997325 
L 556.048125 -90.592561 
L 556.048125 -121.824829 
L 556.048125 -121.824829 
L 519.361458 -109.811857 
L 482.674792 -97.850691 
L 445.988125 -86.030329 
L 409.301458 -76.114217 
L 372.614792 -69.456243 
L 335.928125 -66.634941 
z
" style="stroke: #f9d002"/>
    </defs>
    <g clip-path="url(#pa2821e40cb)">
     <use xlink:href="#m399cf76208" x="0" y="244.529219" style="fill: #f9d002; stroke: #f9d002"/>
    </g>
   </g>
   <g id="PolyCollection_22">
    <defs>
     <path id="m5aaf493eb2" d="M 335.928125 -67.517466 
L 335.928125 -66.634941 
L 372.614792 -69.456243 
L 409.301458 -76.114217 
L 445.988125 -86.030329 
L 482.674792 -97.850691 
L 519.361458 -109.811857 
L 556.048125 -121.824829 
L 556.048125 -207.685663 
L 556.048125 -207.685663 
L 519.361458 -163.285131 
L 482.674792 -129.978568 
L 445.988125 -102.03047 
L 409.301458 -81.997996 
L 372.614792 -71.423993 
L 335.928125 -67.517466 
z
" style="stroke: #b20101"/>
    </defs>
    <g clip-path="url(#pa2821e40cb)">
     <use xlink:href="#m5aaf493eb2" x="0" y="244.529219" style="fill: #b20101; stroke: #b20101"/>
    </g>
   </g>
   <g id="PolyCollection_23">
    <defs>
     <path id="m351cc77cae" d="M 335.928125 -67.533765 
L 335.928125 -67.517466 
L 372.614792 -71.423993 
L 409.301458 -81.997996 
L 445.988125 -102.03047 
L 482.674792 -129.978568 
L 519.361458 -163.285131 
L 556.048125 -207.685663 
L 556.048125 -208.531654 
L 556.048125 -208.531654 
L 519.361458 -164.116298 
L 482.674792 -130.772186 
L 445.988125 -102.731048 
L 409.301458 -82.588166 
L 372.614792 -71.763007 
L 335.928125 -67.533765 
z
" style="stroke: #707070"/>
    </defs>
    <g clip-path="url(#pa2821e40cb)">
     <use xlink:href="#m351cc77cae" x="0" y="244.529219" style="fill: #707070; stroke: #707070"/>
    </g>
   </g>
   <g id="PolyCollection_24">
    <defs>
     <path id="m3dc556f336" d="M 335.928125 -68.508651 
L 335.928125 -67.533765 
L 372.614792 -71.763007 
L 409.301458 -82.588166 
L 445.988125 -102.731048 
L 482.674792 -130.772186 
L 519.361458 -164.116298 
L 556.048125 -208.531654 
L 556.048125 -209.596421 
L 556.048125 -209.596421 
L 519.361458 -165.289072 
L 482.674792 -131.891198 
L 445.988125 -103.815713 
L 409.301458 -83.682457 
L 372.614792 -72.77381 
L 335.928125 -68.508651 
z
" style="stroke: #808080"/>
    </defs>
    <g clip-path="url(#pa2821e40cb)">
     <use xlink:href="#m3dc556f336" x="0" y="244.529219" style="fill: #808080; stroke: #808080"/>
    </g>
   </g>
   <g id="PolyCollection_25">
    <defs>
     <path id="m5f498dc9be" d="M 335.928125 -70.629366 
L 335.928125 -68.508651 
L 372.614792 -72.77381 
L 409.301458 -83.682457 
L 445.988125 -103.815713 
L 482.674792 -131.891198 
L 519.361458 -165.289072 
L 556.048125 -209.596421 
L 556.048125 -213.494122 
L 556.048125 -213.494122 
L 519.361458 -169.132695 
L 482.674792 -135.478979 
L 445.988125 -107.318651 
L 409.301458 -87.1211 
L 372.614792 -75.878838 
L 335.928125 -70.629366 
z
" style="stroke: #606060"/>
    </defs>
    <g clip-path="url(#pa2821e40cb)">
     <use xlink:href="#m5f498dc9be" x="0" y="244.529219" style="fill: #606060; stroke: #606060"/>
    </g>
   </g>
   <g id="PolyCollection_26">
    <defs>
     <path id="md641fddf7d" d="M 335.928125 -80.853896 
L 335.928125 -70.629366 
L 372.614792 -75.878838 
L 409.301458 -87.1211 
L 445.988125 -107.318651 
L 482.674792 -135.478979 
L 519.361458 -169.132695 
L 556.048125 -213.494122 
L 556.048125 -223.260136 
L 556.048125 -223.260136 
L 519.361458 -182.498716 
L 482.674792 -148.993855 
L 445.988125 -122.102458 
L 409.301458 -101.544968 
L 372.614792 -88.18409 
L 335.928125 -80.853896 
z
" style="stroke: #909090"/>
    </defs>
    <g clip-path="url(#pa2821e40cb)">
     <use xlink:href="#md641fddf7d" x="0" y="244.529219" style="fill: #909090; stroke: #909090"/>
    </g>
   </g>
   <g id="PolyCollection_27">
    <defs>
     <path id="mb1d48a48ce" d="M 335.928125 -81.302723 
L 335.928125 -80.853896 
L 372.614792 -88.18409 
L 409.301458 -101.544968 
L 445.988125 -122.102458 
L 482.674792 -148.993855 
L 519.361458 -182.498716 
L 556.048125 -223.260136 
L 556.048125 -224.13872 
L 556.048125 -224.13872 
L 519.361458 -183.377086 
L 482.674792 -149.872922 
L 445.988125 -122.981535 
L 409.301458 -102.424054 
L 372.614792 -89.063175 
L 335.928125 -81.302723 
z
" style="stroke: #505050"/>
    </defs>
    <g clip-path="url(#pa2821e40cb)">
     <use xlink:href="#mb1d48a48ce" x="0" y="244.529219" style="fill: #505050; stroke: #505050"/>
    </g>
   </g>
   <g id="PolyCollection_28">
    <defs>
     <path id="me1cd21879c" d="M 335.928125 -81.302723 
L 335.928125 -81.302723 
L 372.614792 -89.063175 
L 409.301458 -102.424054 
L 445.988125 -122.981535 
L 482.674792 -149.872922 
L 519.361458 -183.377086 
L 556.048125 -224.13872 
L 556.048125 -224.13872 
L 556.048125 -224.13872 
L 519.361458 -183.377086 
L 482.674792 -149.872922 
L 445.988125 -122.981535 
L 409.301458 -102.424054 
L 372.614792 -89.063175 
L 335.928125 -81.302723 
z
" style="stroke: #fdd404"/>
    </defs>
    <g clip-path="url(#pa2821e40cb)">
     <use xlink:href="#me1cd21879c" x="0" y="244.529219" style="fill: #fdd404; stroke: #fdd404"/>
    </g>
   </g>
   <g id="PolyCollection_29">
    <defs>
     <path id="me751a50edb" d="M 335.928125 -82.791641 
L 335.928125 -81.302723 
L 372.614792 -89.063175 
L 409.301458 -102.424054 
L 445.988125 -122.981535 
L 482.674792 -149.872922 
L 519.361458 -183.377086 
L 556.048125 -224.13872 
L 556.048125 -224.909704 
L 556.048125 -224.909704 
L 519.361458 -184.886562 
L 482.674792 -151.367017 
L 445.988125 -124.501344 
L 409.301458 -103.953766 
L 372.614792 -90.580176 
L 335.928125 -82.791641 
z
" style="stroke: #9e5a01"/>
    </defs>
    <g clip-path="url(#pa2821e40cb)">
     <use xlink:href="#me751a50edb" x="0" y="244.529219" style="fill: #9e5a01; stroke: #9e5a01"/>
    </g>
   </g>
   <g id="PolyCollection_30">
    <defs>
     <path id="m11c974dbe5" d="M 335.928125 -82.791641 
L 335.928125 -82.791641 
L 372.614792 -90.580176 
L 409.301458 -103.953766 
L 445.988125 -124.501344 
L 482.674792 -151.367017 
L 519.361458 -184.886562 
L 556.048125 -224.909704 
L 556.048125 -224.909704 
L 556.048125 -224.909704 
L 519.361458 -184.886562 
L 482.674792 -151.367017 
L 445.988125 -124.501344 
L 409.301458 -103.953766 
L 372.614792 -90.580176 
L 335.928125 -82.791641 
z
" style="stroke: #70af1d"/>
    </defs>
    <g clip-path="url(#pa2821e40cb)">
     <use xlink:href="#m11c974dbe5" x="0" y="244.529219" style="fill: #70af1d; stroke: #70af1d"/>
    </g>
   </g>
   <g id="PolyCollection_31">
    <defs>
     <path id="m0cdbf35f1e" d="M 335.928125 -82.791878 
L 335.928125 -82.791641 
L 372.614792 -90.580176 
L 409.301458 -103.953766 
L 445.988125 -124.501344 
L 482.674792 -151.367017 
L 519.361458 -184.886562 
L 556.048125 -224.909704 
L 556.048125 -224.909725 
L 556.048125 -224.909725 
L 519.361458 -184.889334 
L 482.674792 -151.376966 
L 445.988125 -124.528013 
L 409.301458 -103.984941 
L 372.614792 -90.580494 
L 335.928125 -82.791878 
z
" style="stroke: #262626"/>
    </defs>
    <g clip-path="url(#pa2821e40cb)">
     <use xlink:href="#m0cdbf35f1e" x="0" y="244.529219" style="fill: #262626; stroke: #262626"/>
    </g>
   </g>
   <g id="matplotlib.axis_3">
    <g id="xtick_8">
     <g id="line2d_36">
      <g>
       <use xlink:href="#m526d836137" x="335.928125" y="204.879219" style="stroke: #000000; stroke-width: 0.8"/>
      </g>
     </g>
     <g id="text_17">
      <!-- 2020 -->
      <g transform="translate(338.6875 237.329219)rotate(-90)scale(0.1 -0.1)">
       <use xlink:href="#DejaVuSans-32"/>
       <use xlink:href="#DejaVuSans-30" x="63.623047"/>
       <use xlink:href="#DejaVuSans-32" x="127.246094"/>
       <use xlink:href="#DejaVuSans-30" x="190.869141"/>
      </g>
     </g>
    </g>
    <g id="xtick_9">
     <g id="line2d_37">
      <g>
       <use xlink:href="#m526d836137" x="372.614792" y="204.879219" style="stroke: #000000; stroke-width: 0.8"/>
      </g>
     </g>
     <g id="text_18">
      <!-- 2025 -->
      <g transform="translate(375.374167 237.329219)rotate(-90)scale(0.1 -0.1)">
       <use xlink:href="#DejaVuSans-32"/>
       <use xlink:href="#DejaVuSans-30" x="63.623047"/>
       <use xlink:href="#DejaVuSans-32" x="127.246094"/>
       <use xlink:href="#DejaVuSans-35" x="190.869141"/>
      </g>
     </g>
    </g>
    <g id="xtick_10">
     <g id="line2d_38">
      <g>
       <use xlink:href="#m526d836137" x="409.301458" y="204.879219" style="stroke: #000000; stroke-width: 0.8"/>
      </g>
     </g>
     <g id="text_19">
      <!-- 2030 -->
      <g transform="translate(412.060833 237.329219)rotate(-90)scale(0.1 -0.1)">
       <use xlink:href="#DejaVuSans-32"/>
       <use xlink:href="#DejaVuSans-30" x="63.623047"/>
       <use xlink:href="#DejaVuSans-33" x="127.246094"/>
       <use xlink:href="#DejaVuSans-30" x="190.869141"/>
      </g>
     </g>
    </g>
    <g id="xtick_11">
     <g id="line2d_39">
      <g>
       <use xlink:href="#m526d836137" x="445.988125" y="204.879219" style="stroke: #000000; stroke-width: 0.8"/>
      </g>
     </g>
     <g id="text_20">
      <!-- 2035 -->
      <g transform="translate(448.7475 237.329219)rotate(-90)scale(0.1 -0.1)">
       <use xlink:href="#DejaVuSans-32"/>
       <use xlink:href="#DejaVuSans-30" x="63.623047"/>
       <use xlink:href="#DejaVuSans-33" x="127.246094"/>
       <use xlink:href="#DejaVuSans-35" x="190.869141"/>
      </g>
     </g>
    </g>
    <g id="xtick_12">
     <g id="line2d_40">
      <g>
       <use xlink:href="#m526d836137" x="482.674792" y="204.879219" style="stroke: #000000; stroke-width: 0.8"/>
      </g>
     </g>
     <g id="text_21">
      <!-- 2040 -->
      <g transform="translate(485.434167 237.329219)rotate(-90)scale(0.1 -0.1)">
       <use xlink:href="#DejaVuSans-32"/>
       <use xlink:href="#DejaVuSans-30" x="63.623047"/>
       <use xlink:href="#DejaVuSans-34" x="127.246094"/>
       <use xlink:href="#DejaVuSans-30" x="190.869141"/>
      </g>
     </g>
    </g>
    <g id="xtick_13">
     <g id="line2d_41">
      <g>
       <use xlink:href="#m526d836137" x="519.361458" y="204.879219" style="stroke: #000000; stroke-width: 0.8"/>
      </g>
     </g>
     <g id="text_22">
      <!-- 2045 -->
      <g transform="translate(522.120833 237.329219)rotate(-90)scale(0.1 -0.1)">
       <use xlink:href="#DejaVuSans-32"/>
       <use xlink:href="#DejaVuSans-30" x="63.623047"/>
       <use xlink:href="#DejaVuSans-34" x="127.246094"/>
       <use xlink:href="#DejaVuSans-35" x="190.869141"/>
      </g>
     </g>
    </g>
    <g id="xtick_14">
     <g id="line2d_42">
      <g>
       <use xlink:href="#m526d836137" x="556.048125" y="204.879219" style="stroke: #000000; stroke-width: 0.8"/>
      </g>
     </g>
     <g id="text_23">
      <!-- 2050 -->
      <g transform="translate(558.8075 237.329219)rotate(-90)scale(0.1 -0.1)">
       <use xlink:href="#DejaVuSans-32"/>
       <use xlink:href="#DejaVuSans-30" x="63.623047"/>
       <use xlink:href="#DejaVuSans-35" x="127.246094"/>
       <use xlink:href="#DejaVuSans-30" x="190.869141"/>
      </g>
     </g>
    </g>
   </g>
   <g id="matplotlib.axis_4">
    <g id="ytick_8">
     <g id="line2d_43">
      <path d="M 335.928125 191.953885 
L 556.048125 191.953885 
" clip-path="url(#pa2821e40cb)" style="fill: none; stroke: #b0b0b0; stroke-width: 0.8; stroke-linecap: square"/>
     </g>
     <g id="line2d_44">
      <g>
       <use xlink:href="#me424f76df1" x="335.928125" y="191.953885" style="stroke: #000000; stroke-width: 0.8"/>
      </g>
     </g>
     <g id="text_24">
      <!-- 0 -->
      <g transform="translate(322.565625 195.753104)scale(0.1 -0.1)">
       <use xlink:href="#DejaVuSans-30"/>
      </g>
     </g>
    </g>
    <g id="ytick_9">
     <g id="line2d_45">
      <path d="M 335.928125 166.103219 
L 556.048125 166.103219 
" clip-path="url(#pa2821e40cb)" style="fill: none; stroke: #b0b0b0; stroke-width: 0.8; stroke-linecap: square"/>
     </g>
     <g id="line2d_46">
      <g>
       <use xlink:href="#me424f76df1" x="335.928125" y="166.103219" style="stroke: #000000; stroke-width: 0.8"/>
      </g>
     </g>
     <g id="text_25">
      <!-- 1000 -->
      <g transform="translate(303.478125 169.902438)scale(0.1 -0.1)">
       <use xlink:href="#DejaVuSans-31"/>
       <use xlink:href="#DejaVuSans-30" x="63.623047"/>
       <use xlink:href="#DejaVuSans-30" x="127.246094"/>
       <use xlink:href="#DejaVuSans-30" x="190.869141"/>
      </g>
     </g>
    </g>
    <g id="ytick_10">
     <g id="line2d_47">
      <path d="M 335.928125 140.252552 
L 556.048125 140.252552 
" clip-path="url(#pa2821e40cb)" style="fill: none; stroke: #b0b0b0; stroke-width: 0.8; stroke-linecap: square"/>
     </g>
     <g id="line2d_48">
      <g>
       <use xlink:href="#me424f76df1" x="335.928125" y="140.252552" style="stroke: #000000; stroke-width: 0.8"/>
      </g>
     </g>
     <g id="text_26">
      <!-- 2000 -->
      <g transform="translate(303.478125 144.051771)scale(0.1 -0.1)">
       <use xlink:href="#DejaVuSans-32"/>
       <use xlink:href="#DejaVuSans-30" x="63.623047"/>
       <use xlink:href="#DejaVuSans-30" x="127.246094"/>
       <use xlink:href="#DejaVuSans-30" x="190.869141"/>
      </g>
     </g>
    </g>
    <g id="ytick_11">
     <g id="line2d_49">
      <path d="M 335.928125 114.401885 
L 556.048125 114.401885 
" clip-path="url(#pa2821e40cb)" style="fill: none; stroke: #b0b0b0; stroke-width: 0.8; stroke-linecap: square"/>
     </g>
     <g id="line2d_50">
      <g>
       <use xlink:href="#me424f76df1" x="335.928125" y="114.401885" style="stroke: #000000; stroke-width: 0.8"/>
      </g>
     </g>
     <g id="text_27">
      <!-- 3000 -->
      <g transform="translate(303.478125 118.201104)scale(0.1 -0.1)">
       <use xlink:href="#DejaVuSans-33"/>
       <use xlink:href="#DejaVuSans-30" x="63.623047"/>
       <use xlink:href="#DejaVuSans-30" x="127.246094"/>
       <use xlink:href="#DejaVuSans-30" x="190.869141"/>
      </g>
     </g>
    </g>
    <g id="ytick_12">
     <g id="line2d_51">
      <path d="M 335.928125 88.551219 
L 556.048125 88.551219 
" clip-path="url(#pa2821e40cb)" style="fill: none; stroke: #b0b0b0; stroke-width: 0.8; stroke-linecap: square"/>
     </g>
     <g id="line2d_52">
      <g>
       <use xlink:href="#me424f76df1" x="335.928125" y="88.551219" style="stroke: #000000; stroke-width: 0.8"/>
      </g>
     </g>
     <g id="text_28">
      <!-- 4000 -->
      <g transform="translate(303.478125 92.350437)scale(0.1 -0.1)">
       <use xlink:href="#DejaVuSans-34"/>
       <use xlink:href="#DejaVuSans-30" x="63.623047"/>
       <use xlink:href="#DejaVuSans-30" x="127.246094"/>
       <use xlink:href="#DejaVuSans-30" x="190.869141"/>
      </g>
     </g>
    </g>
    <g id="ytick_13">
     <g id="line2d_53">
      <path d="M 335.928125 62.700552 
L 556.048125 62.700552 
" clip-path="url(#pa2821e40cb)" style="fill: none; stroke: #b0b0b0; stroke-width: 0.8; stroke-linecap: square"/>
     </g>
     <g id="line2d_54">
      <g>
       <use xlink:href="#me424f76df1" x="335.928125" y="62.700552" style="stroke: #000000; stroke-width: 0.8"/>
      </g>
     </g>
     <g id="text_29">
      <!-- 5000 -->
      <g transform="translate(303.478125 66.499771)scale(0.1 -0.1)">
       <use xlink:href="#DejaVuSans-35"/>
       <use xlink:href="#DejaVuSans-30" x="63.623047"/>
       <use xlink:href="#DejaVuSans-30" x="127.246094"/>
       <use xlink:href="#DejaVuSans-30" x="190.869141"/>
      </g>
     </g>
    </g>
    <g id="ytick_14">
     <g id="line2d_55">
      <path d="M 335.928125 36.849885 
L 556.048125 36.849885 
" clip-path="url(#pa2821e40cb)" style="fill: none; stroke: #b0b0b0; stroke-width: 0.8; stroke-linecap: square"/>
     </g>
     <g id="line2d_56">
      <g>
       <use xlink:href="#me424f76df1" x="335.928125" y="36.849885" style="stroke: #000000; stroke-width: 0.8"/>
      </g>
     </g>
     <g id="text_30">
      <!-- 6000 -->
      <g transform="translate(303.478125 40.649104)scale(0.1 -0.1)">
       <use xlink:href="#DejaVuSans-36"/>
       <use xlink:href="#DejaVuSans-30" x="63.623047"/>
       <use xlink:href="#DejaVuSans-30" x="127.246094"/>
       <use xlink:href="#DejaVuSans-30" x="190.869141"/>
      </g>
     </g>
    </g>
    <g id="ytick_15">
     <g id="line2d_57">
      <path d="M 335.928125 10.999219 
L 556.048125 10.999219 
" clip-path="url(#pa2821e40cb)" style="fill: none; stroke: #b0b0b0; stroke-width: 0.8; stroke-linecap: square"/>
     </g>
     <g id="line2d_58">
      <g>
       <use xlink:href="#me424f76df1" x="335.928125" y="10.999219" style="stroke: #000000; stroke-width: 0.8"/>
      </g>
     </g>
     <g id="text_31">
      <!-- 7000 -->
      <g transform="translate(303.478125 14.798438)scale(0.1 -0.1)">
       <defs>
        <path id="DejaVuSans-37" d="M 525 4666 
L 3525 4666 
L 3525 4397 
L 1831 0 
L 1172 0 
L 2766 4134 
L 525 4134 
L 525 4666 
z
" transform="scale(0.015625)"/>
       </defs>
       <use xlink:href="#DejaVuSans-37"/>
       <use xlink:href="#DejaVuSans-30" x="63.623047"/>
       <use xlink:href="#DejaVuSans-30" x="127.246094"/>
       <use xlink:href="#DejaVuSans-30" x="190.869141"/>
      </g>
     </g>
    </g>
    <g id="text_32">
     <!-- Energy [TWh/a] -->
     <g transform="translate(297.398437 146.850938)rotate(-90)scale(0.1 -0.1)">
      <defs>
       <path id="DejaVuSans-6e" d="M 3513 2113 
L 3513 0 
L 2938 0 
L 2938 2094 
Q 2938 2591 2744 2837 
Q 2550 3084 2163 3084 
Q 1697 3084 1428 2787 
Q 1159 2491 1159 1978 
L 1159 0 
L 581 0 
L 581 3500 
L 1159 3500 
L 1159 2956 
Q 1366 3272 1645 3428 
Q 1925 3584 2291 3584 
Q 2894 3584 3203 3211 
Q 3513 2838 3513 2113 
z
" transform="scale(0.015625)"/>
       <path id="DejaVuSans-65" d="M 3597 1894 
L 3597 1613 
L 953 1613 
Q 991 1019 1311 708 
Q 1631 397 2203 397 
Q 2534 397 2845 478 
Q 3156 559 3463 722 
L 3463 178 
Q 3153 47 2828 -22 
Q 2503 -91 2169 -91 
Q 1331 -91 842 396 
Q 353 884 353 1716 
Q 353 2575 817 3079 
Q 1281 3584 2069 3584 
Q 2775 3584 3186 3129 
Q 3597 2675 3597 1894 
z
M 3022 2063 
Q 3016 2534 2758 2815 
Q 2500 3097 2075 3097 
Q 1594 3097 1305 2825 
Q 1016 2553 972 2059 
L 3022 2063 
z
" transform="scale(0.015625)"/>
       <path id="DejaVuSans-72" d="M 2631 2963 
Q 2534 3019 2420 3045 
Q 2306 3072 2169 3072 
Q 1681 3072 1420 2755 
Q 1159 2438 1159 1844 
L 1159 0 
L 581 0 
L 581 3500 
L 1159 3500 
L 1159 2956 
Q 1341 3275 1631 3429 
Q 1922 3584 2338 3584 
Q 2397 3584 2469 3576 
Q 2541 3569 2628 3553 
L 2631 2963 
z
" transform="scale(0.015625)"/>
       <path id="DejaVuSans-67" d="M 2906 1791 
Q 2906 2416 2648 2759 
Q 2391 3103 1925 3103 
Q 1463 3103 1205 2759 
Q 947 2416 947 1791 
Q 947 1169 1205 825 
Q 1463 481 1925 481 
Q 2391 481 2648 825 
Q 2906 1169 2906 1791 
z
M 3481 434 
Q 3481 -459 3084 -895 
Q 2688 -1331 1869 -1331 
Q 1566 -1331 1297 -1286 
Q 1028 -1241 775 -1147 
L 775 -588 
Q 1028 -725 1275 -790 
Q 1522 -856 1778 -856 
Q 2344 -856 2625 -561 
Q 2906 -266 2906 331 
L 2906 616 
Q 2728 306 2450 153 
Q 2172 0 1784 0 
Q 1141 0 747 490 
Q 353 981 353 1791 
Q 353 2603 747 3093 
Q 1141 3584 1784 3584 
Q 2172 3584 2450 3431 
Q 2728 3278 2906 2969 
L 2906 3500 
L 3481 3500 
L 3481 434 
z
" transform="scale(0.015625)"/>
       <path id="DejaVuSans-68" d="M 3513 2113 
L 3513 0 
L 2938 0 
L 2938 2094 
Q 2938 2591 2744 2837 
Q 2550 3084 2163 3084 
Q 1697 3084 1428 2787 
Q 1159 2491 1159 1978 
L 1159 0 
L 581 0 
L 581 4863 
L 1159 4863 
L 1159 2956 
Q 1366 3272 1645 3428 
Q 1925 3584 2291 3584 
Q 2894 3584 3203 3211 
Q 3513 2838 3513 2113 
z
" transform="scale(0.015625)"/>
       <path id="DejaVuSans-2f" d="M 1625 4666 
L 2156 4666 
L 531 -594 
L 0 -594 
L 1625 4666 
z
" transform="scale(0.015625)"/>
      </defs>
      <use xlink:href="#DejaVuSans-45"/>
      <use xlink:href="#DejaVuSans-6e" x="63.183594"/>
      <use xlink:href="#DejaVuSans-65" x="126.5625"/>
      <use xlink:href="#DejaVuSans-72" x="188.085938"/>
      <use xlink:href="#DejaVuSans-67" x="227.449219"/>
      <use xlink:href="#DejaVuSans-79" x="290.925781"/>
      <use xlink:href="#DejaVuSans-20" x="350.105469"/>
      <use xlink:href="#DejaVuSans-5b" x="381.892578"/>
      <use xlink:href="#DejaVuSans-54" x="420.90625"/>
      <use xlink:href="#DejaVuSans-57" x="481.990234"/>
      <use xlink:href="#DejaVuSans-68" x="580.867188"/>
      <use xlink:href="#DejaVuSans-2f" x="644.246094"/>
      <use xlink:href="#DejaVuSans-61" x="677.9375"/>
      <use xlink:href="#DejaVuSans-5d" x="739.216797"/>
     </g>
    </g>
   </g>
   <g id="line2d_59">
    <path d="M 335.928125 191.954001 
L 372.614792 191.954044 
L 409.301458 191.954335 
L 445.988125 192.012188 
L 482.674792 192.045935 
L 519.361458 192.067866 
L 556.048125 192.090032 
" clip-path="url(#pa2821e40cb)" style="fill: none; stroke: #b8ea04; stroke-width: 1.5; stroke-linecap: square"/>
   </g>
   <g id="line2d_60">
    <path d="M 335.928125 181.393888 
L 372.614792 180.282068 
L 409.301458 179.052948 
L 445.988125 179.070606 
L 482.674792 179.07353 
L 519.361458 179.067717 
L 556.048125 179.076467 
" clip-path="url(#pa2821e40cb)" style="fill: none; stroke: #08ad97; stroke-width: 1.5; stroke-linecap: square"/>
   </g>
   <g id="line2d_61">
    <path d="M 335.928125 191.954012 
L 372.614792 191.954054 
L 409.301458 191.95435 
L 445.988125 192.012476 
L 482.674792 192.046449 
L 519.361458 192.068345 
L 556.048125 192.091286 
" clip-path="url(#pa2821e40cb)" style="fill: none; stroke: #ea048a; stroke-width: 1.5; stroke-linecap: square"/>
   </g>
   <g id="line2d_62">
    <path d="M 335.928125 181.393499 
L 372.614792 180.281652 
L 409.301458 179.05255 
L 445.988125 179.07021 
L 482.674792 179.073124 
L 519.361458 179.067302 
L 556.048125 179.075984 
" clip-path="url(#pa2821e40cb)" style="fill: none; stroke: #6895dd; stroke-width: 1.5; stroke-linecap: square"/>
   </g>
   <g id="line2d_63">
    <path d="M 335.928125 181.386976 
L 372.614792 180.274655 
L 409.301458 179.045854 
L 445.988125 179.063748 
L 482.674792 179.066771 
L 519.361458 179.060722 
L 556.048125 179.069338 
" clip-path="url(#pa2821e40cb)" style="fill: none; stroke: #74c6f2; stroke-width: 1.5; stroke-linecap: square"/>
   </g>
   <g id="line2d_64">
    <path d="M 335.928125 178.991516 
L 372.614792 177.01427 
L 409.301458 172.998763 
L 445.988125 167.763697 
L 482.674792 161.489223 
L 519.361458 157.531894 
L 556.048125 153.936658 
" clip-path="url(#pa2821e40cb)" style="fill: none; stroke: #235ebc; stroke-width: 1.5; stroke-linecap: square"/>
   </g>
   <g id="line2d_65">
    <path d="M 335.928125 177.894277 
L 372.614792 175.072976 
L 409.301458 168.415002 
L 445.988125 158.49889 
L 482.674792 146.678528 
L 519.361458 134.717362 
L 556.048125 122.70439 
" clip-path="url(#pa2821e40cb)" style="fill: none; stroke: #f9d002; stroke-width: 1.5; stroke-linecap: square"/>
   </g>
   <g id="line2d_66">
    <path d="M 335.928125 177.011753 
L 372.614792 173.105226 
L 409.301458 162.531223 
L 445.988125 142.498749 
L 482.674792 114.550651 
L 519.361458 81.244088 
L 556.048125 36.843556 
" clip-path="url(#pa2821e40cb)" style="fill: none; stroke: #b20101; stroke-width: 1.5; stroke-linecap: square"/>
   </g>
   <g id="line2d_67">
    <path d="M 335.928125 176.995454 
L 372.614792 172.766211 
L 409.301458 161.941053 
L 445.988125 141.79817 
L 482.674792 113.757033 
L 519.361458 80.412921 
L 556.048125 35.997564 
" clip-path="url(#pa2821e40cb)" style="fill: none; stroke: #707070; stroke-width: 1.5; stroke-linecap: square"/>
   </g>
   <g id="line2d_68">
    <path d="M 335.928125 176.020568 
L 372.614792 171.755408 
L 409.301458 160.846762 
L 445.988125 140.713505 
L 482.674792 112.638021 
L 519.361458 79.240147 
L 556.048125 34.932798 
" clip-path="url(#pa2821e40cb)" style="fill: none; stroke: #808080; stroke-width: 1.5; stroke-linecap: square"/>
   </g>
   <g id="line2d_69">
    <path d="M 335.928125 173.899853 
L 372.614792 168.650381 
L 409.301458 157.408119 
L 445.988125 137.210568 
L 482.674792 109.05024 
L 519.361458 75.396524 
L 556.048125 31.035097 
" clip-path="url(#pa2821e40cb)" style="fill: none; stroke: #606060; stroke-width: 1.5; stroke-linecap: square"/>
   </g>
   <g id="line2d_70">
    <path d="M 335.928125 163.675323 
L 372.614792 156.345129 
L 409.301458 142.984251 
L 445.988125 122.426761 
L 482.674792 95.535364 
L 519.361458 62.030503 
L 556.048125 21.269083 
" clip-path="url(#pa2821e40cb)" style="fill: none; stroke: #909090; stroke-width: 1.5; stroke-linecap: square"/>
   </g>
   <g id="line2d_71">
    <path d="M 335.928125 163.226496 
L 372.614792 155.466043 
L 409.301458 142.105165 
L 445.988125 121.547684 
L 482.674792 94.656296 
L 519.361458 61.152132 
L 556.048125 20.390499 
" clip-path="url(#pa2821e40cb)" style="fill: none; stroke: #505050; stroke-width: 1.5; stroke-linecap: square"/>
   </g>
   <g id="line2d_72">
    <path d="M 335.928125 163.226496 
L 372.614792 155.466043 
L 409.301458 142.105165 
L 445.988125 121.547684 
L 482.674792 94.656296 
L 519.361458 61.152132 
L 556.048125 20.390499 
" clip-path="url(#pa2821e40cb)" style="fill: none; stroke: #fdd404; stroke-width: 1.5; stroke-linecap: square"/>
   </g>
   <g id="line2d_73">
    <path d="M 335.928125 161.737578 
L 372.614792 153.949043 
L 409.301458 140.575453 
L 445.988125 120.027875 
L 482.674792 93.162202 
L 519.361458 59.642656 
L 556.048125 19.619515 
" clip-path="url(#pa2821e40cb)" style="fill: none; stroke: #9e5a01; stroke-width: 1.5; stroke-linecap: square"/>
   </g>
   <g id="line2d_74">
    <path d="M 335.928125 161.737578 
L 372.614792 153.949043 
L 409.301458 140.575453 
L 445.988125 120.027875 
L 482.674792 93.162202 
L 519.361458 59.642656 
L 556.048125 19.619515 
" clip-path="url(#pa2821e40cb)" style="fill: none; stroke: #70af1d; stroke-width: 1.5; stroke-linecap: square"/>
   </g>
   <g id="line2d_75">
    <path d="M 335.928125 161.737341 
L 372.614792 153.948724 
L 409.301458 140.544278 
L 445.988125 120.001205 
L 482.674792 93.152253 
L 519.361458 59.639884 
L 556.048125 19.619494 
" clip-path="url(#pa2821e40cb)" style="fill: none; stroke: #262626; stroke-width: 1.5; stroke-linecap: square"/>
   </g>
   <g id="line2d_76">
    <path d="M 335.928125 161.198411 
L 372.614792 153.464056 
L 409.301458 140.13953 
L 445.988125 119.89405 
L 482.674792 93.226702 
L 519.361458 59.754343 
L 556.048125 19.756894 
" clip-path="url(#pa2821e40cb)" style="fill: none; stroke-dasharray: 7.4,3.2; stroke-dashoffset: 0; stroke: #000000; stroke-width: 2"/>
   </g>
   <g id="patch_8">
    <path d="M 335.928125 204.879219 
L 335.928125 10.999219 
" style="fill: none; stroke: #000000; stroke-width: 0.8; stroke-linejoin: miter; stroke-linecap: square"/>
   </g>
   <g id="patch_9">
    <path d="M 556.048125 204.879219 
L 556.048125 10.999219 
" style="fill: none; stroke: #000000; stroke-width: 0.8; stroke-linejoin: miter; stroke-linecap: square"/>
   </g>
   <g id="patch_10">
    <path d="M 335.928125 204.879219 
L 556.048125 204.879219 
" style="fill: none; stroke: #000000; stroke-width: 0.8; stroke-linejoin: miter; stroke-linecap: square"/>
   </g>
   <g id="patch_11">
    <path d="M 335.928125 10.999219 
L 556.048125 10.999219 
" style="fill: none; stroke: #000000; stroke-width: 0.8; stroke-linejoin: miter; stroke-linecap: square"/>
   </g>
   <g id="patch_12">
    <path d="M 466.042811 79.094854 
Q 469.358003 81.783387 472.673195 84.471919 
L 473.932951 82.918531 
Q 477.806345 87.669136 481.679739 92.419741 
Q 476.23165 89.610871 470.783561 86.802001 
L 472.043317 85.248613 
Q 468.728125 82.56008 465.412932 79.871548 
L 466.042811 79.094854 
z
" style="stroke: #000000; stroke-linecap: round"/>
   </g>
   <g id="text_33">
    <!-- Load/a -->
    <g transform="translate(429.243594 74.974473)scale(0.1 -0.1)">
     <defs>
      <path id="DejaVuSans-4c" d="M 628 4666 
L 1259 4666 
L 1259 531 
L 3531 531 
L 3531 0 
L 628 0 
L 628 4666 
z
" transform="scale(0.015625)"/>
      <path id="DejaVuSans-6f" d="M 1959 3097 
Q 1497 3097 1228 2736 
Q 959 2375 959 1747 
Q 959 1119 1226 758 
Q 1494 397 1959 397 
Q 2419 397 2687 759 
Q 2956 1122 2956 1747 
Q 2956 2369 2687 2733 
Q 2419 3097 1959 3097 
z
M 1959 3584 
Q 2709 3584 3137 3096 
Q 3566 2609 3566 1747 
Q 3566 888 3137 398 
Q 2709 -91 1959 -91 
Q 1206 -91 779 398 
Q 353 888 353 1747 
Q 353 2609 779 3096 
Q 1206 3584 1959 3584 
z
" transform="scale(0.015625)"/>
      <path id="DejaVuSans-64" d="M 2906 2969 
L 2906 4863 
L 3481 4863 
L 3481 0 
L 2906 0 
L 2906 525 
Q 2725 213 2448 61 
Q 2172 -91 1784 -91 
Q 1150 -91 751 415 
Q 353 922 353 1747 
Q 353 2572 751 3078 
Q 1150 3584 1784 3584 
Q 2172 3584 2448 3432 
Q 2725 3281 2906 2969 
z
M 947 1747 
Q 947 1113 1208 752 
Q 1469 391 1925 391 
Q 2381 391 2643 752 
Q 2906 1113 2906 1747 
Q 2906 2381 2643 2742 
Q 2381 3103 1925 3103 
Q 1469 3103 1208 2742 
Q 947 2381 947 1747 
z
" transform="scale(0.015625)"/>
     </defs>
     <use xlink:href="#DejaVuSans-4c"/>
     <use xlink:href="#DejaVuSans-6f" x="53.962891"/>
     <use xlink:href="#DejaVuSans-61" x="115.144531"/>
     <use xlink:href="#DejaVuSans-64" x="176.423828"/>
     <use xlink:href="#DejaVuSans-2f" x="239.900391"/>
     <use xlink:href="#DejaVuSans-61" x="273.591797"/>
    </g>
   </g>
   <g id="text_34">
    <!-- SEA_TECH_AIMS_BAU -->
    <g transform="translate(340.330525 24.387219)scale(0.09 -0.09)">
     <use xlink:href="#DejaVuSans-53"/>
     <use xlink:href="#DejaVuSans-45" x="63.476562"/>
     <use xlink:href="#DejaVuSans-41" x="126.660156"/>
     <use xlink:href="#DejaVuSans-5f" x="195.068359"/>
     <use xlink:href="#DejaVuSans-54" x="245.068359"/>
     <use xlink:href="#DejaVuSans-45" x="306.152344"/>
     <use xlink:href="#DejaVuSans-43" x="369.335938"/>
     <use xlink:href="#DejaVuSans-48" x="439.160156"/>
     <use xlink:href="#DejaVuSans-5f" x="514.355469"/>
     <use xlink:href="#DejaVuSans-41" x="564.355469"/>
     <use xlink:href="#DejaVuSans-49" x="632.763672"/>
     <use xlink:href="#DejaVuSans-4d" x="662.255859"/>
     <use xlink:href="#DejaVuSans-53" x="748.535156"/>
     <use xlink:href="#DejaVuSans-5f" x="812.011719"/>
     <use xlink:href="#DejaVuSans-42" x="862.011719"/>
     <use xlink:href="#DejaVuSans-41" x="930.615234"/>
     <use xlink:href="#DejaVuSans-55" x="999.023438"/>
    </g>
   </g>
  </g>
 </g>
 <defs>
  <clipPath id="p4c133217b5">
   <rect x="53.328125" y="10.999219" width="220.12" height="193.88"/>
  </clipPath>
  <clipPath id="pa2821e40cb">
   <rect x="335.928125" y="10.999219" width="220.12" height="193.88"/>
  </clipPath>
 </defs>
</svg>
