<?xml version="1.0" encoding="utf-8" standalone="no"?>
<!DOCTYPE svg PUBLIC "-//W3C//DTD SVG 1.1//EN"
  "http://www.w3.org/Graphics/SVG/1.1/DTD/svg11.dtd">
<svg xmlns:xlink="http://www.w3.org/1999/xlink" width="560.395313pt" height="267.987025pt" viewBox="0 0 560.395313 267.987025" xmlns="http://www.w3.org/2000/svg" version="1.1">
 <metadata>
  <rdf:RDF xmlns:dc="http://purl.org/dc/elements/1.1/" xmlns:cc="http://creativecommons.org/ns#" xmlns:rdf="http://www.w3.org/1999/02/22-rdf-syntax-ns#">
   <cc:Work>
    <dc:type rdf:resource="http://purl.org/dc/dcmitype/StillImage"/>
    <dc:date>2024-12-05T00:43:31.642434</dc:date>
    <dc:format>image/svg+xml</dc:format>
    <dc:creator>
     <cc:Agent>
      <dc:title>Matplotlib v3.9.2, https://matplotlib.org/</dc:title>
     </cc:Agent>
    </dc:creator>
   </cc:Work>
  </rdf:RDF>
 </metadata>
 <defs>
  <style type="text/css">*{stroke-linejoin: round; stroke-linecap: butt}</style>
 </defs>
 <g id="figure_1">
  <g id="patch_1">
   <path d="M 0 267.987025 
L 560.395313 267.987025 
L 560.395313 0 
L 0 0 
z
" style="fill: #ffffff"/>
  </g>
  <g id="axes_1">
   <g id="patch_2">
    <path d="M 61.707813 156.936 
L 546.832812 156.936 
L 546.832812 7.2 
L 61.707813 7.2 
z
" style="fill: #ffffff"/>
   </g>
   <g id="PolyCollection_1">
    <defs>
     <path id="m5bb327c110" d="M 61.707812 -156.548444 
L 61.707812 -160.963025 
L 71.814583 -160.963025 
L 81.921354 -160.963025 
L 92.028125 -160.963025 
L 102.134896 -160.963025 
L 112.241667 -160.963025 
L 122.348437 -160.963025 
L 132.455208 -160.963025 
L 142.561979 -160.963025 
L 152.66875 -160.963025 
L 162.775521 -160.963025 
L 172.882292 -160.963025 
L 182.989062 -160.963025 
L 193.095833 -160.963025 
L 203.202604 -160.963025 
L 213.309375 -160.963025 
L 223.416146 -160.963025 
L 233.522917 -160.963025 
L 243.629687 -160.963025 
L 253.736458 -160.963025 
L 263.843229 -160.963025 
L 273.95 -160.963025 
L 284.056771 -160.963025 
L 294.163542 -160.963025 
L 304.270312 -160.963025 
L 314.377083 -160.963025 
L 324.483854 -160.963025 
L 334.590625 -160.963025 
L 344.697396 -160.963025 
L 354.804167 -160.963025 
L 364.910937 -160.963025 
L 375.017708 -160.963025 
L 385.124479 -160.963025 
L 395.23125 -160.963025 
L 405.338021 -160.963025 
L 415.444792 -160.963025 
L 425.551562 -160.963025 
L 435.658333 -160.963025 
L 445.765104 -160.963025 
L 455.871875 -160.963025 
L 465.978646 -160.963025 
L 476.085417 -160.963025 
L 486.192187 -160.963025 
L 496.298958 -160.963025 
L 506.405729 -160.963025 
L 516.5125 -160.963025 
L 526.619271 -160.963025 
L 536.726042 -160.963025 
L 546.832812 -160.963025 
L 546.832812 -152.186213 
L 546.832812 -152.186213 
L 536.726042 -160.963025 
L 526.619271 -160.963025 
L 516.5125 -160.963025 
L 506.405729 -160.963025 
L 496.298958 -160.963025 
L 486.192187 -128.96258 
L 476.085417 -125.271646 
L 465.978646 -154.307819 
L 455.871875 -160.963025 
L 445.765104 -160.963025 
L 435.658333 -160.963025 
L 425.551562 -160.963025 
L 415.444792 -160.963025 
L 405.338021 -128.190365 
L 395.23125 -125.336392 
L 385.124479 -154.999133 
L 375.017708 -160.963025 
L 364.910937 -160.963025 
L 354.804167 -160.963025 
L 344.697396 -160.963025 
L 334.590625 -160.963025 
L 324.483854 -131.334093 
L 314.377083 -127.903001 
L 304.270312 -157.734722 
L 294.163542 -160.963025 
L 284.056771 -160.963025 
L 273.95 -160.963025 
L 263.843229 -160.963025 
L 253.736458 -160.963025 
L 243.629687 -126.350665 
L 233.522917 -123.001561 
L 223.416146 -155.864633 
L 213.309375 -160.963025 
L 203.202604 -160.963025 
L 193.095833 -160.963025 
L 182.989062 -160.963025 
L 172.882292 -160.963025 
L 162.775521 -126.501686 
L 152.66875 -122.905554 
L 142.561979 -155.696157 
L 132.455208 -160.963025 
L 122.348437 -160.963025 
L 112.241667 -160.963025 
L 102.134896 -160.963025 
L 92.028125 -160.963025 
L 81.921354 -128.514953 
L 71.814583 -127.917101 
L 61.707812 -156.548444 
z
" style="stroke: #b8ea04"/>
    </defs>
    <g clip-path="url(#pee5b209b04)">
     <use xlink:href="#m5bb327c110" x="0" y="267.987025" style="fill: #b8ea04; stroke: #b8ea04"/>
    </g>
   </g>
   <g id="PolyCollection_2">
    <defs>
     <path id="m80ae31bd5e" d="M 61.707812 -163.275884 
L 61.707812 -160.963025 
L 71.814583 -160.963025 
L 81.921354 -160.963025 
L 92.028125 -160.963025 
L 102.134896 -160.963025 
L 112.241667 -160.963025 
L 122.348437 -160.963025 
L 132.455208 -160.963025 
L 142.561979 -160.963025 
L 152.66875 -160.963025 
L 162.775521 -160.963025 
L 172.882292 -160.963025 
L 182.989062 -160.963025 
L 193.095833 -160.963025 
L 203.202604 -160.963025 
L 213.309375 -160.963025 
L 223.416146 -160.963025 
L 233.522917 -160.963025 
L 243.629687 -160.963025 
L 253.736458 -160.963025 
L 263.843229 -160.963025 
L 273.95 -160.963025 
L 284.056771 -160.963025 
L 294.163542 -160.963025 
L 304.270312 -160.963025 
L 314.377083 -160.963025 
L 324.483854 -160.963025 
L 334.590625 -160.963025 
L 344.697396 -160.963025 
L 354.804167 -160.963025 
L 364.910937 -160.963025 
L 375.017708 -160.963025 
L 385.124479 -160.963025 
L 395.23125 -160.963025 
L 405.338021 -160.963025 
L 415.444792 -160.963025 
L 425.551562 -160.963025 
L 435.658333 -160.963025 
L 445.765104 -160.963025 
L 455.871875 -160.963025 
L 465.978646 -160.963025 
L 476.085417 -160.963025 
L 486.192187 -160.963025 
L 496.298958 -160.963025 
L 506.405729 -160.963025 
L 516.5125 -160.963025 
L 526.619271 -160.963025 
L 536.726042 -160.963025 
L 546.832812 -160.963025 
L 546.832812 -163.127754 
L 546.832812 -163.127754 
L 536.726042 -163.148772 
L 526.619271 -163.14878 
L 516.5125 -163.148433 
L 506.405729 -163.152848 
L 496.298958 -163.13395 
L 486.192187 -163.05454 
L 476.085417 -163.050601 
L 465.978646 -163.12564 
L 455.871875 -163.206598 
L 445.765104 -163.206783 
L 435.658333 -163.207137 
L 425.551562 -163.212164 
L 415.444792 -163.192503 
L 405.338021 -163.146229 
L 395.23125 -163.145175 
L 385.124479 -163.194929 
L 375.017708 -163.263021 
L 364.910937 -163.263699 
L 354.804167 -163.264584 
L 344.697396 -163.268241 
L 334.590625 -163.255985 
L 324.483854 -163.222848 
L 314.377083 -163.226108 
L 304.270312 -163.262053 
L 294.163542 -163.271885 
L 284.056771 -163.272017 
L 273.95 -163.27249 
L 263.843229 -163.27544 
L 253.736458 -163.272313 
L 243.629687 -163.229239 
L 233.522917 -163.183396 
L 223.416146 -163.275567 
L 213.309375 -163.286264 
L 203.202604 -163.286412 
L 193.095833 -163.28671 
L 182.989062 -163.288653 
L 172.882292 -163.286868 
L 162.775521 -163.267565 
L 152.66875 -163.267929 
L 142.561979 -163.277272 
L 132.455208 -163.285756 
L 122.348437 -163.285907 
L 112.241667 -163.286155 
L 102.134896 -163.288143 
L 92.028125 -163.283487 
L 81.921354 -163.247484 
L 71.814583 -163.2483 
L 61.707812 -163.275884 
z
" style="stroke: #4adbc8"/>
    </defs>
    <g clip-path="url(#pee5b209b04)">
     <use xlink:href="#m80ae31bd5e" x="0" y="267.987025" style="fill: #4adbc8; stroke: #4adbc8"/>
    </g>
   </g>
   <g id="PolyCollection_3">
    <defs>
     <path id="m7b21d92bab" d="M 61.707812 -168.409617 
L 61.707812 -163.275884 
L 71.814583 -163.2483 
L 81.921354 -163.247484 
L 92.028125 -163.283487 
L 102.134896 -163.288143 
L 112.241667 -163.286155 
L 122.348437 -163.285907 
L 132.455208 -163.285756 
L 142.561979 -163.277272 
L 152.66875 -163.267929 
L 162.775521 -163.267565 
L 172.882292 -163.286868 
L 182.989062 -163.288653 
L 193.095833 -163.28671 
L 203.202604 -163.286412 
L 213.309375 -163.286264 
L 223.416146 -163.275567 
L 233.522917 -163.183396 
L 243.629687 -163.229239 
L 253.736458 -163.272313 
L 263.843229 -163.27544 
L 273.95 -163.27249 
L 284.056771 -163.272017 
L 294.163542 -163.271885 
L 304.270312 -163.262053 
L 314.377083 -163.226108 
L 324.483854 -163.222848 
L 334.590625 -163.255985 
L 344.697396 -163.268241 
L 354.804167 -163.264584 
L 364.910937 -163.263699 
L 375.017708 -163.263021 
L 385.124479 -163.194929 
L 395.23125 -163.145175 
L 405.338021 -163.146229 
L 415.444792 -163.192503 
L 425.551562 -163.212164 
L 435.658333 -163.207137 
L 445.765104 -163.206783 
L 455.871875 -163.206598 
L 465.978646 -163.12564 
L 476.085417 -163.050601 
L 486.192187 -163.05454 
L 496.298958 -163.13395 
L 506.405729 -163.152848 
L 516.5125 -163.148433 
L 526.619271 -163.14878 
L 536.726042 -163.148772 
L 546.832812 -163.127754 
L 546.832812 -167.798986 
L 546.832812 -167.798986 
L 536.726042 -169.888491 
L 526.619271 -169.891398 
L 516.5125 -170.314001 
L 506.405729 -172.189216 
L 496.298958 -170.592756 
L 486.192187 -166.420014 
L 476.085417 -165.852296 
L 465.978646 -168.159697 
L 455.871875 -170.244055 
L 445.765104 -170.244922 
L 435.658333 -170.377771 
L 425.551562 -171.945461 
L 415.444792 -170.529362 
L 405.338021 -166.663448 
L 395.23125 -166.495126 
L 385.124479 -168.28757 
L 375.017708 -170.137617 
L 364.910937 -169.670167 
L 354.804167 -170.181199 
L 344.697396 -170.738554 
L 334.590625 -169.222374 
L 324.483854 -166.097791 
L 314.377083 -165.622354 
L 304.270312 -167.703346 
L 294.163542 -169.403432 
L 284.056771 -169.508426 
L 273.95 -169.944632 
L 263.843229 -170.008592 
L 253.736458 -169.123417 
L 243.629687 -166.981804 
L 233.522917 -166.77502 
L 223.416146 -168.076367 
L 213.309375 -168.526982 
L 203.202604 -168.42742 
L 193.095833 -169.158344 
L 182.989062 -170.012056 
L 172.882292 -169.308302 
L 162.775521 -167.625361 
L 152.66875 -167.375537 
L 142.561979 -168.265016 
L 132.455208 -170.297791 
L 122.348437 -170.193959 
L 112.241667 -170.896406 
L 102.134896 -172.254227 
L 92.028125 -170.840876 
L 81.921354 -167.674644 
L 71.814583 -167.416344 
L 61.707812 -168.409617 
z
" style="stroke: #6895dd"/>
    </defs>
    <g clip-path="url(#pee5b209b04)">
     <use xlink:href="#m7b21d92bab" x="0" y="267.987025" style="fill: #6895dd; stroke: #6895dd"/>
    </g>
   </g>
   <g id="PolyCollection_4">
    <defs>
     <path id="mac4670cb94" d="M 61.707812 -170.150333 
L 61.707812 -168.409617 
L 71.814583 -167.416344 
L 81.921354 -167.674644 
L 92.028125 -170.840876 
L 102.134896 -172.254227 
L 112.241667 -170.896406 
L 122.348437 -170.193959 
L 132.455208 -170.297791 
L 142.561979 -168.265016 
L 152.66875 -167.375537 
L 162.775521 -167.625361 
L 172.882292 -169.308302 
L 182.989062 -170.012056 
L 193.095833 -169.158344 
L 203.202604 -168.42742 
L 213.309375 -168.526982 
L 223.416146 -168.076367 
L 233.522917 -166.77502 
L 243.629687 -166.981804 
L 253.736458 -169.123417 
L 263.843229 -170.008592 
L 273.95 -169.944632 
L 284.056771 -169.508426 
L 294.163542 -169.403432 
L 304.270312 -167.703346 
L 314.377083 -165.622354 
L 324.483854 -166.097791 
L 334.590625 -169.222374 
L 344.697396 -170.738554 
L 354.804167 -170.181199 
L 364.910937 -169.670167 
L 375.017708 -170.137617 
L 385.124479 -168.28757 
L 395.23125 -166.495126 
L 405.338021 -166.663448 
L 415.444792 -170.529362 
L 425.551562 -171.945461 
L 435.658333 -170.377771 
L 445.765104 -170.244922 
L 455.871875 -170.244055 
L 465.978646 -168.159697 
L 476.085417 -165.852296 
L 486.192187 -166.420014 
L 496.298958 -170.592756 
L 506.405729 -172.189216 
L 516.5125 -170.314001 
L 526.619271 -169.891398 
L 536.726042 -169.888491 
L 546.832812 -167.798986 
L 546.832812 -172.218989 
L 546.832812 -172.218989 
L 536.726042 -175.940097 
L 526.619271 -177.244232 
L 516.5125 -178.188263 
L 506.405729 -179.647527 
L 496.298958 -174.750792 
L 486.192187 -168.232653 
L 476.085417 -167.515008 
L 465.978646 -170.729389 
L 455.871875 -175.0761 
L 445.765104 -176.541102 
L 435.658333 -177.416793 
L 425.551562 -178.390911 
L 415.444792 -174.855912 
L 405.338021 -168.921313 
L 395.23125 -168.558146 
L 385.124479 -170.936597 
L 375.017708 -175.560944 
L 364.910937 -175.785565 
L 354.804167 -176.505586 
L 344.697396 -176.493199 
L 334.590625 -173.467593 
L 324.483854 -167.671151 
L 314.377083 -166.810983 
L 304.270312 -169.144468 
L 294.163542 -172.836763 
L 284.056771 -173.334009 
L 273.95 -174.006559 
L 263.843229 -174.015319 
L 253.736458 -171.647819 
L 243.629687 -167.909754 
L 233.522917 -167.530347 
L 223.416146 -169.210393 
L 213.309375 -170.649529 
L 203.202604 -170.834643 
L 193.095833 -172.534306 
L 182.989062 -174.064111 
L 172.882292 -172.191966 
L 162.775521 -168.796993 
L 152.66875 -168.577695 
L 142.561979 -170.259541 
L 132.455208 -173.902915 
L 122.348437 -174.217746 
L 112.241667 -175.392565 
L 102.134896 -177.207804 
L 92.028125 -174.544339 
L 81.921354 -169.16046 
L 71.814583 -168.781694 
L 61.707812 -170.150333 
z
" style="stroke: #235ebc"/>
    </defs>
    <g clip-path="url(#pee5b209b04)">
     <use xlink:href="#mac4670cb94" x="0" y="267.987025" style="fill: #235ebc; stroke: #235ebc"/>
    </g>
   </g>
   <g id="PolyCollection_5">
    <defs>
     <path id="mb544ba0e14" d="M 61.707812 -171.307612 
L 61.707812 -170.150333 
L 71.814583 -168.781694 
L 81.921354 -169.16046 
L 92.028125 -174.544339 
L 102.134896 -177.207804 
L 112.241667 -175.392565 
L 122.348437 -174.217746 
L 132.455208 -173.902915 
L 142.561979 -170.259541 
L 152.66875 -168.577695 
L 162.775521 -168.796993 
L 172.882292 -172.191966 
L 182.989062 -174.064111 
L 193.095833 -172.534306 
L 203.202604 -170.834643 
L 213.309375 -170.649529 
L 223.416146 -169.210393 
L 233.522917 -167.530347 
L 243.629687 -167.909754 
L 253.736458 -171.647819 
L 263.843229 -174.015319 
L 273.95 -174.006559 
L 284.056771 -173.334009 
L 294.163542 -172.836763 
L 304.270312 -169.144468 
L 314.377083 -166.810983 
L 324.483854 -167.671151 
L 334.590625 -173.467593 
L 344.697396 -176.493199 
L 354.804167 -176.505586 
L 364.910937 -175.785565 
L 375.017708 -175.560944 
L 385.124479 -170.936597 
L 395.23125 -168.558146 
L 405.338021 -168.921313 
L 415.444792 -174.855912 
L 425.551562 -178.390911 
L 435.658333 -177.416793 
L 445.765104 -176.541102 
L 455.871875 -175.0761 
L 465.978646 -170.729389 
L 476.085417 -167.515008 
L 486.192187 -168.232653 
L 496.298958 -174.750792 
L 506.405729 -179.647527 
L 516.5125 -178.188263 
L 526.619271 -177.244232 
L 536.726042 -175.940097 
L 546.832812 -172.218989 
L 546.832812 -172.432678 
L 546.832812 -172.432678 
L 536.726042 -176.210802 
L 526.619271 -177.513606 
L 516.5125 -178.458568 
L 506.405729 -179.920232 
L 496.298958 -175.024061 
L 486.192187 -168.446333 
L 476.085417 -167.728676 
L 465.978646 -170.943068 
L 455.871875 -175.289779 
L 445.765104 -176.754782 
L 435.658333 -177.630473 
L 425.551562 -178.60459 
L 415.444792 -175.069592 
L 405.338021 -169.134993 
L 395.23125 -168.771814 
L 385.124479 -171.150276 
L 375.017708 -176.135816 
L 364.910937 -176.364816 
L 354.804167 -177.101005 
L 344.697396 -177.119227 
L 334.590625 -174.092893 
L 324.483854 -167.884876 
L 314.377083 -167.024707 
L 304.270312 -169.44873 
L 294.163542 -173.939152 
L 284.056771 -174.438227 
L 273.95 -175.115068 
L 263.843229 -175.13795 
L 253.736458 -172.389725 
L 243.629687 -168.12343 
L 233.522917 -167.74402 
L 223.416146 -169.497311 
L 213.309375 -171.861088 
L 203.202604 -172.106342 
L 193.095833 -173.800753 
L 182.989062 -175.417901 
L 172.882292 -173.010786 
L 162.775521 -169.010759 
L 152.66875 -168.791469 
L 142.561979 -170.503501 
L 132.455208 -176.461715 
L 122.348437 -176.776546 
L 112.241667 -177.951371 
L 102.134896 -179.766613 
L 92.028125 -176.179554 
L 81.921354 -169.377643 
L 71.814583 -168.998878 
L 61.707812 -171.307612 
z
" style="stroke: #b20101"/>
    </defs>
    <g clip-path="url(#pee5b209b04)">
     <use xlink:href="#mb544ba0e14" x="0" y="267.987025" style="fill: #b20101; stroke: #b20101"/>
    </g>
   </g>
   <g id="PolyCollection_6">
    <defs>
     <path id="meda68e5bd4" d="M 61.707812 -171.307612 
L 61.707812 -171.307612 
L 71.814583 -168.998878 
L 81.921354 -169.377643 
L 92.028125 -176.179554 
L 102.134896 -179.766613 
L 112.241667 -177.951371 
L 122.348437 -176.776546 
L 132.455208 -176.461715 
L 142.561979 -170.503501 
L 152.66875 -168.791469 
L 162.775521 -169.010759 
L 172.882292 -173.010786 
L 182.989062 -175.417901 
L 193.095833 -173.800753 
L 203.202604 -172.106342 
L 213.309375 -171.861088 
L 223.416146 -169.497311 
L 233.522917 -167.74402 
L 243.629687 -168.12343 
L 253.736458 -172.389725 
L 263.843229 -175.13795 
L 273.95 -175.115068 
L 284.056771 -174.438227 
L 294.163542 -173.939152 
L 304.270312 -169.44873 
L 314.377083 -167.024707 
L 324.483854 -167.884876 
L 334.590625 -174.092893 
L 344.697396 -177.119227 
L 354.804167 -177.101005 
L 364.910937 -176.364816 
L 375.017708 -176.135816 
L 385.124479 -171.150276 
L 395.23125 -168.771814 
L 405.338021 -169.134993 
L 415.444792 -175.069592 
L 425.551562 -178.60459 
L 435.658333 -177.630473 
L 445.765104 -176.754782 
L 455.871875 -175.289779 
L 465.978646 -170.943068 
L 476.085417 -167.728676 
L 486.192187 -168.446333 
L 496.298958 -175.024061 
L 506.405729 -179.920232 
L 516.5125 -178.458568 
L 526.619271 -177.513606 
L 536.726042 -176.210802 
L 546.832812 -172.432678 
L 546.832812 -172.432678 
L 546.832812 -172.432678 
L 536.726042 -191.127961 
L 526.619271 -192.063618 
L 516.5125 -192.222059 
L 506.405729 -198.063696 
L 496.298958 -178.651045 
L 486.192187 -168.446333 
L 476.085417 -167.728676 
L 465.978646 -170.943068 
L 455.871875 -190.71321 
L 445.765104 -191.730149 
L 435.658333 -191.877946 
L 425.551562 -197.850283 
L 415.444792 -177.5818 
L 405.338021 -169.134993 
L 395.23125 -168.771814 
L 385.124479 -171.150276 
L 375.017708 -190.341737 
L 364.910937 -190.714745 
L 354.804167 -192.549981 
L 344.697396 -198.044813 
L 334.590625 -179.060676 
L 324.483854 -167.884876 
L 314.377083 -167.024707 
L 304.270312 -169.44873 
L 294.163542 -190.619892 
L 284.056771 -191.147969 
L 273.95 -192.490131 
L 263.843229 -198.050564 
L 253.736458 -177.288375 
L 243.629687 -168.12343 
L 233.522917 -167.74402 
L 223.416146 -169.497311 
L 213.309375 -190.594367 
L 203.202604 -191.275935 
L 193.095833 -192.833928 
L 182.989062 -198.11465 
L 172.882292 -177.834257 
L 162.775521 -169.010759 
L 152.66875 -168.791469 
L 142.561979 -170.503501 
L 132.455208 -190.616413 
L 122.348437 -191.20283 
L 112.241667 -192.567874 
L 102.134896 -198.093822 
L 92.028125 -178.431229 
L 81.921354 -169.377643 
L 71.814583 -168.998878 
L 61.707812 -171.307612 
z
" style="stroke: #b8ea04"/>
    </defs>
    <g clip-path="url(#pee5b209b04)">
     <use xlink:href="#meda68e5bd4" x="0" y="267.987025" style="fill: #b8ea04; stroke: #b8ea04"/>
    </g>
   </g>
   <g id="PolyCollection_7">
    <defs>
     <path id="mbbc9693e98" d="M 61.707812 -199.235633 
L 61.707812 -171.307612 
L 71.814583 -168.998878 
L 81.921354 -169.377643 
L 92.028125 -178.431229 
L 102.134896 -198.093822 
L 112.241667 -192.567874 
L 122.348437 -191.20283 
L 132.455208 -190.616413 
L 142.561979 -170.503501 
L 152.66875 -168.791469 
L 162.775521 -169.010759 
L 172.882292 -177.834257 
L 182.989062 -198.11465 
L 193.095833 -192.833928 
L 203.202604 -191.275935 
L 213.309375 -190.594367 
L 223.416146 -169.497311 
L 233.522917 -167.74402 
L 243.629687 -168.12343 
L 253.736458 -177.288375 
L 263.843229 -198.050564 
L 273.95 -192.490131 
L 284.056771 -191.147969 
L 294.163542 -190.619892 
L 304.270312 -169.44873 
L 314.377083 -167.024707 
L 324.483854 -167.884876 
L 334.590625 -179.060676 
L 344.697396 -198.044813 
L 354.804167 -192.549981 
L 364.910937 -190.714745 
L 375.017708 -190.341737 
L 385.124479 -171.150276 
L 395.23125 -168.771814 
L 405.338021 -169.134993 
L 415.444792 -177.5818 
L 425.551562 -197.850283 
L 435.658333 -191.877946 
L 445.765104 -191.730149 
L 455.871875 -190.71321 
L 465.978646 -170.943068 
L 476.085417 -167.728676 
L 486.192187 -168.446333 
L 496.298958 -178.651045 
L 506.405729 -198.063696 
L 516.5125 -192.222059 
L 526.619271 -192.063618 
L 536.726042 -191.127961 
L 546.832812 -172.432678 
L 546.832812 -204.425987 
L 546.832812 -204.425987 
L 536.726042 -191.791107 
L 526.619271 -192.063618 
L 516.5125 -192.222059 
L 506.405729 -198.06477 
L 496.298958 -197.81756 
L 486.192187 -230.514254 
L 476.085417 -234.196589 
L 465.978646 -200.967069 
L 455.871875 -191.290973 
L 445.765104 -191.730149 
L 435.658333 -191.877946 
L 425.551562 -197.851248 
L 415.444792 -197.387041 
L 405.338021 -230.904806 
L 395.23125 -233.585398 
L 385.124479 -199.815369 
L 375.017708 -190.86258 
L 364.910937 -190.714745 
L 354.804167 -192.549981 
L 344.697396 -198.045746 
L 334.590625 -198.047401 
L 324.483854 -228.830255 
L 314.377083 -232.237481 
L 304.270312 -197.963759 
L 294.163542 -191.085864 
L 284.056771 -191.147969 
L 273.95 -192.490131 
L 263.843229 -198.051791 
L 253.736458 -198.155962 
L 243.629687 -234.127357 
L 233.522917 -237.216405 
L 223.416146 -199.483639 
L 213.309375 -191.053187 
L 203.202604 -191.275935 
L 193.095833 -192.833928 
L 182.989062 -198.116629 
L 172.882292 -198.086871 
L 162.775521 -234.193619 
L 152.66875 -237.53487 
L 142.561979 -199.868528 
L 132.455208 -191.131304 
L 122.348437 -191.20283 
L 112.241667 -192.567874 
L 102.134896 -198.095648 
L 92.028125 -198.421179 
L 81.921354 -232.844118 
L 71.814583 -232.96389 
L 61.707812 -199.235633 
z
" style="stroke: #f9d002"/>
    </defs>
    <g clip-path="url(#pee5b209b04)">
     <use xlink:href="#mbbc9693e98" x="0" y="267.987025" style="fill: #f9d002; stroke: #f9d002"/>
    </g>
   </g>
   <g id="matplotlib.axis_1">
    <g id="xtick_1">
     <g id="line2d_1">
      <defs>
       <path id="m7d91a98d09" d="M 0 0 
L 0 3.5 
" style="stroke: #000000; stroke-width: 0.8"/>
      </defs>
      <g>
       <use xlink:href="#m7d91a98d09" x="61.707812" y="156.936" style="stroke: #000000; stroke-width: 0.8"/>
      </g>
     </g>
     <g id="text_1">
      <!-- 01 -->
      <g transform="translate(55.345312 171.534438) scale(0.1 -0.1)">
       <defs>
        <path id="DejaVuSans-30" d="M 2034 4250 
Q 1547 4250 1301 3770 
Q 1056 3291 1056 2328 
Q 1056 1369 1301 889 
Q 1547 409 2034 409 
Q 2525 409 2770 889 
Q 3016 1369 3016 2328 
Q 3016 3291 2770 3770 
Q 2525 4250 2034 4250 
z
M 2034 4750 
Q 2819 4750 3233 4129 
Q 3647 3509 3647 2328 
Q 3647 1150 3233 529 
Q 2819 -91 2034 -91 
Q 1250 -91 836 529 
Q 422 1150 422 2328 
Q 422 3509 836 4129 
Q 1250 4750 2034 4750 
z
" transform="scale(0.015625)"/>
        <path id="DejaVuSans-31" d="M 794 531 
L 1825 531 
L 1825 4091 
L 703 3866 
L 703 4441 
L 1819 4666 
L 2450 4666 
L 2450 531 
L 3481 531 
L 3481 0 
L 794 0 
L 794 531 
z
" transform="scale(0.015625)"/>
       </defs>
       <use xlink:href="#DejaVuSans-30"/>
       <use xlink:href="#DejaVuSans-31" x="63.623047"/>
      </g>
      <!-- May -->
      <g transform="translate(51.370312 182.73225) scale(0.1 -0.1)">
       <defs>
        <path id="DejaVuSans-4d" d="M 628 4666 
L 1569 4666 
L 2759 1491 
L 3956 4666 
L 4897 4666 
L 4897 0 
L 4281 0 
L 4281 4097 
L 3078 897 
L 2444 897 
L 1241 4097 
L 1241 0 
L 628 0 
L 628 4666 
z
" transform="scale(0.015625)"/>
        <path id="DejaVuSans-61" d="M 2194 1759 
Q 1497 1759 1228 1600 
Q 959 1441 959 1056 
Q 959 750 1161 570 
Q 1363 391 1709 391 
Q 2188 391 2477 730 
Q 2766 1069 2766 1631 
L 2766 1759 
L 2194 1759 
z
M 3341 1997 
L 3341 0 
L 2766 0 
L 2766 531 
Q 2569 213 2275 61 
Q 1981 -91 1556 -91 
Q 1019 -91 701 211 
Q 384 513 384 1019 
Q 384 1609 779 1909 
Q 1175 2209 1959 2209 
L 2766 2209 
L 2766 2266 
Q 2766 2663 2505 2880 
Q 2244 3097 1772 3097 
Q 1472 3097 1187 3025 
Q 903 2953 641 2809 
L 641 3341 
Q 956 3463 1253 3523 
Q 1550 3584 1831 3584 
Q 2591 3584 2966 3190 
Q 3341 2797 3341 1997 
z
" transform="scale(0.015625)"/>
        <path id="DejaVuSans-79" d="M 2059 -325 
Q 1816 -950 1584 -1140 
Q 1353 -1331 966 -1331 
L 506 -1331 
L 506 -850 
L 844 -850 
Q 1081 -850 1212 -737 
Q 1344 -625 1503 -206 
L 1606 56 
L 191 3500 
L 800 3500 
L 1894 763 
L 2988 3500 
L 3597 3500 
L 2059 -325 
z
" transform="scale(0.015625)"/>
       </defs>
       <use xlink:href="#DejaVuSans-4d"/>
       <use xlink:href="#DejaVuSans-61" x="86.279297"/>
       <use xlink:href="#DejaVuSans-79" x="147.558594"/>
      </g>
      <!-- 2018 -->
      <g transform="translate(48.982812 193.930063) scale(0.1 -0.1)">
       <defs>
        <path id="DejaVuSans-32" d="M 1228 531 
L 3431 531 
L 3431 0 
L 469 0 
L 469 531 
Q 828 903 1448 1529 
Q 2069 2156 2228 2338 
Q 2531 2678 2651 2914 
Q 2772 3150 2772 3378 
Q 2772 3750 2511 3984 
Q 2250 4219 1831 4219 
Q 1534 4219 1204 4116 
Q 875 4013 500 3803 
L 500 4441 
Q 881 4594 1212 4672 
Q 1544 4750 1819 4750 
Q 2544 4750 2975 4387 
Q 3406 4025 3406 3419 
Q 3406 3131 3298 2873 
Q 3191 2616 2906 2266 
Q 2828 2175 2409 1742 
Q 1991 1309 1228 531 
z
" transform="scale(0.015625)"/>
        <path id="DejaVuSans-38" d="M 2034 2216 
Q 1584 2216 1326 1975 
Q 1069 1734 1069 1313 
Q 1069 891 1326 650 
Q 1584 409 2034 409 
Q 2484 409 2743 651 
Q 3003 894 3003 1313 
Q 3003 1734 2745 1975 
Q 2488 2216 2034 2216 
z
M 1403 2484 
Q 997 2584 770 2862 
Q 544 3141 544 3541 
Q 544 4100 942 4425 
Q 1341 4750 2034 4750 
Q 2731 4750 3128 4425 
Q 3525 4100 3525 3541 
Q 3525 3141 3298 2862 
Q 3072 2584 2669 2484 
Q 3125 2378 3379 2068 
Q 3634 1759 3634 1313 
Q 3634 634 3220 271 
Q 2806 -91 2034 -91 
Q 1263 -91 848 271 
Q 434 634 434 1313 
Q 434 1759 690 2068 
Q 947 2378 1403 2484 
z
M 1172 3481 
Q 1172 3119 1398 2916 
Q 1625 2713 2034 2713 
Q 2441 2713 2670 2916 
Q 2900 3119 2900 3481 
Q 2900 3844 2670 4047 
Q 2441 4250 2034 4250 
Q 1625 4250 1398 4047 
Q 1172 3844 1172 3481 
z
" transform="scale(0.015625)"/>
       </defs>
       <use xlink:href="#DejaVuSans-32"/>
       <use xlink:href="#DejaVuSans-30" x="63.623047"/>
       <use xlink:href="#DejaVuSans-31" x="127.246094"/>
       <use xlink:href="#DejaVuSans-38" x="190.869141"/>
      </g>
     </g>
    </g>
    <g id="xtick_2">
     <g id="line2d_2">
      <g>
       <use xlink:href="#m7d91a98d09" x="546.832812" y="156.936" style="stroke: #000000; stroke-width: 0.8"/>
      </g>
     </g>
     <g id="text_2">
      <!-- 07 -->
      <g transform="translate(540.470312 171.534438) scale(0.1 -0.1)">
       <defs>
        <path id="DejaVuSans-37" d="M 525 4666 
L 3525 4666 
L 3525 4397 
L 1831 0 
L 1172 0 
L 2766 4134 
L 525 4134 
L 525 4666 
z
" transform="scale(0.015625)"/>
       </defs>
       <use xlink:href="#DejaVuSans-30"/>
       <use xlink:href="#DejaVuSans-37" x="63.623047"/>
      </g>
     </g>
    </g>
    <g id="xtick_3">
     <g id="line2d_3">
      <defs>
       <path id="m8a997e2db5" d="M 0 0 
L 0 2 
" style="stroke: #000000; stroke-width: 0.6"/>
      </defs>
      <g>
       <use xlink:href="#m8a997e2db5" x="142.561979" y="156.936" style="stroke: #000000; stroke-width: 0.6"/>
      </g>
     </g>
     <g id="text_3">
      <!-- 02 -->
      <g transform="translate(136.199479 169.934438) scale(0.1 -0.1)">
       <use xlink:href="#DejaVuSans-30"/>
       <use xlink:href="#DejaVuSans-32" x="63.623047"/>
      </g>
     </g>
    </g>
    <g id="xtick_4">
     <g id="line2d_4">
      <g>
       <use xlink:href="#m8a997e2db5" x="223.416146" y="156.936" style="stroke: #000000; stroke-width: 0.6"/>
      </g>
     </g>
     <g id="text_4">
      <!-- 03 -->
      <g transform="translate(217.053646 169.934438) scale(0.1 -0.1)">
       <defs>
        <path id="DejaVuSans-33" d="M 2597 2516 
Q 3050 2419 3304 2112 
Q 3559 1806 3559 1356 
Q 3559 666 3084 287 
Q 2609 -91 1734 -91 
Q 1441 -91 1130 -33 
Q 819 25 488 141 
L 488 750 
Q 750 597 1062 519 
Q 1375 441 1716 441 
Q 2309 441 2620 675 
Q 2931 909 2931 1356 
Q 2931 1769 2642 2001 
Q 2353 2234 1838 2234 
L 1294 2234 
L 1294 2753 
L 1863 2753 
Q 2328 2753 2575 2939 
Q 2822 3125 2822 3475 
Q 2822 3834 2567 4026 
Q 2313 4219 1838 4219 
Q 1578 4219 1281 4162 
Q 984 4106 628 3988 
L 628 4550 
Q 988 4650 1302 4700 
Q 1616 4750 1894 4750 
Q 2613 4750 3031 4423 
Q 3450 4097 3450 3541 
Q 3450 3153 3228 2886 
Q 3006 2619 2597 2516 
z
" transform="scale(0.015625)"/>
       </defs>
       <use xlink:href="#DejaVuSans-30"/>
       <use xlink:href="#DejaVuSans-33" x="63.623047"/>
      </g>
     </g>
    </g>
    <g id="xtick_5">
     <g id="line2d_5">
      <g>
       <use xlink:href="#m8a997e2db5" x="304.270312" y="156.936" style="stroke: #000000; stroke-width: 0.6"/>
      </g>
     </g>
     <g id="text_5">
      <!-- 04 -->
      <g transform="translate(297.907812 169.934438) scale(0.1 -0.1)">
       <defs>
        <path id="DejaVuSans-34" d="M 2419 4116 
L 825 1625 
L 2419 1625 
L 2419 4116 
z
M 2253 4666 
L 3047 4666 
L 3047 1625 
L 3713 1625 
L 3713 1100 
L 3047 1100 
L 3047 0 
L 2419 0 
L 2419 1100 
L 313 1100 
L 313 1709 
L 2253 4666 
z
" transform="scale(0.015625)"/>
       </defs>
       <use xlink:href="#DejaVuSans-30"/>
       <use xlink:href="#DejaVuSans-34" x="63.623047"/>
      </g>
     </g>
    </g>
    <g id="xtick_6">
     <g id="line2d_6">
      <g>
       <use xlink:href="#m8a997e2db5" x="385.124479" y="156.936" style="stroke: #000000; stroke-width: 0.6"/>
      </g>
     </g>
     <g id="text_6">
      <!-- 05 -->
      <g transform="translate(378.761979 169.934438) scale(0.1 -0.1)">
       <defs>
        <path id="DejaVuSans-35" d="M 691 4666 
L 3169 4666 
L 3169 4134 
L 1269 4134 
L 1269 2991 
Q 1406 3038 1543 3061 
Q 1681 3084 1819 3084 
Q 2600 3084 3056 2656 
Q 3513 2228 3513 1497 
Q 3513 744 3044 326 
Q 2575 -91 1722 -91 
Q 1428 -91 1123 -41 
Q 819 9 494 109 
L 494 744 
Q 775 591 1075 516 
Q 1375 441 1709 441 
Q 2250 441 2565 725 
Q 2881 1009 2881 1497 
Q 2881 1984 2565 2268 
Q 2250 2553 1709 2553 
Q 1456 2553 1204 2497 
Q 953 2441 691 2322 
L 691 4666 
z
" transform="scale(0.015625)"/>
       </defs>
       <use xlink:href="#DejaVuSans-30"/>
       <use xlink:href="#DejaVuSans-35" x="63.623047"/>
      </g>
     </g>
    </g>
    <g id="xtick_7">
     <g id="line2d_7">
      <g>
       <use xlink:href="#m8a997e2db5" x="465.978646" y="156.936" style="stroke: #000000; stroke-width: 0.6"/>
      </g>
     </g>
     <g id="text_7">
      <!-- 06 -->
      <g transform="translate(459.616146 169.934438) scale(0.1 -0.1)">
       <defs>
        <path id="DejaVuSans-36" d="M 2113 2584 
Q 1688 2584 1439 2293 
Q 1191 2003 1191 1497 
Q 1191 994 1439 701 
Q 1688 409 2113 409 
Q 2538 409 2786 701 
Q 3034 994 3034 1497 
Q 3034 2003 2786 2293 
Q 2538 2584 2113 2584 
z
M 3366 4563 
L 3366 3988 
Q 3128 4100 2886 4159 
Q 2644 4219 2406 4219 
Q 1781 4219 1451 3797 
Q 1122 3375 1075 2522 
Q 1259 2794 1537 2939 
Q 1816 3084 2150 3084 
Q 2853 3084 3261 2657 
Q 3669 2231 3669 1497 
Q 3669 778 3244 343 
Q 2819 -91 2113 -91 
Q 1303 -91 875 529 
Q 447 1150 447 2328 
Q 447 3434 972 4092 
Q 1497 4750 2381 4750 
Q 2619 4750 2861 4703 
Q 3103 4656 3366 4563 
z
" transform="scale(0.015625)"/>
       </defs>
       <use xlink:href="#DejaVuSans-30"/>
       <use xlink:href="#DejaVuSans-36" x="63.623047"/>
      </g>
     </g>
    </g>
   </g>
   <g id="matplotlib.axis_2">
    <g id="ytick_1">
     <g id="line2d_8">
      <path d="M 61.707813 148.617333 
L 546.832812 148.617333 
" clip-path="url(#pee5b209b04)" style="fill: none; stroke: #b0b0b0; stroke-width: 0.8; stroke-linecap: square"/>
     </g>
     <g id="line2d_9">
      <defs>
       <path id="m13180f9ee1" d="M 0 0 
L -3.5 0 
" style="stroke: #000000; stroke-width: 0.8"/>
      </defs>
      <g>
       <use xlink:href="#m13180f9ee1" x="61.707813" y="148.617333" style="stroke: #000000; stroke-width: 0.8"/>
      </g>
     </g>
     <g id="text_8">
      <!-- −1000 -->
      <g transform="translate(20.878125 152.416552) scale(0.1 -0.1)">
       <defs>
        <path id="DejaVuSans-2212" d="M 678 2272 
L 4684 2272 
L 4684 1741 
L 678 1741 
L 678 2272 
z
" transform="scale(0.015625)"/>
       </defs>
       <use xlink:href="#DejaVuSans-2212"/>
       <use xlink:href="#DejaVuSans-31" x="83.789062"/>
       <use xlink:href="#DejaVuSans-30" x="147.412109"/>
       <use xlink:href="#DejaVuSans-30" x="211.035156"/>
       <use xlink:href="#DejaVuSans-30" x="274.658203"/>
      </g>
     </g>
    </g>
    <g id="ytick_2">
     <g id="line2d_10">
      <path d="M 61.707813 107.024 
L 546.832812 107.024 
" clip-path="url(#pee5b209b04)" style="fill: none; stroke: #b0b0b0; stroke-width: 0.8; stroke-linecap: square"/>
     </g>
     <g id="line2d_11">
      <g>
       <use xlink:href="#m13180f9ee1" x="61.707813" y="107.024" style="stroke: #000000; stroke-width: 0.8"/>
      </g>
     </g>
     <g id="text_9">
      <!-- 0 -->
      <g transform="translate(48.345313 110.823219) scale(0.1 -0.1)">
       <use xlink:href="#DejaVuSans-30"/>
      </g>
     </g>
    </g>
    <g id="ytick_3">
     <g id="line2d_12">
      <path d="M 61.707813 65.430667 
L 546.832812 65.430667 
" clip-path="url(#pee5b209b04)" style="fill: none; stroke: #b0b0b0; stroke-width: 0.8; stroke-linecap: square"/>
     </g>
     <g id="line2d_13">
      <g>
       <use xlink:href="#m13180f9ee1" x="61.707813" y="65.430667" style="stroke: #000000; stroke-width: 0.8"/>
      </g>
     </g>
     <g id="text_10">
      <!-- 1000 -->
      <g transform="translate(29.257812 69.229885) scale(0.1 -0.1)">
       <use xlink:href="#DejaVuSans-31"/>
       <use xlink:href="#DejaVuSans-30" x="63.623047"/>
       <use xlink:href="#DejaVuSans-30" x="127.246094"/>
       <use xlink:href="#DejaVuSans-30" x="190.869141"/>
      </g>
     </g>
    </g>
    <g id="ytick_4">
     <g id="line2d_14">
      <path d="M 61.707813 23.837333 
L 546.832812 23.837333 
" clip-path="url(#pee5b209b04)" style="fill: none; stroke: #b0b0b0; stroke-width: 0.8; stroke-linecap: square"/>
     </g>
     <g id="line2d_15">
      <g>
       <use xlink:href="#m13180f9ee1" x="61.707813" y="23.837333" style="stroke: #000000; stroke-width: 0.8"/>
      </g>
     </g>
     <g id="text_11">
      <!-- 2000 -->
      <g transform="translate(29.257812 27.636552) scale(0.1 -0.1)">
       <use xlink:href="#DejaVuSans-32"/>
       <use xlink:href="#DejaVuSans-30" x="63.623047"/>
       <use xlink:href="#DejaVuSans-30" x="127.246094"/>
       <use xlink:href="#DejaVuSans-30" x="190.869141"/>
      </g>
     </g>
    </g>
    <g id="text_12">
     <!-- Energy Balance [MW] -->
     <g transform="translate(14.798438 135.853938) rotate(-90) scale(0.1 -0.1)">
      <defs>
       <path id="DejaVuSans-45" d="M 628 4666 
L 3578 4666 
L 3578 4134 
L 1259 4134 
L 1259 2753 
L 3481 2753 
L 3481 2222 
L 1259 2222 
L 1259 531 
L 3634 531 
L 3634 0 
L 628 0 
L 628 4666 
z
" transform="scale(0.015625)"/>
       <path id="DejaVuSans-6e" d="M 3513 2113 
L 3513 0 
L 2938 0 
L 2938 2094 
Q 2938 2591 2744 2837 
Q 2550 3084 2163 3084 
Q 1697 3084 1428 2787 
Q 1159 2491 1159 1978 
L 1159 0 
L 581 0 
L 581 3500 
L 1159 3500 
L 1159 2956 
Q 1366 3272 1645 3428 
Q 1925 3584 2291 3584 
Q 2894 3584 3203 3211 
Q 3513 2838 3513 2113 
z
" transform="scale(0.015625)"/>
       <path id="DejaVuSans-65" d="M 3597 1894 
L 3597 1613 
L 953 1613 
Q 991 1019 1311 708 
Q 1631 397 2203 397 
Q 2534 397 2845 478 
Q 3156 559 3463 722 
L 3463 178 
Q 3153 47 2828 -22 
Q 2503 -91 2169 -91 
Q 1331 -91 842 396 
Q 353 884 353 1716 
Q 353 2575 817 3079 
Q 1281 3584 2069 3584 
Q 2775 3584 3186 3129 
Q 3597 2675 3597 1894 
z
M 3022 2063 
Q 3016 2534 2758 2815 
Q 2500 3097 2075 3097 
Q 1594 3097 1305 2825 
Q 1016 2553 972 2059 
L 3022 2063 
z
" transform="scale(0.015625)"/>
       <path id="DejaVuSans-72" d="M 2631 2963 
Q 2534 3019 2420 3045 
Q 2306 3072 2169 3072 
Q 1681 3072 1420 2755 
Q 1159 2438 1159 1844 
L 1159 0 
L 581 0 
L 581 3500 
L 1159 3500 
L 1159 2956 
Q 1341 3275 1631 3429 
Q 1922 3584 2338 3584 
Q 2397 3584 2469 3576 
Q 2541 3569 2628 3553 
L 2631 2963 
z
" transform="scale(0.015625)"/>
       <path id="DejaVuSans-67" d="M 2906 1791 
Q 2906 2416 2648 2759 
Q 2391 3103 1925 3103 
Q 1463 3103 1205 2759 
Q 947 2416 947 1791 
Q 947 1169 1205 825 
Q 1463 481 1925 481 
Q 2391 481 2648 825 
Q 2906 1169 2906 1791 
z
M 3481 434 
Q 3481 -459 3084 -895 
Q 2688 -1331 1869 -1331 
Q 1566 -1331 1297 -1286 
Q 1028 -1241 775 -1147 
L 775 -588 
Q 1028 -725 1275 -790 
Q 1522 -856 1778 -856 
Q 2344 -856 2625 -561 
Q 2906 -266 2906 331 
L 2906 616 
Q 2728 306 2450 153 
Q 2172 0 1784 0 
Q 1141 0 747 490 
Q 353 981 353 1791 
Q 353 2603 747 3093 
Q 1141 3584 1784 3584 
Q 2172 3584 2450 3431 
Q 2728 3278 2906 2969 
L 2906 3500 
L 3481 3500 
L 3481 434 
z
" transform="scale(0.015625)"/>
       <path id="DejaVuSans-20" transform="scale(0.015625)"/>
       <path id="DejaVuSans-42" d="M 1259 2228 
L 1259 519 
L 2272 519 
Q 2781 519 3026 730 
Q 3272 941 3272 1375 
Q 3272 1813 3026 2020 
Q 2781 2228 2272 2228 
L 1259 2228 
z
M 1259 4147 
L 1259 2741 
L 2194 2741 
Q 2656 2741 2882 2914 
Q 3109 3088 3109 3444 
Q 3109 3797 2882 3972 
Q 2656 4147 2194 4147 
L 1259 4147 
z
M 628 4666 
L 2241 4666 
Q 2963 4666 3353 4366 
Q 3744 4066 3744 3513 
Q 3744 3084 3544 2831 
Q 3344 2578 2956 2516 
Q 3422 2416 3680 2098 
Q 3938 1781 3938 1306 
Q 3938 681 3513 340 
Q 3088 0 2303 0 
L 628 0 
L 628 4666 
z
" transform="scale(0.015625)"/>
       <path id="DejaVuSans-6c" d="M 603 4863 
L 1178 4863 
L 1178 0 
L 603 0 
L 603 4863 
z
" transform="scale(0.015625)"/>
       <path id="DejaVuSans-63" d="M 3122 3366 
L 3122 2828 
Q 2878 2963 2633 3030 
Q 2388 3097 2138 3097 
Q 1578 3097 1268 2742 
Q 959 2388 959 1747 
Q 959 1106 1268 751 
Q 1578 397 2138 397 
Q 2388 397 2633 464 
Q 2878 531 3122 666 
L 3122 134 
Q 2881 22 2623 -34 
Q 2366 -91 2075 -91 
Q 1284 -91 818 406 
Q 353 903 353 1747 
Q 353 2603 823 3093 
Q 1294 3584 2113 3584 
Q 2378 3584 2631 3529 
Q 2884 3475 3122 3366 
z
" transform="scale(0.015625)"/>
       <path id="DejaVuSans-5b" d="M 550 4863 
L 1875 4863 
L 1875 4416 
L 1125 4416 
L 1125 -397 
L 1875 -397 
L 1875 -844 
L 550 -844 
L 550 4863 
z
" transform="scale(0.015625)"/>
       <path id="DejaVuSans-57" d="M 213 4666 
L 850 4666 
L 1831 722 
L 2809 4666 
L 3519 4666 
L 4500 722 
L 5478 4666 
L 6119 4666 
L 4947 0 
L 4153 0 
L 3169 4050 
L 2175 0 
L 1381 0 
L 213 4666 
z
" transform="scale(0.015625)"/>
       <path id="DejaVuSans-5d" d="M 1947 4863 
L 1947 -844 
L 622 -844 
L 622 -397 
L 1369 -397 
L 1369 4416 
L 622 4416 
L 622 4863 
L 1947 4863 
z
" transform="scale(0.015625)"/>
      </defs>
      <use xlink:href="#DejaVuSans-45"/>
      <use xlink:href="#DejaVuSans-6e" x="63.183594"/>
      <use xlink:href="#DejaVuSans-65" x="126.5625"/>
      <use xlink:href="#DejaVuSans-72" x="188.085938"/>
      <use xlink:href="#DejaVuSans-67" x="227.449219"/>
      <use xlink:href="#DejaVuSans-79" x="290.925781"/>
      <use xlink:href="#DejaVuSans-20" x="350.105469"/>
      <use xlink:href="#DejaVuSans-42" x="381.892578"/>
      <use xlink:href="#DejaVuSans-61" x="450.496094"/>
      <use xlink:href="#DejaVuSans-6c" x="511.775391"/>
      <use xlink:href="#DejaVuSans-61" x="539.558594"/>
      <use xlink:href="#DejaVuSans-6e" x="600.837891"/>
      <use xlink:href="#DejaVuSans-63" x="664.216797"/>
      <use xlink:href="#DejaVuSans-65" x="719.197266"/>
      <use xlink:href="#DejaVuSans-20" x="780.720703"/>
      <use xlink:href="#DejaVuSans-5b" x="812.507812"/>
      <use xlink:href="#DejaVuSans-4d" x="851.521484"/>
      <use xlink:href="#DejaVuSans-57" x="937.800781"/>
      <use xlink:href="#DejaVuSans-5d" x="1036.677734"/>
     </g>
    </g>
   </g>
   <g id="line2d_16">
    <path d="M 61.707812 111.438581 
L 71.814583 140.069924 
L 81.921354 139.472072 
L 92.028125 107.024 
L 102.134896 107.024 
L 112.241667 107.024 
L 122.348437 107.024 
L 132.455208 107.024 
L 142.561979 112.290868 
L 152.66875 145.081471 
L 162.775521 141.485339 
L 172.882292 107.024 
L 182.989062 107.024 
L 193.095833 107.024 
L 203.202604 107.024 
L 213.309375 107.024 
L 223.416146 112.122392 
L 233.522917 144.985464 
L 243.629687 141.63636 
L 253.736458 107.024 
L 263.843229 107.024 
L 273.95 107.024 
L 284.056771 107.024 
L 294.163542 107.024 
L 304.270312 110.252303 
L 314.377083 140.084024 
L 324.483854 136.652932 
L 334.590625 107.024 
L 344.697396 107.024 
L 354.804167 107.024 
L 364.910937 107.024 
L 375.017708 107.024 
L 385.124479 112.987892 
L 395.23125 142.650633 
L 405.338021 139.79666 
L 415.444792 107.024 
L 425.551562 107.024 
L 435.658333 107.024 
L 445.765104 107.024 
L 455.871875 107.024 
L 465.978646 113.679206 
L 476.085417 142.715379 
L 486.192187 139.024445 
L 496.298958 107.024 
L 506.405729 107.024 
L 516.5125 107.024 
L 526.619271 107.024 
L 536.726042 107.024 
L 546.832812 115.800812 
" clip-path="url(#pee5b209b04)" style="fill: none; stroke: #b8ea04; stroke-width: 1.5; stroke-linecap: square"/>
   </g>
   <g id="line2d_17">
    <path d="M 61.707812 104.711141 
L 71.814583 104.738725 
L 81.921354 104.739541 
L 92.028125 104.703538 
L 102.134896 104.698882 
L 112.241667 104.70087 
L 122.348437 104.701118 
L 132.455208 104.701269 
L 142.561979 104.709753 
L 152.66875 104.719096 
L 162.775521 104.71946 
L 172.882292 104.700157 
L 182.989062 104.698372 
L 193.095833 104.700315 
L 203.202604 104.700613 
L 213.309375 104.700761 
L 223.416146 104.711458 
L 233.522917 104.803629 
L 243.629687 104.757786 
L 253.736458 104.714712 
L 263.843229 104.711585 
L 273.95 104.714535 
L 284.056771 104.715008 
L 294.163542 104.71514 
L 304.270312 104.724972 
L 314.377083 104.760917 
L 324.483854 104.764177 
L 334.590625 104.73104 
L 344.697396 104.718784 
L 354.804167 104.722441 
L 364.910937 104.723326 
L 375.017708 104.724004 
L 385.124479 104.792096 
L 395.23125 104.84185 
L 405.338021 104.840796 
L 415.444792 104.794522 
L 425.551562 104.774861 
L 435.658333 104.779888 
L 445.765104 104.780242 
L 455.871875 104.780427 
L 465.978646 104.861385 
L 476.085417 104.936424 
L 486.192187 104.932485 
L 496.298958 104.853075 
L 506.405729 104.834177 
L 516.5125 104.838592 
L 526.619271 104.838245 
L 536.726042 104.838253 
L 546.832812 104.859271 
" clip-path="url(#pee5b209b04)" style="fill: none; stroke: #4adbc8; stroke-width: 1.5; stroke-linecap: square"/>
   </g>
   <g id="line2d_18">
    <path d="M 61.707812 99.577408 
L 71.814583 100.570681 
L 81.921354 100.312381 
L 92.028125 97.146149 
L 102.134896 95.732798 
L 112.241667 97.090619 
L 122.348437 97.793066 
L 132.455208 97.689234 
L 142.561979 99.722009 
L 152.66875 100.611488 
L 162.775521 100.361664 
L 172.882292 98.678723 
L 182.989062 97.974969 
L 193.095833 98.828681 
L 203.202604 99.559605 
L 213.309375 99.460043 
L 223.416146 99.910658 
L 233.522917 101.212005 
L 243.629687 101.005221 
L 253.736458 98.863608 
L 263.843229 97.978433 
L 273.95 98.042393 
L 284.056771 98.478599 
L 294.163542 98.583593 
L 304.270312 100.283679 
L 314.377083 102.364671 
L 324.483854 101.889234 
L 334.590625 98.764651 
L 344.697396 97.248471 
L 354.804167 97.805826 
L 364.910937 98.316858 
L 375.017708 97.849408 
L 385.124479 99.699455 
L 395.23125 101.491899 
L 405.338021 101.323577 
L 415.444792 97.457663 
L 425.551562 96.041564 
L 435.658333 97.609254 
L 445.765104 97.742103 
L 455.871875 97.74297 
L 465.978646 99.827328 
L 476.085417 102.134729 
L 486.192187 101.567011 
L 496.298958 97.394269 
L 506.405729 95.797809 
L 516.5125 97.673024 
L 526.619271 98.095627 
L 536.726042 98.098534 
L 546.832812 100.188039 
" clip-path="url(#pee5b209b04)" style="fill: none; stroke: #6895dd; stroke-width: 1.5; stroke-linecap: square"/>
   </g>
   <g id="line2d_19">
    <path d="M 61.707812 97.836692 
L 71.814583 99.205331 
L 81.921354 98.826565 
L 92.028125 93.442686 
L 102.134896 90.779221 
L 112.241667 92.59446 
L 122.348437 93.769279 
L 132.455208 94.08411 
L 142.561979 97.727484 
L 152.66875 99.40933 
L 162.775521 99.190032 
L 172.882292 95.795059 
L 182.989062 93.922914 
L 193.095833 95.452719 
L 203.202604 97.152382 
L 213.309375 97.337496 
L 223.416146 98.776632 
L 233.522917 100.456678 
L 243.629687 100.077271 
L 253.736458 96.339206 
L 263.843229 93.971706 
L 273.95 93.980466 
L 284.056771 94.653016 
L 294.163542 95.150262 
L 304.270312 98.842557 
L 314.377083 101.176042 
L 324.483854 100.315874 
L 334.590625 94.519432 
L 344.697396 91.493826 
L 354.804167 91.481439 
L 364.910937 92.20146 
L 375.017708 92.426081 
L 385.124479 97.050428 
L 395.23125 99.428879 
L 405.338021 99.065712 
L 415.444792 93.131113 
L 425.551562 89.596114 
L 435.658333 90.570232 
L 445.765104 91.445923 
L 455.871875 92.910925 
L 465.978646 97.257636 
L 476.085417 100.472017 
L 486.192187 99.754372 
L 496.298958 93.236233 
L 506.405729 88.339498 
L 516.5125 89.798762 
L 526.619271 90.742793 
L 536.726042 92.046928 
L 546.832812 95.768036 
" clip-path="url(#pee5b209b04)" style="fill: none; stroke: #235ebc; stroke-width: 1.5; stroke-linecap: square"/>
   </g>
   <g id="line2d_20">
    <path d="M 61.707812 96.679413 
L 71.814583 98.988147 
L 81.921354 98.609382 
L 92.028125 91.807471 
L 102.134896 88.220412 
L 112.241667 90.035654 
L 122.348437 91.210479 
L 132.455208 91.52531 
L 142.561979 97.483524 
L 152.66875 99.195556 
L 162.775521 98.976266 
L 172.882292 94.976239 
L 182.989062 92.569124 
L 193.095833 94.186272 
L 203.202604 95.880683 
L 213.309375 96.125937 
L 223.416146 98.489714 
L 233.522917 100.243005 
L 243.629687 99.863595 
L 253.736458 95.5973 
L 263.843229 92.849075 
L 273.95 92.871957 
L 284.056771 93.548798 
L 294.163542 94.047873 
L 304.270312 98.538295 
L 314.377083 100.962318 
L 324.483854 100.102149 
L 334.590625 93.894132 
L 344.697396 90.867798 
L 354.804167 90.88602 
L 364.910937 91.622209 
L 375.017708 91.851209 
L 385.124479 96.836749 
L 395.23125 99.215211 
L 405.338021 98.852032 
L 415.444792 92.917433 
L 425.551562 89.382435 
L 435.658333 90.356552 
L 445.765104 91.232243 
L 455.871875 92.697246 
L 465.978646 97.043957 
L 476.085417 100.258349 
L 486.192187 99.540692 
L 496.298958 92.962964 
L 506.405729 88.066793 
L 516.5125 89.528457 
L 526.619271 90.473419 
L 536.726042 91.776223 
L 546.832812 95.554347 
" clip-path="url(#pee5b209b04)" style="fill: none; stroke: #b20101; stroke-width: 1.5; stroke-linecap: square"/>
   </g>
   <g id="line2d_21">
    <path d="M 61.707812 96.679413 
L 71.814583 98.988147 
L 81.921354 98.609382 
L 92.028125 89.555796 
L 102.134896 69.893203 
L 112.241667 75.419151 
L 122.348437 76.784195 
L 132.455208 77.370612 
L 142.561979 97.483524 
L 152.66875 99.195556 
L 162.775521 98.976266 
L 172.882292 90.152768 
L 182.989062 69.872375 
L 193.095833 75.153097 
L 203.202604 76.71109 
L 213.309375 77.392658 
L 223.416146 98.489714 
L 233.522917 100.243005 
L 243.629687 99.863595 
L 253.736458 90.69865 
L 263.843229 69.936461 
L 273.95 75.496894 
L 284.056771 76.839056 
L 294.163542 77.367133 
L 304.270312 98.538295 
L 314.377083 100.962318 
L 324.483854 100.102149 
L 334.590625 88.926349 
L 344.697396 69.942212 
L 354.804167 75.437044 
L 364.910937 77.27228 
L 375.017708 77.645288 
L 385.124479 96.836749 
L 395.23125 99.215211 
L 405.338021 98.852032 
L 415.444792 90.405225 
L 425.551562 70.136742 
L 435.658333 76.109079 
L 445.765104 76.256876 
L 455.871875 77.273815 
L 465.978646 97.043957 
L 476.085417 100.258349 
L 486.192187 99.540692 
L 496.298958 89.33598 
L 506.405729 69.923329 
L 516.5125 75.764966 
L 526.619271 75.923407 
L 536.726042 76.859064 
L 546.832812 95.554347 
" clip-path="url(#pee5b209b04)" style="fill: none; stroke: #b8ea04; stroke-width: 1.5; stroke-linecap: square"/>
   </g>
   <g id="line2d_22">
    <path d="M 61.707812 68.751392 
L 71.814583 35.023135 
L 81.921354 35.142907 
L 92.028125 69.565846 
L 102.134896 69.891377 
L 112.241667 75.419151 
L 122.348437 76.784195 
L 132.455208 76.855721 
L 142.561979 68.118497 
L 152.66875 30.452155 
L 162.775521 33.793406 
L 172.882292 69.900154 
L 182.989062 69.870396 
L 193.095833 75.153097 
L 203.202604 76.71109 
L 213.309375 76.933838 
L 223.416146 68.503386 
L 233.522917 30.77062 
L 243.629687 33.859668 
L 253.736458 69.831063 
L 263.843229 69.935234 
L 273.95 75.496894 
L 284.056771 76.839056 
L 294.163542 76.901161 
L 304.270312 70.023266 
L 314.377083 35.749544 
L 324.483854 39.15677 
L 334.590625 69.939624 
L 344.697396 69.941279 
L 354.804167 75.437044 
L 364.910937 77.27228 
L 375.017708 77.124445 
L 385.124479 68.171656 
L 395.23125 34.401627 
L 405.338021 37.082219 
L 415.444792 70.599984 
L 425.551562 70.135777 
L 435.658333 76.109079 
L 445.765104 76.256876 
L 455.871875 76.696052 
L 465.978646 67.019956 
L 476.085417 33.790436 
L 486.192187 37.472771 
L 496.298958 70.169465 
L 506.405729 69.922255 
L 516.5125 75.764966 
L 526.619271 75.923407 
L 536.726042 76.195918 
L 546.832812 63.561038 
" clip-path="url(#pee5b209b04)" style="fill: none; stroke: #f9d002; stroke-width: 1.5; stroke-linecap: square"/>
   </g>
   <g id="line2d_23">
    <path d="M 61.707812 73.673181 
L 71.814583 69.735441 
L 81.921354 69.238634 
L 92.028125 70.003306 
L 102.134896 70.891393 
L 112.241667 76.291132 
L 122.348437 77.634229 
L 132.455208 77.695072 
L 142.561979 73.90393 
L 152.66875 70.35239 
L 162.775521 69.947591 
L 172.882292 70.418946 
L 182.989062 71.035356 
L 193.095833 76.204783 
L 203.202604 77.770785 
L 213.309375 77.993512 
L 223.416146 74.160219 
L 233.522917 70.614724 
L 243.629687 70.219853 
L 253.736458 70.393045 
L 263.843229 71.115733 
L 273.95 76.505145 
L 284.056771 77.807191 
L 294.163542 77.884801 
L 304.270312 73.769855 
L 314.377083 70.495827 
L 324.483854 70.329158 
L 334.590625 70.471122 
L 344.697396 71.047475 
L 354.804167 76.349582 
L 364.910937 78.14725 
L 375.017708 77.999566 
L 385.124479 74.7864 
L 395.23125 71.847267 
L 405.338021 71.548447 
L 415.444792 71.188221 
L 425.551562 71.23177 
L 435.658333 77.038211 
L 445.765104 77.235289 
L 455.871875 77.687595 
L 465.978646 74.39828 
L 476.085417 71.323075 
L 486.192187 71.145193 
L 496.298958 70.824619 
L 506.405729 71.006039 
L 516.5125 76.705005 
L 526.619271 76.88039 
L 536.726042 77.160953 
L 546.832812 73.108907 
" clip-path="url(#pee5b209b04)" style="fill: none; stroke-dasharray: 5.55,2.4; stroke-dashoffset: 0; stroke: #000000; stroke-width: 1.5"/>
   </g>
   <g id="patch_3">
    <path d="M 61.707813 156.936 
L 61.707813 7.2 
" style="fill: none; stroke: #000000; stroke-width: 0.8; stroke-linejoin: miter; stroke-linecap: square"/>
   </g>
   <g id="patch_4">
    <path d="M 546.832812 156.936 
L 546.832812 7.2 
" style="fill: none; stroke: #000000; stroke-width: 0.8; stroke-linejoin: miter; stroke-linecap: square"/>
   </g>
   <g id="patch_5">
    <path d="M 61.707812 156.936 
L 546.832812 156.936 
" style="fill: none; stroke: #000000; stroke-width: 0.8; stroke-linejoin: miter; stroke-linecap: square"/>
   </g>
   <g id="patch_6">
    <path d="M 61.707812 7.2 
L 546.832812 7.2 
" style="fill: none; stroke: #000000; stroke-width: 0.8; stroke-linejoin: miter; stroke-linecap: square"/>
   </g>
   <g id="patch_7">
    <path d="M 284.556771 63.311937 
Q 284.556771 64.125438 284.556771 64.938939 
L 286.556771 64.938939 
Q 285.306771 70.939552 284.056771 76.940165 
Q 282.806771 70.939552 281.556771 64.938939 
L 283.556771 64.938939 
Q 283.556771 64.125438 283.556771 63.311937 
L 284.556771 63.311937 
z
" style="stroke: #000000; stroke-linecap: round"/>
   </g>
   <g id="text_13">
    <!-- Load/h -->
    <g transform="translate(267.207552 58.369961) scale(0.1 -0.1)">
     <defs>
      <path id="DejaVuSans-4c" d="M 628 4666 
L 1259 4666 
L 1259 531 
L 3531 531 
L 3531 0 
L 628 0 
L 628 4666 
z
" transform="scale(0.015625)"/>
      <path id="DejaVuSans-6f" d="M 1959 3097 
Q 1497 3097 1228 2736 
Q 959 2375 959 1747 
Q 959 1119 1226 758 
Q 1494 397 1959 397 
Q 2419 397 2687 759 
Q 2956 1122 2956 1747 
Q 2956 2369 2687 2733 
Q 2419 3097 1959 3097 
z
M 1959 3584 
Q 2709 3584 3137 3096 
Q 3566 2609 3566 1747 
Q 3566 888 3137 398 
Q 2709 -91 1959 -91 
Q 1206 -91 779 398 
Q 353 888 353 1747 
Q 353 2609 779 3096 
Q 1206 3584 1959 3584 
z
" transform="scale(0.015625)"/>
      <path id="DejaVuSans-64" d="M 2906 2969 
L 2906 4863 
L 3481 4863 
L 3481 0 
L 2906 0 
L 2906 525 
Q 2725 213 2448 61 
Q 2172 -91 1784 -91 
Q 1150 -91 751 415 
Q 353 922 353 1747 
Q 353 2572 751 3078 
Q 1150 3584 1784 3584 
Q 2172 3584 2448 3432 
Q 2725 3281 2906 2969 
z
M 947 1747 
Q 947 1113 1208 752 
Q 1469 391 1925 391 
Q 2381 391 2643 752 
Q 2906 1113 2906 1747 
Q 2906 2381 2643 2742 
Q 2381 3103 1925 3103 
Q 1469 3103 1208 2742 
Q 947 2381 947 1747 
z
" transform="scale(0.015625)"/>
      <path id="DejaVuSans-2f" d="M 1625 4666 
L 2156 4666 
L 531 -594 
L 0 -594 
L 1625 4666 
z
" transform="scale(0.015625)"/>
      <path id="DejaVuSans-68" d="M 3513 2113 
L 3513 0 
L 2938 0 
L 2938 2094 
Q 2938 2591 2744 2837 
Q 2550 3084 2163 3084 
Q 1697 3084 1428 2787 
Q 1159 2491 1159 1978 
L 1159 0 
L 581 0 
L 581 4863 
L 1159 4863 
L 1159 2956 
Q 1366 3272 1645 3428 
Q 1925 3584 2291 3584 
Q 2894 3584 3203 3211 
Q 3513 2838 3513 2113 
z
" transform="scale(0.015625)"/>
     </defs>
     <use xlink:href="#DejaVuSans-4c"/>
     <use xlink:href="#DejaVuSans-6f" x="53.962891"/>
     <use xlink:href="#DejaVuSans-61" x="115.144531"/>
     <use xlink:href="#DejaVuSans-64" x="176.423828"/>
     <use xlink:href="#DejaVuSans-2f" x="239.900391"/>
     <use xlink:href="#DejaVuSans-68" x="273.591797"/>
    </g>
   </g>
   <g id="text_14">
    <!-- SEA_EXIST_DEC_2050 -->
    <g transform="translate(71.410313 16.1736) scale(0.09 -0.09)">
     <defs>
      <path id="DejaVuSans-53" d="M 3425 4513 
L 3425 3897 
Q 3066 4069 2747 4153 
Q 2428 4238 2131 4238 
Q 1616 4238 1336 4038 
Q 1056 3838 1056 3469 
Q 1056 3159 1242 3001 
Q 1428 2844 1947 2747 
L 2328 2669 
Q 3034 2534 3370 2195 
Q 3706 1856 3706 1288 
Q 3706 609 3251 259 
Q 2797 -91 1919 -91 
Q 1588 -91 1214 -16 
Q 841 59 441 206 
L 441 856 
Q 825 641 1194 531 
Q 1563 422 1919 422 
Q 2459 422 2753 634 
Q 3047 847 3047 1241 
Q 3047 1584 2836 1778 
Q 2625 1972 2144 2069 
L 1759 2144 
Q 1053 2284 737 2584 
Q 422 2884 422 3419 
Q 422 4038 858 4394 
Q 1294 4750 2059 4750 
Q 2388 4750 2728 4690 
Q 3069 4631 3425 4513 
z
" transform="scale(0.015625)"/>
      <path id="DejaVuSans-41" d="M 2188 4044 
L 1331 1722 
L 3047 1722 
L 2188 4044 
z
M 1831 4666 
L 2547 4666 
L 4325 0 
L 3669 0 
L 3244 1197 
L 1141 1197 
L 716 0 
L 50 0 
L 1831 4666 
z
" transform="scale(0.015625)"/>
      <path id="DejaVuSans-5f" d="M 3263 -1063 
L 3263 -1509 
L -63 -1509 
L -63 -1063 
L 3263 -1063 
z
" transform="scale(0.015625)"/>
      <path id="DejaVuSans-58" d="M 403 4666 
L 1081 4666 
L 2241 2931 
L 3406 4666 
L 4084 4666 
L 2584 2425 
L 4184 0 
L 3506 0 
L 2194 1984 
L 872 0 
L 191 0 
L 1856 2491 
L 403 4666 
z
" transform="scale(0.015625)"/>
      <path id="DejaVuSans-49" d="M 628 4666 
L 1259 4666 
L 1259 0 
L 628 0 
L 628 4666 
z
" transform="scale(0.015625)"/>
      <path id="DejaVuSans-54" d="M -19 4666 
L 3928 4666 
L 3928 4134 
L 2272 4134 
L 2272 0 
L 1638 0 
L 1638 4134 
L -19 4134 
L -19 4666 
z
" transform="scale(0.015625)"/>
      <path id="DejaVuSans-44" d="M 1259 4147 
L 1259 519 
L 2022 519 
Q 2988 519 3436 956 
Q 3884 1394 3884 2338 
Q 3884 3275 3436 3711 
Q 2988 4147 2022 4147 
L 1259 4147 
z
M 628 4666 
L 1925 4666 
Q 3281 4666 3915 4102 
Q 4550 3538 4550 2338 
Q 4550 1131 3912 565 
Q 3275 0 1925 0 
L 628 0 
L 628 4666 
z
" transform="scale(0.015625)"/>
      <path id="DejaVuSans-43" d="M 4122 4306 
L 4122 3641 
Q 3803 3938 3442 4084 
Q 3081 4231 2675 4231 
Q 1875 4231 1450 3742 
Q 1025 3253 1025 2328 
Q 1025 1406 1450 917 
Q 1875 428 2675 428 
Q 3081 428 3442 575 
Q 3803 722 4122 1019 
L 4122 359 
Q 3791 134 3420 21 
Q 3050 -91 2638 -91 
Q 1578 -91 968 557 
Q 359 1206 359 2328 
Q 359 3453 968 4101 
Q 1578 4750 2638 4750 
Q 3056 4750 3426 4639 
Q 3797 4528 4122 4306 
z
" transform="scale(0.015625)"/>
     </defs>
     <use xlink:href="#DejaVuSans-53"/>
     <use xlink:href="#DejaVuSans-45" x="63.476562"/>
     <use xlink:href="#DejaVuSans-41" x="126.660156"/>
     <use xlink:href="#DejaVuSans-5f" x="195.068359"/>
     <use xlink:href="#DejaVuSans-45" x="245.068359"/>
     <use xlink:href="#DejaVuSans-58" x="308.251953"/>
     <use xlink:href="#DejaVuSans-49" x="376.757812"/>
     <use xlink:href="#DejaVuSans-53" x="406.25"/>
     <use xlink:href="#DejaVuSans-54" x="469.726562"/>
     <use xlink:href="#DejaVuSans-5f" x="530.810547"/>
     <use xlink:href="#DejaVuSans-44" x="580.810547"/>
     <use xlink:href="#DejaVuSans-45" x="657.8125"/>
     <use xlink:href="#DejaVuSans-43" x="720.996094"/>
     <use xlink:href="#DejaVuSans-5f" x="790.820312"/>
     <use xlink:href="#DejaVuSans-32" x="840.820312"/>
     <use xlink:href="#DejaVuSans-30" x="904.443359"/>
     <use xlink:href="#DejaVuSans-35" x="968.066406"/>
     <use xlink:href="#DejaVuSans-30" x="1031.689453"/>
    </g>
   </g>
   <g id="legend_1">
    <g id="text_15">
     <!-- Components -->
     <g transform="translate(269.065625 195.994838) scale(0.1 -0.1)">
      <defs>
       <path id="DejaVuSans-Bold-43" d="M 4288 256 
Q 3956 84 3597 -3 
Q 3238 -91 2847 -91 
Q 1681 -91 1000 561 
Q 319 1213 319 2328 
Q 319 3447 1000 4098 
Q 1681 4750 2847 4750 
Q 3238 4750 3597 4662 
Q 3956 4575 4288 4403 
L 4288 3438 
Q 3953 3666 3628 3772 
Q 3303 3878 2944 3878 
Q 2300 3878 1931 3465 
Q 1563 3053 1563 2328 
Q 1563 1606 1931 1193 
Q 2300 781 2944 781 
Q 3303 781 3628 887 
Q 3953 994 4288 1222 
L 4288 256 
z
" transform="scale(0.015625)"/>
       <path id="DejaVuSans-Bold-6f" d="M 2203 2784 
Q 1831 2784 1636 2517 
Q 1441 2250 1441 1747 
Q 1441 1244 1636 976 
Q 1831 709 2203 709 
Q 2569 709 2762 976 
Q 2956 1244 2956 1747 
Q 2956 2250 2762 2517 
Q 2569 2784 2203 2784 
z
M 2203 3584 
Q 3106 3584 3614 3096 
Q 4122 2609 4122 1747 
Q 4122 884 3614 396 
Q 3106 -91 2203 -91 
Q 1297 -91 786 396 
Q 275 884 275 1747 
Q 275 2609 786 3096 
Q 1297 3584 2203 3584 
z
" transform="scale(0.015625)"/>
       <path id="DejaVuSans-Bold-6d" d="M 3781 2919 
Q 3994 3244 4286 3414 
Q 4578 3584 4928 3584 
Q 5531 3584 5847 3212 
Q 6163 2841 6163 2131 
L 6163 0 
L 5038 0 
L 5038 1825 
Q 5041 1866 5042 1909 
Q 5044 1953 5044 2034 
Q 5044 2406 4934 2573 
Q 4825 2741 4581 2741 
Q 4263 2741 4089 2478 
Q 3916 2216 3909 1719 
L 3909 0 
L 2784 0 
L 2784 1825 
Q 2784 2406 2684 2573 
Q 2584 2741 2328 2741 
Q 2006 2741 1831 2477 
Q 1656 2213 1656 1722 
L 1656 0 
L 531 0 
L 531 3500 
L 1656 3500 
L 1656 2988 
Q 1863 3284 2130 3434 
Q 2397 3584 2719 3584 
Q 3081 3584 3359 3409 
Q 3638 3234 3781 2919 
z
" transform="scale(0.015625)"/>
       <path id="DejaVuSans-Bold-70" d="M 1656 506 
L 1656 -1331 
L 538 -1331 
L 538 3500 
L 1656 3500 
L 1656 2988 
Q 1888 3294 2169 3439 
Q 2450 3584 2816 3584 
Q 3463 3584 3878 3070 
Q 4294 2556 4294 1747 
Q 4294 938 3878 423 
Q 3463 -91 2816 -91 
Q 2450 -91 2169 54 
Q 1888 200 1656 506 
z
M 2400 2772 
Q 2041 2772 1848 2508 
Q 1656 2244 1656 1747 
Q 1656 1250 1848 986 
Q 2041 722 2400 722 
Q 2759 722 2948 984 
Q 3138 1247 3138 1747 
Q 3138 2247 2948 2509 
Q 2759 2772 2400 2772 
z
" transform="scale(0.015625)"/>
       <path id="DejaVuSans-Bold-6e" d="M 4056 2131 
L 4056 0 
L 2931 0 
L 2931 347 
L 2931 1631 
Q 2931 2084 2911 2256 
Q 2891 2428 2841 2509 
Q 2775 2619 2662 2680 
Q 2550 2741 2406 2741 
Q 2056 2741 1856 2470 
Q 1656 2200 1656 1722 
L 1656 0 
L 538 0 
L 538 3500 
L 1656 3500 
L 1656 2988 
Q 1909 3294 2193 3439 
Q 2478 3584 2822 3584 
Q 3428 3584 3742 3212 
Q 4056 2841 4056 2131 
z
" transform="scale(0.015625)"/>
       <path id="DejaVuSans-Bold-65" d="M 4031 1759 
L 4031 1441 
L 1416 1441 
Q 1456 1047 1700 850 
Q 1944 653 2381 653 
Q 2734 653 3104 758 
Q 3475 863 3866 1075 
L 3866 213 
Q 3469 63 3072 -14 
Q 2675 -91 2278 -91 
Q 1328 -91 801 392 
Q 275 875 275 1747 
Q 275 2603 792 3093 
Q 1309 3584 2216 3584 
Q 3041 3584 3536 3087 
Q 4031 2591 4031 1759 
z
M 2881 2131 
Q 2881 2450 2695 2645 
Q 2509 2841 2209 2841 
Q 1884 2841 1681 2658 
Q 1478 2475 1428 2131 
L 2881 2131 
z
" transform="scale(0.015625)"/>
       <path id="DejaVuSans-Bold-74" d="M 1759 4494 
L 1759 3500 
L 2913 3500 
L 2913 2700 
L 1759 2700 
L 1759 1216 
Q 1759 972 1856 886 
Q 1953 800 2241 800 
L 2816 800 
L 2816 0 
L 1856 0 
Q 1194 0 917 276 
Q 641 553 641 1216 
L 641 2700 
L 84 2700 
L 84 3500 
L 641 3500 
L 641 4494 
L 1759 4494 
z
" transform="scale(0.015625)"/>
       <path id="DejaVuSans-Bold-73" d="M 3272 3391 
L 3272 2541 
Q 2913 2691 2578 2766 
Q 2244 2841 1947 2841 
Q 1628 2841 1473 2761 
Q 1319 2681 1319 2516 
Q 1319 2381 1436 2309 
Q 1553 2238 1856 2203 
L 2053 2175 
Q 2913 2066 3209 1816 
Q 3506 1566 3506 1031 
Q 3506 472 3093 190 
Q 2681 -91 1863 -91 
Q 1516 -91 1145 -36 
Q 775 19 384 128 
L 384 978 
Q 719 816 1070 734 
Q 1422 653 1784 653 
Q 2113 653 2278 743 
Q 2444 834 2444 1013 
Q 2444 1163 2330 1236 
Q 2216 1309 1875 1350 
L 1678 1375 
Q 931 1469 631 1722 
Q 331 1975 331 2491 
Q 331 3047 712 3315 
Q 1094 3584 1881 3584 
Q 2191 3584 2531 3537 
Q 2872 3491 3272 3391 
z
" transform="scale(0.015625)"/>
      </defs>
      <use xlink:href="#DejaVuSans-Bold-43"/>
      <use xlink:href="#DejaVuSans-Bold-6f" x="73.388672"/>
      <use xlink:href="#DejaVuSans-Bold-6d" x="142.089844"/>
      <use xlink:href="#DejaVuSans-Bold-70" x="246.289062"/>
      <use xlink:href="#DejaVuSans-Bold-6f" x="317.871094"/>
      <use xlink:href="#DejaVuSans-Bold-6e" x="386.572266"/>
      <use xlink:href="#DejaVuSans-Bold-65" x="457.763672"/>
      <use xlink:href="#DejaVuSans-Bold-6e" x="525.585938"/>
      <use xlink:href="#DejaVuSans-Bold-74" x="596.777344"/>
      <use xlink:href="#DejaVuSans-Bold-73" x="644.580078"/>
     </g>
    </g>
    <g id="patch_8">
     <path d="M 70.8375 210.672963 
L 90.8375 210.672963 
L 90.8375 203.672963 
L 70.8375 203.672963 
z
" style="fill: #b20101"/>
    </g>
    <g id="text_16">
     <!-- CCGT -->
     <g transform="translate(98.8375 210.672963) scale(0.1 -0.1)">
      <defs>
       <path id="DejaVuSans-47" d="M 3809 666 
L 3809 1919 
L 2778 1919 
L 2778 2438 
L 4434 2438 
L 4434 434 
Q 4069 175 3628 42 
Q 3188 -91 2688 -91 
Q 1594 -91 976 548 
Q 359 1188 359 2328 
Q 359 3472 976 4111 
Q 1594 4750 2688 4750 
Q 3144 4750 3555 4637 
Q 3966 4525 4313 4306 
L 4313 3634 
Q 3963 3931 3569 4081 
Q 3175 4231 2741 4231 
Q 1884 4231 1454 3753 
Q 1025 3275 1025 2328 
Q 1025 1384 1454 906 
Q 1884 428 2741 428 
Q 3075 428 3337 486 
Q 3600 544 3809 666 
z
" transform="scale(0.015625)"/>
      </defs>
      <use xlink:href="#DejaVuSans-43"/>
      <use xlink:href="#DejaVuSans-43" x="69.824219"/>
      <use xlink:href="#DejaVuSans-47" x="139.648438"/>
      <use xlink:href="#DejaVuSans-54" x="213.513672"/>
     </g>
    </g>
    <g id="patch_9">
     <path d="M 70.8375 225.351088 
L 90.8375 225.351088 
L 90.8375 218.351088 
L 70.8375 218.351088 
z
" style="fill: #707070"/>
    </g>
    <g id="text_17">
     <!-- coal -->
     <g transform="translate(98.8375 225.351088) scale(0.1 -0.1)">
      <use xlink:href="#DejaVuSans-63"/>
      <use xlink:href="#DejaVuSans-6f" x="54.980469"/>
      <use xlink:href="#DejaVuSans-61" x="116.162109"/>
      <use xlink:href="#DejaVuSans-6c" x="177.441406"/>
     </g>
    </g>
    <g id="patch_10">
     <path d="M 70.8375 240.029213 
L 90.8375 240.029213 
L 90.8375 233.029213 
L 70.8375 233.029213 
z
" style="fill: #808080"/>
    </g>
    <g id="text_18">
     <!-- coal-CFB -->
     <g transform="translate(98.8375 240.029213) scale(0.1 -0.1)">
      <defs>
       <path id="DejaVuSans-2d" d="M 313 2009 
L 1997 2009 
L 1997 1497 
L 313 1497 
L 313 2009 
z
" transform="scale(0.015625)"/>
       <path id="DejaVuSans-46" d="M 628 4666 
L 3309 4666 
L 3309 4134 
L 1259 4134 
L 1259 2759 
L 3109 2759 
L 3109 2228 
L 1259 2228 
L 1259 0 
L 628 0 
L 628 4666 
z
" transform="scale(0.015625)"/>
      </defs>
      <use xlink:href="#DejaVuSans-63"/>
      <use xlink:href="#DejaVuSans-6f" x="54.980469"/>
      <use xlink:href="#DejaVuSans-61" x="116.162109"/>
      <use xlink:href="#DejaVuSans-6c" x="177.441406"/>
      <use xlink:href="#DejaVuSans-2d" x="205.224609"/>
      <use xlink:href="#DejaVuSans-43" x="241.308594"/>
      <use xlink:href="#DejaVuSans-46" x="311.132812"/>
      <use xlink:href="#DejaVuSans-42" x="368.652344"/>
     </g>
    </g>
    <g id="patch_11">
     <path d="M 70.8375 254.707338 
L 90.8375 254.707338 
L 90.8375 247.707338 
L 70.8375 247.707338 
z
" style="fill: #606060"/>
    </g>
    <g id="text_19">
     <!-- coal-SC -->
     <g transform="translate(98.8375 254.707338) scale(0.1 -0.1)">
      <use xlink:href="#DejaVuSans-63"/>
      <use xlink:href="#DejaVuSans-6f" x="54.980469"/>
      <use xlink:href="#DejaVuSans-61" x="116.162109"/>
      <use xlink:href="#DejaVuSans-6c" x="177.441406"/>
      <use xlink:href="#DejaVuSans-2d" x="205.224609"/>
      <use xlink:href="#DejaVuSans-53" x="241.308594"/>
      <use xlink:href="#DejaVuSans-43" x="304.785156"/>
     </g>
    </g>
    <g id="patch_12">
     <path d="M 162.564062 210.672963 
L 182.564062 210.672963 
L 182.564062 203.672963 
L 162.564062 203.672963 
z
" style="fill: #909090"/>
    </g>
    <g id="text_20">
     <!-- coal-SubC -->
     <g transform="translate(190.564062 210.672963) scale(0.1 -0.1)">
      <defs>
       <path id="DejaVuSans-75" d="M 544 1381 
L 544 3500 
L 1119 3500 
L 1119 1403 
Q 1119 906 1312 657 
Q 1506 409 1894 409 
Q 2359 409 2629 706 
Q 2900 1003 2900 1516 
L 2900 3500 
L 3475 3500 
L 3475 0 
L 2900 0 
L 2900 538 
Q 2691 219 2414 64 
Q 2138 -91 1772 -91 
Q 1169 -91 856 284 
Q 544 659 544 1381 
z
M 1991 3584 
L 1991 3584 
z
" transform="scale(0.015625)"/>
       <path id="DejaVuSans-62" d="M 3116 1747 
Q 3116 2381 2855 2742 
Q 2594 3103 2138 3103 
Q 1681 3103 1420 2742 
Q 1159 2381 1159 1747 
Q 1159 1113 1420 752 
Q 1681 391 2138 391 
Q 2594 391 2855 752 
Q 3116 1113 3116 1747 
z
M 1159 2969 
Q 1341 3281 1617 3432 
Q 1894 3584 2278 3584 
Q 2916 3584 3314 3078 
Q 3713 2572 3713 1747 
Q 3713 922 3314 415 
Q 2916 -91 2278 -91 
Q 1894 -91 1617 61 
Q 1341 213 1159 525 
L 1159 0 
L 581 0 
L 581 4863 
L 1159 4863 
L 1159 2969 
z
" transform="scale(0.015625)"/>
      </defs>
      <use xlink:href="#DejaVuSans-63"/>
      <use xlink:href="#DejaVuSans-6f" x="54.980469"/>
      <use xlink:href="#DejaVuSans-61" x="116.162109"/>
      <use xlink:href="#DejaVuSans-6c" x="177.441406"/>
      <use xlink:href="#DejaVuSans-2d" x="205.224609"/>
      <use xlink:href="#DejaVuSans-53" x="241.308594"/>
      <use xlink:href="#DejaVuSans-75" x="304.785156"/>
      <use xlink:href="#DejaVuSans-62" x="368.164062"/>
      <use xlink:href="#DejaVuSans-43" x="431.640625"/>
     </g>
    </g>
    <g id="patch_13">
     <path d="M 162.564062 225.351088 
L 182.564062 225.351088 
L 182.564062 218.351088 
L 162.564062 218.351088 
z
" style="fill: #505050"/>
    </g>
    <g id="text_21">
     <!-- coal-USC -->
     <g transform="translate(190.564062 225.351088) scale(0.1 -0.1)">
      <defs>
       <path id="DejaVuSans-55" d="M 556 4666 
L 1191 4666 
L 1191 1831 
Q 1191 1081 1462 751 
Q 1734 422 2344 422 
Q 2950 422 3222 751 
Q 3494 1081 3494 1831 
L 3494 4666 
L 4128 4666 
L 4128 1753 
Q 4128 841 3676 375 
Q 3225 -91 2344 -91 
Q 1459 -91 1007 375 
Q 556 841 556 1753 
L 556 4666 
z
" transform="scale(0.015625)"/>
      </defs>
      <use xlink:href="#DejaVuSans-63"/>
      <use xlink:href="#DejaVuSans-6f" x="54.980469"/>
      <use xlink:href="#DejaVuSans-61" x="116.162109"/>
      <use xlink:href="#DejaVuSans-6c" x="177.441406"/>
      <use xlink:href="#DejaVuSans-2d" x="205.224609"/>
      <use xlink:href="#DejaVuSans-55" x="241.308594"/>
      <use xlink:href="#DejaVuSans-53" x="314.501953"/>
      <use xlink:href="#DejaVuSans-43" x="377.978516"/>
     </g>
    </g>
    <g id="patch_14">
     <path d="M 162.564062 240.029213 
L 182.564062 240.029213 
L 182.564062 233.029213 
L 162.564062 233.029213 
z
" style="fill: #4adbc8"/>
    </g>
    <g id="text_22">
     <!-- hydroelectricity -->
     <g transform="translate(190.564062 240.029213) scale(0.1 -0.1)">
      <defs>
       <path id="DejaVuSans-74" d="M 1172 4494 
L 1172 3500 
L 2356 3500 
L 2356 3053 
L 1172 3053 
L 1172 1153 
Q 1172 725 1289 603 
Q 1406 481 1766 481 
L 2356 481 
L 2356 0 
L 1766 0 
Q 1100 0 847 248 
Q 594 497 594 1153 
L 594 3053 
L 172 3053 
L 172 3500 
L 594 3500 
L 594 4494 
L 1172 4494 
z
" transform="scale(0.015625)"/>
       <path id="DejaVuSans-69" d="M 603 3500 
L 1178 3500 
L 1178 0 
L 603 0 
L 603 3500 
z
M 603 4863 
L 1178 4863 
L 1178 4134 
L 603 4134 
L 603 4863 
z
" transform="scale(0.015625)"/>
      </defs>
      <use xlink:href="#DejaVuSans-68"/>
      <use xlink:href="#DejaVuSans-79" x="63.378906"/>
      <use xlink:href="#DejaVuSans-64" x="122.558594"/>
      <use xlink:href="#DejaVuSans-72" x="186.035156"/>
      <use xlink:href="#DejaVuSans-6f" x="224.898438"/>
      <use xlink:href="#DejaVuSans-65" x="286.080078"/>
      <use xlink:href="#DejaVuSans-6c" x="347.603516"/>
      <use xlink:href="#DejaVuSans-65" x="375.386719"/>
      <use xlink:href="#DejaVuSans-63" x="436.910156"/>
      <use xlink:href="#DejaVuSans-74" x="491.890625"/>
      <use xlink:href="#DejaVuSans-72" x="531.099609"/>
      <use xlink:href="#DejaVuSans-69" x="572.212891"/>
      <use xlink:href="#DejaVuSans-63" x="599.996094"/>
      <use xlink:href="#DejaVuSans-69" x="654.976562"/>
      <use xlink:href="#DejaVuSans-74" x="682.759766"/>
      <use xlink:href="#DejaVuSans-79" x="721.96875"/>
     </g>
    </g>
    <g id="patch_15">
     <path d="M 162.564062 254.707338 
L 182.564062 254.707338 
L 182.564062 247.707338 
L 162.564062 247.707338 
z
" style="fill: #9e5a01"/>
    </g>
    <g id="text_23">
     <!-- lignite -->
     <g transform="translate(190.564062 254.707338) scale(0.1 -0.1)">
      <use xlink:href="#DejaVuSans-6c"/>
      <use xlink:href="#DejaVuSans-69" x="27.783203"/>
      <use xlink:href="#DejaVuSans-67" x="55.566406"/>
      <use xlink:href="#DejaVuSans-6e" x="119.042969"/>
      <use xlink:href="#DejaVuSans-69" x="182.421875"/>
      <use xlink:href="#DejaVuSans-74" x="210.205078"/>
      <use xlink:href="#DejaVuSans-65" x="249.414062"/>
     </g>
    </g>
    <g id="patch_16">
     <path d="M 288.68125 210.672963 
L 308.68125 210.672963 
L 308.68125 203.672963 
L 288.68125 203.672963 
z
" style="fill: #6895dd"/>
    </g>
    <g id="text_24">
     <!-- offshore wind ac -->
     <g transform="translate(316.68125 210.672963) scale(0.1 -0.1)">
      <defs>
       <path id="DejaVuSans-66" d="M 2375 4863 
L 2375 4384 
L 1825 4384 
Q 1516 4384 1395 4259 
Q 1275 4134 1275 3809 
L 1275 3500 
L 2222 3500 
L 2222 3053 
L 1275 3053 
L 1275 0 
L 697 0 
L 697 3053 
L 147 3053 
L 147 3500 
L 697 3500 
L 697 3744 
Q 697 4328 969 4595 
Q 1241 4863 1831 4863 
L 2375 4863 
z
" transform="scale(0.015625)"/>
       <path id="DejaVuSans-73" d="M 2834 3397 
L 2834 2853 
Q 2591 2978 2328 3040 
Q 2066 3103 1784 3103 
Q 1356 3103 1142 2972 
Q 928 2841 928 2578 
Q 928 2378 1081 2264 
Q 1234 2150 1697 2047 
L 1894 2003 
Q 2506 1872 2764 1633 
Q 3022 1394 3022 966 
Q 3022 478 2636 193 
Q 2250 -91 1575 -91 
Q 1294 -91 989 -36 
Q 684 19 347 128 
L 347 722 
Q 666 556 975 473 
Q 1284 391 1588 391 
Q 1994 391 2212 530 
Q 2431 669 2431 922 
Q 2431 1156 2273 1281 
Q 2116 1406 1581 1522 
L 1381 1569 
Q 847 1681 609 1914 
Q 372 2147 372 2553 
Q 372 3047 722 3315 
Q 1072 3584 1716 3584 
Q 2034 3584 2315 3537 
Q 2597 3491 2834 3397 
z
" transform="scale(0.015625)"/>
       <path id="DejaVuSans-77" d="M 269 3500 
L 844 3500 
L 1563 769 
L 2278 3500 
L 2956 3500 
L 3675 769 
L 4391 3500 
L 4966 3500 
L 4050 0 
L 3372 0 
L 2619 2869 
L 1863 0 
L 1184 0 
L 269 3500 
z
" transform="scale(0.015625)"/>
      </defs>
      <use xlink:href="#DejaVuSans-6f"/>
      <use xlink:href="#DejaVuSans-66" x="61.181641"/>
      <use xlink:href="#DejaVuSans-66" x="96.386719"/>
      <use xlink:href="#DejaVuSans-73" x="131.591797"/>
      <use xlink:href="#DejaVuSans-68" x="183.691406"/>
      <use xlink:href="#DejaVuSans-6f" x="247.070312"/>
      <use xlink:href="#DejaVuSans-72" x="308.251953"/>
      <use xlink:href="#DejaVuSans-65" x="347.115234"/>
      <use xlink:href="#DejaVuSans-20" x="408.638672"/>
      <use xlink:href="#DejaVuSans-77" x="440.425781"/>
      <use xlink:href="#DejaVuSans-69" x="522.212891"/>
      <use xlink:href="#DejaVuSans-6e" x="549.996094"/>
      <use xlink:href="#DejaVuSans-64" x="613.375"/>
      <use xlink:href="#DejaVuSans-20" x="676.851562"/>
      <use xlink:href="#DejaVuSans-61" x="708.638672"/>
      <use xlink:href="#DejaVuSans-63" x="769.917969"/>
     </g>
    </g>
    <g id="patch_17">
     <path d="M 288.68125 225.351088 
L 308.68125 225.351088 
L 308.68125 218.351088 
L 288.68125 218.351088 
z
" style="fill: #74c6f2"/>
    </g>
    <g id="text_25">
     <!-- offshore wind dc -->
     <g transform="translate(316.68125 225.351088) scale(0.1 -0.1)">
      <use xlink:href="#DejaVuSans-6f"/>
      <use xlink:href="#DejaVuSans-66" x="61.181641"/>
      <use xlink:href="#DejaVuSans-66" x="96.386719"/>
      <use xlink:href="#DejaVuSans-73" x="131.591797"/>
      <use xlink:href="#DejaVuSans-68" x="183.691406"/>
      <use xlink:href="#DejaVuSans-6f" x="247.070312"/>
      <use xlink:href="#DejaVuSans-72" x="308.251953"/>
      <use xlink:href="#DejaVuSans-65" x="347.115234"/>
      <use xlink:href="#DejaVuSans-20" x="408.638672"/>
      <use xlink:href="#DejaVuSans-77" x="440.425781"/>
      <use xlink:href="#DejaVuSans-69" x="522.212891"/>
      <use xlink:href="#DejaVuSans-6e" x="549.996094"/>
      <use xlink:href="#DejaVuSans-64" x="613.375"/>
      <use xlink:href="#DejaVuSans-20" x="676.851562"/>
      <use xlink:href="#DejaVuSans-64" x="708.638672"/>
      <use xlink:href="#DejaVuSans-63" x="772.115234"/>
     </g>
    </g>
    <g id="patch_18">
     <path d="M 288.68125 240.029213 
L 308.68125 240.029213 
L 308.68125 233.029213 
L 288.68125 233.029213 
z
" style="fill: #262626"/>
    </g>
    <g id="text_26">
     <!-- oil -->
     <g transform="translate(316.68125 240.029213) scale(0.1 -0.1)">
      <use xlink:href="#DejaVuSans-6f"/>
      <use xlink:href="#DejaVuSans-69" x="61.181641"/>
      <use xlink:href="#DejaVuSans-6c" x="88.964844"/>
     </g>
    </g>
    <g id="patch_19">
     <path d="M 288.68125 254.707338 
L 308.68125 254.707338 
L 308.68125 247.707338 
L 288.68125 247.707338 
z
" style="fill: #235ebc"/>
    </g>
    <g id="text_27">
     <!-- onshore wind -->
     <g transform="translate(316.68125 254.707338) scale(0.1 -0.1)">
      <use xlink:href="#DejaVuSans-6f"/>
      <use xlink:href="#DejaVuSans-6e" x="61.181641"/>
      <use xlink:href="#DejaVuSans-73" x="124.560547"/>
      <use xlink:href="#DejaVuSans-68" x="176.660156"/>
      <use xlink:href="#DejaVuSans-6f" x="240.039062"/>
      <use xlink:href="#DejaVuSans-72" x="301.220703"/>
      <use xlink:href="#DejaVuSans-65" x="340.083984"/>
      <use xlink:href="#DejaVuSans-20" x="401.607422"/>
      <use xlink:href="#DejaVuSans-77" x="433.394531"/>
      <use xlink:href="#DejaVuSans-69" x="515.181641"/>
      <use xlink:href="#DejaVuSans-6e" x="542.964844"/>
      <use xlink:href="#DejaVuSans-64" x="606.34375"/>
     </g>
    </g>
    <g id="patch_20">
     <path d="M 419.390625 210.672963 
L 439.390625 210.672963 
L 439.390625 203.672963 
L 419.390625 203.672963 
z
" style="fill: #f9d002"/>
    </g>
    <g id="text_28">
     <!-- solar PV -->
     <g transform="translate(447.390625 210.672963) scale(0.1 -0.1)">
      <defs>
       <path id="DejaVuSans-50" d="M 1259 4147 
L 1259 2394 
L 2053 2394 
Q 2494 2394 2734 2622 
Q 2975 2850 2975 3272 
Q 2975 3691 2734 3919 
Q 2494 4147 2053 4147 
L 1259 4147 
z
M 628 4666 
L 2053 4666 
Q 2838 4666 3239 4311 
Q 3641 3956 3641 3272 
Q 3641 2581 3239 2228 
Q 2838 1875 2053 1875 
L 1259 1875 
L 1259 0 
L 628 0 
L 628 4666 
z
" transform="scale(0.015625)"/>
       <path id="DejaVuSans-56" d="M 1831 0 
L 50 4666 
L 709 4666 
L 2188 738 
L 3669 4666 
L 4325 4666 
L 2547 0 
L 1831 0 
z
" transform="scale(0.015625)"/>
      </defs>
      <use xlink:href="#DejaVuSans-73"/>
      <use xlink:href="#DejaVuSans-6f" x="52.099609"/>
      <use xlink:href="#DejaVuSans-6c" x="113.28125"/>
      <use xlink:href="#DejaVuSans-61" x="141.064453"/>
      <use xlink:href="#DejaVuSans-72" x="202.34375"/>
      <use xlink:href="#DejaVuSans-20" x="243.457031"/>
      <use xlink:href="#DejaVuSans-50" x="275.244141"/>
      <use xlink:href="#DejaVuSans-56" x="335.546875"/>
     </g>
    </g>
    <g id="patch_21">
     <path d="M 419.390625 225.351088 
L 439.390625 225.351088 
L 439.390625 218.351088 
L 419.390625 218.351088 
z
" style="fill: #b8ea04"/>
    </g>
    <g id="text_29">
     <!-- battery storage -->
     <g transform="translate(447.390625 225.351088) scale(0.1 -0.1)">
      <use xlink:href="#DejaVuSans-62"/>
      <use xlink:href="#DejaVuSans-61" x="63.476562"/>
      <use xlink:href="#DejaVuSans-74" x="124.755859"/>
      <use xlink:href="#DejaVuSans-74" x="163.964844"/>
      <use xlink:href="#DejaVuSans-65" x="203.173828"/>
      <use xlink:href="#DejaVuSans-72" x="264.697266"/>
      <use xlink:href="#DejaVuSans-79" x="305.810547"/>
      <use xlink:href="#DejaVuSans-20" x="364.990234"/>
      <use xlink:href="#DejaVuSans-73" x="396.777344"/>
      <use xlink:href="#DejaVuSans-74" x="448.876953"/>
      <use xlink:href="#DejaVuSans-6f" x="488.085938"/>
      <use xlink:href="#DejaVuSans-72" x="549.267578"/>
      <use xlink:href="#DejaVuSans-61" x="590.380859"/>
      <use xlink:href="#DejaVuSans-67" x="651.660156"/>
      <use xlink:href="#DejaVuSans-65" x="715.136719"/>
     </g>
    </g>
    <g id="patch_22">
     <path d="M 419.390625 240.029213 
L 439.390625 240.029213 
L 439.390625 233.029213 
L 419.390625 233.029213 
z
" style="fill: #ea048a"/>
    </g>
    <g id="text_30">
     <!-- hydrogen storage -->
     <g transform="translate(447.390625 240.029213) scale(0.1 -0.1)">
      <use xlink:href="#DejaVuSans-68"/>
      <use xlink:href="#DejaVuSans-79" x="63.378906"/>
      <use xlink:href="#DejaVuSans-64" x="122.558594"/>
      <use xlink:href="#DejaVuSans-72" x="186.035156"/>
      <use xlink:href="#DejaVuSans-6f" x="224.898438"/>
      <use xlink:href="#DejaVuSans-67" x="286.080078"/>
      <use xlink:href="#DejaVuSans-65" x="349.556641"/>
      <use xlink:href="#DejaVuSans-6e" x="411.080078"/>
      <use xlink:href="#DejaVuSans-20" x="474.458984"/>
      <use xlink:href="#DejaVuSans-73" x="506.246094"/>
      <use xlink:href="#DejaVuSans-74" x="558.345703"/>
      <use xlink:href="#DejaVuSans-6f" x="597.554688"/>
      <use xlink:href="#DejaVuSans-72" x="658.736328"/>
      <use xlink:href="#DejaVuSans-61" x="699.849609"/>
      <use xlink:href="#DejaVuSans-67" x="761.128906"/>
      <use xlink:href="#DejaVuSans-65" x="824.605469"/>
     </g>
    </g>
    <g id="patch_23">
     <path d="M 419.390625 254.707338 
L 439.390625 254.707338 
L 439.390625 247.707338 
L 419.390625 247.707338 
z
" style="fill: #70af1d"/>
    </g>
    <g id="text_31">
     <!-- transmission lines -->
     <g transform="translate(447.390625 254.707338) scale(0.1 -0.1)">
      <defs>
       <path id="DejaVuSans-6d" d="M 3328 2828 
Q 3544 3216 3844 3400 
Q 4144 3584 4550 3584 
Q 5097 3584 5394 3201 
Q 5691 2819 5691 2113 
L 5691 0 
L 5113 0 
L 5113 2094 
Q 5113 2597 4934 2840 
Q 4756 3084 4391 3084 
Q 3944 3084 3684 2787 
Q 3425 2491 3425 1978 
L 3425 0 
L 2847 0 
L 2847 2094 
Q 2847 2600 2669 2842 
Q 2491 3084 2119 3084 
Q 1678 3084 1418 2786 
Q 1159 2488 1159 1978 
L 1159 0 
L 581 0 
L 581 3500 
L 1159 3500 
L 1159 2956 
Q 1356 3278 1631 3431 
Q 1906 3584 2284 3584 
Q 2666 3584 2933 3390 
Q 3200 3197 3328 2828 
z
" transform="scale(0.015625)"/>
      </defs>
      <use xlink:href="#DejaVuSans-74"/>
      <use xlink:href="#DejaVuSans-72" x="39.208984"/>
      <use xlink:href="#DejaVuSans-61" x="80.322266"/>
      <use xlink:href="#DejaVuSans-6e" x="141.601562"/>
      <use xlink:href="#DejaVuSans-73" x="204.980469"/>
      <use xlink:href="#DejaVuSans-6d" x="257.080078"/>
      <use xlink:href="#DejaVuSans-69" x="354.492188"/>
      <use xlink:href="#DejaVuSans-73" x="382.275391"/>
      <use xlink:href="#DejaVuSans-73" x="434.375"/>
      <use xlink:href="#DejaVuSans-69" x="486.474609"/>
      <use xlink:href="#DejaVuSans-6f" x="514.257812"/>
      <use xlink:href="#DejaVuSans-6e" x="575.439453"/>
      <use xlink:href="#DejaVuSans-20" x="638.818359"/>
      <use xlink:href="#DejaVuSans-6c" x="670.605469"/>
      <use xlink:href="#DejaVuSans-69" x="698.388672"/>
      <use xlink:href="#DejaVuSans-6e" x="726.171875"/>
      <use xlink:href="#DejaVuSans-65" x="789.550781"/>
      <use xlink:href="#DejaVuSans-73" x="851.074219"/>
     </g>
    </g>
   </g>
  </g>
  <g id="legend_2">
   <g id="text_32">
    <!-- Components -->
    <g transform="translate(269.065625 195.994838) scale(0.1 -0.1)">
     <use xlink:href="#DejaVuSans-Bold-43"/>
     <use xlink:href="#DejaVuSans-Bold-6f" x="73.388672"/>
     <use xlink:href="#DejaVuSans-Bold-6d" x="142.089844"/>
     <use xlink:href="#DejaVuSans-Bold-70" x="246.289062"/>
     <use xlink:href="#DejaVuSans-Bold-6f" x="317.871094"/>
     <use xlink:href="#DejaVuSans-Bold-6e" x="386.572266"/>
     <use xlink:href="#DejaVuSans-Bold-65" x="457.763672"/>
     <use xlink:href="#DejaVuSans-Bold-6e" x="525.585938"/>
     <use xlink:href="#DejaVuSans-Bold-74" x="596.777344"/>
     <use xlink:href="#DejaVuSans-Bold-73" x="644.580078"/>
    </g>
   </g>
   <g id="patch_24">
    <path d="M 70.8375 210.672963 
L 90.8375 210.672963 
L 90.8375 203.672963 
L 70.8375 203.672963 
z
" style="fill: #b20101"/>
   </g>
   <g id="text_33">
    <!-- CCGT -->
    <g transform="translate(98.8375 210.672963) scale(0.1 -0.1)">
     <use xlink:href="#DejaVuSans-43"/>
     <use xlink:href="#DejaVuSans-43" x="69.824219"/>
     <use xlink:href="#DejaVuSans-47" x="139.648438"/>
     <use xlink:href="#DejaVuSans-54" x="213.513672"/>
    </g>
   </g>
   <g id="patch_25">
    <path d="M 70.8375 225.351088 
L 90.8375 225.351088 
L 90.8375 218.351088 
L 70.8375 218.351088 
z
" style="fill: #707070"/>
   </g>
   <g id="text_34">
    <!-- coal -->
    <g transform="translate(98.8375 225.351088) scale(0.1 -0.1)">
     <use xlink:href="#DejaVuSans-63"/>
     <use xlink:href="#DejaVuSans-6f" x="54.980469"/>
     <use xlink:href="#DejaVuSans-61" x="116.162109"/>
     <use xlink:href="#DejaVuSans-6c" x="177.441406"/>
    </g>
   </g>
   <g id="patch_26">
    <path d="M 70.8375 240.029213 
L 90.8375 240.029213 
L 90.8375 233.029213 
L 70.8375 233.029213 
z
" style="fill: #808080"/>
   </g>
   <g id="text_35">
    <!-- coal-CFB -->
    <g transform="translate(98.8375 240.029213) scale(0.1 -0.1)">
     <use xlink:href="#DejaVuSans-63"/>
     <use xlink:href="#DejaVuSans-6f" x="54.980469"/>
     <use xlink:href="#DejaVuSans-61" x="116.162109"/>
     <use xlink:href="#DejaVuSans-6c" x="177.441406"/>
     <use xlink:href="#DejaVuSans-2d" x="205.224609"/>
     <use xlink:href="#DejaVuSans-43" x="241.308594"/>
     <use xlink:href="#DejaVuSans-46" x="311.132812"/>
     <use xlink:href="#DejaVuSans-42" x="368.652344"/>
    </g>
   </g>
   <g id="patch_27">
    <path d="M 70.8375 254.707338 
L 90.8375 254.707338 
L 90.8375 247.707338 
L 70.8375 247.707338 
z
" style="fill: #606060"/>
   </g>
   <g id="text_36">
    <!-- coal-SC -->
    <g transform="translate(98.8375 254.707338) scale(0.1 -0.1)">
     <use xlink:href="#DejaVuSans-63"/>
     <use xlink:href="#DejaVuSans-6f" x="54.980469"/>
     <use xlink:href="#DejaVuSans-61" x="116.162109"/>
     <use xlink:href="#DejaVuSans-6c" x="177.441406"/>
     <use xlink:href="#DejaVuSans-2d" x="205.224609"/>
     <use xlink:href="#DejaVuSans-53" x="241.308594"/>
     <use xlink:href="#DejaVuSans-43" x="304.785156"/>
    </g>
   </g>
   <g id="patch_28">
    <path d="M 162.564062 210.672963 
L 182.564062 210.672963 
L 182.564062 203.672963 
L 162.564062 203.672963 
z
" style="fill: #909090"/>
   </g>
   <g id="text_37">
    <!-- coal-SubC -->
    <g transform="translate(190.564062 210.672963) scale(0.1 -0.1)">
     <use xlink:href="#DejaVuSans-63"/>
     <use xlink:href="#DejaVuSans-6f" x="54.980469"/>
     <use xlink:href="#DejaVuSans-61" x="116.162109"/>
     <use xlink:href="#DejaVuSans-6c" x="177.441406"/>
     <use xlink:href="#DejaVuSans-2d" x="205.224609"/>
     <use xlink:href="#DejaVuSans-53" x="241.308594"/>
     <use xlink:href="#DejaVuSans-75" x="304.785156"/>
     <use xlink:href="#DejaVuSans-62" x="368.164062"/>
     <use xlink:href="#DejaVuSans-43" x="431.640625"/>
    </g>
   </g>
   <g id="patch_29">
    <path d="M 162.564062 225.351088 
L 182.564062 225.351088 
L 182.564062 218.351088 
L 162.564062 218.351088 
z
" style="fill: #505050"/>
   </g>
   <g id="text_38">
    <!-- coal-USC -->
    <g transform="translate(190.564062 225.351088) scale(0.1 -0.1)">
     <use xlink:href="#DejaVuSans-63"/>
     <use xlink:href="#DejaVuSans-6f" x="54.980469"/>
     <use xlink:href="#DejaVuSans-61" x="116.162109"/>
     <use xlink:href="#DejaVuSans-6c" x="177.441406"/>
     <use xlink:href="#DejaVuSans-2d" x="205.224609"/>
     <use xlink:href="#DejaVuSans-55" x="241.308594"/>
     <use xlink:href="#DejaVuSans-53" x="314.501953"/>
     <use xlink:href="#DejaVuSans-43" x="377.978516"/>
    </g>
   </g>
   <g id="patch_30">
    <path d="M 162.564062 240.029213 
L 182.564062 240.029213 
L 182.564062 233.029213 
L 162.564062 233.029213 
z
" style="fill: #4adbc8"/>
   </g>
   <g id="text_39">
    <!-- hydroelectricity -->
    <g transform="translate(190.564062 240.029213) scale(0.1 -0.1)">
     <use xlink:href="#DejaVuSans-68"/>
     <use xlink:href="#DejaVuSans-79" x="63.378906"/>
     <use xlink:href="#DejaVuSans-64" x="122.558594"/>
     <use xlink:href="#DejaVuSans-72" x="186.035156"/>
     <use xlink:href="#DejaVuSans-6f" x="224.898438"/>
     <use xlink:href="#DejaVuSans-65" x="286.080078"/>
     <use xlink:href="#DejaVuSans-6c" x="347.603516"/>
     <use xlink:href="#DejaVuSans-65" x="375.386719"/>
     <use xlink:href="#DejaVuSans-63" x="436.910156"/>
     <use xlink:href="#DejaVuSans-74" x="491.890625"/>
     <use xlink:href="#DejaVuSans-72" x="531.099609"/>
     <use xlink:href="#DejaVuSans-69" x="572.212891"/>
     <use xlink:href="#DejaVuSans-63" x="599.996094"/>
     <use xlink:href="#DejaVuSans-69" x="654.976562"/>
     <use xlink:href="#DejaVuSans-74" x="682.759766"/>
     <use xlink:href="#DejaVuSans-79" x="721.96875"/>
    </g>
   </g>
   <g id="patch_31">
    <path d="M 162.564062 254.707338 
L 182.564062 254.707338 
L 182.564062 247.707338 
L 162.564062 247.707338 
z
" style="fill: #9e5a01"/>
   </g>
   <g id="text_40">
    <!-- lignite -->
    <g transform="translate(190.564062 254.707338) scale(0.1 -0.1)">
     <use xlink:href="#DejaVuSans-6c"/>
     <use xlink:href="#DejaVuSans-69" x="27.783203"/>
     <use xlink:href="#DejaVuSans-67" x="55.566406"/>
     <use xlink:href="#DejaVuSans-6e" x="119.042969"/>
     <use xlink:href="#DejaVuSans-69" x="182.421875"/>
     <use xlink:href="#DejaVuSans-74" x="210.205078"/>
     <use xlink:href="#DejaVuSans-65" x="249.414062"/>
    </g>
   </g>
   <g id="patch_32">
    <path d="M 288.68125 210.672963 
L 308.68125 210.672963 
L 308.68125 203.672963 
L 288.68125 203.672963 
z
" style="fill: #6895dd"/>
   </g>
   <g id="text_41">
    <!-- offshore wind ac -->
    <g transform="translate(316.68125 210.672963) scale(0.1 -0.1)">
     <use xlink:href="#DejaVuSans-6f"/>
     <use xlink:href="#DejaVuSans-66" x="61.181641"/>
     <use xlink:href="#DejaVuSans-66" x="96.386719"/>
     <use xlink:href="#DejaVuSans-73" x="131.591797"/>
     <use xlink:href="#DejaVuSans-68" x="183.691406"/>
     <use xlink:href="#DejaVuSans-6f" x="247.070312"/>
     <use xlink:href="#DejaVuSans-72" x="308.251953"/>
     <use xlink:href="#DejaVuSans-65" x="347.115234"/>
     <use xlink:href="#DejaVuSans-20" x="408.638672"/>
     <use xlink:href="#DejaVuSans-77" x="440.425781"/>
     <use xlink:href="#DejaVuSans-69" x="522.212891"/>
     <use xlink:href="#DejaVuSans-6e" x="549.996094"/>
     <use xlink:href="#DejaVuSans-64" x="613.375"/>
     <use xlink:href="#DejaVuSans-20" x="676.851562"/>
     <use xlink:href="#DejaVuSans-61" x="708.638672"/>
     <use xlink:href="#DejaVuSans-63" x="769.917969"/>
    </g>
   </g>
   <g id="patch_33">
    <path d="M 288.68125 225.351088 
L 308.68125 225.351088 
L 308.68125 218.351088 
L 288.68125 218.351088 
z
" style="fill: #74c6f2"/>
   </g>
   <g id="text_42">
    <!-- offshore wind dc -->
    <g transform="translate(316.68125 225.351088) scale(0.1 -0.1)">
     <use xlink:href="#DejaVuSans-6f"/>
     <use xlink:href="#DejaVuSans-66" x="61.181641"/>
     <use xlink:href="#DejaVuSans-66" x="96.386719"/>
     <use xlink:href="#DejaVuSans-73" x="131.591797"/>
     <use xlink:href="#DejaVuSans-68" x="183.691406"/>
     <use xlink:href="#DejaVuSans-6f" x="247.070312"/>
     <use xlink:href="#DejaVuSans-72" x="308.251953"/>
     <use xlink:href="#DejaVuSans-65" x="347.115234"/>
     <use xlink:href="#DejaVuSans-20" x="408.638672"/>
     <use xlink:href="#DejaVuSans-77" x="440.425781"/>
     <use xlink:href="#DejaVuSans-69" x="522.212891"/>
     <use xlink:href="#DejaVuSans-6e" x="549.996094"/>
     <use xlink:href="#DejaVuSans-64" x="613.375"/>
     <use xlink:href="#DejaVuSans-20" x="676.851562"/>
     <use xlink:href="#DejaVuSans-64" x="708.638672"/>
     <use xlink:href="#DejaVuSans-63" x="772.115234"/>
    </g>
   </g>
   <g id="patch_34">
    <path d="M 288.68125 240.029213 
L 308.68125 240.029213 
L 308.68125 233.029213 
L 288.68125 233.029213 
z
" style="fill: #262626"/>
   </g>
   <g id="text_43">
    <!-- oil -->
    <g transform="translate(316.68125 240.029213) scale(0.1 -0.1)">
     <use xlink:href="#DejaVuSans-6f"/>
     <use xlink:href="#DejaVuSans-69" x="61.181641"/>
     <use xlink:href="#DejaVuSans-6c" x="88.964844"/>
    </g>
   </g>
   <g id="patch_35">
    <path d="M 288.68125 254.707338 
L 308.68125 254.707338 
L 308.68125 247.707338 
L 288.68125 247.707338 
z
" style="fill: #235ebc"/>
   </g>
   <g id="text_44">
    <!-- onshore wind -->
    <g transform="translate(316.68125 254.707338) scale(0.1 -0.1)">
     <use xlink:href="#DejaVuSans-6f"/>
     <use xlink:href="#DejaVuSans-6e" x="61.181641"/>
     <use xlink:href="#DejaVuSans-73" x="124.560547"/>
     <use xlink:href="#DejaVuSans-68" x="176.660156"/>
     <use xlink:href="#DejaVuSans-6f" x="240.039062"/>
     <use xlink:href="#DejaVuSans-72" x="301.220703"/>
     <use xlink:href="#DejaVuSans-65" x="340.083984"/>
     <use xlink:href="#DejaVuSans-20" x="401.607422"/>
     <use xlink:href="#DejaVuSans-77" x="433.394531"/>
     <use xlink:href="#DejaVuSans-69" x="515.181641"/>
     <use xlink:href="#DejaVuSans-6e" x="542.964844"/>
     <use xlink:href="#DejaVuSans-64" x="606.34375"/>
    </g>
   </g>
   <g id="patch_36">
    <path d="M 419.390625 210.672963 
L 439.390625 210.672963 
L 439.390625 203.672963 
L 419.390625 203.672963 
z
" style="fill: #f9d002"/>
   </g>
   <g id="text_45">
    <!-- solar PV -->
    <g transform="translate(447.390625 210.672963) scale(0.1 -0.1)">
     <use xlink:href="#DejaVuSans-73"/>
     <use xlink:href="#DejaVuSans-6f" x="52.099609"/>
     <use xlink:href="#DejaVuSans-6c" x="113.28125"/>
     <use xlink:href="#DejaVuSans-61" x="141.064453"/>
     <use xlink:href="#DejaVuSans-72" x="202.34375"/>
     <use xlink:href="#DejaVuSans-20" x="243.457031"/>
     <use xlink:href="#DejaVuSans-50" x="275.244141"/>
     <use xlink:href="#DejaVuSans-56" x="335.546875"/>
    </g>
   </g>
   <g id="patch_37">
    <path d="M 419.390625 225.351088 
L 439.390625 225.351088 
L 439.390625 218.351088 
L 419.390625 218.351088 
z
" style="fill: #b8ea04"/>
   </g>
   <g id="text_46">
    <!-- battery storage -->
    <g transform="translate(447.390625 225.351088) scale(0.1 -0.1)">
     <use xlink:href="#DejaVuSans-62"/>
     <use xlink:href="#DejaVuSans-61" x="63.476562"/>
     <use xlink:href="#DejaVuSans-74" x="124.755859"/>
     <use xlink:href="#DejaVuSans-74" x="163.964844"/>
     <use xlink:href="#DejaVuSans-65" x="203.173828"/>
     <use xlink:href="#DejaVuSans-72" x="264.697266"/>
     <use xlink:href="#DejaVuSans-79" x="305.810547"/>
     <use xlink:href="#DejaVuSans-20" x="364.990234"/>
     <use xlink:href="#DejaVuSans-73" x="396.777344"/>
     <use xlink:href="#DejaVuSans-74" x="448.876953"/>
     <use xlink:href="#DejaVuSans-6f" x="488.085938"/>
     <use xlink:href="#DejaVuSans-72" x="549.267578"/>
     <use xlink:href="#DejaVuSans-61" x="590.380859"/>
     <use xlink:href="#DejaVuSans-67" x="651.660156"/>
     <use xlink:href="#DejaVuSans-65" x="715.136719"/>
    </g>
   </g>
   <g id="patch_38">
    <path d="M 419.390625 240.029213 
L 439.390625 240.029213 
L 439.390625 233.029213 
L 419.390625 233.029213 
z
" style="fill: #ea048a"/>
   </g>
   <g id="text_47">
    <!-- hydrogen storage -->
    <g transform="translate(447.390625 240.029213) scale(0.1 -0.1)">
     <use xlink:href="#DejaVuSans-68"/>
     <use xlink:href="#DejaVuSans-79" x="63.378906"/>
     <use xlink:href="#DejaVuSans-64" x="122.558594"/>
     <use xlink:href="#DejaVuSans-72" x="186.035156"/>
     <use xlink:href="#DejaVuSans-6f" x="224.898438"/>
     <use xlink:href="#DejaVuSans-67" x="286.080078"/>
     <use xlink:href="#DejaVuSans-65" x="349.556641"/>
     <use xlink:href="#DejaVuSans-6e" x="411.080078"/>
     <use xlink:href="#DejaVuSans-20" x="474.458984"/>
     <use xlink:href="#DejaVuSans-73" x="506.246094"/>
     <use xlink:href="#DejaVuSans-74" x="558.345703"/>
     <use xlink:href="#DejaVuSans-6f" x="597.554688"/>
     <use xlink:href="#DejaVuSans-72" x="658.736328"/>
     <use xlink:href="#DejaVuSans-61" x="699.849609"/>
     <use xlink:href="#DejaVuSans-67" x="761.128906"/>
     <use xlink:href="#DejaVuSans-65" x="824.605469"/>
    </g>
   </g>
   <g id="patch_39">
    <path d="M 419.390625 254.707338 
L 439.390625 254.707338 
L 439.390625 247.707338 
L 419.390625 247.707338 
z
" style="fill: #70af1d"/>
   </g>
   <g id="text_48">
    <!-- transmission lines -->
    <g transform="translate(447.390625 254.707338) scale(0.1 -0.1)">
     <use xlink:href="#DejaVuSans-74"/>
     <use xlink:href="#DejaVuSans-72" x="39.208984"/>
     <use xlink:href="#DejaVuSans-61" x="80.322266"/>
     <use xlink:href="#DejaVuSans-6e" x="141.601562"/>
     <use xlink:href="#DejaVuSans-73" x="204.980469"/>
     <use xlink:href="#DejaVuSans-6d" x="257.080078"/>
     <use xlink:href="#DejaVuSans-69" x="354.492188"/>
     <use xlink:href="#DejaVuSans-73" x="382.275391"/>
     <use xlink:href="#DejaVuSans-73" x="434.375"/>
     <use xlink:href="#DejaVuSans-69" x="486.474609"/>
     <use xlink:href="#DejaVuSans-6f" x="514.257812"/>
     <use xlink:href="#DejaVuSans-6e" x="575.439453"/>
     <use xlink:href="#DejaVuSans-20" x="638.818359"/>
     <use xlink:href="#DejaVuSans-6c" x="670.605469"/>
     <use xlink:href="#DejaVuSans-69" x="698.388672"/>
     <use xlink:href="#DejaVuSans-6e" x="726.171875"/>
     <use xlink:href="#DejaVuSans-65" x="789.550781"/>
     <use xlink:href="#DejaVuSans-73" x="851.074219"/>
    </g>
   </g>
  </g>
 </g>
 <defs>
  <clipPath id="pee5b209b04">
   <rect x="61.707813" y="7.2" width="485.125" height="149.736"/>
  </clipPath>
 </defs>
</svg>
