<?xml version="1.0" encoding="utf-8" standalone="no"?>
<!DOCTYPE svg PUBLIC "-//W3C//DTD SVG 1.1//EN"
  "http://www.w3.org/Graphics/SVG/1.1/DTD/svg11.dtd">
<svg xmlns:xlink="http://www.w3.org/1999/xlink" width="568.087187pt" height="244.529219pt" viewBox="0 0 568.087187 244.529219" xmlns="http://www.w3.org/2000/svg" version="1.1">
 <metadata>
  <rdf:RDF xmlns:dc="http://purl.org/dc/elements/1.1/" xmlns:cc="http://creativecommons.org/ns#" xmlns:rdf="http://www.w3.org/1999/02/22-rdf-syntax-ns#">
   <cc:Work>
    <dc:type rdf:resource="http://purl.org/dc/dcmitype/StillImage"/>
    <dc:date>2024-11-01T14:53:28.809054</dc:date>
    <dc:format>image/svg+xml</dc:format>
    <dc:creator>
     <cc:Agent>
      <dc:title>Matplotlib v3.5.2, https://matplotlib.org/</dc:title>
     </cc:Agent>
    </dc:creator>
   </cc:Work>
  </rdf:RDF>
 </metadata>
 <defs>
  <style type="text/css">*{stroke-linejoin: round; stroke-linecap: butt}</style>
 </defs>
 <g id="figure_1">
  <g id="patch_1">
   <path d="M 0 244.529219 
L 568.087187 244.529219 
L 568.087187 0 
L 0 0 
z
" style="fill: #ffffff"/>
  </g>
  <g id="axes_1">
   <g id="patch_2">
    <path d="M 53.328125 204.879219 
L 273.448125 204.879219 
L 273.448125 10.999219 
L 53.328125 10.999219 
z
" style="fill: #ffffff"/>
   </g>
   <g id="PolyCollection_1">
    <defs>
     <path id="m9e94c2e651" d="M 53.328125 -41.158469 
L 53.328125 -39.65 
L 90.014792 -39.65 
L 126.701458 -39.65 
L 163.388125 -39.65 
L 200.074792 -39.65 
L 236.761458 -39.65 
L 273.448125 -39.65 
L 273.448125 -41.490324 
L 273.448125 -41.490324 
L 236.761458 -41.490424 
L 200.074792 -41.490424 
L 163.388125 -41.490424 
L 126.701458 -41.491716 
L 90.014792 -41.316675 
L 53.328125 -41.158469 
z
" style="stroke: #08ad97"/>
    </defs>
    <g clip-path="url(#p1d96f0f000)">
     <use xlink:href="#m9e94c2e651" x="0" y="244.529219" style="fill: #08ad97; stroke: #08ad97"/>
    </g>
   </g>
   <g id="PolyCollection_2">
    <defs>
     <path id="m4c8231e306" d="M 53.328125 -41.158624 
L 53.328125 -41.158469 
L 90.014792 -41.316675 
L 126.701458 -41.491716 
L 163.388125 -41.490424 
L 200.074792 -41.490424 
L 236.761458 -41.490424 
L 273.448125 -41.490324 
L 273.448125 -41.490564 
L 273.448125 -41.490564 
L 236.761458 -41.490681 
L 200.074792 -41.490587 
L 163.388125 -41.490629 
L 126.701458 -41.491878 
L 90.014792 -41.316831 
L 53.328125 -41.158624 
z
" style="stroke: #6895dd"/>
    </defs>
    <g clip-path="url(#p1d96f0f000)">
     <use xlink:href="#m4c8231e306" x="0" y="244.529219" style="fill: #6895dd; stroke: #6895dd"/>
    </g>
   </g>
   <g id="PolyCollection_3">
    <defs>
     <path id="m2c785be1d5" d="M 53.328125 -41.16159 
L 53.328125 -41.158624 
L 90.014792 -41.316831 
L 126.701458 -41.491878 
L 163.388125 -41.490629 
L 200.074792 -41.490587 
L 236.761458 -41.490681 
L 273.448125 -41.490564 
L 273.448125 -42.545293 
L 273.448125 -42.545293 
L 236.761458 -41.493775 
L 200.074792 -41.493562 
L 163.388125 -41.493641 
L 126.701458 -41.494851 
L 90.014792 -41.319797 
L 53.328125 -41.16159 
z
" style="stroke: #74c6f2"/>
    </defs>
    <g clip-path="url(#p1d96f0f000)">
     <use xlink:href="#m2c785be1d5" x="0" y="244.529219" style="fill: #74c6f2; stroke: #74c6f2"/>
    </g>
   </g>
   <g id="PolyCollection_4">
    <defs>
     <path id="m3c38a0b2a6" d="M 53.328125 -41.717024 
L 53.328125 -41.16159 
L 90.014792 -41.319797 
L 126.701458 -41.494851 
L 163.388125 -41.493641 
L 200.074792 -41.493562 
L 236.761458 -41.493775 
L 273.448125 -42.545293 
L 273.448125 -55.986837 
L 273.448125 -55.986837 
L 236.761458 -48.369267 
L 200.074792 -46.721969 
L 163.388125 -46.17147 
L 126.701458 -44.233376 
L 90.014792 -42.497519 
L 53.328125 -41.717024 
z
" style="stroke: #235ebc"/>
    </defs>
    <g clip-path="url(#p1d96f0f000)">
     <use xlink:href="#m3c38a0b2a6" x="0" y="244.529219" style="fill: #235ebc; stroke: #235ebc"/>
    </g>
   </g>
   <g id="PolyCollection_5">
    <defs>
     <path id="m8274874289" d="M 53.328125 -42.467499 
L 53.328125 -41.717024 
L 90.014792 -42.497519 
L 126.701458 -44.233376 
L 163.388125 -46.17147 
L 200.074792 -46.721969 
L 236.761458 -48.369267 
L 273.448125 -55.986837 
L 273.448125 -191.550453 
L 273.448125 -191.550453 
L 236.761458 -143.44742 
L 200.074792 -103.839293 
L 163.388125 -72.225162 
L 126.701458 -55.375136 
L 90.014792 -47.209284 
L 53.328125 -42.467499 
z
" style="stroke: #f9d002"/>
    </defs>
    <g clip-path="url(#p1d96f0f000)">
     <use xlink:href="#m8274874289" x="0" y="244.529219" style="fill: #f9d002; stroke: #f9d002"/>
    </g>
   </g>
   <g id="PolyCollection_6">
    <defs>
     <path id="ma202d55056" d="M 53.328125 -45.629962 
L 53.328125 -42.467499 
L 90.014792 -47.209284 
L 126.701458 -55.375136 
L 163.388125 -72.225162 
L 200.074792 -103.839293 
L 236.761458 -143.44742 
L 273.448125 -191.550453 
L 273.448125 -193.832481 
L 273.448125 -193.832481 
L 236.761458 -145.410971 
L 200.074792 -106.399477 
L 163.388125 -75.345676 
L 126.701458 -58.765031 
L 90.014792 -50.617179 
L 53.328125 -45.629962 
z
" style="stroke: #b20101"/>
    </defs>
    <g clip-path="url(#p1d96f0f000)">
     <use xlink:href="#ma202d55056" x="0" y="244.529219" style="fill: #b20101; stroke: #b20101"/>
    </g>
   </g>
   <g id="PolyCollection_7">
    <defs>
     <path id="mb96a993b25" d="M 53.328125 -45.697174 
L 53.328125 -45.629962 
L 90.014792 -50.617179 
L 126.701458 -58.765031 
L 163.388125 -75.345676 
L 200.074792 -106.399477 
L 236.761458 -145.410971 
L 273.448125 -193.832481 
L 273.448125 -193.961088 
L 273.448125 -193.961088 
L 236.761458 -145.539578 
L 200.074792 -106.528084 
L 163.388125 -75.474283 
L 126.701458 -58.893638 
L 90.014792 -50.745786 
L 53.328125 -45.697174 
z
" style="stroke: #707070"/>
    </defs>
    <g clip-path="url(#p1d96f0f000)">
     <use xlink:href="#mb96a993b25" x="0" y="244.529219" style="fill: #707070; stroke: #707070"/>
    </g>
   </g>
   <g id="PolyCollection_8">
    <defs>
     <path id="m73ffef7c80" d="M 53.328125 -45.878231 
L 53.328125 -45.697174 
L 90.014792 -50.745786 
L 126.701458 -58.893638 
L 163.388125 -75.474283 
L 200.074792 -106.528084 
L 236.761458 -145.539578 
L 273.448125 -193.961088 
L 273.448125 -194.122757 
L 273.448125 -194.122757 
L 236.761458 -145.720635 
L 200.074792 -106.709141 
L 163.388125 -75.65534 
L 126.701458 -59.074695 
L 90.014792 -50.926843 
L 53.328125 -45.878231 
z
" style="stroke: #808080"/>
    </defs>
    <g clip-path="url(#p1d96f0f000)">
     <use xlink:href="#m73ffef7c80" x="0" y="244.529219" style="fill: #808080; stroke: #808080"/>
    </g>
   </g>
   <g id="PolyCollection_9">
    <defs>
     <path id="mece86665f8" d="M 53.328125 -46.330165 
L 53.328125 -45.878231 
L 90.014792 -50.926843 
L 126.701458 -59.074695 
L 163.388125 -75.65534 
L 200.074792 -106.709141 
L 236.761458 -145.720635 
L 273.448125 -194.122757 
L 273.448125 -194.738068 
L 273.448125 -194.738068 
L 236.761458 -146.335945 
L 200.074792 -107.324451 
L 163.388125 -76.270651 
L 126.701458 -59.690005 
L 90.014792 -51.542154 
L 53.328125 -46.330165 
z
" style="stroke: #606060"/>
    </defs>
    <g clip-path="url(#p1d96f0f000)">
     <use xlink:href="#mece86665f8" x="0" y="244.529219" style="fill: #606060; stroke: #606060"/>
    </g>
   </g>
   <g id="PolyCollection_10">
    <defs>
     <path id="m3f1f29edf0" d="M 53.328125 -48.627768 
L 53.328125 -46.330165 
L 90.014792 -51.542154 
L 126.701458 -59.690005 
L 163.388125 -76.270651 
L 200.074792 -107.324451 
L 236.761458 -146.335945 
L 273.448125 -194.738068 
L 273.448125 -196.592058 
L 273.448125 -196.592058 
L 236.761458 -148.346171 
L 200.074792 -109.39478 
L 163.388125 -78.601536 
L 126.701458 -62.044641 
L 90.014792 -53.89679 
L 53.328125 -48.627768 
z
" style="stroke: #909090"/>
    </defs>
    <g clip-path="url(#p1d96f0f000)">
     <use xlink:href="#m3f1f29edf0" x="0" y="244.529219" style="fill: #909090; stroke: #909090"/>
    </g>
   </g>
   <g id="PolyCollection_11">
    <defs>
     <path id="mc1ad333a03" d="M 53.328125 -48.691813 
L 53.328125 -48.627768 
L 90.014792 -53.89679 
L 126.701458 -62.044641 
L 163.388125 -78.601536 
L 200.074792 -109.39478 
L 236.761458 -148.346171 
L 273.448125 -196.592058 
L 273.448125 -196.717499 
L 273.448125 -196.717499 
L 236.761458 -148.471611 
L 200.074792 -109.52022 
L 163.388125 -78.726977 
L 126.701458 -62.170082 
L 90.014792 -54.02223 
L 53.328125 -48.691813 
z
" style="stroke: #505050"/>
    </defs>
    <g clip-path="url(#p1d96f0f000)">
     <use xlink:href="#mc1ad333a03" x="0" y="244.529219" style="fill: #505050; stroke: #505050"/>
    </g>
   </g>
   <g id="PolyCollection_12">
    <defs>
     <path id="m643727469d" d="M 53.328125 -48.913213 
L 53.328125 -48.691813 
L 90.014792 -54.02223 
L 126.701458 -62.170082 
L 163.388125 -78.726977 
L 200.074792 -109.52022 
L 236.761458 -148.471611 
L 273.448125 -196.717499 
L 273.448125 -196.934956 
L 273.448125 -196.934956 
L 236.761458 -148.689069 
L 200.074792 -109.737678 
L 163.388125 -78.948376 
L 126.701458 -62.391482 
L 90.014792 -54.24363 
L 53.328125 -48.913213 
z
" style="stroke: #9e5a01"/>
    </defs>
    <g clip-path="url(#p1d96f0f000)">
     <use xlink:href="#m643727469d" x="0" y="244.529219" style="fill: #9e5a01; stroke: #9e5a01"/>
    </g>
   </g>
   <g id="PolyCollection_13">
    <defs>
     <path id="m1891ed1066" d="M 53.328125 -49.730041 
L 53.328125 -48.913213 
L 90.014792 -54.24363 
L 126.701458 -62.391482 
L 163.388125 -78.948376 
L 200.074792 -109.737678 
L 236.761458 -148.689069 
L 273.448125 -196.934956 
L 273.448125 -196.936391 
L 273.448125 -196.936391 
L 236.761458 -148.775318 
L 200.074792 -110.078448 
L 163.388125 -79.391146 
L 126.701458 -62.943732 
L 90.014792 -54.925011 
L 53.328125 -49.730041 
z
" style="stroke: #262626"/>
    </defs>
    <g clip-path="url(#p1d96f0f000)">
     <use xlink:href="#m1891ed1066" x="0" y="244.529219" style="fill: #262626; stroke: #262626"/>
    </g>
   </g>
   <g id="matplotlib.axis_1">
    <g id="xtick_1">
     <g id="line2d_1">
      <defs>
       <path id="m52284717df" d="M 0 0 
L 0 3.5 
" style="stroke: #000000; stroke-width: 0.8"/>
      </defs>
      <g>
       <use xlink:href="#m52284717df" x="53.328125" y="204.879219" style="stroke: #000000; stroke-width: 0.8"/>
      </g>
     </g>
     <g id="text_1">
      <!-- 2020 -->
      <g transform="translate(56.0875 237.329219)rotate(-90)scale(0.1 -0.1)">
       <defs>
        <path id="DejaVuSans-32" d="M 1228 531 
L 3431 531 
L 3431 0 
L 469 0 
L 469 531 
Q 828 903 1448 1529 
Q 2069 2156 2228 2338 
Q 2531 2678 2651 2914 
Q 2772 3150 2772 3378 
Q 2772 3750 2511 3984 
Q 2250 4219 1831 4219 
Q 1534 4219 1204 4116 
Q 875 4013 500 3803 
L 500 4441 
Q 881 4594 1212 4672 
Q 1544 4750 1819 4750 
Q 2544 4750 2975 4387 
Q 3406 4025 3406 3419 
Q 3406 3131 3298 2873 
Q 3191 2616 2906 2266 
Q 2828 2175 2409 1742 
Q 1991 1309 1228 531 
z
" transform="scale(0.015625)"/>
        <path id="DejaVuSans-30" d="M 2034 4250 
Q 1547 4250 1301 3770 
Q 1056 3291 1056 2328 
Q 1056 1369 1301 889 
Q 1547 409 2034 409 
Q 2525 409 2770 889 
Q 3016 1369 3016 2328 
Q 3016 3291 2770 3770 
Q 2525 4250 2034 4250 
z
M 2034 4750 
Q 2819 4750 3233 4129 
Q 3647 3509 3647 2328 
Q 3647 1150 3233 529 
Q 2819 -91 2034 -91 
Q 1250 -91 836 529 
Q 422 1150 422 2328 
Q 422 3509 836 4129 
Q 1250 4750 2034 4750 
z
" transform="scale(0.015625)"/>
       </defs>
       <use xlink:href="#DejaVuSans-32"/>
       <use xlink:href="#DejaVuSans-30" x="63.623047"/>
       <use xlink:href="#DejaVuSans-32" x="127.246094"/>
       <use xlink:href="#DejaVuSans-30" x="190.869141"/>
      </g>
     </g>
    </g>
    <g id="xtick_2">
     <g id="line2d_2">
      <g>
       <use xlink:href="#m52284717df" x="90.014792" y="204.879219" style="stroke: #000000; stroke-width: 0.8"/>
      </g>
     </g>
     <g id="text_2">
      <!-- 2025 -->
      <g transform="translate(92.774167 237.329219)rotate(-90)scale(0.1 -0.1)">
       <defs>
        <path id="DejaVuSans-35" d="M 691 4666 
L 3169 4666 
L 3169 4134 
L 1269 4134 
L 1269 2991 
Q 1406 3038 1543 3061 
Q 1681 3084 1819 3084 
Q 2600 3084 3056 2656 
Q 3513 2228 3513 1497 
Q 3513 744 3044 326 
Q 2575 -91 1722 -91 
Q 1428 -91 1123 -41 
Q 819 9 494 109 
L 494 744 
Q 775 591 1075 516 
Q 1375 441 1709 441 
Q 2250 441 2565 725 
Q 2881 1009 2881 1497 
Q 2881 1984 2565 2268 
Q 2250 2553 1709 2553 
Q 1456 2553 1204 2497 
Q 953 2441 691 2322 
L 691 4666 
z
" transform="scale(0.015625)"/>
       </defs>
       <use xlink:href="#DejaVuSans-32"/>
       <use xlink:href="#DejaVuSans-30" x="63.623047"/>
       <use xlink:href="#DejaVuSans-32" x="127.246094"/>
       <use xlink:href="#DejaVuSans-35" x="190.869141"/>
      </g>
     </g>
    </g>
    <g id="xtick_3">
     <g id="line2d_3">
      <g>
       <use xlink:href="#m52284717df" x="126.701458" y="204.879219" style="stroke: #000000; stroke-width: 0.8"/>
      </g>
     </g>
     <g id="text_3">
      <!-- 2030 -->
      <g transform="translate(129.460833 237.329219)rotate(-90)scale(0.1 -0.1)">
       <defs>
        <path id="DejaVuSans-33" d="M 2597 2516 
Q 3050 2419 3304 2112 
Q 3559 1806 3559 1356 
Q 3559 666 3084 287 
Q 2609 -91 1734 -91 
Q 1441 -91 1130 -33 
Q 819 25 488 141 
L 488 750 
Q 750 597 1062 519 
Q 1375 441 1716 441 
Q 2309 441 2620 675 
Q 2931 909 2931 1356 
Q 2931 1769 2642 2001 
Q 2353 2234 1838 2234 
L 1294 2234 
L 1294 2753 
L 1863 2753 
Q 2328 2753 2575 2939 
Q 2822 3125 2822 3475 
Q 2822 3834 2567 4026 
Q 2313 4219 1838 4219 
Q 1578 4219 1281 4162 
Q 984 4106 628 3988 
L 628 4550 
Q 988 4650 1302 4700 
Q 1616 4750 1894 4750 
Q 2613 4750 3031 4423 
Q 3450 4097 3450 3541 
Q 3450 3153 3228 2886 
Q 3006 2619 2597 2516 
z
" transform="scale(0.015625)"/>
       </defs>
       <use xlink:href="#DejaVuSans-32"/>
       <use xlink:href="#DejaVuSans-30" x="63.623047"/>
       <use xlink:href="#DejaVuSans-33" x="127.246094"/>
       <use xlink:href="#DejaVuSans-30" x="190.869141"/>
      </g>
     </g>
    </g>
    <g id="xtick_4">
     <g id="line2d_4">
      <g>
       <use xlink:href="#m52284717df" x="163.388125" y="204.879219" style="stroke: #000000; stroke-width: 0.8"/>
      </g>
     </g>
     <g id="text_4">
      <!-- 2035 -->
      <g transform="translate(166.1475 237.329219)rotate(-90)scale(0.1 -0.1)">
       <use xlink:href="#DejaVuSans-32"/>
       <use xlink:href="#DejaVuSans-30" x="63.623047"/>
       <use xlink:href="#DejaVuSans-33" x="127.246094"/>
       <use xlink:href="#DejaVuSans-35" x="190.869141"/>
      </g>
     </g>
    </g>
    <g id="xtick_5">
     <g id="line2d_5">
      <g>
       <use xlink:href="#m52284717df" x="200.074792" y="204.879219" style="stroke: #000000; stroke-width: 0.8"/>
      </g>
     </g>
     <g id="text_5">
      <!-- 2040 -->
      <g transform="translate(202.834167 237.329219)rotate(-90)scale(0.1 -0.1)">
       <defs>
        <path id="DejaVuSans-34" d="M 2419 4116 
L 825 1625 
L 2419 1625 
L 2419 4116 
z
M 2253 4666 
L 3047 4666 
L 3047 1625 
L 3713 1625 
L 3713 1100 
L 3047 1100 
L 3047 0 
L 2419 0 
L 2419 1100 
L 313 1100 
L 313 1709 
L 2253 4666 
z
" transform="scale(0.015625)"/>
       </defs>
       <use xlink:href="#DejaVuSans-32"/>
       <use xlink:href="#DejaVuSans-30" x="63.623047"/>
       <use xlink:href="#DejaVuSans-34" x="127.246094"/>
       <use xlink:href="#DejaVuSans-30" x="190.869141"/>
      </g>
     </g>
    </g>
    <g id="xtick_6">
     <g id="line2d_6">
      <g>
       <use xlink:href="#m52284717df" x="236.761458" y="204.879219" style="stroke: #000000; stroke-width: 0.8"/>
      </g>
     </g>
     <g id="text_6">
      <!-- 2045 -->
      <g transform="translate(239.520833 237.329219)rotate(-90)scale(0.1 -0.1)">
       <use xlink:href="#DejaVuSans-32"/>
       <use xlink:href="#DejaVuSans-30" x="63.623047"/>
       <use xlink:href="#DejaVuSans-34" x="127.246094"/>
       <use xlink:href="#DejaVuSans-35" x="190.869141"/>
      </g>
     </g>
    </g>
    <g id="xtick_7">
     <g id="line2d_7">
      <g>
       <use xlink:href="#m52284717df" x="273.448125" y="204.879219" style="stroke: #000000; stroke-width: 0.8"/>
      </g>
     </g>
     <g id="text_7">
      <!-- 2050 -->
      <g transform="translate(276.2075 237.329219)rotate(-90)scale(0.1 -0.1)">
       <use xlink:href="#DejaVuSans-32"/>
       <use xlink:href="#DejaVuSans-30" x="63.623047"/>
       <use xlink:href="#DejaVuSans-35" x="127.246094"/>
       <use xlink:href="#DejaVuSans-30" x="190.869141"/>
      </g>
     </g>
    </g>
   </g>
   <g id="matplotlib.axis_2">
    <g id="ytick_1">
     <g id="line2d_8">
      <path d="M 53.328125 204.879219 
L 273.448125 204.879219 
" clip-path="url(#p1d96f0f000)" style="fill: none; stroke: #b0b0b0; stroke-width: 0.8; stroke-linecap: square"/>
     </g>
     <g id="line2d_9">
      <defs>
       <path id="m92a0dc6883" d="M 0 0 
L -3.5 0 
" style="stroke: #000000; stroke-width: 0.8"/>
      </defs>
      <g>
       <use xlink:href="#m92a0dc6883" x="53.328125" y="204.879219" style="stroke: #000000; stroke-width: 0.8"/>
      </g>
     </g>
     <g id="text_8">
      <!-- 0 -->
      <g transform="translate(39.965625 208.678438)scale(0.1 -0.1)">
       <use xlink:href="#DejaVuSans-30"/>
      </g>
     </g>
    </g>
    <g id="ytick_2">
     <g id="line2d_10">
      <path d="M 53.328125 172.565885 
L 273.448125 172.565885 
" clip-path="url(#p1d96f0f000)" style="fill: none; stroke: #b0b0b0; stroke-width: 0.8; stroke-linecap: square"/>
     </g>
     <g id="line2d_11">
      <g>
       <use xlink:href="#m92a0dc6883" x="53.328125" y="172.565885" style="stroke: #000000; stroke-width: 0.8"/>
      </g>
     </g>
     <g id="text_9">
      <!-- 1000 -->
      <g transform="translate(20.878125 176.365104)scale(0.1 -0.1)">
       <defs>
        <path id="DejaVuSans-31" d="M 794 531 
L 1825 531 
L 1825 4091 
L 703 3866 
L 703 4441 
L 1819 4666 
L 2450 4666 
L 2450 531 
L 3481 531 
L 3481 0 
L 794 0 
L 794 531 
z
" transform="scale(0.015625)"/>
       </defs>
       <use xlink:href="#DejaVuSans-31"/>
       <use xlink:href="#DejaVuSans-30" x="63.623047"/>
       <use xlink:href="#DejaVuSans-30" x="127.246094"/>
       <use xlink:href="#DejaVuSans-30" x="190.869141"/>
      </g>
     </g>
    </g>
    <g id="ytick_3">
     <g id="line2d_12">
      <path d="M 53.328125 140.252552 
L 273.448125 140.252552 
" clip-path="url(#p1d96f0f000)" style="fill: none; stroke: #b0b0b0; stroke-width: 0.8; stroke-linecap: square"/>
     </g>
     <g id="line2d_13">
      <g>
       <use xlink:href="#m92a0dc6883" x="53.328125" y="140.252552" style="stroke: #000000; stroke-width: 0.8"/>
      </g>
     </g>
     <g id="text_10">
      <!-- 2000 -->
      <g transform="translate(20.878125 144.051771)scale(0.1 -0.1)">
       <use xlink:href="#DejaVuSans-32"/>
       <use xlink:href="#DejaVuSans-30" x="63.623047"/>
       <use xlink:href="#DejaVuSans-30" x="127.246094"/>
       <use xlink:href="#DejaVuSans-30" x="190.869141"/>
      </g>
     </g>
    </g>
    <g id="ytick_4">
     <g id="line2d_14">
      <path d="M 53.328125 107.939219 
L 273.448125 107.939219 
" clip-path="url(#p1d96f0f000)" style="fill: none; stroke: #b0b0b0; stroke-width: 0.8; stroke-linecap: square"/>
     </g>
     <g id="line2d_15">
      <g>
       <use xlink:href="#m92a0dc6883" x="53.328125" y="107.939219" style="stroke: #000000; stroke-width: 0.8"/>
      </g>
     </g>
     <g id="text_11">
      <!-- 3000 -->
      <g transform="translate(20.878125 111.738438)scale(0.1 -0.1)">
       <use xlink:href="#DejaVuSans-33"/>
       <use xlink:href="#DejaVuSans-30" x="63.623047"/>
       <use xlink:href="#DejaVuSans-30" x="127.246094"/>
       <use xlink:href="#DejaVuSans-30" x="190.869141"/>
      </g>
     </g>
    </g>
    <g id="ytick_5">
     <g id="line2d_16">
      <path d="M 53.328125 75.625885 
L 273.448125 75.625885 
" clip-path="url(#p1d96f0f000)" style="fill: none; stroke: #b0b0b0; stroke-width: 0.8; stroke-linecap: square"/>
     </g>
     <g id="line2d_17">
      <g>
       <use xlink:href="#m92a0dc6883" x="53.328125" y="75.625885" style="stroke: #000000; stroke-width: 0.8"/>
      </g>
     </g>
     <g id="text_12">
      <!-- 4000 -->
      <g transform="translate(20.878125 79.425104)scale(0.1 -0.1)">
       <use xlink:href="#DejaVuSans-34"/>
       <use xlink:href="#DejaVuSans-30" x="63.623047"/>
       <use xlink:href="#DejaVuSans-30" x="127.246094"/>
       <use xlink:href="#DejaVuSans-30" x="190.869141"/>
      </g>
     </g>
    </g>
    <g id="ytick_6">
     <g id="line2d_18">
      <path d="M 53.328125 43.312552 
L 273.448125 43.312552 
" clip-path="url(#p1d96f0f000)" style="fill: none; stroke: #b0b0b0; stroke-width: 0.8; stroke-linecap: square"/>
     </g>
     <g id="line2d_19">
      <g>
       <use xlink:href="#m92a0dc6883" x="53.328125" y="43.312552" style="stroke: #000000; stroke-width: 0.8"/>
      </g>
     </g>
     <g id="text_13">
      <!-- 5000 -->
      <g transform="translate(20.878125 47.111771)scale(0.1 -0.1)">
       <use xlink:href="#DejaVuSans-35"/>
       <use xlink:href="#DejaVuSans-30" x="63.623047"/>
       <use xlink:href="#DejaVuSans-30" x="127.246094"/>
       <use xlink:href="#DejaVuSans-30" x="190.869141"/>
      </g>
     </g>
    </g>
    <g id="ytick_7">
     <g id="line2d_20">
      <path d="M 53.328125 10.999219 
L 273.448125 10.999219 
" clip-path="url(#p1d96f0f000)" style="fill: none; stroke: #b0b0b0; stroke-width: 0.8; stroke-linecap: square"/>
     </g>
     <g id="line2d_21">
      <g>
       <use xlink:href="#m92a0dc6883" x="53.328125" y="10.999219" style="stroke: #000000; stroke-width: 0.8"/>
      </g>
     </g>
     <g id="text_14">
      <!-- 6000 -->
      <g transform="translate(20.878125 14.798438)scale(0.1 -0.1)">
       <defs>
        <path id="DejaVuSans-36" d="M 2113 2584 
Q 1688 2584 1439 2293 
Q 1191 2003 1191 1497 
Q 1191 994 1439 701 
Q 1688 409 2113 409 
Q 2538 409 2786 701 
Q 3034 994 3034 1497 
Q 3034 2003 2786 2293 
Q 2538 2584 2113 2584 
z
M 3366 4563 
L 3366 3988 
Q 3128 4100 2886 4159 
Q 2644 4219 2406 4219 
Q 1781 4219 1451 3797 
Q 1122 3375 1075 2522 
Q 1259 2794 1537 2939 
Q 1816 3084 2150 3084 
Q 2853 3084 3261 2657 
Q 3669 2231 3669 1497 
Q 3669 778 3244 343 
Q 2819 -91 2113 -91 
Q 1303 -91 875 529 
Q 447 1150 447 2328 
Q 447 3434 972 4092 
Q 1497 4750 2381 4750 
Q 2619 4750 2861 4703 
Q 3103 4656 3366 4563 
z
" transform="scale(0.015625)"/>
       </defs>
       <use xlink:href="#DejaVuSans-36"/>
       <use xlink:href="#DejaVuSans-30" x="63.623047"/>
       <use xlink:href="#DejaVuSans-30" x="127.246094"/>
       <use xlink:href="#DejaVuSans-30" x="190.869141"/>
      </g>
     </g>
    </g>
    <g id="text_15">
     <!-- Capacity [GW] -->
     <g transform="translate(14.798438 144.099375)rotate(-90)scale(0.1 -0.1)">
      <defs>
       <path id="DejaVuSans-43" d="M 4122 4306 
L 4122 3641 
Q 3803 3938 3442 4084 
Q 3081 4231 2675 4231 
Q 1875 4231 1450 3742 
Q 1025 3253 1025 2328 
Q 1025 1406 1450 917 
Q 1875 428 2675 428 
Q 3081 428 3442 575 
Q 3803 722 4122 1019 
L 4122 359 
Q 3791 134 3420 21 
Q 3050 -91 2638 -91 
Q 1578 -91 968 557 
Q 359 1206 359 2328 
Q 359 3453 968 4101 
Q 1578 4750 2638 4750 
Q 3056 4750 3426 4639 
Q 3797 4528 4122 4306 
z
" transform="scale(0.015625)"/>
       <path id="DejaVuSans-61" d="M 2194 1759 
Q 1497 1759 1228 1600 
Q 959 1441 959 1056 
Q 959 750 1161 570 
Q 1363 391 1709 391 
Q 2188 391 2477 730 
Q 2766 1069 2766 1631 
L 2766 1759 
L 2194 1759 
z
M 3341 1997 
L 3341 0 
L 2766 0 
L 2766 531 
Q 2569 213 2275 61 
Q 1981 -91 1556 -91 
Q 1019 -91 701 211 
Q 384 513 384 1019 
Q 384 1609 779 1909 
Q 1175 2209 1959 2209 
L 2766 2209 
L 2766 2266 
Q 2766 2663 2505 2880 
Q 2244 3097 1772 3097 
Q 1472 3097 1187 3025 
Q 903 2953 641 2809 
L 641 3341 
Q 956 3463 1253 3523 
Q 1550 3584 1831 3584 
Q 2591 3584 2966 3190 
Q 3341 2797 3341 1997 
z
" transform="scale(0.015625)"/>
       <path id="DejaVuSans-70" d="M 1159 525 
L 1159 -1331 
L 581 -1331 
L 581 3500 
L 1159 3500 
L 1159 2969 
Q 1341 3281 1617 3432 
Q 1894 3584 2278 3584 
Q 2916 3584 3314 3078 
Q 3713 2572 3713 1747 
Q 3713 922 3314 415 
Q 2916 -91 2278 -91 
Q 1894 -91 1617 61 
Q 1341 213 1159 525 
z
M 3116 1747 
Q 3116 2381 2855 2742 
Q 2594 3103 2138 3103 
Q 1681 3103 1420 2742 
Q 1159 2381 1159 1747 
Q 1159 1113 1420 752 
Q 1681 391 2138 391 
Q 2594 391 2855 752 
Q 3116 1113 3116 1747 
z
" transform="scale(0.015625)"/>
       <path id="DejaVuSans-63" d="M 3122 3366 
L 3122 2828 
Q 2878 2963 2633 3030 
Q 2388 3097 2138 3097 
Q 1578 3097 1268 2742 
Q 959 2388 959 1747 
Q 959 1106 1268 751 
Q 1578 397 2138 397 
Q 2388 397 2633 464 
Q 2878 531 3122 666 
L 3122 134 
Q 2881 22 2623 -34 
Q 2366 -91 2075 -91 
Q 1284 -91 818 406 
Q 353 903 353 1747 
Q 353 2603 823 3093 
Q 1294 3584 2113 3584 
Q 2378 3584 2631 3529 
Q 2884 3475 3122 3366 
z
" transform="scale(0.015625)"/>
       <path id="DejaVuSans-69" d="M 603 3500 
L 1178 3500 
L 1178 0 
L 603 0 
L 603 3500 
z
M 603 4863 
L 1178 4863 
L 1178 4134 
L 603 4134 
L 603 4863 
z
" transform="scale(0.015625)"/>
       <path id="DejaVuSans-74" d="M 1172 4494 
L 1172 3500 
L 2356 3500 
L 2356 3053 
L 1172 3053 
L 1172 1153 
Q 1172 725 1289 603 
Q 1406 481 1766 481 
L 2356 481 
L 2356 0 
L 1766 0 
Q 1100 0 847 248 
Q 594 497 594 1153 
L 594 3053 
L 172 3053 
L 172 3500 
L 594 3500 
L 594 4494 
L 1172 4494 
z
" transform="scale(0.015625)"/>
       <path id="DejaVuSans-79" d="M 2059 -325 
Q 1816 -950 1584 -1140 
Q 1353 -1331 966 -1331 
L 506 -1331 
L 506 -850 
L 844 -850 
Q 1081 -850 1212 -737 
Q 1344 -625 1503 -206 
L 1606 56 
L 191 3500 
L 800 3500 
L 1894 763 
L 2988 3500 
L 3597 3500 
L 2059 -325 
z
" transform="scale(0.015625)"/>
       <path id="DejaVuSans-20" transform="scale(0.015625)"/>
       <path id="DejaVuSans-5b" d="M 550 4863 
L 1875 4863 
L 1875 4416 
L 1125 4416 
L 1125 -397 
L 1875 -397 
L 1875 -844 
L 550 -844 
L 550 4863 
z
" transform="scale(0.015625)"/>
       <path id="DejaVuSans-47" d="M 3809 666 
L 3809 1919 
L 2778 1919 
L 2778 2438 
L 4434 2438 
L 4434 434 
Q 4069 175 3628 42 
Q 3188 -91 2688 -91 
Q 1594 -91 976 548 
Q 359 1188 359 2328 
Q 359 3472 976 4111 
Q 1594 4750 2688 4750 
Q 3144 4750 3555 4637 
Q 3966 4525 4313 4306 
L 4313 3634 
Q 3963 3931 3569 4081 
Q 3175 4231 2741 4231 
Q 1884 4231 1454 3753 
Q 1025 3275 1025 2328 
Q 1025 1384 1454 906 
Q 1884 428 2741 428 
Q 3075 428 3337 486 
Q 3600 544 3809 666 
z
" transform="scale(0.015625)"/>
       <path id="DejaVuSans-57" d="M 213 4666 
L 850 4666 
L 1831 722 
L 2809 4666 
L 3519 4666 
L 4500 722 
L 5478 4666 
L 6119 4666 
L 4947 0 
L 4153 0 
L 3169 4050 
L 2175 0 
L 1381 0 
L 213 4666 
z
" transform="scale(0.015625)"/>
       <path id="DejaVuSans-5d" d="M 1947 4863 
L 1947 -844 
L 622 -844 
L 622 -397 
L 1369 -397 
L 1369 4416 
L 622 4416 
L 622 4863 
L 1947 4863 
z
" transform="scale(0.015625)"/>
      </defs>
      <use xlink:href="#DejaVuSans-43"/>
      <use xlink:href="#DejaVuSans-61" x="69.824219"/>
      <use xlink:href="#DejaVuSans-70" x="131.103516"/>
      <use xlink:href="#DejaVuSans-61" x="194.580078"/>
      <use xlink:href="#DejaVuSans-63" x="255.859375"/>
      <use xlink:href="#DejaVuSans-69" x="310.839844"/>
      <use xlink:href="#DejaVuSans-74" x="338.623047"/>
      <use xlink:href="#DejaVuSans-79" x="377.832031"/>
      <use xlink:href="#DejaVuSans-20" x="437.011719"/>
      <use xlink:href="#DejaVuSans-5b" x="468.798828"/>
      <use xlink:href="#DejaVuSans-47" x="507.8125"/>
      <use xlink:href="#DejaVuSans-57" x="585.302734"/>
      <use xlink:href="#DejaVuSans-5d" x="684.179688"/>
     </g>
    </g>
   </g>
   <g id="line2d_22">
    <path d="M 53.328125 203.37075 
L 90.014792 203.212544 
L 126.701458 203.037502 
L 163.388125 203.038794 
L 200.074792 203.038794 
L 236.761458 203.038794 
L 273.448125 203.038895 
" clip-path="url(#p1d96f0f000)" style="fill: none; stroke: #08ad97; stroke-width: 1.5; stroke-linecap: square"/>
   </g>
   <g id="line2d_23">
    <path d="M 53.328125 203.370595 
L 90.014792 203.212388 
L 126.701458 203.037341 
L 163.388125 203.03859 
L 200.074792 203.038631 
L 236.761458 203.038538 
L 273.448125 203.038654 
" clip-path="url(#p1d96f0f000)" style="fill: none; stroke: #6895dd; stroke-width: 1.5; stroke-linecap: square"/>
   </g>
   <g id="line2d_24">
    <path d="M 53.328125 203.367629 
L 90.014792 203.209421 
L 126.701458 203.034368 
L 163.388125 203.035578 
L 200.074792 203.035656 
L 236.761458 203.035443 
L 273.448125 201.983926 
" clip-path="url(#p1d96f0f000)" style="fill: none; stroke: #74c6f2; stroke-width: 1.5; stroke-linecap: square"/>
   </g>
   <g id="line2d_25">
    <path d="M 53.328125 202.812195 
L 90.014792 202.031699 
L 126.701458 200.295842 
L 163.388125 198.357748 
L 200.074792 197.80725 
L 236.761458 196.159952 
L 273.448125 188.542382 
" clip-path="url(#p1d96f0f000)" style="fill: none; stroke: #235ebc; stroke-width: 1.5; stroke-linecap: square"/>
   </g>
   <g id="line2d_26">
    <path d="M 53.328125 202.06172 
L 90.014792 197.319934 
L 126.701458 189.154083 
L 163.388125 172.304057 
L 200.074792 140.689926 
L 236.761458 101.081799 
L 273.448125 52.978766 
" clip-path="url(#p1d96f0f000)" style="fill: none; stroke: #f9d002; stroke-width: 1.5; stroke-linecap: square"/>
   </g>
   <g id="line2d_27">
    <path d="M 53.328125 198.899256 
L 90.014792 193.912039 
L 126.701458 185.764188 
L 163.388125 169.183543 
L 200.074792 138.129742 
L 236.761458 99.118248 
L 273.448125 50.696737 
" clip-path="url(#p1d96f0f000)" style="fill: none; stroke: #b20101; stroke-width: 1.5; stroke-linecap: square"/>
   </g>
   <g id="line2d_28">
    <path d="M 53.328125 198.832045 
L 90.014792 193.783432 
L 126.701458 185.635581 
L 163.388125 169.054936 
L 200.074792 138.001135 
L 236.761458 98.989641 
L 273.448125 50.56813 
" clip-path="url(#p1d96f0f000)" style="fill: none; stroke: #707070; stroke-width: 1.5; stroke-linecap: square"/>
   </g>
   <g id="line2d_29">
    <path d="M 53.328125 198.650988 
L 90.014792 193.602375 
L 126.701458 185.454524 
L 163.388125 168.873879 
L 200.074792 137.820078 
L 236.761458 98.808584 
L 273.448125 50.406461 
" clip-path="url(#p1d96f0f000)" style="fill: none; stroke: #808080; stroke-width: 1.5; stroke-linecap: square"/>
   </g>
   <g id="line2d_30">
    <path d="M 53.328125 198.199053 
L 90.014792 192.987065 
L 126.701458 184.839213 
L 163.388125 168.258568 
L 200.074792 137.204767 
L 236.761458 98.193274 
L 273.448125 49.791151 
" clip-path="url(#p1d96f0f000)" style="fill: none; stroke: #606060; stroke-width: 1.5; stroke-linecap: square"/>
   </g>
   <g id="line2d_31">
    <path d="M 53.328125 195.90145 
L 90.014792 190.632429 
L 126.701458 182.484577 
L 163.388125 165.927683 
L 200.074792 135.134439 
L 236.761458 96.183048 
L 273.448125 47.93716 
" clip-path="url(#p1d96f0f000)" style="fill: none; stroke: #909090; stroke-width: 1.5; stroke-linecap: square"/>
   </g>
   <g id="line2d_32">
    <path d="M 53.328125 195.837405 
L 90.014792 190.506989 
L 126.701458 182.359137 
L 163.388125 165.802242 
L 200.074792 135.008999 
L 236.761458 96.057608 
L 273.448125 47.81172 
" clip-path="url(#p1d96f0f000)" style="fill: none; stroke: #505050; stroke-width: 1.5; stroke-linecap: square"/>
   </g>
   <g id="line2d_33">
    <path d="M 53.328125 195.616006 
L 90.014792 190.285589 
L 126.701458 182.137737 
L 163.388125 165.580842 
L 200.074792 134.791541 
L 236.761458 95.84015 
L 273.448125 47.594262 
" clip-path="url(#p1d96f0f000)" style="fill: none; stroke: #9e5a01; stroke-width: 1.5; stroke-linecap: square"/>
   </g>
   <g id="line2d_34">
    <path d="M 53.328125 194.799178 
L 90.014792 189.604208 
L 126.701458 181.585487 
L 163.388125 165.138072 
L 200.074792 134.450771 
L 236.761458 95.753901 
L 273.448125 47.592828 
" clip-path="url(#p1d96f0f000)" style="fill: none; stroke: #262626; stroke-width: 1.5; stroke-linecap: square"/>
   </g>
   <g id="patch_3">
    <path d="M 53.328125 204.879219 
L 53.328125 10.999219 
" style="fill: none; stroke: #000000; stroke-width: 0.8; stroke-linejoin: miter; stroke-linecap: square"/>
   </g>
   <g id="patch_4">
    <path d="M 273.448125 204.879219 
L 273.448125 10.999219 
" style="fill: none; stroke: #000000; stroke-width: 0.8; stroke-linejoin: miter; stroke-linecap: square"/>
   </g>
   <g id="patch_5">
    <path d="M 53.328125 204.879219 
L 273.448125 204.879219 
" style="fill: none; stroke: #000000; stroke-width: 0.8; stroke-linejoin: miter; stroke-linecap: square"/>
   </g>
   <g id="patch_6">
    <path d="M 53.328125 10.999219 
L 273.448125 10.999219 
" style="fill: none; stroke: #000000; stroke-width: 0.8; stroke-linejoin: miter; stroke-linecap: square"/>
   </g>
   <g id="text_16">
    <!-- SEA_IRENA_DEC -->
    <g transform="translate(57.730525 24.387219)scale(0.09 -0.09)">
     <defs>
      <path id="DejaVuSans-53" d="M 3425 4513 
L 3425 3897 
Q 3066 4069 2747 4153 
Q 2428 4238 2131 4238 
Q 1616 4238 1336 4038 
Q 1056 3838 1056 3469 
Q 1056 3159 1242 3001 
Q 1428 2844 1947 2747 
L 2328 2669 
Q 3034 2534 3370 2195 
Q 3706 1856 3706 1288 
Q 3706 609 3251 259 
Q 2797 -91 1919 -91 
Q 1588 -91 1214 -16 
Q 841 59 441 206 
L 441 856 
Q 825 641 1194 531 
Q 1563 422 1919 422 
Q 2459 422 2753 634 
Q 3047 847 3047 1241 
Q 3047 1584 2836 1778 
Q 2625 1972 2144 2069 
L 1759 2144 
Q 1053 2284 737 2584 
Q 422 2884 422 3419 
Q 422 4038 858 4394 
Q 1294 4750 2059 4750 
Q 2388 4750 2728 4690 
Q 3069 4631 3425 4513 
z
" transform="scale(0.015625)"/>
      <path id="DejaVuSans-45" d="M 628 4666 
L 3578 4666 
L 3578 4134 
L 1259 4134 
L 1259 2753 
L 3481 2753 
L 3481 2222 
L 1259 2222 
L 1259 531 
L 3634 531 
L 3634 0 
L 628 0 
L 628 4666 
z
" transform="scale(0.015625)"/>
      <path id="DejaVuSans-41" d="M 2188 4044 
L 1331 1722 
L 3047 1722 
L 2188 4044 
z
M 1831 4666 
L 2547 4666 
L 4325 0 
L 3669 0 
L 3244 1197 
L 1141 1197 
L 716 0 
L 50 0 
L 1831 4666 
z
" transform="scale(0.015625)"/>
      <path id="DejaVuSans-5f" d="M 3263 -1063 
L 3263 -1509 
L -63 -1509 
L -63 -1063 
L 3263 -1063 
z
" transform="scale(0.015625)"/>
      <path id="DejaVuSans-49" d="M 628 4666 
L 1259 4666 
L 1259 0 
L 628 0 
L 628 4666 
z
" transform="scale(0.015625)"/>
      <path id="DejaVuSans-52" d="M 2841 2188 
Q 3044 2119 3236 1894 
Q 3428 1669 3622 1275 
L 4263 0 
L 3584 0 
L 2988 1197 
Q 2756 1666 2539 1819 
Q 2322 1972 1947 1972 
L 1259 1972 
L 1259 0 
L 628 0 
L 628 4666 
L 2053 4666 
Q 2853 4666 3247 4331 
Q 3641 3997 3641 3322 
Q 3641 2881 3436 2590 
Q 3231 2300 2841 2188 
z
M 1259 4147 
L 1259 2491 
L 2053 2491 
Q 2509 2491 2742 2702 
Q 2975 2913 2975 3322 
Q 2975 3731 2742 3939 
Q 2509 4147 2053 4147 
L 1259 4147 
z
" transform="scale(0.015625)"/>
      <path id="DejaVuSans-4e" d="M 628 4666 
L 1478 4666 
L 3547 763 
L 3547 4666 
L 4159 4666 
L 4159 0 
L 3309 0 
L 1241 3903 
L 1241 0 
L 628 0 
L 628 4666 
z
" transform="scale(0.015625)"/>
      <path id="DejaVuSans-44" d="M 1259 4147 
L 1259 519 
L 2022 519 
Q 2988 519 3436 956 
Q 3884 1394 3884 2338 
Q 3884 3275 3436 3711 
Q 2988 4147 2022 4147 
L 1259 4147 
z
M 628 4666 
L 1925 4666 
Q 3281 4666 3915 4102 
Q 4550 3538 4550 2338 
Q 4550 1131 3912 565 
Q 3275 0 1925 0 
L 628 0 
L 628 4666 
z
" transform="scale(0.015625)"/>
     </defs>
     <use xlink:href="#DejaVuSans-53"/>
     <use xlink:href="#DejaVuSans-45" x="63.476562"/>
     <use xlink:href="#DejaVuSans-41" x="126.660156"/>
     <use xlink:href="#DejaVuSans-5f" x="195.068359"/>
     <use xlink:href="#DejaVuSans-49" x="245.068359"/>
     <use xlink:href="#DejaVuSans-52" x="274.560547"/>
     <use xlink:href="#DejaVuSans-45" x="344.042969"/>
     <use xlink:href="#DejaVuSans-4e" x="407.226562"/>
     <use xlink:href="#DejaVuSans-41" x="482.03125"/>
     <use xlink:href="#DejaVuSans-5f" x="550.439453"/>
     <use xlink:href="#DejaVuSans-44" x="600.439453"/>
     <use xlink:href="#DejaVuSans-45" x="677.441406"/>
     <use xlink:href="#DejaVuSans-43" x="740.625"/>
    </g>
   </g>
  </g>
  <g id="axes_2">
   <g id="patch_7">
    <path d="M 335.928125 204.879219 
L 556.048125 204.879219 
L 556.048125 10.999219 
L 335.928125 10.999219 
z
" style="fill: #ffffff"/>
   </g>
   <g id="PolyCollection_14">
    <defs>
     <path id="mb56f4c1536" d="M 335.928125 -52.575319 
L 335.928125 -52.575333 
L 372.614792 -52.575333 
L 409.301458 -52.575333 
L 445.988125 -52.575333 
L 482.674792 -52.575333 
L 519.361458 -52.575333 
L 556.048125 -52.575333 
L 556.048125 -47.578931 
L 556.048125 -47.578931 
L 519.361458 -49.005932 
L 482.674792 -50.6306 
L 445.988125 -51.94617 
L 409.301458 -52.536642 
L 372.614792 -52.575306 
L 335.928125 -52.575319 
z
" style="stroke: #b8ea04"/>
    </defs>
    <g clip-path="url(#p23089143f4)">
     <use xlink:href="#mb56f4c1536" x="0" y="244.529219" style="fill: #b8ea04; stroke: #b8ea04"/>
    </g>
   </g>
   <g id="PolyCollection_15">
    <defs>
     <path id="m2f25470cf0" d="M 335.928125 -63.141889 
L 335.928125 -52.575333 
L 372.614792 -52.575333 
L 409.301458 -52.575333 
L 445.988125 -52.575333 
L 482.674792 -52.575333 
L 519.361458 -52.575333 
L 556.048125 -52.575333 
L 556.048125 -65.26363 
L 556.048125 -65.26363 
L 519.361458 -65.354046 
L 482.674792 -65.451688 
L 445.988125 -65.428268 
L 409.301458 -65.472137 
L 372.614792 -64.251284 
L 335.928125 -63.141889 
z
" style="stroke: #08ad97"/>
    </defs>
    <g clip-path="url(#p23089143f4)">
     <use xlink:href="#m2f25470cf0" x="0" y="244.529219" style="fill: #08ad97; stroke: #08ad97"/>
    </g>
   </g>
   <g id="PolyCollection_16">
    <defs>
     <path id="m6913b458c9" d="M 335.928125 -52.575306 
L 335.928125 -52.575319 
L 372.614792 -52.575306 
L 409.301458 -52.536642 
L 445.988125 -51.94617 
L 482.674792 -50.6306 
L 519.361458 -49.005932 
L 556.048125 -47.578931 
L 556.048125 -47.578167 
L 556.048125 -47.578167 
L 519.361458 -49.005236 
L 482.674792 -50.630536 
L 445.988125 -51.945855 
L 409.301458 -52.536588 
L 372.614792 -52.57529 
L 335.928125 -52.575306 
z
" style="stroke: #ea048a"/>
    </defs>
    <g clip-path="url(#p23089143f4)">
     <use xlink:href="#m6913b458c9" x="0" y="244.529219" style="fill: #ea048a; stroke: #ea048a"/>
    </g>
   </g>
   <g id="PolyCollection_17">
    <defs>
     <path id="m01e06903ee" d="M 335.928125 -63.142282 
L 335.928125 -63.141889 
L 372.614792 -64.251284 
L 409.301458 -65.472137 
L 445.988125 -65.428268 
L 482.674792 -65.451688 
L 519.361458 -65.354046 
L 556.048125 -65.26363 
L 556.048125 -65.263932 
L 556.048125 -65.263932 
L 519.361458 -65.354376 
L 482.674792 -65.451998 
L 445.988125 -65.428594 
L 409.301458 -65.472449 
L 372.614792 -64.251656 
L 335.928125 -63.142282 
z
" style="stroke: #6895dd"/>
    </defs>
    <g clip-path="url(#p23089143f4)">
     <use xlink:href="#m01e06903ee" x="0" y="244.529219" style="fill: #6895dd; stroke: #6895dd"/>
    </g>
   </g>
   <g id="PolyCollection_18">
    <defs>
     <path id="me37b27ce2e" d="M 335.928125 -63.14884 
L 335.928125 -63.142282 
L 372.614792 -64.251656 
L 409.301458 -65.472449 
L 445.988125 -65.428594 
L 482.674792 -65.451998 
L 519.361458 -65.354376 
L 556.048125 -65.263932 
L 556.048125 -67.210898 
L 556.048125 -67.210898 
L 519.361458 -65.359165 
L 482.674792 -65.457123 
L 445.988125 -65.433527 
L 409.301458 -65.477314 
L 372.614792 -64.258005 
L 335.928125 -63.14884 
z
" style="stroke: #74c6f2"/>
    </defs>
    <g clip-path="url(#p23089143f4)">
     <use xlink:href="#me37b27ce2e" x="0" y="244.529219" style="fill: #74c6f2; stroke: #74c6f2"/>
    </g>
   </g>
   <g id="PolyCollection_19">
    <defs>
     <path id="me03260cefc" d="M 335.928125 -65.24839 
L 335.928125 -63.14884 
L 372.614792 -64.258005 
L 409.301458 -65.477314 
L 445.988125 -65.433527 
L 482.674792 -65.457123 
L 519.361458 -65.359165 
L 556.048125 -67.210898 
L 556.048125 -90.800187 
L 556.048125 -90.800187 
L 519.361458 -81.001302 
L 482.674792 -79.399762 
L 445.988125 -78.665969 
L 409.301458 -73.517057 
L 372.614792 -68.23658 
L 335.928125 -65.24839 
z
" style="stroke: #235ebc"/>
    </defs>
    <g clip-path="url(#p23089143f4)">
     <use xlink:href="#me03260cefc" x="0" y="244.529219" style="fill: #235ebc; stroke: #235ebc"/>
    </g>
   </g>
   <g id="PolyCollection_20">
    <defs>
     <path id="m6953f74fc1" d="M 335.928125 -66.00282 
L 335.928125 -65.24839 
L 372.614792 -68.23658 
L 409.301458 -73.517057 
L 445.988125 -78.665969 
L 482.674792 -79.399762 
L 519.361458 -81.001302 
L 556.048125 -90.800187 
L 556.048125 -220.014856 
L 556.048125 -220.014856 
L 519.361458 -175.641239 
L 482.674792 -137.660557 
L 445.988125 -105.709104 
L 409.301458 -85.343715 
L 372.614792 -73.388083 
L 335.928125 -66.00282 
z
" style="stroke: #f9d002"/>
    </defs>
    <g clip-path="url(#p23089143f4)">
     <use xlink:href="#m6953f74fc1" x="0" y="244.529219" style="fill: #f9d002; stroke: #f9d002"/>
    </g>
   </g>
   <g id="PolyCollection_21">
    <defs>
     <path id="m0e3b3fd64f" d="M 335.928125 -66.2319 
L 335.928125 -66.00282 
L 372.614792 -73.388083 
L 409.301458 -85.343715 
L 445.988125 -105.709104 
L 482.674792 -137.660557 
L 519.361458 -175.641239 
L 556.048125 -220.014856 
L 556.048125 -222.966331 
L 556.048125 -222.966331 
L 519.361458 -181.078734 
L 482.674792 -145.69166 
L 445.988125 -115.563418 
L 409.301458 -92.081194 
L 372.614792 -73.903675 
L 335.928125 -66.2319 
z
" style="stroke: #b20101"/>
    </defs>
    <g clip-path="url(#p23089143f4)">
     <use xlink:href="#m0e3b3fd64f" x="0" y="244.529219" style="fill: #b20101; stroke: #b20101"/>
    </g>
   </g>
   <g id="PolyCollection_22">
    <defs>
     <path id="m93d7ccf72d" d="M 335.928125 -66.261453 
L 335.928125 -66.2319 
L 372.614792 -73.903675 
L 409.301458 -92.081194 
L 445.988125 -115.563418 
L 482.674792 -145.69166 
L 519.361458 -181.078734 
L 556.048125 -222.966331 
L 556.048125 -222.966338 
L 556.048125 -222.966338 
L 519.361458 -181.083834 
L 482.674792 -145.694192 
L 445.988125 -115.568049 
L 409.301458 -92.095458 
L 372.614792 -74.020418 
L 335.928125 -66.261453 
z
" style="stroke: #707070"/>
    </defs>
    <g clip-path="url(#p23089143f4)">
     <use xlink:href="#m93d7ccf72d" x="0" y="244.529219" style="fill: #707070; stroke: #707070"/>
    </g>
   </g>
   <g id="PolyCollection_23">
    <defs>
     <path id="mf8fe7e793d" d="M 335.928125 -67.013023 
L 335.928125 -66.261453 
L 372.614792 -74.020418 
L 409.301458 -92.095458 
L 445.988125 -115.568049 
L 482.674792 -145.694192 
L 519.361458 -181.083834 
L 556.048125 -222.966338 
L 556.048125 -222.981718 
L 556.048125 -222.981718 
L 519.361458 -181.161801 
L 482.674792 -145.788409 
L 445.988125 -115.768769 
L 409.301458 -92.424102 
L 372.614792 -74.504413 
L 335.928125 -67.013023 
z
" style="stroke: #808080"/>
    </defs>
    <g clip-path="url(#p23089143f4)">
     <use xlink:href="#mf8fe7e793d" x="0" y="244.529219" style="fill: #808080; stroke: #808080"/>
    </g>
   </g>
   <g id="PolyCollection_24">
    <defs>
     <path id="md0d1354fea" d="M 335.928125 -69.128707 
L 335.928125 -67.013023 
L 372.614792 -74.504413 
L 409.301458 -92.424102 
L 445.988125 -115.768769 
L 482.674792 -145.788409 
L 519.361458 -181.161801 
L 556.048125 -222.981718 
L 556.048125 -223.173861 
L 556.048125 -223.173861 
L 519.361458 -181.792561 
L 482.674792 -146.852823 
L 445.988125 -118.203968 
L 409.301458 -94.871744 
L 372.614792 -77.112896 
L 335.928125 -69.128707 
z
" style="stroke: #606060"/>
    </defs>
    <g clip-path="url(#p23089143f4)">
     <use xlink:href="#md0d1354fea" x="0" y="244.529219" style="fill: #606060; stroke: #606060"/>
    </g>
   </g>
   <g id="PolyCollection_25">
    <defs>
     <path id="m7ad791d0ae" d="M 335.928125 -78.637927 
L 335.928125 -69.128707 
L 372.614792 -77.112896 
L 409.301458 -94.871744 
L 445.988125 -118.203968 
L 482.674792 -146.852823 
L 519.361458 -181.792561 
L 556.048125 -223.173861 
L 556.048125 -223.319269 
L 556.048125 -223.319269 
L 519.361458 -182.531134 
L 482.674792 -147.959353 
L 445.988125 -120.172864 
L 409.301458 -99.307631 
L 372.614792 -85.669911 
L 335.928125 -78.637927 
z
" style="stroke: #909090"/>
    </defs>
    <g clip-path="url(#p23089143f4)">
     <use xlink:href="#m7ad791d0ae" x="0" y="244.529219" style="fill: #909090; stroke: #909090"/>
    </g>
   </g>
   <g id="PolyCollection_26">
    <defs>
     <path id="m0bc4dae11c" d="M 335.928125 -79.086755 
L 335.928125 -78.637927 
L 372.614792 -85.669911 
L 409.301458 -99.307631 
L 445.988125 -120.172864 
L 482.674792 -147.959353 
L 519.361458 -182.531134 
L 556.048125 -223.319269 
L 556.048125 -223.368021 
L 556.048125 -223.368021 
L 519.361458 -182.785025 
L 482.674792 -148.575671 
L 445.988125 -120.866087 
L 409.301458 -100.033413 
L 372.614792 -86.519166 
L 335.928125 -79.086755 
z
" style="stroke: #505050"/>
    </defs>
    <g clip-path="url(#p23089143f4)">
     <use xlink:href="#m0bc4dae11c" x="0" y="244.529219" style="fill: #505050; stroke: #505050"/>
    </g>
   </g>
   <g id="PolyCollection_27">
    <defs>
     <path id="md5d8e65b28" d="M 335.928125 -80.557919 
L 335.928125 -79.086755 
L 372.614792 -86.519166 
L 409.301458 -100.033413 
L 445.988125 -120.866087 
L 482.674792 -148.575671 
L 519.361458 -182.785025 
L 556.048125 -223.368021 
L 556.048125 -223.368024 
L 556.048125 -223.368024 
L 519.361458 -182.793064 
L 482.674792 -148.582181 
L 445.988125 -121.159135 
L 409.301458 -100.947377 
L 372.614792 -87.927217 
L 335.928125 -80.557919 
z
" style="stroke: #9e5a01"/>
    </defs>
    <g clip-path="url(#p23089143f4)">
     <use xlink:href="#md5d8e65b28" x="0" y="244.529219" style="fill: #9e5a01; stroke: #9e5a01"/>
    </g>
   </g>
   <g id="PolyCollection_28">
    <defs>
     <path id="m102bc69a87" d="M 335.928125 -80.557919 
L 335.928125 -80.557919 
L 372.614792 -87.927217 
L 409.301458 -100.947377 
L 445.988125 -121.159135 
L 482.674792 -148.582181 
L 519.361458 -182.793064 
L 556.048125 -223.368024 
L 556.048125 -223.368024 
L 556.048125 -223.368024 
L 519.361458 -182.793064 
L 482.674792 -148.582181 
L 445.988125 -121.159135 
L 409.301458 -100.947377 
L 372.614792 -87.927217 
L 335.928125 -80.557919 
z
" style="stroke: #70af1d"/>
    </defs>
    <g clip-path="url(#p23089143f4)">
     <use xlink:href="#m102bc69a87" x="0" y="244.529219" style="fill: #70af1d; stroke: #70af1d"/>
    </g>
   </g>
   <g id="PolyCollection_29">
    <defs>
     <path id="m3ea6a1bd5e" d="M 335.928125 -80.557944 
L 335.928125 -80.557919 
L 372.614792 -87.927217 
L 409.301458 -100.947377 
L 445.988125 -121.159135 
L 482.674792 -148.582181 
L 519.361458 -182.793064 
L 556.048125 -223.368024 
L 556.048125 -223.368025 
L 556.048125 -223.368025 
L 519.361458 -182.793836 
L 482.674792 -148.583047 
L 445.988125 -121.161734 
L 409.301458 -100.950149 
L 372.614792 -87.927265 
L 335.928125 -80.557944 
z
" style="stroke: #262626"/>
    </defs>
    <g clip-path="url(#p23089143f4)">
     <use xlink:href="#m3ea6a1bd5e" x="0" y="244.529219" style="fill: #262626; stroke: #262626"/>
    </g>
   </g>
   <g id="matplotlib.axis_3">
    <g id="xtick_8">
     <g id="line2d_35">
      <g>
       <use xlink:href="#m52284717df" x="335.928125" y="204.879219" style="stroke: #000000; stroke-width: 0.8"/>
      </g>
     </g>
     <g id="text_17">
      <!-- 2020 -->
      <g transform="translate(338.6875 237.329219)rotate(-90)scale(0.1 -0.1)">
       <use xlink:href="#DejaVuSans-32"/>
       <use xlink:href="#DejaVuSans-30" x="63.623047"/>
       <use xlink:href="#DejaVuSans-32" x="127.246094"/>
       <use xlink:href="#DejaVuSans-30" x="190.869141"/>
      </g>
     </g>
    </g>
    <g id="xtick_9">
     <g id="line2d_36">
      <g>
       <use xlink:href="#m52284717df" x="372.614792" y="204.879219" style="stroke: #000000; stroke-width: 0.8"/>
      </g>
     </g>
     <g id="text_18">
      <!-- 2025 -->
      <g transform="translate(375.374167 237.329219)rotate(-90)scale(0.1 -0.1)">
       <use xlink:href="#DejaVuSans-32"/>
       <use xlink:href="#DejaVuSans-30" x="63.623047"/>
       <use xlink:href="#DejaVuSans-32" x="127.246094"/>
       <use xlink:href="#DejaVuSans-35" x="190.869141"/>
      </g>
     </g>
    </g>
    <g id="xtick_10">
     <g id="line2d_37">
      <g>
       <use xlink:href="#m52284717df" x="409.301458" y="204.879219" style="stroke: #000000; stroke-width: 0.8"/>
      </g>
     </g>
     <g id="text_19">
      <!-- 2030 -->
      <g transform="translate(412.060833 237.329219)rotate(-90)scale(0.1 -0.1)">
       <use xlink:href="#DejaVuSans-32"/>
       <use xlink:href="#DejaVuSans-30" x="63.623047"/>
       <use xlink:href="#DejaVuSans-33" x="127.246094"/>
       <use xlink:href="#DejaVuSans-30" x="190.869141"/>
      </g>
     </g>
    </g>
    <g id="xtick_11">
     <g id="line2d_38">
      <g>
       <use xlink:href="#m52284717df" x="445.988125" y="204.879219" style="stroke: #000000; stroke-width: 0.8"/>
      </g>
     </g>
     <g id="text_20">
      <!-- 2035 -->
      <g transform="translate(448.7475 237.329219)rotate(-90)scale(0.1 -0.1)">
       <use xlink:href="#DejaVuSans-32"/>
       <use xlink:href="#DejaVuSans-30" x="63.623047"/>
       <use xlink:href="#DejaVuSans-33" x="127.246094"/>
       <use xlink:href="#DejaVuSans-35" x="190.869141"/>
      </g>
     </g>
    </g>
    <g id="xtick_12">
     <g id="line2d_39">
      <g>
       <use xlink:href="#m52284717df" x="482.674792" y="204.879219" style="stroke: #000000; stroke-width: 0.8"/>
      </g>
     </g>
     <g id="text_21">
      <!-- 2040 -->
      <g transform="translate(485.434167 237.329219)rotate(-90)scale(0.1 -0.1)">
       <use xlink:href="#DejaVuSans-32"/>
       <use xlink:href="#DejaVuSans-30" x="63.623047"/>
       <use xlink:href="#DejaVuSans-34" x="127.246094"/>
       <use xlink:href="#DejaVuSans-30" x="190.869141"/>
      </g>
     </g>
    </g>
    <g id="xtick_13">
     <g id="line2d_40">
      <g>
       <use xlink:href="#m52284717df" x="519.361458" y="204.879219" style="stroke: #000000; stroke-width: 0.8"/>
      </g>
     </g>
     <g id="text_22">
      <!-- 2045 -->
      <g transform="translate(522.120833 237.329219)rotate(-90)scale(0.1 -0.1)">
       <use xlink:href="#DejaVuSans-32"/>
       <use xlink:href="#DejaVuSans-30" x="63.623047"/>
       <use xlink:href="#DejaVuSans-34" x="127.246094"/>
       <use xlink:href="#DejaVuSans-35" x="190.869141"/>
      </g>
     </g>
    </g>
    <g id="xtick_14">
     <g id="line2d_41">
      <g>
       <use xlink:href="#m52284717df" x="556.048125" y="204.879219" style="stroke: #000000; stroke-width: 0.8"/>
      </g>
     </g>
     <g id="text_23">
      <!-- 2050 -->
      <g transform="translate(558.8075 237.329219)rotate(-90)scale(0.1 -0.1)">
       <use xlink:href="#DejaVuSans-32"/>
       <use xlink:href="#DejaVuSans-30" x="63.623047"/>
       <use xlink:href="#DejaVuSans-35" x="127.246094"/>
       <use xlink:href="#DejaVuSans-30" x="190.869141"/>
      </g>
     </g>
    </g>
   </g>
   <g id="matplotlib.axis_4">
    <g id="ytick_8">
     <g id="line2d_42">
      <path d="M 335.928125 191.953885 
L 556.048125 191.953885 
" clip-path="url(#p23089143f4)" style="fill: none; stroke: #b0b0b0; stroke-width: 0.8; stroke-linecap: square"/>
     </g>
     <g id="line2d_43">
      <g>
       <use xlink:href="#m92a0dc6883" x="335.928125" y="191.953885" style="stroke: #000000; stroke-width: 0.8"/>
      </g>
     </g>
     <g id="text_24">
      <!-- 0 -->
      <g transform="translate(322.565625 195.753104)scale(0.1 -0.1)">
       <use xlink:href="#DejaVuSans-30"/>
      </g>
     </g>
    </g>
    <g id="ytick_9">
     <g id="line2d_44">
      <path d="M 335.928125 166.103219 
L 556.048125 166.103219 
" clip-path="url(#p23089143f4)" style="fill: none; stroke: #b0b0b0; stroke-width: 0.8; stroke-linecap: square"/>
     </g>
     <g id="line2d_45">
      <g>
       <use xlink:href="#m92a0dc6883" x="335.928125" y="166.103219" style="stroke: #000000; stroke-width: 0.8"/>
      </g>
     </g>
     <g id="text_25">
      <!-- 1000 -->
      <g transform="translate(303.478125 169.902438)scale(0.1 -0.1)">
       <use xlink:href="#DejaVuSans-31"/>
       <use xlink:href="#DejaVuSans-30" x="63.623047"/>
       <use xlink:href="#DejaVuSans-30" x="127.246094"/>
       <use xlink:href="#DejaVuSans-30" x="190.869141"/>
      </g>
     </g>
    </g>
    <g id="ytick_10">
     <g id="line2d_46">
      <path d="M 335.928125 140.252552 
L 556.048125 140.252552 
" clip-path="url(#p23089143f4)" style="fill: none; stroke: #b0b0b0; stroke-width: 0.8; stroke-linecap: square"/>
     </g>
     <g id="line2d_47">
      <g>
       <use xlink:href="#m92a0dc6883" x="335.928125" y="140.252552" style="stroke: #000000; stroke-width: 0.8"/>
      </g>
     </g>
     <g id="text_26">
      <!-- 2000 -->
      <g transform="translate(303.478125 144.051771)scale(0.1 -0.1)">
       <use xlink:href="#DejaVuSans-32"/>
       <use xlink:href="#DejaVuSans-30" x="63.623047"/>
       <use xlink:href="#DejaVuSans-30" x="127.246094"/>
       <use xlink:href="#DejaVuSans-30" x="190.869141"/>
      </g>
     </g>
    </g>
    <g id="ytick_11">
     <g id="line2d_48">
      <path d="M 335.928125 114.401885 
L 556.048125 114.401885 
" clip-path="url(#p23089143f4)" style="fill: none; stroke: #b0b0b0; stroke-width: 0.8; stroke-linecap: square"/>
     </g>
     <g id="line2d_49">
      <g>
       <use xlink:href="#m92a0dc6883" x="335.928125" y="114.401885" style="stroke: #000000; stroke-width: 0.8"/>
      </g>
     </g>
     <g id="text_27">
      <!-- 3000 -->
      <g transform="translate(303.478125 118.201104)scale(0.1 -0.1)">
       <use xlink:href="#DejaVuSans-33"/>
       <use xlink:href="#DejaVuSans-30" x="63.623047"/>
       <use xlink:href="#DejaVuSans-30" x="127.246094"/>
       <use xlink:href="#DejaVuSans-30" x="190.869141"/>
      </g>
     </g>
    </g>
    <g id="ytick_12">
     <g id="line2d_50">
      <path d="M 335.928125 88.551219 
L 556.048125 88.551219 
" clip-path="url(#p23089143f4)" style="fill: none; stroke: #b0b0b0; stroke-width: 0.8; stroke-linecap: square"/>
     </g>
     <g id="line2d_51">
      <g>
       <use xlink:href="#m92a0dc6883" x="335.928125" y="88.551219" style="stroke: #000000; stroke-width: 0.8"/>
      </g>
     </g>
     <g id="text_28">
      <!-- 4000 -->
      <g transform="translate(303.478125 92.350437)scale(0.1 -0.1)">
       <use xlink:href="#DejaVuSans-34"/>
       <use xlink:href="#DejaVuSans-30" x="63.623047"/>
       <use xlink:href="#DejaVuSans-30" x="127.246094"/>
       <use xlink:href="#DejaVuSans-30" x="190.869141"/>
      </g>
     </g>
    </g>
    <g id="ytick_13">
     <g id="line2d_52">
      <path d="M 335.928125 62.700552 
L 556.048125 62.700552 
" clip-path="url(#p23089143f4)" style="fill: none; stroke: #b0b0b0; stroke-width: 0.8; stroke-linecap: square"/>
     </g>
     <g id="line2d_53">
      <g>
       <use xlink:href="#m92a0dc6883" x="335.928125" y="62.700552" style="stroke: #000000; stroke-width: 0.8"/>
      </g>
     </g>
     <g id="text_29">
      <!-- 5000 -->
      <g transform="translate(303.478125 66.499771)scale(0.1 -0.1)">
       <use xlink:href="#DejaVuSans-35"/>
       <use xlink:href="#DejaVuSans-30" x="63.623047"/>
       <use xlink:href="#DejaVuSans-30" x="127.246094"/>
       <use xlink:href="#DejaVuSans-30" x="190.869141"/>
      </g>
     </g>
    </g>
    <g id="ytick_14">
     <g id="line2d_54">
      <path d="M 335.928125 36.849885 
L 556.048125 36.849885 
" clip-path="url(#p23089143f4)" style="fill: none; stroke: #b0b0b0; stroke-width: 0.8; stroke-linecap: square"/>
     </g>
     <g id="line2d_55">
      <g>
       <use xlink:href="#m92a0dc6883" x="335.928125" y="36.849885" style="stroke: #000000; stroke-width: 0.8"/>
      </g>
     </g>
     <g id="text_30">
      <!-- 6000 -->
      <g transform="translate(303.478125 40.649104)scale(0.1 -0.1)">
       <use xlink:href="#DejaVuSans-36"/>
       <use xlink:href="#DejaVuSans-30" x="63.623047"/>
       <use xlink:href="#DejaVuSans-30" x="127.246094"/>
       <use xlink:href="#DejaVuSans-30" x="190.869141"/>
      </g>
     </g>
    </g>
    <g id="ytick_15">
     <g id="line2d_56">
      <path d="M 335.928125 10.999219 
L 556.048125 10.999219 
" clip-path="url(#p23089143f4)" style="fill: none; stroke: #b0b0b0; stroke-width: 0.8; stroke-linecap: square"/>
     </g>
     <g id="line2d_57">
      <g>
       <use xlink:href="#m92a0dc6883" x="335.928125" y="10.999219" style="stroke: #000000; stroke-width: 0.8"/>
      </g>
     </g>
     <g id="text_31">
      <!-- 7000 -->
      <g transform="translate(303.478125 14.798438)scale(0.1 -0.1)">
       <defs>
        <path id="DejaVuSans-37" d="M 525 4666 
L 3525 4666 
L 3525 4397 
L 1831 0 
L 1172 0 
L 2766 4134 
L 525 4134 
L 525 4666 
z
" transform="scale(0.015625)"/>
       </defs>
       <use xlink:href="#DejaVuSans-37"/>
       <use xlink:href="#DejaVuSans-30" x="63.623047"/>
       <use xlink:href="#DejaVuSans-30" x="127.246094"/>
       <use xlink:href="#DejaVuSans-30" x="190.869141"/>
      </g>
     </g>
    </g>
    <g id="text_32">
     <!-- Energy [TWh/a] -->
     <g transform="translate(297.398437 146.850938)rotate(-90)scale(0.1 -0.1)">
      <defs>
       <path id="DejaVuSans-6e" d="M 3513 2113 
L 3513 0 
L 2938 0 
L 2938 2094 
Q 2938 2591 2744 2837 
Q 2550 3084 2163 3084 
Q 1697 3084 1428 2787 
Q 1159 2491 1159 1978 
L 1159 0 
L 581 0 
L 581 3500 
L 1159 3500 
L 1159 2956 
Q 1366 3272 1645 3428 
Q 1925 3584 2291 3584 
Q 2894 3584 3203 3211 
Q 3513 2838 3513 2113 
z
" transform="scale(0.015625)"/>
       <path id="DejaVuSans-65" d="M 3597 1894 
L 3597 1613 
L 953 1613 
Q 991 1019 1311 708 
Q 1631 397 2203 397 
Q 2534 397 2845 478 
Q 3156 559 3463 722 
L 3463 178 
Q 3153 47 2828 -22 
Q 2503 -91 2169 -91 
Q 1331 -91 842 396 
Q 353 884 353 1716 
Q 353 2575 817 3079 
Q 1281 3584 2069 3584 
Q 2775 3584 3186 3129 
Q 3597 2675 3597 1894 
z
M 3022 2063 
Q 3016 2534 2758 2815 
Q 2500 3097 2075 3097 
Q 1594 3097 1305 2825 
Q 1016 2553 972 2059 
L 3022 2063 
z
" transform="scale(0.015625)"/>
       <path id="DejaVuSans-72" d="M 2631 2963 
Q 2534 3019 2420 3045 
Q 2306 3072 2169 3072 
Q 1681 3072 1420 2755 
Q 1159 2438 1159 1844 
L 1159 0 
L 581 0 
L 581 3500 
L 1159 3500 
L 1159 2956 
Q 1341 3275 1631 3429 
Q 1922 3584 2338 3584 
Q 2397 3584 2469 3576 
Q 2541 3569 2628 3553 
L 2631 2963 
z
" transform="scale(0.015625)"/>
       <path id="DejaVuSans-67" d="M 2906 1791 
Q 2906 2416 2648 2759 
Q 2391 3103 1925 3103 
Q 1463 3103 1205 2759 
Q 947 2416 947 1791 
Q 947 1169 1205 825 
Q 1463 481 1925 481 
Q 2391 481 2648 825 
Q 2906 1169 2906 1791 
z
M 3481 434 
Q 3481 -459 3084 -895 
Q 2688 -1331 1869 -1331 
Q 1566 -1331 1297 -1286 
Q 1028 -1241 775 -1147 
L 775 -588 
Q 1028 -725 1275 -790 
Q 1522 -856 1778 -856 
Q 2344 -856 2625 -561 
Q 2906 -266 2906 331 
L 2906 616 
Q 2728 306 2450 153 
Q 2172 0 1784 0 
Q 1141 0 747 490 
Q 353 981 353 1791 
Q 353 2603 747 3093 
Q 1141 3584 1784 3584 
Q 2172 3584 2450 3431 
Q 2728 3278 2906 2969 
L 2906 3500 
L 3481 3500 
L 3481 434 
z
" transform="scale(0.015625)"/>
       <path id="DejaVuSans-54" d="M -19 4666 
L 3928 4666 
L 3928 4134 
L 2272 4134 
L 2272 0 
L 1638 0 
L 1638 4134 
L -19 4134 
L -19 4666 
z
" transform="scale(0.015625)"/>
       <path id="DejaVuSans-68" d="M 3513 2113 
L 3513 0 
L 2938 0 
L 2938 2094 
Q 2938 2591 2744 2837 
Q 2550 3084 2163 3084 
Q 1697 3084 1428 2787 
Q 1159 2491 1159 1978 
L 1159 0 
L 581 0 
L 581 4863 
L 1159 4863 
L 1159 2956 
Q 1366 3272 1645 3428 
Q 1925 3584 2291 3584 
Q 2894 3584 3203 3211 
Q 3513 2838 3513 2113 
z
" transform="scale(0.015625)"/>
       <path id="DejaVuSans-2f" d="M 1625 4666 
L 2156 4666 
L 531 -594 
L 0 -594 
L 1625 4666 
z
" transform="scale(0.015625)"/>
      </defs>
      <use xlink:href="#DejaVuSans-45"/>
      <use xlink:href="#DejaVuSans-6e" x="63.183594"/>
      <use xlink:href="#DejaVuSans-65" x="126.5625"/>
      <use xlink:href="#DejaVuSans-72" x="188.085938"/>
      <use xlink:href="#DejaVuSans-67" x="227.449219"/>
      <use xlink:href="#DejaVuSans-79" x="290.925781"/>
      <use xlink:href="#DejaVuSans-20" x="350.105469"/>
      <use xlink:href="#DejaVuSans-5b" x="381.892578"/>
      <use xlink:href="#DejaVuSans-54" x="420.90625"/>
      <use xlink:href="#DejaVuSans-57" x="481.990234"/>
      <use xlink:href="#DejaVuSans-68" x="580.867188"/>
      <use xlink:href="#DejaVuSans-2f" x="644.246094"/>
      <use xlink:href="#DejaVuSans-61" x="677.9375"/>
      <use xlink:href="#DejaVuSans-5d" x="739.216797"/>
     </g>
    </g>
   </g>
   <g id="line2d_58">
    <path d="M 335.928125 191.9539 
L 372.614792 191.953913 
L 409.301458 191.992577 
L 445.988125 192.583049 
L 482.674792 193.898619 
L 519.361458 195.523287 
L 556.048125 196.950288 
" clip-path="url(#p23089143f4)" style="fill: none; stroke: #b8ea04; stroke-width: 1.5; stroke-linecap: square"/>
   </g>
   <g id="line2d_59">
    <path d="M 335.928125 181.38733 
L 372.614792 180.277935 
L 409.301458 179.057082 
L 445.988125 179.100951 
L 482.674792 179.077531 
L 519.361458 179.175172 
L 556.048125 179.265588 
" clip-path="url(#p23089143f4)" style="fill: none; stroke: #08ad97; stroke-width: 1.5; stroke-linecap: square"/>
   </g>
   <g id="line2d_60">
    <path d="M 335.928125 191.953913 
L 372.614792 191.953929 
L 409.301458 191.992631 
L 445.988125 192.583363 
L 482.674792 193.898683 
L 519.361458 195.523983 
L 556.048125 196.951051 
" clip-path="url(#p23089143f4)" style="fill: none; stroke: #ea048a; stroke-width: 1.5; stroke-linecap: square"/>
   </g>
   <g id="line2d_61">
    <path d="M 335.928125 181.386936 
L 372.614792 180.277563 
L 409.301458 179.056769 
L 445.988125 179.100624 
L 482.674792 179.077221 
L 519.361458 179.174842 
L 556.048125 179.265287 
" clip-path="url(#p23089143f4)" style="fill: none; stroke: #6895dd; stroke-width: 1.5; stroke-linecap: square"/>
   </g>
   <g id="line2d_62">
    <path d="M 335.928125 181.380379 
L 372.614792 180.271214 
L 409.301458 179.051905 
L 445.988125 179.095691 
L 482.674792 179.072096 
L 519.361458 179.170054 
L 556.048125 177.318321 
" clip-path="url(#p23089143f4)" style="fill: none; stroke: #74c6f2; stroke-width: 1.5; stroke-linecap: square"/>
   </g>
   <g id="line2d_63">
    <path d="M 335.928125 179.280829 
L 372.614792 176.292639 
L 409.301458 171.012161 
L 445.988125 165.86325 
L 482.674792 165.129457 
L 519.361458 163.527916 
L 556.048125 153.729031 
" clip-path="url(#p23089143f4)" style="fill: none; stroke: #235ebc; stroke-width: 1.5; stroke-linecap: square"/>
   </g>
   <g id="line2d_64">
    <path d="M 335.928125 178.526398 
L 372.614792 171.141136 
L 409.301458 159.185503 
L 445.988125 138.820115 
L 482.674792 106.868661 
L 519.361458 68.88798 
L 556.048125 24.514363 
" clip-path="url(#p23089143f4)" style="fill: none; stroke: #f9d002; stroke-width: 1.5; stroke-linecap: square"/>
   </g>
   <g id="line2d_65">
    <path d="M 335.928125 178.297319 
L 372.614792 170.625543 
L 409.301458 152.448024 
L 445.988125 128.965801 
L 482.674792 98.837559 
L 519.361458 63.450485 
L 556.048125 21.562888 
" clip-path="url(#p23089143f4)" style="fill: none; stroke: #b20101; stroke-width: 1.5; stroke-linecap: square"/>
   </g>
   <g id="line2d_66">
    <path d="M 335.928125 178.267766 
L 372.614792 170.508801 
L 409.301458 152.433761 
L 445.988125 128.96117 
L 482.674792 98.835027 
L 519.361458 63.445384 
L 556.048125 21.562881 
" clip-path="url(#p23089143f4)" style="fill: none; stroke: #707070; stroke-width: 1.5; stroke-linecap: square"/>
   </g>
   <g id="line2d_67">
    <path d="M 335.928125 177.516196 
L 372.614792 170.024806 
L 409.301458 152.105116 
L 445.988125 128.760449 
L 482.674792 98.74081 
L 519.361458 63.367418 
L 556.048125 21.5475 
" clip-path="url(#p23089143f4)" style="fill: none; stroke: #808080; stroke-width: 1.5; stroke-linecap: square"/>
   </g>
   <g id="line2d_68">
    <path d="M 335.928125 175.400512 
L 372.614792 167.416323 
L 409.301458 149.657475 
L 445.988125 126.325251 
L 482.674792 97.676395 
L 519.361458 62.736657 
L 556.048125 21.355358 
" clip-path="url(#p23089143f4)" style="fill: none; stroke: #606060; stroke-width: 1.5; stroke-linecap: square"/>
   </g>
   <g id="line2d_69">
    <path d="M 335.928125 165.891291 
L 372.614792 158.859308 
L 409.301458 145.221587 
L 445.988125 124.356354 
L 482.674792 96.569865 
L 519.361458 61.998085 
L 556.048125 21.209949 
" clip-path="url(#p23089143f4)" style="fill: none; stroke: #909090; stroke-width: 1.5; stroke-linecap: square"/>
   </g>
   <g id="line2d_70">
    <path d="M 335.928125 165.442464 
L 372.614792 158.010053 
L 409.301458 144.495806 
L 445.988125 123.663131 
L 482.674792 95.953548 
L 519.361458 61.744194 
L 556.048125 21.161198 
" clip-path="url(#p23089143f4)" style="fill: none; stroke: #505050; stroke-width: 1.5; stroke-linecap: square"/>
   </g>
   <g id="line2d_71">
    <path d="M 335.928125 163.9713 
L 372.614792 156.602002 
L 409.301458 143.581842 
L 445.988125 123.370084 
L 482.674792 95.947038 
L 519.361458 61.736155 
L 556.048125 21.161195 
" clip-path="url(#p23089143f4)" style="fill: none; stroke: #9e5a01; stroke-width: 1.5; stroke-linecap: square"/>
   </g>
   <g id="line2d_72">
    <path d="M 335.928125 163.9713 
L 372.614792 156.602002 
L 409.301458 143.581842 
L 445.988125 123.370084 
L 482.674792 95.947038 
L 519.361458 61.736155 
L 556.048125 21.161195 
" clip-path="url(#p23089143f4)" style="fill: none; stroke: #70af1d; stroke-width: 1.5; stroke-linecap: square"/>
   </g>
   <g id="line2d_73">
    <path d="M 335.928125 163.971275 
L 372.614792 156.601954 
L 409.301458 143.57907 
L 445.988125 123.367485 
L 482.674792 95.946172 
L 519.361458 61.735383 
L 556.048125 21.161194 
" clip-path="url(#p23089143f4)" style="fill: none; stroke: #262626; stroke-width: 1.5; stroke-linecap: square"/>
   </g>
   <g id="line2d_74">
    <path d="M 335.928125 163.434396 
L 372.614792 156.118465 
L 409.301458 143.281544 
L 445.988125 123.867072 
L 482.674792 97.875051 
L 519.361458 65.30548 
L 556.048125 26.15836 
" clip-path="url(#p23089143f4)" style="fill: none; stroke-dasharray: 7.4,3.2; stroke-dashoffset: 0; stroke: #000000; stroke-width: 2"/>
   </g>
   <g id="patch_8">
    <path d="M 335.928125 204.879219 
L 335.928125 10.999219 
" style="fill: none; stroke: #000000; stroke-width: 0.8; stroke-linejoin: miter; stroke-linecap: square"/>
   </g>
   <g id="patch_9">
    <path d="M 556.048125 204.879219 
L 556.048125 10.999219 
" style="fill: none; stroke: #000000; stroke-width: 0.8; stroke-linejoin: miter; stroke-linecap: square"/>
   </g>
   <g id="patch_10">
    <path d="M 335.928125 204.879219 
L 556.048125 204.879219 
" style="fill: none; stroke: #000000; stroke-width: 0.8; stroke-linejoin: miter; stroke-linecap: square"/>
   </g>
   <g id="patch_11">
    <path d="M 335.928125 10.999219 
L 556.048125 10.999219 
" style="fill: none; stroke: #000000; stroke-width: 0.8; stroke-linejoin: miter; stroke-linecap: square"/>
   </g>
   <g id="patch_12">
    <path d="M 466.042811 83.743203 
Q 469.358003 86.431735 472.673195 89.120268 
L 473.932951 87.56688 
Q 477.806345 92.317485 481.679739 97.06809 
Q 476.23165 94.25922 470.783561 91.45035 
L 472.043317 89.896962 
Q 468.728125 87.208429 465.412932 84.519897 
L 466.042811 83.743203 
z
" style="stroke: #000000; stroke-linecap: round"/>
   </g>
   <g id="text_33">
    <!-- Load/a -->
    <g transform="translate(429.243594 79.622822)scale(0.1 -0.1)">
     <defs>
      <path id="DejaVuSans-4c" d="M 628 4666 
L 1259 4666 
L 1259 531 
L 3531 531 
L 3531 0 
L 628 0 
L 628 4666 
z
" transform="scale(0.015625)"/>
      <path id="DejaVuSans-6f" d="M 1959 3097 
Q 1497 3097 1228 2736 
Q 959 2375 959 1747 
Q 959 1119 1226 758 
Q 1494 397 1959 397 
Q 2419 397 2687 759 
Q 2956 1122 2956 1747 
Q 2956 2369 2687 2733 
Q 2419 3097 1959 3097 
z
M 1959 3584 
Q 2709 3584 3137 3096 
Q 3566 2609 3566 1747 
Q 3566 888 3137 398 
Q 2709 -91 1959 -91 
Q 1206 -91 779 398 
Q 353 888 353 1747 
Q 353 2609 779 3096 
Q 1206 3584 1959 3584 
z
" transform="scale(0.015625)"/>
      <path id="DejaVuSans-64" d="M 2906 2969 
L 2906 4863 
L 3481 4863 
L 3481 0 
L 2906 0 
L 2906 525 
Q 2725 213 2448 61 
Q 2172 -91 1784 -91 
Q 1150 -91 751 415 
Q 353 922 353 1747 
Q 353 2572 751 3078 
Q 1150 3584 1784 3584 
Q 2172 3584 2448 3432 
Q 2725 3281 2906 2969 
z
M 947 1747 
Q 947 1113 1208 752 
Q 1469 391 1925 391 
Q 2381 391 2643 752 
Q 2906 1113 2906 1747 
Q 2906 2381 2643 2742 
Q 2381 3103 1925 3103 
Q 1469 3103 1208 2742 
Q 947 2381 947 1747 
z
" transform="scale(0.015625)"/>
     </defs>
     <use xlink:href="#DejaVuSans-4c"/>
     <use xlink:href="#DejaVuSans-6f" x="53.962891"/>
     <use xlink:href="#DejaVuSans-61" x="115.144531"/>
     <use xlink:href="#DejaVuSans-64" x="176.423828"/>
     <use xlink:href="#DejaVuSans-2f" x="239.900391"/>
     <use xlink:href="#DejaVuSans-61" x="273.591797"/>
    </g>
   </g>
   <g id="text_34">
    <!-- SEA_IRENA_DEC -->
    <g transform="translate(340.330525 24.387219)scale(0.09 -0.09)">
     <use xlink:href="#DejaVuSans-53"/>
     <use xlink:href="#DejaVuSans-45" x="63.476562"/>
     <use xlink:href="#DejaVuSans-41" x="126.660156"/>
     <use xlink:href="#DejaVuSans-5f" x="195.068359"/>
     <use xlink:href="#DejaVuSans-49" x="245.068359"/>
     <use xlink:href="#DejaVuSans-52" x="274.560547"/>
     <use xlink:href="#DejaVuSans-45" x="344.042969"/>
     <use xlink:href="#DejaVuSans-4e" x="407.226562"/>
     <use xlink:href="#DejaVuSans-41" x="482.03125"/>
     <use xlink:href="#DejaVuSans-5f" x="550.439453"/>
     <use xlink:href="#DejaVuSans-44" x="600.439453"/>
     <use xlink:href="#DejaVuSans-45" x="677.441406"/>
     <use xlink:href="#DejaVuSans-43" x="740.625"/>
    </g>
   </g>
  </g>
 </g>
 <defs>
  <clipPath id="p1d96f0f000">
   <rect x="53.328125" y="10.999219" width="220.12" height="193.88"/>
  </clipPath>
  <clipPath id="p23089143f4">
   <rect x="335.928125" y="10.999219" width="220.12" height="193.88"/>
  </clipPath>
 </defs>
</svg>
