<?xml version="1.0" encoding="utf-8" standalone="no"?>
<!DOCTYPE svg PUBLIC "-//W3C//DTD SVG 1.1//EN"
  "http://www.w3.org/Graphics/SVG/1.1/DTD/svg11.dtd">
<svg xmlns:xlink="http://www.w3.org/1999/xlink" width="568.087187pt" height="244.529219pt" viewBox="0 0 568.087187 244.529219" xmlns="http://www.w3.org/2000/svg" version="1.1">
 <metadata>
  <rdf:RDF xmlns:dc="http://purl.org/dc/elements/1.1/" xmlns:cc="http://creativecommons.org/ns#" xmlns:rdf="http://www.w3.org/1999/02/22-rdf-syntax-ns#">
   <cc:Work>
    <dc:type rdf:resource="http://purl.org/dc/dcmitype/StillImage"/>
    <dc:date>2024-11-01T14:53:27.328677</dc:date>
    <dc:format>image/svg+xml</dc:format>
    <dc:creator>
     <cc:Agent>
      <dc:title>Matplotlib v3.5.2, https://matplotlib.org/</dc:title>
     </cc:Agent>
    </dc:creator>
   </cc:Work>
  </rdf:RDF>
 </metadata>
 <defs>
  <style type="text/css">*{stroke-linejoin: round; stroke-linecap: butt}</style>
 </defs>
 <g id="figure_1">
  <g id="patch_1">
   <path d="M 0 244.529219 
L 568.087187 244.529219 
L 568.087187 0 
L 0 0 
z
" style="fill: #ffffff"/>
  </g>
  <g id="axes_1">
   <g id="patch_2">
    <path d="M 53.328125 204.879219 
L 276.643125 204.879219 
L 276.643125 10.999219 
L 53.328125 10.999219 
z
" style="fill: #ffffff"/>
   </g>
   <g id="PolyCollection_1">
    <defs>
     <path id="m5687e9c17d" d="M 53.328125 -41.74515 
L 53.328125 -39.65 
L 90.547292 -39.65 
L 127.766458 -39.65 
L 164.985625 -39.65 
L 202.204792 -39.65 
L 239.423958 -39.65 
L 276.643125 -39.65 
L 276.643125 -39.838635 
L 276.643125 -39.838635 
L 239.423958 -40.581947 
L 202.204792 -42.594711 
L 164.985625 -42.885099 
L 127.766458 -43.036672 
L 90.547292 -43.624142 
L 53.328125 -41.74515 
z
" style="stroke: #505050"/>
    </defs>
    <g clip-path="url(#p8b54ceb15c)">
     <use xlink:href="#m5687e9c17d" x="0" y="244.529219" style="fill: #505050; stroke: #505050"/>
    </g>
   </g>
   <g id="PolyCollection_2">
    <defs>
     <path id="m056b8e3d44" d="M 53.328125 -51.963706 
L 53.328125 -41.74515 
L 90.547292 -43.624142 
L 127.766458 -43.036672 
L 164.985625 -42.885099 
L 202.204792 -42.594711 
L 239.423958 -40.581947 
L 276.643125 -39.838635 
L 276.643125 -40.622295 
L 276.643125 -40.622295 
L 239.423958 -43.587592 
L 202.204792 -47.660707 
L 164.985625 -54.735459 
L 127.766458 -55.266082 
L 90.547292 -56.350391 
L 53.328125 -51.963706 
z
" style="stroke: #606060"/>
    </defs>
    <g clip-path="url(#p8b54ceb15c)">
     <use xlink:href="#m056b8e3d44" x="0" y="244.529219" style="fill: #606060; stroke: #606060"/>
    </g>
   </g>
   <g id="PolyCollection_3">
    <defs>
     <path id="m70323be2b3" d="M 53.328125 -55.64295 
L 53.328125 -51.963706 
L 90.547292 -56.350391 
L 127.766458 -55.266082 
L 164.985625 -54.735459 
L 202.204792 -47.660707 
L 239.423958 -43.587592 
L 276.643125 -40.622295 
L 276.643125 -40.719107 
L 276.643125 -40.719107 
L 239.423958 -44.031695 
L 202.204792 -48.067202 
L 164.985625 -56.025561 
L 127.766458 -56.851695 
L 90.547292 -59.659726 
L 53.328125 -55.64295 
z
" style="stroke: #808080"/>
    </defs>
    <g clip-path="url(#p8b54ceb15c)">
     <use xlink:href="#m70323be2b3" x="0" y="244.529219" style="fill: #808080; stroke: #808080"/>
    </g>
   </g>
   <g id="PolyCollection_4">
    <defs>
     <path id="m488b987420" d="M 53.328125 -109.086042 
L 53.328125 -55.64295 
L 90.547292 -59.659726 
L 127.766458 -56.851695 
L 164.985625 -56.025561 
L 202.204792 -48.067202 
L 239.423958 -44.031695 
L 276.643125 -40.719107 
L 276.643125 -41.726496 
L 276.643125 -41.726496 
L 239.423958 -48.230143 
L 202.204792 -54.941372 
L 164.985625 -69.976387 
L 127.766458 -81.497481 
L 90.547292 -106.809474 
L 53.328125 -109.086042 
z
" style="stroke: #909090"/>
    </defs>
    <g clip-path="url(#p8b54ceb15c)">
     <use xlink:href="#m488b987420" x="0" y="244.529219" style="fill: #909090; stroke: #909090"/>
    </g>
   </g>
   <g id="PolyCollection_5">
    <defs>
     <path id="m30daa7084a" d="M 53.328125 -109.131039 
L 53.328125 -109.086042 
L 90.547292 -106.809474 
L 127.766458 -81.497481 
L 164.985625 -69.976387 
L 202.204792 -54.941372 
L 239.423958 -48.230143 
L 276.643125 -41.726496 
L 276.643125 -41.726507 
L 276.643125 -41.726507 
L 239.423958 -48.252804 
L 202.204792 -54.950904 
L 164.985625 -69.993748 
L 127.766458 -81.554181 
L 90.547292 -107.399635 
L 53.328125 -109.131039 
z
" style="stroke: #707070"/>
    </defs>
    <g clip-path="url(#p8b54ceb15c)">
     <use xlink:href="#m30daa7084a" x="0" y="244.529219" style="fill: #707070; stroke: #707070"/>
    </g>
   </g>
   <g id="PolyCollection_6">
    <defs>
     <path id="m5dc08b9172" d="M 53.328125 -120.361182 
L 53.328125 -109.131039 
L 90.547292 -107.399635 
L 127.766458 -81.554181 
L 164.985625 -69.993748 
L 202.204792 -54.950904 
L 239.423958 -48.252804 
L 276.643125 -41.726507 
L 276.643125 -41.726514 
L 276.643125 -41.726514 
L 239.423958 -48.302215 
L 202.204792 -55.027159 
L 164.985625 -70.058916 
L 127.766458 -88.758898 
L 90.547292 -118.018695 
L 53.328125 -120.361182 
z
" style="stroke: #9e5a01"/>
    </defs>
    <g clip-path="url(#p8b54ceb15c)">
     <use xlink:href="#m5dc08b9172" x="0" y="244.529219" style="fill: #9e5a01; stroke: #9e5a01"/>
    </g>
   </g>
   <g id="PolyCollection_7">
    <defs>
     <path id="mc5fef42911" d="M 53.328125 -121.079473 
L 53.328125 -120.361182 
L 90.547292 -118.018695 
L 127.766458 -88.758898 
L 164.985625 -70.058916 
L 202.204792 -55.027159 
L 239.423958 -48.302215 
L 276.643125 -41.726514 
L 276.643125 -47.814894 
L 276.643125 -47.814894 
L 239.423958 -59.910747 
L 202.204792 -71.399389 
L 164.985625 -90.197246 
L 127.766458 -103.129598 
L 90.547292 -119.351982 
L 53.328125 -121.079473 
z
" style="stroke: #b20101"/>
    </defs>
    <g clip-path="url(#p8b54ceb15c)">
     <use xlink:href="#mc5fef42911" x="0" y="244.529219" style="fill: #b20101; stroke: #b20101"/>
    </g>
   </g>
   <g id="matplotlib.axis_1">
    <g id="xtick_1">
     <g id="line2d_1">
      <defs>
       <path id="me703f6e55e" d="M 0 0 
L 0 3.5 
" style="stroke: #000000; stroke-width: 0.8"/>
      </defs>
      <g>
       <use xlink:href="#me703f6e55e" x="53.328125" y="204.879219" style="stroke: #000000; stroke-width: 0.8"/>
      </g>
     </g>
     <g id="text_1">
      <!-- 2020 -->
      <g transform="translate(56.0875 237.329219)rotate(-90)scale(0.1 -0.1)">
       <defs>
        <path id="DejaVuSans-32" d="M 1228 531 
L 3431 531 
L 3431 0 
L 469 0 
L 469 531 
Q 828 903 1448 1529 
Q 2069 2156 2228 2338 
Q 2531 2678 2651 2914 
Q 2772 3150 2772 3378 
Q 2772 3750 2511 3984 
Q 2250 4219 1831 4219 
Q 1534 4219 1204 4116 
Q 875 4013 500 3803 
L 500 4441 
Q 881 4594 1212 4672 
Q 1544 4750 1819 4750 
Q 2544 4750 2975 4387 
Q 3406 4025 3406 3419 
Q 3406 3131 3298 2873 
Q 3191 2616 2906 2266 
Q 2828 2175 2409 1742 
Q 1991 1309 1228 531 
z
" transform="scale(0.015625)"/>
        <path id="DejaVuSans-30" d="M 2034 4250 
Q 1547 4250 1301 3770 
Q 1056 3291 1056 2328 
Q 1056 1369 1301 889 
Q 1547 409 2034 409 
Q 2525 409 2770 889 
Q 3016 1369 3016 2328 
Q 3016 3291 2770 3770 
Q 2525 4250 2034 4250 
z
M 2034 4750 
Q 2819 4750 3233 4129 
Q 3647 3509 3647 2328 
Q 3647 1150 3233 529 
Q 2819 -91 2034 -91 
Q 1250 -91 836 529 
Q 422 1150 422 2328 
Q 422 3509 836 4129 
Q 1250 4750 2034 4750 
z
" transform="scale(0.015625)"/>
       </defs>
       <use xlink:href="#DejaVuSans-32"/>
       <use xlink:href="#DejaVuSans-30" x="63.623047"/>
       <use xlink:href="#DejaVuSans-32" x="127.246094"/>
       <use xlink:href="#DejaVuSans-30" x="190.869141"/>
      </g>
     </g>
    </g>
    <g id="xtick_2">
     <g id="line2d_2">
      <g>
       <use xlink:href="#me703f6e55e" x="90.547292" y="204.879219" style="stroke: #000000; stroke-width: 0.8"/>
      </g>
     </g>
     <g id="text_2">
      <!-- 2025 -->
      <g transform="translate(93.306667 237.329219)rotate(-90)scale(0.1 -0.1)">
       <defs>
        <path id="DejaVuSans-35" d="M 691 4666 
L 3169 4666 
L 3169 4134 
L 1269 4134 
L 1269 2991 
Q 1406 3038 1543 3061 
Q 1681 3084 1819 3084 
Q 2600 3084 3056 2656 
Q 3513 2228 3513 1497 
Q 3513 744 3044 326 
Q 2575 -91 1722 -91 
Q 1428 -91 1123 -41 
Q 819 9 494 109 
L 494 744 
Q 775 591 1075 516 
Q 1375 441 1709 441 
Q 2250 441 2565 725 
Q 2881 1009 2881 1497 
Q 2881 1984 2565 2268 
Q 2250 2553 1709 2553 
Q 1456 2553 1204 2497 
Q 953 2441 691 2322 
L 691 4666 
z
" transform="scale(0.015625)"/>
       </defs>
       <use xlink:href="#DejaVuSans-32"/>
       <use xlink:href="#DejaVuSans-30" x="63.623047"/>
       <use xlink:href="#DejaVuSans-32" x="127.246094"/>
       <use xlink:href="#DejaVuSans-35" x="190.869141"/>
      </g>
     </g>
    </g>
    <g id="xtick_3">
     <g id="line2d_3">
      <g>
       <use xlink:href="#me703f6e55e" x="127.766458" y="204.879219" style="stroke: #000000; stroke-width: 0.8"/>
      </g>
     </g>
     <g id="text_3">
      <!-- 2030 -->
      <g transform="translate(130.525833 237.329219)rotate(-90)scale(0.1 -0.1)">
       <defs>
        <path id="DejaVuSans-33" d="M 2597 2516 
Q 3050 2419 3304 2112 
Q 3559 1806 3559 1356 
Q 3559 666 3084 287 
Q 2609 -91 1734 -91 
Q 1441 -91 1130 -33 
Q 819 25 488 141 
L 488 750 
Q 750 597 1062 519 
Q 1375 441 1716 441 
Q 2309 441 2620 675 
Q 2931 909 2931 1356 
Q 2931 1769 2642 2001 
Q 2353 2234 1838 2234 
L 1294 2234 
L 1294 2753 
L 1863 2753 
Q 2328 2753 2575 2939 
Q 2822 3125 2822 3475 
Q 2822 3834 2567 4026 
Q 2313 4219 1838 4219 
Q 1578 4219 1281 4162 
Q 984 4106 628 3988 
L 628 4550 
Q 988 4650 1302 4700 
Q 1616 4750 1894 4750 
Q 2613 4750 3031 4423 
Q 3450 4097 3450 3541 
Q 3450 3153 3228 2886 
Q 3006 2619 2597 2516 
z
" transform="scale(0.015625)"/>
       </defs>
       <use xlink:href="#DejaVuSans-32"/>
       <use xlink:href="#DejaVuSans-30" x="63.623047"/>
       <use xlink:href="#DejaVuSans-33" x="127.246094"/>
       <use xlink:href="#DejaVuSans-30" x="190.869141"/>
      </g>
     </g>
    </g>
    <g id="xtick_4">
     <g id="line2d_4">
      <g>
       <use xlink:href="#me703f6e55e" x="164.985625" y="204.879219" style="stroke: #000000; stroke-width: 0.8"/>
      </g>
     </g>
     <g id="text_4">
      <!-- 2035 -->
      <g transform="translate(167.745 237.329219)rotate(-90)scale(0.1 -0.1)">
       <use xlink:href="#DejaVuSans-32"/>
       <use xlink:href="#DejaVuSans-30" x="63.623047"/>
       <use xlink:href="#DejaVuSans-33" x="127.246094"/>
       <use xlink:href="#DejaVuSans-35" x="190.869141"/>
      </g>
     </g>
    </g>
    <g id="xtick_5">
     <g id="line2d_5">
      <g>
       <use xlink:href="#me703f6e55e" x="202.204792" y="204.879219" style="stroke: #000000; stroke-width: 0.8"/>
      </g>
     </g>
     <g id="text_5">
      <!-- 2040 -->
      <g transform="translate(204.964167 237.329219)rotate(-90)scale(0.1 -0.1)">
       <defs>
        <path id="DejaVuSans-34" d="M 2419 4116 
L 825 1625 
L 2419 1625 
L 2419 4116 
z
M 2253 4666 
L 3047 4666 
L 3047 1625 
L 3713 1625 
L 3713 1100 
L 3047 1100 
L 3047 0 
L 2419 0 
L 2419 1100 
L 313 1100 
L 313 1709 
L 2253 4666 
z
" transform="scale(0.015625)"/>
       </defs>
       <use xlink:href="#DejaVuSans-32"/>
       <use xlink:href="#DejaVuSans-30" x="63.623047"/>
       <use xlink:href="#DejaVuSans-34" x="127.246094"/>
       <use xlink:href="#DejaVuSans-30" x="190.869141"/>
      </g>
     </g>
    </g>
    <g id="xtick_6">
     <g id="line2d_6">
      <g>
       <use xlink:href="#me703f6e55e" x="239.423958" y="204.879219" style="stroke: #000000; stroke-width: 0.8"/>
      </g>
     </g>
     <g id="text_6">
      <!-- 2045 -->
      <g transform="translate(242.183333 237.329219)rotate(-90)scale(0.1 -0.1)">
       <use xlink:href="#DejaVuSans-32"/>
       <use xlink:href="#DejaVuSans-30" x="63.623047"/>
       <use xlink:href="#DejaVuSans-34" x="127.246094"/>
       <use xlink:href="#DejaVuSans-35" x="190.869141"/>
      </g>
     </g>
    </g>
    <g id="xtick_7">
     <g id="line2d_7">
      <g>
       <use xlink:href="#me703f6e55e" x="276.643125" y="204.879219" style="stroke: #000000; stroke-width: 0.8"/>
      </g>
     </g>
     <g id="text_7">
      <!-- 2050 -->
      <g transform="translate(279.4025 237.329219)rotate(-90)scale(0.1 -0.1)">
       <use xlink:href="#DejaVuSans-32"/>
       <use xlink:href="#DejaVuSans-30" x="63.623047"/>
       <use xlink:href="#DejaVuSans-35" x="127.246094"/>
       <use xlink:href="#DejaVuSans-30" x="190.869141"/>
      </g>
     </g>
    </g>
   </g>
   <g id="matplotlib.axis_2">
    <g id="ytick_1">
     <g id="line2d_8">
      <path d="M 53.328125 204.879219 
L 276.643125 204.879219 
" clip-path="url(#p8b54ceb15c)" style="fill: none; stroke: #b0b0b0; stroke-width: 0.8; stroke-linecap: square"/>
     </g>
     <g id="line2d_9">
      <defs>
       <path id="mafd612d68b" d="M 0 0 
L -3.5 0 
" style="stroke: #000000; stroke-width: 0.8"/>
      </defs>
      <g>
       <use xlink:href="#mafd612d68b" x="53.328125" y="204.879219" style="stroke: #000000; stroke-width: 0.8"/>
      </g>
     </g>
     <g id="text_8">
      <!-- 0 -->
      <g transform="translate(39.965625 208.678438)scale(0.1 -0.1)">
       <use xlink:href="#DejaVuSans-30"/>
      </g>
     </g>
    </g>
    <g id="ytick_2">
     <g id="line2d_10">
      <path d="M 53.328125 172.565885 
L 276.643125 172.565885 
" clip-path="url(#p8b54ceb15c)" style="fill: none; stroke: #b0b0b0; stroke-width: 0.8; stroke-linecap: square"/>
     </g>
     <g id="line2d_11">
      <g>
       <use xlink:href="#mafd612d68b" x="53.328125" y="172.565885" style="stroke: #000000; stroke-width: 0.8"/>
      </g>
     </g>
     <g id="text_9">
      <!-- 200 -->
      <g transform="translate(27.240625 176.365104)scale(0.1 -0.1)">
       <use xlink:href="#DejaVuSans-32"/>
       <use xlink:href="#DejaVuSans-30" x="63.623047"/>
       <use xlink:href="#DejaVuSans-30" x="127.246094"/>
      </g>
     </g>
    </g>
    <g id="ytick_3">
     <g id="line2d_12">
      <path d="M 53.328125 140.252552 
L 276.643125 140.252552 
" clip-path="url(#p8b54ceb15c)" style="fill: none; stroke: #b0b0b0; stroke-width: 0.8; stroke-linecap: square"/>
     </g>
     <g id="line2d_13">
      <g>
       <use xlink:href="#mafd612d68b" x="53.328125" y="140.252552" style="stroke: #000000; stroke-width: 0.8"/>
      </g>
     </g>
     <g id="text_10">
      <!-- 400 -->
      <g transform="translate(27.240625 144.051771)scale(0.1 -0.1)">
       <use xlink:href="#DejaVuSans-34"/>
       <use xlink:href="#DejaVuSans-30" x="63.623047"/>
       <use xlink:href="#DejaVuSans-30" x="127.246094"/>
      </g>
     </g>
    </g>
    <g id="ytick_4">
     <g id="line2d_14">
      <path d="M 53.328125 107.939219 
L 276.643125 107.939219 
" clip-path="url(#p8b54ceb15c)" style="fill: none; stroke: #b0b0b0; stroke-width: 0.8; stroke-linecap: square"/>
     </g>
     <g id="line2d_15">
      <g>
       <use xlink:href="#mafd612d68b" x="53.328125" y="107.939219" style="stroke: #000000; stroke-width: 0.8"/>
      </g>
     </g>
     <g id="text_11">
      <!-- 600 -->
      <g transform="translate(27.240625 111.738438)scale(0.1 -0.1)">
       <defs>
        <path id="DejaVuSans-36" d="M 2113 2584 
Q 1688 2584 1439 2293 
Q 1191 2003 1191 1497 
Q 1191 994 1439 701 
Q 1688 409 2113 409 
Q 2538 409 2786 701 
Q 3034 994 3034 1497 
Q 3034 2003 2786 2293 
Q 2538 2584 2113 2584 
z
M 3366 4563 
L 3366 3988 
Q 3128 4100 2886 4159 
Q 2644 4219 2406 4219 
Q 1781 4219 1451 3797 
Q 1122 3375 1075 2522 
Q 1259 2794 1537 2939 
Q 1816 3084 2150 3084 
Q 2853 3084 3261 2657 
Q 3669 2231 3669 1497 
Q 3669 778 3244 343 
Q 2819 -91 2113 -91 
Q 1303 -91 875 529 
Q 447 1150 447 2328 
Q 447 3434 972 4092 
Q 1497 4750 2381 4750 
Q 2619 4750 2861 4703 
Q 3103 4656 3366 4563 
z
" transform="scale(0.015625)"/>
       </defs>
       <use xlink:href="#DejaVuSans-36"/>
       <use xlink:href="#DejaVuSans-30" x="63.623047"/>
       <use xlink:href="#DejaVuSans-30" x="127.246094"/>
      </g>
     </g>
    </g>
    <g id="ytick_5">
     <g id="line2d_16">
      <path d="M 53.328125 75.625885 
L 276.643125 75.625885 
" clip-path="url(#p8b54ceb15c)" style="fill: none; stroke: #b0b0b0; stroke-width: 0.8; stroke-linecap: square"/>
     </g>
     <g id="line2d_17">
      <g>
       <use xlink:href="#mafd612d68b" x="53.328125" y="75.625885" style="stroke: #000000; stroke-width: 0.8"/>
      </g>
     </g>
     <g id="text_12">
      <!-- 800 -->
      <g transform="translate(27.240625 79.425104)scale(0.1 -0.1)">
       <defs>
        <path id="DejaVuSans-38" d="M 2034 2216 
Q 1584 2216 1326 1975 
Q 1069 1734 1069 1313 
Q 1069 891 1326 650 
Q 1584 409 2034 409 
Q 2484 409 2743 651 
Q 3003 894 3003 1313 
Q 3003 1734 2745 1975 
Q 2488 2216 2034 2216 
z
M 1403 2484 
Q 997 2584 770 2862 
Q 544 3141 544 3541 
Q 544 4100 942 4425 
Q 1341 4750 2034 4750 
Q 2731 4750 3128 4425 
Q 3525 4100 3525 3541 
Q 3525 3141 3298 2862 
Q 3072 2584 2669 2484 
Q 3125 2378 3379 2068 
Q 3634 1759 3634 1313 
Q 3634 634 3220 271 
Q 2806 -91 2034 -91 
Q 1263 -91 848 271 
Q 434 634 434 1313 
Q 434 1759 690 2068 
Q 947 2378 1403 2484 
z
M 1172 3481 
Q 1172 3119 1398 2916 
Q 1625 2713 2034 2713 
Q 2441 2713 2670 2916 
Q 2900 3119 2900 3481 
Q 2900 3844 2670 4047 
Q 2441 4250 2034 4250 
Q 1625 4250 1398 4047 
Q 1172 3844 1172 3481 
z
" transform="scale(0.015625)"/>
       </defs>
       <use xlink:href="#DejaVuSans-38"/>
       <use xlink:href="#DejaVuSans-30" x="63.623047"/>
       <use xlink:href="#DejaVuSans-30" x="127.246094"/>
      </g>
     </g>
    </g>
    <g id="ytick_6">
     <g id="line2d_18">
      <path d="M 53.328125 43.312552 
L 276.643125 43.312552 
" clip-path="url(#p8b54ceb15c)" style="fill: none; stroke: #b0b0b0; stroke-width: 0.8; stroke-linecap: square"/>
     </g>
     <g id="line2d_19">
      <g>
       <use xlink:href="#mafd612d68b" x="53.328125" y="43.312552" style="stroke: #000000; stroke-width: 0.8"/>
      </g>
     </g>
     <g id="text_13">
      <!-- 1000 -->
      <g transform="translate(20.878125 47.111771)scale(0.1 -0.1)">
       <defs>
        <path id="DejaVuSans-31" d="M 794 531 
L 1825 531 
L 1825 4091 
L 703 3866 
L 703 4441 
L 1819 4666 
L 2450 4666 
L 2450 531 
L 3481 531 
L 3481 0 
L 794 0 
L 794 531 
z
" transform="scale(0.015625)"/>
       </defs>
       <use xlink:href="#DejaVuSans-31"/>
       <use xlink:href="#DejaVuSans-30" x="63.623047"/>
       <use xlink:href="#DejaVuSans-30" x="127.246094"/>
       <use xlink:href="#DejaVuSans-30" x="190.869141"/>
      </g>
     </g>
    </g>
    <g id="ytick_7">
     <g id="line2d_20">
      <path d="M 53.328125 10.999219 
L 276.643125 10.999219 
" clip-path="url(#p8b54ceb15c)" style="fill: none; stroke: #b0b0b0; stroke-width: 0.8; stroke-linecap: square"/>
     </g>
     <g id="line2d_21">
      <g>
       <use xlink:href="#mafd612d68b" x="53.328125" y="10.999219" style="stroke: #000000; stroke-width: 0.8"/>
      </g>
     </g>
     <g id="text_14">
      <!-- 1200 -->
      <g transform="translate(20.878125 14.798438)scale(0.1 -0.1)">
       <use xlink:href="#DejaVuSans-31"/>
       <use xlink:href="#DejaVuSans-32" x="63.623047"/>
       <use xlink:href="#DejaVuSans-30" x="127.246094"/>
       <use xlink:href="#DejaVuSans-30" x="190.869141"/>
      </g>
     </g>
    </g>
    <g id="text_15">
     <!-- CO2eq Emissions [MtCO2 per year] -->
     <g transform="translate(14.798438 196.250938)rotate(-90)scale(0.1 -0.1)">
      <defs>
       <path id="DejaVuSans-43" d="M 4122 4306 
L 4122 3641 
Q 3803 3938 3442 4084 
Q 3081 4231 2675 4231 
Q 1875 4231 1450 3742 
Q 1025 3253 1025 2328 
Q 1025 1406 1450 917 
Q 1875 428 2675 428 
Q 3081 428 3442 575 
Q 3803 722 4122 1019 
L 4122 359 
Q 3791 134 3420 21 
Q 3050 -91 2638 -91 
Q 1578 -91 968 557 
Q 359 1206 359 2328 
Q 359 3453 968 4101 
Q 1578 4750 2638 4750 
Q 3056 4750 3426 4639 
Q 3797 4528 4122 4306 
z
" transform="scale(0.015625)"/>
       <path id="DejaVuSans-4f" d="M 2522 4238 
Q 1834 4238 1429 3725 
Q 1025 3213 1025 2328 
Q 1025 1447 1429 934 
Q 1834 422 2522 422 
Q 3209 422 3611 934 
Q 4013 1447 4013 2328 
Q 4013 3213 3611 3725 
Q 3209 4238 2522 4238 
z
M 2522 4750 
Q 3503 4750 4090 4092 
Q 4678 3434 4678 2328 
Q 4678 1225 4090 567 
Q 3503 -91 2522 -91 
Q 1538 -91 948 565 
Q 359 1222 359 2328 
Q 359 3434 948 4092 
Q 1538 4750 2522 4750 
z
" transform="scale(0.015625)"/>
       <path id="DejaVuSans-65" d="M 3597 1894 
L 3597 1613 
L 953 1613 
Q 991 1019 1311 708 
Q 1631 397 2203 397 
Q 2534 397 2845 478 
Q 3156 559 3463 722 
L 3463 178 
Q 3153 47 2828 -22 
Q 2503 -91 2169 -91 
Q 1331 -91 842 396 
Q 353 884 353 1716 
Q 353 2575 817 3079 
Q 1281 3584 2069 3584 
Q 2775 3584 3186 3129 
Q 3597 2675 3597 1894 
z
M 3022 2063 
Q 3016 2534 2758 2815 
Q 2500 3097 2075 3097 
Q 1594 3097 1305 2825 
Q 1016 2553 972 2059 
L 3022 2063 
z
" transform="scale(0.015625)"/>
       <path id="DejaVuSans-71" d="M 947 1747 
Q 947 1113 1208 752 
Q 1469 391 1925 391 
Q 2381 391 2643 752 
Q 2906 1113 2906 1747 
Q 2906 2381 2643 2742 
Q 2381 3103 1925 3103 
Q 1469 3103 1208 2742 
Q 947 2381 947 1747 
z
M 2906 525 
Q 2725 213 2448 61 
Q 2172 -91 1784 -91 
Q 1150 -91 751 415 
Q 353 922 353 1747 
Q 353 2572 751 3078 
Q 1150 3584 1784 3584 
Q 2172 3584 2448 3432 
Q 2725 3281 2906 2969 
L 2906 3500 
L 3481 3500 
L 3481 -1331 
L 2906 -1331 
L 2906 525 
z
" transform="scale(0.015625)"/>
       <path id="DejaVuSans-20" transform="scale(0.015625)"/>
       <path id="DejaVuSans-45" d="M 628 4666 
L 3578 4666 
L 3578 4134 
L 1259 4134 
L 1259 2753 
L 3481 2753 
L 3481 2222 
L 1259 2222 
L 1259 531 
L 3634 531 
L 3634 0 
L 628 0 
L 628 4666 
z
" transform="scale(0.015625)"/>
       <path id="DejaVuSans-6d" d="M 3328 2828 
Q 3544 3216 3844 3400 
Q 4144 3584 4550 3584 
Q 5097 3584 5394 3201 
Q 5691 2819 5691 2113 
L 5691 0 
L 5113 0 
L 5113 2094 
Q 5113 2597 4934 2840 
Q 4756 3084 4391 3084 
Q 3944 3084 3684 2787 
Q 3425 2491 3425 1978 
L 3425 0 
L 2847 0 
L 2847 2094 
Q 2847 2600 2669 2842 
Q 2491 3084 2119 3084 
Q 1678 3084 1418 2786 
Q 1159 2488 1159 1978 
L 1159 0 
L 581 0 
L 581 3500 
L 1159 3500 
L 1159 2956 
Q 1356 3278 1631 3431 
Q 1906 3584 2284 3584 
Q 2666 3584 2933 3390 
Q 3200 3197 3328 2828 
z
" transform="scale(0.015625)"/>
       <path id="DejaVuSans-69" d="M 603 3500 
L 1178 3500 
L 1178 0 
L 603 0 
L 603 3500 
z
M 603 4863 
L 1178 4863 
L 1178 4134 
L 603 4134 
L 603 4863 
z
" transform="scale(0.015625)"/>
       <path id="DejaVuSans-73" d="M 2834 3397 
L 2834 2853 
Q 2591 2978 2328 3040 
Q 2066 3103 1784 3103 
Q 1356 3103 1142 2972 
Q 928 2841 928 2578 
Q 928 2378 1081 2264 
Q 1234 2150 1697 2047 
L 1894 2003 
Q 2506 1872 2764 1633 
Q 3022 1394 3022 966 
Q 3022 478 2636 193 
Q 2250 -91 1575 -91 
Q 1294 -91 989 -36 
Q 684 19 347 128 
L 347 722 
Q 666 556 975 473 
Q 1284 391 1588 391 
Q 1994 391 2212 530 
Q 2431 669 2431 922 
Q 2431 1156 2273 1281 
Q 2116 1406 1581 1522 
L 1381 1569 
Q 847 1681 609 1914 
Q 372 2147 372 2553 
Q 372 3047 722 3315 
Q 1072 3584 1716 3584 
Q 2034 3584 2315 3537 
Q 2597 3491 2834 3397 
z
" transform="scale(0.015625)"/>
       <path id="DejaVuSans-6f" d="M 1959 3097 
Q 1497 3097 1228 2736 
Q 959 2375 959 1747 
Q 959 1119 1226 758 
Q 1494 397 1959 397 
Q 2419 397 2687 759 
Q 2956 1122 2956 1747 
Q 2956 2369 2687 2733 
Q 2419 3097 1959 3097 
z
M 1959 3584 
Q 2709 3584 3137 3096 
Q 3566 2609 3566 1747 
Q 3566 888 3137 398 
Q 2709 -91 1959 -91 
Q 1206 -91 779 398 
Q 353 888 353 1747 
Q 353 2609 779 3096 
Q 1206 3584 1959 3584 
z
" transform="scale(0.015625)"/>
       <path id="DejaVuSans-6e" d="M 3513 2113 
L 3513 0 
L 2938 0 
L 2938 2094 
Q 2938 2591 2744 2837 
Q 2550 3084 2163 3084 
Q 1697 3084 1428 2787 
Q 1159 2491 1159 1978 
L 1159 0 
L 581 0 
L 581 3500 
L 1159 3500 
L 1159 2956 
Q 1366 3272 1645 3428 
Q 1925 3584 2291 3584 
Q 2894 3584 3203 3211 
Q 3513 2838 3513 2113 
z
" transform="scale(0.015625)"/>
       <path id="DejaVuSans-5b" d="M 550 4863 
L 1875 4863 
L 1875 4416 
L 1125 4416 
L 1125 -397 
L 1875 -397 
L 1875 -844 
L 550 -844 
L 550 4863 
z
" transform="scale(0.015625)"/>
       <path id="DejaVuSans-4d" d="M 628 4666 
L 1569 4666 
L 2759 1491 
L 3956 4666 
L 4897 4666 
L 4897 0 
L 4281 0 
L 4281 4097 
L 3078 897 
L 2444 897 
L 1241 4097 
L 1241 0 
L 628 0 
L 628 4666 
z
" transform="scale(0.015625)"/>
       <path id="DejaVuSans-74" d="M 1172 4494 
L 1172 3500 
L 2356 3500 
L 2356 3053 
L 1172 3053 
L 1172 1153 
Q 1172 725 1289 603 
Q 1406 481 1766 481 
L 2356 481 
L 2356 0 
L 1766 0 
Q 1100 0 847 248 
Q 594 497 594 1153 
L 594 3053 
L 172 3053 
L 172 3500 
L 594 3500 
L 594 4494 
L 1172 4494 
z
" transform="scale(0.015625)"/>
       <path id="DejaVuSans-70" d="M 1159 525 
L 1159 -1331 
L 581 -1331 
L 581 3500 
L 1159 3500 
L 1159 2969 
Q 1341 3281 1617 3432 
Q 1894 3584 2278 3584 
Q 2916 3584 3314 3078 
Q 3713 2572 3713 1747 
Q 3713 922 3314 415 
Q 2916 -91 2278 -91 
Q 1894 -91 1617 61 
Q 1341 213 1159 525 
z
M 3116 1747 
Q 3116 2381 2855 2742 
Q 2594 3103 2138 3103 
Q 1681 3103 1420 2742 
Q 1159 2381 1159 1747 
Q 1159 1113 1420 752 
Q 1681 391 2138 391 
Q 2594 391 2855 752 
Q 3116 1113 3116 1747 
z
" transform="scale(0.015625)"/>
       <path id="DejaVuSans-72" d="M 2631 2963 
Q 2534 3019 2420 3045 
Q 2306 3072 2169 3072 
Q 1681 3072 1420 2755 
Q 1159 2438 1159 1844 
L 1159 0 
L 581 0 
L 581 3500 
L 1159 3500 
L 1159 2956 
Q 1341 3275 1631 3429 
Q 1922 3584 2338 3584 
Q 2397 3584 2469 3576 
Q 2541 3569 2628 3553 
L 2631 2963 
z
" transform="scale(0.015625)"/>
       <path id="DejaVuSans-79" d="M 2059 -325 
Q 1816 -950 1584 -1140 
Q 1353 -1331 966 -1331 
L 506 -1331 
L 506 -850 
L 844 -850 
Q 1081 -850 1212 -737 
Q 1344 -625 1503 -206 
L 1606 56 
L 191 3500 
L 800 3500 
L 1894 763 
L 2988 3500 
L 3597 3500 
L 2059 -325 
z
" transform="scale(0.015625)"/>
       <path id="DejaVuSans-61" d="M 2194 1759 
Q 1497 1759 1228 1600 
Q 959 1441 959 1056 
Q 959 750 1161 570 
Q 1363 391 1709 391 
Q 2188 391 2477 730 
Q 2766 1069 2766 1631 
L 2766 1759 
L 2194 1759 
z
M 3341 1997 
L 3341 0 
L 2766 0 
L 2766 531 
Q 2569 213 2275 61 
Q 1981 -91 1556 -91 
Q 1019 -91 701 211 
Q 384 513 384 1019 
Q 384 1609 779 1909 
Q 1175 2209 1959 2209 
L 2766 2209 
L 2766 2266 
Q 2766 2663 2505 2880 
Q 2244 3097 1772 3097 
Q 1472 3097 1187 3025 
Q 903 2953 641 2809 
L 641 3341 
Q 956 3463 1253 3523 
Q 1550 3584 1831 3584 
Q 2591 3584 2966 3190 
Q 3341 2797 3341 1997 
z
" transform="scale(0.015625)"/>
       <path id="DejaVuSans-5d" d="M 1947 4863 
L 1947 -844 
L 622 -844 
L 622 -397 
L 1369 -397 
L 1369 4416 
L 622 4416 
L 622 4863 
L 1947 4863 
z
" transform="scale(0.015625)"/>
      </defs>
      <use xlink:href="#DejaVuSans-43"/>
      <use xlink:href="#DejaVuSans-4f" x="69.824219"/>
      <use xlink:href="#DejaVuSans-32" x="148.535156"/>
      <use xlink:href="#DejaVuSans-65" x="212.158203"/>
      <use xlink:href="#DejaVuSans-71" x="273.681641"/>
      <use xlink:href="#DejaVuSans-20" x="337.158203"/>
      <use xlink:href="#DejaVuSans-45" x="368.945312"/>
      <use xlink:href="#DejaVuSans-6d" x="432.128906"/>
      <use xlink:href="#DejaVuSans-69" x="529.541016"/>
      <use xlink:href="#DejaVuSans-73" x="557.324219"/>
      <use xlink:href="#DejaVuSans-73" x="609.423828"/>
      <use xlink:href="#DejaVuSans-69" x="661.523438"/>
      <use xlink:href="#DejaVuSans-6f" x="689.306641"/>
      <use xlink:href="#DejaVuSans-6e" x="750.488281"/>
      <use xlink:href="#DejaVuSans-73" x="813.867188"/>
      <use xlink:href="#DejaVuSans-20" x="865.966797"/>
      <use xlink:href="#DejaVuSans-5b" x="897.753906"/>
      <use xlink:href="#DejaVuSans-4d" x="936.767578"/>
      <use xlink:href="#DejaVuSans-74" x="1023.046875"/>
      <use xlink:href="#DejaVuSans-43" x="1062.255859"/>
      <use xlink:href="#DejaVuSans-4f" x="1132.080078"/>
      <use xlink:href="#DejaVuSans-32" x="1210.791016"/>
      <use xlink:href="#DejaVuSans-20" x="1274.414062"/>
      <use xlink:href="#DejaVuSans-70" x="1306.201172"/>
      <use xlink:href="#DejaVuSans-65" x="1369.677734"/>
      <use xlink:href="#DejaVuSans-72" x="1431.201172"/>
      <use xlink:href="#DejaVuSans-20" x="1472.314453"/>
      <use xlink:href="#DejaVuSans-79" x="1504.101562"/>
      <use xlink:href="#DejaVuSans-65" x="1563.28125"/>
      <use xlink:href="#DejaVuSans-61" x="1624.804688"/>
      <use xlink:href="#DejaVuSans-72" x="1686.083984"/>
      <use xlink:href="#DejaVuSans-5d" x="1727.197266"/>
     </g>
    </g>
   </g>
   <g id="line2d_22">
    <path d="M 53.328125 202.784069 
L 90.547292 200.905076 
L 127.766458 201.492547 
L 164.985625 201.64412 
L 202.204792 201.934508 
L 239.423958 203.947272 
L 276.643125 204.690583 
" clip-path="url(#p8b54ceb15c)" style="fill: none; stroke: #505050; stroke-width: 1.5; stroke-linecap: square"/>
   </g>
   <g id="line2d_23">
    <path d="M 53.328125 192.565513 
L 90.547292 188.178827 
L 127.766458 189.263137 
L 164.985625 189.79376 
L 202.204792 196.868512 
L 239.423958 200.941627 
L 276.643125 203.906923 
" clip-path="url(#p8b54ceb15c)" style="fill: none; stroke: #606060; stroke-width: 1.5; stroke-linecap: square"/>
   </g>
   <g id="line2d_24">
    <path d="M 53.328125 188.886269 
L 90.547292 184.869493 
L 127.766458 187.677524 
L 164.985625 188.503658 
L 202.204792 196.462017 
L 239.423958 200.497524 
L 276.643125 203.810111 
" clip-path="url(#p8b54ceb15c)" style="fill: none; stroke: #808080; stroke-width: 1.5; stroke-linecap: square"/>
   </g>
   <g id="line2d_25">
    <path d="M 53.328125 135.443177 
L 90.547292 137.719745 
L 127.766458 163.031738 
L 164.985625 174.552831 
L 202.204792 189.587847 
L 239.423958 196.299076 
L 276.643125 202.802723 
" clip-path="url(#p8b54ceb15c)" style="fill: none; stroke: #909090; stroke-width: 1.5; stroke-linecap: square"/>
   </g>
   <g id="line2d_26">
    <path d="M 53.328125 135.39818 
L 90.547292 137.129583 
L 127.766458 162.975037 
L 164.985625 174.53547 
L 202.204792 189.578315 
L 239.423958 196.276415 
L 276.643125 202.802712 
" clip-path="url(#p8b54ceb15c)" style="fill: none; stroke: #707070; stroke-width: 1.5; stroke-linecap: square"/>
   </g>
   <g id="line2d_27">
    <path d="M 53.328125 124.168037 
L 90.547292 126.510523 
L 127.766458 155.770321 
L 164.985625 174.470303 
L 202.204792 189.502059 
L 239.423958 196.227004 
L 276.643125 202.802705 
" clip-path="url(#p8b54ceb15c)" style="fill: none; stroke: #9e5a01; stroke-width: 1.5; stroke-linecap: square"/>
   </g>
   <g id="line2d_28">
    <path d="M 53.328125 123.449746 
L 90.547292 125.177237 
L 127.766458 141.399621 
L 164.985625 154.331973 
L 202.204792 173.12983 
L 239.423958 184.618472 
L 276.643125 196.714325 
" clip-path="url(#p8b54ceb15c)" style="fill: none; stroke: #b20101; stroke-width: 1.5; stroke-linecap: square"/>
   </g>
   <g id="patch_3">
    <path d="M 53.328125 204.879219 
L 53.328125 10.999219 
" style="fill: none; stroke: #000000; stroke-width: 0.8; stroke-linejoin: miter; stroke-linecap: square"/>
   </g>
   <g id="patch_4">
    <path d="M 276.643125 204.879219 
L 276.643125 10.999219 
" style="fill: none; stroke: #000000; stroke-width: 0.8; stroke-linejoin: miter; stroke-linecap: square"/>
   </g>
   <g id="patch_5">
    <path d="M 53.328125 204.879219 
L 276.643125 204.879219 
" style="fill: none; stroke: #000000; stroke-width: 0.8; stroke-linejoin: miter; stroke-linecap: square"/>
   </g>
   <g id="patch_6">
    <path d="M 53.328125 10.999219 
L 276.643125 10.999219 
" style="fill: none; stroke: #000000; stroke-width: 0.8; stroke-linejoin: miter; stroke-linecap: square"/>
   </g>
   <g id="text_16">
    <!-- SEA_AIMS_DEC -->
    <g transform="translate(57.794425 24.387219)scale(0.09 -0.09)">
     <defs>
      <path id="DejaVuSans-53" d="M 3425 4513 
L 3425 3897 
Q 3066 4069 2747 4153 
Q 2428 4238 2131 4238 
Q 1616 4238 1336 4038 
Q 1056 3838 1056 3469 
Q 1056 3159 1242 3001 
Q 1428 2844 1947 2747 
L 2328 2669 
Q 3034 2534 3370 2195 
Q 3706 1856 3706 1288 
Q 3706 609 3251 259 
Q 2797 -91 1919 -91 
Q 1588 -91 1214 -16 
Q 841 59 441 206 
L 441 856 
Q 825 641 1194 531 
Q 1563 422 1919 422 
Q 2459 422 2753 634 
Q 3047 847 3047 1241 
Q 3047 1584 2836 1778 
Q 2625 1972 2144 2069 
L 1759 2144 
Q 1053 2284 737 2584 
Q 422 2884 422 3419 
Q 422 4038 858 4394 
Q 1294 4750 2059 4750 
Q 2388 4750 2728 4690 
Q 3069 4631 3425 4513 
z
" transform="scale(0.015625)"/>
      <path id="DejaVuSans-41" d="M 2188 4044 
L 1331 1722 
L 3047 1722 
L 2188 4044 
z
M 1831 4666 
L 2547 4666 
L 4325 0 
L 3669 0 
L 3244 1197 
L 1141 1197 
L 716 0 
L 50 0 
L 1831 4666 
z
" transform="scale(0.015625)"/>
      <path id="DejaVuSans-5f" d="M 3263 -1063 
L 3263 -1509 
L -63 -1509 
L -63 -1063 
L 3263 -1063 
z
" transform="scale(0.015625)"/>
      <path id="DejaVuSans-49" d="M 628 4666 
L 1259 4666 
L 1259 0 
L 628 0 
L 628 4666 
z
" transform="scale(0.015625)"/>
      <path id="DejaVuSans-44" d="M 1259 4147 
L 1259 519 
L 2022 519 
Q 2988 519 3436 956 
Q 3884 1394 3884 2338 
Q 3884 3275 3436 3711 
Q 2988 4147 2022 4147 
L 1259 4147 
z
M 628 4666 
L 1925 4666 
Q 3281 4666 3915 4102 
Q 4550 3538 4550 2338 
Q 4550 1131 3912 565 
Q 3275 0 1925 0 
L 628 0 
L 628 4666 
z
" transform="scale(0.015625)"/>
     </defs>
     <use xlink:href="#DejaVuSans-53"/>
     <use xlink:href="#DejaVuSans-45" x="63.476562"/>
     <use xlink:href="#DejaVuSans-41" x="126.660156"/>
     <use xlink:href="#DejaVuSans-5f" x="195.068359"/>
     <use xlink:href="#DejaVuSans-41" x="245.068359"/>
     <use xlink:href="#DejaVuSans-49" x="313.476562"/>
     <use xlink:href="#DejaVuSans-4d" x="342.96875"/>
     <use xlink:href="#DejaVuSans-53" x="429.248047"/>
     <use xlink:href="#DejaVuSans-5f" x="492.724609"/>
     <use xlink:href="#DejaVuSans-44" x="542.724609"/>
     <use xlink:href="#DejaVuSans-45" x="619.726562"/>
     <use xlink:href="#DejaVuSans-43" x="682.910156"/>
    </g>
   </g>
  </g>
  <g id="axes_2">
   <g id="patch_7">
    <path d="M 332.733125 204.879219 
L 556.048125 204.879219 
L 556.048125 10.999219 
L 332.733125 10.999219 
z
" style="fill: #ffffff"/>
   </g>
   <g id="PolyCollection_8">
    <defs>
     <path id="mbf31d0d3c0" d="M 332.733125 -39.651003 
L 332.733125 -39.65 
L 369.952292 -39.65 
L 407.171458 -39.65 
L 444.390625 -39.65 
L 481.609792 -39.65 
L 518.828958 -39.65 
L 556.048125 -39.65 
L 556.048125 -57.042897 
L 556.048125 -57.042897 
L 518.828958 -52.949519 
L 481.609792 -47.78628 
L 444.390625 -42.791353 
L 407.171458 -39.955416 
L 369.952292 -39.656065 
L 332.733125 -39.651003 
z
" style="stroke: #b8ea04"/>
    </defs>
    <g clip-path="url(#p7f6ddeb7eb)">
     <use xlink:href="#mbf31d0d3c0" x="0" y="244.529219" style="fill: #b8ea04; stroke: #b8ea04"/>
    </g>
   </g>
   <g id="PolyCollection_9">
    <defs>
     <path id="macc774be7d" d="M 332.733125 -43.636688 
L 332.733125 -39.651003 
L 369.952292 -39.656065 
L 407.171458 -39.955416 
L 444.390625 -42.791353 
L 481.609792 -47.78628 
L 518.828958 -52.949519 
L 556.048125 -57.042897 
L 556.048125 -61.905422 
L 556.048125 -61.905422 
L 518.828958 -57.812316 
L 481.609792 -52.649072 
L 444.390625 -47.654144 
L 407.171458 -44.821612 
L 369.952292 -44.059785 
L 332.733125 -43.636688 
z
" style="stroke: #08ad97"/>
    </defs>
    <g clip-path="url(#p7f6ddeb7eb)">
     <use xlink:href="#macc774be7d" x="0" y="244.529219" style="fill: #08ad97; stroke: #08ad97"/>
    </g>
   </g>
   <g id="PolyCollection_10">
    <defs>
     <path id="md669c3e243" d="M 332.733125 -43.63671 
L 332.733125 -43.636688 
L 369.952292 -44.059785 
L 407.171458 -44.821612 
L 444.390625 -47.654144 
L 481.609792 -52.649072 
L 518.828958 -57.812316 
L 556.048125 -61.905422 
L 556.048125 -61.905785 
L 556.048125 -61.905785 
L 518.828958 -57.812494 
L 481.609792 -52.649176 
L 444.390625 -47.654745 
L 407.171458 -44.821875 
L 369.952292 -44.05981 
L 332.733125 -43.63671 
z
" style="stroke: #ea048a"/>
    </defs>
    <g clip-path="url(#p7f6ddeb7eb)">
     <use xlink:href="#md669c3e243" x="0" y="244.529219" style="fill: #ea048a; stroke: #ea048a"/>
    </g>
   </g>
   <g id="PolyCollection_11">
    <defs>
     <path id="m01a19e3e54" d="M 332.733125 -43.637113 
L 332.733125 -43.63671 
L 369.952292 -44.05981 
L 407.171458 -44.821875 
L 444.390625 -47.654745 
L 481.609792 -52.649176 
L 518.828958 -57.812494 
L 556.048125 -61.905785 
L 556.048125 -61.906234 
L 556.048125 -61.906234 
L 518.828958 -57.812912 
L 481.609792 -52.649578 
L 444.390625 -47.655271 
L 407.171458 -44.822331 
L 369.952292 -44.060214 
L 332.733125 -43.637113 
z
" style="stroke: #6895dd"/>
    </defs>
    <g clip-path="url(#p7f6ddeb7eb)">
     <use xlink:href="#m01a19e3e54" x="0" y="244.529219" style="fill: #6895dd; stroke: #6895dd"/>
    </g>
   </g>
   <g id="PolyCollection_12">
    <defs>
     <path id="m8c92f5d4cf" d="M 332.733125 -43.645727 
L 332.733125 -43.637113 
L 369.952292 -44.060214 
L 407.171458 -44.822331 
L 444.390625 -47.655271 
L 481.609792 -52.649578 
L 518.828958 -57.812912 
L 556.048125 -61.906234 
L 556.048125 -65.770076 
L 556.048125 -65.770076 
L 518.828958 -57.821963 
L 481.609792 -52.65821 
L 444.390625 -47.664026 
L 407.171458 -44.831001 
L 369.952292 -44.068832 
L 332.733125 -43.645727 
z
" style="stroke: #74c6f2"/>
    </defs>
    <g clip-path="url(#p7f6ddeb7eb)">
     <use xlink:href="#m8c92f5d4cf" x="0" y="244.529219" style="fill: #74c6f2; stroke: #74c6f2"/>
    </g>
   </g>
   <g id="PolyCollection_13">
    <defs>
     <path id="m27edd45d0a" d="M 332.733125 -44.175265 
L 332.733125 -43.645727 
L 369.952292 -44.068832 
L 407.171458 -44.831001 
L 444.390625 -47.664026 
L 481.609792 -52.65821 
L 518.828958 -57.821963 
L 556.048125 -65.770076 
L 556.048125 -75.779356 
L 556.048125 -75.779356 
L 518.828958 -63.714116 
L 481.609792 -57.560965 
L 444.390625 -51.923844 
L 407.171458 -47.296337 
L 369.952292 -45.19314 
L 332.733125 -44.175265 
z
" style="stroke: #235ebc"/>
    </defs>
    <g clip-path="url(#p7f6ddeb7eb)">
     <use xlink:href="#m27edd45d0a" x="0" y="244.529219" style="fill: #235ebc; stroke: #235ebc"/>
    </g>
   </g>
   <g id="PolyCollection_14">
    <defs>
     <path id="m6cda1c4869" d="M 332.733125 -44.554482 
L 332.733125 -44.175265 
L 369.952292 -45.19314 
L 407.171458 -47.296337 
L 444.390625 -51.923844 
L 481.609792 -57.560965 
L 518.828958 -63.714116 
L 556.048125 -75.779356 
L 556.048125 -115.194374 
L 556.048125 -115.194374 
L 518.828958 -91.72975 
L 481.609792 -74.947581 
L 444.390625 -60.681736 
L 407.171458 -51.481243 
L 369.952292 -47.163249 
L 332.733125 -44.554482 
z
" style="stroke: #f9d002"/>
    </defs>
    <g clip-path="url(#p7f6ddeb7eb)">
     <use xlink:href="#m6cda1c4869" x="0" y="244.529219" style="fill: #f9d002; stroke: #f9d002"/>
    </g>
   </g>
   <g id="PolyCollection_15">
    <defs>
     <path id="m508ab52c7a" d="M 332.733125 -47.743471 
L 332.733125 -44.554482 
L 369.952292 -47.163249 
L 407.171458 -51.481243 
L 444.390625 -60.681736 
L 481.609792 -74.947581 
L 518.828958 -91.72975 
L 556.048125 -115.194374 
L 556.048125 -119.184045 
L 556.048125 -119.184045 
L 518.828958 -96.400099 
L 481.609792 -81.240498 
L 444.390625 -68.388717 
L 407.171458 -58.092688 
L 369.952292 -50.723106 
L 332.733125 -47.743471 
z
" style="stroke: #b20101"/>
    </defs>
    <g clip-path="url(#p7f6ddeb7eb)">
     <use xlink:href="#m508ab52c7a" x="0" y="244.529219" style="fill: #b20101; stroke: #b20101"/>
    </g>
   </g>
   <g id="PolyCollection_16">
    <defs>
     <path id="m0e0210b9aa" d="M 332.733125 -47.881098 
L 332.733125 -47.743471 
L 369.952292 -50.723106 
L 407.171458 -58.092688 
L 444.390625 -68.388717 
L 481.609792 -81.240498 
L 518.828958 -96.400099 
L 556.048125 -119.184045 
L 556.048125 -119.184045 
L 556.048125 -119.184045 
L 518.828958 -96.400099 
L 481.609792 -81.249607 
L 444.390625 -68.449146 
L 407.171458 -58.191142 
L 369.952292 -50.827552 
L 332.733125 -47.881098 
z
" style="stroke: #0c6013"/>
    </defs>
    <g clip-path="url(#p7f6ddeb7eb)">
     <use xlink:href="#m0e0210b9aa" x="0" y="244.529219" style="fill: #0c6013; stroke: #0c6013"/>
    </g>
   </g>
   <g id="PolyCollection_17">
    <defs>
     <path id="m47fb9d3656" d="M 332.733125 -48.090102 
L 332.733125 -47.881098 
L 369.952292 -50.827552 
L 407.171458 -58.191142 
L 444.390625 -68.449146 
L 481.609792 -81.249607 
L 518.828958 -96.400099 
L 556.048125 -119.184045 
L 556.048125 -119.579295 
L 556.048125 -119.579295 
L 518.828958 -96.796577 
L 481.609792 -81.645373 
L 444.390625 -68.845337 
L 407.171458 -58.589467 
L 369.952292 -51.25481 
L 332.733125 -48.090102 
z
" style="stroke: #707070"/>
    </defs>
    <g clip-path="url(#p7f6ddeb7eb)">
     <use xlink:href="#m47fb9d3656" x="0" y="244.529219" style="fill: #707070; stroke: #707070"/>
    </g>
   </g>
   <g id="PolyCollection_18">
    <defs>
     <path id="mb085e629e4" d="M 332.733125 -48.849167 
L 332.733125 -48.090102 
L 369.952292 -51.25481 
L 407.171458 -58.589467 
L 444.390625 -68.845337 
L 481.609792 -81.645373 
L 518.828958 -96.796577 
L 556.048125 -119.579295 
L 556.048125 -120.081486 
L 556.048125 -120.081486 
L 518.828958 -97.377479 
L 481.609792 -82.224204 
L 444.390625 -69.472829 
L 407.171458 -59.233233 
L 369.952292 -51.993505 
L 332.733125 -48.849167 
z
" style="stroke: #808080"/>
    </defs>
    <g clip-path="url(#p7f6ddeb7eb)">
     <use xlink:href="#mb085e629e4" x="0" y="244.529219" style="fill: #808080; stroke: #808080"/>
    </g>
   </g>
   <g id="PolyCollection_19">
    <defs>
     <path id="m44560b183a" d="M 332.733125 -50.807669 
L 332.733125 -48.849167 
L 369.952292 -51.993505 
L 407.171458 -59.233233 
L 444.390625 -69.472829 
L 481.609792 -82.224204 
L 518.828958 -97.377479 
L 556.048125 -120.081486 
L 556.048125 -122.016208 
L 556.048125 -122.016208 
L 518.828958 -99.43605 
L 481.609792 -84.397618 
L 444.390625 -72.024393 
L 407.171458 -61.805936 
L 369.952292 -54.593891 
L 332.733125 -50.807669 
z
" style="stroke: #606060"/>
    </defs>
    <g clip-path="url(#p7f6ddeb7eb)">
     <use xlink:href="#m44560b183a" x="0" y="244.529219" style="fill: #606060; stroke: #606060"/>
    </g>
   </g>
   <g id="PolyCollection_20">
    <defs>
     <path id="m2c80005045" d="M 332.733125 -60.812106 
L 332.733125 -50.807669 
L 369.952292 -54.593891 
L 407.171458 -61.805936 
L 444.390625 -72.024393 
L 481.609792 -84.397618 
L 518.828958 -99.43605 
L 556.048125 -122.016208 
L 556.048125 -127.769579 
L 556.048125 -127.769579 
L 518.828958 -105.845315 
L 481.609792 -91.138951 
L 444.390625 -79.956225 
L 407.171458 -70.399746 
L 369.952292 -64.427024 
L 332.733125 -60.812106 
z
" style="stroke: #909090"/>
    </defs>
    <g clip-path="url(#p7f6ddeb7eb)">
     <use xlink:href="#m2c80005045" x="0" y="244.529219" style="fill: #909090; stroke: #909090"/>
    </g>
   </g>
   <g id="PolyCollection_21">
    <defs>
     <path id="m1ef9749886" d="M 332.733125 -61.126766 
L 332.733125 -60.812106 
L 369.952292 -64.427024 
L 407.171458 -70.399746 
L 444.390625 -79.956225 
L 481.609792 -91.138951 
L 518.828958 -105.845315 
L 556.048125 -127.769579 
L 556.048125 -128.165705 
L 556.048125 -128.165705 
L 518.828958 -106.283246 
L 481.609792 -91.690077 
L 444.390625 -80.523683 
L 407.171458 -70.975728 
L 369.952292 -65.036047 
L 332.733125 -61.126766 
z
" style="stroke: #505050"/>
    </defs>
    <g clip-path="url(#p7f6ddeb7eb)">
     <use xlink:href="#m1ef9749886" x="0" y="244.529219" style="fill: #505050; stroke: #505050"/>
    </g>
   </g>
   <g id="PolyCollection_22">
    <defs>
     <path id="mc8764b9976" d="M 332.733125 -61.126797 
L 332.733125 -61.126766 
L 369.952292 -65.036047 
L 407.171458 -70.975728 
L 444.390625 -80.523683 
L 481.609792 -91.690077 
L 518.828958 -106.283246 
L 556.048125 -128.165705 
L 556.048125 -128.165705 
L 556.048125 -128.165705 
L 518.828958 -106.283246 
L 481.609792 -91.690077 
L 444.390625 -80.523687 
L 407.171458 -70.975747 
L 369.952292 -65.036079 
L 332.733125 -61.126797 
z
" style="stroke: #ba91b1"/>
    </defs>
    <g clip-path="url(#p7f6ddeb7eb)">
     <use xlink:href="#mc8764b9976" x="0" y="244.529219" style="fill: #ba91b1; stroke: #ba91b1"/>
    </g>
   </g>
   <g id="PolyCollection_23">
    <defs>
     <path id="m3458643c68" d="M 332.733125 -61.973852 
L 332.733125 -61.126797 
L 369.952292 -65.036079 
L 407.171458 -70.975747 
L 444.390625 -80.523687 
L 481.609792 -91.690077 
L 518.828958 -106.283246 
L 556.048125 -128.165705 
L 556.048125 -128.794235 
L 556.048125 -128.794235 
L 518.828958 -106.912687 
L 481.609792 -92.320013 
L 444.390625 -81.164813 
L 407.171458 -71.748559 
L 369.952292 -65.871867 
L 332.733125 -61.973852 
z
" style="stroke: #9e5a01"/>
    </defs>
    <g clip-path="url(#p7f6ddeb7eb)">
     <use xlink:href="#m3458643c68" x="0" y="244.529219" style="fill: #9e5a01; stroke: #9e5a01"/>
    </g>
   </g>
   <g id="PolyCollection_24">
    <defs>
     <path id="m6cae7aff68" d="M 332.733125 -65.286186 
L 332.733125 -61.973852 
L 369.952292 -65.871867 
L 407.171458 -71.748559 
L 444.390625 -81.164813 
L 481.609792 -92.320013 
L 518.828958 -106.912687 
L 556.048125 -128.794235 
L 556.048125 -146.366683 
L 556.048125 -146.366683 
L 518.828958 -117.054984 
L 481.609792 -97.986811 
L 444.390625 -85.520014 
L 407.171458 -75.626155 
L 369.952292 -69.230847 
L 332.733125 -65.286186 
z
" style="stroke: #70af1d"/>
    </defs>
    <g clip-path="url(#p7f6ddeb7eb)">
     <use xlink:href="#m6cae7aff68" x="0" y="244.529219" style="fill: #70af1d; stroke: #70af1d"/>
    </g>
   </g>
   <g id="PolyCollection_25">
    <defs>
     <path id="m667f69d4b2" d="M 332.733125 -65.569627 
L 332.733125 -65.286186 
L 369.952292 -69.230847 
L 407.171458 -75.626155 
L 444.390625 -85.520014 
L 481.609792 -97.986811 
L 518.828958 -117.054984 
L 556.048125 -146.366683 
L 556.048125 -146.367181 
L 556.048125 -146.367181 
L 518.828958 -117.084896 
L 481.609792 -98.106499 
L 444.390625 -85.676157 
L 407.171458 -75.821104 
L 369.952292 -69.467367 
L 332.733125 -65.569627 
z
" style="stroke: #262626"/>
    </defs>
    <g clip-path="url(#p7f6ddeb7eb)">
     <use xlink:href="#m667f69d4b2" x="0" y="244.529219" style="fill: #262626; stroke: #262626"/>
    </g>
   </g>
   <g id="matplotlib.axis_3">
    <g id="xtick_8">
     <g id="line2d_29">
      <g>
       <use xlink:href="#me703f6e55e" x="332.733125" y="204.879219" style="stroke: #000000; stroke-width: 0.8"/>
      </g>
     </g>
     <g id="text_17">
      <!-- 2020 -->
      <g transform="translate(335.4925 237.329219)rotate(-90)scale(0.1 -0.1)">
       <use xlink:href="#DejaVuSans-32"/>
       <use xlink:href="#DejaVuSans-30" x="63.623047"/>
       <use xlink:href="#DejaVuSans-32" x="127.246094"/>
       <use xlink:href="#DejaVuSans-30" x="190.869141"/>
      </g>
     </g>
    </g>
    <g id="xtick_9">
     <g id="line2d_30">
      <g>
       <use xlink:href="#me703f6e55e" x="369.952292" y="204.879219" style="stroke: #000000; stroke-width: 0.8"/>
      </g>
     </g>
     <g id="text_18">
      <!-- 2025 -->
      <g transform="translate(372.711667 237.329219)rotate(-90)scale(0.1 -0.1)">
       <use xlink:href="#DejaVuSans-32"/>
       <use xlink:href="#DejaVuSans-30" x="63.623047"/>
       <use xlink:href="#DejaVuSans-32" x="127.246094"/>
       <use xlink:href="#DejaVuSans-35" x="190.869141"/>
      </g>
     </g>
    </g>
    <g id="xtick_10">
     <g id="line2d_31">
      <g>
       <use xlink:href="#me703f6e55e" x="407.171458" y="204.879219" style="stroke: #000000; stroke-width: 0.8"/>
      </g>
     </g>
     <g id="text_19">
      <!-- 2030 -->
      <g transform="translate(409.930833 237.329219)rotate(-90)scale(0.1 -0.1)">
       <use xlink:href="#DejaVuSans-32"/>
       <use xlink:href="#DejaVuSans-30" x="63.623047"/>
       <use xlink:href="#DejaVuSans-33" x="127.246094"/>
       <use xlink:href="#DejaVuSans-30" x="190.869141"/>
      </g>
     </g>
    </g>
    <g id="xtick_11">
     <g id="line2d_32">
      <g>
       <use xlink:href="#me703f6e55e" x="444.390625" y="204.879219" style="stroke: #000000; stroke-width: 0.8"/>
      </g>
     </g>
     <g id="text_20">
      <!-- 2035 -->
      <g transform="translate(447.15 237.329219)rotate(-90)scale(0.1 -0.1)">
       <use xlink:href="#DejaVuSans-32"/>
       <use xlink:href="#DejaVuSans-30" x="63.623047"/>
       <use xlink:href="#DejaVuSans-33" x="127.246094"/>
       <use xlink:href="#DejaVuSans-35" x="190.869141"/>
      </g>
     </g>
    </g>
    <g id="xtick_12">
     <g id="line2d_33">
      <g>
       <use xlink:href="#me703f6e55e" x="481.609792" y="204.879219" style="stroke: #000000; stroke-width: 0.8"/>
      </g>
     </g>
     <g id="text_21">
      <!-- 2040 -->
      <g transform="translate(484.369167 237.329219)rotate(-90)scale(0.1 -0.1)">
       <use xlink:href="#DejaVuSans-32"/>
       <use xlink:href="#DejaVuSans-30" x="63.623047"/>
       <use xlink:href="#DejaVuSans-34" x="127.246094"/>
       <use xlink:href="#DejaVuSans-30" x="190.869141"/>
      </g>
     </g>
    </g>
    <g id="xtick_13">
     <g id="line2d_34">
      <g>
       <use xlink:href="#me703f6e55e" x="518.828958" y="204.879219" style="stroke: #000000; stroke-width: 0.8"/>
      </g>
     </g>
     <g id="text_22">
      <!-- 2045 -->
      <g transform="translate(521.588333 237.329219)rotate(-90)scale(0.1 -0.1)">
       <use xlink:href="#DejaVuSans-32"/>
       <use xlink:href="#DejaVuSans-30" x="63.623047"/>
       <use xlink:href="#DejaVuSans-34" x="127.246094"/>
       <use xlink:href="#DejaVuSans-35" x="190.869141"/>
      </g>
     </g>
    </g>
    <g id="xtick_14">
     <g id="line2d_35">
      <g>
       <use xlink:href="#me703f6e55e" x="556.048125" y="204.879219" style="stroke: #000000; stroke-width: 0.8"/>
      </g>
     </g>
     <g id="text_23">
      <!-- 2050 -->
      <g transform="translate(558.8075 237.329219)rotate(-90)scale(0.1 -0.1)">
       <use xlink:href="#DejaVuSans-32"/>
       <use xlink:href="#DejaVuSans-30" x="63.623047"/>
       <use xlink:href="#DejaVuSans-35" x="127.246094"/>
       <use xlink:href="#DejaVuSans-30" x="190.869141"/>
      </g>
     </g>
    </g>
   </g>
   <g id="matplotlib.axis_4">
    <g id="ytick_8">
     <g id="line2d_36">
      <path d="M 332.733125 204.879219 
L 556.048125 204.879219 
" clip-path="url(#p7f6ddeb7eb)" style="fill: none; stroke: #b0b0b0; stroke-width: 0.8; stroke-linecap: square"/>
     </g>
     <g id="line2d_37">
      <g>
       <use xlink:href="#mafd612d68b" x="332.733125" y="204.879219" style="stroke: #000000; stroke-width: 0.8"/>
      </g>
     </g>
     <g id="text_24">
      <!-- 0 -->
      <g transform="translate(319.370625 208.678438)scale(0.1 -0.1)">
       <use xlink:href="#DejaVuSans-30"/>
      </g>
     </g>
    </g>
    <g id="ytick_9">
     <g id="line2d_38">
      <path d="M 332.733125 177.182076 
L 556.048125 177.182076 
" clip-path="url(#p7f6ddeb7eb)" style="fill: none; stroke: #b0b0b0; stroke-width: 0.8; stroke-linecap: square"/>
     </g>
     <g id="line2d_39">
      <g>
       <use xlink:href="#mafd612d68b" x="332.733125" y="177.182076" style="stroke: #000000; stroke-width: 0.8"/>
      </g>
     </g>
     <g id="text_25">
      <!-- 100 -->
      <g transform="translate(306.645625 180.981295)scale(0.1 -0.1)">
       <use xlink:href="#DejaVuSans-31"/>
       <use xlink:href="#DejaVuSans-30" x="63.623047"/>
       <use xlink:href="#DejaVuSans-30" x="127.246094"/>
      </g>
     </g>
    </g>
    <g id="ytick_10">
     <g id="line2d_40">
      <path d="M 332.733125 149.484933 
L 556.048125 149.484933 
" clip-path="url(#p7f6ddeb7eb)" style="fill: none; stroke: #b0b0b0; stroke-width: 0.8; stroke-linecap: square"/>
     </g>
     <g id="line2d_41">
      <g>
       <use xlink:href="#mafd612d68b" x="332.733125" y="149.484933" style="stroke: #000000; stroke-width: 0.8"/>
      </g>
     </g>
     <g id="text_26">
      <!-- 200 -->
      <g transform="translate(306.645625 153.284152)scale(0.1 -0.1)">
       <use xlink:href="#DejaVuSans-32"/>
       <use xlink:href="#DejaVuSans-30" x="63.623047"/>
       <use xlink:href="#DejaVuSans-30" x="127.246094"/>
      </g>
     </g>
    </g>
    <g id="ytick_11">
     <g id="line2d_42">
      <path d="M 332.733125 121.78779 
L 556.048125 121.78779 
" clip-path="url(#p7f6ddeb7eb)" style="fill: none; stroke: #b0b0b0; stroke-width: 0.8; stroke-linecap: square"/>
     </g>
     <g id="line2d_43">
      <g>
       <use xlink:href="#mafd612d68b" x="332.733125" y="121.78779" style="stroke: #000000; stroke-width: 0.8"/>
      </g>
     </g>
     <g id="text_27">
      <!-- 300 -->
      <g transform="translate(306.645625 125.587009)scale(0.1 -0.1)">
       <use xlink:href="#DejaVuSans-33"/>
       <use xlink:href="#DejaVuSans-30" x="63.623047"/>
       <use xlink:href="#DejaVuSans-30" x="127.246094"/>
      </g>
     </g>
    </g>
    <g id="ytick_12">
     <g id="line2d_44">
      <path d="M 332.733125 94.090647 
L 556.048125 94.090647 
" clip-path="url(#p7f6ddeb7eb)" style="fill: none; stroke: #b0b0b0; stroke-width: 0.8; stroke-linecap: square"/>
     </g>
     <g id="line2d_45">
      <g>
       <use xlink:href="#mafd612d68b" x="332.733125" y="94.090647" style="stroke: #000000; stroke-width: 0.8"/>
      </g>
     </g>
     <g id="text_28">
      <!-- 400 -->
      <g transform="translate(306.645625 97.889866)scale(0.1 -0.1)">
       <use xlink:href="#DejaVuSans-34"/>
       <use xlink:href="#DejaVuSans-30" x="63.623047"/>
       <use xlink:href="#DejaVuSans-30" x="127.246094"/>
      </g>
     </g>
    </g>
    <g id="ytick_13">
     <g id="line2d_46">
      <path d="M 332.733125 66.393504 
L 556.048125 66.393504 
" clip-path="url(#p7f6ddeb7eb)" style="fill: none; stroke: #b0b0b0; stroke-width: 0.8; stroke-linecap: square"/>
     </g>
     <g id="line2d_47">
      <g>
       <use xlink:href="#mafd612d68b" x="332.733125" y="66.393504" style="stroke: #000000; stroke-width: 0.8"/>
      </g>
     </g>
     <g id="text_29">
      <!-- 500 -->
      <g transform="translate(306.645625 70.192723)scale(0.1 -0.1)">
       <use xlink:href="#DejaVuSans-35"/>
       <use xlink:href="#DejaVuSans-30" x="63.623047"/>
       <use xlink:href="#DejaVuSans-30" x="127.246094"/>
      </g>
     </g>
    </g>
    <g id="ytick_14">
     <g id="line2d_48">
      <path d="M 332.733125 38.696362 
L 556.048125 38.696362 
" clip-path="url(#p7f6ddeb7eb)" style="fill: none; stroke: #b0b0b0; stroke-width: 0.8; stroke-linecap: square"/>
     </g>
     <g id="line2d_49">
      <g>
       <use xlink:href="#mafd612d68b" x="332.733125" y="38.696362" style="stroke: #000000; stroke-width: 0.8"/>
      </g>
     </g>
     <g id="text_30">
      <!-- 600 -->
      <g transform="translate(306.645625 42.49558)scale(0.1 -0.1)">
       <use xlink:href="#DejaVuSans-36"/>
       <use xlink:href="#DejaVuSans-30" x="63.623047"/>
       <use xlink:href="#DejaVuSans-30" x="127.246094"/>
      </g>
     </g>
    </g>
    <g id="ytick_15">
     <g id="line2d_50">
      <path d="M 332.733125 10.999219 
L 556.048125 10.999219 
" clip-path="url(#p7f6ddeb7eb)" style="fill: none; stroke: #b0b0b0; stroke-width: 0.8; stroke-linecap: square"/>
     </g>
     <g id="line2d_51">
      <g>
       <use xlink:href="#mafd612d68b" x="332.733125" y="10.999219" style="stroke: #000000; stroke-width: 0.8"/>
      </g>
     </g>
     <g id="text_31">
      <!-- 700 -->
      <g transform="translate(306.645625 14.798438)scale(0.1 -0.1)">
       <defs>
        <path id="DejaVuSans-37" d="M 525 4666 
L 3525 4666 
L 3525 4397 
L 1831 0 
L 1172 0 
L 2766 4134 
L 525 4134 
L 525 4666 
z
" transform="scale(0.015625)"/>
       </defs>
       <use xlink:href="#DejaVuSans-37"/>
       <use xlink:href="#DejaVuSans-30" x="63.623047"/>
       <use xlink:href="#DejaVuSans-30" x="127.246094"/>
      </g>
     </g>
    </g>
    <g id="text_32">
     <!-- System Cost [EUR billion per year] -->
     <g transform="translate(300.565937 194.260312)rotate(-90)scale(0.1 -0.1)">
      <defs>
       <path id="DejaVuSans-55" d="M 556 4666 
L 1191 4666 
L 1191 1831 
Q 1191 1081 1462 751 
Q 1734 422 2344 422 
Q 2950 422 3222 751 
Q 3494 1081 3494 1831 
L 3494 4666 
L 4128 4666 
L 4128 1753 
Q 4128 841 3676 375 
Q 3225 -91 2344 -91 
Q 1459 -91 1007 375 
Q 556 841 556 1753 
L 556 4666 
z
" transform="scale(0.015625)"/>
       <path id="DejaVuSans-52" d="M 2841 2188 
Q 3044 2119 3236 1894 
Q 3428 1669 3622 1275 
L 4263 0 
L 3584 0 
L 2988 1197 
Q 2756 1666 2539 1819 
Q 2322 1972 1947 1972 
L 1259 1972 
L 1259 0 
L 628 0 
L 628 4666 
L 2053 4666 
Q 2853 4666 3247 4331 
Q 3641 3997 3641 3322 
Q 3641 2881 3436 2590 
Q 3231 2300 2841 2188 
z
M 1259 4147 
L 1259 2491 
L 2053 2491 
Q 2509 2491 2742 2702 
Q 2975 2913 2975 3322 
Q 2975 3731 2742 3939 
Q 2509 4147 2053 4147 
L 1259 4147 
z
" transform="scale(0.015625)"/>
       <path id="DejaVuSans-62" d="M 3116 1747 
Q 3116 2381 2855 2742 
Q 2594 3103 2138 3103 
Q 1681 3103 1420 2742 
Q 1159 2381 1159 1747 
Q 1159 1113 1420 752 
Q 1681 391 2138 391 
Q 2594 391 2855 752 
Q 3116 1113 3116 1747 
z
M 1159 2969 
Q 1341 3281 1617 3432 
Q 1894 3584 2278 3584 
Q 2916 3584 3314 3078 
Q 3713 2572 3713 1747 
Q 3713 922 3314 415 
Q 2916 -91 2278 -91 
Q 1894 -91 1617 61 
Q 1341 213 1159 525 
L 1159 0 
L 581 0 
L 581 4863 
L 1159 4863 
L 1159 2969 
z
" transform="scale(0.015625)"/>
       <path id="DejaVuSans-6c" d="M 603 4863 
L 1178 4863 
L 1178 0 
L 603 0 
L 603 4863 
z
" transform="scale(0.015625)"/>
      </defs>
      <use xlink:href="#DejaVuSans-53"/>
      <use xlink:href="#DejaVuSans-79" x="63.476562"/>
      <use xlink:href="#DejaVuSans-73" x="122.65625"/>
      <use xlink:href="#DejaVuSans-74" x="174.755859"/>
      <use xlink:href="#DejaVuSans-65" x="213.964844"/>
      <use xlink:href="#DejaVuSans-6d" x="275.488281"/>
      <use xlink:href="#DejaVuSans-20" x="372.900391"/>
      <use xlink:href="#DejaVuSans-43" x="404.6875"/>
      <use xlink:href="#DejaVuSans-6f" x="474.511719"/>
      <use xlink:href="#DejaVuSans-73" x="535.693359"/>
      <use xlink:href="#DejaVuSans-74" x="587.792969"/>
      <use xlink:href="#DejaVuSans-20" x="627.001953"/>
      <use xlink:href="#DejaVuSans-5b" x="658.789062"/>
      <use xlink:href="#DejaVuSans-45" x="697.802734"/>
      <use xlink:href="#DejaVuSans-55" x="760.986328"/>
      <use xlink:href="#DejaVuSans-52" x="834.179688"/>
      <use xlink:href="#DejaVuSans-20" x="903.662109"/>
      <use xlink:href="#DejaVuSans-62" x="935.449219"/>
      <use xlink:href="#DejaVuSans-69" x="998.925781"/>
      <use xlink:href="#DejaVuSans-6c" x="1026.708984"/>
      <use xlink:href="#DejaVuSans-6c" x="1054.492188"/>
      <use xlink:href="#DejaVuSans-69" x="1082.275391"/>
      <use xlink:href="#DejaVuSans-6f" x="1110.058594"/>
      <use xlink:href="#DejaVuSans-6e" x="1171.240234"/>
      <use xlink:href="#DejaVuSans-20" x="1234.619141"/>
      <use xlink:href="#DejaVuSans-70" x="1266.40625"/>
      <use xlink:href="#DejaVuSans-65" x="1329.882812"/>
      <use xlink:href="#DejaVuSans-72" x="1391.40625"/>
      <use xlink:href="#DejaVuSans-20" x="1432.519531"/>
      <use xlink:href="#DejaVuSans-79" x="1464.306641"/>
      <use xlink:href="#DejaVuSans-65" x="1523.486328"/>
      <use xlink:href="#DejaVuSans-61" x="1585.009766"/>
      <use xlink:href="#DejaVuSans-72" x="1646.289062"/>
      <use xlink:href="#DejaVuSans-5d" x="1687.402344"/>
     </g>
    </g>
   </g>
   <g id="line2d_52">
    <path d="M 332.733125 204.878215 
L 369.952292 204.873154 
L 407.171458 204.573802 
L 444.390625 201.737866 
L 481.609792 196.742939 
L 518.828958 191.5797 
L 556.048125 187.486322 
" clip-path="url(#p7f6ddeb7eb)" style="fill: none; stroke: #b8ea04; stroke-width: 1.5; stroke-linecap: square"/>
   </g>
   <g id="line2d_53">
    <path d="M 332.733125 200.892531 
L 369.952292 200.469433 
L 407.171458 199.707607 
L 444.390625 196.875075 
L 481.609792 191.880147 
L 518.828958 186.716903 
L 556.048125 182.623796 
" clip-path="url(#p7f6ddeb7eb)" style="fill: none; stroke: #08ad97; stroke-width: 1.5; stroke-linecap: square"/>
   </g>
   <g id="line2d_54">
    <path d="M 332.733125 200.892509 
L 369.952292 200.469409 
L 407.171458 199.707344 
L 444.390625 196.874474 
L 481.609792 191.880043 
L 518.828958 186.716724 
L 556.048125 182.623434 
" clip-path="url(#p7f6ddeb7eb)" style="fill: none; stroke: #ea048a; stroke-width: 1.5; stroke-linecap: square"/>
   </g>
   <g id="line2d_55">
    <path d="M 332.733125 200.892106 
L 369.952292 200.469004 
L 407.171458 199.706888 
L 444.390625 196.873948 
L 481.609792 191.87964 
L 518.828958 186.716307 
L 556.048125 182.622985 
" clip-path="url(#p7f6ddeb7eb)" style="fill: none; stroke: #6895dd; stroke-width: 1.5; stroke-linecap: square"/>
   </g>
   <g id="line2d_56">
    <path d="M 332.733125 200.883492 
L 369.952292 200.460387 
L 407.171458 199.698218 
L 444.390625 196.865193 
L 481.609792 191.871009 
L 518.828958 186.707256 
L 556.048125 178.759142 
" clip-path="url(#p7f6ddeb7eb)" style="fill: none; stroke: #74c6f2; stroke-width: 1.5; stroke-linecap: square"/>
   </g>
   <g id="line2d_57">
    <path d="M 332.733125 200.353954 
L 369.952292 199.336079 
L 407.171458 197.232882 
L 444.390625 192.605375 
L 481.609792 186.968254 
L 518.828958 180.815103 
L 556.048125 168.749863 
" clip-path="url(#p7f6ddeb7eb)" style="fill: none; stroke: #235ebc; stroke-width: 1.5; stroke-linecap: square"/>
   </g>
   <g id="line2d_58">
    <path d="M 332.733125 199.974737 
L 369.952292 197.365969 
L 407.171458 193.047975 
L 444.390625 183.847482 
L 481.609792 169.581638 
L 518.828958 152.799469 
L 556.048125 129.334845 
" clip-path="url(#p7f6ddeb7eb)" style="fill: none; stroke: #f9d002; stroke-width: 1.5; stroke-linecap: square"/>
   </g>
   <g id="line2d_59">
    <path d="M 332.733125 196.785748 
L 369.952292 193.806113 
L 407.171458 186.436531 
L 444.390625 176.140502 
L 481.609792 163.28872 
L 518.828958 148.12912 
L 556.048125 125.345174 
" clip-path="url(#p7f6ddeb7eb)" style="fill: none; stroke: #b20101; stroke-width: 1.5; stroke-linecap: square"/>
   </g>
   <g id="line2d_60">
    <path d="M 332.733125 196.64812 
L 369.952292 193.701667 
L 407.171458 186.338077 
L 444.390625 176.080073 
L 481.609792 163.279612 
L 518.828958 148.12912 
L 556.048125 125.345174 
" clip-path="url(#p7f6ddeb7eb)" style="fill: none; stroke: #0c6013; stroke-width: 1.5; stroke-linecap: square"/>
   </g>
   <g id="line2d_61">
    <path d="M 332.733125 196.439117 
L 369.952292 193.274408 
L 407.171458 185.939752 
L 444.390625 175.683882 
L 481.609792 162.883845 
L 518.828958 147.732641 
L 556.048125 124.949923 
" clip-path="url(#p7f6ddeb7eb)" style="fill: none; stroke: #707070; stroke-width: 1.5; stroke-linecap: square"/>
   </g>
   <g id="line2d_62">
    <path d="M 332.733125 195.680052 
L 369.952292 192.535714 
L 407.171458 185.295986 
L 444.390625 175.056389 
L 481.609792 162.305015 
L 518.828958 147.15174 
L 556.048125 124.447733 
" clip-path="url(#p7f6ddeb7eb)" style="fill: none; stroke: #808080; stroke-width: 1.5; stroke-linecap: square"/>
   </g>
   <g id="line2d_63">
    <path d="M 332.733125 193.72155 
L 369.952292 189.935328 
L 407.171458 182.723282 
L 444.390625 172.504825 
L 481.609792 160.131601 
L 518.828958 145.093169 
L 556.048125 122.513011 
" clip-path="url(#p7f6ddeb7eb)" style="fill: none; stroke: #606060; stroke-width: 1.5; stroke-linecap: square"/>
   </g>
   <g id="line2d_64">
    <path d="M 332.733125 183.717113 
L 369.952292 180.102195 
L 407.171458 174.129473 
L 444.390625 164.572994 
L 481.609792 153.390268 
L 518.828958 138.683904 
L 556.048125 116.75964 
" clip-path="url(#p7f6ddeb7eb)" style="fill: none; stroke: #909090; stroke-width: 1.5; stroke-linecap: square"/>
   </g>
   <g id="line2d_65">
    <path d="M 332.733125 183.402453 
L 369.952292 179.493172 
L 407.171458 173.553491 
L 444.390625 164.005536 
L 481.609792 152.839142 
L 518.828958 138.245973 
L 556.048125 116.363514 
" clip-path="url(#p7f6ddeb7eb)" style="fill: none; stroke: #505050; stroke-width: 1.5; stroke-linecap: square"/>
   </g>
   <g id="line2d_66">
    <path d="M 332.733125 183.402422 
L 369.952292 179.49314 
L 407.171458 173.553472 
L 444.390625 164.005532 
L 481.609792 152.839142 
L 518.828958 138.245973 
L 556.048125 116.363514 
" clip-path="url(#p7f6ddeb7eb)" style="fill: none; stroke: #ba91b1; stroke-width: 1.5; stroke-linecap: square"/>
   </g>
   <g id="line2d_67">
    <path d="M 332.733125 182.555367 
L 369.952292 178.657352 
L 407.171458 172.78066 
L 444.390625 163.364406 
L 481.609792 152.209205 
L 518.828958 137.616532 
L 556.048125 115.734984 
" clip-path="url(#p7f6ddeb7eb)" style="fill: none; stroke: #9e5a01; stroke-width: 1.5; stroke-linecap: square"/>
   </g>
   <g id="line2d_68">
    <path d="M 332.733125 179.243033 
L 369.952292 175.298372 
L 407.171458 168.903063 
L 444.390625 159.009204 
L 481.609792 146.542408 
L 518.828958 127.474235 
L 556.048125 98.162536 
" clip-path="url(#p7f6ddeb7eb)" style="fill: none; stroke: #70af1d; stroke-width: 1.5; stroke-linecap: square"/>
   </g>
   <g id="line2d_69">
    <path d="M 332.733125 178.959592 
L 369.952292 175.061852 
L 407.171458 168.708115 
L 444.390625 158.853062 
L 481.609792 146.42272 
L 518.828958 127.444323 
L 556.048125 98.162038 
" clip-path="url(#p7f6ddeb7eb)" style="fill: none; stroke: #262626; stroke-width: 1.5; stroke-linecap: square"/>
   </g>
   <g id="patch_8">
    <path d="M 332.733125 204.879219 
L 332.733125 10.999219 
" style="fill: none; stroke: #000000; stroke-width: 0.8; stroke-linejoin: miter; stroke-linecap: square"/>
   </g>
   <g id="patch_9">
    <path d="M 556.048125 204.879219 
L 556.048125 10.999219 
" style="fill: none; stroke: #000000; stroke-width: 0.8; stroke-linejoin: miter; stroke-linecap: square"/>
   </g>
   <g id="patch_10">
    <path d="M 332.733125 204.879219 
L 556.048125 204.879219 
" style="fill: none; stroke: #000000; stroke-width: 0.8; stroke-linejoin: miter; stroke-linecap: square"/>
   </g>
   <g id="patch_11">
    <path d="M 332.733125 10.999219 
L 556.048125 10.999219 
" style="fill: none; stroke: #000000; stroke-width: 0.8; stroke-linejoin: miter; stroke-linecap: square"/>
   </g>
   <g id="text_33">
    <!-- SEA_AIMS_DEC -->
    <g transform="translate(337.199425 24.387219)scale(0.09 -0.09)">
     <use xlink:href="#DejaVuSans-53"/>
     <use xlink:href="#DejaVuSans-45" x="63.476562"/>
     <use xlink:href="#DejaVuSans-41" x="126.660156"/>
     <use xlink:href="#DejaVuSans-5f" x="195.068359"/>
     <use xlink:href="#DejaVuSans-41" x="245.068359"/>
     <use xlink:href="#DejaVuSans-49" x="313.476562"/>
     <use xlink:href="#DejaVuSans-4d" x="342.96875"/>
     <use xlink:href="#DejaVuSans-53" x="429.248047"/>
     <use xlink:href="#DejaVuSans-5f" x="492.724609"/>
     <use xlink:href="#DejaVuSans-44" x="542.724609"/>
     <use xlink:href="#DejaVuSans-45" x="619.726562"/>
     <use xlink:href="#DejaVuSans-43" x="682.910156"/>
    </g>
   </g>
  </g>
 </g>
 <defs>
  <clipPath id="p8b54ceb15c">
   <rect x="53.328125" y="10.999219" width="223.315" height="193.88"/>
  </clipPath>
  <clipPath id="p7f6ddeb7eb">
   <rect x="332.733125" y="10.999219" width="223.315" height="193.88"/>
  </clipPath>
 </defs>
</svg>
