<?xml version="1.0" encoding="utf-8" standalone="no"?>
<!DOCTYPE svg PUBLIC "-//W3C//DTD SVG 1.1//EN"
  "http://www.w3.org/Graphics/SVG/1.1/DTD/svg11.dtd">
<svg xmlns:xlink="http://www.w3.org/1999/xlink" width="506.928125pt" height="295.725469pt" viewBox="0 0 506.928125 295.725469" xmlns="http://www.w3.org/2000/svg" version="1.1">
 <metadata>
  <rdf:RDF xmlns:dc="http://purl.org/dc/elements/1.1/" xmlns:cc="http://creativecommons.org/ns#" xmlns:rdf="http://www.w3.org/1999/02/22-rdf-syntax-ns#">
   <cc:Work>
    <dc:type rdf:resource="http://purl.org/dc/dcmitype/StillImage"/>
    <dc:date>2024-12-03T19:10:17.820105</dc:date>
    <dc:format>image/svg+xml</dc:format>
    <dc:creator>
     <cc:Agent>
      <dc:title>Matplotlib v3.9.2, https://matplotlib.org/</dc:title>
     </cc:Agent>
    </dc:creator>
   </cc:Work>
  </rdf:RDF>
 </metadata>
 <defs>
  <style type="text/css">*{stroke-linejoin: round; stroke-linecap: butt}</style>
 </defs>
 <g id="figure_1">
  <g id="patch_1">
   <path d="M 0 295.725469 
L 506.928125 295.725469 
L 506.928125 0 
L 0 0 
z
" style="fill: #ffffff"/>
  </g>
  <g id="axes_1">
   <g id="patch_2">
    <path d="M 53.328125 177.319219 
L 499.728125 177.319219 
L 499.728125 10.999219 
L 53.328125 10.999219 
z
" style="fill: #ffffff"/>
   </g>
   <g id="patch_3">
    <path d="M 59.393342 162.199219 
L 81.228125 162.199219 
L 81.228125 165.095136 
L 59.393342 165.095136 
z
" clip-path="url(#p6c697f79f1)" style="fill: #b8ea04"/>
   </g>
   <g id="patch_4">
    <path d="M 83.654212 162.199219 
L 105.488995 162.199219 
L 105.488995 165.837107 
L 83.654212 165.837107 
z
" clip-path="url(#p6c697f79f1)" style="fill: #b8ea04"/>
   </g>
   <g id="patch_5">
    <path d="M 107.915082 162.199219 
L 129.749864 162.199219 
L 129.749864 162.994638 
L 107.915082 162.994638 
z
" clip-path="url(#p6c697f79f1)" style="fill: #b8ea04"/>
   </g>
   <g id="patch_6">
    <path d="M 132.175951 162.199219 
L 154.010734 162.199219 
L 154.010734 162.376687 
L 132.175951 162.376687 
z
" clip-path="url(#p6c697f79f1)" style="fill: #b8ea04"/>
   </g>
   <g id="patch_7">
    <path d="M 156.436821 162.199219 
L 178.271603 162.199219 
L 178.271603 162.211449 
L 156.436821 162.211449 
z
" clip-path="url(#p6c697f79f1)" style="fill: #b8ea04"/>
   </g>
   <g id="patch_8">
    <path d="M 180.69769 162.199219 
L 202.532473 162.199219 
L 202.532473 162.641594 
L 180.69769 162.641594 
z
" clip-path="url(#p6c697f79f1)" style="fill: #b8ea04"/>
   </g>
   <g id="patch_9">
    <path d="M 204.95856 162.199219 
L 226.793342 162.199219 
L 226.793342 163.605395 
L 204.95856 163.605395 
z
" clip-path="url(#p6c697f79f1)" style="fill: #b8ea04"/>
   </g>
   <g id="patch_10">
    <path d="M 229.219429 162.199219 
L 251.054212 162.199219 
L 251.054212 163.354949 
L 229.219429 163.354949 
z
" clip-path="url(#p6c697f79f1)" style="fill: #b8ea04"/>
   </g>
   <g id="patch_11">
    <path d="M 253.480299 162.199219 
L 275.315082 162.199219 
L 275.315082 163.338477 
L 253.480299 163.338477 
z
" clip-path="url(#p6c697f79f1)" style="fill: #b8ea04"/>
   </g>
   <g id="patch_12">
    <path d="M 277.741168 162.199219 
L 299.575951 162.199219 
L 299.575951 162.785382 
L 277.741168 162.785382 
z
" clip-path="url(#p6c697f79f1)" style="fill: #b8ea04"/>
   </g>
   <g id="patch_13">
    <path d="M 302.002038 162.199219 
L 323.836821 162.199219 
L 323.836821 162.24339 
L 302.002038 162.24339 
z
" clip-path="url(#p6c697f79f1)" style="fill: #b8ea04"/>
   </g>
   <g id="patch_14">
    <path d="M 326.262908 162.199219 
L 348.09769 162.199219 
L 348.09769 162.203005 
L 326.262908 162.203005 
z
" clip-path="url(#p6c697f79f1)" style="fill: #b8ea04"/>
   </g>
   <g id="patch_15">
    <path d="M 350.523777 162.199219 
L 372.35856 162.199219 
L 372.35856 162.213109 
L 350.523777 162.213109 
z
" clip-path="url(#p6c697f79f1)" style="fill: #b8ea04"/>
   </g>
   <g id="patch_16">
    <path d="M 374.784647 162.199219 
L 396.619429 162.199219 
L 396.619429 162.551736 
L 374.784647 162.551736 
z
" clip-path="url(#p6c697f79f1)" style="fill: #b8ea04"/>
   </g>
   <g id="patch_17">
    <path d="M 399.045516 162.199219 
L 420.880299 162.199219 
L 420.880299 162.575233 
L 399.045516 162.575233 
z
" clip-path="url(#p6c697f79f1)" style="fill: #b8ea04"/>
   </g>
   <g id="patch_18">
    <path d="M 423.306386 162.199219 
L 445.141168 162.199219 
L 445.141168 163.179212 
L 423.306386 163.179212 
z
" clip-path="url(#p6c697f79f1)" style="fill: #b8ea04"/>
   </g>
   <g id="patch_19">
    <path d="M 447.567255 162.199219 
L 469.402038 162.199219 
L 469.402038 162.205361 
L 447.567255 162.205361 
z
" clip-path="url(#p6c697f79f1)" style="fill: #b8ea04"/>
   </g>
   <g id="patch_20">
    <path d="M 471.828125 162.199219 
L 493.662908 162.199219 
L 493.662908 162.248848 
L 471.828125 162.248848 
z
" clip-path="url(#p6c697f79f1)" style="fill: #b8ea04"/>
   </g>
   <g id="patch_21">
    <path d="M 59.393342 165.095136 
L 81.228125 165.095136 
L 81.228125 165.095227 
L 59.393342 165.095227 
z
" clip-path="url(#p6c697f79f1)" style="fill: #ea048a"/>
   </g>
   <g id="patch_22">
    <path d="M 83.654212 165.837107 
L 105.488995 165.837107 
L 105.488995 165.837142 
L 83.654212 165.837142 
z
" clip-path="url(#p6c697f79f1)" style="fill: #ea048a"/>
   </g>
   <g id="patch_23">
    <path d="M 107.915082 162.994638 
L 129.749864 162.994638 
L 129.749864 162.994687 
L 107.915082 162.994687 
z
" clip-path="url(#p6c697f79f1)" style="fill: #ea048a"/>
   </g>
   <g id="patch_24">
    <path d="M 132.175951 162.376687 
L 154.010734 162.376687 
L 154.010734 162.376702 
L 132.175951 162.376702 
z
" clip-path="url(#p6c697f79f1)" style="fill: #ea048a"/>
   </g>
   <g id="patch_25">
    <path d="M 156.436821 162.211449 
L 178.271603 162.211449 
L 178.271603 162.211454 
L 156.436821 162.211454 
z
" clip-path="url(#p6c697f79f1)" style="fill: #ea048a"/>
   </g>
   <g id="patch_26">
    <path d="M 180.69769 162.641594 
L 202.532473 162.641594 
L 202.532473 162.641624 
L 180.69769 162.641624 
z
" clip-path="url(#p6c697f79f1)" style="fill: #ea048a"/>
   </g>
   <g id="patch_27">
    <path d="M 204.95856 163.605395 
L 226.793342 163.605395 
L 226.793342 163.605419 
L 204.95856 163.605419 
z
" clip-path="url(#p6c697f79f1)" style="fill: #ea048a"/>
   </g>
   <g id="patch_28">
    <path d="M 229.219429 163.354949 
L 251.054212 163.354949 
L 251.054212 163.354988 
L 229.219429 163.354988 
z
" clip-path="url(#p6c697f79f1)" style="fill: #ea048a"/>
   </g>
   <g id="patch_29">
    <path d="M 253.480299 163.338477 
L 275.315082 163.338477 
L 275.315082 163.338492 
L 253.480299 163.338492 
z
" clip-path="url(#p6c697f79f1)" style="fill: #ea048a"/>
   </g>
   <g id="patch_30">
    <path d="M 277.741168 162.785382 
L 299.575951 162.785382 
L 299.575951 162.785444 
L 277.741168 162.785444 
z
" clip-path="url(#p6c697f79f1)" style="fill: #ea048a"/>
   </g>
   <g id="patch_31">
    <path d="M 302.002038 162.24339 
L 323.836821 162.24339 
L 323.836821 162.243406 
L 302.002038 162.243406 
z
" clip-path="url(#p6c697f79f1)" style="fill: #ea048a"/>
   </g>
   <g id="patch_32">
    <path d="M 326.262908 162.203005 
L 348.09769 162.203005 
L 348.09769 162.203007 
L 326.262908 162.203007 
z
" clip-path="url(#p6c697f79f1)" style="fill: #ea048a"/>
   </g>
   <g id="patch_33">
    <path d="M 350.523777 162.213109 
L 372.35856 162.213109 
L 372.35856 162.213118 
L 350.523777 162.213118 
z
" clip-path="url(#p6c697f79f1)" style="fill: #ea048a"/>
   </g>
   <g id="patch_34">
    <path d="M 374.784647 162.551736 
L 396.619429 162.551736 
L 396.619429 162.551744 
L 374.784647 162.551744 
z
" clip-path="url(#p6c697f79f1)" style="fill: #ea048a"/>
   </g>
   <g id="patch_35">
    <path d="M 399.045516 162.575233 
L 420.880299 162.575233 
L 420.880299 162.575256 
L 399.045516 162.575256 
z
" clip-path="url(#p6c697f79f1)" style="fill: #ea048a"/>
   </g>
   <g id="patch_36">
    <path d="M 423.306386 163.179212 
L 445.141168 163.179212 
L 445.141168 163.179242 
L 423.306386 163.179242 
z
" clip-path="url(#p6c697f79f1)" style="fill: #ea048a"/>
   </g>
   <g id="patch_37">
    <path d="M 447.567255 162.205361 
L 469.402038 162.205361 
L 469.402038 162.20537 
L 447.567255 162.20537 
z
" clip-path="url(#p6c697f79f1)" style="fill: #ea048a"/>
   </g>
   <g id="patch_38">
    <path d="M 471.828125 162.248848 
L 493.662908 162.248848 
L 493.662908 162.248863 
L 471.828125 162.248863 
z
" clip-path="url(#p6c697f79f1)" style="fill: #ea048a"/>
   </g>
   <g id="patch_39">
    <path d="M 59.393342 162.199219 
L 81.228125 162.199219 
L 81.228125 162.199215 
L 59.393342 162.199215 
z
" clip-path="url(#p6c697f79f1)" style="fill: #6895dd"/>
   </g>
   <g id="patch_40">
    <path d="M 83.654212 162.199219 
L 105.488995 162.199219 
L 105.488995 162.199216 
L 83.654212 162.199216 
z
" clip-path="url(#p6c697f79f1)" style="fill: #6895dd"/>
   </g>
   <g id="patch_41">
    <path d="M 107.915082 162.199219 
L 129.749864 162.199219 
L 129.749864 162.199213 
L 107.915082 162.199213 
z
" clip-path="url(#p6c697f79f1)" style="fill: #6895dd"/>
   </g>
   <g id="patch_42">
    <path d="M 132.175951 162.199219 
L 154.010734 162.199219 
L 154.010734 162.199217 
L 132.175951 162.199217 
z
" clip-path="url(#p6c697f79f1)" style="fill: #6895dd"/>
   </g>
   <g id="patch_43">
    <path d="M 156.436821 162.199219 
L 178.271603 162.199219 
L 178.271603 162.199218 
L 156.436821 162.199218 
z
" clip-path="url(#p6c697f79f1)" style="fill: #6895dd"/>
   </g>
   <g id="patch_44">
    <path d="M 180.69769 162.641624 
L 202.532473 162.641624 
L 202.532473 162.641624 
L 180.69769 162.641624 
z
" clip-path="url(#p6c697f79f1)" style="fill: #6895dd"/>
   </g>
   <g id="patch_45">
    <path d="M 204.95856 162.199219 
L 226.793342 162.199219 
L 226.793342 162.199218 
L 204.95856 162.199218 
z
" clip-path="url(#p6c697f79f1)" style="fill: #6895dd"/>
   </g>
   <g id="patch_46">
    <path d="M 229.219429 162.199219 
L 251.054212 162.199219 
L 251.054212 162.198412 
L 229.219429 162.198412 
z
" clip-path="url(#p6c697f79f1)" style="fill: #6895dd"/>
   </g>
   <g id="patch_47">
    <path d="M 253.480299 162.199219 
L 275.315082 162.199219 
L 275.315082 162.199216 
L 253.480299 162.199216 
z
" clip-path="url(#p6c697f79f1)" style="fill: #6895dd"/>
   </g>
   <g id="patch_48">
    <path d="M 277.741168 162.199219 
L 299.575951 162.199219 
L 299.575951 162.199217 
L 277.741168 162.199217 
z
" clip-path="url(#p6c697f79f1)" style="fill: #6895dd"/>
   </g>
   <g id="patch_49">
    <path d="M 302.002038 162.199219 
L 323.836821 162.199219 
L 323.836821 162.199219 
L 302.002038 162.199219 
z
" clip-path="url(#p6c697f79f1)" style="fill: #6895dd"/>
   </g>
   <g id="patch_50">
    <path d="M 326.262908 162.199219 
L 348.09769 162.199219 
L 348.09769 162.199219 
L 326.262908 162.199219 
z
" clip-path="url(#p6c697f79f1)" style="fill: #6895dd"/>
   </g>
   <g id="patch_51">
    <path d="M 350.523777 162.199219 
L 372.35856 162.199219 
L 372.35856 162.199218 
L 350.523777 162.199218 
z
" clip-path="url(#p6c697f79f1)" style="fill: #6895dd"/>
   </g>
   <g id="patch_52">
    <path d="M 374.784647 162.199219 
L 396.619429 162.199219 
L 396.619429 162.199218 
L 374.784647 162.199218 
z
" clip-path="url(#p6c697f79f1)" style="fill: #6895dd"/>
   </g>
   <g id="patch_53">
    <path d="M 399.045516 162.199219 
L 420.880299 162.199219 
L 420.880299 162.199217 
L 399.045516 162.199217 
z
" clip-path="url(#p6c697f79f1)" style="fill: #6895dd"/>
   </g>
   <g id="patch_54">
    <path d="M 423.306386 162.199219 
L 445.141168 162.199219 
L 445.141168 162.199214 
L 423.306386 162.199214 
z
" clip-path="url(#p6c697f79f1)" style="fill: #6895dd"/>
   </g>
   <g id="patch_55">
    <path d="M 447.567255 162.20537 
L 469.402038 162.20537 
L 469.402038 162.20537 
L 447.567255 162.20537 
z
" clip-path="url(#p6c697f79f1)" style="fill: #6895dd"/>
   </g>
   <g id="patch_56">
    <path d="M 471.828125 162.199219 
L 493.662908 162.199219 
L 493.662908 162.199219 
L 471.828125 162.199219 
z
" clip-path="url(#p6c697f79f1)" style="fill: #6895dd"/>
   </g>
   <g id="patch_57">
    <path d="M 59.393342 162.199215 
L 81.228125 162.199215 
L 81.228125 162.19921 
L 59.393342 162.19921 
z
" clip-path="url(#p6c697f79f1)" style="fill: #74c6f2"/>
   </g>
   <g id="patch_58">
    <path d="M 83.654212 162.199216 
L 105.488995 162.199216 
L 105.488995 162.199214 
L 83.654212 162.199214 
z
" clip-path="url(#p6c697f79f1)" style="fill: #74c6f2"/>
   </g>
   <g id="patch_59">
    <path d="M 107.915082 162.199213 
L 129.749864 162.199213 
L 129.749864 162.199206 
L 107.915082 162.199206 
z
" clip-path="url(#p6c697f79f1)" style="fill: #74c6f2"/>
   </g>
   <g id="patch_60">
    <path d="M 132.175951 162.199217 
L 154.010734 162.199217 
L 154.010734 162.199216 
L 132.175951 162.199216 
z
" clip-path="url(#p6c697f79f1)" style="fill: #74c6f2"/>
   </g>
   <g id="patch_61">
    <path d="M 156.436821 162.211454 
L 178.271603 162.211454 
L 178.271603 162.211454 
L 156.436821 162.211454 
z
" clip-path="url(#p6c697f79f1)" style="fill: #74c6f2"/>
   </g>
   <g id="patch_62">
    <path d="M 180.69769 162.641624 
L 202.532473 162.641624 
L 202.532473 162.641624 
L 180.69769 162.641624 
z
" clip-path="url(#p6c697f79f1)" style="fill: #74c6f2"/>
   </g>
   <g id="patch_63">
    <path d="M 204.95856 162.199218 
L 226.793342 162.199218 
L 226.793342 162.199218 
L 204.95856 162.199218 
z
" clip-path="url(#p6c697f79f1)" style="fill: #74c6f2"/>
   </g>
   <g id="patch_64">
    <path d="M 229.219429 162.198412 
L 251.054212 162.198412 
L 251.054212 162.188228 
L 229.219429 162.188228 
z
" clip-path="url(#p6c697f79f1)" style="fill: #74c6f2"/>
   </g>
   <g id="patch_65">
    <path d="M 253.480299 162.199216 
L 275.315082 162.199216 
L 275.315082 162.199007 
L 253.480299 162.199007 
z
" clip-path="url(#p6c697f79f1)" style="fill: #74c6f2"/>
   </g>
   <g id="patch_66">
    <path d="M 277.741168 162.199217 
L 299.575951 162.199217 
L 299.575951 162.199215 
L 277.741168 162.199215 
z
" clip-path="url(#p6c697f79f1)" style="fill: #74c6f2"/>
   </g>
   <g id="patch_67">
    <path d="M 302.002038 162.199219 
L 323.836821 162.199219 
L 323.836821 162.199218 
L 302.002038 162.199218 
z
" clip-path="url(#p6c697f79f1)" style="fill: #74c6f2"/>
   </g>
   <g id="patch_68">
    <path d="M 326.262908 162.199219 
L 348.09769 162.199219 
L 348.09769 162.199218 
L 326.262908 162.199218 
z
" clip-path="url(#p6c697f79f1)" style="fill: #74c6f2"/>
   </g>
   <g id="patch_69">
    <path d="M 350.523777 162.199218 
L 372.35856 162.199218 
L 372.35856 162.199218 
L 350.523777 162.199218 
z
" clip-path="url(#p6c697f79f1)" style="fill: #74c6f2"/>
   </g>
   <g id="patch_70">
    <path d="M 374.784647 162.199218 
L 396.619429 162.199218 
L 396.619429 162.199216 
L 374.784647 162.199216 
z
" clip-path="url(#p6c697f79f1)" style="fill: #74c6f2"/>
   </g>
   <g id="patch_71">
    <path d="M 399.045516 162.199217 
L 420.880299 162.199217 
L 420.880299 162.199216 
L 399.045516 162.199216 
z
" clip-path="url(#p6c697f79f1)" style="fill: #74c6f2"/>
   </g>
   <g id="patch_72">
    <path d="M 423.306386 162.199214 
L 445.141168 162.199214 
L 445.141168 162.199211 
L 423.306386 162.199211 
z
" clip-path="url(#p6c697f79f1)" style="fill: #74c6f2"/>
   </g>
   <g id="patch_73">
    <path d="M 447.567255 162.20537 
L 469.402038 162.20537 
L 469.402038 162.20537 
L 447.567255 162.20537 
z
" clip-path="url(#p6c697f79f1)" style="fill: #74c6f2"/>
   </g>
   <g id="patch_74">
    <path d="M 471.828125 162.248863 
L 493.662908 162.248863 
L 493.662908 162.248863 
L 471.828125 162.248863 
z
" clip-path="url(#p6c697f79f1)" style="fill: #74c6f2"/>
   </g>
   <g id="patch_75">
    <path d="M 59.393342 162.19921 
L 81.228125 162.19921 
L 81.228125 162.199179 
L 59.393342 162.199179 
z
" clip-path="url(#p6c697f79f1)" style="fill: #235ebc"/>
   </g>
   <g id="patch_76">
    <path d="M 83.654212 162.199214 
L 105.488995 162.199214 
L 105.488995 160.843398 
L 83.654212 160.843398 
z
" clip-path="url(#p6c697f79f1)" style="fill: #235ebc"/>
   </g>
   <g id="patch_77">
    <path d="M 107.915082 162.199206 
L 129.749864 162.199206 
L 129.749864 159.54945 
L 107.915082 159.54945 
z
" clip-path="url(#p6c697f79f1)" style="fill: #235ebc"/>
   </g>
   <g id="patch_78">
    <path d="M 132.175951 162.199216 
L 154.010734 162.199216 
L 154.010734 162.19883 
L 132.175951 162.19883 
z
" clip-path="url(#p6c697f79f1)" style="fill: #235ebc"/>
   </g>
   <g id="patch_79">
    <path d="M 156.436821 162.199218 
L 178.271603 162.199218 
L 178.271603 162.199217 
L 156.436821 162.199217 
z
" clip-path="url(#p6c697f79f1)" style="fill: #235ebc"/>
   </g>
   <g id="patch_80">
    <path d="M 180.69769 162.199219 
L 202.532473 162.199219 
L 202.532473 162.197616 
L 180.69769 162.197616 
z
" clip-path="url(#p6c697f79f1)" style="fill: #235ebc"/>
   </g>
   <g id="patch_81">
    <path d="M 204.95856 162.199218 
L 226.793342 162.199218 
L 226.793342 162.199213 
L 204.95856 162.199213 
z
" clip-path="url(#p6c697f79f1)" style="fill: #235ebc"/>
   </g>
   <g id="patch_82">
    <path d="M 229.219429 162.188228 
L 251.054212 162.188228 
L 251.054212 126.153899 
L 229.219429 126.153899 
z
" clip-path="url(#p6c697f79f1)" style="fill: #235ebc"/>
   </g>
   <g id="patch_83">
    <path d="M 253.480299 162.199007 
L 275.315082 162.199007 
L 275.315082 161.870917 
L 253.480299 161.870917 
z
" clip-path="url(#p6c697f79f1)" style="fill: #235ebc"/>
   </g>
   <g id="patch_84">
    <path d="M 277.741168 162.199215 
L 299.575951 162.199215 
L 299.575951 162.198386 
L 277.741168 162.198386 
z
" clip-path="url(#p6c697f79f1)" style="fill: #235ebc"/>
   </g>
   <g id="patch_85">
    <path d="M 302.002038 162.199218 
L 323.836821 162.199218 
L 323.836821 162.199218 
L 302.002038 162.199218 
z
" clip-path="url(#p6c697f79f1)" style="fill: #235ebc"/>
   </g>
   <g id="patch_86">
    <path d="M 326.262908 162.199218 
L 348.09769 162.199218 
L 348.09769 162.199218 
L 326.262908 162.199218 
z
" clip-path="url(#p6c697f79f1)" style="fill: #235ebc"/>
   </g>
   <g id="patch_87">
    <path d="M 350.523777 162.199218 
L 372.35856 162.199218 
L 372.35856 162.199216 
L 350.523777 162.199216 
z
" clip-path="url(#p6c697f79f1)" style="fill: #235ebc"/>
   </g>
   <g id="patch_88">
    <path d="M 374.784647 162.199216 
L 396.619429 162.199216 
L 396.619429 160.915102 
L 374.784647 160.915102 
z
" clip-path="url(#p6c697f79f1)" style="fill: #235ebc"/>
   </g>
   <g id="patch_89">
    <path d="M 399.045516 162.199216 
L 420.880299 162.199216 
L 420.880299 153.214366 
L 399.045516 153.214366 
z
" clip-path="url(#p6c697f79f1)" style="fill: #235ebc"/>
   </g>
   <g id="patch_90">
    <path d="M 423.306386 162.199211 
L 445.141168 162.199211 
L 445.141168 144.177326 
L 423.306386 144.177326 
z
" clip-path="url(#p6c697f79f1)" style="fill: #235ebc"/>
   </g>
   <g id="patch_91">
    <path d="M 447.567255 162.199219 
L 469.402038 162.199219 
L 469.402038 162.198254 
L 447.567255 162.198254 
z
" clip-path="url(#p6c697f79f1)" style="fill: #235ebc"/>
   </g>
   <g id="patch_92">
    <path d="M 471.828125 162.199219 
L 493.662908 162.199219 
L 493.662908 162.199057 
L 471.828125 162.199057 
z
" clip-path="url(#p6c697f79f1)" style="fill: #235ebc"/>
   </g>
   <g id="patch_93">
    <path d="M 59.393342 162.199179 
L 81.228125 162.199179 
L 81.228125 100.484163 
L 59.393342 100.484163 
z
" clip-path="url(#p6c697f79f1)" style="fill: #f9d002"/>
   </g>
   <g id="patch_94">
    <path d="M 83.654212 160.843398 
L 105.488995 160.843398 
L 105.488995 58.527666 
L 83.654212 58.527666 
z
" clip-path="url(#p6c697f79f1)" style="fill: #f9d002"/>
   </g>
   <g id="patch_95">
    <path d="M 107.915082 159.54945 
L 129.749864 159.54945 
L 129.749864 136.774024 
L 107.915082 136.774024 
z
" clip-path="url(#p6c697f79f1)" style="fill: #f9d002"/>
   </g>
   <g id="patch_96">
    <path d="M 132.175951 162.19883 
L 154.010734 162.19883 
L 154.010734 155.916667 
L 132.175951 155.916667 
z
" clip-path="url(#p6c697f79f1)" style="fill: #f9d002"/>
   </g>
   <g id="patch_97">
    <path d="M 156.436821 162.199217 
L 178.271603 162.199217 
L 178.271603 162.058503 
L 156.436821 162.058503 
z
" clip-path="url(#p6c697f79f1)" style="fill: #f9d002"/>
   </g>
   <g id="patch_98">
    <path d="M 180.69769 162.197616 
L 202.532473 162.197616 
L 202.532473 152.325682 
L 180.69769 152.325682 
z
" clip-path="url(#p6c697f79f1)" style="fill: #f9d002"/>
   </g>
   <g id="patch_99">
    <path d="M 204.95856 162.199213 
L 226.793342 162.199213 
L 226.793342 126.932081 
L 204.95856 126.932081 
z
" clip-path="url(#p6c697f79f1)" style="fill: #f9d002"/>
   </g>
   <g id="patch_100">
    <path d="M 229.219429 126.153899 
L 251.054212 126.153899 
L 251.054212 81.388157 
L 229.219429 81.388157 
z
" clip-path="url(#p6c697f79f1)" style="fill: #f9d002"/>
   </g>
   <g id="patch_101">
    <path d="M 253.480299 161.870917 
L 275.315082 161.870917 
L 275.315082 127.233157 
L 253.480299 127.233157 
z
" clip-path="url(#p6c697f79f1)" style="fill: #f9d002"/>
   </g>
   <g id="patch_102">
    <path d="M 277.741168 162.198386 
L 299.575951 162.198386 
L 299.575951 148.723749 
L 277.741168 148.723749 
z
" clip-path="url(#p6c697f79f1)" style="fill: #f9d002"/>
   </g>
   <g id="patch_103">
    <path d="M 302.002038 162.199218 
L 323.836821 162.199218 
L 323.836821 160.852084 
L 302.002038 160.852084 
z
" clip-path="url(#p6c697f79f1)" style="fill: #f9d002"/>
   </g>
   <g id="patch_104">
    <path d="M 326.262908 162.199218 
L 348.09769 162.199218 
L 348.09769 162.062548 
L 326.262908 162.062548 
z
" clip-path="url(#p6c697f79f1)" style="fill: #f9d002"/>
   </g>
   <g id="patch_105">
    <path d="M 350.523777 162.199216 
L 372.35856 162.199216 
L 372.35856 161.557183 
L 350.523777 161.557183 
z
" clip-path="url(#p6c697f79f1)" style="fill: #f9d002"/>
   </g>
   <g id="patch_106">
    <path d="M 374.784647 160.915102 
L 396.619429 160.915102 
L 396.619429 153.005612 
L 374.784647 153.005612 
z
" clip-path="url(#p6c697f79f1)" style="fill: #f9d002"/>
   </g>
   <g id="patch_107">
    <path d="M 399.045516 153.214366 
L 420.880299 153.214366 
L 420.880299 144.789528 
L 399.045516 144.789528 
z
" clip-path="url(#p6c697f79f1)" style="fill: #f9d002"/>
   </g>
   <g id="patch_108">
    <path d="M 423.306386 144.177326 
L 445.141168 144.177326 
L 445.141168 113.244331 
L 423.306386 113.244331 
z
" clip-path="url(#p6c697f79f1)" style="fill: #f9d002"/>
   </g>
   <g id="patch_109">
    <path d="M 447.567255 162.198254 
L 469.402038 162.198254 
L 469.402038 162.103544 
L 447.567255 162.103544 
z
" clip-path="url(#p6c697f79f1)" style="fill: #f9d002"/>
   </g>
   <g id="patch_110">
    <path d="M 471.828125 162.199057 
L 493.662908 162.199057 
L 493.662908 161.144582 
L 471.828125 161.144582 
z
" clip-path="url(#p6c697f79f1)" style="fill: #f9d002"/>
   </g>
   <g id="patch_111">
    <path d="M 59.393342 100.484163 
L 81.228125 100.484163 
L 81.228125 97.289778 
L 59.393342 97.289778 
z
" clip-path="url(#p6c697f79f1)" style="fill: #08ad97"/>
   </g>
   <g id="patch_112">
    <path d="M 83.654212 58.527666 
L 105.488995 58.527666 
L 105.488995 55.844615 
L 83.654212 55.844615 
z
" clip-path="url(#p6c697f79f1)" style="fill: #08ad97"/>
   </g>
   <g id="patch_113">
    <path d="M 107.915082 136.774024 
L 129.749864 136.774024 
L 129.749864 135.093503 
L 107.915082 135.093503 
z
" clip-path="url(#p6c697f79f1)" style="fill: #08ad97"/>
   </g>
   <g id="patch_114">
    <path d="M 132.175951 155.916667 
L 154.010734 155.916667 
L 154.010734 153.916757 
L 132.175951 153.916757 
z
" clip-path="url(#p6c697f79f1)" style="fill: #08ad97"/>
   </g>
   <g id="patch_115">
    <path d="M 156.436821 162.211454 
L 178.271603 162.211454 
L 178.271603 162.211454 
L 156.436821 162.211454 
z
" clip-path="url(#p6c697f79f1)" style="fill: #08ad97"/>
   </g>
   <g id="patch_116">
    <path d="M 180.69769 152.325682 
L 202.532473 152.325682 
L 202.532473 145.32716 
L 180.69769 145.32716 
z
" clip-path="url(#p6c697f79f1)" style="fill: #08ad97"/>
   </g>
   <g id="patch_117">
    <path d="M 204.95856 126.932081 
L 226.793342 126.932081 
L 226.793342 125.779803 
L 204.95856 125.779803 
z
" clip-path="url(#p6c697f79f1)" style="fill: #08ad97"/>
   </g>
   <g id="patch_118">
    <path d="M 229.219429 81.388157 
L 251.054212 81.388157 
L 251.054212 69.232413 
L 229.219429 69.232413 
z
" clip-path="url(#p6c697f79f1)" style="fill: #08ad97"/>
   </g>
   <g id="patch_119">
    <path d="M 253.480299 127.233157 
L 275.315082 127.233157 
L 275.315082 125.545864 
L 253.480299 125.545864 
z
" clip-path="url(#p6c697f79f1)" style="fill: #08ad97"/>
   </g>
   <g id="patch_120">
    <path d="M 277.741168 148.723749 
L 299.575951 148.723749 
L 299.575951 148.705981 
L 277.741168 148.705981 
z
" clip-path="url(#p6c697f79f1)" style="fill: #08ad97"/>
   </g>
   <g id="patch_121">
    <path d="M 302.002038 160.852084 
L 323.836821 160.852084 
L 323.836821 157.723366 
L 302.002038 157.723366 
z
" clip-path="url(#p6c697f79f1)" style="fill: #08ad97"/>
   </g>
   <g id="patch_122">
    <path d="M 326.262908 162.203007 
L 348.09769 162.203007 
L 348.09769 162.203007 
L 326.262908 162.203007 
z
" clip-path="url(#p6c697f79f1)" style="fill: #08ad97"/>
   </g>
   <g id="patch_123">
    <path d="M 350.523777 161.557183 
L 372.35856 161.557183 
L 372.35856 161.510165 
L 350.523777 161.510165 
z
" clip-path="url(#p6c697f79f1)" style="fill: #08ad97"/>
   </g>
   <g id="patch_124">
    <path d="M 374.784647 162.551744 
L 396.619429 162.551744 
L 396.619429 162.551744 
L 374.784647 162.551744 
z
" clip-path="url(#p6c697f79f1)" style="fill: #08ad97"/>
   </g>
   <g id="patch_125">
    <path d="M 399.045516 144.789528 
L 420.880299 144.789528 
L 420.880299 144.312685 
L 399.045516 144.312685 
z
" clip-path="url(#p6c697f79f1)" style="fill: #08ad97"/>
   </g>
   <g id="patch_126">
    <path d="M 423.306386 113.244331 
L 445.141168 113.244331 
L 445.141168 111.00282 
L 423.306386 111.00282 
z
" clip-path="url(#p6c697f79f1)" style="fill: #08ad97"/>
   </g>
   <g id="patch_127">
    <path d="M 447.567255 162.20537 
L 469.402038 162.20537 
L 469.402038 162.20537 
L 447.567255 162.20537 
z
" clip-path="url(#p6c697f79f1)" style="fill: #08ad97"/>
   </g>
   <g id="patch_128">
    <path d="M 471.828125 162.248863 
L 493.662908 162.248863 
L 493.662908 162.248863 
L 471.828125 162.248863 
z
" clip-path="url(#p6c697f79f1)" style="fill: #08ad97"/>
   </g>
   <g id="patch_129">
    <path d="M 59.393342 97.289778 
L 81.228125 97.289778 
L 81.228125 97.202002 
L 59.393342 97.202002 
z
" clip-path="url(#p6c697f79f1)" style="fill: #b20101"/>
   </g>
   <g id="patch_130">
    <path d="M 83.654212 55.844615 
L 105.488995 55.844615 
L 105.488995 53.743936 
L 83.654212 53.743936 
z
" clip-path="url(#p6c697f79f1)" style="fill: #b20101"/>
   </g>
   <g id="patch_131">
    <path d="M 107.915082 135.093503 
L 129.749864 135.093503 
L 129.749864 134.185191 
L 107.915082 134.185191 
z
" clip-path="url(#p6c697f79f1)" style="fill: #b20101"/>
   </g>
   <g id="patch_132">
    <path d="M 132.175951 153.916757 
L 154.010734 153.916757 
L 154.010734 152.924619 
L 132.175951 152.924619 
z
" clip-path="url(#p6c697f79f1)" style="fill: #b20101"/>
   </g>
   <g id="patch_133">
    <path d="M 156.436821 162.058503 
L 178.271603 162.058503 
L 178.271603 161.024825 
L 156.436821 161.024825 
z
" clip-path="url(#p6c697f79f1)" style="fill: #b20101"/>
   </g>
   <g id="patch_134">
    <path d="M 180.69769 145.32716 
L 202.532473 145.32716 
L 202.532473 145.327031 
L 180.69769 145.327031 
z
" clip-path="url(#p6c697f79f1)" style="fill: #b20101"/>
   </g>
   <g id="patch_135">
    <path d="M 204.95856 125.779803 
L 226.793342 125.779803 
L 226.793342 125.779662 
L 204.95856 125.779662 
z
" clip-path="url(#p6c697f79f1)" style="fill: #b20101"/>
   </g>
   <g id="patch_136">
    <path d="M 229.219429 69.232413 
L 251.054212 69.232413 
L 251.054212 69.038089 
L 229.219429 69.038089 
z
" clip-path="url(#p6c697f79f1)" style="fill: #b20101"/>
   </g>
   <g id="patch_137">
    <path d="M 253.480299 125.545864 
L 275.315082 125.545864 
L 275.315082 122.140929 
L 253.480299 122.140929 
z
" clip-path="url(#p6c697f79f1)" style="fill: #b20101"/>
   </g>
   <g id="patch_138">
    <path d="M 277.741168 148.705981 
L 299.575951 148.705981 
L 299.575951 148.685491 
L 277.741168 148.685491 
z
" clip-path="url(#p6c697f79f1)" style="fill: #b20101"/>
   </g>
   <g id="patch_139">
    <path d="M 302.002038 157.723366 
L 323.836821 157.723366 
L 323.836821 157.545319 
L 302.002038 157.545319 
z
" clip-path="url(#p6c697f79f1)" style="fill: #b20101"/>
   </g>
   <g id="patch_140">
    <path d="M 326.262908 162.062548 
L 348.09769 162.062548 
L 348.09769 162.012779 
L 326.262908 162.012779 
z
" clip-path="url(#p6c697f79f1)" style="fill: #b20101"/>
   </g>
   <g id="patch_141">
    <path d="M 350.523777 161.510165 
L 372.35856 161.510165 
L 372.35856 161.441854 
L 350.523777 161.441854 
z
" clip-path="url(#p6c697f79f1)" style="fill: #b20101"/>
   </g>
   <g id="patch_142">
    <path d="M 374.784647 153.005612 
L 396.619429 153.005612 
L 396.619429 152.984406 
L 374.784647 152.984406 
z
" clip-path="url(#p6c697f79f1)" style="fill: #b20101"/>
   </g>
   <g id="patch_143">
    <path d="M 399.045516 144.312685 
L 420.880299 144.312685 
L 420.880299 144.279354 
L 399.045516 144.279354 
z
" clip-path="url(#p6c697f79f1)" style="fill: #b20101"/>
   </g>
   <g id="patch_144">
    <path d="M 423.306386 111.00282 
L 445.141168 111.00282 
L 445.141168 109.512039 
L 423.306386 109.512039 
z
" clip-path="url(#p6c697f79f1)" style="fill: #b20101"/>
   </g>
   <g id="patch_145">
    <path d="M 447.567255 162.103544 
L 469.402038 162.103544 
L 469.402038 162.101109 
L 447.567255 162.101109 
z
" clip-path="url(#p6c697f79f1)" style="fill: #b20101"/>
   </g>
   <g id="patch_146">
    <path d="M 471.828125 161.144582 
L 493.662908 161.144582 
L 493.662908 161.113283 
L 471.828125 161.113283 
z
" clip-path="url(#p6c697f79f1)" style="fill: #b20101"/>
   </g>
   <g id="patch_147">
    <path d="M 59.393342 165.095227 
L 81.228125 165.095227 
L 81.228125 165.095227 
L 59.393342 165.095227 
z
" clip-path="url(#p6c697f79f1)" style="fill: #707070"/>
   </g>
   <g id="patch_148">
    <path d="M 83.654212 165.837142 
L 105.488995 165.837142 
L 105.488995 165.837142 
L 83.654212 165.837142 
z
" clip-path="url(#p6c697f79f1)" style="fill: #707070"/>
   </g>
   <g id="patch_149">
    <path d="M 107.915082 134.185191 
L 129.749864 134.185191 
L 129.749864 134.18519 
L 107.915082 134.18519 
z
" clip-path="url(#p6c697f79f1)" style="fill: #707070"/>
   </g>
   <g id="patch_150">
    <path d="M 132.175951 162.376702 
L 154.010734 162.376702 
L 154.010734 162.376702 
L 132.175951 162.376702 
z
" clip-path="url(#p6c697f79f1)" style="fill: #707070"/>
   </g>
   <g id="patch_151">
    <path d="M 156.436821 162.211454 
L 178.271603 162.211454 
L 178.271603 162.211454 
L 156.436821 162.211454 
z
" clip-path="url(#p6c697f79f1)" style="fill: #707070"/>
   </g>
   <g id="patch_152">
    <path d="M 180.69769 162.641624 
L 202.532473 162.641624 
L 202.532473 162.641624 
L 180.69769 162.641624 
z
" clip-path="url(#p6c697f79f1)" style="fill: #707070"/>
   </g>
   <g id="patch_153">
    <path d="M 204.95856 125.779662 
L 226.793342 125.779662 
L 226.793342 125.779662 
L 204.95856 125.779662 
z
" clip-path="url(#p6c697f79f1)" style="fill: #707070"/>
   </g>
   <g id="patch_154">
    <path d="M 229.219429 69.038089 
L 251.054212 69.038089 
L 251.054212 69.038089 
L 229.219429 69.038089 
z
" clip-path="url(#p6c697f79f1)" style="fill: #707070"/>
   </g>
   <g id="patch_155">
    <path d="M 253.480299 163.338492 
L 275.315082 163.338492 
L 275.315082 163.338492 
L 253.480299 163.338492 
z
" clip-path="url(#p6c697f79f1)" style="fill: #707070"/>
   </g>
   <g id="patch_156">
    <path d="M 277.741168 148.685491 
L 299.575951 148.685491 
L 299.575951 148.685491 
L 277.741168 148.685491 
z
" clip-path="url(#p6c697f79f1)" style="fill: #707070"/>
   </g>
   <g id="patch_157">
    <path d="M 302.002038 162.243406 
L 323.836821 162.243406 
L 323.836821 162.243406 
L 302.002038 162.243406 
z
" clip-path="url(#p6c697f79f1)" style="fill: #707070"/>
   </g>
   <g id="patch_158">
    <path d="M 326.262908 162.203007 
L 348.09769 162.203007 
L 348.09769 162.203007 
L 326.262908 162.203007 
z
" clip-path="url(#p6c697f79f1)" style="fill: #707070"/>
   </g>
   <g id="patch_159">
    <path d="M 350.523777 162.213118 
L 372.35856 162.213118 
L 372.35856 162.213118 
L 350.523777 162.213118 
z
" clip-path="url(#p6c697f79f1)" style="fill: #707070"/>
   </g>
   <g id="patch_160">
    <path d="M 374.784647 162.551744 
L 396.619429 162.551744 
L 396.619429 162.551744 
L 374.784647 162.551744 
z
" clip-path="url(#p6c697f79f1)" style="fill: #707070"/>
   </g>
   <g id="patch_161">
    <path d="M 399.045516 144.279354 
L 420.880299 144.279354 
L 420.880299 144.279351 
L 399.045516 144.279351 
z
" clip-path="url(#p6c697f79f1)" style="fill: #707070"/>
   </g>
   <g id="patch_162">
    <path d="M 423.306386 109.512039 
L 445.141168 109.512039 
L 445.141168 109.512038 
L 423.306386 109.512038 
z
" clip-path="url(#p6c697f79f1)" style="fill: #707070"/>
   </g>
   <g id="patch_163">
    <path d="M 447.567255 162.20537 
L 469.402038 162.20537 
L 469.402038 162.20537 
L 447.567255 162.20537 
z
" clip-path="url(#p6c697f79f1)" style="fill: #707070"/>
   </g>
   <g id="patch_164">
    <path d="M 471.828125 162.248863 
L 493.662908 162.248863 
L 493.662908 162.248863 
L 471.828125 162.248863 
z
" clip-path="url(#p6c697f79f1)" style="fill: #707070"/>
   </g>
   <g id="patch_165">
    <path d="M 59.393342 165.095227 
L 81.228125 165.095227 
L 81.228125 165.095227 
L 59.393342 165.095227 
z
" clip-path="url(#p6c697f79f1)" style="fill: #808080"/>
   </g>
   <g id="patch_166">
    <path d="M 83.654212 53.743936 
L 105.488995 53.743936 
L 105.488995 53.743846 
L 83.654212 53.743846 
z
" clip-path="url(#p6c697f79f1)" style="fill: #808080"/>
   </g>
   <g id="patch_167">
    <path d="M 107.915082 134.18519 
L 129.749864 134.18519 
L 129.749864 134.18503 
L 107.915082 134.18503 
z
" clip-path="url(#p6c697f79f1)" style="fill: #808080"/>
   </g>
   <g id="patch_168">
    <path d="M 132.175951 162.376702 
L 154.010734 162.376702 
L 154.010734 162.376702 
L 132.175951 162.376702 
z
" clip-path="url(#p6c697f79f1)" style="fill: #808080"/>
   </g>
   <g id="patch_169">
    <path d="M 156.436821 162.211454 
L 178.271603 162.211454 
L 178.271603 162.211454 
L 156.436821 162.211454 
z
" clip-path="url(#p6c697f79f1)" style="fill: #808080"/>
   </g>
   <g id="patch_170">
    <path d="M 180.69769 162.641624 
L 202.532473 162.641624 
L 202.532473 162.641624 
L 180.69769 162.641624 
z
" clip-path="url(#p6c697f79f1)" style="fill: #808080"/>
   </g>
   <g id="patch_171">
    <path d="M 204.95856 163.605419 
L 226.793342 163.605419 
L 226.793342 163.605419 
L 204.95856 163.605419 
z
" clip-path="url(#p6c697f79f1)" style="fill: #808080"/>
   </g>
   <g id="patch_172">
    <path d="M 229.219429 69.038089 
L 251.054212 69.038089 
L 251.054212 69.035064 
L 229.219429 69.035064 
z
" clip-path="url(#p6c697f79f1)" style="fill: #808080"/>
   </g>
   <g id="patch_173">
    <path d="M 253.480299 163.338492 
L 275.315082 163.338492 
L 275.315082 163.338492 
L 253.480299 163.338492 
z
" clip-path="url(#p6c697f79f1)" style="fill: #808080"/>
   </g>
   <g id="patch_174">
    <path d="M 277.741168 148.685491 
L 299.575951 148.685491 
L 299.575951 148.685311 
L 277.741168 148.685311 
z
" clip-path="url(#p6c697f79f1)" style="fill: #808080"/>
   </g>
   <g id="patch_175">
    <path d="M 302.002038 162.243406 
L 323.836821 162.243406 
L 323.836821 162.243406 
L 302.002038 162.243406 
z
" clip-path="url(#p6c697f79f1)" style="fill: #808080"/>
   </g>
   <g id="patch_176">
    <path d="M 326.262908 162.203007 
L 348.09769 162.203007 
L 348.09769 162.203007 
L 326.262908 162.203007 
z
" clip-path="url(#p6c697f79f1)" style="fill: #808080"/>
   </g>
   <g id="patch_177">
    <path d="M 350.523777 162.213118 
L 372.35856 162.213118 
L 372.35856 162.213118 
L 350.523777 162.213118 
z
" clip-path="url(#p6c697f79f1)" style="fill: #808080"/>
   </g>
   <g id="patch_178">
    <path d="M 374.784647 162.551744 
L 396.619429 162.551744 
L 396.619429 162.551744 
L 374.784647 162.551744 
z
" clip-path="url(#p6c697f79f1)" style="fill: #808080"/>
   </g>
   <g id="patch_179">
    <path d="M 399.045516 144.279351 
L 420.880299 144.279351 
L 420.880299 144.279266 
L 399.045516 144.279266 
z
" clip-path="url(#p6c697f79f1)" style="fill: #808080"/>
   </g>
   <g id="patch_180">
    <path d="M 423.306386 109.512038 
L 445.141168 109.512038 
L 445.141168 109.510279 
L 423.306386 109.510279 
z
" clip-path="url(#p6c697f79f1)" style="fill: #808080"/>
   </g>
   <g id="patch_181">
    <path d="M 447.567255 162.20537 
L 469.402038 162.20537 
L 469.402038 162.20537 
L 447.567255 162.20537 
z
" clip-path="url(#p6c697f79f1)" style="fill: #808080"/>
   </g>
   <g id="patch_182">
    <path d="M 471.828125 162.248863 
L 493.662908 162.248863 
L 493.662908 162.248863 
L 471.828125 162.248863 
z
" clip-path="url(#p6c697f79f1)" style="fill: #808080"/>
   </g>
   <g id="patch_183">
    <path d="M 59.393342 165.095227 
L 81.228125 165.095227 
L 81.228125 165.095227 
L 59.393342 165.095227 
z
" clip-path="url(#p6c697f79f1)" style="fill: #606060"/>
   </g>
   <g id="patch_184">
    <path d="M 83.654212 53.743846 
L 105.488995 53.743846 
L 105.488995 53.73537 
L 83.654212 53.73537 
z
" clip-path="url(#p6c697f79f1)" style="fill: #606060"/>
   </g>
   <g id="patch_185">
    <path d="M 107.915082 162.994687 
L 129.749864 162.994687 
L 129.749864 162.994687 
L 107.915082 162.994687 
z
" clip-path="url(#p6c697f79f1)" style="fill: #606060"/>
   </g>
   <g id="patch_186">
    <path d="M 132.175951 162.376702 
L 154.010734 162.376702 
L 154.010734 162.376702 
L 132.175951 162.376702 
z
" clip-path="url(#p6c697f79f1)" style="fill: #606060"/>
   </g>
   <g id="patch_187">
    <path d="M 156.436821 162.211454 
L 178.271603 162.211454 
L 178.271603 162.211454 
L 156.436821 162.211454 
z
" clip-path="url(#p6c697f79f1)" style="fill: #606060"/>
   </g>
   <g id="patch_188">
    <path d="M 180.69769 162.641624 
L 202.532473 162.641624 
L 202.532473 162.641624 
L 180.69769 162.641624 
z
" clip-path="url(#p6c697f79f1)" style="fill: #606060"/>
   </g>
   <g id="patch_189">
    <path d="M 204.95856 163.605419 
L 226.793342 163.605419 
L 226.793342 163.605419 
L 204.95856 163.605419 
z
" clip-path="url(#p6c697f79f1)" style="fill: #606060"/>
   </g>
   <g id="patch_190">
    <path d="M 229.219429 69.035064 
L 251.054212 69.035064 
L 251.054212 68.853266 
L 229.219429 68.853266 
z
" clip-path="url(#p6c697f79f1)" style="fill: #606060"/>
   </g>
   <g id="patch_191">
    <path d="M 253.480299 122.140929 
L 275.315082 122.140929 
L 275.315082 122.08979 
L 253.480299 122.08979 
z
" clip-path="url(#p6c697f79f1)" style="fill: #606060"/>
   </g>
   <g id="patch_192">
    <path d="M 277.741168 162.785444 
L 299.575951 162.785444 
L 299.575951 162.785444 
L 277.741168 162.785444 
z
" clip-path="url(#p6c697f79f1)" style="fill: #606060"/>
   </g>
   <g id="patch_193">
    <path d="M 302.002038 162.243406 
L 323.836821 162.243406 
L 323.836821 162.243406 
L 302.002038 162.243406 
z
" clip-path="url(#p6c697f79f1)" style="fill: #606060"/>
   </g>
   <g id="patch_194">
    <path d="M 326.262908 162.203007 
L 348.09769 162.203007 
L 348.09769 162.203007 
L 326.262908 162.203007 
z
" clip-path="url(#p6c697f79f1)" style="fill: #606060"/>
   </g>
   <g id="patch_195">
    <path d="M 350.523777 162.213118 
L 372.35856 162.213118 
L 372.35856 162.213118 
L 350.523777 162.213118 
z
" clip-path="url(#p6c697f79f1)" style="fill: #606060"/>
   </g>
   <g id="patch_196">
    <path d="M 374.784647 162.551744 
L 396.619429 162.551744 
L 396.619429 162.551744 
L 374.784647 162.551744 
z
" clip-path="url(#p6c697f79f1)" style="fill: #606060"/>
   </g>
   <g id="patch_197">
    <path d="M 399.045516 162.575256 
L 420.880299 162.575256 
L 420.880299 162.575256 
L 399.045516 162.575256 
z
" clip-path="url(#p6c697f79f1)" style="fill: #606060"/>
   </g>
   <g id="patch_198">
    <path d="M 423.306386 109.510279 
L 445.141168 109.510279 
L 445.141168 109.492183 
L 423.306386 109.492183 
z
" clip-path="url(#p6c697f79f1)" style="fill: #606060"/>
   </g>
   <g id="patch_199">
    <path d="M 447.567255 162.20537 
L 469.402038 162.20537 
L 469.402038 162.20537 
L 447.567255 162.20537 
z
" clip-path="url(#p6c697f79f1)" style="fill: #606060"/>
   </g>
   <g id="patch_200">
    <path d="M 471.828125 162.248863 
L 493.662908 162.248863 
L 493.662908 162.248863 
L 471.828125 162.248863 
z
" clip-path="url(#p6c697f79f1)" style="fill: #606060"/>
   </g>
   <g id="patch_201">
    <path d="M 59.393342 165.095227 
L 81.228125 165.095227 
L 81.228125 165.095227 
L 59.393342 165.095227 
z
" clip-path="url(#p6c697f79f1)" style="fill: #909090"/>
   </g>
   <g id="patch_202">
    <path d="M 83.654212 53.73537 
L 105.488995 53.73537 
L 105.488995 53.734028 
L 83.654212 53.734028 
z
" clip-path="url(#p6c697f79f1)" style="fill: #909090"/>
   </g>
   <g id="patch_203">
    <path d="M 107.915082 134.18503 
L 129.749864 134.18503 
L 129.749864 134.181507 
L 107.915082 134.181507 
z
" clip-path="url(#p6c697f79f1)" style="fill: #909090"/>
   </g>
   <g id="patch_204">
    <path d="M 132.175951 152.924619 
L 154.010734 152.924619 
L 154.010734 152.922332 
L 132.175951 152.922332 
z
" clip-path="url(#p6c697f79f1)" style="fill: #909090"/>
   </g>
   <g id="patch_205">
    <path d="M 156.436821 162.211454 
L 178.271603 162.211454 
L 178.271603 162.211454 
L 156.436821 162.211454 
z
" clip-path="url(#p6c697f79f1)" style="fill: #909090"/>
   </g>
   <g id="patch_206">
    <path d="M 180.69769 162.641624 
L 202.532473 162.641624 
L 202.532473 162.641624 
L 180.69769 162.641624 
z
" clip-path="url(#p6c697f79f1)" style="fill: #909090"/>
   </g>
   <g id="patch_207">
    <path d="M 204.95856 125.779662 
L 226.793342 125.779662 
L 226.793342 125.777479 
L 204.95856 125.777479 
z
" clip-path="url(#p6c697f79f1)" style="fill: #909090"/>
   </g>
   <g id="patch_208">
    <path d="M 229.219429 68.853266 
L 251.054212 68.853266 
L 251.054212 68.841255 
L 229.219429 68.841255 
z
" clip-path="url(#p6c697f79f1)" style="fill: #909090"/>
   </g>
   <g id="patch_209">
    <path d="M 253.480299 122.08979 
L 275.315082 122.08979 
L 275.315082 122.085944 
L 253.480299 122.085944 
z
" clip-path="url(#p6c697f79f1)" style="fill: #909090"/>
   </g>
   <g id="patch_210">
    <path d="M 277.741168 148.685311 
L 299.575951 148.685311 
L 299.575951 148.684311 
L 277.741168 148.684311 
z
" clip-path="url(#p6c697f79f1)" style="fill: #909090"/>
   </g>
   <g id="patch_211">
    <path d="M 302.002038 157.545319 
L 323.836821 157.545319 
L 323.836821 157.544739 
L 302.002038 157.544739 
z
" clip-path="url(#p6c697f79f1)" style="fill: #909090"/>
   </g>
   <g id="patch_212">
    <path d="M 326.262908 162.203007 
L 348.09769 162.203007 
L 348.09769 162.203007 
L 326.262908 162.203007 
z
" clip-path="url(#p6c697f79f1)" style="fill: #909090"/>
   </g>
   <g id="patch_213">
    <path d="M 350.523777 162.213118 
L 372.35856 162.213118 
L 372.35856 162.213118 
L 350.523777 162.213118 
z
" clip-path="url(#p6c697f79f1)" style="fill: #909090"/>
   </g>
   <g id="patch_214">
    <path d="M 374.784647 152.984406 
L 396.619429 152.984406 
L 396.619429 152.984161 
L 374.784647 152.984161 
z
" clip-path="url(#p6c697f79f1)" style="fill: #909090"/>
   </g>
   <g id="patch_215">
    <path d="M 399.045516 144.279266 
L 420.880299 144.279266 
L 420.880299 144.277954 
L 399.045516 144.277954 
z
" clip-path="url(#p6c697f79f1)" style="fill: #909090"/>
   </g>
   <g id="patch_216">
    <path d="M 423.306386 109.492183 
L 445.141168 109.492183 
L 445.141168 109.488235 
L 423.306386 109.488235 
z
" clip-path="url(#p6c697f79f1)" style="fill: #909090"/>
   </g>
   <g id="patch_217">
    <path d="M 447.567255 162.20537 
L 469.402038 162.20537 
L 469.402038 162.20537 
L 447.567255 162.20537 
z
" clip-path="url(#p6c697f79f1)" style="fill: #909090"/>
   </g>
   <g id="patch_218">
    <path d="M 471.828125 162.248863 
L 493.662908 162.248863 
L 493.662908 162.248863 
L 471.828125 162.248863 
z
" clip-path="url(#p6c697f79f1)" style="fill: #909090"/>
   </g>
   <g id="patch_219">
    <path d="M 59.393342 97.202002 
L 81.228125 97.202002 
L 81.228125 97.202001 
L 59.393342 97.202001 
z
" clip-path="url(#p6c697f79f1)" style="fill: #9e5a01"/>
   </g>
   <g id="patch_220">
    <path d="M 83.654212 53.734028 
L 105.488995 53.734028 
L 105.488995 53.734028 
L 83.654212 53.734028 
z
" clip-path="url(#p6c697f79f1)" style="fill: #9e5a01"/>
   </g>
   <g id="patch_221">
    <path d="M 107.915082 134.181507 
L 129.749864 134.181507 
L 129.749864 134.181507 
L 107.915082 134.181507 
z
" clip-path="url(#p6c697f79f1)" style="fill: #9e5a01"/>
   </g>
   <g id="patch_222">
    <path d="M 132.175951 162.376702 
L 154.010734 162.376702 
L 154.010734 162.376702 
L 132.175951 162.376702 
z
" clip-path="url(#p6c697f79f1)" style="fill: #9e5a01"/>
   </g>
   <g id="patch_223">
    <path d="M 156.436821 162.211454 
L 178.271603 162.211454 
L 178.271603 162.211454 
L 156.436821 162.211454 
z
" clip-path="url(#p6c697f79f1)" style="fill: #9e5a01"/>
   </g>
   <g id="patch_224">
    <path d="M 180.69769 145.327031 
L 202.532473 145.327031 
L 202.532473 145.327031 
L 180.69769 145.327031 
z
" clip-path="url(#p6c697f79f1)" style="fill: #9e5a01"/>
   </g>
   <g id="patch_225">
    <path d="M 204.95856 163.605419 
L 226.793342 163.605419 
L 226.793342 163.605419 
L 204.95856 163.605419 
z
" clip-path="url(#p6c697f79f1)" style="fill: #9e5a01"/>
   </g>
   <g id="patch_226">
    <path d="M 229.219429 68.841255 
L 251.054212 68.841255 
L 251.054212 68.841255 
L 229.219429 68.841255 
z
" clip-path="url(#p6c697f79f1)" style="fill: #9e5a01"/>
   </g>
   <g id="patch_227">
    <path d="M 253.480299 163.338492 
L 275.315082 163.338492 
L 275.315082 163.338492 
L 253.480299 163.338492 
z
" clip-path="url(#p6c697f79f1)" style="fill: #9e5a01"/>
   </g>
   <g id="patch_228">
    <path d="M 277.741168 148.684311 
L 299.575951 148.684311 
L 299.575951 148.68431 
L 277.741168 148.68431 
z
" clip-path="url(#p6c697f79f1)" style="fill: #9e5a01"/>
   </g>
   <g id="patch_229">
    <path d="M 302.002038 157.544739 
L 323.836821 157.544739 
L 323.836821 157.544739 
L 302.002038 157.544739 
z
" clip-path="url(#p6c697f79f1)" style="fill: #9e5a01"/>
   </g>
   <g id="patch_230">
    <path d="M 326.262908 162.203007 
L 348.09769 162.203007 
L 348.09769 162.203007 
L 326.262908 162.203007 
z
" clip-path="url(#p6c697f79f1)" style="fill: #9e5a01"/>
   </g>
   <g id="patch_231">
    <path d="M 350.523777 162.213118 
L 372.35856 162.213118 
L 372.35856 162.213118 
L 350.523777 162.213118 
z
" clip-path="url(#p6c697f79f1)" style="fill: #9e5a01"/>
   </g>
   <g id="patch_232">
    <path d="M 374.784647 162.551744 
L 396.619429 162.551744 
L 396.619429 162.551744 
L 374.784647 162.551744 
z
" clip-path="url(#p6c697f79f1)" style="fill: #9e5a01"/>
   </g>
   <g id="patch_233">
    <path d="M 399.045516 162.575256 
L 420.880299 162.575256 
L 420.880299 162.575256 
L 399.045516 162.575256 
z
" clip-path="url(#p6c697f79f1)" style="fill: #9e5a01"/>
   </g>
   <g id="patch_234">
    <path d="M 423.306386 109.488235 
L 445.141168 109.488235 
L 445.141168 109.488235 
L 423.306386 109.488235 
z
" clip-path="url(#p6c697f79f1)" style="fill: #9e5a01"/>
   </g>
   <g id="patch_235">
    <path d="M 447.567255 162.20537 
L 469.402038 162.20537 
L 469.402038 162.20537 
L 447.567255 162.20537 
z
" clip-path="url(#p6c697f79f1)" style="fill: #9e5a01"/>
   </g>
   <g id="patch_236">
    <path d="M 471.828125 162.248863 
L 493.662908 162.248863 
L 493.662908 162.248863 
L 471.828125 162.248863 
z
" clip-path="url(#p6c697f79f1)" style="fill: #9e5a01"/>
   </g>
   <g id="patch_237">
    <path d="M 59.393342 165.095227 
L 81.228125 165.095227 
L 81.228125 165.095227 
L 59.393342 165.095227 
z
" clip-path="url(#p6c697f79f1)" style="fill: #70af1d"/>
   </g>
   <g id="patch_238">
    <path d="M 83.654212 165.837142 
L 105.488995 165.837142 
L 105.488995 165.837142 
L 83.654212 165.837142 
z
" clip-path="url(#p6c697f79f1)" style="fill: #70af1d"/>
   </g>
   <g id="patch_239">
    <path d="M 107.915082 162.994687 
L 129.749864 162.994687 
L 129.749864 162.994687 
L 107.915082 162.994687 
z
" clip-path="url(#p6c697f79f1)" style="fill: #70af1d"/>
   </g>
   <g id="patch_240">
    <path d="M 132.175951 162.376702 
L 154.010734 162.376702 
L 154.010734 162.376702 
L 132.175951 162.376702 
z
" clip-path="url(#p6c697f79f1)" style="fill: #70af1d"/>
   </g>
   <g id="patch_241">
    <path d="M 156.436821 162.211454 
L 178.271603 162.211454 
L 178.271603 162.211454 
L 156.436821 162.211454 
z
" clip-path="url(#p6c697f79f1)" style="fill: #70af1d"/>
   </g>
   <g id="patch_242">
    <path d="M 180.69769 162.641624 
L 202.532473 162.641624 
L 202.532473 162.641624 
L 180.69769 162.641624 
z
" clip-path="url(#p6c697f79f1)" style="fill: #70af1d"/>
   </g>
   <g id="patch_243">
    <path d="M 204.95856 163.605419 
L 226.793342 163.605419 
L 226.793342 163.605419 
L 204.95856 163.605419 
z
" clip-path="url(#p6c697f79f1)" style="fill: #70af1d"/>
   </g>
   <g id="patch_244">
    <path d="M 229.219429 163.354988 
L 251.054212 163.354988 
L 251.054212 163.354988 
L 229.219429 163.354988 
z
" clip-path="url(#p6c697f79f1)" style="fill: #70af1d"/>
   </g>
   <g id="patch_245">
    <path d="M 253.480299 163.338492 
L 275.315082 163.338492 
L 275.315082 163.338492 
L 253.480299 163.338492 
z
" clip-path="url(#p6c697f79f1)" style="fill: #70af1d"/>
   </g>
   <g id="patch_246">
    <path d="M 277.741168 162.785444 
L 299.575951 162.785444 
L 299.575951 162.785444 
L 277.741168 162.785444 
z
" clip-path="url(#p6c697f79f1)" style="fill: #70af1d"/>
   </g>
   <g id="patch_247">
    <path d="M 302.002038 162.243406 
L 323.836821 162.243406 
L 323.836821 162.243406 
L 302.002038 162.243406 
z
" clip-path="url(#p6c697f79f1)" style="fill: #70af1d"/>
   </g>
   <g id="patch_248">
    <path d="M 326.262908 162.203007 
L 348.09769 162.203007 
L 348.09769 162.203007 
L 326.262908 162.203007 
z
" clip-path="url(#p6c697f79f1)" style="fill: #70af1d"/>
   </g>
   <g id="patch_249">
    <path d="M 350.523777 162.213118 
L 372.35856 162.213118 
L 372.35856 162.213118 
L 350.523777 162.213118 
z
" clip-path="url(#p6c697f79f1)" style="fill: #70af1d"/>
   </g>
   <g id="patch_250">
    <path d="M 374.784647 162.551744 
L 396.619429 162.551744 
L 396.619429 162.551744 
L 374.784647 162.551744 
z
" clip-path="url(#p6c697f79f1)" style="fill: #70af1d"/>
   </g>
   <g id="patch_251">
    <path d="M 399.045516 162.575256 
L 420.880299 162.575256 
L 420.880299 162.575256 
L 399.045516 162.575256 
z
" clip-path="url(#p6c697f79f1)" style="fill: #70af1d"/>
   </g>
   <g id="patch_252">
    <path d="M 423.306386 163.179242 
L 445.141168 163.179242 
L 445.141168 163.179242 
L 423.306386 163.179242 
z
" clip-path="url(#p6c697f79f1)" style="fill: #70af1d"/>
   </g>
   <g id="patch_253">
    <path d="M 447.567255 162.20537 
L 469.402038 162.20537 
L 469.402038 162.20537 
L 447.567255 162.20537 
z
" clip-path="url(#p6c697f79f1)" style="fill: #70af1d"/>
   </g>
   <g id="patch_254">
    <path d="M 471.828125 162.248863 
L 493.662908 162.248863 
L 493.662908 162.248863 
L 471.828125 162.248863 
z
" clip-path="url(#p6c697f79f1)" style="fill: #70af1d"/>
   </g>
   <g id="patch_255">
    <path d="M 59.393342 162.199219 
L 81.228125 162.199219 
L 81.228125 150.598172 
L 59.393342 150.598172 
L 59.393342 162.199219 
z
" clip-path="url(#p6c697f79f1)" style="fill: none; stroke-dasharray: 3.7,1.6; stroke-dashoffset: 0; stroke: #000000; stroke-linejoin: miter"/>
   </g>
   <g id="patch_256">
    <path d="M 83.654212 162.199219 
L 105.488995 162.199219 
L 105.488995 98.189013 
L 83.654212 98.189013 
L 83.654212 162.199219 
z
" clip-path="url(#p6c697f79f1)" style="fill: none; stroke-dasharray: 3.7,1.6; stroke-dashoffset: 0; stroke: #000000; stroke-linejoin: miter"/>
   </g>
   <g id="patch_257">
    <path d="M 107.915082 162.199219 
L 129.749864 162.199219 
L 129.749864 129.78436 
L 107.915082 129.78436 
L 107.915082 162.199219 
z
" clip-path="url(#p6c697f79f1)" style="fill: none; stroke-dasharray: 3.7,1.6; stroke-dashoffset: 0; stroke: #000000; stroke-linejoin: miter"/>
   </g>
   <g id="patch_258">
    <path d="M 132.175951 162.199219 
L 154.010734 162.199219 
L 154.010734 139.26314 
L 132.175951 139.26314 
L 132.175951 162.199219 
z
" clip-path="url(#p6c697f79f1)" style="fill: none; stroke-dasharray: 3.7,1.6; stroke-dashoffset: 0; stroke: #000000; stroke-linejoin: miter"/>
   </g>
   <g id="patch_259">
    <path d="M 156.436821 162.199219 
L 178.271603 162.199219 
L 178.271603 152.226898 
L 156.436821 152.226898 
L 156.436821 162.199219 
z
" clip-path="url(#p6c697f79f1)" style="fill: none; stroke-dasharray: 3.7,1.6; stroke-dashoffset: 0; stroke: #000000; stroke-linejoin: miter"/>
   </g>
   <g id="patch_260">
    <path d="M 180.69769 162.199219 
L 202.532473 162.199219 
L 202.532473 157.642409 
L 180.69769 157.642409 
L 180.69769 162.199219 
z
" clip-path="url(#p6c697f79f1)" style="fill: none; stroke-dasharray: 3.7,1.6; stroke-dashoffset: 0; stroke: #000000; stroke-linejoin: miter"/>
   </g>
   <g id="patch_261">
    <path d="M 204.95856 162.199219 
L 226.793342 162.199219 
L 226.793342 156.478718 
L 204.95856 156.478718 
L 204.95856 162.199219 
z
" clip-path="url(#p6c697f79f1)" style="fill: none; stroke-dasharray: 3.7,1.6; stroke-dashoffset: 0; stroke: #000000; stroke-linejoin: miter"/>
   </g>
   <g id="patch_262">
    <path d="M 229.219429 162.199219 
L 251.054212 162.199219 
L 251.054212 23.02854 
L 229.219429 23.02854 
L 229.219429 162.199219 
z
" clip-path="url(#p6c697f79f1)" style="fill: none; stroke-dasharray: 3.7,1.6; stroke-dashoffset: 0; stroke: #000000; stroke-linejoin: miter"/>
   </g>
   <g id="patch_263">
    <path d="M 253.480299 162.199219 
L 275.315082 162.199219 
L 275.315082 46.673529 
L 253.480299 46.673529 
L 253.480299 162.199219 
z
" clip-path="url(#p6c697f79f1)" style="fill: none; stroke-dasharray: 3.7,1.6; stroke-dashoffset: 0; stroke: #000000; stroke-linejoin: miter"/>
   </g>
   <g id="patch_264">
    <path d="M 277.741168 162.199219 
L 299.575951 162.199219 
L 299.575951 154.032549 
L 277.741168 154.032549 
L 277.741168 162.199219 
z
" clip-path="url(#p6c697f79f1)" style="fill: none; stroke-dasharray: 3.7,1.6; stroke-dashoffset: 0; stroke: #000000; stroke-linejoin: miter"/>
   </g>
   <g id="patch_265">
    <path d="M 302.002038 162.199219 
L 323.836821 162.199219 
L 323.836821 156.60161 
L 302.002038 156.60161 
L 302.002038 162.199219 
z
" clip-path="url(#p6c697f79f1)" style="fill: none; stroke-dasharray: 3.7,1.6; stroke-dashoffset: 0; stroke: #000000; stroke-linejoin: miter"/>
   </g>
   <g id="patch_266">
    <path d="M 326.262908 162.199219 
L 348.09769 162.199219 
L 348.09769 160.766448 
L 326.262908 160.766448 
L 326.262908 162.199219 
z
" clip-path="url(#p6c697f79f1)" style="fill: none; stroke-dasharray: 3.7,1.6; stroke-dashoffset: 0; stroke: #000000; stroke-linejoin: miter"/>
   </g>
   <g id="patch_267">
    <path d="M 350.523777 162.199219 
L 372.35856 162.199219 
L 372.35856 157.645516 
L 350.523777 157.645516 
L 350.523777 162.199219 
z
" clip-path="url(#p6c697f79f1)" style="fill: none; stroke-dasharray: 3.7,1.6; stroke-dashoffset: 0; stroke: #000000; stroke-linejoin: miter"/>
   </g>
   <g id="patch_268">
    <path d="M 374.784647 162.199219 
L 396.619429 162.199219 
L 396.619429 160.041212 
L 374.784647 160.041212 
L 374.784647 162.199219 
z
" clip-path="url(#p6c697f79f1)" style="fill: none; stroke-dasharray: 3.7,1.6; stroke-dashoffset: 0; stroke: #000000; stroke-linejoin: miter"/>
   </g>
   <g id="patch_269">
    <path d="M 399.045516 162.199219 
L 420.880299 162.199219 
L 420.880299 156.283921 
L 399.045516 156.283921 
L 399.045516 162.199219 
z
" clip-path="url(#p6c697f79f1)" style="fill: none; stroke-dasharray: 3.7,1.6; stroke-dashoffset: 0; stroke: #000000; stroke-linejoin: miter"/>
   </g>
   <g id="patch_270">
    <path d="M 423.306386 162.199219 
L 445.141168 162.199219 
L 445.141168 112.192465 
L 423.306386 112.192465 
L 423.306386 162.199219 
z
" clip-path="url(#p6c697f79f1)" style="fill: none; stroke-dasharray: 3.7,1.6; stroke-dashoffset: 0; stroke: #000000; stroke-linejoin: miter"/>
   </g>
   <g id="patch_271">
    <path d="M 447.567255 162.199219 
L 469.402038 162.199219 
L 469.402038 162.10726 
L 447.567255 162.10726 
L 447.567255 162.199219 
z
" clip-path="url(#p6c697f79f1)" style="fill: none; stroke-dasharray: 3.7,1.6; stroke-dashoffset: 0; stroke: #000000; stroke-linejoin: miter"/>
   </g>
   <g id="patch_272">
    <path d="M 471.828125 162.199219 
L 493.662908 162.199219 
L 493.662908 161.162927 
L 471.828125 161.162927 
L 471.828125 162.199219 
z
" clip-path="url(#p6c697f79f1)" style="fill: none; stroke-dasharray: 3.7,1.6; stroke-dashoffset: 0; stroke: #000000; stroke-linejoin: miter"/>
   </g>
   <g id="matplotlib.axis_1">
    <g id="xtick_1">
     <g id="line2d_1">
      <defs>
       <path id="m41d358884e" d="M 0 0 
L 0 3.5 
" style="stroke: #000000; stroke-width: 0.8"/>
      </defs>
      <g>
       <use xlink:href="#m41d358884e" x="70.310734" y="177.319219" style="stroke: #000000; stroke-width: 0.8"/>
      </g>
     </g>
     <g id="text_1">
      <!-- Myanmar -->
      <g transform="translate(73.070109 231.311406) rotate(-90) scale(0.1 -0.1)">
       <defs>
        <path id="DejaVuSans-4d" d="M 628 4666 
L 1569 4666 
L 2759 1491 
L 3956 4666 
L 4897 4666 
L 4897 0 
L 4281 0 
L 4281 4097 
L 3078 897 
L 2444 897 
L 1241 4097 
L 1241 0 
L 628 0 
L 628 4666 
z
" transform="scale(0.015625)"/>
        <path id="DejaVuSans-79" d="M 2059 -325 
Q 1816 -950 1584 -1140 
Q 1353 -1331 966 -1331 
L 506 -1331 
L 506 -850 
L 844 -850 
Q 1081 -850 1212 -737 
Q 1344 -625 1503 -206 
L 1606 56 
L 191 3500 
L 800 3500 
L 1894 763 
L 2988 3500 
L 3597 3500 
L 2059 -325 
z
" transform="scale(0.015625)"/>
        <path id="DejaVuSans-61" d="M 2194 1759 
Q 1497 1759 1228 1600 
Q 959 1441 959 1056 
Q 959 750 1161 570 
Q 1363 391 1709 391 
Q 2188 391 2477 730 
Q 2766 1069 2766 1631 
L 2766 1759 
L 2194 1759 
z
M 3341 1997 
L 3341 0 
L 2766 0 
L 2766 531 
Q 2569 213 2275 61 
Q 1981 -91 1556 -91 
Q 1019 -91 701 211 
Q 384 513 384 1019 
Q 384 1609 779 1909 
Q 1175 2209 1959 2209 
L 2766 2209 
L 2766 2266 
Q 2766 2663 2505 2880 
Q 2244 3097 1772 3097 
Q 1472 3097 1187 3025 
Q 903 2953 641 2809 
L 641 3341 
Q 956 3463 1253 3523 
Q 1550 3584 1831 3584 
Q 2591 3584 2966 3190 
Q 3341 2797 3341 1997 
z
" transform="scale(0.015625)"/>
        <path id="DejaVuSans-6e" d="M 3513 2113 
L 3513 0 
L 2938 0 
L 2938 2094 
Q 2938 2591 2744 2837 
Q 2550 3084 2163 3084 
Q 1697 3084 1428 2787 
Q 1159 2491 1159 1978 
L 1159 0 
L 581 0 
L 581 3500 
L 1159 3500 
L 1159 2956 
Q 1366 3272 1645 3428 
Q 1925 3584 2291 3584 
Q 2894 3584 3203 3211 
Q 3513 2838 3513 2113 
z
" transform="scale(0.015625)"/>
        <path id="DejaVuSans-6d" d="M 3328 2828 
Q 3544 3216 3844 3400 
Q 4144 3584 4550 3584 
Q 5097 3584 5394 3201 
Q 5691 2819 5691 2113 
L 5691 0 
L 5113 0 
L 5113 2094 
Q 5113 2597 4934 2840 
Q 4756 3084 4391 3084 
Q 3944 3084 3684 2787 
Q 3425 2491 3425 1978 
L 3425 0 
L 2847 0 
L 2847 2094 
Q 2847 2600 2669 2842 
Q 2491 3084 2119 3084 
Q 1678 3084 1418 2786 
Q 1159 2488 1159 1978 
L 1159 0 
L 581 0 
L 581 3500 
L 1159 3500 
L 1159 2956 
Q 1356 3278 1631 3431 
Q 1906 3584 2284 3584 
Q 2666 3584 2933 3390 
Q 3200 3197 3328 2828 
z
" transform="scale(0.015625)"/>
        <path id="DejaVuSans-72" d="M 2631 2963 
Q 2534 3019 2420 3045 
Q 2306 3072 2169 3072 
Q 1681 3072 1420 2755 
Q 1159 2438 1159 1844 
L 1159 0 
L 581 0 
L 581 3500 
L 1159 3500 
L 1159 2956 
Q 1341 3275 1631 3429 
Q 1922 3584 2338 3584 
Q 2397 3584 2469 3576 
Q 2541 3569 2628 3553 
L 2631 2963 
z
" transform="scale(0.015625)"/>
       </defs>
       <use xlink:href="#DejaVuSans-4d"/>
       <use xlink:href="#DejaVuSans-79" x="86.279297"/>
       <use xlink:href="#DejaVuSans-61" x="145.458984"/>
       <use xlink:href="#DejaVuSans-6e" x="206.738281"/>
       <use xlink:href="#DejaVuSans-6d" x="270.117188"/>
       <use xlink:href="#DejaVuSans-61" x="367.529297"/>
       <use xlink:href="#DejaVuSans-72" x="428.808594"/>
      </g>
     </g>
    </g>
    <g id="xtick_2">
     <g id="line2d_2">
      <g>
       <use xlink:href="#m41d358884e" x="94.571603" y="177.319219" style="stroke: #000000; stroke-width: 0.8"/>
      </g>
     </g>
     <g id="text_2">
      <!-- Thailand -->
      <g transform="translate(97.330978 227.262969) rotate(-90) scale(0.1 -0.1)">
       <defs>
        <path id="DejaVuSans-54" d="M -19 4666 
L 3928 4666 
L 3928 4134 
L 2272 4134 
L 2272 0 
L 1638 0 
L 1638 4134 
L -19 4134 
L -19 4666 
z
" transform="scale(0.015625)"/>
        <path id="DejaVuSans-68" d="M 3513 2113 
L 3513 0 
L 2938 0 
L 2938 2094 
Q 2938 2591 2744 2837 
Q 2550 3084 2163 3084 
Q 1697 3084 1428 2787 
Q 1159 2491 1159 1978 
L 1159 0 
L 581 0 
L 581 4863 
L 1159 4863 
L 1159 2956 
Q 1366 3272 1645 3428 
Q 1925 3584 2291 3584 
Q 2894 3584 3203 3211 
Q 3513 2838 3513 2113 
z
" transform="scale(0.015625)"/>
        <path id="DejaVuSans-69" d="M 603 3500 
L 1178 3500 
L 1178 0 
L 603 0 
L 603 3500 
z
M 603 4863 
L 1178 4863 
L 1178 4134 
L 603 4134 
L 603 4863 
z
" transform="scale(0.015625)"/>
        <path id="DejaVuSans-6c" d="M 603 4863 
L 1178 4863 
L 1178 0 
L 603 0 
L 603 4863 
z
" transform="scale(0.015625)"/>
        <path id="DejaVuSans-64" d="M 2906 2969 
L 2906 4863 
L 3481 4863 
L 3481 0 
L 2906 0 
L 2906 525 
Q 2725 213 2448 61 
Q 2172 -91 1784 -91 
Q 1150 -91 751 415 
Q 353 922 353 1747 
Q 353 2572 751 3078 
Q 1150 3584 1784 3584 
Q 2172 3584 2448 3432 
Q 2725 3281 2906 2969 
z
M 947 1747 
Q 947 1113 1208 752 
Q 1469 391 1925 391 
Q 2381 391 2643 752 
Q 2906 1113 2906 1747 
Q 2906 2381 2643 2742 
Q 2381 3103 1925 3103 
Q 1469 3103 1208 2742 
Q 947 2381 947 1747 
z
" transform="scale(0.015625)"/>
       </defs>
       <use xlink:href="#DejaVuSans-54"/>
       <use xlink:href="#DejaVuSans-68" x="61.083984"/>
       <use xlink:href="#DejaVuSans-61" x="124.462891"/>
       <use xlink:href="#DejaVuSans-69" x="185.742188"/>
       <use xlink:href="#DejaVuSans-6c" x="213.525391"/>
       <use xlink:href="#DejaVuSans-61" x="241.308594"/>
       <use xlink:href="#DejaVuSans-6e" x="302.587891"/>
       <use xlink:href="#DejaVuSans-64" x="365.966797"/>
      </g>
     </g>
    </g>
    <g id="xtick_3">
     <g id="line2d_3">
      <g>
       <use xlink:href="#m41d358884e" x="118.832473" y="177.319219" style="stroke: #000000; stroke-width: 0.8"/>
      </g>
     </g>
     <g id="text_3">
      <!-- Sumatra (I) -->
      <g transform="translate(121.591848 240.964531) rotate(-90) scale(0.1 -0.1)">
       <defs>
        <path id="DejaVuSans-53" d="M 3425 4513 
L 3425 3897 
Q 3066 4069 2747 4153 
Q 2428 4238 2131 4238 
Q 1616 4238 1336 4038 
Q 1056 3838 1056 3469 
Q 1056 3159 1242 3001 
Q 1428 2844 1947 2747 
L 2328 2669 
Q 3034 2534 3370 2195 
Q 3706 1856 3706 1288 
Q 3706 609 3251 259 
Q 2797 -91 1919 -91 
Q 1588 -91 1214 -16 
Q 841 59 441 206 
L 441 856 
Q 825 641 1194 531 
Q 1563 422 1919 422 
Q 2459 422 2753 634 
Q 3047 847 3047 1241 
Q 3047 1584 2836 1778 
Q 2625 1972 2144 2069 
L 1759 2144 
Q 1053 2284 737 2584 
Q 422 2884 422 3419 
Q 422 4038 858 4394 
Q 1294 4750 2059 4750 
Q 2388 4750 2728 4690 
Q 3069 4631 3425 4513 
z
" transform="scale(0.015625)"/>
        <path id="DejaVuSans-75" d="M 544 1381 
L 544 3500 
L 1119 3500 
L 1119 1403 
Q 1119 906 1312 657 
Q 1506 409 1894 409 
Q 2359 409 2629 706 
Q 2900 1003 2900 1516 
L 2900 3500 
L 3475 3500 
L 3475 0 
L 2900 0 
L 2900 538 
Q 2691 219 2414 64 
Q 2138 -91 1772 -91 
Q 1169 -91 856 284 
Q 544 659 544 1381 
z
M 1991 3584 
L 1991 3584 
z
" transform="scale(0.015625)"/>
        <path id="DejaVuSans-74" d="M 1172 4494 
L 1172 3500 
L 2356 3500 
L 2356 3053 
L 1172 3053 
L 1172 1153 
Q 1172 725 1289 603 
Q 1406 481 1766 481 
L 2356 481 
L 2356 0 
L 1766 0 
Q 1100 0 847 248 
Q 594 497 594 1153 
L 594 3053 
L 172 3053 
L 172 3500 
L 594 3500 
L 594 4494 
L 1172 4494 
z
" transform="scale(0.015625)"/>
        <path id="DejaVuSans-20" transform="scale(0.015625)"/>
        <path id="DejaVuSans-28" d="M 1984 4856 
Q 1566 4138 1362 3434 
Q 1159 2731 1159 2009 
Q 1159 1288 1364 580 
Q 1569 -128 1984 -844 
L 1484 -844 
Q 1016 -109 783 600 
Q 550 1309 550 2009 
Q 550 2706 781 3412 
Q 1013 4119 1484 4856 
L 1984 4856 
z
" transform="scale(0.015625)"/>
        <path id="DejaVuSans-49" d="M 628 4666 
L 1259 4666 
L 1259 0 
L 628 0 
L 628 4666 
z
" transform="scale(0.015625)"/>
        <path id="DejaVuSans-29" d="M 513 4856 
L 1013 4856 
Q 1481 4119 1714 3412 
Q 1947 2706 1947 2009 
Q 1947 1309 1714 600 
Q 1481 -109 1013 -844 
L 513 -844 
Q 928 -128 1133 580 
Q 1338 1288 1338 2009 
Q 1338 2731 1133 3434 
Q 928 4138 513 4856 
z
" transform="scale(0.015625)"/>
       </defs>
       <use xlink:href="#DejaVuSans-53"/>
       <use xlink:href="#DejaVuSans-75" x="63.476562"/>
       <use xlink:href="#DejaVuSans-6d" x="126.855469"/>
       <use xlink:href="#DejaVuSans-61" x="224.267578"/>
       <use xlink:href="#DejaVuSans-74" x="285.546875"/>
       <use xlink:href="#DejaVuSans-72" x="324.755859"/>
       <use xlink:href="#DejaVuSans-61" x="365.869141"/>
       <use xlink:href="#DejaVuSans-20" x="427.148438"/>
       <use xlink:href="#DejaVuSans-28" x="458.935547"/>
       <use xlink:href="#DejaVuSans-49" x="497.949219"/>
       <use xlink:href="#DejaVuSans-29" x="527.441406"/>
      </g>
     </g>
    </g>
    <g id="xtick_4">
     <g id="line2d_4">
      <g>
       <use xlink:href="#m41d358884e" x="143.093342" y="177.319219" style="stroke: #000000; stroke-width: 0.8"/>
      </g>
     </g>
     <g id="text_4">
      <!-- Malay Peninsular (M) -->
      <g transform="translate(145.852717 288.525469) rotate(-90) scale(0.1 -0.1)">
       <defs>
        <path id="DejaVuSans-50" d="M 1259 4147 
L 1259 2394 
L 2053 2394 
Q 2494 2394 2734 2622 
Q 2975 2850 2975 3272 
Q 2975 3691 2734 3919 
Q 2494 4147 2053 4147 
L 1259 4147 
z
M 628 4666 
L 2053 4666 
Q 2838 4666 3239 4311 
Q 3641 3956 3641 3272 
Q 3641 2581 3239 2228 
Q 2838 1875 2053 1875 
L 1259 1875 
L 1259 0 
L 628 0 
L 628 4666 
z
" transform="scale(0.015625)"/>
        <path id="DejaVuSans-65" d="M 3597 1894 
L 3597 1613 
L 953 1613 
Q 991 1019 1311 708 
Q 1631 397 2203 397 
Q 2534 397 2845 478 
Q 3156 559 3463 722 
L 3463 178 
Q 3153 47 2828 -22 
Q 2503 -91 2169 -91 
Q 1331 -91 842 396 
Q 353 884 353 1716 
Q 353 2575 817 3079 
Q 1281 3584 2069 3584 
Q 2775 3584 3186 3129 
Q 3597 2675 3597 1894 
z
M 3022 2063 
Q 3016 2534 2758 2815 
Q 2500 3097 2075 3097 
Q 1594 3097 1305 2825 
Q 1016 2553 972 2059 
L 3022 2063 
z
" transform="scale(0.015625)"/>
        <path id="DejaVuSans-73" d="M 2834 3397 
L 2834 2853 
Q 2591 2978 2328 3040 
Q 2066 3103 1784 3103 
Q 1356 3103 1142 2972 
Q 928 2841 928 2578 
Q 928 2378 1081 2264 
Q 1234 2150 1697 2047 
L 1894 2003 
Q 2506 1872 2764 1633 
Q 3022 1394 3022 966 
Q 3022 478 2636 193 
Q 2250 -91 1575 -91 
Q 1294 -91 989 -36 
Q 684 19 347 128 
L 347 722 
Q 666 556 975 473 
Q 1284 391 1588 391 
Q 1994 391 2212 530 
Q 2431 669 2431 922 
Q 2431 1156 2273 1281 
Q 2116 1406 1581 1522 
L 1381 1569 
Q 847 1681 609 1914 
Q 372 2147 372 2553 
Q 372 3047 722 3315 
Q 1072 3584 1716 3584 
Q 2034 3584 2315 3537 
Q 2597 3491 2834 3397 
z
" transform="scale(0.015625)"/>
       </defs>
       <use xlink:href="#DejaVuSans-4d"/>
       <use xlink:href="#DejaVuSans-61" x="86.279297"/>
       <use xlink:href="#DejaVuSans-6c" x="147.558594"/>
       <use xlink:href="#DejaVuSans-61" x="175.341797"/>
       <use xlink:href="#DejaVuSans-79" x="236.621094"/>
       <use xlink:href="#DejaVuSans-20" x="295.800781"/>
       <use xlink:href="#DejaVuSans-50" x="327.587891"/>
       <use xlink:href="#DejaVuSans-65" x="384.265625"/>
       <use xlink:href="#DejaVuSans-6e" x="445.789062"/>
       <use xlink:href="#DejaVuSans-69" x="509.167969"/>
       <use xlink:href="#DejaVuSans-6e" x="536.951172"/>
       <use xlink:href="#DejaVuSans-73" x="600.330078"/>
       <use xlink:href="#DejaVuSans-75" x="652.429688"/>
       <use xlink:href="#DejaVuSans-6c" x="715.808594"/>
       <use xlink:href="#DejaVuSans-61" x="743.591797"/>
       <use xlink:href="#DejaVuSans-72" x="804.871094"/>
       <use xlink:href="#DejaVuSans-20" x="845.984375"/>
       <use xlink:href="#DejaVuSans-28" x="877.771484"/>
       <use xlink:href="#DejaVuSans-4d" x="916.785156"/>
       <use xlink:href="#DejaVuSans-29" x="1003.064453"/>
      </g>
     </g>
    </g>
    <g id="xtick_5">
     <g id="line2d_5">
      <g>
       <use xlink:href="#m41d358884e" x="167.354212" y="177.319219" style="stroke: #000000; stroke-width: 0.8"/>
      </g>
     </g>
     <g id="text_5">
      <!-- Singapore -->
      <g transform="translate(170.113587 234.766094) rotate(-90) scale(0.1 -0.1)">
       <defs>
        <path id="DejaVuSans-67" d="M 2906 1791 
Q 2906 2416 2648 2759 
Q 2391 3103 1925 3103 
Q 1463 3103 1205 2759 
Q 947 2416 947 1791 
Q 947 1169 1205 825 
Q 1463 481 1925 481 
Q 2391 481 2648 825 
Q 2906 1169 2906 1791 
z
M 3481 434 
Q 3481 -459 3084 -895 
Q 2688 -1331 1869 -1331 
Q 1566 -1331 1297 -1286 
Q 1028 -1241 775 -1147 
L 775 -588 
Q 1028 -725 1275 -790 
Q 1522 -856 1778 -856 
Q 2344 -856 2625 -561 
Q 2906 -266 2906 331 
L 2906 616 
Q 2728 306 2450 153 
Q 2172 0 1784 0 
Q 1141 0 747 490 
Q 353 981 353 1791 
Q 353 2603 747 3093 
Q 1141 3584 1784 3584 
Q 2172 3584 2450 3431 
Q 2728 3278 2906 2969 
L 2906 3500 
L 3481 3500 
L 3481 434 
z
" transform="scale(0.015625)"/>
        <path id="DejaVuSans-70" d="M 1159 525 
L 1159 -1331 
L 581 -1331 
L 581 3500 
L 1159 3500 
L 1159 2969 
Q 1341 3281 1617 3432 
Q 1894 3584 2278 3584 
Q 2916 3584 3314 3078 
Q 3713 2572 3713 1747 
Q 3713 922 3314 415 
Q 2916 -91 2278 -91 
Q 1894 -91 1617 61 
Q 1341 213 1159 525 
z
M 3116 1747 
Q 3116 2381 2855 2742 
Q 2594 3103 2138 3103 
Q 1681 3103 1420 2742 
Q 1159 2381 1159 1747 
Q 1159 1113 1420 752 
Q 1681 391 2138 391 
Q 2594 391 2855 752 
Q 3116 1113 3116 1747 
z
" transform="scale(0.015625)"/>
        <path id="DejaVuSans-6f" d="M 1959 3097 
Q 1497 3097 1228 2736 
Q 959 2375 959 1747 
Q 959 1119 1226 758 
Q 1494 397 1959 397 
Q 2419 397 2687 759 
Q 2956 1122 2956 1747 
Q 2956 2369 2687 2733 
Q 2419 3097 1959 3097 
z
M 1959 3584 
Q 2709 3584 3137 3096 
Q 3566 2609 3566 1747 
Q 3566 888 3137 398 
Q 2709 -91 1959 -91 
Q 1206 -91 779 398 
Q 353 888 353 1747 
Q 353 2609 779 3096 
Q 1206 3584 1959 3584 
z
" transform="scale(0.015625)"/>
       </defs>
       <use xlink:href="#DejaVuSans-53"/>
       <use xlink:href="#DejaVuSans-69" x="63.476562"/>
       <use xlink:href="#DejaVuSans-6e" x="91.259766"/>
       <use xlink:href="#DejaVuSans-67" x="154.638672"/>
       <use xlink:href="#DejaVuSans-61" x="218.115234"/>
       <use xlink:href="#DejaVuSans-70" x="279.394531"/>
       <use xlink:href="#DejaVuSans-6f" x="342.871094"/>
       <use xlink:href="#DejaVuSans-72" x="404.052734"/>
       <use xlink:href="#DejaVuSans-65" x="442.916016"/>
      </g>
     </g>
    </g>
    <g id="xtick_6">
     <g id="line2d_6">
      <g>
       <use xlink:href="#m41d358884e" x="191.615082" y="177.319219" style="stroke: #000000; stroke-width: 0.8"/>
      </g>
     </g>
     <g id="text_6">
      <!-- Laos -->
      <g transform="translate(194.374457 207.347344) rotate(-90) scale(0.1 -0.1)">
       <defs>
        <path id="DejaVuSans-4c" d="M 628 4666 
L 1259 4666 
L 1259 531 
L 3531 531 
L 3531 0 
L 628 0 
L 628 4666 
z
" transform="scale(0.015625)"/>
       </defs>
       <use xlink:href="#DejaVuSans-4c"/>
       <use xlink:href="#DejaVuSans-61" x="55.712891"/>
       <use xlink:href="#DejaVuSans-6f" x="116.992188"/>
       <use xlink:href="#DejaVuSans-73" x="178.173828"/>
      </g>
     </g>
    </g>
    <g id="xtick_7">
     <g id="line2d_7">
      <g>
       <use xlink:href="#m41d358884e" x="215.875951" y="177.319219" style="stroke: #000000; stroke-width: 0.8"/>
      </g>
     </g>
     <g id="text_7">
      <!-- Cambodia -->
      <g transform="translate(218.635326 234.892656) rotate(-90) scale(0.1 -0.1)">
       <defs>
        <path id="DejaVuSans-43" d="M 4122 4306 
L 4122 3641 
Q 3803 3938 3442 4084 
Q 3081 4231 2675 4231 
Q 1875 4231 1450 3742 
Q 1025 3253 1025 2328 
Q 1025 1406 1450 917 
Q 1875 428 2675 428 
Q 3081 428 3442 575 
Q 3803 722 4122 1019 
L 4122 359 
Q 3791 134 3420 21 
Q 3050 -91 2638 -91 
Q 1578 -91 968 557 
Q 359 1206 359 2328 
Q 359 3453 968 4101 
Q 1578 4750 2638 4750 
Q 3056 4750 3426 4639 
Q 3797 4528 4122 4306 
z
" transform="scale(0.015625)"/>
        <path id="DejaVuSans-62" d="M 3116 1747 
Q 3116 2381 2855 2742 
Q 2594 3103 2138 3103 
Q 1681 3103 1420 2742 
Q 1159 2381 1159 1747 
Q 1159 1113 1420 752 
Q 1681 391 2138 391 
Q 2594 391 2855 752 
Q 3116 1113 3116 1747 
z
M 1159 2969 
Q 1341 3281 1617 3432 
Q 1894 3584 2278 3584 
Q 2916 3584 3314 3078 
Q 3713 2572 3713 1747 
Q 3713 922 3314 415 
Q 2916 -91 2278 -91 
Q 1894 -91 1617 61 
Q 1341 213 1159 525 
L 1159 0 
L 581 0 
L 581 4863 
L 1159 4863 
L 1159 2969 
z
" transform="scale(0.015625)"/>
       </defs>
       <use xlink:href="#DejaVuSans-43"/>
       <use xlink:href="#DejaVuSans-61" x="69.824219"/>
       <use xlink:href="#DejaVuSans-6d" x="131.103516"/>
       <use xlink:href="#DejaVuSans-62" x="228.515625"/>
       <use xlink:href="#DejaVuSans-6f" x="291.992188"/>
       <use xlink:href="#DejaVuSans-64" x="353.173828"/>
       <use xlink:href="#DejaVuSans-69" x="416.650391"/>
       <use xlink:href="#DejaVuSans-61" x="444.433594"/>
      </g>
     </g>
    </g>
    <g id="xtick_8">
     <g id="line2d_8">
      <g>
       <use xlink:href="#m41d358884e" x="240.136821" y="177.319219" style="stroke: #000000; stroke-width: 0.8"/>
      </g>
     </g>
     <g id="text_8">
      <!-- Vietnam -->
      <g transform="translate(242.896196 225.992656) rotate(-90) scale(0.1 -0.1)">
       <defs>
        <path id="DejaVuSans-56" d="M 1831 0 
L 50 4666 
L 709 4666 
L 2188 738 
L 3669 4666 
L 4325 4666 
L 2547 0 
L 1831 0 
z
" transform="scale(0.015625)"/>
       </defs>
       <use xlink:href="#DejaVuSans-56"/>
       <use xlink:href="#DejaVuSans-69" x="66.158203"/>
       <use xlink:href="#DejaVuSans-65" x="93.941406"/>
       <use xlink:href="#DejaVuSans-74" x="155.464844"/>
       <use xlink:href="#DejaVuSans-6e" x="194.673828"/>
       <use xlink:href="#DejaVuSans-61" x="258.052734"/>
       <use xlink:href="#DejaVuSans-6d" x="319.332031"/>
      </g>
     </g>
    </g>
    <g id="xtick_9">
     <g id="line2d_9">
      <g>
       <use xlink:href="#m41d358884e" x="264.39769" y="177.319219" style="stroke: #000000; stroke-width: 0.8"/>
      </g>
     </g>
     <g id="text_9">
      <!-- Java-Bali (I) -->
      <g transform="translate(267.157065 241.166094) rotate(-90) scale(0.1 -0.1)">
       <defs>
        <path id="DejaVuSans-4a" d="M 628 4666 
L 1259 4666 
L 1259 325 
Q 1259 -519 939 -900 
Q 619 -1281 -91 -1281 
L -331 -1281 
L -331 -750 
L -134 -750 
Q 284 -750 456 -515 
Q 628 -281 628 325 
L 628 4666 
z
" transform="scale(0.015625)"/>
        <path id="DejaVuSans-76" d="M 191 3500 
L 800 3500 
L 1894 563 
L 2988 3500 
L 3597 3500 
L 2284 0 
L 1503 0 
L 191 3500 
z
" transform="scale(0.015625)"/>
        <path id="DejaVuSans-2d" d="M 313 2009 
L 1997 2009 
L 1997 1497 
L 313 1497 
L 313 2009 
z
" transform="scale(0.015625)"/>
        <path id="DejaVuSans-42" d="M 1259 2228 
L 1259 519 
L 2272 519 
Q 2781 519 3026 730 
Q 3272 941 3272 1375 
Q 3272 1813 3026 2020 
Q 2781 2228 2272 2228 
L 1259 2228 
z
M 1259 4147 
L 1259 2741 
L 2194 2741 
Q 2656 2741 2882 2914 
Q 3109 3088 3109 3444 
Q 3109 3797 2882 3972 
Q 2656 4147 2194 4147 
L 1259 4147 
z
M 628 4666 
L 2241 4666 
Q 2963 4666 3353 4366 
Q 3744 4066 3744 3513 
Q 3744 3084 3544 2831 
Q 3344 2578 2956 2516 
Q 3422 2416 3680 2098 
Q 3938 1781 3938 1306 
Q 3938 681 3513 340 
Q 3088 0 2303 0 
L 628 0 
L 628 4666 
z
" transform="scale(0.015625)"/>
       </defs>
       <use xlink:href="#DejaVuSans-4a"/>
       <use xlink:href="#DejaVuSans-61" x="29.492188"/>
       <use xlink:href="#DejaVuSans-76" x="90.771484"/>
       <use xlink:href="#DejaVuSans-61" x="149.951172"/>
       <use xlink:href="#DejaVuSans-2d" x="211.230469"/>
       <use xlink:href="#DejaVuSans-42" x="243.689453"/>
       <use xlink:href="#DejaVuSans-61" x="312.292969"/>
       <use xlink:href="#DejaVuSans-6c" x="373.572266"/>
       <use xlink:href="#DejaVuSans-69" x="401.355469"/>
       <use xlink:href="#DejaVuSans-20" x="429.138672"/>
       <use xlink:href="#DejaVuSans-28" x="460.925781"/>
       <use xlink:href="#DejaVuSans-49" x="499.939453"/>
       <use xlink:href="#DejaVuSans-29" x="529.431641"/>
      </g>
     </g>
    </g>
    <g id="xtick_10">
     <g id="line2d_10">
      <g>
       <use xlink:href="#m41d358884e" x="288.65856" y="177.319219" style="stroke: #000000; stroke-width: 0.8"/>
      </g>
     </g>
     <g id="text_10">
      <!-- Kalimantan (I) -->
      <g transform="translate(291.417935 254.909844) rotate(-90) scale(0.1 -0.1)">
       <defs>
        <path id="DejaVuSans-4b" d="M 628 4666 
L 1259 4666 
L 1259 2694 
L 3353 4666 
L 4166 4666 
L 1850 2491 
L 4331 0 
L 3500 0 
L 1259 2247 
L 1259 0 
L 628 0 
L 628 4666 
z
" transform="scale(0.015625)"/>
       </defs>
       <use xlink:href="#DejaVuSans-4b"/>
       <use xlink:href="#DejaVuSans-61" x="63.826172"/>
       <use xlink:href="#DejaVuSans-6c" x="125.105469"/>
       <use xlink:href="#DejaVuSans-69" x="152.888672"/>
       <use xlink:href="#DejaVuSans-6d" x="180.671875"/>
       <use xlink:href="#DejaVuSans-61" x="278.083984"/>
       <use xlink:href="#DejaVuSans-6e" x="339.363281"/>
       <use xlink:href="#DejaVuSans-74" x="402.742188"/>
       <use xlink:href="#DejaVuSans-61" x="441.951172"/>
       <use xlink:href="#DejaVuSans-6e" x="503.230469"/>
       <use xlink:href="#DejaVuSans-20" x="566.609375"/>
       <use xlink:href="#DejaVuSans-28" x="598.396484"/>
       <use xlink:href="#DejaVuSans-49" x="637.410156"/>
       <use xlink:href="#DejaVuSans-29" x="666.902344"/>
      </g>
     </g>
    </g>
    <g id="xtick_11">
     <g id="line2d_11">
      <g>
       <use xlink:href="#m41d358884e" x="312.919429" y="177.319219" style="stroke: #000000; stroke-width: 0.8"/>
      </g>
     </g>
     <g id="text_11">
      <!-- Sarawak (M) -->
      <g transform="translate(315.678804 246.741094) rotate(-90) scale(0.1 -0.1)">
       <defs>
        <path id="DejaVuSans-77" d="M 269 3500 
L 844 3500 
L 1563 769 
L 2278 3500 
L 2956 3500 
L 3675 769 
L 4391 3500 
L 4966 3500 
L 4050 0 
L 3372 0 
L 2619 2869 
L 1863 0 
L 1184 0 
L 269 3500 
z
" transform="scale(0.015625)"/>
        <path id="DejaVuSans-6b" d="M 581 4863 
L 1159 4863 
L 1159 1991 
L 2875 3500 
L 3609 3500 
L 1753 1863 
L 3688 0 
L 2938 0 
L 1159 1709 
L 1159 0 
L 581 0 
L 581 4863 
z
" transform="scale(0.015625)"/>
       </defs>
       <use xlink:href="#DejaVuSans-53"/>
       <use xlink:href="#DejaVuSans-61" x="63.476562"/>
       <use xlink:href="#DejaVuSans-72" x="124.755859"/>
       <use xlink:href="#DejaVuSans-61" x="165.869141"/>
       <use xlink:href="#DejaVuSans-77" x="227.148438"/>
       <use xlink:href="#DejaVuSans-61" x="308.935547"/>
       <use xlink:href="#DejaVuSans-6b" x="370.214844"/>
       <use xlink:href="#DejaVuSans-20" x="428.125"/>
       <use xlink:href="#DejaVuSans-28" x="459.912109"/>
       <use xlink:href="#DejaVuSans-4d" x="498.925781"/>
       <use xlink:href="#DejaVuSans-29" x="585.205078"/>
      </g>
     </g>
    </g>
    <g id="xtick_12">
     <g id="line2d_12">
      <g>
       <use xlink:href="#m41d358884e" x="337.180299" y="177.319219" style="stroke: #000000; stroke-width: 0.8"/>
      </g>
     </g>
     <g id="text_12">
      <!-- Brunei -->
      <g transform="translate(339.939674 216.897344) rotate(-90) scale(0.1 -0.1)">
       <use xlink:href="#DejaVuSans-42"/>
       <use xlink:href="#DejaVuSans-72" x="68.603516"/>
       <use xlink:href="#DejaVuSans-75" x="109.716797"/>
       <use xlink:href="#DejaVuSans-6e" x="173.095703"/>
       <use xlink:href="#DejaVuSans-65" x="236.474609"/>
       <use xlink:href="#DejaVuSans-69" x="297.998047"/>
      </g>
     </g>
    </g>
    <g id="xtick_13">
     <g id="line2d_13">
      <g>
       <use xlink:href="#m41d358884e" x="361.441168" y="177.319219" style="stroke: #000000; stroke-width: 0.8"/>
      </g>
     </g>
     <g id="text_13">
      <!-- Sabah (M) -->
      <g transform="translate(364.200543 235.219219) rotate(-90) scale(0.1 -0.1)">
       <use xlink:href="#DejaVuSans-53"/>
       <use xlink:href="#DejaVuSans-61" x="63.476562"/>
       <use xlink:href="#DejaVuSans-62" x="124.755859"/>
       <use xlink:href="#DejaVuSans-61" x="188.232422"/>
       <use xlink:href="#DejaVuSans-68" x="249.511719"/>
       <use xlink:href="#DejaVuSans-20" x="312.890625"/>
       <use xlink:href="#DejaVuSans-28" x="344.677734"/>
       <use xlink:href="#DejaVuSans-4d" x="383.691406"/>
       <use xlink:href="#DejaVuSans-29" x="469.970703"/>
      </g>
     </g>
    </g>
    <g id="xtick_14">
     <g id="line2d_14">
      <g>
       <use xlink:href="#m41d358884e" x="385.702038" y="177.319219" style="stroke: #000000; stroke-width: 0.8"/>
      </g>
     </g>
     <g id="text_14">
      <!-- Nusa-Tenggara (I) -->
      <g transform="translate(388.461413 272.064531) rotate(-90) scale(0.1 -0.1)">
       <defs>
        <path id="DejaVuSans-4e" d="M 628 4666 
L 1478 4666 
L 3547 763 
L 3547 4666 
L 4159 4666 
L 4159 0 
L 3309 0 
L 1241 3903 
L 1241 0 
L 628 0 
L 628 4666 
z
" transform="scale(0.015625)"/>
       </defs>
       <use xlink:href="#DejaVuSans-4e"/>
       <use xlink:href="#DejaVuSans-75" x="74.804688"/>
       <use xlink:href="#DejaVuSans-73" x="138.183594"/>
       <use xlink:href="#DejaVuSans-61" x="190.283203"/>
       <use xlink:href="#DejaVuSans-2d" x="251.5625"/>
       <use xlink:href="#DejaVuSans-54" x="278.521484"/>
       <use xlink:href="#DejaVuSans-65" x="322.605469"/>
       <use xlink:href="#DejaVuSans-6e" x="384.128906"/>
       <use xlink:href="#DejaVuSans-67" x="447.507812"/>
       <use xlink:href="#DejaVuSans-67" x="510.984375"/>
       <use xlink:href="#DejaVuSans-61" x="574.460938"/>
       <use xlink:href="#DejaVuSans-72" x="635.740234"/>
       <use xlink:href="#DejaVuSans-61" x="676.853516"/>
       <use xlink:href="#DejaVuSans-20" x="738.132812"/>
       <use xlink:href="#DejaVuSans-28" x="769.919922"/>
       <use xlink:href="#DejaVuSans-49" x="808.933594"/>
       <use xlink:href="#DejaVuSans-29" x="838.425781"/>
      </g>
     </g>
    </g>
    <g id="xtick_15">
     <g id="line2d_15">
      <g>
       <use xlink:href="#m41d358884e" x="409.962908" y="177.319219" style="stroke: #000000; stroke-width: 0.8"/>
      </g>
     </g>
     <g id="text_15">
      <!-- Sulawesi (I) -->
      <g transform="translate(412.722283 242.161406) rotate(-90) scale(0.1 -0.1)">
       <use xlink:href="#DejaVuSans-53"/>
       <use xlink:href="#DejaVuSans-75" x="63.476562"/>
       <use xlink:href="#DejaVuSans-6c" x="126.855469"/>
       <use xlink:href="#DejaVuSans-61" x="154.638672"/>
       <use xlink:href="#DejaVuSans-77" x="215.917969"/>
       <use xlink:href="#DejaVuSans-65" x="297.705078"/>
       <use xlink:href="#DejaVuSans-73" x="359.228516"/>
       <use xlink:href="#DejaVuSans-69" x="411.328125"/>
       <use xlink:href="#DejaVuSans-20" x="439.111328"/>
       <use xlink:href="#DejaVuSans-28" x="470.898438"/>
       <use xlink:href="#DejaVuSans-49" x="509.912109"/>
       <use xlink:href="#DejaVuSans-29" x="539.404297"/>
      </g>
     </g>
    </g>
    <g id="xtick_16">
     <g id="line2d_16">
      <g>
       <use xlink:href="#m41d358884e" x="434.223777" y="177.319219" style="stroke: #000000; stroke-width: 0.8"/>
      </g>
     </g>
     <g id="text_16">
      <!-- Philippines -->
      <g transform="translate(436.983152 238.195781) rotate(-90) scale(0.1 -0.1)">
       <use xlink:href="#DejaVuSans-50"/>
       <use xlink:href="#DejaVuSans-68" x="60.302734"/>
       <use xlink:href="#DejaVuSans-69" x="123.681641"/>
       <use xlink:href="#DejaVuSans-6c" x="151.464844"/>
       <use xlink:href="#DejaVuSans-69" x="179.248047"/>
       <use xlink:href="#DejaVuSans-70" x="207.03125"/>
       <use xlink:href="#DejaVuSans-70" x="270.507812"/>
       <use xlink:href="#DejaVuSans-69" x="333.984375"/>
       <use xlink:href="#DejaVuSans-6e" x="361.767578"/>
       <use xlink:href="#DejaVuSans-65" x="425.146484"/>
       <use xlink:href="#DejaVuSans-73" x="486.669922"/>
      </g>
     </g>
    </g>
    <g id="xtick_17">
     <g id="line2d_17">
      <g>
       <use xlink:href="#m41d358884e" x="458.484647" y="177.319219" style="stroke: #000000; stroke-width: 0.8"/>
      </g>
     </g>
     <g id="text_17">
      <!-- Maluku (I) -->
      <g transform="translate(461.244022 233.937969) rotate(-90) scale(0.1 -0.1)">
       <use xlink:href="#DejaVuSans-4d"/>
       <use xlink:href="#DejaVuSans-61" x="86.279297"/>
       <use xlink:href="#DejaVuSans-6c" x="147.558594"/>
       <use xlink:href="#DejaVuSans-75" x="175.341797"/>
       <use xlink:href="#DejaVuSans-6b" x="238.720703"/>
       <use xlink:href="#DejaVuSans-75" x="293.505859"/>
       <use xlink:href="#DejaVuSans-20" x="356.884766"/>
       <use xlink:href="#DejaVuSans-28" x="388.671875"/>
       <use xlink:href="#DejaVuSans-49" x="427.685547"/>
       <use xlink:href="#DejaVuSans-29" x="457.177734"/>
      </g>
     </g>
    </g>
    <g id="xtick_18">
     <g id="line2d_18">
      <g>
       <use xlink:href="#m41d358884e" x="482.745516" y="177.319219" style="stroke: #000000; stroke-width: 0.8"/>
      </g>
     </g>
     <g id="text_18">
      <!-- West Papua (I) -->
      <g transform="translate(485.504891 256.533281) rotate(-90) scale(0.1 -0.1)">
       <defs>
        <path id="DejaVuSans-57" d="M 213 4666 
L 850 4666 
L 1831 722 
L 2809 4666 
L 3519 4666 
L 4500 722 
L 5478 4666 
L 6119 4666 
L 4947 0 
L 4153 0 
L 3169 4050 
L 2175 0 
L 1381 0 
L 213 4666 
z
" transform="scale(0.015625)"/>
       </defs>
       <use xlink:href="#DejaVuSans-57"/>
       <use xlink:href="#DejaVuSans-65" x="93.001953"/>
       <use xlink:href="#DejaVuSans-73" x="154.525391"/>
       <use xlink:href="#DejaVuSans-74" x="206.625"/>
       <use xlink:href="#DejaVuSans-20" x="245.833984"/>
       <use xlink:href="#DejaVuSans-50" x="277.621094"/>
       <use xlink:href="#DejaVuSans-61" x="333.423828"/>
       <use xlink:href="#DejaVuSans-70" x="394.703125"/>
       <use xlink:href="#DejaVuSans-75" x="458.179688"/>
       <use xlink:href="#DejaVuSans-61" x="521.558594"/>
       <use xlink:href="#DejaVuSans-20" x="582.837891"/>
       <use xlink:href="#DejaVuSans-28" x="614.625"/>
       <use xlink:href="#DejaVuSans-49" x="653.638672"/>
       <use xlink:href="#DejaVuSans-29" x="683.130859"/>
      </g>
     </g>
    </g>
   </g>
   <g id="matplotlib.axis_2">
    <g id="ytick_1">
     <g id="line2d_19">
      <path d="M 53.328125 162.199219 
L 499.728125 162.199219 
" clip-path="url(#p6c697f79f1)" style="fill: none; stroke: #b0b0b0; stroke-width: 0.8; stroke-linecap: square"/>
     </g>
     <g id="line2d_20">
      <defs>
       <path id="mef5062f766" d="M 0 0 
L -3.5 0 
" style="stroke: #000000; stroke-width: 0.8"/>
      </defs>
      <g>
       <use xlink:href="#mef5062f766" x="53.328125" y="162.199219" style="stroke: #000000; stroke-width: 0.8"/>
      </g>
     </g>
     <g id="text_19">
      <!-- 0 -->
      <g transform="translate(39.965625 165.998438) scale(0.1 -0.1)">
       <defs>
        <path id="DejaVuSans-30" d="M 2034 4250 
Q 1547 4250 1301 3770 
Q 1056 3291 1056 2328 
Q 1056 1369 1301 889 
Q 1547 409 2034 409 
Q 2525 409 2770 889 
Q 3016 1369 3016 2328 
Q 3016 3291 2770 3770 
Q 2525 4250 2034 4250 
z
M 2034 4750 
Q 2819 4750 3233 4129 
Q 3647 3509 3647 2328 
Q 3647 1150 3233 529 
Q 2819 -91 2034 -91 
Q 1250 -91 836 529 
Q 422 1150 422 2328 
Q 422 3509 836 4129 
Q 1250 4750 2034 4750 
z
" transform="scale(0.015625)"/>
       </defs>
       <use xlink:href="#DejaVuSans-30"/>
      </g>
     </g>
    </g>
    <g id="ytick_2">
     <g id="line2d_21">
      <path d="M 53.328125 124.399219 
L 499.728125 124.399219 
" clip-path="url(#p6c697f79f1)" style="fill: none; stroke: #b0b0b0; stroke-width: 0.8; stroke-linecap: square"/>
     </g>
     <g id="line2d_22">
      <g>
       <use xlink:href="#mef5062f766" x="53.328125" y="124.399219" style="stroke: #000000; stroke-width: 0.8"/>
      </g>
     </g>
     <g id="text_20">
      <!-- 500 -->
      <g transform="translate(27.240625 128.198438) scale(0.1 -0.1)">
       <defs>
        <path id="DejaVuSans-35" d="M 691 4666 
L 3169 4666 
L 3169 4134 
L 1269 4134 
L 1269 2991 
Q 1406 3038 1543 3061 
Q 1681 3084 1819 3084 
Q 2600 3084 3056 2656 
Q 3513 2228 3513 1497 
Q 3513 744 3044 326 
Q 2575 -91 1722 -91 
Q 1428 -91 1123 -41 
Q 819 9 494 109 
L 494 744 
Q 775 591 1075 516 
Q 1375 441 1709 441 
Q 2250 441 2565 725 
Q 2881 1009 2881 1497 
Q 2881 1984 2565 2268 
Q 2250 2553 1709 2553 
Q 1456 2553 1204 2497 
Q 953 2441 691 2322 
L 691 4666 
z
" transform="scale(0.015625)"/>
       </defs>
       <use xlink:href="#DejaVuSans-35"/>
       <use xlink:href="#DejaVuSans-30" x="63.623047"/>
       <use xlink:href="#DejaVuSans-30" x="127.246094"/>
      </g>
     </g>
    </g>
    <g id="ytick_3">
     <g id="line2d_23">
      <path d="M 53.328125 86.599219 
L 499.728125 86.599219 
" clip-path="url(#p6c697f79f1)" style="fill: none; stroke: #b0b0b0; stroke-width: 0.8; stroke-linecap: square"/>
     </g>
     <g id="line2d_24">
      <g>
       <use xlink:href="#mef5062f766" x="53.328125" y="86.599219" style="stroke: #000000; stroke-width: 0.8"/>
      </g>
     </g>
     <g id="text_21">
      <!-- 1000 -->
      <g transform="translate(20.878125 90.398438) scale(0.1 -0.1)">
       <defs>
        <path id="DejaVuSans-31" d="M 794 531 
L 1825 531 
L 1825 4091 
L 703 3866 
L 703 4441 
L 1819 4666 
L 2450 4666 
L 2450 531 
L 3481 531 
L 3481 0 
L 794 0 
L 794 531 
z
" transform="scale(0.015625)"/>
       </defs>
       <use xlink:href="#DejaVuSans-31"/>
       <use xlink:href="#DejaVuSans-30" x="63.623047"/>
       <use xlink:href="#DejaVuSans-30" x="127.246094"/>
       <use xlink:href="#DejaVuSans-30" x="190.869141"/>
      </g>
     </g>
    </g>
    <g id="ytick_4">
     <g id="line2d_25">
      <path d="M 53.328125 48.799219 
L 499.728125 48.799219 
" clip-path="url(#p6c697f79f1)" style="fill: none; stroke: #b0b0b0; stroke-width: 0.8; stroke-linecap: square"/>
     </g>
     <g id="line2d_26">
      <g>
       <use xlink:href="#mef5062f766" x="53.328125" y="48.799219" style="stroke: #000000; stroke-width: 0.8"/>
      </g>
     </g>
     <g id="text_22">
      <!-- 1500 -->
      <g transform="translate(20.878125 52.598438) scale(0.1 -0.1)">
       <use xlink:href="#DejaVuSans-31"/>
       <use xlink:href="#DejaVuSans-35" x="63.623047"/>
       <use xlink:href="#DejaVuSans-30" x="127.246094"/>
       <use xlink:href="#DejaVuSans-30" x="190.869141"/>
      </g>
     </g>
    </g>
    <g id="ytick_5">
     <g id="line2d_27">
      <path d="M 53.328125 10.999219 
L 499.728125 10.999219 
" clip-path="url(#p6c697f79f1)" style="fill: none; stroke: #b0b0b0; stroke-width: 0.8; stroke-linecap: square"/>
     </g>
     <g id="line2d_28">
      <g>
       <use xlink:href="#mef5062f766" x="53.328125" y="10.999219" style="stroke: #000000; stroke-width: 0.8"/>
      </g>
     </g>
     <g id="text_23">
      <!-- 2000 -->
      <g transform="translate(20.878125 14.798438) scale(0.1 -0.1)">
       <defs>
        <path id="DejaVuSans-32" d="M 1228 531 
L 3431 531 
L 3431 0 
L 469 0 
L 469 531 
Q 828 903 1448 1529 
Q 2069 2156 2228 2338 
Q 2531 2678 2651 2914 
Q 2772 3150 2772 3378 
Q 2772 3750 2511 3984 
Q 2250 4219 1831 4219 
Q 1534 4219 1204 4116 
Q 875 4013 500 3803 
L 500 4441 
Q 881 4594 1212 4672 
Q 1544 4750 1819 4750 
Q 2544 4750 2975 4387 
Q 3406 4025 3406 3419 
Q 3406 3131 3298 2873 
Q 3191 2616 2906 2266 
Q 2828 2175 2409 1742 
Q 1991 1309 1228 531 
z
" transform="scale(0.015625)"/>
       </defs>
       <use xlink:href="#DejaVuSans-32"/>
       <use xlink:href="#DejaVuSans-30" x="63.623047"/>
       <use xlink:href="#DejaVuSans-30" x="127.246094"/>
       <use xlink:href="#DejaVuSans-30" x="190.869141"/>
      </g>
     </g>
    </g>
    <g id="text_24">
     <!-- TWh/a -->
     <g transform="translate(14.798438 110.074063) rotate(-90) scale(0.1 -0.1)">
      <defs>
       <path id="DejaVuSans-2f" d="M 1625 4666 
L 2156 4666 
L 531 -594 
L 0 -594 
L 1625 4666 
z
" transform="scale(0.015625)"/>
      </defs>
      <use xlink:href="#DejaVuSans-54"/>
      <use xlink:href="#DejaVuSans-57" x="61.083984"/>
      <use xlink:href="#DejaVuSans-68" x="159.960938"/>
      <use xlink:href="#DejaVuSans-2f" x="223.339844"/>
      <use xlink:href="#DejaVuSans-61" x="257.03125"/>
     </g>
    </g>
   </g>
   <g id="patch_273">
    <path d="M 53.328125 177.319219 
L 53.328125 10.999219 
" style="fill: none; stroke: #000000; stroke-width: 0.8; stroke-linejoin: miter; stroke-linecap: square"/>
   </g>
   <g id="patch_274">
    <path d="M 499.728125 177.319219 
L 499.728125 10.999219 
" style="fill: none; stroke: #000000; stroke-width: 0.8; stroke-linejoin: miter; stroke-linecap: square"/>
   </g>
   <g id="patch_275">
    <path d="M 53.328125 177.319219 
L 499.728125 177.319219 
" style="fill: none; stroke: #000000; stroke-width: 0.8; stroke-linejoin: miter; stroke-linecap: square"/>
   </g>
   <g id="patch_276">
    <path d="M 53.328125 10.999219 
L 499.728125 10.999219 
" style="fill: none; stroke: #000000; stroke-width: 0.8; stroke-linejoin: miter; stroke-linecap: square"/>
   </g>
   <g id="patch_277">
    <path d="M 167.854212 120.189221 
Q 167.854212 129.309624 167.854212 138.430026 
L 169.854212 138.430026 
Q 168.604212 144.430922 167.354212 150.431819 
Q 166.104212 144.430922 164.854212 138.430026 
L 166.854212 138.430026 
Q 166.854212 129.309624 166.854212 120.189221 
L 167.854212 120.189221 
z
" style="stroke: #000000; stroke-linecap: round"/>
   </g>
   <g id="text_25">
    <!-- Regional -->
    <g transform="translate(145.783899 103.125336) scale(0.1 -0.1)">
     <defs>
      <path id="DejaVuSans-52" d="M 2841 2188 
Q 3044 2119 3236 1894 
Q 3428 1669 3622 1275 
L 4263 0 
L 3584 0 
L 2988 1197 
Q 2756 1666 2539 1819 
Q 2322 1972 1947 1972 
L 1259 1972 
L 1259 0 
L 628 0 
L 628 4666 
L 2053 4666 
Q 2853 4666 3247 4331 
Q 3641 3997 3641 3322 
Q 3641 2881 3436 2590 
Q 3231 2300 2841 2188 
z
M 1259 4147 
L 1259 2491 
L 2053 2491 
Q 2509 2491 2742 2702 
Q 2975 2913 2975 3322 
Q 2975 3731 2742 3939 
Q 2509 4147 2053 4147 
L 1259 4147 
z
" transform="scale(0.015625)"/>
     </defs>
     <use xlink:href="#DejaVuSans-52"/>
     <use xlink:href="#DejaVuSans-65" x="64.982422"/>
     <use xlink:href="#DejaVuSans-67" x="126.505859"/>
     <use xlink:href="#DejaVuSans-69" x="189.982422"/>
     <use xlink:href="#DejaVuSans-6f" x="217.765625"/>
     <use xlink:href="#DejaVuSans-6e" x="278.947266"/>
     <use xlink:href="#DejaVuSans-61" x="342.326172"/>
     <use xlink:href="#DejaVuSans-6c" x="403.605469"/>
    </g>
    <!-- Load/a -->
    <g transform="translate(150.609681 114.323148) scale(0.1 -0.1)">
     <use xlink:href="#DejaVuSans-4c"/>
     <use xlink:href="#DejaVuSans-6f" x="53.962891"/>
     <use xlink:href="#DejaVuSans-61" x="115.144531"/>
     <use xlink:href="#DejaVuSans-64" x="176.423828"/>
     <use xlink:href="#DejaVuSans-2f" x="239.900391"/>
     <use xlink:href="#DejaVuSans-61" x="273.591797"/>
    </g>
   </g>
   <g id="text_26">
    <!-- SEA_ERA5_2011_IRENA_DEC_2050 -->
    <g transform="translate(335.08325 24.957619) scale(0.09 -0.09)">
     <defs>
      <path id="DejaVuSans-45" d="M 628 4666 
L 3578 4666 
L 3578 4134 
L 1259 4134 
L 1259 2753 
L 3481 2753 
L 3481 2222 
L 1259 2222 
L 1259 531 
L 3634 531 
L 3634 0 
L 628 0 
L 628 4666 
z
" transform="scale(0.015625)"/>
      <path id="DejaVuSans-41" d="M 2188 4044 
L 1331 1722 
L 3047 1722 
L 2188 4044 
z
M 1831 4666 
L 2547 4666 
L 4325 0 
L 3669 0 
L 3244 1197 
L 1141 1197 
L 716 0 
L 50 0 
L 1831 4666 
z
" transform="scale(0.015625)"/>
      <path id="DejaVuSans-5f" d="M 3263 -1063 
L 3263 -1509 
L -63 -1509 
L -63 -1063 
L 3263 -1063 
z
" transform="scale(0.015625)"/>
      <path id="DejaVuSans-44" d="M 1259 4147 
L 1259 519 
L 2022 519 
Q 2988 519 3436 956 
Q 3884 1394 3884 2338 
Q 3884 3275 3436 3711 
Q 2988 4147 2022 4147 
L 1259 4147 
z
M 628 4666 
L 1925 4666 
Q 3281 4666 3915 4102 
Q 4550 3538 4550 2338 
Q 4550 1131 3912 565 
Q 3275 0 1925 0 
L 628 0 
L 628 4666 
z
" transform="scale(0.015625)"/>
     </defs>
     <use xlink:href="#DejaVuSans-53"/>
     <use xlink:href="#DejaVuSans-45" x="63.476562"/>
     <use xlink:href="#DejaVuSans-41" x="126.660156"/>
     <use xlink:href="#DejaVuSans-5f" x="195.068359"/>
     <use xlink:href="#DejaVuSans-45" x="245.068359"/>
     <use xlink:href="#DejaVuSans-52" x="308.251953"/>
     <use xlink:href="#DejaVuSans-41" x="373.734375"/>
     <use xlink:href="#DejaVuSans-35" x="442.142578"/>
     <use xlink:href="#DejaVuSans-5f" x="505.765625"/>
     <use xlink:href="#DejaVuSans-32" x="555.765625"/>
     <use xlink:href="#DejaVuSans-30" x="619.388672"/>
     <use xlink:href="#DejaVuSans-31" x="683.011719"/>
     <use xlink:href="#DejaVuSans-31" x="746.634766"/>
     <use xlink:href="#DejaVuSans-5f" x="810.257812"/>
     <use xlink:href="#DejaVuSans-49" x="860.257812"/>
     <use xlink:href="#DejaVuSans-52" x="889.75"/>
     <use xlink:href="#DejaVuSans-45" x="959.232422"/>
     <use xlink:href="#DejaVuSans-4e" x="1022.416016"/>
     <use xlink:href="#DejaVuSans-41" x="1097.220703"/>
     <use xlink:href="#DejaVuSans-5f" x="1165.628906"/>
     <use xlink:href="#DejaVuSans-44" x="1215.628906"/>
     <use xlink:href="#DejaVuSans-45" x="1292.630859"/>
     <use xlink:href="#DejaVuSans-43" x="1355.814453"/>
     <use xlink:href="#DejaVuSans-5f" x="1425.638672"/>
     <use xlink:href="#DejaVuSans-32" x="1475.638672"/>
     <use xlink:href="#DejaVuSans-30" x="1539.261719"/>
     <use xlink:href="#DejaVuSans-35" x="1602.884766"/>
     <use xlink:href="#DejaVuSans-30" x="1666.507812"/>
    </g>
   </g>
  </g>
 </g>
 <defs>
  <clipPath id="p6c697f79f1">
   <rect x="53.328125" y="10.999219" width="446.4" height="166.32"/>
  </clipPath>
 </defs>
</svg>
