<?xml version="1.0" encoding="utf-8" standalone="no"?>
<!DOCTYPE svg PUBLIC "-//W3C//DTD SVG 1.1//EN"
  "http://www.w3.org/Graphics/SVG/1.1/DTD/svg11.dtd">
<svg xmlns:xlink="http://www.w3.org/1999/xlink" width="568.087187pt" height="244.529219pt" viewBox="0 0 568.087187 244.529219" xmlns="http://www.w3.org/2000/svg" version="1.1">
 <metadata>
  <rdf:RDF xmlns:dc="http://purl.org/dc/elements/1.1/" xmlns:cc="http://creativecommons.org/ns#" xmlns:rdf="http://www.w3.org/1999/02/22-rdf-syntax-ns#">
   <cc:Work>
    <dc:type rdf:resource="http://purl.org/dc/dcmitype/StillImage"/>
    <dc:date>2024-11-01T14:51:35.679382</dc:date>
    <dc:format>image/svg+xml</dc:format>
    <dc:creator>
     <cc:Agent>
      <dc:title>Matplotlib v3.5.2, https://matplotlib.org/</dc:title>
     </cc:Agent>
    </dc:creator>
   </cc:Work>
  </rdf:RDF>
 </metadata>
 <defs>
  <style type="text/css">*{stroke-linejoin: round; stroke-linecap: butt}</style>
 </defs>
 <g id="figure_1">
  <g id="patch_1">
   <path d="M 0 244.529219 
L 568.087187 244.529219 
L 568.087187 0 
L 0 0 
z
" style="fill: #ffffff"/>
  </g>
  <g id="axes_1">
   <g id="patch_2">
    <path d="M 53.328125 204.879219 
L 273.448125 204.879219 
L 273.448125 10.999219 
L 53.328125 10.999219 
z
" style="fill: #ffffff"/>
   </g>
   <g id="PolyCollection_1">
    <defs>
     <path id="m80d4e55602" d="M 53.328125 -41.158469 
L 53.328125 -39.65 
L 90.014792 -39.65 
L 126.701458 -39.65 
L 163.388125 -39.65 
L 200.074792 -39.65 
L 236.761458 -39.65 
L 273.448125 -39.65 
L 273.448125 -41.490324 
L 273.448125 -41.490324 
L 236.761458 -41.490424 
L 200.074792 -41.490424 
L 163.388125 -41.490424 
L 126.701458 -41.491716 
L 90.014792 -41.316675 
L 53.328125 -41.158469 
z
" style="stroke: #08ad97"/>
    </defs>
    <g clip-path="url(#pb8fdf6cdc0)">
     <use xlink:href="#m80d4e55602" x="0" y="244.529219" style="fill: #08ad97; stroke: #08ad97"/>
    </g>
   </g>
   <g id="PolyCollection_2">
    <defs>
     <path id="m6ac12c2e8a" d="M 53.328125 -41.158624 
L 53.328125 -41.158469 
L 90.014792 -41.316675 
L 126.701458 -41.491716 
L 163.388125 -41.490424 
L 200.074792 -41.490424 
L 236.761458 -41.490424 
L 273.448125 -41.490324 
L 273.448125 -41.4905 
L 273.448125 -41.4905 
L 236.761458 -41.490595 
L 200.074792 -41.49066 
L 163.388125 -41.490583 
L 126.701458 -41.491905 
L 90.014792 -41.31683 
L 53.328125 -41.158624 
z
" style="stroke: #6895dd"/>
    </defs>
    <g clip-path="url(#pb8fdf6cdc0)">
     <use xlink:href="#m6ac12c2e8a" x="0" y="244.529219" style="fill: #6895dd; stroke: #6895dd"/>
    </g>
   </g>
   <g id="PolyCollection_3">
    <defs>
     <path id="mab1624b95d" d="M 53.328125 -41.16159 
L 53.328125 -41.158624 
L 90.014792 -41.31683 
L 126.701458 -41.491905 
L 163.388125 -41.490583 
L 200.074792 -41.49066 
L 236.761458 -41.490595 
L 273.448125 -41.4905 
L 273.448125 -42.24834 
L 273.448125 -42.24834 
L 236.761458 -41.493579 
L 200.074792 -41.49372 
L 163.388125 -41.493554 
L 126.701458 -41.494907 
L 90.014792 -41.319797 
L 53.328125 -41.16159 
z
" style="stroke: #74c6f2"/>
    </defs>
    <g clip-path="url(#pb8fdf6cdc0)">
     <use xlink:href="#mab1624b95d" x="0" y="244.529219" style="fill: #74c6f2; stroke: #74c6f2"/>
    </g>
   </g>
   <g id="PolyCollection_4">
    <defs>
     <path id="m0fd544e87b" d="M 53.328125 -41.639684 
L 53.328125 -41.16159 
L 90.014792 -41.319797 
L 126.701458 -41.494907 
L 163.388125 -41.493554 
L 200.074792 -41.49372 
L 236.761458 -41.493579 
L 273.448125 -42.24834 
L 273.448125 -49.305853 
L 273.448125 -49.305853 
L 236.761458 -46.410589 
L 200.074792 -45.947383 
L 163.388125 -45.213096 
L 126.701458 -43.275612 
L 90.014792 -42.218792 
L 53.328125 -41.639684 
z
" style="stroke: #235ebc"/>
    </defs>
    <g clip-path="url(#pb8fdf6cdc0)">
     <use xlink:href="#m0fd544e87b" x="0" y="244.529219" style="fill: #235ebc; stroke: #235ebc"/>
    </g>
   </g>
   <g id="PolyCollection_5">
    <defs>
     <path id="m9815661a5f" d="M 53.328125 -42.643427 
L 53.328125 -41.639684 
L 90.014792 -42.218792 
L 126.701458 -43.275612 
L 163.388125 -45.213096 
L 200.074792 -45.947383 
L 236.761458 -46.410589 
L 273.448125 -49.305853 
L 273.448125 -153.490445 
L 273.448125 -153.490445 
L 236.761458 -122.326882 
L 200.074792 -92.615097 
L 163.388125 -69.352275 
L 126.701458 -54.747617 
L 90.014792 -45.43606 
L 53.328125 -42.643427 
z
" style="stroke: #f9d002"/>
    </defs>
    <g clip-path="url(#pb8fdf6cdc0)">
     <use xlink:href="#m9815661a5f" x="0" y="244.529219" style="fill: #f9d002; stroke: #f9d002"/>
    </g>
   </g>
   <g id="PolyCollection_6">
    <defs>
     <path id="m1ede4e39a4" d="M 53.328125 -45.88204 
L 53.328125 -42.643427 
L 90.014792 -45.43606 
L 126.701458 -54.747617 
L 163.388125 -69.352275 
L 200.074792 -92.615097 
L 236.761458 -122.326882 
L 273.448125 -153.490445 
L 273.448125 -161.872126 
L 273.448125 -161.872126 
L 236.761458 -128.124307 
L 200.074792 -96.521236 
L 163.388125 -72.622915 
L 126.701458 -58.260166 
L 90.014792 -48.961641 
L 53.328125 -45.88204 
z
" style="stroke: #b20101"/>
    </defs>
    <g clip-path="url(#pb8fdf6cdc0)">
     <use xlink:href="#m1ede4e39a4" x="0" y="244.529219" style="fill: #b20101; stroke: #b20101"/>
    </g>
   </g>
   <g id="PolyCollection_7">
    <defs>
     <path id="m800abe98f6" d="M 53.328125 -45.949252 
L 53.328125 -45.88204 
L 90.014792 -48.961641 
L 126.701458 -58.260166 
L 163.388125 -72.622915 
L 200.074792 -96.521236 
L 236.761458 -128.124307 
L 273.448125 -161.872126 
L 273.448125 -162.000733 
L 273.448125 -162.000733 
L 236.761458 -128.252914 
L 200.074792 -96.649843 
L 163.388125 -72.751522 
L 126.701458 -58.388773 
L 90.014792 -49.090248 
L 53.328125 -45.949252 
z
" style="stroke: #707070"/>
    </defs>
    <g clip-path="url(#pb8fdf6cdc0)">
     <use xlink:href="#m800abe98f6" x="0" y="244.529219" style="fill: #707070; stroke: #707070"/>
    </g>
   </g>
   <g id="PolyCollection_8">
    <defs>
     <path id="m715f9204ed" d="M 53.328125 -46.130309 
L 53.328125 -45.949252 
L 90.014792 -49.090248 
L 126.701458 -58.388773 
L 163.388125 -72.751522 
L 200.074792 -96.649843 
L 236.761458 -128.252914 
L 273.448125 -162.000733 
L 273.448125 -162.162401 
L 273.448125 -162.162401 
L 236.761458 -128.433971 
L 200.074792 -96.8309 
L 163.388125 -72.932579 
L 126.701458 -58.56983 
L 90.014792 -49.271305 
L 53.328125 -46.130309 
z
" style="stroke: #808080"/>
    </defs>
    <g clip-path="url(#pb8fdf6cdc0)">
     <use xlink:href="#m715f9204ed" x="0" y="244.529219" style="fill: #808080; stroke: #808080"/>
    </g>
   </g>
   <g id="PolyCollection_9">
    <defs>
     <path id="m5af38d4bc3" d="M 53.328125 -46.582243 
L 53.328125 -46.130309 
L 90.014792 -49.271305 
L 126.701458 -58.56983 
L 163.388125 -72.932579 
L 200.074792 -96.8309 
L 236.761458 -128.433971 
L 273.448125 -162.162401 
L 273.448125 -162.777712 
L 273.448125 -162.777712 
L 236.761458 -129.049281 
L 200.074792 -97.446211 
L 163.388125 -73.54789 
L 126.701458 -59.18514 
L 90.014792 -49.886616 
L 53.328125 -46.582243 
z
" style="stroke: #606060"/>
    </defs>
    <g clip-path="url(#pb8fdf6cdc0)">
     <use xlink:href="#m5af38d4bc3" x="0" y="244.529219" style="fill: #606060; stroke: #606060"/>
    </g>
   </g>
   <g id="PolyCollection_10">
    <defs>
     <path id="mc415ae1b9c" d="M 53.328125 -48.879846 
L 53.328125 -46.582243 
L 90.014792 -49.886616 
L 126.701458 -59.18514 
L 163.388125 -73.54789 
L 200.074792 -97.446211 
L 236.761458 -129.049281 
L 273.448125 -162.777712 
L 273.448125 -164.631703 
L 273.448125 -164.631703 
L 236.761458 -131.059507 
L 200.074792 -99.516539 
L 163.388125 -75.878775 
L 126.701458 -61.539776 
L 90.014792 -52.241252 
L 53.328125 -48.879846 
z
" style="stroke: #909090"/>
    </defs>
    <g clip-path="url(#pb8fdf6cdc0)">
     <use xlink:href="#mc415ae1b9c" x="0" y="244.529219" style="fill: #909090; stroke: #909090"/>
    </g>
   </g>
   <g id="PolyCollection_11">
    <defs>
     <path id="m8608268a45" d="M 53.328125 -48.943891 
L 53.328125 -48.879846 
L 90.014792 -52.241252 
L 126.701458 -61.539776 
L 163.388125 -75.878775 
L 200.074792 -99.516539 
L 236.761458 -131.059507 
L 273.448125 -164.631703 
L 273.448125 -164.757143 
L 273.448125 -164.757143 
L 236.761458 -131.184947 
L 200.074792 -99.641979 
L 163.388125 -76.004216 
L 126.701458 -61.665217 
L 90.014792 -52.366692 
L 53.328125 -48.943891 
z
" style="stroke: #505050"/>
    </defs>
    <g clip-path="url(#pb8fdf6cdc0)">
     <use xlink:href="#m8608268a45" x="0" y="244.529219" style="fill: #505050; stroke: #505050"/>
    </g>
   </g>
   <g id="PolyCollection_12">
    <defs>
     <path id="m99703e9c75" d="M 53.328125 -49.165291 
L 53.328125 -48.943891 
L 90.014792 -52.366692 
L 126.701458 -61.665217 
L 163.388125 -76.004216 
L 200.074792 -99.641979 
L 236.761458 -131.184947 
L 273.448125 -164.757143 
L 273.448125 -164.974601 
L 273.448125 -164.974601 
L 236.761458 -131.402405 
L 200.074792 -99.859437 
L 163.388125 -76.225615 
L 126.701458 -61.886617 
L 90.014792 -52.588092 
L 53.328125 -49.165291 
z
" style="stroke: #9e5a01"/>
    </defs>
    <g clip-path="url(#pb8fdf6cdc0)">
     <use xlink:href="#m99703e9c75" x="0" y="244.529219" style="fill: #9e5a01; stroke: #9e5a01"/>
    </g>
   </g>
   <g id="PolyCollection_13">
    <defs>
     <path id="m27a6d2bfec" d="M 53.328125 -49.982118 
L 53.328125 -49.165291 
L 90.014792 -52.588092 
L 126.701458 -61.886617 
L 163.388125 -76.225615 
L 200.074792 -99.859437 
L 236.761458 -131.402405 
L 273.448125 -164.974601 
L 273.448125 -164.976035 
L 273.448125 -164.976035 
L 236.761458 -131.488653 
L 200.074792 -100.200207 
L 163.388125 -76.668386 
L 126.701458 -62.438866 
L 90.014792 -53.269473 
L 53.328125 -49.982118 
z
" style="stroke: #262626"/>
    </defs>
    <g clip-path="url(#pb8fdf6cdc0)">
     <use xlink:href="#m27a6d2bfec" x="0" y="244.529219" style="fill: #262626; stroke: #262626"/>
    </g>
   </g>
   <g id="matplotlib.axis_1">
    <g id="xtick_1">
     <g id="line2d_1">
      <defs>
       <path id="m0d7a526555" d="M 0 0 
L 0 3.5 
" style="stroke: #000000; stroke-width: 0.8"/>
      </defs>
      <g>
       <use xlink:href="#m0d7a526555" x="53.328125" y="204.879219" style="stroke: #000000; stroke-width: 0.8"/>
      </g>
     </g>
     <g id="text_1">
      <!-- 2020 -->
      <g transform="translate(56.0875 237.329219)rotate(-90)scale(0.1 -0.1)">
       <defs>
        <path id="DejaVuSans-32" d="M 1228 531 
L 3431 531 
L 3431 0 
L 469 0 
L 469 531 
Q 828 903 1448 1529 
Q 2069 2156 2228 2338 
Q 2531 2678 2651 2914 
Q 2772 3150 2772 3378 
Q 2772 3750 2511 3984 
Q 2250 4219 1831 4219 
Q 1534 4219 1204 4116 
Q 875 4013 500 3803 
L 500 4441 
Q 881 4594 1212 4672 
Q 1544 4750 1819 4750 
Q 2544 4750 2975 4387 
Q 3406 4025 3406 3419 
Q 3406 3131 3298 2873 
Q 3191 2616 2906 2266 
Q 2828 2175 2409 1742 
Q 1991 1309 1228 531 
z
" transform="scale(0.015625)"/>
        <path id="DejaVuSans-30" d="M 2034 4250 
Q 1547 4250 1301 3770 
Q 1056 3291 1056 2328 
Q 1056 1369 1301 889 
Q 1547 409 2034 409 
Q 2525 409 2770 889 
Q 3016 1369 3016 2328 
Q 3016 3291 2770 3770 
Q 2525 4250 2034 4250 
z
M 2034 4750 
Q 2819 4750 3233 4129 
Q 3647 3509 3647 2328 
Q 3647 1150 3233 529 
Q 2819 -91 2034 -91 
Q 1250 -91 836 529 
Q 422 1150 422 2328 
Q 422 3509 836 4129 
Q 1250 4750 2034 4750 
z
" transform="scale(0.015625)"/>
       </defs>
       <use xlink:href="#DejaVuSans-32"/>
       <use xlink:href="#DejaVuSans-30" x="63.623047"/>
       <use xlink:href="#DejaVuSans-32" x="127.246094"/>
       <use xlink:href="#DejaVuSans-30" x="190.869141"/>
      </g>
     </g>
    </g>
    <g id="xtick_2">
     <g id="line2d_2">
      <g>
       <use xlink:href="#m0d7a526555" x="90.014792" y="204.879219" style="stroke: #000000; stroke-width: 0.8"/>
      </g>
     </g>
     <g id="text_2">
      <!-- 2025 -->
      <g transform="translate(92.774167 237.329219)rotate(-90)scale(0.1 -0.1)">
       <defs>
        <path id="DejaVuSans-35" d="M 691 4666 
L 3169 4666 
L 3169 4134 
L 1269 4134 
L 1269 2991 
Q 1406 3038 1543 3061 
Q 1681 3084 1819 3084 
Q 2600 3084 3056 2656 
Q 3513 2228 3513 1497 
Q 3513 744 3044 326 
Q 2575 -91 1722 -91 
Q 1428 -91 1123 -41 
Q 819 9 494 109 
L 494 744 
Q 775 591 1075 516 
Q 1375 441 1709 441 
Q 2250 441 2565 725 
Q 2881 1009 2881 1497 
Q 2881 1984 2565 2268 
Q 2250 2553 1709 2553 
Q 1456 2553 1204 2497 
Q 953 2441 691 2322 
L 691 4666 
z
" transform="scale(0.015625)"/>
       </defs>
       <use xlink:href="#DejaVuSans-32"/>
       <use xlink:href="#DejaVuSans-30" x="63.623047"/>
       <use xlink:href="#DejaVuSans-32" x="127.246094"/>
       <use xlink:href="#DejaVuSans-35" x="190.869141"/>
      </g>
     </g>
    </g>
    <g id="xtick_3">
     <g id="line2d_3">
      <g>
       <use xlink:href="#m0d7a526555" x="126.701458" y="204.879219" style="stroke: #000000; stroke-width: 0.8"/>
      </g>
     </g>
     <g id="text_3">
      <!-- 2030 -->
      <g transform="translate(129.460833 237.329219)rotate(-90)scale(0.1 -0.1)">
       <defs>
        <path id="DejaVuSans-33" d="M 2597 2516 
Q 3050 2419 3304 2112 
Q 3559 1806 3559 1356 
Q 3559 666 3084 287 
Q 2609 -91 1734 -91 
Q 1441 -91 1130 -33 
Q 819 25 488 141 
L 488 750 
Q 750 597 1062 519 
Q 1375 441 1716 441 
Q 2309 441 2620 675 
Q 2931 909 2931 1356 
Q 2931 1769 2642 2001 
Q 2353 2234 1838 2234 
L 1294 2234 
L 1294 2753 
L 1863 2753 
Q 2328 2753 2575 2939 
Q 2822 3125 2822 3475 
Q 2822 3834 2567 4026 
Q 2313 4219 1838 4219 
Q 1578 4219 1281 4162 
Q 984 4106 628 3988 
L 628 4550 
Q 988 4650 1302 4700 
Q 1616 4750 1894 4750 
Q 2613 4750 3031 4423 
Q 3450 4097 3450 3541 
Q 3450 3153 3228 2886 
Q 3006 2619 2597 2516 
z
" transform="scale(0.015625)"/>
       </defs>
       <use xlink:href="#DejaVuSans-32"/>
       <use xlink:href="#DejaVuSans-30" x="63.623047"/>
       <use xlink:href="#DejaVuSans-33" x="127.246094"/>
       <use xlink:href="#DejaVuSans-30" x="190.869141"/>
      </g>
     </g>
    </g>
    <g id="xtick_4">
     <g id="line2d_4">
      <g>
       <use xlink:href="#m0d7a526555" x="163.388125" y="204.879219" style="stroke: #000000; stroke-width: 0.8"/>
      </g>
     </g>
     <g id="text_4">
      <!-- 2035 -->
      <g transform="translate(166.1475 237.329219)rotate(-90)scale(0.1 -0.1)">
       <use xlink:href="#DejaVuSans-32"/>
       <use xlink:href="#DejaVuSans-30" x="63.623047"/>
       <use xlink:href="#DejaVuSans-33" x="127.246094"/>
       <use xlink:href="#DejaVuSans-35" x="190.869141"/>
      </g>
     </g>
    </g>
    <g id="xtick_5">
     <g id="line2d_5">
      <g>
       <use xlink:href="#m0d7a526555" x="200.074792" y="204.879219" style="stroke: #000000; stroke-width: 0.8"/>
      </g>
     </g>
     <g id="text_5">
      <!-- 2040 -->
      <g transform="translate(202.834167 237.329219)rotate(-90)scale(0.1 -0.1)">
       <defs>
        <path id="DejaVuSans-34" d="M 2419 4116 
L 825 1625 
L 2419 1625 
L 2419 4116 
z
M 2253 4666 
L 3047 4666 
L 3047 1625 
L 3713 1625 
L 3713 1100 
L 3047 1100 
L 3047 0 
L 2419 0 
L 2419 1100 
L 313 1100 
L 313 1709 
L 2253 4666 
z
" transform="scale(0.015625)"/>
       </defs>
       <use xlink:href="#DejaVuSans-32"/>
       <use xlink:href="#DejaVuSans-30" x="63.623047"/>
       <use xlink:href="#DejaVuSans-34" x="127.246094"/>
       <use xlink:href="#DejaVuSans-30" x="190.869141"/>
      </g>
     </g>
    </g>
    <g id="xtick_6">
     <g id="line2d_6">
      <g>
       <use xlink:href="#m0d7a526555" x="236.761458" y="204.879219" style="stroke: #000000; stroke-width: 0.8"/>
      </g>
     </g>
     <g id="text_6">
      <!-- 2045 -->
      <g transform="translate(239.520833 237.329219)rotate(-90)scale(0.1 -0.1)">
       <use xlink:href="#DejaVuSans-32"/>
       <use xlink:href="#DejaVuSans-30" x="63.623047"/>
       <use xlink:href="#DejaVuSans-34" x="127.246094"/>
       <use xlink:href="#DejaVuSans-35" x="190.869141"/>
      </g>
     </g>
    </g>
    <g id="xtick_7">
     <g id="line2d_7">
      <g>
       <use xlink:href="#m0d7a526555" x="273.448125" y="204.879219" style="stroke: #000000; stroke-width: 0.8"/>
      </g>
     </g>
     <g id="text_7">
      <!-- 2050 -->
      <g transform="translate(276.2075 237.329219)rotate(-90)scale(0.1 -0.1)">
       <use xlink:href="#DejaVuSans-32"/>
       <use xlink:href="#DejaVuSans-30" x="63.623047"/>
       <use xlink:href="#DejaVuSans-35" x="127.246094"/>
       <use xlink:href="#DejaVuSans-30" x="190.869141"/>
      </g>
     </g>
    </g>
   </g>
   <g id="matplotlib.axis_2">
    <g id="ytick_1">
     <g id="line2d_8">
      <path d="M 53.328125 204.879219 
L 273.448125 204.879219 
" clip-path="url(#pb8fdf6cdc0)" style="fill: none; stroke: #b0b0b0; stroke-width: 0.8; stroke-linecap: square"/>
     </g>
     <g id="line2d_9">
      <defs>
       <path id="m93082a3ab2" d="M 0 0 
L -3.5 0 
" style="stroke: #000000; stroke-width: 0.8"/>
      </defs>
      <g>
       <use xlink:href="#m93082a3ab2" x="53.328125" y="204.879219" style="stroke: #000000; stroke-width: 0.8"/>
      </g>
     </g>
     <g id="text_8">
      <!-- 0 -->
      <g transform="translate(39.965625 208.678438)scale(0.1 -0.1)">
       <use xlink:href="#DejaVuSans-30"/>
      </g>
     </g>
    </g>
    <g id="ytick_2">
     <g id="line2d_10">
      <path d="M 53.328125 172.565885 
L 273.448125 172.565885 
" clip-path="url(#pb8fdf6cdc0)" style="fill: none; stroke: #b0b0b0; stroke-width: 0.8; stroke-linecap: square"/>
     </g>
     <g id="line2d_11">
      <g>
       <use xlink:href="#m93082a3ab2" x="53.328125" y="172.565885" style="stroke: #000000; stroke-width: 0.8"/>
      </g>
     </g>
     <g id="text_9">
      <!-- 1000 -->
      <g transform="translate(20.878125 176.365104)scale(0.1 -0.1)">
       <defs>
        <path id="DejaVuSans-31" d="M 794 531 
L 1825 531 
L 1825 4091 
L 703 3866 
L 703 4441 
L 1819 4666 
L 2450 4666 
L 2450 531 
L 3481 531 
L 3481 0 
L 794 0 
L 794 531 
z
" transform="scale(0.015625)"/>
       </defs>
       <use xlink:href="#DejaVuSans-31"/>
       <use xlink:href="#DejaVuSans-30" x="63.623047"/>
       <use xlink:href="#DejaVuSans-30" x="127.246094"/>
       <use xlink:href="#DejaVuSans-30" x="190.869141"/>
      </g>
     </g>
    </g>
    <g id="ytick_3">
     <g id="line2d_12">
      <path d="M 53.328125 140.252552 
L 273.448125 140.252552 
" clip-path="url(#pb8fdf6cdc0)" style="fill: none; stroke: #b0b0b0; stroke-width: 0.8; stroke-linecap: square"/>
     </g>
     <g id="line2d_13">
      <g>
       <use xlink:href="#m93082a3ab2" x="53.328125" y="140.252552" style="stroke: #000000; stroke-width: 0.8"/>
      </g>
     </g>
     <g id="text_10">
      <!-- 2000 -->
      <g transform="translate(20.878125 144.051771)scale(0.1 -0.1)">
       <use xlink:href="#DejaVuSans-32"/>
       <use xlink:href="#DejaVuSans-30" x="63.623047"/>
       <use xlink:href="#DejaVuSans-30" x="127.246094"/>
       <use xlink:href="#DejaVuSans-30" x="190.869141"/>
      </g>
     </g>
    </g>
    <g id="ytick_4">
     <g id="line2d_14">
      <path d="M 53.328125 107.939219 
L 273.448125 107.939219 
" clip-path="url(#pb8fdf6cdc0)" style="fill: none; stroke: #b0b0b0; stroke-width: 0.8; stroke-linecap: square"/>
     </g>
     <g id="line2d_15">
      <g>
       <use xlink:href="#m93082a3ab2" x="53.328125" y="107.939219" style="stroke: #000000; stroke-width: 0.8"/>
      </g>
     </g>
     <g id="text_11">
      <!-- 3000 -->
      <g transform="translate(20.878125 111.738438)scale(0.1 -0.1)">
       <use xlink:href="#DejaVuSans-33"/>
       <use xlink:href="#DejaVuSans-30" x="63.623047"/>
       <use xlink:href="#DejaVuSans-30" x="127.246094"/>
       <use xlink:href="#DejaVuSans-30" x="190.869141"/>
      </g>
     </g>
    </g>
    <g id="ytick_5">
     <g id="line2d_16">
      <path d="M 53.328125 75.625885 
L 273.448125 75.625885 
" clip-path="url(#pb8fdf6cdc0)" style="fill: none; stroke: #b0b0b0; stroke-width: 0.8; stroke-linecap: square"/>
     </g>
     <g id="line2d_17">
      <g>
       <use xlink:href="#m93082a3ab2" x="53.328125" y="75.625885" style="stroke: #000000; stroke-width: 0.8"/>
      </g>
     </g>
     <g id="text_12">
      <!-- 4000 -->
      <g transform="translate(20.878125 79.425104)scale(0.1 -0.1)">
       <use xlink:href="#DejaVuSans-34"/>
       <use xlink:href="#DejaVuSans-30" x="63.623047"/>
       <use xlink:href="#DejaVuSans-30" x="127.246094"/>
       <use xlink:href="#DejaVuSans-30" x="190.869141"/>
      </g>
     </g>
    </g>
    <g id="ytick_6">
     <g id="line2d_18">
      <path d="M 53.328125 43.312552 
L 273.448125 43.312552 
" clip-path="url(#pb8fdf6cdc0)" style="fill: none; stroke: #b0b0b0; stroke-width: 0.8; stroke-linecap: square"/>
     </g>
     <g id="line2d_19">
      <g>
       <use xlink:href="#m93082a3ab2" x="53.328125" y="43.312552" style="stroke: #000000; stroke-width: 0.8"/>
      </g>
     </g>
     <g id="text_13">
      <!-- 5000 -->
      <g transform="translate(20.878125 47.111771)scale(0.1 -0.1)">
       <use xlink:href="#DejaVuSans-35"/>
       <use xlink:href="#DejaVuSans-30" x="63.623047"/>
       <use xlink:href="#DejaVuSans-30" x="127.246094"/>
       <use xlink:href="#DejaVuSans-30" x="190.869141"/>
      </g>
     </g>
    </g>
    <g id="ytick_7">
     <g id="line2d_20">
      <path d="M 53.328125 10.999219 
L 273.448125 10.999219 
" clip-path="url(#pb8fdf6cdc0)" style="fill: none; stroke: #b0b0b0; stroke-width: 0.8; stroke-linecap: square"/>
     </g>
     <g id="line2d_21">
      <g>
       <use xlink:href="#m93082a3ab2" x="53.328125" y="10.999219" style="stroke: #000000; stroke-width: 0.8"/>
      </g>
     </g>
     <g id="text_14">
      <!-- 6000 -->
      <g transform="translate(20.878125 14.798438)scale(0.1 -0.1)">
       <defs>
        <path id="DejaVuSans-36" d="M 2113 2584 
Q 1688 2584 1439 2293 
Q 1191 2003 1191 1497 
Q 1191 994 1439 701 
Q 1688 409 2113 409 
Q 2538 409 2786 701 
Q 3034 994 3034 1497 
Q 3034 2003 2786 2293 
Q 2538 2584 2113 2584 
z
M 3366 4563 
L 3366 3988 
Q 3128 4100 2886 4159 
Q 2644 4219 2406 4219 
Q 1781 4219 1451 3797 
Q 1122 3375 1075 2522 
Q 1259 2794 1537 2939 
Q 1816 3084 2150 3084 
Q 2853 3084 3261 2657 
Q 3669 2231 3669 1497 
Q 3669 778 3244 343 
Q 2819 -91 2113 -91 
Q 1303 -91 875 529 
Q 447 1150 447 2328 
Q 447 3434 972 4092 
Q 1497 4750 2381 4750 
Q 2619 4750 2861 4703 
Q 3103 4656 3366 4563 
z
" transform="scale(0.015625)"/>
       </defs>
       <use xlink:href="#DejaVuSans-36"/>
       <use xlink:href="#DejaVuSans-30" x="63.623047"/>
       <use xlink:href="#DejaVuSans-30" x="127.246094"/>
       <use xlink:href="#DejaVuSans-30" x="190.869141"/>
      </g>
     </g>
    </g>
    <g id="text_15">
     <!-- Capacity [GW] -->
     <g transform="translate(14.798438 144.099375)rotate(-90)scale(0.1 -0.1)">
      <defs>
       <path id="DejaVuSans-43" d="M 4122 4306 
L 4122 3641 
Q 3803 3938 3442 4084 
Q 3081 4231 2675 4231 
Q 1875 4231 1450 3742 
Q 1025 3253 1025 2328 
Q 1025 1406 1450 917 
Q 1875 428 2675 428 
Q 3081 428 3442 575 
Q 3803 722 4122 1019 
L 4122 359 
Q 3791 134 3420 21 
Q 3050 -91 2638 -91 
Q 1578 -91 968 557 
Q 359 1206 359 2328 
Q 359 3453 968 4101 
Q 1578 4750 2638 4750 
Q 3056 4750 3426 4639 
Q 3797 4528 4122 4306 
z
" transform="scale(0.015625)"/>
       <path id="DejaVuSans-61" d="M 2194 1759 
Q 1497 1759 1228 1600 
Q 959 1441 959 1056 
Q 959 750 1161 570 
Q 1363 391 1709 391 
Q 2188 391 2477 730 
Q 2766 1069 2766 1631 
L 2766 1759 
L 2194 1759 
z
M 3341 1997 
L 3341 0 
L 2766 0 
L 2766 531 
Q 2569 213 2275 61 
Q 1981 -91 1556 -91 
Q 1019 -91 701 211 
Q 384 513 384 1019 
Q 384 1609 779 1909 
Q 1175 2209 1959 2209 
L 2766 2209 
L 2766 2266 
Q 2766 2663 2505 2880 
Q 2244 3097 1772 3097 
Q 1472 3097 1187 3025 
Q 903 2953 641 2809 
L 641 3341 
Q 956 3463 1253 3523 
Q 1550 3584 1831 3584 
Q 2591 3584 2966 3190 
Q 3341 2797 3341 1997 
z
" transform="scale(0.015625)"/>
       <path id="DejaVuSans-70" d="M 1159 525 
L 1159 -1331 
L 581 -1331 
L 581 3500 
L 1159 3500 
L 1159 2969 
Q 1341 3281 1617 3432 
Q 1894 3584 2278 3584 
Q 2916 3584 3314 3078 
Q 3713 2572 3713 1747 
Q 3713 922 3314 415 
Q 2916 -91 2278 -91 
Q 1894 -91 1617 61 
Q 1341 213 1159 525 
z
M 3116 1747 
Q 3116 2381 2855 2742 
Q 2594 3103 2138 3103 
Q 1681 3103 1420 2742 
Q 1159 2381 1159 1747 
Q 1159 1113 1420 752 
Q 1681 391 2138 391 
Q 2594 391 2855 752 
Q 3116 1113 3116 1747 
z
" transform="scale(0.015625)"/>
       <path id="DejaVuSans-63" d="M 3122 3366 
L 3122 2828 
Q 2878 2963 2633 3030 
Q 2388 3097 2138 3097 
Q 1578 3097 1268 2742 
Q 959 2388 959 1747 
Q 959 1106 1268 751 
Q 1578 397 2138 397 
Q 2388 397 2633 464 
Q 2878 531 3122 666 
L 3122 134 
Q 2881 22 2623 -34 
Q 2366 -91 2075 -91 
Q 1284 -91 818 406 
Q 353 903 353 1747 
Q 353 2603 823 3093 
Q 1294 3584 2113 3584 
Q 2378 3584 2631 3529 
Q 2884 3475 3122 3366 
z
" transform="scale(0.015625)"/>
       <path id="DejaVuSans-69" d="M 603 3500 
L 1178 3500 
L 1178 0 
L 603 0 
L 603 3500 
z
M 603 4863 
L 1178 4863 
L 1178 4134 
L 603 4134 
L 603 4863 
z
" transform="scale(0.015625)"/>
       <path id="DejaVuSans-74" d="M 1172 4494 
L 1172 3500 
L 2356 3500 
L 2356 3053 
L 1172 3053 
L 1172 1153 
Q 1172 725 1289 603 
Q 1406 481 1766 481 
L 2356 481 
L 2356 0 
L 1766 0 
Q 1100 0 847 248 
Q 594 497 594 1153 
L 594 3053 
L 172 3053 
L 172 3500 
L 594 3500 
L 594 4494 
L 1172 4494 
z
" transform="scale(0.015625)"/>
       <path id="DejaVuSans-79" d="M 2059 -325 
Q 1816 -950 1584 -1140 
Q 1353 -1331 966 -1331 
L 506 -1331 
L 506 -850 
L 844 -850 
Q 1081 -850 1212 -737 
Q 1344 -625 1503 -206 
L 1606 56 
L 191 3500 
L 800 3500 
L 1894 763 
L 2988 3500 
L 3597 3500 
L 2059 -325 
z
" transform="scale(0.015625)"/>
       <path id="DejaVuSans-20" transform="scale(0.015625)"/>
       <path id="DejaVuSans-5b" d="M 550 4863 
L 1875 4863 
L 1875 4416 
L 1125 4416 
L 1125 -397 
L 1875 -397 
L 1875 -844 
L 550 -844 
L 550 4863 
z
" transform="scale(0.015625)"/>
       <path id="DejaVuSans-47" d="M 3809 666 
L 3809 1919 
L 2778 1919 
L 2778 2438 
L 4434 2438 
L 4434 434 
Q 4069 175 3628 42 
Q 3188 -91 2688 -91 
Q 1594 -91 976 548 
Q 359 1188 359 2328 
Q 359 3472 976 4111 
Q 1594 4750 2688 4750 
Q 3144 4750 3555 4637 
Q 3966 4525 4313 4306 
L 4313 3634 
Q 3963 3931 3569 4081 
Q 3175 4231 2741 4231 
Q 1884 4231 1454 3753 
Q 1025 3275 1025 2328 
Q 1025 1384 1454 906 
Q 1884 428 2741 428 
Q 3075 428 3337 486 
Q 3600 544 3809 666 
z
" transform="scale(0.015625)"/>
       <path id="DejaVuSans-57" d="M 213 4666 
L 850 4666 
L 1831 722 
L 2809 4666 
L 3519 4666 
L 4500 722 
L 5478 4666 
L 6119 4666 
L 4947 0 
L 4153 0 
L 3169 4050 
L 2175 0 
L 1381 0 
L 213 4666 
z
" transform="scale(0.015625)"/>
       <path id="DejaVuSans-5d" d="M 1947 4863 
L 1947 -844 
L 622 -844 
L 622 -397 
L 1369 -397 
L 1369 4416 
L 622 4416 
L 622 4863 
L 1947 4863 
z
" transform="scale(0.015625)"/>
      </defs>
      <use xlink:href="#DejaVuSans-43"/>
      <use xlink:href="#DejaVuSans-61" x="69.824219"/>
      <use xlink:href="#DejaVuSans-70" x="131.103516"/>
      <use xlink:href="#DejaVuSans-61" x="194.580078"/>
      <use xlink:href="#DejaVuSans-63" x="255.859375"/>
      <use xlink:href="#DejaVuSans-69" x="310.839844"/>
      <use xlink:href="#DejaVuSans-74" x="338.623047"/>
      <use xlink:href="#DejaVuSans-79" x="377.832031"/>
      <use xlink:href="#DejaVuSans-20" x="437.011719"/>
      <use xlink:href="#DejaVuSans-5b" x="468.798828"/>
      <use xlink:href="#DejaVuSans-47" x="507.8125"/>
      <use xlink:href="#DejaVuSans-57" x="585.302734"/>
      <use xlink:href="#DejaVuSans-5d" x="684.179688"/>
     </g>
    </g>
   </g>
   <g id="line2d_22">
    <path d="M 53.328125 203.37075 
L 90.014792 203.212544 
L 126.701458 203.037502 
L 163.388125 203.038794 
L 200.074792 203.038794 
L 236.761458 203.038794 
L 273.448125 203.038895 
" clip-path="url(#pb8fdf6cdc0)" style="fill: none; stroke: #08ad97; stroke-width: 1.5; stroke-linecap: square"/>
   </g>
   <g id="line2d_23">
    <path d="M 53.328125 203.370595 
L 90.014792 203.212389 
L 126.701458 203.037313 
L 163.388125 203.038636 
L 200.074792 203.038559 
L 236.761458 203.038624 
L 273.448125 203.038719 
" clip-path="url(#pb8fdf6cdc0)" style="fill: none; stroke: #6895dd; stroke-width: 1.5; stroke-linecap: square"/>
   </g>
   <g id="line2d_24">
    <path d="M 53.328125 203.367629 
L 90.014792 203.209422 
L 126.701458 203.034312 
L 163.388125 203.035665 
L 200.074792 203.035498 
L 236.761458 203.03564 
L 273.448125 202.280879 
" clip-path="url(#pb8fdf6cdc0)" style="fill: none; stroke: #74c6f2; stroke-width: 1.5; stroke-linecap: square"/>
   </g>
   <g id="line2d_25">
    <path d="M 53.328125 202.889534 
L 90.014792 202.310426 
L 126.701458 201.253606 
L 163.388125 199.316122 
L 200.074792 198.581836 
L 236.761458 198.118629 
L 273.448125 195.223366 
" clip-path="url(#pb8fdf6cdc0)" style="fill: none; stroke: #235ebc; stroke-width: 1.5; stroke-linecap: square"/>
   </g>
   <g id="line2d_26">
    <path d="M 53.328125 201.885792 
L 90.014792 199.093159 
L 126.701458 189.781602 
L 163.388125 175.176944 
L 200.074792 151.914122 
L 236.761458 122.202336 
L 273.448125 91.038774 
" clip-path="url(#pb8fdf6cdc0)" style="fill: none; stroke: #f9d002; stroke-width: 1.5; stroke-linecap: square"/>
   </g>
   <g id="line2d_27">
    <path d="M 53.328125 198.647179 
L 90.014792 195.567577 
L 126.701458 186.269053 
L 163.388125 171.906304 
L 200.074792 148.007983 
L 236.761458 116.404912 
L 273.448125 82.657093 
" clip-path="url(#pb8fdf6cdc0)" style="fill: none; stroke: #b20101; stroke-width: 1.5; stroke-linecap: square"/>
   </g>
   <g id="line2d_28">
    <path d="M 53.328125 198.579967 
L 90.014792 195.43897 
L 126.701458 186.140446 
L 163.388125 171.777697 
L 200.074792 147.879375 
L 236.761458 116.276305 
L 273.448125 82.528486 
" clip-path="url(#pb8fdf6cdc0)" style="fill: none; stroke: #707070; stroke-width: 1.5; stroke-linecap: square"/>
   </g>
   <g id="line2d_29">
    <path d="M 53.328125 198.39891 
L 90.014792 195.257913 
L 126.701458 185.959389 
L 163.388125 171.59664 
L 200.074792 147.698319 
L 236.761458 116.095248 
L 273.448125 82.366817 
" clip-path="url(#pb8fdf6cdc0)" style="fill: none; stroke: #808080; stroke-width: 1.5; stroke-linecap: square"/>
   </g>
   <g id="line2d_30">
    <path d="M 53.328125 197.946976 
L 90.014792 194.642603 
L 126.701458 185.344078 
L 163.388125 170.981329 
L 200.074792 147.083008 
L 236.761458 115.479938 
L 273.448125 81.751507 
" clip-path="url(#pb8fdf6cdc0)" style="fill: none; stroke: #606060; stroke-width: 1.5; stroke-linecap: square"/>
   </g>
   <g id="line2d_31">
    <path d="M 53.328125 195.649373 
L 90.014792 192.287967 
L 126.701458 182.989442 
L 163.388125 168.650443 
L 200.074792 145.01268 
L 236.761458 113.469712 
L 273.448125 79.897516 
" clip-path="url(#pb8fdf6cdc0)" style="fill: none; stroke: #909090; stroke-width: 1.5; stroke-linecap: square"/>
   </g>
   <g id="line2d_32">
    <path d="M 53.328125 195.585328 
L 90.014792 192.162527 
L 126.701458 182.864002 
L 163.388125 168.525003 
L 200.074792 144.887239 
L 236.761458 113.344272 
L 273.448125 79.772076 
" clip-path="url(#pb8fdf6cdc0)" style="fill: none; stroke: #505050; stroke-width: 1.5; stroke-linecap: square"/>
   </g>
   <g id="line2d_33">
    <path d="M 53.328125 195.363928 
L 90.014792 191.941127 
L 126.701458 182.642602 
L 163.388125 168.303603 
L 200.074792 144.669782 
L 236.761458 113.126814 
L 273.448125 79.554618 
" clip-path="url(#pb8fdf6cdc0)" style="fill: none; stroke: #9e5a01; stroke-width: 1.5; stroke-linecap: square"/>
   </g>
   <g id="line2d_34">
    <path d="M 53.328125 194.5471 
L 90.014792 191.259746 
L 126.701458 182.090352 
L 163.388125 167.860833 
L 200.074792 144.329011 
L 236.761458 113.040565 
L 273.448125 79.553184 
" clip-path="url(#pb8fdf6cdc0)" style="fill: none; stroke: #262626; stroke-width: 1.5; stroke-linecap: square"/>
   </g>
   <g id="patch_3">
    <path d="M 53.328125 204.879219 
L 53.328125 10.999219 
" style="fill: none; stroke: #000000; stroke-width: 0.8; stroke-linejoin: miter; stroke-linecap: square"/>
   </g>
   <g id="patch_4">
    <path d="M 273.448125 204.879219 
L 273.448125 10.999219 
" style="fill: none; stroke: #000000; stroke-width: 0.8; stroke-linejoin: miter; stroke-linecap: square"/>
   </g>
   <g id="patch_5">
    <path d="M 53.328125 204.879219 
L 273.448125 204.879219 
" style="fill: none; stroke: #000000; stroke-width: 0.8; stroke-linejoin: miter; stroke-linecap: square"/>
   </g>
   <g id="patch_6">
    <path d="M 53.328125 10.999219 
L 273.448125 10.999219 
" style="fill: none; stroke: #000000; stroke-width: 0.8; stroke-linejoin: miter; stroke-linecap: square"/>
   </g>
   <g id="text_16">
    <!-- SEA_EXIST_SE -->
    <g transform="translate(57.730525 24.387219)scale(0.09 -0.09)">
     <defs>
      <path id="DejaVuSans-53" d="M 3425 4513 
L 3425 3897 
Q 3066 4069 2747 4153 
Q 2428 4238 2131 4238 
Q 1616 4238 1336 4038 
Q 1056 3838 1056 3469 
Q 1056 3159 1242 3001 
Q 1428 2844 1947 2747 
L 2328 2669 
Q 3034 2534 3370 2195 
Q 3706 1856 3706 1288 
Q 3706 609 3251 259 
Q 2797 -91 1919 -91 
Q 1588 -91 1214 -16 
Q 841 59 441 206 
L 441 856 
Q 825 641 1194 531 
Q 1563 422 1919 422 
Q 2459 422 2753 634 
Q 3047 847 3047 1241 
Q 3047 1584 2836 1778 
Q 2625 1972 2144 2069 
L 1759 2144 
Q 1053 2284 737 2584 
Q 422 2884 422 3419 
Q 422 4038 858 4394 
Q 1294 4750 2059 4750 
Q 2388 4750 2728 4690 
Q 3069 4631 3425 4513 
z
" transform="scale(0.015625)"/>
      <path id="DejaVuSans-45" d="M 628 4666 
L 3578 4666 
L 3578 4134 
L 1259 4134 
L 1259 2753 
L 3481 2753 
L 3481 2222 
L 1259 2222 
L 1259 531 
L 3634 531 
L 3634 0 
L 628 0 
L 628 4666 
z
" transform="scale(0.015625)"/>
      <path id="DejaVuSans-41" d="M 2188 4044 
L 1331 1722 
L 3047 1722 
L 2188 4044 
z
M 1831 4666 
L 2547 4666 
L 4325 0 
L 3669 0 
L 3244 1197 
L 1141 1197 
L 716 0 
L 50 0 
L 1831 4666 
z
" transform="scale(0.015625)"/>
      <path id="DejaVuSans-5f" d="M 3263 -1063 
L 3263 -1509 
L -63 -1509 
L -63 -1063 
L 3263 -1063 
z
" transform="scale(0.015625)"/>
      <path id="DejaVuSans-58" d="M 403 4666 
L 1081 4666 
L 2241 2931 
L 3406 4666 
L 4084 4666 
L 2584 2425 
L 4184 0 
L 3506 0 
L 2194 1984 
L 872 0 
L 191 0 
L 1856 2491 
L 403 4666 
z
" transform="scale(0.015625)"/>
      <path id="DejaVuSans-49" d="M 628 4666 
L 1259 4666 
L 1259 0 
L 628 0 
L 628 4666 
z
" transform="scale(0.015625)"/>
      <path id="DejaVuSans-54" d="M -19 4666 
L 3928 4666 
L 3928 4134 
L 2272 4134 
L 2272 0 
L 1638 0 
L 1638 4134 
L -19 4134 
L -19 4666 
z
" transform="scale(0.015625)"/>
     </defs>
     <use xlink:href="#DejaVuSans-53"/>
     <use xlink:href="#DejaVuSans-45" x="63.476562"/>
     <use xlink:href="#DejaVuSans-41" x="126.660156"/>
     <use xlink:href="#DejaVuSans-5f" x="195.068359"/>
     <use xlink:href="#DejaVuSans-45" x="245.068359"/>
     <use xlink:href="#DejaVuSans-58" x="308.251953"/>
     <use xlink:href="#DejaVuSans-49" x="376.757812"/>
     <use xlink:href="#DejaVuSans-53" x="406.25"/>
     <use xlink:href="#DejaVuSans-54" x="469.726562"/>
     <use xlink:href="#DejaVuSans-5f" x="530.810547"/>
     <use xlink:href="#DejaVuSans-53" x="580.810547"/>
     <use xlink:href="#DejaVuSans-45" x="644.287109"/>
    </g>
   </g>
  </g>
  <g id="axes_2">
   <g id="patch_7">
    <path d="M 335.928125 204.879219 
L 556.048125 204.879219 
L 556.048125 10.999219 
L 335.928125 10.999219 
z
" style="fill: #ffffff"/>
   </g>
   <g id="PolyCollection_14">
    <defs>
     <path id="mb987dcafff" d="M 335.928125 -52.575266 
L 335.928125 -52.575333 
L 372.614792 -52.575333 
L 409.301458 -52.575333 
L 445.988125 -52.575333 
L 482.674792 -52.575333 
L 519.361458 -52.575333 
L 556.048125 -52.575333 
L 556.048125 -49.259688 
L 556.048125 -49.259688 
L 519.361458 -50.283785 
L 482.674792 -51.243148 
L 445.988125 -52.107915 
L 409.301458 -52.518009 
L 372.614792 -52.573427 
L 335.928125 -52.575266 
z
" style="stroke: #b8ea04"/>
    </defs>
    <g clip-path="url(#p3cbec66faa)">
     <use xlink:href="#mb987dcafff" x="0" y="244.529219" style="fill: #b8ea04; stroke: #b8ea04"/>
    </g>
   </g>
   <g id="PolyCollection_15">
    <defs>
     <path id="ma5278d90c2" d="M 335.928125 -62.805555 
L 335.928125 -52.575333 
L 372.614792 -52.575333 
L 409.301458 -52.575333 
L 445.988125 -52.575333 
L 482.674792 -52.575333 
L 519.361458 -52.575333 
L 556.048125 -52.575333 
L 556.048125 -65.434189 
L 556.048125 -65.434189 
L 519.361458 -65.456344 
L 482.674792 -65.437096 
L 445.988125 -65.056858 
L 409.301458 -64.694569 
L 372.614792 -63.505477 
L 335.928125 -62.805555 
z
" style="stroke: #08ad97"/>
    </defs>
    <g clip-path="url(#p3cbec66faa)">
     <use xlink:href="#ma5278d90c2" x="0" y="244.529219" style="fill: #08ad97; stroke: #08ad97"/>
    </g>
   </g>
   <g id="PolyCollection_16">
    <defs>
     <path id="m5e22e1f756" d="M 335.928125 -52.575254 
L 335.928125 -52.575266 
L 372.614792 -52.573427 
L 409.301458 -52.518009 
L 445.988125 -52.107915 
L 482.674792 -51.243148 
L 519.361458 -50.283785 
L 556.048125 -49.259688 
L 556.048125 -49.259513 
L 556.048125 -49.259513 
L 519.361458 -50.283655 
L 482.674792 -51.242592 
L 445.988125 -52.107873 
L 409.301458 -52.517757 
L 372.614792 -52.573413 
L 335.928125 -52.575254 
z
" style="stroke: #ea048a"/>
    </defs>
    <g clip-path="url(#p3cbec66faa)">
     <use xlink:href="#m5e22e1f756" x="0" y="244.529219" style="fill: #ea048a; stroke: #ea048a"/>
    </g>
   </g>
   <g id="PolyCollection_17">
    <defs>
     <path id="m70f2c3f498" d="M 335.928125 -62.805936 
L 335.928125 -62.805555 
L 372.614792 -63.505477 
L 409.301458 -64.694569 
L 445.988125 -65.056858 
L 482.674792 -65.437096 
L 519.361458 -65.456344 
L 556.048125 -65.434189 
L 556.048125 -65.434487 
L 556.048125 -65.434487 
L 519.361458 -65.45665 
L 482.674792 -65.43743 
L 445.988125 -65.057165 
L 409.301458 -64.694905 
L 372.614792 -63.50585 
L 335.928125 -62.805936 
z
" style="stroke: #6895dd"/>
    </defs>
    <g clip-path="url(#p3cbec66faa)">
     <use xlink:href="#m70f2c3f498" x="0" y="244.529219" style="fill: #6895dd; stroke: #6895dd"/>
    </g>
   </g>
   <g id="PolyCollection_18">
    <defs>
     <path id="m3d688128e7" d="M 335.928125 -62.812411 
L 335.928125 -62.805936 
L 372.614792 -63.50585 
L 409.301458 -64.694905 
L 445.988125 -65.057165 
L 482.674792 -65.43743 
L 519.361458 -65.45665 
L 556.048125 -65.434487 
L 556.048125 -67.168884 
L 556.048125 -67.168884 
L 519.361458 -65.461798 
L 482.674792 -65.442585 
L 445.988125 -65.062386 
L 409.301458 -64.700425 
L 372.614792 -63.512046 
L 335.928125 -62.812411 
z
" style="stroke: #74c6f2"/>
    </defs>
    <g clip-path="url(#p3cbec66faa)">
     <use xlink:href="#m3d688128e7" x="0" y="244.529219" style="fill: #74c6f2; stroke: #74c6f2"/>
    </g>
   </g>
   <g id="PolyCollection_19">
    <defs>
     <path id="m4efcfb0f41" d="M 335.928125 -64.590342 
L 335.928125 -62.812411 
L 372.614792 -63.512046 
L 409.301458 -64.700425 
L 445.988125 -65.062386 
L 482.674792 -65.442585 
L 519.361458 -65.461798 
L 556.048125 -67.168884 
L 556.048125 -82.888155 
L 556.048125 -82.888155 
L 519.361458 -78.073698 
L 482.674792 -78.295548 
L 445.988125 -75.878539 
L 409.301458 -70.456983 
L 372.614792 -66.731539 
L 335.928125 -64.590342 
z
" style="stroke: #235ebc"/>
    </defs>
    <g clip-path="url(#p3cbec66faa)">
     <use xlink:href="#m4efcfb0f41" x="0" y="244.529219" style="fill: #235ebc; stroke: #235ebc"/>
    </g>
   </g>
   <g id="PolyCollection_20">
    <defs>
     <path id="mc64099c4f6" d="M 335.928125 -65.610641 
L 335.928125 -64.590342 
L 372.614792 -66.731539 
L 409.301458 -70.456983 
L 445.988125 -75.878539 
L 482.674792 -78.295548 
L 519.361458 -78.073698 
L 556.048125 -82.888155 
L 556.048125 -184.430056 
L 556.048125 -184.430056 
L 519.361458 -153.462591 
L 482.674792 -125.713889 
L 445.988125 -100.857432 
L 409.301458 -82.448493 
L 372.614792 -70.190723 
L 335.928125 -65.610641 
z
" style="stroke: #f9d002"/>
    </defs>
    <g clip-path="url(#p3cbec66faa)">
     <use xlink:href="#mc64099c4f6" x="0" y="244.529219" style="fill: #f9d002; stroke: #f9d002"/>
    </g>
   </g>
   <g id="PolyCollection_21">
    <defs>
     <path id="m7e62140f77" d="M 335.928125 -66.72244 
L 335.928125 -65.610641 
L 372.614792 -70.190723 
L 409.301458 -82.448493 
L 445.988125 -100.857432 
L 482.674792 -125.713889 
L 519.361458 -153.462591 
L 556.048125 -184.430056 
L 556.048125 -220.178941 
L 556.048125 -220.178941 
L 519.361458 -174.757158 
L 482.674792 -138.353929 
L 445.988125 -106.583799 
L 409.301458 -86.097641 
L 372.614792 -71.766034 
L 335.928125 -66.72244 
z
" style="stroke: #b20101"/>
    </defs>
    <g clip-path="url(#p3cbec66faa)">
     <use xlink:href="#m7e62140f77" x="0" y="244.529219" style="fill: #b20101; stroke: #b20101"/>
    </g>
   </g>
   <g id="PolyCollection_22">
    <defs>
     <path id="mb554199cb2" d="M 335.928125 -66.743871 
L 335.928125 -66.72244 
L 372.614792 -71.766034 
L 409.301458 -86.097641 
L 445.988125 -106.583799 
L 482.674792 -138.353929 
L 519.361458 -174.757158 
L 556.048125 -220.178941 
L 556.048125 -220.188172 
L 556.048125 -220.188172 
L 519.361458 -174.768473 
L 482.674792 -138.36573 
L 445.988125 -106.616461 
L 409.301458 -86.258527 
L 372.614792 -71.89165 
L 335.928125 -66.743871 
z
" style="stroke: #707070"/>
    </defs>
    <g clip-path="url(#p3cbec66faa)">
     <use xlink:href="#mb554199cb2" x="0" y="244.529219" style="fill: #707070; stroke: #707070"/>
    </g>
   </g>
   <g id="PolyCollection_23">
    <defs>
     <path id="m27d986fa83" d="M 335.928125 -67.403349 
L 335.928125 -66.743871 
L 372.614792 -71.89165 
L 409.301458 -86.258527 
L 445.988125 -106.616461 
L 482.674792 -138.36573 
L 519.361458 -174.768473 
L 556.048125 -220.188172 
L 556.048125 -220.259805 
L 556.048125 -220.259805 
L 519.361458 -174.933055 
L 482.674792 -138.682653 
L 445.988125 -107.197447 
L 409.301458 -86.7662 
L 372.614792 -72.320717 
L 335.928125 -67.403349 
z
" style="stroke: #808080"/>
    </defs>
    <g clip-path="url(#p3cbec66faa)">
     <use xlink:href="#m27d986fa83" x="0" y="244.529219" style="fill: #808080; stroke: #808080"/>
    </g>
   </g>
   <g id="PolyCollection_24">
    <defs>
     <path id="m2e991f13ae" d="M 335.928125 -69.517738 
L 335.928125 -67.403349 
L 372.614792 -72.320717 
L 409.301458 -86.7662 
L 445.988125 -107.197447 
L 482.674792 -138.682653 
L 519.361458 -174.933055 
L 556.048125 -220.259805 
L 556.048125 -220.726877 
L 556.048125 -220.726877 
L 519.361458 -177.22901 
L 482.674792 -141.233112 
L 445.988125 -109.779878 
L 409.301458 -89.276676 
L 372.614792 -75.161253 
L 335.928125 -69.517738 
z
" style="stroke: #606060"/>
    </defs>
    <g clip-path="url(#p3cbec66faa)">
     <use xlink:href="#m2e991f13ae" x="0" y="244.529219" style="fill: #606060; stroke: #606060"/>
    </g>
   </g>
   <g id="PolyCollection_25">
    <defs>
     <path id="m49888ba7aa" d="M 335.928125 -78.610101 
L 335.928125 -69.517738 
L 372.614792 -75.161253 
L 409.301458 -89.276676 
L 445.988125 -109.779878 
L 482.674792 -141.233112 
L 519.361458 -177.22901 
L 556.048125 -220.726877 
L 556.048125 -221.408034 
L 556.048125 -221.408034 
L 519.361458 -180.030295 
L 482.674792 -146.327644 
L 445.988125 -119.267149 
L 409.301458 -98.898387 
L 372.614792 -85.571775 
L 335.928125 -78.610101 
z
" style="stroke: #909090"/>
    </defs>
    <g clip-path="url(#p3cbec66faa)">
     <use xlink:href="#m49888ba7aa" x="0" y="244.529219" style="fill: #909090; stroke: #909090"/>
    </g>
   </g>
   <g id="PolyCollection_26">
    <defs>
     <path id="mf46f8f9f1d" d="M 335.928125 -79.058929 
L 335.928125 -78.610101 
L 372.614792 -85.571775 
L 409.301458 -98.898387 
L 445.988125 -119.267149 
L 482.674792 -146.327644 
L 519.361458 -180.030295 
L 556.048125 -221.408034 
L 556.048125 -221.666647 
L 556.048125 -221.666647 
L 519.361458 -180.890276 
L 482.674792 -147.147415 
L 445.988125 -119.979079 
L 409.301458 -99.650385 
L 372.614792 -86.45086 
L 335.928125 -79.058929 
z
" style="stroke: #505050"/>
    </defs>
    <g clip-path="url(#p3cbec66faa)">
     <use xlink:href="#mf46f8f9f1d" x="0" y="244.529219" style="fill: #505050; stroke: #505050"/>
    </g>
   </g>
   <g id="PolyCollection_27">
    <defs>
     <path id="m4c347684e2" d="M 335.928125 -80.547315 
L 335.928125 -79.058929 
L 372.614792 -86.45086 
L 409.301458 -99.650385 
L 445.988125 -119.979079 
L 482.674792 -147.147415 
L 519.361458 -180.890276 
L 556.048125 -221.666647 
L 556.048125 -221.68659 
L 556.048125 -221.68659 
L 519.361458 -181.506245 
L 482.674792 -147.956479 
L 445.988125 -120.968352 
L 409.301458 -100.922756 
L 372.614792 -87.920455 
L 335.928125 -80.547315 
z
" style="stroke: #9e5a01"/>
    </defs>
    <g clip-path="url(#p3cbec66faa)">
     <use xlink:href="#m4c347684e2" x="0" y="244.529219" style="fill: #9e5a01; stroke: #9e5a01"/>
    </g>
   </g>
   <g id="PolyCollection_28">
    <defs>
     <path id="mf44d166b01" d="M 335.928125 -80.547315 
L 335.928125 -80.547315 
L 372.614792 -87.920455 
L 409.301458 -100.922756 
L 445.988125 -120.968352 
L 482.674792 -147.956479 
L 519.361458 -181.506245 
L 556.048125 -221.68659 
L 556.048125 -221.68659 
L 556.048125 -221.68659 
L 519.361458 -181.506245 
L 482.674792 -147.956479 
L 445.988125 -120.968352 
L 409.301458 -100.922756 
L 372.614792 -87.920455 
L 335.928125 -80.547315 
z
" style="stroke: #70af1d"/>
    </defs>
    <g clip-path="url(#p3cbec66faa)">
     <use xlink:href="#mf44d166b01" x="0" y="244.529219" style="fill: #70af1d; stroke: #70af1d"/>
    </g>
   </g>
   <g id="PolyCollection_29">
    <defs>
     <path id="meaf057c4d8" d="M 335.928125 -80.55402 
L 335.928125 -80.547315 
L 372.614792 -87.920455 
L 409.301458 -100.922756 
L 445.988125 -120.968352 
L 482.674792 -147.956479 
L 519.361458 -181.506245 
L 556.048125 -221.68659 
L 556.048125 -221.68668 
L 556.048125 -221.68668 
L 519.361458 -181.515417 
L 482.674792 -147.970552 
L 445.988125 -120.989836 
L 409.301458 -100.939573 
L 372.614792 -87.92688 
L 335.928125 -80.55402 
z
" style="stroke: #262626"/>
    </defs>
    <g clip-path="url(#p3cbec66faa)">
     <use xlink:href="#meaf057c4d8" x="0" y="244.529219" style="fill: #262626; stroke: #262626"/>
    </g>
   </g>
   <g id="matplotlib.axis_3">
    <g id="xtick_8">
     <g id="line2d_35">
      <g>
       <use xlink:href="#m0d7a526555" x="335.928125" y="204.879219" style="stroke: #000000; stroke-width: 0.8"/>
      </g>
     </g>
     <g id="text_17">
      <!-- 2020 -->
      <g transform="translate(338.6875 237.329219)rotate(-90)scale(0.1 -0.1)">
       <use xlink:href="#DejaVuSans-32"/>
       <use xlink:href="#DejaVuSans-30" x="63.623047"/>
       <use xlink:href="#DejaVuSans-32" x="127.246094"/>
       <use xlink:href="#DejaVuSans-30" x="190.869141"/>
      </g>
     </g>
    </g>
    <g id="xtick_9">
     <g id="line2d_36">
      <g>
       <use xlink:href="#m0d7a526555" x="372.614792" y="204.879219" style="stroke: #000000; stroke-width: 0.8"/>
      </g>
     </g>
     <g id="text_18">
      <!-- 2025 -->
      <g transform="translate(375.374167 237.329219)rotate(-90)scale(0.1 -0.1)">
       <use xlink:href="#DejaVuSans-32"/>
       <use xlink:href="#DejaVuSans-30" x="63.623047"/>
       <use xlink:href="#DejaVuSans-32" x="127.246094"/>
       <use xlink:href="#DejaVuSans-35" x="190.869141"/>
      </g>
     </g>
    </g>
    <g id="xtick_10">
     <g id="line2d_37">
      <g>
       <use xlink:href="#m0d7a526555" x="409.301458" y="204.879219" style="stroke: #000000; stroke-width: 0.8"/>
      </g>
     </g>
     <g id="text_19">
      <!-- 2030 -->
      <g transform="translate(412.060833 237.329219)rotate(-90)scale(0.1 -0.1)">
       <use xlink:href="#DejaVuSans-32"/>
       <use xlink:href="#DejaVuSans-30" x="63.623047"/>
       <use xlink:href="#DejaVuSans-33" x="127.246094"/>
       <use xlink:href="#DejaVuSans-30" x="190.869141"/>
      </g>
     </g>
    </g>
    <g id="xtick_11">
     <g id="line2d_38">
      <g>
       <use xlink:href="#m0d7a526555" x="445.988125" y="204.879219" style="stroke: #000000; stroke-width: 0.8"/>
      </g>
     </g>
     <g id="text_20">
      <!-- 2035 -->
      <g transform="translate(448.7475 237.329219)rotate(-90)scale(0.1 -0.1)">
       <use xlink:href="#DejaVuSans-32"/>
       <use xlink:href="#DejaVuSans-30" x="63.623047"/>
       <use xlink:href="#DejaVuSans-33" x="127.246094"/>
       <use xlink:href="#DejaVuSans-35" x="190.869141"/>
      </g>
     </g>
    </g>
    <g id="xtick_12">
     <g id="line2d_39">
      <g>
       <use xlink:href="#m0d7a526555" x="482.674792" y="204.879219" style="stroke: #000000; stroke-width: 0.8"/>
      </g>
     </g>
     <g id="text_21">
      <!-- 2040 -->
      <g transform="translate(485.434167 237.329219)rotate(-90)scale(0.1 -0.1)">
       <use xlink:href="#DejaVuSans-32"/>
       <use xlink:href="#DejaVuSans-30" x="63.623047"/>
       <use xlink:href="#DejaVuSans-34" x="127.246094"/>
       <use xlink:href="#DejaVuSans-30" x="190.869141"/>
      </g>
     </g>
    </g>
    <g id="xtick_13">
     <g id="line2d_40">
      <g>
       <use xlink:href="#m0d7a526555" x="519.361458" y="204.879219" style="stroke: #000000; stroke-width: 0.8"/>
      </g>
     </g>
     <g id="text_22">
      <!-- 2045 -->
      <g transform="translate(522.120833 237.329219)rotate(-90)scale(0.1 -0.1)">
       <use xlink:href="#DejaVuSans-32"/>
       <use xlink:href="#DejaVuSans-30" x="63.623047"/>
       <use xlink:href="#DejaVuSans-34" x="127.246094"/>
       <use xlink:href="#DejaVuSans-35" x="190.869141"/>
      </g>
     </g>
    </g>
    <g id="xtick_14">
     <g id="line2d_41">
      <g>
       <use xlink:href="#m0d7a526555" x="556.048125" y="204.879219" style="stroke: #000000; stroke-width: 0.8"/>
      </g>
     </g>
     <g id="text_23">
      <!-- 2050 -->
      <g transform="translate(558.8075 237.329219)rotate(-90)scale(0.1 -0.1)">
       <use xlink:href="#DejaVuSans-32"/>
       <use xlink:href="#DejaVuSans-30" x="63.623047"/>
       <use xlink:href="#DejaVuSans-35" x="127.246094"/>
       <use xlink:href="#DejaVuSans-30" x="190.869141"/>
      </g>
     </g>
    </g>
   </g>
   <g id="matplotlib.axis_4">
    <g id="ytick_8">
     <g id="line2d_42">
      <path d="M 335.928125 191.953885 
L 556.048125 191.953885 
" clip-path="url(#p3cbec66faa)" style="fill: none; stroke: #b0b0b0; stroke-width: 0.8; stroke-linecap: square"/>
     </g>
     <g id="line2d_43">
      <g>
       <use xlink:href="#m93082a3ab2" x="335.928125" y="191.953885" style="stroke: #000000; stroke-width: 0.8"/>
      </g>
     </g>
     <g id="text_24">
      <!-- 0 -->
      <g transform="translate(322.565625 195.753104)scale(0.1 -0.1)">
       <use xlink:href="#DejaVuSans-30"/>
      </g>
     </g>
    </g>
    <g id="ytick_9">
     <g id="line2d_44">
      <path d="M 335.928125 166.103219 
L 556.048125 166.103219 
" clip-path="url(#p3cbec66faa)" style="fill: none; stroke: #b0b0b0; stroke-width: 0.8; stroke-linecap: square"/>
     </g>
     <g id="line2d_45">
      <g>
       <use xlink:href="#m93082a3ab2" x="335.928125" y="166.103219" style="stroke: #000000; stroke-width: 0.8"/>
      </g>
     </g>
     <g id="text_25">
      <!-- 1000 -->
      <g transform="translate(303.478125 169.902438)scale(0.1 -0.1)">
       <use xlink:href="#DejaVuSans-31"/>
       <use xlink:href="#DejaVuSans-30" x="63.623047"/>
       <use xlink:href="#DejaVuSans-30" x="127.246094"/>
       <use xlink:href="#DejaVuSans-30" x="190.869141"/>
      </g>
     </g>
    </g>
    <g id="ytick_10">
     <g id="line2d_46">
      <path d="M 335.928125 140.252552 
L 556.048125 140.252552 
" clip-path="url(#p3cbec66faa)" style="fill: none; stroke: #b0b0b0; stroke-width: 0.8; stroke-linecap: square"/>
     </g>
     <g id="line2d_47">
      <g>
       <use xlink:href="#m93082a3ab2" x="335.928125" y="140.252552" style="stroke: #000000; stroke-width: 0.8"/>
      </g>
     </g>
     <g id="text_26">
      <!-- 2000 -->
      <g transform="translate(303.478125 144.051771)scale(0.1 -0.1)">
       <use xlink:href="#DejaVuSans-32"/>
       <use xlink:href="#DejaVuSans-30" x="63.623047"/>
       <use xlink:href="#DejaVuSans-30" x="127.246094"/>
       <use xlink:href="#DejaVuSans-30" x="190.869141"/>
      </g>
     </g>
    </g>
    <g id="ytick_11">
     <g id="line2d_48">
      <path d="M 335.928125 114.401885 
L 556.048125 114.401885 
" clip-path="url(#p3cbec66faa)" style="fill: none; stroke: #b0b0b0; stroke-width: 0.8; stroke-linecap: square"/>
     </g>
     <g id="line2d_49">
      <g>
       <use xlink:href="#m93082a3ab2" x="335.928125" y="114.401885" style="stroke: #000000; stroke-width: 0.8"/>
      </g>
     </g>
     <g id="text_27">
      <!-- 3000 -->
      <g transform="translate(303.478125 118.201104)scale(0.1 -0.1)">
       <use xlink:href="#DejaVuSans-33"/>
       <use xlink:href="#DejaVuSans-30" x="63.623047"/>
       <use xlink:href="#DejaVuSans-30" x="127.246094"/>
       <use xlink:href="#DejaVuSans-30" x="190.869141"/>
      </g>
     </g>
    </g>
    <g id="ytick_12">
     <g id="line2d_50">
      <path d="M 335.928125 88.551219 
L 556.048125 88.551219 
" clip-path="url(#p3cbec66faa)" style="fill: none; stroke: #b0b0b0; stroke-width: 0.8; stroke-linecap: square"/>
     </g>
     <g id="line2d_51">
      <g>
       <use xlink:href="#m93082a3ab2" x="335.928125" y="88.551219" style="stroke: #000000; stroke-width: 0.8"/>
      </g>
     </g>
     <g id="text_28">
      <!-- 4000 -->
      <g transform="translate(303.478125 92.350437)scale(0.1 -0.1)">
       <use xlink:href="#DejaVuSans-34"/>
       <use xlink:href="#DejaVuSans-30" x="63.623047"/>
       <use xlink:href="#DejaVuSans-30" x="127.246094"/>
       <use xlink:href="#DejaVuSans-30" x="190.869141"/>
      </g>
     </g>
    </g>
    <g id="ytick_13">
     <g id="line2d_52">
      <path d="M 335.928125 62.700552 
L 556.048125 62.700552 
" clip-path="url(#p3cbec66faa)" style="fill: none; stroke: #b0b0b0; stroke-width: 0.8; stroke-linecap: square"/>
     </g>
     <g id="line2d_53">
      <g>
       <use xlink:href="#m93082a3ab2" x="335.928125" y="62.700552" style="stroke: #000000; stroke-width: 0.8"/>
      </g>
     </g>
     <g id="text_29">
      <!-- 5000 -->
      <g transform="translate(303.478125 66.499771)scale(0.1 -0.1)">
       <use xlink:href="#DejaVuSans-35"/>
       <use xlink:href="#DejaVuSans-30" x="63.623047"/>
       <use xlink:href="#DejaVuSans-30" x="127.246094"/>
       <use xlink:href="#DejaVuSans-30" x="190.869141"/>
      </g>
     </g>
    </g>
    <g id="ytick_14">
     <g id="line2d_54">
      <path d="M 335.928125 36.849885 
L 556.048125 36.849885 
" clip-path="url(#p3cbec66faa)" style="fill: none; stroke: #b0b0b0; stroke-width: 0.8; stroke-linecap: square"/>
     </g>
     <g id="line2d_55">
      <g>
       <use xlink:href="#m93082a3ab2" x="335.928125" y="36.849885" style="stroke: #000000; stroke-width: 0.8"/>
      </g>
     </g>
     <g id="text_30">
      <!-- 6000 -->
      <g transform="translate(303.478125 40.649104)scale(0.1 -0.1)">
       <use xlink:href="#DejaVuSans-36"/>
       <use xlink:href="#DejaVuSans-30" x="63.623047"/>
       <use xlink:href="#DejaVuSans-30" x="127.246094"/>
       <use xlink:href="#DejaVuSans-30" x="190.869141"/>
      </g>
     </g>
    </g>
    <g id="ytick_15">
     <g id="line2d_56">
      <path d="M 335.928125 10.999219 
L 556.048125 10.999219 
" clip-path="url(#p3cbec66faa)" style="fill: none; stroke: #b0b0b0; stroke-width: 0.8; stroke-linecap: square"/>
     </g>
     <g id="line2d_57">
      <g>
       <use xlink:href="#m93082a3ab2" x="335.928125" y="10.999219" style="stroke: #000000; stroke-width: 0.8"/>
      </g>
     </g>
     <g id="text_31">
      <!-- 7000 -->
      <g transform="translate(303.478125 14.798438)scale(0.1 -0.1)">
       <defs>
        <path id="DejaVuSans-37" d="M 525 4666 
L 3525 4666 
L 3525 4397 
L 1831 0 
L 1172 0 
L 2766 4134 
L 525 4134 
L 525 4666 
z
" transform="scale(0.015625)"/>
       </defs>
       <use xlink:href="#DejaVuSans-37"/>
       <use xlink:href="#DejaVuSans-30" x="63.623047"/>
       <use xlink:href="#DejaVuSans-30" x="127.246094"/>
       <use xlink:href="#DejaVuSans-30" x="190.869141"/>
      </g>
     </g>
    </g>
    <g id="text_32">
     <!-- Energy [TWh/a] -->
     <g transform="translate(297.398437 146.850938)rotate(-90)scale(0.1 -0.1)">
      <defs>
       <path id="DejaVuSans-6e" d="M 3513 2113 
L 3513 0 
L 2938 0 
L 2938 2094 
Q 2938 2591 2744 2837 
Q 2550 3084 2163 3084 
Q 1697 3084 1428 2787 
Q 1159 2491 1159 1978 
L 1159 0 
L 581 0 
L 581 3500 
L 1159 3500 
L 1159 2956 
Q 1366 3272 1645 3428 
Q 1925 3584 2291 3584 
Q 2894 3584 3203 3211 
Q 3513 2838 3513 2113 
z
" transform="scale(0.015625)"/>
       <path id="DejaVuSans-65" d="M 3597 1894 
L 3597 1613 
L 953 1613 
Q 991 1019 1311 708 
Q 1631 397 2203 397 
Q 2534 397 2845 478 
Q 3156 559 3463 722 
L 3463 178 
Q 3153 47 2828 -22 
Q 2503 -91 2169 -91 
Q 1331 -91 842 396 
Q 353 884 353 1716 
Q 353 2575 817 3079 
Q 1281 3584 2069 3584 
Q 2775 3584 3186 3129 
Q 3597 2675 3597 1894 
z
M 3022 2063 
Q 3016 2534 2758 2815 
Q 2500 3097 2075 3097 
Q 1594 3097 1305 2825 
Q 1016 2553 972 2059 
L 3022 2063 
z
" transform="scale(0.015625)"/>
       <path id="DejaVuSans-72" d="M 2631 2963 
Q 2534 3019 2420 3045 
Q 2306 3072 2169 3072 
Q 1681 3072 1420 2755 
Q 1159 2438 1159 1844 
L 1159 0 
L 581 0 
L 581 3500 
L 1159 3500 
L 1159 2956 
Q 1341 3275 1631 3429 
Q 1922 3584 2338 3584 
Q 2397 3584 2469 3576 
Q 2541 3569 2628 3553 
L 2631 2963 
z
" transform="scale(0.015625)"/>
       <path id="DejaVuSans-67" d="M 2906 1791 
Q 2906 2416 2648 2759 
Q 2391 3103 1925 3103 
Q 1463 3103 1205 2759 
Q 947 2416 947 1791 
Q 947 1169 1205 825 
Q 1463 481 1925 481 
Q 2391 481 2648 825 
Q 2906 1169 2906 1791 
z
M 3481 434 
Q 3481 -459 3084 -895 
Q 2688 -1331 1869 -1331 
Q 1566 -1331 1297 -1286 
Q 1028 -1241 775 -1147 
L 775 -588 
Q 1028 -725 1275 -790 
Q 1522 -856 1778 -856 
Q 2344 -856 2625 -561 
Q 2906 -266 2906 331 
L 2906 616 
Q 2728 306 2450 153 
Q 2172 0 1784 0 
Q 1141 0 747 490 
Q 353 981 353 1791 
Q 353 2603 747 3093 
Q 1141 3584 1784 3584 
Q 2172 3584 2450 3431 
Q 2728 3278 2906 2969 
L 2906 3500 
L 3481 3500 
L 3481 434 
z
" transform="scale(0.015625)"/>
       <path id="DejaVuSans-68" d="M 3513 2113 
L 3513 0 
L 2938 0 
L 2938 2094 
Q 2938 2591 2744 2837 
Q 2550 3084 2163 3084 
Q 1697 3084 1428 2787 
Q 1159 2491 1159 1978 
L 1159 0 
L 581 0 
L 581 4863 
L 1159 4863 
L 1159 2956 
Q 1366 3272 1645 3428 
Q 1925 3584 2291 3584 
Q 2894 3584 3203 3211 
Q 3513 2838 3513 2113 
z
" transform="scale(0.015625)"/>
       <path id="DejaVuSans-2f" d="M 1625 4666 
L 2156 4666 
L 531 -594 
L 0 -594 
L 1625 4666 
z
" transform="scale(0.015625)"/>
      </defs>
      <use xlink:href="#DejaVuSans-45"/>
      <use xlink:href="#DejaVuSans-6e" x="63.183594"/>
      <use xlink:href="#DejaVuSans-65" x="126.5625"/>
      <use xlink:href="#DejaVuSans-72" x="188.085938"/>
      <use xlink:href="#DejaVuSans-67" x="227.449219"/>
      <use xlink:href="#DejaVuSans-79" x="290.925781"/>
      <use xlink:href="#DejaVuSans-20" x="350.105469"/>
      <use xlink:href="#DejaVuSans-5b" x="381.892578"/>
      <use xlink:href="#DejaVuSans-54" x="420.90625"/>
      <use xlink:href="#DejaVuSans-57" x="481.990234"/>
      <use xlink:href="#DejaVuSans-68" x="580.867188"/>
      <use xlink:href="#DejaVuSans-2f" x="644.246094"/>
      <use xlink:href="#DejaVuSans-61" x="677.9375"/>
      <use xlink:href="#DejaVuSans-5d" x="739.216797"/>
     </g>
    </g>
   </g>
   <g id="line2d_58">
    <path d="M 335.928125 191.953952 
L 372.614792 191.955792 
L 409.301458 192.01121 
L 445.988125 192.421304 
L 482.674792 193.286071 
L 519.361458 194.245434 
L 556.048125 195.269531 
" clip-path="url(#p3cbec66faa)" style="fill: none; stroke: #b8ea04; stroke-width: 1.5; stroke-linecap: square"/>
   </g>
   <g id="line2d_59">
    <path d="M 335.928125 181.723664 
L 372.614792 181.023742 
L 409.301458 179.83465 
L 445.988125 179.472361 
L 482.674792 179.092123 
L 519.361458 179.072874 
L 556.048125 179.09503 
" clip-path="url(#p3cbec66faa)" style="fill: none; stroke: #08ad97; stroke-width: 1.5; stroke-linecap: square"/>
   </g>
   <g id="line2d_60">
    <path d="M 335.928125 191.953965 
L 372.614792 191.955805 
L 409.301458 192.011462 
L 445.988125 192.421346 
L 482.674792 193.286626 
L 519.361458 194.245564 
L 556.048125 195.269706 
" clip-path="url(#p3cbec66faa)" style="fill: none; stroke: #ea048a; stroke-width: 1.5; stroke-linecap: square"/>
   </g>
   <g id="line2d_61">
    <path d="M 335.928125 181.723283 
L 372.614792 181.023368 
L 409.301458 179.834313 
L 445.988125 179.472054 
L 482.674792 179.091789 
L 519.361458 179.072569 
L 556.048125 179.094732 
" clip-path="url(#p3cbec66faa)" style="fill: none; stroke: #6895dd; stroke-width: 1.5; stroke-linecap: square"/>
   </g>
   <g id="line2d_62">
    <path d="M 335.928125 181.716808 
L 372.614792 181.017172 
L 409.301458 179.828793 
L 445.988125 179.466832 
L 482.674792 179.086633 
L 519.361458 179.067421 
L 556.048125 177.360334 
" clip-path="url(#p3cbec66faa)" style="fill: none; stroke: #74c6f2; stroke-width: 1.5; stroke-linecap: square"/>
   </g>
   <g id="line2d_63">
    <path d="M 335.928125 179.938877 
L 372.614792 177.797679 
L 409.301458 174.072236 
L 445.988125 168.65068 
L 482.674792 166.23367 
L 519.361458 166.455521 
L 556.048125 161.641064 
" clip-path="url(#p3cbec66faa)" style="fill: none; stroke: #235ebc; stroke-width: 1.5; stroke-linecap: square"/>
   </g>
   <g id="line2d_64">
    <path d="M 335.928125 178.918577 
L 372.614792 174.338496 
L 409.301458 162.080726 
L 445.988125 143.671787 
L 482.674792 118.81533 
L 519.361458 91.066627 
L 556.048125 60.099163 
" clip-path="url(#p3cbec66faa)" style="fill: none; stroke: #f9d002; stroke-width: 1.5; stroke-linecap: square"/>
   </g>
   <g id="line2d_65">
    <path d="M 335.928125 177.806779 
L 372.614792 172.763185 
L 409.301458 158.431577 
L 445.988125 137.94542 
L 482.674792 106.17529 
L 519.361458 69.77206 
L 556.048125 24.350278 
" clip-path="url(#p3cbec66faa)" style="fill: none; stroke: #b20101; stroke-width: 1.5; stroke-linecap: square"/>
   </g>
   <g id="line2d_66">
    <path d="M 335.928125 177.785347 
L 372.614792 172.637569 
L 409.301458 158.270692 
L 445.988125 137.912758 
L 482.674792 106.163489 
L 519.361458 69.760746 
L 556.048125 24.341047 
" clip-path="url(#p3cbec66faa)" style="fill: none; stroke: #707070; stroke-width: 1.5; stroke-linecap: square"/>
   </g>
   <g id="line2d_67">
    <path d="M 335.928125 177.12587 
L 372.614792 172.208502 
L 409.301458 157.763019 
L 445.988125 137.331772 
L 482.674792 105.846566 
L 519.361458 69.596164 
L 556.048125 24.269414 
" clip-path="url(#p3cbec66faa)" style="fill: none; stroke: #808080; stroke-width: 1.5; stroke-linecap: square"/>
   </g>
   <g id="line2d_68">
    <path d="M 335.928125 175.011481 
L 372.614792 169.367965 
L 409.301458 155.252543 
L 445.988125 134.749341 
L 482.674792 103.296106 
L 519.361458 67.300209 
L 556.048125 23.802342 
" clip-path="url(#p3cbec66faa)" style="fill: none; stroke: #606060; stroke-width: 1.5; stroke-linecap: square"/>
   </g>
   <g id="line2d_69">
    <path d="M 335.928125 165.919117 
L 372.614792 158.957444 
L 409.301458 145.630831 
L 445.988125 125.26207 
L 482.674792 98.201575 
L 519.361458 64.498924 
L 556.048125 23.121185 
" clip-path="url(#p3cbec66faa)" style="fill: none; stroke: #909090; stroke-width: 1.5; stroke-linecap: square"/>
   </g>
   <g id="line2d_70">
    <path d="M 335.928125 165.47029 
L 372.614792 158.078358 
L 409.301458 144.878833 
L 445.988125 124.55014 
L 482.674792 97.381804 
L 519.361458 63.638943 
L 556.048125 22.862571 
" clip-path="url(#p3cbec66faa)" style="fill: none; stroke: #505050; stroke-width: 1.5; stroke-linecap: square"/>
   </g>
   <g id="line2d_71">
    <path d="M 335.928125 163.981903 
L 372.614792 156.608764 
L 409.301458 143.606463 
L 445.988125 123.560867 
L 482.674792 96.57274 
L 519.361458 63.022973 
L 556.048125 22.842629 
" clip-path="url(#p3cbec66faa)" style="fill: none; stroke: #9e5a01; stroke-width: 1.5; stroke-linecap: square"/>
   </g>
   <g id="line2d_72">
    <path d="M 335.928125 163.981903 
L 372.614792 156.608764 
L 409.301458 143.606463 
L 445.988125 123.560867 
L 482.674792 96.57274 
L 519.361458 63.022973 
L 556.048125 22.842629 
" clip-path="url(#p3cbec66faa)" style="fill: none; stroke: #70af1d; stroke-width: 1.5; stroke-linecap: square"/>
   </g>
   <g id="line2d_73">
    <path d="M 335.928125 163.975199 
L 372.614792 156.602339 
L 409.301458 143.589645 
L 445.988125 123.539382 
L 482.674792 96.558667 
L 519.361458 63.013802 
L 556.048125 22.842539 
" clip-path="url(#p3cbec66faa)" style="fill: none; stroke: #262626; stroke-width: 1.5; stroke-linecap: square"/>
   </g>
   <g id="line2d_74">
    <path d="M 335.928125 163.434396 
L 372.614792 156.118465 
L 409.301458 143.281544 
L 445.988125 123.867072 
L 482.674792 97.875051 
L 519.361458 65.30548 
L 556.048125 26.15836 
" clip-path="url(#p3cbec66faa)" style="fill: none; stroke-dasharray: 7.4,3.2; stroke-dashoffset: 0; stroke: #000000; stroke-width: 2"/>
   </g>
   <g id="patch_8">
    <path d="M 335.928125 204.879219 
L 335.928125 10.999219 
" style="fill: none; stroke: #000000; stroke-width: 0.8; stroke-linejoin: miter; stroke-linecap: square"/>
   </g>
   <g id="patch_9">
    <path d="M 556.048125 204.879219 
L 556.048125 10.999219 
" style="fill: none; stroke: #000000; stroke-width: 0.8; stroke-linejoin: miter; stroke-linecap: square"/>
   </g>
   <g id="patch_10">
    <path d="M 335.928125 204.879219 
L 556.048125 204.879219 
" style="fill: none; stroke: #000000; stroke-width: 0.8; stroke-linejoin: miter; stroke-linecap: square"/>
   </g>
   <g id="patch_11">
    <path d="M 335.928125 10.999219 
L 556.048125 10.999219 
" style="fill: none; stroke: #000000; stroke-width: 0.8; stroke-linejoin: miter; stroke-linecap: square"/>
   </g>
   <g id="patch_12">
    <path d="M 466.042811 83.743203 
Q 469.358003 86.431735 472.673195 89.120268 
L 473.932951 87.56688 
Q 477.806345 92.317485 481.679739 97.06809 
Q 476.23165 94.25922 470.783561 91.45035 
L 472.043317 89.896962 
Q 468.728125 87.208429 465.412932 84.519897 
L 466.042811 83.743203 
z
" style="stroke: #000000; stroke-linecap: round"/>
   </g>
   <g id="text_33">
    <!-- Load/a -->
    <g transform="translate(429.243594 79.622822)scale(0.1 -0.1)">
     <defs>
      <path id="DejaVuSans-4c" d="M 628 4666 
L 1259 4666 
L 1259 531 
L 3531 531 
L 3531 0 
L 628 0 
L 628 4666 
z
" transform="scale(0.015625)"/>
      <path id="DejaVuSans-6f" d="M 1959 3097 
Q 1497 3097 1228 2736 
Q 959 2375 959 1747 
Q 959 1119 1226 758 
Q 1494 397 1959 397 
Q 2419 397 2687 759 
Q 2956 1122 2956 1747 
Q 2956 2369 2687 2733 
Q 2419 3097 1959 3097 
z
M 1959 3584 
Q 2709 3584 3137 3096 
Q 3566 2609 3566 1747 
Q 3566 888 3137 398 
Q 2709 -91 1959 -91 
Q 1206 -91 779 398 
Q 353 888 353 1747 
Q 353 2609 779 3096 
Q 1206 3584 1959 3584 
z
" transform="scale(0.015625)"/>
      <path id="DejaVuSans-64" d="M 2906 2969 
L 2906 4863 
L 3481 4863 
L 3481 0 
L 2906 0 
L 2906 525 
Q 2725 213 2448 61 
Q 2172 -91 1784 -91 
Q 1150 -91 751 415 
Q 353 922 353 1747 
Q 353 2572 751 3078 
Q 1150 3584 1784 3584 
Q 2172 3584 2448 3432 
Q 2725 3281 2906 2969 
z
M 947 1747 
Q 947 1113 1208 752 
Q 1469 391 1925 391 
Q 2381 391 2643 752 
Q 2906 1113 2906 1747 
Q 2906 2381 2643 2742 
Q 2381 3103 1925 3103 
Q 1469 3103 1208 2742 
Q 947 2381 947 1747 
z
" transform="scale(0.015625)"/>
     </defs>
     <use xlink:href="#DejaVuSans-4c"/>
     <use xlink:href="#DejaVuSans-6f" x="53.962891"/>
     <use xlink:href="#DejaVuSans-61" x="115.144531"/>
     <use xlink:href="#DejaVuSans-64" x="176.423828"/>
     <use xlink:href="#DejaVuSans-2f" x="239.900391"/>
     <use xlink:href="#DejaVuSans-61" x="273.591797"/>
    </g>
   </g>
   <g id="text_34">
    <!-- SEA_EXIST_SE -->
    <g transform="translate(340.330525 24.387219)scale(0.09 -0.09)">
     <use xlink:href="#DejaVuSans-53"/>
     <use xlink:href="#DejaVuSans-45" x="63.476562"/>
     <use xlink:href="#DejaVuSans-41" x="126.660156"/>
     <use xlink:href="#DejaVuSans-5f" x="195.068359"/>
     <use xlink:href="#DejaVuSans-45" x="245.068359"/>
     <use xlink:href="#DejaVuSans-58" x="308.251953"/>
     <use xlink:href="#DejaVuSans-49" x="376.757812"/>
     <use xlink:href="#DejaVuSans-53" x="406.25"/>
     <use xlink:href="#DejaVuSans-54" x="469.726562"/>
     <use xlink:href="#DejaVuSans-5f" x="530.810547"/>
     <use xlink:href="#DejaVuSans-53" x="580.810547"/>
     <use xlink:href="#DejaVuSans-45" x="644.287109"/>
    </g>
   </g>
  </g>
 </g>
 <defs>
  <clipPath id="pb8fdf6cdc0">
   <rect x="53.328125" y="10.999219" width="220.12" height="193.88"/>
  </clipPath>
  <clipPath id="p3cbec66faa">
   <rect x="335.928125" y="10.999219" width="220.12" height="193.88"/>
  </clipPath>
 </defs>
</svg>
